<?xml version="1.0" encoding="utf-8"?>
<!-- Generator: Adobe Illustrator 25.0.0, SVG Export Plug-In . SVG Version: 6.00 Build 0)  -->
<svg version="1.1" id="Calque_1" xmlns="http://www.w3.org/2000/svg" xmlns:xlink="http://www.w3.org/1999/xlink" x="0px" y="0px"
	 viewBox="0 0 405.19 124.19" style="enable-background:new 0 0 405.19 124.19;" xml:space="preserve">
<style type="text/css">
	.st0{fill:#010101;}
	.st1{fill:#060606;}
	.st2{fill:#030303;}
	.st3{fill:#080808;}
	.st4{fill:#070707;}
</style>
<g>
	<path class="st0" d="M202.73,124.09c-66.14,0-132.27-0.04-198.41,0.1c-3.67,0.01-4.33-0.83-4.32-4.38
		C0.15,81.17,0.13,42.52,0.02,3.87C0.01,0.83,0.6,0,3.81,0c132.6,0.1,265.21,0.1,397.81,0c3.05,0,3.56,0.69,3.55,3.61
		c-0.12,38.81-0.13,77.63,0.01,116.44c0.01,3.35-0.56,4.14-4.06,4.14C335,124.05,268.86,124.09,202.73,124.09z M282.99,92.21
		c-3.68-6.63-7.32-13.47-11.26-20.14c-1.49-2.52-1.46-3.77,0.89-6.03c7.03-6.78,8.2-15.45,5.31-24.38
		c-2.65-8.19-9.69-10.61-17.54-11.64c-7.01-0.92-13.95,0.4-20.91,0.2c-3.23-0.09-4.2,1.07-4.16,4.35
		c0.18,15.48,0.08,30.96,0.08,46.43c0,12.95,0,12.88,13.02,12.14c2.24-0.13,2.79-0.77,2.73-2.88c-0.13-4.99-0.12-9.99,0.01-14.98
		c0.03-1.19-1.12-3.34,1.46-3.39c1.74-0.04,3.68-0.22,4.51,2.12c0.66,1.86,1.96,3.52,2.48,5.41
		C262.9,91.55,270.34,96.37,282.99,92.21z M224.43,61.31c-0.12-2.66-0.15-5.33-0.39-7.97c-1.3-14.44-9.25-22.46-23.4-23.69
		c-13.46-1.17-23.91,6.23-27.57,19.39c-2.05,7.36-2.16,14.8-0.85,22.21c1.82,10.28,6.57,18.7,17.34,21.58
		c10.75,2.88,20.62,0.74,28.05-8.1C223.23,78.04,224.66,69.87,224.43,61.31z M374.12,93.08c-5.73-20.5-11.36-40.58-16.9-60.69
		c-0.44-1.59-0.58-2.84-2.69-2.66c-5.46,0.44-10.94,0.8-16.41,1.11c-1.75,0.1-2.56,0.75-3.05,2.54
		c-5.14,19.04-10.38,38.05-15.64,57.05c-0.52,1.88-0.26,2.52,1.91,2.72c11.53,1.04,12.2,0.64,14.67-10.43
		c0.14-0.65,0.22-1.31,0.33-1.96c0.44-2.51,1.79-3.28,4.44-3.3c12.42-0.08,12.42-0.18,15.25,11.72c0.12,0.48,0.14,0.99,0.25,1.48
		c0.37,1.62,1.13,2.53,3.06,2.47C364.14,92.99,368.94,93.08,374.12,93.08z M109.2,93.08c-5.73-20.59-11.3-40.53-16.81-60.48
		c-0.46-1.68-0.64-3.13-3.08-2.88c-5.29,0.53-10.6,0.81-15.91,1.11c-1.65,0.09-2.75,0.45-3.25,2.32
		c-5.31,19.83-10.71,39.64-16.09,59.48c13.98,1.87,13.97,1.87,17.11-11.11c0.08-0.32,0.28-0.62,0.32-0.94
		c0.33-2.39,1.63-3.06,4.06-3.11c12.68-0.3,12.68-0.38,15.58,11.9c0.11,0.49,0.22,0.97,0.32,1.46c0.37,1.71,1.32,2.36,3.16,2.3
		C99.26,92.99,103.92,93.08,109.2,93.08z M160.08,76.87c0-3.99-0.1-7.99,0.04-11.98c0.08-2.1-0.47-2.77-2.72-2.89
		c-11.29-0.62-11.28-0.7-11.28,10.27c0,0.67,0.07,1.34-0.01,1.99c-0.33,2.55,1.3,6.51-0.76,7.34c-2.68,1.09-5.94-1.09-8.56-2.92
		c-3.17-2.22-4.69-5.48-5.71-9.04c-1.16-4.06-1.11-8.22-0.96-12.38c0.55-15.21,4.63-18.37,19.66-15.26
		c7.02,1.45,6.93,1.43,9.09-5.38c0.83-2.6,0.93-3.95-2.36-4.84c-6.01-1.63-12.03-2.56-18.18-2.01c-12.24,1.09-19.2,7.04-22.71,18.88
		c-2.22,7.5-2.25,15.22-1.07,22.74c2.14,13.67,9.52,20.68,22.25,22.37c5.35,0.71,10.64-0.13,15.87-0.94
		c7.43-1.16,7.41-1.33,7.41-8.97C160.08,81.53,160.08,79.2,160.08,76.87z M309.77,61.56c0-6.82,0-13.64,0-20.46
		c0-12.25,0.02-12.09-12.15-10.57c-3.29,0.41-3.93,1.58-3.9,4.59c0.14,15.3,0.07,30.61,0.07,45.92c0,12.44,0,12.33,12.45,12.14
		c2.87-0.05,3.64-0.87,3.59-3.66C309.67,80.19,309.77,70.87,309.77,61.56z M31.17,85.39c0,7.7,0,7.7,7.81,7.7
		c8.04,0,8.04,0,8.04-7.98c0-7.8,0-7.8-7.81-7.8C31.17,77.31,31.17,77.31,31.17,85.39z"/>
	<path class="st1" d="M251.09,49.79c0-1.16-0.22-2.38,0.05-3.47c0.49-1.94-1.69-5.15,1.67-5.66c3.44-0.51,7.29,0.05,9.07,3.69
		c2.34,4.8,1.54,9.86-0.9,14.3c-1.65,3.01-5.07,1.16-7.71,1.12c-2.95-0.04-2.08-2.38-2.16-4.03
		C251.03,53.77,251.09,51.78,251.09,49.79z"/>
	<path class="st2" d="M208.25,61.19c0.42,5.32-0.58,10.68-3.37,15.53c-1.66,2.87-3.82,5.67-7.75,5.33
		c-3.71-0.32-6.02-2.71-7.21-6.03c-3.53-9.9-3.55-19.77,0.94-29.4c1.52-3.27,3.82-5.86,7.99-5.64c4.35,0.23,6.33,3.24,7.77,6.71
		C208.36,51.91,208.41,56.42,208.25,61.19z"/>
	<path class="st3" d="M345.8,45.81c1.29,5.45,2.38,10.96,3.95,16.33c1.01,3.44,0.14,4.55-3.31,4.13c-1.47-0.18-2.98-0.07-4.47-0.02
		c-1.58,0.05-2-0.58-1.6-2.1c1.59-6.19,3.12-12.39,4.66-18.59C345.28,45.64,345.54,45.73,345.8,45.81z"/>
	<path class="st4" d="M74.98,66.24c1.88-7.6,3.57-14.46,5.49-22.2c1.55,6.56,2.72,12.19,4.25,17.72c0.91,3.28,0.63,5-3.34,4.52
		C79.44,66.05,77.44,66.24,74.98,66.24z"/>
</g>
</svg>
