<?xml version="1.0" encoding="utf-8"?>
<!-- Generator: Adobe Illustrator 25.0.0, SVG Export Plug-In . SVG Version: 6.00 Build 0)  -->
<svg version="1.1" id="Calque_1" xmlns="http://www.w3.org/2000/svg" xmlns:xlink="http://www.w3.org/1999/xlink" x="0px" y="0px"
	 viewBox="0 0 1920 1080" style="enable-background:new 0 0 1920 1080;" xml:space="preserve">
<style type="text/css">
	.st0{fill:#929292;}
	.st1{fill:#ABABAB;}
	.st2{fill:#7B7B7B;}
	.st3{fill:#3E3E3E;}
	.st4{fill:#989898;}
	.st5{fill:#B5B5B5;}
	.st6{fill:#555555;}
	.st7{fill:#E1E1E1;}
	.st8{fill:#939393;}
	.st9{fill:#B2B2B2;}
	.st10{fill:#444444;}
	.st11{fill:#B4B4B4;}
	.st12{fill:#E0E0E0;}
	.st13{fill:#BBBBBB;}
	.st14{fill:#ECECEC;}
	.st15{fill:#EEEEEE;}
	.st16{fill:#F0F0F0;}
	.st17{fill:#D6D6D6;}
	.st18{fill:#414141;}
	.st19{fill:#424242;}
	.st20{fill:#999999;}
	.st21{fill:#D5D5D5;}
	.st22{fill:#676767;}
	.st23{fill:#6E6E6E;}
	.st24{fill:#D4D4D4;}
	.st25{fill:#B1B1B1;}
	.st26{fill:#B0B0B0;}
	.st27{fill:#717171;}
	.st28{fill:#CFCFCF;}
</style>
<g>
	<path class="st0" d="M1170.9,401.7c11.4,0,22.7,0,34,0c1.6,0.7,2.8,0.7,4.4,0c2.1,0,4,0,6.1,0c2.7,0,5.3,0,8.2,0
		c5.3,0.2,9.1,2.7,11.4,7.6c0.9,1.9,1.3,3.8,1.6,5.7c-1.6,2.8-2.1,3.2-4.9,2.3c-0.5-0.2-1.1-0.4-1.7-0.5c-1.9-0.4-3.6,0.2-4.6,1.7
		c-1.1,1.6-1.3,3.2-0.4,4.9s2.5,2.3,4.4,2.3c1.6,0,2.5-0.9,3.4-2.1c1.1-1.6,2.7-2.7,4.8-2.1c2.7,15,5.3,29.9,8,44.9
		c0.2,0.7,0.4,1.3,0.5,2.1c0.5,3.4,1.1,6.9,1.7,10.2c0.2,1.6,0.5,3,0.4,4.6c-1.7,0-3.6,0-5.3,0c-161.6,0-323.1,0-484.7,0
		c-1.3,0-2.7,0-4,0c-3,0-3.4,0.4-2.8,3.2c0,0.2,0,0.4,0.2,0.7c2.8,15.2,5.5,30.5,8.4,45.6c2.5,13.1,4.9,26.3,7.2,39.4
		c4.2,23.4,8.6,46.8,12.7,70.2c2.3,12.9,4.8,25.9,7,38.8c4.2,23.1,8.4,46,12.5,69.1c2.3,12.5,4.6,25.1,6.9,37.7c1.3,7,2.5,13.9,4,21
		c1.6,7.6,5.9,12.9,12.7,16.6c0.7,0.4,1.7,0.9,2.5,1.3c-0.7,0-1.3,0-2.1,0c-19,0-38.1,0-57.1,0c-1.7-0.9-3.6-1.7-5.3-2.7
		c-0.7-0.4-1.7-0.7-2.5-1.6c-6.7-5.5-10.7-12.3-10.7-21.1c0-4,0-8,0-12c0-1.1,0-2.1-0.2-3.2c-0.5-3.2-0.5-6.3-0.5-9.5c0-4,0-8,0-12
		c0-1.1,0-2.5-0.2-3.6c-0.5-2.7-0.5-5.1-0.5-7.8c0-4.2,0-8.6,0-12.7c0-1.1,0-2.5-0.2-3.6c-0.5-2.7-0.5-5.3-0.5-8.2
		c0-4.4,0-8.8,0-13.1c0-1.1,0-2.5-0.2-3.6c-0.5-2.8-0.5-5.7-0.5-8.6c0-4.4,0-8.8,0-13.1c0-1.1,0-2.5-0.2-3.6c-0.4-2.3-0.5-4.8-0.5-7
		c0-4.4,0-8.8,0-13.1c0-1.1,0-2.5-0.2-3.6c-0.5-3-0.5-6.1-0.5-9.1c0-4.2,0-8.4,0-12.3c0-1.1,0-2.5-0.2-3.6c-0.5-2.7-0.5-5.1-0.5-7.8
		c0-4.2,0-8.6,0-12.7c0-1.1,0-2.1-0.2-3.2c-0.7-3.4-0.5-6.9-0.5-10.2c0-4,0-8,0-12c0-1.1,0-2.5-0.2-3.6c-0.5-2.8-0.5-5.7-0.5-8.6
		c0-4,0-7.8,0-11.8c0-1.1,0-2.1-0.2-3.2c-0.5-2.8-0.5-5.9-0.5-8.8c0-4.4,0-8.8,0-13.1c0-1.1,0-2.5-0.2-3.6c-0.5-3-0.5-6.1-0.5-9.1
		c0-4.2,0-8.4,0-12.3c0-1.1,0-2.5-0.2-3.6c-0.5-2.7-0.5-5.1-0.5-7.8c0-4.2,0-8.6,0-12.7c0-1.1,0-2.5-0.2-3.6
		c-0.5-2.7-0.5-5.1-0.5-7.8c0-4.2,0-8.6,0-12.7c0-1.1,0-2.1-0.2-3.2c-0.7-3.4-0.5-6.9-0.5-10.2c0-4.2,0-8.4,0-12.3
		c0-1.3,0-2.7-0.2-3.8c-0.4-1.9-0.4-3.8-0.4-5.7c0-7.6,0-15.4,0-23.1c0-1.6,0.2-3-0.5-4.6c0-0.4,0-0.9,0-1.3
		c0.2-1.6,0.7-2.7,2.1-3.4c2.1-0.2,4.4,0.4,6.5-0.7c11.4,0,22.7,0,34,0c0.2,0.5,0.5,1.1,0.4,1.7c-0.7,6.1-3.6,11.1-9.1,13.9
		c-1.1,0.5-2.3,0.7-3.4,0.2c-0.4-0.2-0.9-0.4-1.3-0.5c-2.1-0.5-4,0-5.3,1.9c-0.9,1.3-1.1,2.8-0.2,4.4c1.7,2.8,4.8,3.4,7.2,1.3
		c1.6-1.3,2.8-2.3,4.6-3.2c6.7-3.4,10.4-9,11.4-16.4c0.2-1.1,0.2-2.1,0.7-3c11.3,0,22.2,0,33.5,0c1.7,0.7,3.2,0.7,4.9,0
		c11.4,0,22.7,0,34,0c0.2,0.5,0.4,1.1,0.4,1.7c-0.7,5.5-2.8,10.1-7.8,13.1c-1.7,1.1-3.4,1.7-5.3,0.5c-0.4-0.2-0.9-0.4-1.3-0.4
		c-2.8-0.5-6.5,2.5-5.1,6.1c1.1,2.8,4.9,4,7.2,1.7c1.6-1.6,3.4-2.5,5.1-3.6c6.5-3.6,10.2-9,11.1-16.2c0.2-1.1,0.2-2.1,0.7-3
		c11.3,0,22.2,0,33.5,0c1.7,0.9,3.2,0.5,4.9,0c11.4,0,22.9,0,34,0c0,0.7,0,1.3,0,2.1c-0.5,5.3-2.8,9.7-7.4,12.7
		c-1.7,1.1-3.6,1.7-5.7,0.7c-0.4-0.2-0.5-0.2-0.9-0.4c-1.9-0.4-3.4,0.4-4.6,1.9c-0.9,1.3-1.3,2.7-0.5,4.4c0.7,1.9,2.3,2.5,4.2,2.7
		c1.3,0,2.5-0.4,3.2-1.3c1.1-1.6,2.8-2.3,4.6-3.2c6.9-3.6,10.4-9.3,11.6-16.7c0.2-0.9,0.4-1.9,0.7-2.7c11.3,0,22.2,0,33.5,0
		c1.6,0.5,2.8,0.9,4.4-0.2c1.6,0,3,0.2,4.6,0.2c10.1,0,20.2,0,30.3,0c0.2,2.5-0.2,4.9-1.1,7.2c-1.6,3.4-4.2,5.9-7.2,8.2
		c-1.1,0.7-2.3,0.9-3.6,0.5c-0.4-0.2-0.9-0.4-1.3-0.5c-1.9-0.7-3.4-0.2-4.9,1.1c-1.6,1.3-1.9,3-1.1,4.8c0.7,1.9,2.1,2.7,4,2.8
		c1.6,0,2.8-0.4,3.8-1.7c0.9-1.3,2.3-1.9,3.6-2.7c6.9-3.4,10.7-9,12-16.4c0.2-1.1,0.2-2.3,0.7-3.4c11.1,0,22.2,0,33.3,0
		c1.6,0.5,2.8,0.9,4.4-0.2c1.1,0,2.3,0.2,3.6,0.2c10.4,0,20.8,0,31.2,0c0.4,6.9-3,11.6-8.4,15.2c-1.3,0.9-2.5,1.1-4,0.5
		c-0.5-0.2-1.3-0.5-2.1-0.5c-1.9-0.4-3.2,0.5-4.4,1.9c-1.1,1.3-1.3,2.7-0.7,4.4c1.1,3,4.9,4,7.2,1.7c1.7-1.7,3.6-2.7,5.5-3.8
		c3.2-1.7,5.9-4.4,7.8-7.4c2.1-3.6,3.2-7.6,3-11.8c11.4,0,22.7,0,34,0c1.6,0.5,2.8,0.9,4.4-0.2c1.1,0,2.1,0.2,3.2,0.2
		c10.4,0,21.1,0,31.6,0c0.2,5.7-2.3,10.2-6.5,13.9c-2.1,1.7-4.2,3-7,1.6c-0.2,0-0.2,0-0.4-0.2c-2.3-0.5-4.4,0.2-5.5,2.3
		c-0.9,2.1-0.4,4.8,1.6,6.1c1.7,1.1,4.4,0.9,5.9-0.7c1.1-1.3,2.5-2.1,4-2.8c6.1-3,9.9-7.8,11.8-14.3
		C1170.9,405.3,1170.9,403.4,1170.9,401.7z M813.9,463.5c-3.2,0-6.3,0-9.5,0c-0.7,0-1.7,0-2.5,0.2c-1.6,0.4-2.5,1.6-2.5,3
		c0,1.5,0.7,2.8,2.1,3.4c0.7,0.2,1.6,0.4,2.5,0.4c6.7,0,13.5,0,20.2,0c0.7,0,1.3,0,2.1-0.2c1.7-0.4,2.7-1.9,2.7-3.4
		c0-1.6-1.1-2.8-2.8-3.2c-0.7-0.2-1.7-0.2-2.5-0.2C820.4,463.5,817.1,463.5,813.9,463.5z M1190.9,463.5c-3.2,0-6.3,0-9.5,0
		c-0.9,0-1.9,0-2.8,0.2c-1.6,0.4-2.5,1.6-2.7,3c0,1.6,0.9,3,2.5,3.4c0.7,0.2,1.3,0.2,2.1,0.2c6.7,0,13.5,0,20.2,0
		c0.7,0,1.3,0,2.1-0.2c1.7-0.4,2.7-1.9,2.7-3.4c0-1.6-1.1-2.8-2.8-3.2c-0.7-0.2-1.7-0.2-2.5-0.2
		C1196.9,463.5,1193.9,463.5,1190.9,463.5z M1127.7,470.4L1127.7,470.4c3.2,0,6.5,0,9.5,0c0.9,0,1.9,0,2.8-0.4
		c1.7-0.4,2.5-1.9,2.5-3.4c-0.2-1.6-1.1-2.7-2.7-3c-0.7-0.2-1.7-0.2-2.5-0.2c-6.5,0-12.7,0-19.2,0c-0.7,0-1.3,0-2.1,0.2
		c-1.7,0.4-2.8,1.6-2.8,3c-0.2,1.7,0.9,3.2,2.8,3.6c0.9,0.2,1.9,0.2,2.8,0.2C1121.8,470.4,1124.9,470.4,1127.7,470.4z M1002.7,463.5
		c-3,0-6.1,0-9.1,0c-0.9,0-1.9,0-2.8,0.2c-1.7,0.4-2.8,1.6-2.8,3c0,1.7,0.9,3,2.8,3.6c0.7,0.2,1.3,0.2,2.1,0.2c6.5,0,12.9,0,19.4,0
		c0.9,0,1.9-0.2,2.8-0.4c1.6-0.4,2.3-1.9,2.3-3.2s-1.1-2.7-2.5-3c-0.9-0.2-1.9-0.2-2.8-0.2C1008.8,463.5,1005.8,463.5,1002.7,463.5z
		 M939.7,463.5c-3.2,0-6.3,0-9.5,0c-0.9,0-1.9,0-2.8,0.2c-1.6,0.4-2.5,1.7-2.5,3c0,1.3,0.7,2.7,2.3,3.2c0.7,0.2,1.6,0.4,2.5,0.4
		c6.7,0,13.5,0,20.2,0c0.7,0,1.7-0.2,2.5-0.4c1.6-0.5,2.3-1.9,2.1-3.2c0-1.6-0.9-2.7-2.5-3c-0.9-0.2-1.9-0.2-2.8-0.2
		C945.8,463.5,942.7,463.5,939.7,463.5z M876.7,463.5c-3,0-6.1,0-9.1,0c-0.7,0-1.7,0-2.5,0.2c-1.9,0.4-3,1.7-3,3.4
		c0,1.6,1.1,2.8,2.8,3.2c0.7,0.2,1.3,0.2,2.1,0.2c6.7,0,13.1,0,19.8,0c0.9,0,1.9,0,2.7-0.5c1.3-0.5,2.1-1.6,2.1-3
		c0-1.3-0.9-2.7-2.5-3c-0.9-0.2-1.9-0.2-2.8-0.2C883.2,463.5,880,463.5,876.7,463.5z M1065.5,463.5c-3.2,0-6.7,0-9.9,0
		c-0.9,0-1.9,0-2.8,0.4c-1.3,0.4-2.5,1.9-2.3,3.2c0,1.6,0.9,2.5,2.1,2.8c0.7,0.2,1.6,0.4,2.5,0.4c6.7,0,13.5,0,20.2,0
		c0.7,0,1.7-0.2,2.5-0.4c1.6-0.5,2.3-1.7,2.3-3.2s-1.1-2.8-2.8-3.2c-0.7-0.2-1.7-0.2-2.5-0.2
		C1071.6,463.5,1068.5,463.5,1065.5,463.5z"/>
	<path class="st1" d="M736.8,407.4c0.7,1.3,0.5,3,0.5,4.6c0,7.6,0,15.4,0,23.1c0,1.9,0,3.8,0.4,5.7c0.2,1.3,0.2,2.7,0.2,3.8
		c0,4.2,0,8.4,0,12.3c0,3.4-0.2,6.9,0.5,10.2c0.2,0.9,0.2,2.1,0.2,3.2c0,4.2,0,8.6,0,12.7c0,2.7,0,5.1,0.5,7.8
		c0.2,1.1,0.2,2.3,0.2,3.6c0,4.2,0,8.6,0,12.7c0,2.7,0,5.1,0.5,7.8c0.2,1.1,0.2,2.3,0.2,3.6c0,4.2,0,8.4,0,12.3c0,3,0,6.1,0.5,9.1
		c0.2,1.1,0.2,2.3,0.2,3.6c0,4.4,0,8.8,0,13.1c0,3,0,5.9,0.5,8.8c0.2,0.9,0.2,2.1,0.2,3.2c0,4,0,7.8,0,11.8c0,2.8,0,5.7,0.5,8.6
		c0.2,1.1,0.2,2.3,0.2,3.6c0,4,0,8,0,12c0,3.4-0.2,6.9,0.5,10.2c0.2,0.9,0.2,2.1,0.2,3.2c0,4.2,0,8.6,0,12.7c0,2.7,0,5.1,0.5,7.8
		c0.2,1.1,0.2,2.3,0.2,3.6c0,4.2,0,8.4,0,12.3c0,3,0,6.1,0.5,9.1c0.2,1.1,0.2,2.3,0.2,3.6c0,4.4,0,8.8,0,13.1c0,2.3,0,4.8,0.5,7
		c0.2,1.1,0.2,2.3,0.2,3.6c0,4.4,0,8.8,0,13.1c0,2.8,0,5.7,0.5,8.6c0.2,1.1,0.2,2.3,0.2,3.6c0,4.4,0,8.8,0,13.1c0,2.7,0,5.5,0.5,8.2
		c0.2,1.1,0.2,2.3,0.2,3.6c0,4.2,0,8.6,0,12.7c0,2.7,0,5.1,0.5,7.8c0.2,1.1,0.2,2.3,0.2,3.6c0,4,0,8,0,12c0,3.2-0.2,6.5,0.5,9.5
		c0.2,0.9,0.2,2.1,0.2,3.2c0,4,0,8,0,12c0,8.8,4,15.6,10.7,21.1c0.7,0.5,1.6,0.9,2.5,1.6c1.7,0.9,3.6,1.7,5.3,2.7
		c-11.6,0-23.2,0-34.9,0c-0.9-0.9-2.1-1.6-3.4-2.1c-9.1-4.2-15.8-15.8-13.9-27.2c0-0.4,0.2-0.7,0.2-1.1c0-4.6,0.4-9.1,0.7-13.9
		c0.4-3.4,0.4-6.9,0.5-10.2c0.4-4.9,0.7-9.9,0.7-14.8c0-5.9,1.1-11.8,0.7-17.7c0.9-3.8,0.4-7.6,0.7-11.3c0.4-4,0.7-8,0.5-12
		c0-0.7,0-1.6,0.2-2.1c0.4-1.9,0.5-4,0.4-6.1c0-5.7,1.1-11.3,0.7-16.9c0-0.4,0-0.9,0.2-1.3c0.4-1.7,0.4-3.4,0.4-5.3
		c-0.2-5.7,1.1-11.6,0.7-17.3c0.9-3.8,0.4-7.6,0.7-11.3c0.4-4,0.7-8,0.5-12c0-0.7,0-1.6,0.2-2.1c0.4-1.9,0.5-4,0.4-6.1
		c0-5.7,1.1-11.3,0.7-16.9c0-0.4,0-0.9,0.2-1.3c0.4-1.7,0.4-3.4,0.4-5.3c-0.2-5.7,1.1-11.6,0.7-17.3c0.9-3.8,0.5-7.6,0.7-11.3
		c0-0.9,0.2-1.9,0.4-2.8c0.2-1.1,0.4-2.1,0.4-3.2c0-3.6,0.2-7,0.5-10.7c0.4-4.6,0.4-9.1,0.7-13.7c0.4-3.4,0.4-6.9,0.5-10.2
		c0.4-4.9,0.7-9.9,0.7-14.8c0-5.9,1.1-11.8,0.7-17.7c0.9-3.8,0.4-7.6,0.7-11.3c0.4-4.2,0.4-8.4,0.7-12.3c0.3-4,0.5-8,0.5-12
		c0-0.7,0.2-1.3,0.2-2.1c0.4-1.7,0.4-3.4,0.4-5.3c-0.2-5.7,1.1-11.6,0.7-17.3c0.7-3.4,0.5-7,0.7-10.7c0-0.7,0-1.3,0.2-2.1
		c0.4-1.9,0.4-3.8,0.4-5.7c0-2.1,0.2-4.2,0.4-6.3c0.4-3,0.7-6.1-0.4-9.1c-0.2-1.7,0.2-3.4-0.5-4.9c0-0.4,0-0.5,0-0.9
		c0.2-0.5,0.4-0.9,0.5-1.6c0-0.4,0-0.9,0.2-1.3C736.4,407.8,736.6,407.6,736.8,407.4z"/>
	<path class="st2" d="M735.5,411.8c0.9,1.6,0.5,3.2,0.5,4.9c-0.4,2.7-0.7,5.3-1.1,8c-0.5,4.2-1.1,8.4-1.7,12.7
		c-0.9,6.7-1.7,13.3-2.7,20c-0.5,4.2-1.1,8.4-1.7,12.7c-0.7,6.7-1.7,13.1-2.5,19.8c-0.5,4.4-1.1,8.8-1.7,12.9
		c-0.7,6.7-1.7,13.1-2.5,19.8c-0.5,4.4-1.1,8.8-1.7,12.9c-0.7,6.5-1.7,13.1-2.5,19.8c-0.9,7.8-2.1,15.8-3,23.6
		c-0.9,6.5-1.7,13.1-2.5,19.8c-0.5,4.4-1.1,8.8-1.7,12.9c-0.7,6.7-1.7,13.1-2.5,19.8c-0.9,7.8-2.1,15.8-3,23.6
		c-0.9,6.7-1.7,13.3-2.7,20c-0.7,6.1-1.6,12.2-2.5,18.3c-0.9,6.7-1.7,13.3-2.7,20c-0.9,7.8-2.1,15.4-3,23.2
		c-0.9,6.7-1.7,13.3-2.7,20c-0.7,6.1-1.6,12.2-2.5,18.3c-1.1,8.2-2.1,16.2-3.2,24.3c-0.4,2.5-0.4,4.9-0.5,7.4
		c-0.2,5.3,1.7,9.9,4.9,13.7c3.8,4.6,8.4,7.4,14.6,7.2c9-0.2,17.7,0,26.6-0.2c11.6,0,23.2,0,34.9,0c19,0,38.1,0,57.1,0
		c0.7,0,1.3,0,2.1,0c2.1,0.2,4,0.2,6.1,0.2c134,0,267.9,0,401.9,0c1.6,0,3-0.2,4.6-0.2c-0.5,0.7-1.3,0.7-2.3,0.7c-1.3,0-2.8,0-4.2,0
		c-136.4,0-272.7,0-409.1-0.2c-49.7,0-99.5,0-149.2,0c-2.1,0-4.2,0-6.5,0c-0.5-0.7-1.1-1.1-1.9-1.3c-5.7-3.2-8-8.4-6.9-14.8
		c0.9-5.1,1.9-10.2,2.8-15.4c1.1-6.3,2.5-12.5,3.6-18.8c0.2-1.1,0.4-2.3,0.2-3.6l0,0c0.2-0.4,0.4-0.9,0.5-1.3
		c0.4-0.7,0.7-1.6,0.7-2.3c0-2.8,0.9-5.7,1.6-8.6c0.2-1.3,0.4-2.8,0.7-4.2c0.4-2.1,0.9-4.4,1.3-6.5c1.1-5.9,2.1-11.6,3.2-17.5
		c3-15.8,6.1-31.6,9.1-47.4c0.2-0.7,0.2-1.7,0.4-2.5c0.2-0.4,0.2-0.7,0.4-0.9c1.1-4.9,1.6-10.1,3.2-14.8c0-0.2,0-0.4,0-0.7
		c0.2-1.1,0.4-2.3,0.5-3.4c0.7-4.4,1.7-9,2.5-13.3c0.9-1.6,0.5-3.4,0.9-5.1c3.4-17.1,6.7-34,9.9-51.2c1.3-6.9,2.5-13.7,3.8-20.6
		c0.9-5.1,2.1-10.4,3-15.6c1.1-5.9,2.3-11.8,3.4-17.7c0.2-0.4,0.4-0.7,0.5-1.3c0.5-2.8,0.9-5.9,1.6-8.8c0.9-4.6,1.9-9.1,2.7-13.7
		c0.2-0.7,0.2-1.7,0.2-2.5c0.7-3,1.7-6.1,2.1-9.3c3.8-20.2,7.8-40.3,11.6-60.3c0.2-1.1,0.4-2.3,0.5-3.4c0.5-1.3,0.7-2.7,0.9-4.2
		C732.3,428.3,734,420,735.5,411.8z"/>
	<path class="st3" d="M667.2,827.8c2.1,0,4.2,0,6.5,0c49.7,0,99.5,0,149.2,0c136.4,0,272.7,0,409.1,0.2c1.3,0,2.8,0,4.2,0
		c0.7,0,1.7-0.2,2.3-0.7c0.7-2.3,2.5-3.2,4.8-3.8c0.7-0.2,1.6-0.4,2.5-0.5c3.6-0.7,7-1.9,10.1-4c2.5-1.6,4.6-3.6,5.7-6.5
		c0.7,0.2,1.6,0.4,2.3,0.7c2.5,0.9,5.1,1.6,7.8,1.3c1.6,0,3,0,4.6-0.2c0.2,3.2,0.4,6.5-0.2,9.5c-0.5,3.6-0.5,3.8,3.2,3.8
		c16.2,0,32.4,0,48.5,0c0.7,0,1.7,0,2.5-0.2c0.5,0,0.9-0.5,1.1-1.1c0.2-0.4,0.2-0.9,0.2-1.3c0.9-0.5,1.9-1.1,3.2-1.6
		c2.8-0.7,4.6-2.8,5.5-5.5c0.7-2.1,1.1-4.4,0.9-6.5c0-2.7,0-5.1,0-7.8c0.5-0.7,1.3-1.3,2.1-1.7c3.4-1.6,6.7-3.4,9.9-5.3
		c0.9,1.1,1.9,2.1,2.7,3.2c1.1,1.6,2.3,2.8,3.2,4.8c0.9,2.1,0.7,4-0.4,5.7c-0.7,1.1-1.6,2.1-2.5,3c-2.3,2.5-4.2,4.9-4.8,8.6
		c-0.2,1.7-1.1,3.2-2.5,4.6c-0.4,0.2-0.5,0.4-0.5,0.7c0,0.3,0.4,0.5,0.7,0.5c1.1,0,2.3,0,3.6,0c17.7,0,35.6-0.2,53.3-0.2
		c12.3,0,24.9,0.2,37.3,0.2c41.3,0,82.6,0,123.9,0c0.7,2.1,0.4,2.7-1.6,2.8c-1.6,0-3,0-4.6,0c-255.8,0-511.7,0-767.4,0
		c-140.1,0-280.1,0-420.2,0c-1.3,0-2.8,0-4.2,0c-1.9-0.2-2.1-0.9-1.1-2.8c1.6,0,3,0,4.6,0c44.9,0,90-0.2,134.9-0.2
		c12,0,24.1,0.2,36.1,0.2c39.6,0,79.1,0,118.6,0C664.2,828,665.7,827.8,667.2,827.8z"/>
	<path class="st4" d="M1567.3,828c-41.3,0-82.6,0-123.9,0c-12.3,0-24.9-0.2-37.3-0.2c-17.7,0-35.6,0.2-53.3,0.2c-1.1,0-2.3,0-3.6,0
		c-0.4,0-0.7-0.2-0.7-0.5c0-0.3,0.2-0.5,0.5-0.7c0.5,0.5,1.1,0.7,1.9,0.7c1.1,0,2.1,0,3.2,0c13.1,0,26.3,0,39.4,0c0.7,0,1.3,0,2.1,0
		c1.6,0,2.7-0.5,3.4-1.9c1.7-2.8,4.4-4,7.6-3.4c3.8,0.5,4-0.2,4.4-3.4c0.7-7.6,1.9-15.2,4.4-22.7c0.7-2.3,1.6-4.4,2.8-6.5
		c0.5-1.1,1.3-2.3,2.3-3.2c2.7-2.8,5.1-3.4,8.6-2.1c2.5,0.9,3.4,2.7,2.8,5.3c-0.4,1.9-1.3,3.6-2.3,5.1c-1.3,2.1-2.7,4.2-4,6.3
		c-4.2,6.5-6.9,13.5-9.3,20.8c0,0.2-0.2,0.4-0.2,0.7c-0.2,0.7,0.2,1.3,0.9,1.7c0.7,0.2,1.6,0.2,1.9-0.5c0.4-0.7,0.7-1.7,1.1-2.7
		c1.3-3.6,2.8-7,4.8-10.2c1.3-2.5,3-4.8,5.1-6.7c2.5-2.3,5.9-2.7,9-1.1c2.3,1.1,3,3,2.1,5.3c-1.1,2.7-3.2,4.6-5.7,6.3
		c-3.2,2.3-6.7,4.6-10.1,6.7c-1.1,0.7-2.3,1.7-3.4,2.7c-0.5,0.4-0.2,1.3,0.4,1.3c0.7,0.2,1.7,0.4,2.5,0.4c1.6,0,3,0,4.6,0
		c2.1,0,4,0.2,5.9,0.9c2.8,1.1,5.9,1.3,9.1,1.3c13.7,0,27.4,0,41.3,0c1.3,0,2.8,0,4.2,0c1.7,0,3.2,0.2,4.9,0.2c22.4,0,45.1,0,67.5,0
		C1564.1,827.3,1565.8,827,1567.3,828z"/>
	<path class="st4" d="M667.2,827.8c-1.6,0-3,0.2-4.6,0.2c-39.6,0-79.1,0-118.6,0c-12,0-24.1-0.2-36.1-0.2c-44.9,0-90,0.2-134.9,0.2
		c-1.6,0-3,0-4.6,0c1.3-0.9,3-0.5,4.6-0.5c12.7,0,25.5,0,38.2,0c13.3,0,26.6,0,40,0c1.6,0,3,0,4.6-0.2c4.2,0,8.4,0,12.3,0
		c10.7,0,21.3,0,32,0c2.5,0,4.8-0.2,7-0.9c2.7-0.7,5.3-1.3,8-0.7c0.2,0,0.4-0.2,0.7-0.2c-0.4-0.9-1.6-1.1-2.3-1.6
		c-3.4-1.6-6.9-3-10.2-4.8c-0.9-0.4-1.9-0.9-2.7-1.7c-0.4-0.4-0.2-1.1,0.2-1.6c0.7-0.4,1.6-0.5,2.3-0.5c3.6-0.2,6.7,1.1,9.5,3.4
		c2.1,1.7,3.8,3.6,5.3,5.7c0.5,0.5,0.9,1.3,1.9,1.6c0.4,0,0.7,0,0.9-0.2c0.4-0.2,0.4-0.5,0.2-0.9c-0.4-0.7-0.9-1.3-1.6-1.9
		c-4.6-5.5-9.3-11.1-13.3-16.9c-2.7-3.6-5.1-7.4-6.9-11.6c-0.4-0.9-0.7-2.1-0.9-3c-0.4-2.7,0.9-4,3.4-4.2c1.3,0,2.7,0.2,3.8,0.7
		c2.8,1.3,5.1,3.4,7,5.9c3,4.2,5.1,9,7,13.9c1.7,4.6,2.8,9.3,4,13.9c0.2,0.9,0.5,2.1,0.7,3c0.2,0.5,0.7,0.9,1.3,0.7
		c0.6-0.2,1.1-0.4,1.3-1.1c0.2-0.7,0.2-1.7,0.2-2.5c0-1.6,0.5-3,1.6-4.4c1.1-1.6,2.7-2.3,4.6-2.3c1.3,0,2.3,0.7,2.5,2.1
		c0.4,1.7,0,3.4-0.5,5.3c-0.4,1.1-0.2,1.6,1.1,1.7c1.1,0.4,2.3,0.9,3,1.7c0.9,0.9,1.9,1.3,3.2,1.1c0.5,0,1.1,0,1.7,0
		c38.8,0,77.7,0,116.5,0c1.6,0,3,0.4,4.4-0.7C666.1,826.6,666.6,827,667.2,827.8z"/>
	<path class="st5" d="M822.9,401.7c-1.7,0.9-3.2,0.9-4.9,0c0.5-0.9,0.5-2.1,0.7-3c1.6-9,8.6-17.9,21-18.3
		c9.7-0.2,19.6,6.5,21.7,17.9c0.2,1.1,0.5,2.3,0.7,3.4c-0.4,0.9-0.5,2.1-0.7,3c-0.7,7.4-4.8,12.7-11.1,16.2
		c-1.9,0.9-3.6,2.1-5.1,3.6c-2.3,2.3-6.1,1.3-7.2-1.7c-1.3-3.4,2.3-6.7,5.1-6.1c0.4,0.2,0.9,0.2,1.3,0.4c1.9,0.9,3.6,0.4,5.3-0.5
		c4.9-3,7-7.6,7.8-13.1c0-0.5-0.2-1.1-0.4-1.7c0.2-1.7,0.2-3.6-0.5-5.3c-2.1-5.5-5.9-9.3-11.6-11.1
		C832.8,381.5,821.7,392.5,822.9,401.7z"/>
	<path class="st5" d="M745.4,401.7c-2.1,1.1-4.2,0.5-6.5,0.7c1.3-0.7,2.1-1.7,2.3-3.4c0.2-1.3,0.4-2.5,0.9-3.8
		c2.8-9,11.4-15.2,20.8-14.8c9.1,0.4,15.8,4.9,19.8,13.3c0.5,1.3,0.9,2.8,1.1,4.4c0.2,1.1,0.4,2.3,0.7,3.4c-0.4,0.9-0.5,2.1-0.7,3
		c-0.9,7.4-4.8,12.9-11.4,16.4c-1.7,0.9-3.2,1.9-4.6,3.2c-2.5,2.3-5.5,1.6-7.2-1.3c-0.9-1.6-0.7-2.8,0.2-4.4
		c1.3-1.7,3.2-2.5,5.3-1.9c0.4,0.2,0.9,0.4,1.3,0.5c1.1,0.4,2.3,0.4,3.4-0.2c5.5-3,8.4-7.8,9.1-13.9c0-0.5-0.2-1.1-0.4-1.7
		c0-0.5,0.4-1.1,0.2-1.7c-0.4-4.4-2.3-8-5.5-10.9c-5.5-4.8-11.8-6.1-18.5-3C749.4,389.2,745.4,394.1,745.4,401.7z"/>
	<path class="st5" d="M939.3,401.7c-0.2,0.9-0.5,1.9-0.7,2.7c-1.1,7.6-4.8,13.3-11.6,16.7c-1.7,0.9-3.4,1.7-4.6,3.2
		c-0.7,0.9-1.9,1.3-3.2,1.3c-1.9,0-3.4-0.7-4.2-2.7c-0.7-1.6-0.4-3,0.5-4.4c1.1-1.6,2.7-2.3,4.6-1.9c0.4,0,0.7,0.2,0.9,0.4
		c2.1,1.1,3.8,0.5,5.7-0.7c4.6-3,6.9-7.4,7.4-12.7c0-0.7,0-1.3,0-2.1c0.2-2.5-0.4-4.8-1.3-6.9c-2.3-4.8-5.9-8-10.9-9.5
		c-12.7-3.8-23.1,7.2-21.9,16.4c-1.7,0.7-3.2,0.9-4.9,0c0.2-0.9,0.5-1.9,0.5-2.7c1.6-10.7,10.4-18.5,21.3-18.5c0.9,0,1.9,0,2.8,0
		c0.9,0.4,2.1,0.5,3,0.9c8.8,2.7,13.7,8.8,15.4,17.7C938.7,400,939,401,939.3,401.7z"/>
	<path class="st5" d="M736.8,407.4c-0.2,0.2-0.4,0.5-0.7,0.7c0-0.7,0.2-1.6,0.5-2.1C736.8,406.4,736.8,406.8,736.8,407.4z"/>
	<path class="st5" d="M736.1,409.3c-0.2,0.5-0.4,0.9-0.5,1.6C735.7,410.5,735.9,409.9,736.1,409.3z"/>
	<path class="st6" d="M1330.8,553.9c0.9,4,1.7,7.8,2.7,11.8c1.6,6.7,3,13.3,4,20.2c0.2,1.7,0.4,3.4,0,5.3c-1.3,8.2-3,16.2-4.9,24.3
		c-0.9,4.6-2.1,9.1-3.2,13.9c-0.2,1.1-0.7,1.9-2.1,2.1c-0.9-0.4-1.9-0.5-3-0.9c-2.3-0.5-4.6-1.6-6.3-3.4c-0.7-1.3-0.5-2.7-0.5-4.2
		c0.5-9,0.5-17.9,0.9-27c0.2-3,0.2-5.9-0.2-9c0-1.1-0.2-2.3-0.9-3.4c-2.1-2.8-4-5.9-6.1-8.8c-0.2-0.2-0.4-0.2-0.5-0.2
		c-0.7,0.5-0.5,1.3-0.5,1.9c0,9.1-0.2,18.3,0.5,27.4c0.4,3.8,0.5,7.6,0.7,11.4c0.2,1.6,0.2,2.8-1.1,3.8c-0.2,0.2-0.4,0.5-0.7,0.7
		l0,0c-8.8,4-17.7,7.4-27.2,9c-5.9,0.9-11.8,1.1-17.7,0.9c-2.8-0.2-5.7-0.7-8.6-0.5c-1.3-0.7-3-0.5-4.4-0.5c-2.3,0-4.8-0.2-7-0.7
		c-0.5-0.4-0.7-1.1-0.7-1.9c-0.2-2.1-0.4-4.2-0.4-6.3c-0.4-16.6,0.2-33.1,0.7-49.5c0-0.9,0-1.9,0-2.8c0-1.1-0.7-1.3-1.7-1.3
		c1.6-1.1,2.1-2.7,2.1-4.6c0-2.1-0.2-4.2,0.2-6.3c0.4-1.7,0.4-3.4,0.4-5.3c0-1.1,0-2.1,0.2-3.2c0.5-4.8,1.1-9.3,1.7-14.1
		c0.2-1.1,0-2.1-0.7-3c1.3-1.3,1.9-2.8,2.3-4.6c0.5-2.3,1.6-4.4,2.5-6.5c0.7-1.7,1.7-3.2,2.5-4.9c2.7-3.2,5.1-6.5,8.2-9.1
		c1.6-1.3,3-2.8,4.8-4.2c0.4-0.2,0.5-0.4,0.9-0.5c0.4,0,0.7,0,1.1,0c0.9,0.2,1.9,0.4,2.7,0.5c3.6,0.2,7.2-0.7,10.4-2.3
		c2.5-1.1,5.1-2.3,7.6-3.4c1.6-0.7,3-1.1,4.8-1.3c4.6,2.5,9,5.3,12.9,8.6c4.6,3.8,8.2,8.2,10.4,13.7c1.6,3.6,2.8,7.2,4.4,10.9
		c0.4,1.1,0.9,2.1,1.3,3.2c0.2,1.7,0.7,3.2,1.6,4.8c0.2,0.9,0.4,2.1,0.7,3c1.3,4.8,2.7,9.5,4,14.3
		C1330,552.2,1330.4,553,1330.8,553.9z M1309.3,578.7C1309.5,578.7,1309.5,578.7,1309.3,578.7c0.2-1.3,0-2.7,0.2-4
		c0.2-1.9-0.5-3.4-1.6-4.9c-2.8-4.4-5.7-8.8-8.6-13.1c-0.4-0.5-0.7-1.1-1.1-1.7c-0.2-0.2-0.5-0.4-0.9-0.4c-0.5,0-0.7,0.5-0.9,0.9
		c-0.4,0.9-0.2,1.9-0.2,2.8c0.2,0.7,0.4,1.7,0.4,2.5c0.7,7.6,3.8,14.1,8.2,20.2c0.9,1.3,2.1,2.5,3.4,3.6c0.4,0.2,1.1,0,1.1-0.5
		C1309.3,582.3,1309.3,580.5,1309.3,578.7z"/>
	<path class="st7" d="M1323.5,529c-0.4-1.1-0.9-2.1-1.3-3.2c-1.6-3.6-2.8-7.2-4.4-10.9c-2.3-5.5-5.9-9.9-10.4-13.7
		c-4-3.4-8.4-6.1-12.9-8.6c-2.7-3.4-4.6-7.2-5.7-11.4c-0.4-1.7-0.5-3.2,0.4-4.8c0.5-0.9,0.7-1.9,1.1-3c3.8-3,5.9-7.2,7-12
		c0.4-1.9,0.9-3.8,1.3-5.9c0.4-2.8,0.7-5.5,0.2-8.4c-0.4-2.7-0.9-5.1-4.2-5.5c-0.5,0-0.9-0.5-1.6-0.9c3.4,0.7,6.7-0.2,10.1-1.3
		c6.5-2.1,12.9-3.6,19.6-4.9c2.7-0.4,5.5-0.4,8.2-0.2c0.9,0,1.6,0.7,1.1,1.7c-0.4,0.7-0.9,1.7-1.3,2.5c-4.8,6.7-8.6,13.9-12.7,21
		c-1.6,2.5-2.5,5.1-3.6,7.8c-0.4,1.1-0.5,2.3-0.5,3.4c0.2,1.3,1.1,2.1,2.7,1.6c0.5-0.2,1.1-0.4,1.6-0.7c1.7-1.3,3.4-2.5,4.9-4
		c4.4-4.2,8.2-8.8,12.2-13.3c4.8-5.7,9.5-11.4,13.9-17.5c1.7-2.3,3.6-3.8,6.7-4c1.7-0.2,3.6-0.4,5.3-0.2c7.6,0.4,15.4,1.1,22.7,4.2
		c4.4,1.9,8.2,4.8,10.9,8.8c0.9,1.6,1.7,3,2.1,4.9c0.9,3.6,1.6,7.4,1.7,11.3c0.4,5.9-0.9,11.6-3.2,16.9c-1.3,3-3.6,5.5-6.3,7.6
		c-0.9,0.7-2.3,1.6-3.6,1.6c-2.8,0.4-5.9,0.9-8.8,0.9c-8,0-15.8,0-23.8,0c-2.3,0-4.6,0.2-6.7,0.7c-0.4,0.2-0.9,0.2-1.3,0.4
		c-2.1,0.7-2.5,2.1-0.7,3.6c0.7,0.7,1.7,1.3,2.5,1.9c6.3,3.6,13.3,5.7,20.4,6.9c1.6,0.2,3,0.5,4.6,0.5c2.7,0.2,5.5,0.4,8.2-0.2
		c0.5-0.2,1.1-0.2,1.7,0.4c0.5,0.5,0.2,1.3-0.2,1.9c0,0.2-0.2,0.4-0.4,0.5c-3.6,6.1-7.4,12.2-12,17.7c-3.4,4.2-7.4,7.6-11.8,10.4
		c-2.8,1.9-6.3,3-9.7,3.2c-2.8,0.2-5.7-0.4-8.4-1.3c-4.4-1.3-8.6-2.7-12.3-5.3C1325.6,529.4,1324.8,528.4,1323.5,529z"/>
	<path class="st8" d="M1256.1,628.9c2.8,0,5.7,0.4,8.6,0.5c5.9,0.4,11.8,0,17.7-0.9c9.5-1.6,18.5-4.9,27.2-9
		c0.9,7.8,1.9,15.4,2.1,23.4c0.2,3.4,0.5,6.9,1.3,10.2c2.8,12.9,6.9,25.3,12.5,37.3c1.6,3.2,3.4,6.3,5.5,9.1
		c2.7,3.4,4.4,7.2,5.9,11.3c3,7.4,5.1,15,7,22.7c4.2,16.7,6.9,33.8,9.3,51c0.4,2.7,0.5,5.1,0.9,7.8c0.2,1.6,0,3-0.9,4.4
		c-3.2,1.9-6.5,3.8-9.9,5.3c-0.9,0.4-1.7,0.9-2.1,1.7c-1.1-0.9-1.9-2.1-2.7-3.2c-6.7-11.4-13.3-22.9-20-34.2
		c-5.1-9-10.2-17.7-14.8-27c-2.8-5.7-5.7-11.4-8.6-17.1c-0.4-0.7-0.9-1.7-1.3-2.5c0-0.2-0.4-0.2-0.5-0.2c-0.2,0-0.4,0.4-0.4,0.5
		c0,0.4,0,0.7,0,1.1c-0.2,0-0.4,0.2-0.5,0.2c0-0.4-0.2-0.9,0-1.3c0.2-3-0.5-5.7-2.1-8.6c-1.9-3.8-3.8-8-5.5-11.8
		c-2.7-5.9-5.3-11.8-8-17.9c-2.1-4.9-4.4-9.7-6.5-14.6c-4.4-10.2-8.8-20.4-12.9-30.6c-0.7-1.9-1.6-3.8-2.1-5.7
		C1255,630,1255.4,629.5,1256.1,628.9z"/>
	<path class="st9" d="M1290.4,473.6c-0.4,0.9-0.5,2.1-1.1,3c-0.9,1.6-0.7,3-0.4,4.8c1.1,4.2,3,8,5.7,11.4c-1.7,0-3.2,0.5-4.8,1.3
		c-2.5,1.1-5.1,2.3-7.6,3.4c-3.4,1.6-6.9,2.5-10.4,2.3c-0.9,0-1.9-0.4-2.7-0.5c2.1-0.7,2.8-2.1,2.3-4.4c-0.4-2.1-0.5-4.2-0.7-6.3
		c1.3,1.7,1.7,1.9,3,1.3c3.4-1.6,6.7-3.4,9.1-6.5c0.2-0.2,0.4-0.5,0-0.9c-0.2-0.2-0.4-0.2-0.5-0.2c-2.8,1.1-5.9,1.1-9.1,1.1
		c-0.9,0-1.9,0.2-2.7,0.7c-1.1-0.5-2.3-0.7-3.4-0.7c-1.3-0.2-2.3-0.7-2.8-1.9c-0.5-0.9-1.1-2.1-1.3-3.2c-0.5-2.1-0.9-4.4-0.9-6.7
		c0-3.8,0-7.6,0-11.4c0-1.9,0-1.9-2.3-2.1c-0.4-0.2-0.9-0.5-1.3-0.7c2.8,0.2,5.7-0.4,8.4-1.3c2.1-0.7,4.2-1.1,6.3-1.1
		c2.3,0,4,0.7,5.1,2.7c0.5,0.9,1.1,1.7,1.7,2.7c0.4,0.7,0.7,1.7,1.3,2.5c0.7,1.3,1.7,1.6,2.8,0.5c0.4-0.4,0.7-0.5,1.1-0.7
		c1.1-0.5,2.1-0.2,2.5,1.1c0.2,1.1,0.2,2.3,0,3.6C1287.1,469.8,1288.2,471.9,1290.4,473.6z"/>
	<path class="st10" d="M1290.4,473.6c-2.3-1.6-3-3.8-2.8-6.5c0.2-1.1,0.2-2.3,0-3.6c-0.4-1.1-1.3-1.7-2.5-1.1
		c-0.4,0.2-0.7,0.5-1.1,0.7c-1.1,0.9-2.1,0.7-2.8-0.5c-0.5-0.7-0.9-1.7-1.3-2.5c-0.5-0.9-0.9-1.9-1.7-2.7c-1.3-1.7-3-2.7-5.1-2.7
		s-4.2,0.4-6.3,1.1c-2.7,0.9-5.5,1.6-8.4,1.3c-2.1-1.6-3-3.8-3.4-6.3c-0.5-3.4,0.7-6.3,3.6-8.2c1.3-0.9,2.7-1.6,4.2-1.9
		c2.1-0.7,4.4-1.1,6.7-1.3c4.2-0.2,8.2-0.4,12.3-0.4c4,0,7.8,0.5,11.4,1.7c0.5,0.4,0.9,0.9,1.6,0.9c3.2,0.5,3.8,3,4.2,5.5
		c0.5,2.8,0.2,5.7-0.2,8.4c-0.4,1.9-0.7,4-1.3,5.9C1296.3,466.2,1294.2,470.4,1290.4,473.6z"/>
	<path class="st7" d="M1259.6,458c2.3,0.2,2.3,0.2,2.3,2.1c0,3.8,0,7.6,0,11.4c0,2.3,0.4,4.6,0.9,6.7c0.2,1.1,0.7,2.3,1.3,3.2
		c0.5,1.1,1.6,1.7,2.8,1.9c1.1,0.2,2.3,0.2,3.4,0.7c0,1.3,0,2.8,0.2,4.2c0.2,2.1,0.4,4.2,0.7,6.3c0.5,2.3-0.4,3.6-2.3,4.4
		c-0.4,0-0.7,0-1.1,0c-0.4,0.2-0.5,0.4-0.9,0.5c-1.6,1.3-3,2.8-4.8,4.2c-3,2.7-5.5,6.1-8.2,9.1c-1.9-10.1-3.8-20-5.7-30.1
		c0.2-1.6-0.2-3-0.4-4.6c-0.5-3.4-1.1-6.9-1.7-10.2c0.5-0.4,1.3-0.4,1.9-0.9c3.4-3.2,7.4-6.1,11.1-9
		C1259.4,458.4,1259.4,458.2,1259.6,458z"/>
	<path class="st5" d="M1237.7,421.7c-2.1-0.5-3.6,0.5-4.8,2.1c-0.9,1.1-1.9,1.9-3.4,2.1c-1.9,0.2-3.4-0.4-4.4-2.3
		c-0.9-1.7-0.7-3.4,0.4-4.9c1.1-1.6,2.7-2.1,4.6-1.7c0.5,0.2,1.1,0.4,1.7,0.5c2.8,0.9,3.4,0.5,4.9-2.3c1.1,0.5,1.7,0,2.5-0.7
		c4.9-4.6,7.4-12.9,3-20.8c-4.6-8.2-15-11.4-23.2-6.9c-5.9,3.2-9,8.2-9.3,14.8c-1.6,0.7-2.8,0.7-4.4,0c0.4-1.9,0.4-4,1.1-5.9
		c3-9.3,11.8-16,21.9-15.2c13.5,0.9,22.7,13.1,20,26.1c-1.1,5.1-3.6,9.5-7.8,12.7C1239.2,419.8,1238.3,420.5,1237.7,421.7z"/>
	<path class="st5" d="M1131.9,401.5c-1.3,1.1-2.8,0.7-4.4,0.2c0.5-3.4,1.1-6.7,2.8-9.9c6.3-11.4,21.1-15,31.6-7.4
		c5.9,4.2,8.8,9.9,9,17.1c0,1.9,0,3.8-0.5,5.7c-1.7,6.7-5.7,11.4-11.8,14.3c-1.6,0.7-2.8,1.6-4,2.8c-1.3,1.7-4.2,1.9-5.9,0.7
		c-1.9-1.1-2.5-4-1.6-6.1c0.9-1.9,3-2.8,5.5-2.3c0.2,0,0.2,0,0.4,0.2c2.8,1.7,4.9,0.4,7-1.6c4.2-3.6,6.7-8.2,6.5-13.9
		c0-0.4,0-0.7,0-1.1c-0.5-7.6-5.9-13.7-13.3-15.4c-7.2-1.7-14.6,1.3-18.7,7.8C1133,395.6,1132.5,398.5,1131.9,401.5z"/>
	<path class="st11" d="M977,401.5c-1.3,1.1-2.8,0.7-4.4,0.2c0.2-1.1,0.5-2.3,0.7-3.4c1.9-10.7,10.9-17.5,20.6-17.9
		c8.6-0.4,18.5,4.8,21.5,16.2c0.4,1.7,0.4,3.6,1.3,5.1c-0.5,1.1-0.5,2.3-0.7,3.4c-1.3,7.4-5.1,13.1-12,16.4
		c-1.3,0.7-2.7,1.3-3.6,2.7c-0.9,1.1-2.3,1.7-3.8,1.7c-2.1,0-3.4-0.9-4-2.8c-0.7-1.9-0.4-3.4,1.1-4.8c1.3-1.3,3-1.9,4.9-1.1
		c0.4,0.2,0.9,0.4,1.3,0.5c1.3,0.5,2.7,0.4,3.6-0.5c2.8-2.3,5.7-4.6,7.2-8.2c0.9-2.3,1.3-4.8,1.1-7.2c0.2-4.8-1.7-8.8-5.1-12
		c-4.8-4.6-10.2-6.1-16.6-4.4c-6.9,1.9-10.7,6.5-12.5,13.1C977.4,399.4,977.2,400.6,977,401.5z"/>
	<path class="st11" d="M1054.4,401.5c-1.3,1.1-2.8,0.7-4.4,0.2c0.2-0.9,0.5-2.1,0.5-3c1.6-12.3,16.4-23.2,31-15.8
		c7.6,3.8,11.6,10.2,11.8,18.8c0.2,4.2-0.9,8.2-3,11.8c-1.9,3.2-4.6,5.7-7.8,7.4c-1.9,1.1-3.8,2.1-5.5,3.8c-2.3,2.3-6.1,1.3-7.2-1.7
		c-0.5-1.6-0.4-3,0.7-4.4s2.5-2.3,4.4-1.9c0.7,0.2,1.3,0.4,2.1,0.5c1.6,0.5,2.7,0.4,4-0.5c5.3-3.6,9-8.4,8.4-15.2
		c0.2-4.9-1.9-9-5.3-12.2c-9.1-8.6-21.3-4.6-26.3,2.8C1055.8,395,1055,398.3,1054.4,401.5z"/>
	<path class="st9" d="M1318,626.8c1.7,1.7,4,2.7,6.3,3.4c0.9,0.2,1.9,0.5,3,0.9c0,3.8-1.1,7-3.6,10.1c-1.7,1.9-3.4,3.8-5.3,5.7
		c-0.4,0.4-0.9,0.9-1.6,0.5c-0.9-0.4-0.5-1.1-0.4-1.9c0.4-1.9,0.7-3.6,1.1-5.5c0-0.4,0.2-0.9,0.2-1.3c0-0.2-0.2-0.4-0.4-0.4
		c0,0-0.2,0-0.4,0.2c-0.2,0.2-0.4,0.4-0.4,0.5c-0.4,0.5-0.5,1.6-1.6,1.1c-0.5-0.2-0.5-0.9-0.7-1.6c-0.5-2.7,0-5.1,1.6-7.4
		C1316.7,629.8,1317.8,628.7,1318,626.8z"/>
	<path class="st12" d="M1330.8,553.9c-0.4-0.9-0.5-1.7-0.9-2.7c-1.3-4.8-2.7-9.5-4-14.3c-0.2-0.9-0.5-2.1-0.7-3
		c3.8,3,7,6.7,10.4,10.1c0.7,0.7,1.1,1.6,1.3,2.5c0.4,1.6,0.2,2.8-1.3,3.8c-0.9,0.5-1.9,1.1-2.8,1.6
		C1331.9,552.2,1331.1,552.8,1330.8,553.9z"/>
	<path class="st8" d="M1309.7,619.8c0.2-0.2,0.4-0.5,0.7-0.7C1310,619.4,1309.8,619.6,1309.7,619.8z"/>
	<path class="st13" d="M704.1,573.5c-1.3,6.9-2.5,13.7-3.8,20.6c-3.2,17.1-6.7,34-9.9,51.2c-0.4,1.7,0,3.6-0.9,5.1
		c-0.5-1.7-0.7-1.9-2.1-1.1c-1.1,0.7-2.3,1.6-3.6,1.7c-0.4-0.7-0.9-1.6-1.3-2.5c-3.4-8-8.8-14.8-14.8-21c-3.8-4-8.2-7.6-12.5-11.1
		c-12.5-9.7-26.1-18.1-40-25.5c-9.5-4.9-19.2-9.7-28.9-14.3c-9.9-4.6-20-8.8-30.1-12.7c-5.7-2.3-11.6-4.6-17.5-6.7
		c-3-1.1-5.9-2.7-9.1-3c-0.2-0.2-0.4-0.2-0.5-0.4c0,0-0.2,0-0.4,0c-0.2,0.2-0.2,0.2,0.2,0.4c0.2,0,0.4,0,0.5,0
		c0.7,0.7,1.7,1.3,2.7,1.7c3.6,1.6,7.2,3,10.9,4.6c8,3.6,16,6.9,24,10.7c9.7,4.8,19.4,9.5,28.7,14.6c11.3,6.1,22.4,12.7,33.1,20
		c10.4,7,20.4,14.8,29.3,24c4.4,4.4,8.2,9.1,11.4,14.5c2.1,3.2,3.8,6.9,4.9,10.7c1.6,4.8,2.1,9.7,0.5,14.6c-0.4,1.1-0.4,2.3-0.5,3.4
		c-0.7,0.2-1.1,0.7-1.7,1.3c-4.2,6.5-10.2,10.2-17.3,12.9c-8,3-16.2,4.8-24.5,5.7c-3.6,0.4-7,0.5-10.7,0.5c-1.3,0-2.7,0.2-3.8,0.4
		c-1.9,0.2-3.8,0.4-5.7,0c-2.5-0.4-4.9-0.4-7.4-0.4c-8.8-0.5-17.5-1.7-25.7-4.8c-1.9-0.7-3.6-1.6-5.1-3c-1.7-1.9-1.9-3.2-0.7-5.5
		c0.5-0.9,1.3-2.1,2.1-2.8c4.6-4.9,9.5-9.1,14.8-13.1c3.4-2.7,7.6-4.4,11.8-5.5c6.9-1.9,13.9-2.8,21-3.6c4.4-0.4,8.8-0.9,12.9-1.6
		c2.5-0.4,4.9-0.9,7-2.1c1.1-0.5,2.3-1.3,2.5-2.8c0-1.7-1.3-2.5-2.5-3c-3.2-1.6-6.9-2.1-10.2-2.3c-4-0.2-8-0.2-12,0
		c-4,0.2-7.8,1.6-11.6,3.2c-4.6,2.1-8.6,4.9-12.9,7.6c-5.9,3.8-12.2,6.9-18.8,9c-4.6,1.3-9.1,2.3-13.9,2.8
		c-4.2,0.5-8.2-0.5-12.2-2.3c-4-1.7-7.6-4.2-10.9-7.2c-4.8-4.4-9.1-9.3-12.9-14.6c-5.5-7.8-10.1-16-14.1-24.5
		c-0.2-0.2-0.2-0.4-0.4-0.5c-0.2-0.7-0.9-1.6-0.4-2.3c0.5-0.9,1.6-0.4,2.3-0.2c5.7,1.1,11.4,1.1,16.9,0.7
		c10.7-0.9,21.1-3.2,30.8-7.6c1.6-0.7,2.8-1.7,4.2-2.5c0.7-0.4,1.3-1.1,1.7-1.7c1.3-1.7,1.1-3-0.9-3.8c-3.6-1.6-7.2-2.1-11.1-2.5
		c-4.2-0.4-8.6-0.7-12.7-1.3c-0.4,0-0.7,0-1.1,0c-6.5-0.2-12.7-0.4-19.2-0.7c-4.6-0.2-9.1-0.7-13.7-1.1c-2.8-0.4-5.1-1.7-7.2-3.6
		c-5.7-5.3-8.8-12-10.1-19.6c-2.1-11.4-0.5-22.4,3.2-33.1c1.7-5.1,5.3-9,9.5-12.2c4-3,8.4-4.9,13.1-6.3c7-1.9,14.1-2.8,21.3-2.8
		c5.1,0,10.4,0.4,15.6,0.7c0.4,0,0.7,0,1.1,0.2c4,0.5,4,0.5,6.5,4.2c6.7,9.9,13.5,19.8,20.8,29.3c6.1,8,12,15.8,19.4,22.7
		c1.3,1.3,2.8,2.7,4.4,3.6c0.5,0.4,1.3,0.7,1.9,0.9c1.7,0.5,2.8-0.2,3-1.9c0-0.9,0-1.9-0.2-2.8c-0.4-1.7-0.7-3.4-1.6-5.1
		c-1.6-4.2-3.2-8.2-5.1-12c-5.1-10.4-10.4-20.8-16.4-30.6c-1.9-3.2-1.6-3.8,2.1-3.8c4.2,0,8.2,0.9,12.2,1.9
		c8.8,1.9,17.1,4.9,25.5,7.8c8.8,3.2,17.3,6.9,26.1,10.4c2.5,0.9,4.8,2.3,7,3.2c1.6,0.5,2.1,1.7,2.1,3.2c-0.2,4.2,0,8.6-0.4,12.7
		c-0.5,5.1-0.4,10.4,0,15.6c0.2,1.3,0.4,2.8,0.4,4.2c-0.2,5.3,0.4,10.7,0.9,16c0.4,3.8,1.1,7.4,2.3,11.1c0.4,1.6,1.1,2.8,2.1,4
		c1.6,1.6,3.2,1.6,4.6,0c1.1-1.1,1.6-2.7,1.9-4.2c0.4-1.7,0.7-3.4,0.9-5.3c0.4-4.6,0.4-9,0-13.5c-0.4-4.2-0.7-8.6-1.3-12.7
		c-0.7-5.9-1.7-11.8-2.5-17.5c-0.2-1.6-0.5-3-0.7-4.6c-0.2-0.9,0.5-1.6,1.6-1.3c0.5,0.2,1.1,0.4,1.7,0.5c3.8,1.3,7.2,3.4,10.7,5.7
		c5.9,3.6,11.3,8.4,16.4,12.9C702.4,572,703.1,572.8,704.1,573.5z"/>
	<path class="st4" d="M667.9,761.8c-0.5,2.8-1.3,5.7-1.6,8.6c0,0.7-0.4,1.6-0.7,2.3c-0.2,0.4-0.4,0.9-0.5,1.3l0,0
		c-0.4,0.5-0.7,1.1-1.1,1.7c-4.4,8.8-10.7,16.2-17.9,22.9c-1.9,1.7-4,3.4-6.3,4.8c-0.9,0.5-1.9,0.9-2.8,1.3
		c-1.9,0.5-3.2-0.2-3.8-2.1c-0.4-0.9-0.5-2.1-0.5-3c0-2.7-0.2-5.1,0-7.8c0.2-4,1.6-7.6,3.6-11.1c1.9-3,3.8-5.9,5.7-9
		c0.9-1.6,2.1-3.2,3-4.8c0.5-0.9,0.9-2.1,0.9-3.4c0-1.3-0.9-1.9-2.1-1.6c-1.3,0.4-2.3,1.1-3.2,2.1c-5.1,4.4-8.8,9.7-9.5,16.6
		c-0.4,2.8-0.9,5.5-1.6,8.4c-0.7,4-2.5,7.6-4.6,11.3c-3,5.3-7.8,7.6-13.7,8.4c-6.5,0.7-12.7,0-19-1.1c-2.3-0.4-4.6-1.1-6.9-1.7
		c-0.9-0.4-1.1-1.1-0.4-1.9c2.3-2.3,4.8-4.8,6.7-7.4c2.8-4,5.1-8.2,6.7-12.9c0.4-1.1,0.7-2.5,0.9-3.8c0.2-0.9,0.4-1.9-0.5-2.7
		c-1.1-0.7-2.1,0-2.8,0.5c-0.5,0.4-1.1,0.7-1.7,1.3c-4.4,3.6-8.4,7.8-12.2,12c-2.1,2.1-4,4.2-6.1,6.5c-2.1,2.1-4.4,3-7.4,3
		c-3.4,0-6.5-0.7-9.5-2.5c-5.1-3-9.1-7-12.3-12s-3-10.2-1.1-15.6c0.9-2.5,2.3-4.9,3.8-7.2c2.7-3.6,5.5-7,8.8-10.2
		c1.7-1.7,3.6-2.3,6.1-1.9c10.7,1.3,21.5,2.3,32.2,1.9c0.9,0,1.9,0,2.8-0.2c0.9-0.2,1.9-0.4,2.8-0.5c0.7-0.2,1.3-0.5,1.6-1.3
		c0.2-0.9-0.5-1.6-1.3-1.9c-0.9-0.5-1.9-0.9-2.8-1.3c-2.8-0.9-5.5-1.9-8.6-2.7c-5.1-1.3-10.1-2.3-15.2-3.4c-0.7-0.2-1.3-0.2-2.1-0.5
		c-0.7-0.2-0.9-0.9-0.5-1.7c1.3-1.6,2.8-2.8,4.4-4.2c4.2-3.2,8.8-6.1,13.5-8.6c5.1-2.7,10.4-5.1,15.4-7.8c2.3-1.1,3.8-0.7,5.5,0.9
		c5.1,4.8,10.7,9.5,16.4,13.7c2.1,1.6,4.2,3,6.5,4.2c1.1,0.5,2.3,1.1,3.8,0.9c0.9-0.2,1.7-0.9,1.6-2.1c-0.2-1.1-0.7-1.9-1.6-2.8
		c-1.7-1.9-3.6-3.6-5.7-5.3c-4.8-3.6-9.7-6.9-14.6-9.9c-0.7-0.4-1.3-0.9-2.1-1.3c-0.4-0.4-0.4-0.9,0-1.1c0.4-0.4,0.9-0.7,1.6-0.9
		c2.3-1.1,4.8-1.9,7.4-2.5c5.3-1.3,10.7-1.9,16.2-1.7c6.3,0.2,11.4,3,15.2,8c1.7,2.5,3,4.9,3.8,8c1.3,5.1,2.1,10.2,1.3,15.4
		c-0.7,5.3-0.5,5.3,4,8.4c1.3,0.7,2.5,1.9,4.2,1.6c-0.4,2.1-0.9,4.4-1.3,6.5c-1.6,0.4-1.9,0.5-1.7,1.6
		C667.2,760.2,667.4,760.9,667.9,761.8z"/>
	<path class="st13" d="M712.7,530.1c-0.5,2.8-0.9,5.9-1.6,8.8c0,0.4-0.4,0.7-0.5,1.3c0-1.9-0.9-3-2.5-4c-4.9-3-9.7-6.3-14.6-9.3
		c-7.6-4.8-14.8-9.7-22-14.8c-8.8-6.1-17.3-12.3-25.5-19.2c-5.9-4.9-12-10.1-16.7-16.4c-1.1-1.6-2.3-3-3-4.8
		c-0.5-1.1-0.9-2.1-1.3-3.2c-0.9-3.4,0.4-6.1,3.8-7.4c3.2-1.3,6.5-1.3,9.7-0.4c4,0.9,7.6,2.8,11.1,4.9c6.1,3.8,11.8,8.4,16.9,13.3
		c5.3,5.1,10.7,10.4,15.8,15.8c4.4,4.6,8.6,9.5,12.5,14.5c5.3,6.3,10.4,12.9,15.6,19.4C711.2,529,711.7,529.8,712.7,530.1z"/>
	<path class="st4" d="M674.2,673c0.2-1.1,0.2-2.3,0.5-3.4c1.6-4.9,0.9-9.9-0.5-14.6c-1.1-3.8-2.8-7.2-4.9-10.7
		c-3.2-5.3-7-9.9-11.4-14.5c-9-9.1-18.8-16.9-29.3-24c-10.7-7.2-21.7-13.7-33.1-20c-9.5-5.1-19-9.9-28.7-14.6
		c-7.8-3.8-16-7.2-24-10.7c-3.6-1.6-7.2-3-10.9-4.6c-0.9-0.4-1.9-0.9-2.7-1.7l0,0c3.2,0.4,6.1,1.9,9.1,3c5.9,2.1,11.8,4.4,17.5,6.7
		c10.1,4.2,20.2,8.4,30.1,12.7c9.7,4.6,19.4,9.3,28.9,14.3c14.1,7.4,27.6,15.6,40,25.5c4.4,3.4,8.6,7,12.5,11.1
		c6.1,6.3,11.4,12.9,14.8,21c0.4,0.9,0.9,1.7,1.3,2.5c0,0.2-0.2,0.4-0.2,0.7c-0.5,0.9-0.5,1.9,0,2.8c0.2,4.2,0.5,8.4,1.6,12.5
		c0.2,0.9,0.7,0.4,1.3,0c0,0.2,0,0.5,0,0.7c-1.7,4.8-2.1,9.9-3.2,14.8c0,0.4-0.2,0.7-0.4,0.9c-0.4-0.5-0.9-1.1-1.3-1.7
		C679.5,678.8,677.1,675.9,674.2,673z"/>
	<path class="st13" d="M717.6,504.6c-0.4,3.2-1.1,6.3-2.1,9.3c-2.7-3.6-4.8-7.6-7-11.4c-4.2-7.2-8.4-14.6-11.8-22.2
		c-2.7-5.5-4.9-11.1-6.9-16.7c-0.9-3-1.6-6.3-1.3-9.5c0-3.4,2.8-5.9,6.7-4.4c1.7,0.5,3,1.7,4.2,3.2c2.7,3.4,4.6,7.4,6.3,11.4
		c3.4,8.6,5.9,17.5,7.8,26.4c0.9,4.6,1.9,9,2.8,13.5C716.5,505.4,717,505,717.6,504.6z"/>
	<path class="st14" d="M1248.4,483.3c1.9,10.1,3.8,20,5.7,30.1c-0.7,1.7-1.7,3.2-2.5,4.9c-0.9,2.1-1.9,4.2-2.5,6.5
		c-0.4,1.7-1.1,3.2-2.3,4.6c-1.1,0.9-2.1,1.9-3.2,2.8c-2.7,2.5-5.1,4.9-7.8,7.2c-1.6,1.3-3.2,2.5-4.8,3.6c-0.9,0.7-2.1,0.9-3.2,0.2
		c-2.8-1.9-5.9-3.4-8.6-5.7c0-2.3-0.5-4.6-1.1-6.9c-0.7-2.7-2.5-4.2-5.1-4.8c-0.9-0.2-1.9-0.4-2.8-0.4c-3.2,0-6.3,0-9.5,0
		c-0.9-0.5-2.1-1.1-3-1.7c-3.2-2.1-6.5-4.2-9.7-6.3c-0.9-1.9-0.9-4.2-1.3-6.3c4-0.7,8-1.6,12-2.3c0.5,0,1.1-0.2,1.6-0.5l0,0
		c0.5,0,1.1,0,1.7,0c2.7-0.4,3.8-1.9,4-4.6c0-1.3-0.2-2.5-0.5-3.8c-0.7-2.1-1.7-2.8-3.8-3c-1.3,0-2.8,0-4.2,0.5
		c-7.6,1.1-15.2,3.2-23.1,3.8c-0.5,0-1.1,0.2-1.7,0.4c-1.3,0.4-2.5,0.7-3.8,0.9c-9,1.7-17.9,3.4-26.8,4.9c-1.9,0.9-3.6,2.1-5.1,3.4
		c-1.9,0.7-3.6,2.3-5.3,3.2c-0.4,0.2-0.7,0.5-0.7,0.9c0,0.5,0.5,0.5,0.9,0.7c1.9,0.4,3.8,0.7,5.9,1.1c2.1,0.5,4.2,1.3,6.5,1.3
		c0.4,0,0.7,0,1.3,0c0.7,0.2,1.6,0,2.3-0.5c2.3-0.4,4.4-0.7,6.7-1.1c6.1-1.1,12.2-2.1,18.1-3.2c1.6,0,2.7,0.5,3.4,2.1
		c0.7,1.7,2.1,3,4,3.8c-0.4,1.1-0.4,2.1,0.4,3.2c1.1,1.6,2.1,3,3,4.6c-0.7,1.6-0.7,3.2-0.4,4.8c0.7,4.4,1.7,8.6,2.5,12.9
		c0.7,3.4,1.3,7,2.1,10.4c0.9,3.8,3.2,5.5,7,5.9c0.4,0,0.7,0,1.1,0c5.9,0,11.8,0,17.7,0c2.1,1.6,4.4,3.2,6.5,4.8
		c2.1,1.6,4.4,2.7,7,3.4c1.7,0.5,3.4,0.7,5.3,0.2c3.8-1.1,7.4-2.1,10.9-4c0.9,0,1.7,0.2,1.7,1.3c0,0.9,0,1.9,0,2.8
		c-0.5,16.6-0.9,33.1-0.7,49.5c0,2.1,0.2,4.2,0.4,6.3c0,0.7,0.2,1.3,0.7,1.9c1.1,1.6,1.1,3.6,1.3,5.3c0.7,10.2,1.6,20.8,2.5,31
		c0.4,4.4,0.4,9,1.3,13.3c0,1.7,0,3.4,0.2,5.3c0.4,5.3,0.9,10.7,1.3,16c-0.2,0.4-0.4,1.6-0.9,0.7c-1.9-2.7-4.6-3.6-7.6-3.6
		c-6.9,0-13.7,0-20.6,0c-1.1,0-2.1,0-3.2,0.4c-2.7,0.7-4.2,2.8-3.6,5.5c0.4,1.9,0.7,4,1.1,5.9c1.1,5.9,2.3,11.8,3.4,17.7
		c1.1,4.8,3.2,6.5,8.2,6.7c0.5,0,1.1,0,1.7,0c7.6,0,15-0.2,22.7-0.2c0.4,0,0.9,0.2,1.3,0.2c0.4,6.1,0.9,12.2,1.3,18.3
		c0.4,9.3,1.6,18.7,1.7,27.8c0,0.7,0,1.3,0.2,2.1c0.4,5.1,0.7,10.2,1.3,15.4c0.4,4.2,0.9,8.2,1.1,12.3c0.2,1.6,0.7,2.8,1.7,4.2
		c-1.1,2.8-3.2,4.9-5.7,6.5c-3,1.9-6.5,3-10.1,4c-0.7,0.2-1.7,0.2-2.5,0.5c-2.1,0.5-3.8,1.7-4.8,3.8c-1.6,0-3,0.2-4.6,0.2
		c-134,0-267.9,0-401.9,0c-2.1,0-4-0.2-6.1-0.2c-0.7-0.4-1.7-0.9-2.5-1.3c-6.9-3.4-11.3-9-12.7-16.6c-1.3-7-2.7-13.9-4-21
		c-2.3-12.5-4.6-25.1-6.9-37.7c-4.2-23.1-8.4-46-12.5-69.1c-2.3-12.9-4.8-25.9-7-38.8c-4.2-23.4-8.6-46.8-12.7-70.2
		c-2.5-13.1-4.9-26.3-7.2-39.4c-2.8-15.2-5.5-30.5-8.4-45.6c0-0.2,0-0.4-0.2-0.7c-0.4-2.8-0.2-3.2,2.8-3.2c1.3,0,2.7,0,4,0
		c161.6,0,323.1,0,484.7,0C1244.7,483.3,1246.6,483.3,1248.4,483.3z M1062.8,561.5c8.8,0,17.7,0,26.4,0c0.7,0,1.7,0,2.5-0.2
		c3-0.5,4.6-2.8,4.2-5.9c-0.5-3-1.1-6.1-1.7-9c1.1-0.9,2.1-1.9,3.2-2.8c3.2-2.8,6.1-5.9,8.4-9.5c1.7-2.5,2.8-5.1,3.2-8.2
		c0.5-3.6-1.3-6.5-4.8-7.8c-1.6-0.5-3-0.7-4.6-0.7c-5.3-0.2-10.2,0.9-15.2,2.7c-4,1.3-7.8,3.4-11.6,5.3c-1.3,0-2.5,0-3.8,0
		c-1.1,0-2.3,0-3.2-0.7c1.6-1.3,3.2-2.7,4.8-4.2c0.4-0.4,0.7-0.7,1.1-1.3c0,0,0-0.2,0-0.4c-0.2-0.2-0.4-0.4-0.5-0.4
		c-0.9,0-1.6,0.7-2.1,1.1c-2.3,1.9-4.6,3.6-6.9,5.5c-0.7,0-1.3,0-2.1,0.2c-3.2,0.5-4.8,2.3-4.9,5.5c0,0.4,0,0.9,0,1.3
		c-1.7,2.1-3.2,4-4.8,6.1c-2.1,2.8-3.8,5.7-4.8,9.1c-2.1,7.8,2.1,13.7,10.2,14.1C1058.3,561.7,1060.6,561.5,1062.8,561.5z
		 M925.3,750.5L925.3,750.5c-3.6,0-7.4,0-11.1,0c-4.9,0-6.7,2.1-5.7,7c1.1,6.3,2.5,12.5,3.6,18.8c0.4,1.7,0.5,3.2,0.9,4.9
		c0.4,2.1,1.7,3.6,3.6,4.6c1.6,0.7,3,0.9,4.8,0.9c5.7,0,11.4,0,17.1,0c1.7,0,3.2,0,4.9,0c3.8,0,6.1-3.2,5.1-6.7
		c-1.3-5.7-2.3-11.6-3.4-17.5c-0.4-2.1-0.7-4.2-1.3-6.3c-0.9-3.6-3-5.3-6.9-5.7c-0.7,0-1.7,0-2.5,0
		C931.7,750.5,928.5,750.5,925.3,750.5z M868.5,786.6c3.2,0,6.7,0,9.9,0c0.9,0,1.9,0,2.8-0.2c2.7-0.4,4-1.9,4-4.6
		c0-0.7,0-1.3-0.2-2.1c-1.3-7.6-2.8-15.4-4.4-23.1c-0.7-3.6-3-5.7-6.9-6.3c-0.4,0-0.9-0.2-1.3-0.2c-7.2,0-14.6,0-21.9,0
		c-4.8,0-6.5,2.1-5.7,6.9c1.3,7.4,2.7,14.8,4.4,22.2c1.1,5.1,3.4,7,8.6,7c0.7,0,1.3,0,2.1,0C863,786.6,865.9,786.6,868.5,786.6z
		 M1105.5,695.9c-3.4,0-6.9,0-10.2,0c-1.1,0-2.3,0-3.4,0.4c-1.9,0.5-3,1.9-3,3.8c0,1.3,0,2.8,0.4,4.2c1.3,7,2.7,14.1,4,21.3
		c0.2,1.6,0.9,2.7,1.9,3.8c1.7,1.9,3.8,2.7,6.3,2.7c7.2,0,14.6,0,21.9,0c0.4,0,0.7,0,1.1,0c3.6-0.4,5.3-2.3,4.9-5.9
		c0-0.5-0.2-1.1-0.4-1.7c-0.9-4.6-1.7-9-2.7-13.5c-0.5-3-1.1-6.1-1.7-9c-0.9-3.8-3-5.5-7-5.9c-0.7,0-1.7,0-2.5,0
		C1111.5,695.7,1108.5,695.9,1105.5,695.9z M984.8,732c3.6,0,7,0,10.7,0c1.1,0,2.1,0,3.2-0.4c2.1-0.5,3.2-1.9,3.2-4.2
		c0-1.1-0.2-2.3-0.4-3.4c-0.9-4.9-1.9-9.7-2.8-14.6c-0.5-2.7-1.1-5.3-1.7-8c-0.5-3-2.7-4.6-5.5-5.3c-0.9-0.2-1.9-0.2-2.8-0.2
		c-7,0-14.3,0-21.3,0c-0.9,0-1.9,0-2.8,0.4c-2.1,0.5-3,1.9-3.2,4.2c0,1.1,0,2.1,0.2,3.2c1.3,7,2.7,13.9,4,21
		c0.2,0.7,0.4,1.6,0.5,2.5c0.5,2.5,2.3,4,4.8,4.8c1.3,0.4,2.5,0.4,3.8,0.4C978.1,732,981.6,732,984.8,732z M1015.6,561.5
		c3.2,0,6.7,0,9.9,0c1.1,0,2.1,0,3.2-0.2c2.5-0.5,3.6-1.9,3.8-4.4c0-1.1-0.2-2.1-0.4-3.2c-0.4-2.3-0.7-4.4-1.1-6.7
		c-0.9-5.1-1.9-10.2-2.8-15.2c-0.7-3.6-3-5.7-6.7-6.3c-0.5,0-1.1-0.2-1.7-0.2c-7.2,0-14.5,0-21.7,0c-0.9,0-1.9,0.2-2.8,0.4
		c-1.9,0.5-3,1.9-3,3.8c0,1.3,0.2,2.7,0.4,3.8c1.1,6.1,2.3,12,3.4,18.1c0.4,1.6,0.5,3,0.9,4.6c0.5,2.7,2.5,4.2,4.9,4.9
		c1.3,0.4,2.5,0.4,3.8,0.4C1009,561.5,1012.2,561.5,1015.6,561.5z M899.2,616.1L899.2,616.1c3.4,0,6.9,0,10.2,0c1.1,0,2.3,0,3.4-0.4
		c1.7-0.5,2.7-1.9,2.8-3.6c0-1.3,0-2.8-0.2-4.2c-1.3-6.7-2.7-13.5-4-20.2c-1.1-5.7-3.4-7.6-9.3-7.6c-6.7,0-13.3,0-20,0
		c-0.7,0-1.7,0-2.5,0c-3,0.4-4.6,2.3-4.6,5.3c0,0.4,0,0.7,0.2,1.1c1.6,7.6,2.8,15,4.4,22.7c1.1,5.5,3.2,7,9,7.2c0.7,0,1.3,0,2.1,0
		C893.9,616.1,896.5,616.1,899.2,616.1z M955.7,580L955.7,580c-2.1,0-4,0-6.1,0c-2.1,0-4.2,0-6.5,0.2c-3,0.4-4.9,2.7-4.4,5.7
		c1.6,8,3,16,4.6,24c0.2,1.1,0.7,2.3,1.6,3.2c1.7,2.1,3.6,3.2,6.5,3.2c7.4,0,14.6,0,22,0c0.7,0,1.3,0,2.1-0.2c3-0.7,4.6-2.8,3.8-6.1
		c-1.6-8-3-16-4.6-24c-0.5-2.7-1.9-4.2-4.4-5.1c-1.3-0.5-2.7-0.7-4.2-0.7C962.9,580,959.3,580,955.7,580z M1115.9,750.5
		c-0.9,0-1.9,0-2.8,0c-3,0-5.9,0-9,0c-4,0.2-5.7,2.5-5.1,6.3c0.2,1.7,0.5,3.2,0.9,4.9c1.1,6.1,2.3,12,3.4,18.1
		c0.2,1.3,0.5,2.5,1.3,3.6c1.7,2.1,3.8,3.4,6.7,3.4c7.2,0,14.5,0,21.7,0c0.4,0,0.7,0,1.1,0c4-0.4,5.7-2.7,4.9-6.7
		c-1.1-6.3-2.5-12.5-3.6-18.8c-0.4-1.7-0.5-3.2-0.9-4.9c-0.5-3.2-2.7-4.9-5.7-5.5c-0.9-0.2-2.1-0.2-3.2-0.2
		C1122.6,750.5,1119.1,750.5,1115.9,750.5z M1041.9,695.9L1041.9,695.9c-3.6,0-7,0-10.7,0c-0.9,0-1.9,0-2.8,0.2
		c-2.5,0.5-3.8,2.3-3.6,4.9c0,0.7,0.2,1.3,0.4,2.1c0.5,3,1.1,6.3,1.7,9.3c0.9,4.6,1.9,9.3,2.7,13.9c0.4,2.5,1.9,4,4,4.9
		c1.1,0.5,2.5,0.7,3.8,0.7c7.2,0,14.6,0,21.9,0c0.7,0,1.3,0,2.1-0.2c2.5-0.5,3.8-2.3,3.6-4.9c0-1.1-0.2-2.3-0.4-3.4
		c-1.3-6.9-2.7-13.7-4-20.6c-0.9-4.8-3.6-6.9-8.4-7C1048.9,695.7,1045.5,695.9,1041.9,695.9z M1175.6,732c3.4,0,6.9,0,10.2,0
		c1.1,0,2.3,0,3.4-0.4c1.7-0.5,2.8-1.9,2.8-3.6c0-1.1,0-2.3-0.4-3.6c-1.3-6.9-2.8-13.7-3.8-20.6c-0.7-5.7-4.2-8-9.1-7.8
		c-0.2,0-0.2,0-0.4,0c-6.7,0-13.5,0-20.2,0c-0.9,0-1.9,0-2.8,0.2c-2.3,0.4-3.4,1.9-3.8,4.2c-0.2,1.1,0,2.3,0.4,3.6
		c1.3,7,2.7,13.9,4,21c0.2,0.7,0.4,1.6,0.5,2.5c0.9,2.8,3,4.4,5.9,4.8c0.9,0.2,1.9,0.2,2.8,0.2C1169,732,1172.2,732,1175.6,732z
		 M921,731.8L921,731.8c3.6,0,7.2,0,11.1,0c1.1,0,2.1,0,3.2-0.4c2.3-0.7,3.4-2.5,3.2-4.9c0-0.7-0.2-1.3-0.4-2.1
		c-1.1-5.5-2.1-11.3-3.2-16.7c-0.4-2.3-0.7-4.4-1.3-6.7c-0.7-2.8-2.7-4.6-5.7-5.1c-0.7-0.2-1.3-0.2-2.1-0.2c-7.2,0-14.6,0-21.9,0
		c-4.9,0-6.7,2.1-5.7,7c1.3,7.4,2.8,14.8,4.4,22.2c0.2,0.5,0.2,1.1,0.4,1.7c0.9,2.8,2.8,4.6,5.9,4.9c0.9,0.2,1.9,0.2,2.8,0.2
		C914.7,731.8,918,731.8,921,731.8z M828.9,580L828.9,580c-3.4,0-6.9,0-10.2,0c-1.1,0-2.3,0-3.4,0.4c-1.7,0.5-2.7,1.7-2.8,3.6
		c0,1.3,0,2.8,0.2,4.2c0.4,2.1,0.7,4.2,1.1,6.3c0.9,5.1,1.9,10.2,3,15.2c0.7,3.6,3.2,5.7,6.9,6.1c0.7,0,1.3,0.2,2.1,0.2
		c6.7,0,13.3,0,19.8,0c1.1,0,2.1,0,3.2-0.4c2.8-0.5,4-2.3,3.8-5.1c0-0.7-0.2-1.3-0.4-2.1c-0.5-3.4-1.3-7-1.9-10.4
		c-0.7-4-1.7-7.8-2.5-11.8c-0.5-3.6-2.7-6.3-7.6-6.5c-0.7,0-1.7,0-2.5,0C834.9,580,831.8,580,828.9,580z M1026.3,616.1L1026.3,616.1
		c3.4,0,6.9,0,10.2,0c1.1,0,2.3,0,3.4-0.4c1.9-0.7,2.8-1.9,2.8-4c0-0.9-0.2-1.9-0.4-2.8c-1.3-7.2-2.7-14.5-4-21.5
		c-0.2-0.7-0.4-1.6-0.7-2.5c-0.9-2.8-3-4.4-5.9-4.9c-0.7-0.2-1.3-0.2-2.1-0.2c-7,0-14.1,0-21.3,0c-0.9,0-1.9,0-2.8,0.4
		c-2.1,0.5-3,1.9-3.2,4.2c0,1.1,0,2.1,0.2,3.2c1.3,7.2,2.7,14.6,4.2,21.9c0.7,4,3.2,6.1,7.2,6.5c0.9,0,1.9,0,2.8,0
		C1020.2,616.1,1023.2,616.1,1026.3,616.1z M995.6,786.6c3.2,0,6.7,0,9.9,0c1.1,0,2.1,0,3.2-0.2c2.1-0.4,3.2-1.9,3.6-4
		c0.2-1.1,0-2.1-0.2-3.2c-0.7-3.4-1.3-7-1.9-10.4c-0.7-4.2-1.6-8.4-2.7-12.5c-0.9-3.8-3-5.5-7-5.9c-0.4,0-0.9,0-1.3,0
		c-7,0-13.9,0-21,0c-0.9,0-1.9,0-2.8,0.4c-2.1,0.5-3.2,1.9-3.4,4c-0.2,1.3,0,2.8,0.4,4.2c0.9,4.9,1.9,9.7,2.8,14.6
		c0.4,2.3,0.7,4.4,1.3,6.7c0.9,3.8,3.2,5.9,7.2,6.3c0.9,0.2,1.9,0,2.8,0C989.6,786.6,992.6,786.6,995.6,786.6z M1135.9,525.4
		L1135.9,525.4c-3.4,0-6.9,0-10.2,0c-1.1,0-2.1,0-3.2,0.4c-2.1,0.5-3.2,1.9-3.2,4c0,1.3,0.2,2.7,0.4,3.8c0.4,1.9,0.7,4,1.1,5.9
		c0.9,5.1,1.9,10.2,2.8,15.4c0.9,4.2,3.2,6.5,7.2,6.5c8,0.2,16.2,0.2,24.1,0c3.2,0,4.9-2.3,4.6-5.5c0-0.7-0.2-1.3-0.4-2.1
		c-0.5-3.4-1.1-6.7-1.9-10.1c-0.7-4-1.6-8.2-2.5-12.2c-0.9-4-3.2-5.9-7.2-6.1c-0.7,0-1.7,0-2.5,0
		C1142,525.4,1139,525.4,1135.9,525.4z M857.9,732c3.4,0,6.9,0,10.2,0c1.1,0,2.1,0,3.2-0.4c2.1-0.5,3.2-1.9,3.4-4
		c0.2-1.3,0-2.8-0.4-4.2c-1.1-5.7-2.1-11.4-3.2-17.1c-0.4-1.7-0.5-3.2-0.9-4.9c-0.7-3-2.8-4.8-5.9-5.5c-0.9-0.2-1.9-0.2-2.8-0.2
		c-7,0-13.9,0-21,0c-5.1,0-6.7,2.1-5.7,7.2c1.1,5.7,2.1,11.4,3.2,17.1c0.4,1.9,0.7,4,1.3,5.9c0.9,3.8,3,5.5,7,5.9c0.7,0,1.7,0,2.5,0
		C851.6,732,854.8,732,857.9,732z M1052.3,750.5c-3.4,0-6.9,0-10.2,0c-0.9,0-1.9,0-2.8,0.2c-2.3,0.4-3.8,2.1-3.8,4.4
		c0,0.7,0.2,1.7,0.2,2.5c0.9,4.9,1.9,10.1,2.8,15c0.5,2.8,1.1,5.7,1.9,8.8c0.5,2.3,1.9,3.8,4,4.6c1.3,0.5,2.7,0.7,4.2,0.7
		c7,0,14.3,0,21.3,0c1.1,0,2.1,0,3.2-0.4c1.7-0.5,2.8-1.9,2.8-3.6c0-1.3,0-2.7-0.2-3.8c-1.3-7-2.8-14.1-4-21.3
		c-0.7-4-3.8-7.2-8.4-6.9C1059.4,750.7,1055.8,750.5,1052.3,750.5z M1082.8,580L1082.8,580c-3.6,0-7,0-10.7,0c-1.1,0-2.1,0-3.2,0.4
		c-1.9,0.5-3,1.9-3,3.8c0,0.7,0.2,1.7,0.2,2.5c0.9,4.8,1.7,9.5,2.7,14.3c0.5,3,1.1,6.3,1.9,9.3c0.5,3.4,3,4.9,6.1,5.7
		c0.7,0.2,1.7,0.2,2.5,0.2c6.9,0,13.7,0,20.6,0c0.9,0,1.9,0,2.8-0.2c2.3-0.5,3.4-1.9,3.4-4.2c0-1.1,0-2.3-0.2-3.6
		c-1.3-7.4-2.7-14.6-4.2-21.9c-0.2-1.1-0.7-2.3-1.6-3.2c-1.6-1.9-3.6-3-6.1-3C1090.4,580,1086.6,580,1082.8,580z M1209.9,580
		c-3.4,0-6.9,0-10.2,0c-1.1,0-2.1,0-3.2,0.2c-2.3,0.5-3.4,1.9-3.4,4.2c0,1.1,0.2,2.1,0.4,3.2c1.3,6.7,2.7,13.5,4,20.2
		c0.2,1.3,0.5,2.5,0.9,3.8c0.9,2.3,2.5,3.6,4.9,4.2c0.7,0.2,1.7,0.2,2.5,0.2c7.2,0,14.5,0,21.7,0c1.1,0,2.3-0.2,3.4-0.5
		c1.6-0.5,2.5-1.7,2.7-3.4c0-1.1,0-2.3-0.2-3.6c-0.7-3.8-1.3-7.6-2.1-11.6c-0.7-3.8-1.3-7.4-2.3-11.3c-0.7-3.6-3-5.3-6.7-5.9
		c-0.9-0.2-1.9,0-2.8,0C1216.2,580,1213,580,1209.9,580z M1146.4,580L1146.4,580c-2.3,0-4.6,0-6.7,0c-1.7,0-3.2,0-4.9,0
		c-4,0.2-5.7,2.5-4.9,6.5c0.4,2.7,0.9,5.3,1.6,8c0.9,5.1,1.9,10.2,3,15.4c0.7,3.6,3.2,5.7,6.9,6.3c0.7,0,1.3,0.2,2.1,0.2
		c6.7,0,13.5,0,20.2,0c0.9,0,1.9,0,2.8-0.2c2.8-0.7,4.4-2.8,3.8-5.7c-1.6-8.2-3.2-16.2-4.8-24.3c-0.5-2.7-2.1-4.2-4.4-5.1
		c-1.3-0.5-2.5-0.5-3.8-0.5C1153.4,580,1150,580,1146.4,580z M1179.1,750.5L1179.1,750.5c-3.4,0-6.9,0-10.2,0c-1.1,0-2.3,0-3.4,0.4
		c-1.7,0.5-2.8,1.9-2.8,3.6c0,1.1,0,2.3,0.4,3.6c1.3,7,2.7,13.9,4,21c0.2,0.7,0.4,1.7,0.5,2.5c0.7,2.5,2.5,4,4.8,4.8
		c0.7,0.2,1.7,0.4,2.5,0.4c7.6,0,15.2,0,22.7,0c0.5,0,1.1-0.2,1.7-0.2c2.7-0.5,3.8-2.1,3.8-4.8c0-0.9-0.2-1.9-0.4-2.8
		c-1.3-6.7-2.5-13.3-3.8-19.8c-0.2-0.9-0.4-2.1-0.7-3c-0.9-3.2-3.2-4.9-6.5-5.1c-0.9,0-1.9,0-2.8,0
		C1185.5,750.5,1182.3,750.5,1179.1,750.5z M846.9,673.8L846.9,673.8c3.2,0,6.7,0,9.9,0c1.1,0,2.1,0,3.2,0c2.5-0.2,4-2.1,4-4.6
		c0-0.4-0.2-0.9-0.2-1.3c-1.6-7.8-3-15.6-4.6-23.4c-0.7-4-3-6.1-7-6.1c-8,0-16.2,0-24.1,0c-3.6,0-5.1,2.1-4.6,5.9
		c0.2,1.7,0.5,3.2,0.9,4.9c1.1,5.9,2.3,11.8,3.4,17.7c0,0.2,0,0.4,0.2,0.7c0.9,4.4,3,6.3,7.6,6.3C839.2,673.8,843,673.8,846.9,673.8
		z M1094.6,638.3c-3.6,0-7,0-10.7,0c-0.7,0-1.7,0-2.5,0c-2.7,0.2-4,1.7-4.2,4.4c0,1.1,0.2,2.3,0.4,3.4c1.1,6.5,2.5,12.9,3.8,19.6
		c0.2,1.3,0.5,2.5,0.9,3.8c0.9,2.7,2.8,4,5.7,4.2c0.4,0,0.9,0,1.3,0c7.4,0,14.8,0,22.4,0c0.7,0,1.7,0,2.5-0.2
		c1.9-0.4,3.2-1.7,3.4-3.6c0-0.9,0-2.1-0.2-3.2c-1.3-7.4-2.7-14.6-4.2-21.9c-0.2-1.1-0.5-2.3-1.1-3.4c-0.7-1.7-2.3-2.7-4-3
		c-0.9-0.2-1.9-0.2-2.8-0.2C1101.6,638.3,1098,638.3,1094.6,638.3z M1030.3,638.3L1030.3,638.3c-3.4,0-6.9,0-10.2,0
		c-1.1,0-2.1,0-3.2,0.2c-1.9,0.4-3.4,1.9-3.4,4c0,0.4,0.2,0.9,0.2,1.3c1.6,8,3,16,4.6,24c0.7,4.2,2.8,5.7,7.2,5.9c0.4,0,0.9,0,1.3,0
		c7,0,13.9,0,21,0c0.7,0,1.3,0,2.1,0c2.8-0.2,4.4-2.1,4.2-4.9c0-0.7-0.2-1.3-0.4-2.1c-0.9-4.4-1.7-8.8-2.7-13.3
		c-0.4-2.3-0.7-4.4-1.1-6.7c-0.2-1.1-0.4-2.3-0.7-3.4c-0.9-3.2-3.2-4.9-6.5-4.9C1038.7,638.3,1034.5,638.3,1030.3,638.3z
		 M967.5,638.3L967.5,638.3c-4.2,0-8.2,0-12.3,0c-3.2,0-5.5,2.1-4.9,5.7c1.6,8.2,3,16.2,4.8,24.3c0.5,3,3,5.1,6.1,5.5
		c0.5,0,1.1,0,1.7,0c7.2,0,14.5,0,21.7,0c0.7,0,1.7,0,2.5-0.2c2.3-0.4,3.2-1.3,3.4-3.8c0.2-1.6,0-3-0.4-4.6
		c-1.3-6.7-2.7-13.5-4-20.2c-0.2-0.7-0.4-1.7-0.5-2.5c-0.9-2.7-2.7-4-5.5-4.4c-0.9-0.2-1.9,0-2.8,0
		C974.1,638.3,970.7,638.3,967.5,638.3z M1164,673.8L1164,673.8c3.6,0,7,0,10.7,0c0.9,0,1.9,0,2.8-0.2c2.7-0.4,3.8-2.1,3.8-4.8
		c0-0.7-0.2-1.3-0.4-2.1c-0.4-2.5-0.9-5.1-1.3-7.6c-0.9-4.9-1.9-9.9-3-15c-0.9-4.2-3-5.9-7-6.1c-0.4,0-0.7,0-1.1,0
		c-7.2,0-14.5,0-21.7,0c-0.7,0-1.3,0-2.1,0c-2.3,0.2-3.8,1.9-4,4.2c0,0.7,0,1.3,0.2,2.1c0.4,1.9,0.7,3.8,1.1,5.5
		c1.1,5.7,2.1,11.6,3.4,17.3c0.9,4.4,3.2,6.1,7.8,6.3C1156.6,673.8,1160.3,673.8,1164,673.8z M910.2,673.8c3.6,0,7,0,10.7,0
		c0.9,0,1.9,0,2.8-0.2c2.1-0.4,3.4-1.7,3.4-3.8c0-0.7,0-1.6,0-2.1c-1.6-7.8-2.8-15.6-4.6-23.2c-0.9-4.4-3.2-6.1-7.8-6.1
		c-7.2,0-14.5,0-21.7,0c-0.7,0-1.7,0-2.5,0.2c-2.3,0.4-3.6,1.7-3.8,4c0,1.1,0,2.3,0.2,3.4c1.3,6.9,2.7,13.7,4,20.6
		c0.2,0.9,0.5,2.1,0.7,3c0.9,2.7,2.7,4,5.5,4.2c0.7,0,1.7,0,2.5,0C903.4,673.8,906.8,673.8,910.2,673.8z M1227.6,673.8L1227.6,673.8
		c3.6,0,7.2,0,11.1,0c0.9,0,1.9,0,2.8-0.2c2.1-0.4,3.4-1.9,3.4-4c0-0.7-0.2-1.7-0.4-2.5c-0.7-4.6-1.7-9.1-2.5-13.5
		c-0.5-3.4-1.3-6.7-2.1-10.1c-0.9-3.4-3-5.1-6.7-5.3c-0.4,0-0.7,0-1.1,0c-7.2,0-14.6,0-21.9,0c-0.9,0-1.9,0-2.8,0.2
		c-1.9,0.4-2.8,1.6-2.8,3.4c0,1.1,0,2.5,0.2,3.6c1.3,7.4,2.7,14.8,4.4,22.2c0.9,4.4,3,6.1,7.4,6.1
		C1220,673.8,1223.8,673.8,1227.6,673.8z M863.8,526.7c-9.9,0-19.6,0-29.5,0c-1.1,0-2.1,0-3.2,0.2c-0.5,0-1.1,0.4-1.6,0.5
		c-0.7,0.4-0.7,1.7,0,2.1c0.5,0.4,1.1,0.5,1.7,0.5c1.1,0.2,2.1,0.2,3.2,0.2c19.6,0,39.2,0,58.8,0c0.9,0,1.9,0,2.8,0
		c0.4,0,0.9-0.2,1.3-0.4c0.5-0.2,0.9-0.5,1.1-1.3c0-0.7-0.4-1.3-1.1-1.6c-1.3-0.5-2.5-0.4-3.8-0.4
		C883.5,526.7,873.7,526.7,863.8,526.7z M865.7,535.2c-8.2,0-16.6,0-24.7,0c-2.3,0-4.6,0-6.7,0c-0.7,0-1.7,0-2.5,0.4
		c-0.7,0.4-0.9,1.6-0.4,2.1c0.4,0.4,0.9,0.7,1.6,0.7c1.1,0,2.3,0.2,3.6,0.2c19.4,0,38.8,0,58.2,0c1.1,0,2.1,0,3.2,0
		c0.7,0,1.3-0.2,1.9-0.7c0.5-0.4,0.7-0.9,0.5-1.6c-0.2-0.4-0.5-0.9-0.9-0.9c-1.1-0.2-2.3-0.2-3.4-0.2
		C885.8,535.2,875.8,535.2,865.7,535.2z M815.2,540.2c1.7,0,3.2,0,4.9,0c1.9-0.2,2.7-0.9,2.3-2.7c-0.5-3.2-1.1-6.5-1.9-9.7
		c-0.4-1.6-1.3-2.5-3-2.5c-3.2,0-6.7-0.2-9.9,0c-1.9,0-2.7,0.9-2.5,2.7c0.5,3.2,1.1,6.5,1.9,9.7c0.4,1.7,1.7,2.5,3.4,2.7
		C812,540.2,813.6,540.2,815.2,540.2z"/>
	<path class="st15" d="M1209.3,401.7c0.4-6.7,3.4-11.6,9.3-14.8c8.2-4.6,18.7-1.3,23.2,6.9c4.4,7.8,1.9,16.2-3,20.8
		c-0.7,0.7-1.6,1.1-2.5,0.7c-0.2-2.1-0.5-4-1.6-5.7c-2.3-4.8-6.3-7.2-11.4-7.6c-2.7-0.2-5.3,0-8.2,0
		C1213.3,401.7,1211.4,401.7,1209.3,401.7z"/>
	<path class="st15" d="M1131.9,401.5c0.5-3,1.1-6.1,2.8-8.8c4-6.3,11.4-9.5,18.7-7.8c7.6,1.9,12.7,7.8,13.3,15.4c0,0.4,0,0.7,0,1.1
		c-10.4,0-21.1,0-31.6,0C1134,401.7,1133,401.7,1131.9,401.5z"/>
	<path class="st5" d="M731.9,827.2c-9,0-17.7-0.2-26.6,0.2c-6.3,0.2-11.1-2.7-14.6-7.2c-3.2-4-5.1-8.4-4.9-13.7
		c0.2-2.5,0.2-4.9,0.5-7.4c1.1-8,2.1-16.2,3.2-24.3c0.7-6.1,1.6-12.2,2.5-18.3c0.9-6.7,1.7-13.3,2.7-20c0.9-7.8,2.1-15.4,3-23.2
		c0.9-6.7,1.7-13.3,2.7-20c0.7-6.1,1.6-12.2,2.5-18.3c0.9-6.7,1.7-13.3,2.7-20c0.9-7.8,2.1-15.8,3-23.6c0.9-6.5,1.7-13.1,2.5-19.8
		c0.5-4.4,1.1-8.8,1.7-12.9c0.7-6.7,1.7-13.1,2.5-19.8c0.9-7.8,2.1-15.8,3-23.6c0.9-6.5,1.7-13.1,2.5-19.8c0.5-4.4,1.1-8.8,1.7-12.9
		c0.7-6.7,1.7-13.1,2.5-19.8c0.5-4.4,1.1-8.8,1.7-12.9c0.7-6.7,1.7-13.1,2.5-19.8c0.5-4.2,1.1-8.4,1.7-12.7c0.9-6.7,1.7-13.3,2.7-20
		c0.5-4.2,1.1-8.4,1.7-12.7c0.4-2.7,0.7-5.3,1.1-8c1.1,3,0.7,6.1,0.4,9.1c-0.2,2.1-0.5,4.2-0.4,6.3c0,1.9,0,3.8-0.4,5.7
		c-0.2,0.7-0.2,1.3-0.2,2.1c0,3.6,0.2,7-0.7,10.7c0.4,5.9-0.9,11.6-0.7,17.3c0,1.7,0,3.6-0.4,5.3c-0.2,0.7-0.2,1.3-0.2,2.1
		c0,4-0.2,8-0.5,12c-0.4,4.2-0.4,8.2-0.7,12.3c-0.4,3.8,0.2,7.6-0.7,11.3c0.4,5.9-0.7,11.8-0.7,17.7c0,4.9-0.5,9.9-0.7,14.8
		c-0.2,3.4-0.4,6.9-0.5,10.2c-0.4,4.6-0.4,9.1-0.7,13.7c-0.4,3.6-0.5,7-0.5,10.7c0,1.1-0.2,2.1-0.4,3.2c-0.2,0.9-0.4,1.9-0.4,2.8
		c-0.2,3.8,0.2,7.6-0.7,11.3c0.4,5.9-0.9,11.6-0.7,17.3c0,1.7,0,3.6-0.4,5.3c-0.2,0.4-0.2,0.9-0.2,1.3c0.2,5.7-0.9,11.3-0.7,16.9
		c0,2.1,0,4-0.4,6.1c-0.2,0.7-0.2,1.3-0.2,2.1c0,4-0.2,8-0.5,12c-0.4,3.8,0.2,7.6-0.7,11.3c0.4,5.9-0.9,11.6-0.7,17.3
		c0,1.7,0,3.6-0.4,5.3c-0.2,0.4-0.2,0.9-0.2,1.3c0.2,5.7-0.9,11.3-0.7,16.9c0,2.1,0,4-0.4,6.1c-0.2,0.7-0.2,1.3-0.2,2.1
		c0,4-0.2,8-0.5,12c-0.4,3.8,0.2,7.6-0.7,11.3c0.4,5.9-0.7,11.8-0.7,17.7c0,4.9-0.5,9.9-0.7,14.8c-0.2,3.4-0.4,6.9-0.5,10.2
		c-0.4,4.6-0.7,9.1-0.7,13.9c0,0.4,0,0.7-0.2,1.1c-1.9,11.3,4.8,23.1,13.9,27.2C729.8,825.7,730.9,826.3,731.9,827.2z"/>
	<path class="st16" d="M686.4,667.2c-0.4,0.4-0.9,0.9-1.3,0c-0.9-4.2-1.6-8.4-1.6-12.5c0-0.9,0-1.9,0-2.8c0-0.2,0.2-0.4,0.2-0.7
		c1.3-0.2,2.5-1.1,3.6-1.7c1.1-0.7,1.3-0.5,2.1,1.1c-0.7,4.4-1.7,9-2.5,13.3C686.6,664.9,686.4,666,686.4,667.2z"/>
	<path class="st17" d="M667.9,761.8c-0.5-0.7-0.7-1.7-0.9-2.5c-0.2-0.9,0-1.1,1.7-1.6C668.4,759.1,668.1,760.4,667.9,761.8z"/>
	<path class="st0" d="M1261.3,812.3c-0.9-1.1-1.6-2.5-1.7-4.2c-0.4-4.2-0.7-8.2-1.1-12.3c-0.4-5.1-0.9-10.2-1.3-15.4
		c0-0.7-0.2-1.3-0.2-2.1c0-9.3-1.1-18.7-1.7-27.8c-0.4-6.1-0.9-12.2-1.3-18.3c-0.4-3.4-0.7-6.9-0.7-10.2c0-0.4,0-0.9-0.2-1.3
		c-0.4-1.7-0.4-3.4-0.4-5.3c0-1.1,0-2.1-0.2-3.2c-0.5-2.8-0.5-5.9-0.5-8.8c0-1.6,0.2-3-0.5-4.6c-0.4-5.3-0.9-10.7-1.3-16
		c-0.2-1.7-0.2-3.4-0.2-5.3c0.2,0.2,0.4,0.5,0.5,0.7c7.4,11.4,14.6,22.9,22,34.2c2.8,4.4,5.5,8.8,8.4,13.1c2.5,4,5.1,8,7.6,12
		c0.5,0.7,0.7,1.7,2.1,2.1c0.4-1.1,0.7-2.1,1.1-3.2c0.4,2.5-0.4,4.9-0.5,7.4c-0.5,7.2-1.6,14.3-2.7,21.5c-1.6,10.4-3.8,21-6.1,31.4
		c-1.1,5.1-2.7,10.1-4,15c-0.4,1.3-0.7,2.5-2.3,2.8c-1.6,0-3,0-4.6,0.2c-2.7,0-5.3-0.4-7.8-1.3
		C1262.8,812.7,1262.1,812.5,1261.3,812.3z"/>
	<path class="st14" d="M1293.1,721.2c-0.4,5.3,0.7,10.7,1.7,15.8c2.5,13.1,4.9,26.3,7.2,39.4c1.6,7.8,2.8,15.6,4.2,23.4
		c0.5,3.8,0.7,7.6-0.4,11.3c-1.7,6.3-5.5,10.9-11.1,14.3c-0.7,0.4-1.6,0.5-2.1,1.3c0.5,0.9,1.6,0.5,2.3,0.5c7,0,13.9,0,21,0
		c3.6,0,7.4,0,11.1,0c1.9,0,3.4-0.4,4.6-2.1c0,0.4-0.2,0.9-0.2,1.3c-0.2,0.5-0.5,1.1-1.1,1.1c-0.7,0-1.7,0.2-2.5,0.2
		c-16.2,0-32.4,0-48.5,0c-3.8,0-3.8,0-3.2-3.8c0.5-3.2,0.2-6.3,0.2-9.5c1.6-0.2,2.1-1.6,2.3-2.8c1.3-5.1,2.7-10.1,4-15
		c2.5-10.2,4.6-20.8,6.1-31.4c1.1-7.2,2.1-14.3,2.7-21.5c0.2-2.5,0.9-4.9,0.5-7.4c0.4-4.9,0.9-9.9,0.9-14.8
		C1292.7,721.4,1292.9,721.4,1293.1,721.2z"/>
	<path class="st2" d="M1292.5,721.6c0.2,4.9-0.4,9.9-0.9,14.8c-0.4,1.1-0.7,2.1-1.1,3.2c-1.1-0.2-1.6-1.3-2.1-2.1
		c-2.7-4-5.1-8-7.6-12c-2.8-4.4-5.5-8.8-8.4-13.1c-7.4-11.4-14.6-22.9-22-34.2c-0.2-0.4-0.4-0.5-0.5-0.7c-0.9-4.4-0.9-9-1.3-13.3
		c-0.9-10.2-1.6-20.6-2.5-31c-0.2-1.9-0.2-3.8-1.3-5.3c2.3,0.5,4.6,0.7,7,0.7c1.6,0,3-0.2,4.4,0.5c-0.9,0.4-1.1,1.1-0.7,2.1
		c0.7,1.9,1.3,3.8,2.1,5.7c4.4,10.2,8.6,20.6,12.9,30.6c2.1,4.9,4.2,9.7,6.5,14.6c2.7,5.9,5.3,11.8,8,17.9c1.7,4,3.6,8,5.5,11.8
		c1.3,2.7,2.3,5.3,2.1,8.6C1292.3,720.6,1292.5,721,1292.5,721.6z"/>
	<path class="st18" d="M1188,517.4c3.2,2.1,6.5,4.2,9.7,6.3c0.9,0.5,1.9,1.1,3,1.7c5.7,4.2,11.8,8,17.9,11.8
		c0.2,0.2,0.4,0.2,0.5,0.2c2.7,2.3,5.7,3.8,8.6,5.7c1.1,0.7,2.3,0.5,3.2-0.2c1.7-1.1,3.2-2.3,4.8-3.6c2.7-2.3,5.1-4.8,7.8-7.2
		c0.9-0.9,2.1-1.9,3.2-2.8c0.7,0.9,0.7,1.9,0.7,3c-0.5,4.8-1.1,9.3-1.7,14.1c-0.2,1.1-0.2,2.1-0.2,3.2c0,1.7,0,3.6-0.4,5.3
		c-0.4,2.1-0.4,4.2-0.2,6.3c0,1.9-0.5,3.4-2.1,4.6c-3.4,1.9-7.2,2.8-10.9,4c-1.7,0.5-3.4,0.4-5.3-0.2c-2.5-0.7-4.8-1.9-7-3.4
		c-2.3-1.6-4.4-3.2-6.5-4.8c-0.2-0.2-0.2-0.4-0.4-0.5c-8.2-7.4-15.4-15.6-22.2-24.3c-2.5-3-4.8-6.1-7.2-9.1c-0.9-1.6-1.9-3-3-4.6
		c-0.7-1.1-0.7-2.1-0.4-3.2C1182.1,517.8,1185,517.2,1188,517.4z"/>
	<path class="st19" d="M1309.3,578.7c0,1.7,0,3.6,0,5.3c0,0.4-0.7,0.7-1.1,0.5c-1.3-0.9-2.5-2.3-3.4-3.6c-4.4-6.1-7.4-12.5-8.2-20.2
		c0-0.7-0.4-1.7-0.4-2.5c-0.2-0.9-0.2-1.9,0.2-2.8c0.2-0.4,0.4-0.9,0.9-0.9c0.4,0,0.7,0.2,0.9,0.4c0.4,0.5,0.7,1.1,1.1,1.7
		c2.8,4.4,5.7,8.8,8.6,13.1c1.1,1.6,1.7,3,1.6,4.9C1309.5,576.2,1309.5,577.5,1309.3,578.7C1309.5,578.7,1309.5,578.7,1309.3,578.7z
		"/>
	<path class="st9" d="M1267,499.9c0.4-0.2,0.5-0.4,0.9-0.5C1267.6,499.3,1267.2,499.5,1267,499.9z"/>
	<path class="st20" d="M1270.4,488.3c0-1.3,0-2.8-0.2-4.2c0.7-0.5,1.7-0.7,2.7-0.7c3,0,6.1,0,9.1-1.1c0.2,0,0.5,0,0.5,0.2
		c0.4,0.2,0.2,0.5,0,0.9c-2.5,3-5.7,4.9-9.1,6.5C1272.1,490.3,1272,490.1,1270.4,488.3z"/>
	<path class="st4" d="M529.4,554.3c-0.2,0-0.4,0-0.5,0c-0.4,0-0.4-0.2-0.2-0.4c0,0,0.2,0,0.4,0C529.1,554.1,529.2,554.3,529.4,554.3
		C529.4,554.5,529.4,554.3,529.4,554.3z"/>
	<path class="st13" d="M683.6,651.7c0,0.9,0,1.9,0,2.8C683,653.6,683,652.7,683.6,651.7z"/>
	<path class="st21" d="M925.3,750.5c3.2,0,6.5,0,9.5,0c0.7,0,1.7,0,2.5,0c3.6,0.4,5.9,2.1,6.9,5.7c0.5,2.1,0.9,4.2,1.3,6.3
		c1.1,5.9,1.9,11.6,3.4,17.5c0.9,3.6-1.6,6.7-5.1,6.7c-1.7,0-3.2,0-4.9,0c-5.7,0-11.4,0-17.1,0c-1.7,0-3.2-0.2-4.8-0.9
		c-1.9-0.9-3.2-2.5-3.6-4.6c-0.4-1.7-0.5-3.2-0.9-4.9c-1.1-6.3-2.5-12.5-3.6-18.8c-0.9-4.9,0.5-6.9,5.7-7
		C918,750.5,921.6,750.5,925.3,750.5L925.3,750.5z"/>
	<path class="st21" d="M868.5,786.6c-2.8,0-5.7,0-8.6,0c-0.7,0-1.3,0-2.1,0c-5.1-0.2-7.6-1.9-8.6-7c-1.6-7.4-3-14.8-4.4-22.2
		c-0.7-4.8,0.9-6.7,5.7-6.9c7.2,0,14.6,0,21.9,0c0.4,0,0.9,0,1.3,0.2c3.8,0.5,6.1,2.7,6.9,6.3c1.6,7.6,2.8,15.2,4.4,23.1
		c0.2,0.7,0.2,1.3,0.2,2.1c0,2.7-1.3,4.2-4,4.6c-0.9,0.2-1.9,0.2-2.8,0.2C875.2,786.6,871.9,786.6,868.5,786.6z"/>
	<path class="st21" d="M1105.5,695.9c3,0,6.1,0,9.1,0c0.7,0,1.7,0,2.5,0c4,0.4,6.1,1.9,7,5.9c0.7,3,1.1,6.1,1.7,9
		c0.9,4.6,1.7,9,2.7,13.5c0.2,0.5,0.2,1.1,0.4,1.7c0.4,3.6-1.3,5.7-4.9,5.9c-0.4,0-0.7,0-1.1,0c-7.2,0-14.6,0-21.9,0
		c-2.5,0-4.6-0.7-6.3-2.7c-0.9-1.1-1.6-2.3-1.9-3.8c-1.3-7-2.7-14.1-4-21.3c-0.2-1.3-0.4-2.8-0.4-4.2c0-2.1,1.1-3.2,3-3.8
		c1.1-0.4,2.3-0.4,3.4-0.4C1098.6,695.9,1102,695.9,1105.5,695.9z"/>
	<path class="st21" d="M984.8,732c-3.2,0-6.7,0-9.9,0c-1.3,0-2.7,0-3.8-0.4c-2.5-0.7-4.2-2.3-4.8-4.8c-0.2-0.7-0.4-1.6-0.5-2.5
		c-1.3-7-2.7-13.9-4-21c-0.2-0.9-0.4-2.1-0.2-3.2c0-2.3,1.1-3.6,3.2-4.2c0.9-0.2,1.9-0.4,2.8-0.4c7,0,14.3,0,21.3,0
		c0.9,0,1.9,0,2.8,0.2c2.8,0.5,4.9,2.3,5.5,5.3c0.5,2.7,1.1,5.3,1.7,8c0.9,4.9,1.9,9.7,2.8,14.6c0.2,1.1,0.4,2.3,0.4,3.4
		c0,2.3-1.1,3.6-3.2,4.2c-0.9,0.2-2.1,0.4-3.2,0.4C991.9,732,988.4,732,984.8,732z"/>
	<path class="st21" d="M1015.6,561.5c-3.2,0-6.7,0-9.9,0c-1.3,0-2.7,0-3.8-0.4c-2.5-0.7-4.4-2.3-4.9-4.9c-0.4-1.6-0.7-3-0.9-4.6
		c-1.1-6.1-2.3-12-3.4-18.1c-0.2-1.3-0.4-2.5-0.4-3.8c0-2.1,1.1-3.2,3-3.8c0.9-0.2,1.9-0.4,2.8-0.4c7.2,0,14.5,0,21.7,0
		c0.5,0,1.1,0,1.7,0.2c3.6,0.5,5.9,2.7,6.7,6.3c0.9,5.1,1.9,10.2,2.8,15.2c0.4,2.3,0.7,4.4,1.1,6.7c0.2,0.9,0.4,2.1,0.4,3.2
		c0,2.5-1.3,4-3.8,4.4c-0.9,0.2-2.1,0.2-3.2,0.2C1022.1,561.5,1018.8,561.5,1015.6,561.5z"/>
	<path class="st21" d="M899.2,616.1c-2.7,0-5.5,0-8.2,0c-0.7,0-1.3,0-2.1,0c-5.7-0.2-7.8-1.7-9-7.2c-1.6-7.6-3-15-4.4-22.7
		c0-0.4-0.2-0.7-0.2-1.1c-0.2-3,1.6-4.9,4.6-5.3c0.7,0,1.7,0,2.5,0c6.7,0,13.3,0,20,0c5.9,0,8.2,1.9,9.3,7.6
		c1.3,6.7,2.7,13.5,4,20.2c0.2,1.3,0.4,2.8,0.2,4.2c-0.2,1.9-1.1,3-2.8,3.6c-1.1,0.4-2.3,0.4-3.4,0.4
		C906,616.1,902.6,616.1,899.2,616.1L899.2,616.1z"/>
	<path class="st21" d="M955.7,580c3.6,0,7,0,10.7,0c1.3,0,2.8,0.2,4.2,0.7c2.3,0.9,3.8,2.7,4.4,5.1c1.6,8,3,16,4.6,24
		c0.5,3-0.7,5.3-3.8,6.1c-0.7,0.2-1.3,0.2-2.1,0.2c-7.4,0-14.6,0-22,0c-2.7,0-4.8-1.1-6.5-3.2c-0.7-0.9-1.1-2.1-1.6-3.2
		c-1.6-8-3-16-4.6-24c-0.5-3,1.3-5.3,4.4-5.7c2.1-0.2,4.2,0,6.5-0.2C951.7,580,953.8,580,955.7,580L955.7,580z"/>
	<path class="st21" d="M1115.9,750.5c3.2,0,6.7,0,9.9,0c1.1,0,2.1,0,3.2,0.2c3,0.5,5.1,2.3,5.7,5.5c0.4,1.7,0.5,3.2,0.9,4.9
		c1.1,6.3,2.5,12.5,3.6,18.8c0.7,4-0.9,6.3-4.9,6.7c-0.4,0-0.7,0-1.1,0c-7.2,0-14.5,0-21.7,0c-2.8,0-4.9-1.1-6.7-3.4
		c-0.7-1.1-1.1-2.3-1.3-3.6c-1.1-6.1-2.3-12-3.4-18.1c-0.4-1.7-0.5-3.2-0.9-4.9c-0.5-3.8,1.3-6.1,5.1-6.3c3-0.2,5.9,0,9,0
		C1114,750.5,1115,750.5,1115.9,750.5z"/>
	<path class="st21" d="M1041.9,695.9c3.6,0,7,0,10.7,0c4.8,0,7.4,2.3,8.4,7c1.3,6.9,2.7,13.7,4,20.6c0.2,1.1,0.4,2.3,0.4,3.4
		c0,2.7-1.1,4.2-3.6,4.9c-0.7,0.2-1.3,0.2-2.1,0.2c-7.2,0-14.6,0-21.9,0c-1.3,0-2.7-0.2-3.8-0.7c-2.3-0.9-3.6-2.5-4-4.9
		c-0.9-4.6-1.9-9.3-2.7-13.9c-0.5-3-1.1-6.3-1.7-9.3c-0.2-0.7-0.4-1.3-0.4-2.1c-0.2-2.5,1.1-4.4,3.6-4.9c0.9-0.2,1.9-0.2,2.8-0.2
		C1034.8,695.7,1038.3,695.9,1041.9,695.9L1041.9,695.9z"/>
	<path class="st5" d="M1175.6,732c-3.2,0-6.7,0-9.9,0c-0.9,0-1.9,0-2.8-0.2c-3-0.4-4.9-1.9-5.9-4.8c-0.2-0.7-0.5-1.6-0.5-2.5
		c-1.3-7-2.7-13.9-4-21c-0.2-1.1-0.4-2.3-0.4-3.6c0.2-2.3,1.6-3.8,3.8-4.2c0.9-0.2,1.9-0.2,2.8-0.2c6.7,0,13.5,0,20.2,0
		c0.2,0,0.2,0,0.4,0c4.9-0.2,8.2,2.3,9.1,7.8c0.9,6.9,2.7,13.7,3.8,20.6c0.2,1.1,0.4,2.3,0.4,3.6c0,1.9-1.1,3-2.8,3.6
		c-1.1,0.4-2.3,0.4-3.4,0.4C1182.5,732,1179.1,732,1175.6,732z"/>
	<path class="st8" d="M921,731.8c-3.2,0-6.5,0-9.5,0c-0.9,0-1.9,0-2.8-0.2c-3-0.4-4.9-2.1-5.9-4.9c-0.2-0.5-0.4-1.1-0.4-1.7
		c-1.6-7.4-2.8-14.8-4.4-22.2c-0.9-4.9,0.7-6.9,5.7-7c7.2,0,14.6,0,21.9,0c0.7,0,1.6,0,2.1,0.2c2.8,0.5,4.9,2.3,5.7,5.1
		c0.5,2.1,0.9,4.4,1.3,6.7c1.1,5.5,2.1,11.3,3.2,16.7c0.2,0.7,0.4,1.3,0.4,2.1c0.2,2.3-0.9,4.2-3.2,4.9c-0.9,0.4-2.1,0.4-3.2,0.4
		C928.5,731.8,924.9,731.8,921,731.8L921,731.8z"/>
	<path class="st21" d="M828.9,580c3,0,5.9,0,9,0c0.7,0,1.7,0,2.5,0c4.9,0.2,7,2.8,7.6,6.5c0.7,4,1.6,7.8,2.5,11.8
		c0.7,3.4,1.3,7,1.9,10.4c0.2,0.7,0.4,1.3,0.4,2.1c0.2,2.8-0.9,4.4-3.8,5.1c-0.9,0.2-2.1,0.4-3.2,0.4c-6.7,0-13.3,0-19.8,0
		c-0.7,0-1.3,0-2.1-0.2c-3.8-0.4-6.1-2.5-6.9-6.1c-1.1-5.1-2.1-10.2-3-15.2c-0.4-2.1-0.7-4.2-1.1-6.3c-0.2-1.3-0.4-2.8-0.2-4.2
		c0.2-1.9,1.1-3,2.8-3.6c1.1-0.4,2.3-0.4,3.4-0.4C822.1,580,825.5,580,828.9,580L828.9,580z"/>
	<path class="st21" d="M1026.3,616.1c-3,0-6.1,0-9.1,0c-0.9,0-1.9,0-2.8,0c-4-0.4-6.5-2.5-7.2-6.5c-1.3-7.2-2.8-14.6-4.2-21.9
		c-0.2-0.9-0.4-2.1-0.2-3.2c0-2.3,1.1-3.6,3.2-4.2c0.9-0.2,1.9-0.4,2.8-0.4c7,0,14.1,0,21.3,0c0.7,0,1.3,0,2.1,0.2
		c3,0.4,4.9,1.9,5.9,4.9c0.2,0.7,0.5,1.6,0.7,2.5c1.3,7.2,2.7,14.5,4,21.5c0.2,0.9,0.4,1.9,0.4,2.8c0,2.1-0.9,3.2-2.8,4
		c-1.1,0.4-2.3,0.4-3.4,0.4C1033.1,616.1,1029.7,616.1,1026.3,616.1L1026.3,616.1z"/>
	<path class="st21" d="M995.6,786.6c-3,0-6.1,0-9.3,0c-0.9,0-1.9,0-2.8,0c-4-0.4-6.3-2.5-7.2-6.3c-0.5-2.1-0.9-4.4-1.3-6.7
		c-0.9-4.9-1.9-9.7-2.8-14.6c-0.2-1.3-0.4-2.8-0.4-4.2c0.2-2.3,1.1-3.4,3.4-4c0.9-0.2,1.9-0.4,2.8-0.4c7,0,13.9,0,21,0
		c0.4,0,0.9,0,1.3,0c4,0.4,6.1,1.9,7,5.9c0.9,4.2,1.7,8.4,2.7,12.5c0.7,3.4,1.3,7,1.9,10.4c0.2,1.1,0.4,2.1,0.2,3.2
		c-0.2,2.1-1.6,3.4-3.6,4c-0.9,0.2-2.1,0.2-3.2,0.2C1002.3,786.6,999.1,786.6,995.6,786.6z"/>
	<path class="st5" d="M1135.9,525.4c3,0,6.1,0,9.3,0c0.7,0,1.7,0,2.5,0c4,0.4,6.3,2.3,7.2,6.1c0.9,4,1.7,8.2,2.5,12.2
		c0.5,3.4,1.3,6.7,1.9,10.1c0.2,0.7,0.4,1.3,0.4,2.1c0.2,3.2-1.3,5.3-4.6,5.5c-8,0.2-16.2,0.2-24.1,0c-4,0-6.5-2.3-7.2-6.5
		c-1.1-5.1-1.9-10.2-2.8-15.4c-0.4-1.9-0.7-4-1.1-5.9c-0.2-1.3-0.4-2.7-0.4-3.8c0-2.3,1.1-3.6,3.2-4c0.9-0.2,2.1-0.4,3.2-0.4
		C1129.1,525.4,1132.5,525.4,1135.9,525.4L1135.9,525.4z"/>
	<path class="st21" d="M857.9,732c-3,0-6.1,0-9.3,0c-0.7,0-1.7,0-2.5,0c-4-0.4-5.9-2.1-7-5.9c-0.5-1.9-0.9-4-1.3-5.9
		c-1.1-5.7-2.1-11.4-3.2-17.1c-0.9-5.1,0.7-7.2,5.7-7.2c7,0,13.9,0,21,0c0.9,0,1.9,0,2.8,0.2c3,0.5,5.1,2.5,5.9,5.5
		c0.4,1.6,0.7,3.2,0.9,4.9c1.1,5.7,2.1,11.4,3.2,17.1c0.2,1.3,0.4,2.8,0.4,4.2c-0.2,2.1-1.1,3.4-3.4,4c-0.9,0.2-2.1,0.4-3.2,0.4
		C864.7,732,861.3,732,857.9,732z"/>
	<path class="st21" d="M1052.3,750.5c3.6,0,7,0.2,10.7,0c4.6-0.2,7.8,3,8.4,6.9c1.3,7,2.7,14.1,4,21.3c0.2,1.3,0.2,2.7,0.2,3.8
		c0,1.9-1.1,3-2.8,3.6c-0.9,0.4-2.1,0.4-3.2,0.4c-7,0-14.3,0-21.3,0c-1.6,0-2.8-0.2-4.2-0.7c-2.1-0.9-3.4-2.5-4-4.6
		c-0.5-2.8-1.3-5.7-1.9-8.8c-0.9-4.9-1.9-9.9-2.8-15c-0.2-0.7-0.4-1.7-0.2-2.5c0.2-2.5,1.6-4,3.8-4.4c0.9-0.2,1.9-0.2,2.8-0.2
		C1045.5,750.5,1048.9,750.5,1052.3,750.5z"/>
	<path class="st21" d="M1082.8,580c3.8,0,7.6,0,11.4,0c2.7,0,4.6,1.1,6.1,3c0.7,0.9,1.3,1.9,1.6,3.2c1.3,7.2,2.8,14.6,4.2,21.9
		c0.2,1.1,0.2,2.3,0.2,3.6c0,2.5-1.1,3.8-3.4,4.2c-0.9,0.2-1.9,0.2-2.8,0.2c-6.9,0-13.7,0-20.6,0c-0.7,0-1.7,0-2.5-0.2
		c-3-0.7-5.5-2.3-6.1-5.7c-0.5-3-1.1-6.3-1.9-9.3c-0.9-4.8-1.9-9.5-2.7-14.3c-0.2-0.7-0.4-1.7-0.2-2.5c0-1.9,1.3-3.4,3-3.8
		c0.9-0.2,2.1-0.4,3.2-0.4C1075.7,580,1079.4,580,1082.8,580L1082.8,580z"/>
	<path class="st5" d="M1209.9,580c3,0,6.1,0,9.3,0c0.9,0,1.9,0,2.8,0c3.6,0.4,5.9,2.3,6.7,5.9c0.7,3.6,1.6,7.4,2.3,11.3
		c0.7,3.8,1.6,7.6,2.1,11.6c0.2,1.1,0.4,2.3,0.2,3.6c0,1.7-0.9,2.8-2.7,3.4c-1.1,0.4-2.3,0.5-3.4,0.5c-7.2,0-14.5,0-21.7,0
		c-0.7,0-1.7-0.2-2.5-0.2c-2.3-0.5-4-1.9-4.9-4.2c-0.4-1.1-0.7-2.5-0.9-3.8c-1.3-6.7-2.7-13.5-4-20.2c-0.2-0.9-0.4-2.1-0.4-3.2
		c0-2.3,1.1-3.8,3.4-4.2c0.9-0.2,2.1-0.2,3.2-0.2C1203.1,580,1206.5,580,1209.9,580z"/>
	<path class="st5" d="M1146.4,580c3.6,0,7,0,10.7,0c1.3,0,2.7,0,3.8,0.5c2.3,0.9,4,2.5,4.4,5.1c1.6,8.2,3.2,16.2,4.8,24.3
		c0.5,3-0.9,5.1-3.8,5.7c-0.9,0.2-1.9,0.2-2.8,0.2c-6.7,0-13.5,0-20.2,0c-0.7,0-1.3,0-2.1-0.2c-3.6-0.5-6.1-2.7-6.9-6.3
		c-1.1-5.1-1.9-10.2-3-15.4c-0.5-2.7-1.1-5.3-1.6-8c-0.7-4,0.9-6.1,4.9-6.5c1.7-0.2,3.2,0,4.9,0C1141.8,580,1144.1,580,1146.4,580
		L1146.4,580z"/>
	<path class="st5" d="M1179.1,750.5c3.2,0,6.5,0,9.5,0c0.9,0,1.9,0,2.8,0c3.2,0.4,5.5,2.1,6.5,5.1c0.4,0.9,0.5,2.1,0.7,3
		c1.3,6.7,2.5,13.3,3.8,19.8c0.2,0.9,0.4,1.9,0.4,2.8c0,2.7-1.1,4.2-3.8,4.8c-0.5,0.2-1.1,0.2-1.7,0.2c-7.6,0-15.2,0-22.7,0
		c-0.7,0-1.7-0.2-2.5-0.4c-2.5-0.7-4.2-2.3-4.8-4.8c-0.2-0.7-0.4-1.6-0.5-2.5c-1.3-7-2.7-13.9-4-21c-0.2-1.1-0.4-2.3-0.4-3.6
		c0-1.9,1.1-3,2.8-3.6c1.1-0.4,2.3-0.4,3.4-0.4C1172.2,750.5,1175.6,750.5,1179.1,750.5L1179.1,750.5z"/>
	<path class="st21" d="M846.9,673.8c-3.8,0-7.6,0-11.4,0c-4.6,0-6.7-1.9-7.6-6.3c0-0.2,0-0.4-0.2-0.7c-1.1-5.9-2.3-11.8-3.4-17.7
		c-0.4-1.7-0.7-3.2-0.9-4.9c-0.5-3.8,0.9-5.9,4.6-5.9c8,0,16.2,0,24.1,0c4,0,6.3,1.9,7,6.1c1.6,7.8,3,15.6,4.6,23.4
		c0,0.4,0.2,0.9,0.2,1.3c0.2,2.5-1.6,4.4-4,4.6c-1.1,0.2-2.1,0-3.2,0C853.5,673.8,850.1,673.8,846.9,673.8L846.9,673.8z"/>
	<path class="st21" d="M1094.6,638.3c3.6,0,7,0,10.7,0c0.9,0,1.9,0,2.8,0.2c1.9,0.4,3.2,1.3,4,3c0.5,1.1,0.9,2.3,1.1,3.4
		c1.3,7.2,2.8,14.6,4.2,21.9c0.2,0.9,0.4,2.1,0.2,3.2c-0.2,1.9-1.6,3.2-3.4,3.6c-0.7,0.2-1.7,0.2-2.5,0.2c-7.4,0-14.8,0-22.4,0
		c-0.4,0-0.9,0-1.3,0c-2.7-0.4-4.8-1.6-5.7-4.2c-0.4-1.1-0.7-2.5-0.9-3.8c-1.3-6.5-2.5-12.9-3.8-19.6c-0.2-1.1-0.4-2.3-0.4-3.4
		c0-2.7,1.6-4.2,4.2-4.4c0.7,0,1.7,0,2.5,0C1087.4,638.3,1091,638.3,1094.6,638.3z"/>
	<path class="st21" d="M1030.3,638.3c4.2,0,8.4,0,12.3,0c3.4,0,5.5,1.9,6.5,4.9c0.4,1.1,0.5,2.3,0.7,3.4c0.4,2.3,0.7,4.4,1.1,6.7
		c0.9,4.4,1.7,8.8,2.7,13.3c0.2,0.7,0.4,1.3,0.4,2.1c0.2,2.8-1.6,4.8-4.2,4.9c-0.7,0-1.3,0-2.1,0c-7,0-13.9,0-21,0
		c-0.4,0-0.9,0-1.3,0c-4.2-0.2-6.3-1.7-7.2-5.9c-1.6-8-3-16-4.6-24c0-0.4-0.2-0.9-0.2-1.3c0-1.9,1.3-3.6,3.4-4
		c0.9-0.2,2.1-0.2,3.2-0.2C1023.4,638.3,1026.9,638.3,1030.3,638.3L1030.3,638.3z"/>
	<path class="st21" d="M967.5,638.3c3.2,0,6.7,0,9.9,0c0.9,0,1.9,0,2.8,0c2.7,0.4,4.6,1.7,5.5,4.4c0.2,0.7,0.4,1.6,0.5,2.5
		c1.3,6.7,2.7,13.5,4,20.2c0.4,1.6,0.4,3,0.4,4.6c-0.2,2.3-1.1,3.4-3.4,3.8c-0.7,0.2-1.7,0.2-2.5,0.2c-7.2,0-14.5,0-21.7,0
		c-0.5,0-1.1,0-1.7,0c-3.2-0.4-5.5-2.3-6.1-5.5c-1.7-8.2-3.2-16.2-4.8-24.3c-0.7-3.6,1.7-5.7,4.9-5.7
		C959.3,638.4,963.3,638.3,967.5,638.3L967.5,638.3z"/>
	<path class="st5" d="M1164,673.8c-3.6,0-7.4,0-11.1,0c-4.6,0-6.9-1.7-7.8-6.3c-1.3-5.7-2.3-11.6-3.4-17.3c-0.4-1.9-0.7-3.6-1.1-5.5
		c-0.2-0.7-0.2-1.3-0.2-2.1c0.2-2.3,1.7-4,4-4.2c0.7,0,1.3,0,2.1,0c7.2,0,14.5,0,21.7,0c0.4,0,0.7,0,1.1,0c4.2,0.2,6.3,1.9,7,6.1
		c1.1,4.9,1.9,9.9,3,15c0.5,2.5,0.9,5.1,1.3,7.6c0.2,0.7,0.2,1.3,0.4,2.1c0.2,2.7-1.1,4.4-3.8,4.8c-0.9,0.2-1.9,0.2-2.8,0.2
		C1171.1,673.8,1167.5,673.8,1164,673.8L1164,673.8z"/>
	<path class="st21" d="M910.2,673.8c-3.4,0-6.9,0-10.2,0c-0.7,0-1.7,0-2.5,0c-2.8-0.2-4.6-1.6-5.5-4.2c-0.4-0.9-0.5-2.1-0.7-3
		c-1.3-6.9-2.7-13.7-4-20.6c-0.2-1.1-0.4-2.3-0.2-3.4c0.2-2.3,1.6-3.8,3.8-4c0.7-0.2,1.7-0.2,2.5-0.2c7.2,0,14.5,0,21.7,0
		c4.6,0,6.9,1.7,7.8,6.1c1.7,7.8,3,15.6,4.6,23.2c0.2,0.7,0.2,1.3,0,2.1c-0.2,2.1-1.6,3.6-3.4,3.8c-0.9,0.2-1.9,0.2-2.8,0.2
		C917.2,673.8,913.8,673.8,910.2,673.8z"/>
	<path class="st5" d="M1227.6,673.8c-3.8,0-7.6,0-11.4,0c-4.4,0-6.5-1.7-7.4-6.1c-1.6-7.4-2.8-14.8-4.4-22.2
		c-0.2-1.1-0.2-2.3-0.2-3.6c0.2-1.9,1.1-3,2.8-3.4c0.9-0.2,1.9-0.2,2.8-0.2c7.2,0,14.6,0,21.9,0c0.4,0,0.7,0,1.1,0
		c3.4,0.2,5.7,1.9,6.7,5.3c0.7,3.2,1.6,6.7,2.1,10.1c0.9,4.6,1.7,9.1,2.5,13.5c0.2,0.7,0.4,1.7,0.4,2.5c0,2.1-1.3,3.6-3.4,4
		c-0.9,0.2-1.9,0.2-2.8,0.2C1234.8,673.8,1231.3,673.8,1227.6,673.8L1227.6,673.8z"/>
	<path class="st5" d="M1251.4,698.5c0.7,1.6,0.5,3,0.5,4.6c0,3,0,5.9,0.5,8.8c0.2,0.9,0.2,2.1,0.2,3.2c0,1.7,0,3.6,0.4,5.3
		c0.2,0.4,0.2,0.9,0.2,1.3c0,3.4,0.4,6.9,0.7,10.2c-0.4,0-0.9-0.2-1.3-0.2c-7.6,0-15,0-22.7,0.2c-0.5,0-1.1,0-1.7,0
		c-4.9-0.2-7.2-1.7-8.2-6.7c-1.3-5.9-2.3-11.8-3.4-17.7c-0.4-1.9-0.7-4-1.1-5.9c-0.4-2.8,0.9-4.9,3.6-5.5c0.9-0.2,2.1-0.4,3.2-0.4
		c6.9,0,13.7,0,20.6,0c3,0,5.7,0.7,7.6,3.6C1251,700.3,1251,698.9,1251.4,698.5z"/>
	<path class="st21" d="M1065.9,524.6c0.9,0.5,2.1,0.7,3.2,0.7c1.3,0,2.5,0,3.8,0c-1.1,0.7-2.3,1.7-3.2,2.5c-0.2,0.2-0.4,0.5-0.4,0.9
		c0,0.2,0.2,0.4,0.4,0.5c0.5,0.2,1.1-0.2,1.6-0.5c2.3-1.6,4.4-3.2,6.9-4c1.7,0.9,3.6,0.5,5.5,0.7c4.2,0.2,7,2.5,8,6.7
		c0.5,2.5,0.9,5.1,1.6,7.6c0.4,1.6,0.5,3,1.6,4.4c-8.2,6.9-17.3,11.8-27.6,14.8c-2.1,0.5-4.4,1.3-6.7,1.3c0.7-0.7,0.7-1.6,0.5-2.5
		c-0.9-4.4-1.7-9-2.7-13.5c-0.7-3.2-0.9-6.5-2.1-9.5C1058.8,530.7,1062,527.5,1065.9,524.6z"/>
	<path class="st22" d="M1172.2,513.8c-6.1,1.1-12.2,2.1-18.1,3.2c-2.3,0.4-4.4,0.7-6.7,1.1c-0.7-0.2-1.6,0-2.3,0.5
		c-0.4,0-0.7,0-1.3,0c-0.9-3.6-1.7-7.4-2.1-11.1c9-1.7,17.9-3.2,26.8-4.9c1.3-0.2,2.5-0.5,3.8-0.9c0.5-0.2,1.1-0.4,1.7-0.4
		c7.8-0.7,15.2-2.7,23.1-3.8c0.9,0.9,1.1,2.3,1.6,3.4c0.4,2.5,0.9,4.8,1.6,7.2l0,0c-0.5,0.2-0.9,0.4-1.6,0.5c-4,0.7-8,1.6-12,2.3
		c-1.3-0.4-2.5-1.3-3.2-2.5c-0.5-0.5-1.1-1.1-1.7-1.7c-0.4-0.4-1.3,0-1.3,0.7c0,0.9,0.2,1.9,0.4,2.8c0.2,1.1-0.2,1.7-1.6,2.1
		c-0.7,0.2-1.3,0.2-2.1,0.4C1175.4,513.2,1173.8,512.8,1172.2,513.8z"/>
	<path class="st5" d="M1183.1,527.3c2.5,3,4.9,6.1,7.2,9.1c6.9,8.6,14.1,16.9,22.2,24.3c0.2,0.2,0.4,0.4,0.4,0.5
		c-5.9,0-11.8,0-17.7,0c-0.4,0-0.7,0-1.1,0c-3.8-0.4-6.1-2.3-7-5.9c-0.7-3.4-1.6-6.9-2.1-10.4c-0.7-4.4-1.7-8.6-2.5-12.9
		C1182.3,530.5,1182.3,529,1183.1,527.3z"/>
	<path class="st23" d="M1060.2,560c2.3,0.2,4.4-0.5,6.7-1.3c10.2-3,19.4-8,27.6-14.8c3.8-2.7,6.9-6.1,9.5-9.7c1.7-2.5,3-5.1,3.4-8
		c0.5-3-0.7-5.3-3.6-6.5c-1.6-0.5-3-0.7-4.6-0.7c-7.6,0-14.6,2.3-21.3,5.7c-2.5,0.9-4.8,2.5-6.9,4c-0.4,0.4-0.9,0.7-1.6,0.5
		c-0.2,0-0.4-0.4-0.4-0.5c0-0.4,0.2-0.7,0.4-0.9c1.1-0.9,2.3-1.7,3.2-2.5c3.8-1.9,7.6-4,11.6-5.3c4.9-1.7,10.1-2.8,15.2-2.7
		c1.6,0,3,0.2,4.6,0.7c3.4,1.3,5.1,4.2,4.8,7.8c-0.4,3-1.6,5.7-3.2,8.2c-2.3,3.6-5.1,6.7-8.4,9.5c-1.1,0.9-2.1,1.9-3.2,2.8
		c-0.9,0.5-1.9,1.3-2.8,1.9c-6.7,4.6-13.5,8.4-21.3,11.1c-2.3,0.7-4.8,1.3-7,2.1c-2.3,0-4.8,0.2-7,0.2c-8.2-0.4-12.3-6.3-10.2-14.1
		c0.9-3.4,2.7-6.3,4.8-9.1c1.6-2.1,3.2-4,4.8-6.1c2.3-2.3,4.8-4.8,7-7c2.3-1.9,4.6-3.6,6.9-5.5c0.5-0.5,1.1-1.1,2.1-1.1
		c0.2,0,0.4,0.2,0.5,0.4c0,0,0,0.2,0,0.4c-0.4,0.4-0.7,0.9-1.1,1.3c-1.6,1.3-3.2,2.7-4.8,4.2c-3.6,2.8-7,6.3-10.1,9.9l0,0
		c-0.2,0.2-0.5,0.5-0.7,0.7c-2.8,2.8-5.1,6.1-6.9,9.9c-0.5,1.3-1.1,2.8-1.3,4.4c-0.9,5.5,2.1,9.7,7.6,10.7
		C1056.3,560.2,1058.3,560.2,1060.2,560z"/>
	<path class="st21" d="M863.8,526.7c9.9,0,19.8,0,29.7,0c1.3,0,2.7-0.2,3.8,0.4c0.7,0.2,1.1,0.7,1.1,1.6c0,0.5-0.5,1.1-1.1,1.3
		c-0.4,0.2-0.9,0.2-1.3,0.4c-0.9,0-1.9,0-2.8,0c-19.6,0-39.2,0-58.8,0c-1.1,0-2.1,0-3.2-0.2c-0.5,0-1.1-0.4-1.7-0.5
		c-0.7-0.4-0.7-1.7,0-2.1c0.5-0.4,1.1-0.5,1.6-0.5c1.1-0.2,2.1-0.2,3.2-0.2C844,526.7,853.9,526.7,863.8,526.7z"/>
	<path class="st24" d="M865.7,535.2c10.1,0,20.2,0,30.1,0c1.1,0,2.3,0.2,3.4,0.2c0.5,0,0.7,0.4,0.9,0.9c0.2,0.5-0.2,1.1-0.5,1.6
		c-0.5,0.4-1.3,0.7-1.9,0.7c-1.1,0-2.1,0-3.2,0c-19.4,0-38.8,0-58.2,0c-1.1,0-2.3,0-3.6-0.2c-0.5,0-1.1-0.4-1.6-0.7
		c-0.5-0.5-0.4-1.7,0.4-2.1c0.7-0.4,1.6-0.4,2.5-0.4c2.3,0,4.6,0,6.7,0C849.1,535.2,857.5,535.2,865.7,535.2z"/>
	<path class="st8" d="M815.2,540.2c-1.6,0-3,0-4.6,0c-1.7,0-3-0.9-3.4-2.7c-0.7-3.2-1.3-6.5-1.9-9.7c-0.2-1.7,0.5-2.7,2.5-2.7
		c3.2-0.2,6.7,0,9.9,0c1.6,0,2.7,0.9,3,2.5c0.7,3.2,1.3,6.5,1.9,9.7c0.4,1.7-0.4,2.7-2.3,2.7C818.5,540.4,816.8,540.2,815.2,540.2z"
		/>
	<path class="st24" d="M1062.8,561.5c2.3-0.7,4.8-1.3,7-2.1c7.6-2.5,14.6-6.3,21.3-11.1c0.9-0.7,1.9-1.3,2.8-1.9
		c0.5,3,1.1,5.9,1.7,9c0.5,3-1.1,5.3-4.2,5.9c-0.7,0.2-1.7,0.2-2.5,0.2C1080.5,561.5,1071.8,561.5,1062.8,561.5z"/>
	<path class="st5" d="M1219.3,537.4c-0.2,0-0.4-0.2-0.5-0.2c-6.1-3.8-12.2-7.6-17.9-11.8c3.2,0,6.3,0,9.5,0c0.9,0,1.9,0.2,2.8,0.4
		c2.7,0.5,4.4,2.3,5.1,4.8C1218.7,532.8,1219.3,535.1,1219.3,537.4z"/>
	<path class="st25" d="M1172.2,513.8c1.6-0.9,3.2-0.5,4.8-0.9c0.7-0.2,1.3-0.2,2.1-0.4c1.1-0.4,1.6-0.7,1.6-2.1
		c0-0.9-0.2-1.9-0.4-2.8c0-0.5,0.7-1.1,1.3-0.7c0.5,0.5,1.1,1.1,1.7,1.7c0.9,1.1,1.9,2.1,3.2,2.5c0.4,2.1,0.4,4.2,1.3,6.3
		c-3-0.2-5.9,0.4-8.4,2.3c-1.9-0.5-3-2.1-4-3.8C1174.9,514.3,1173.8,513.8,1172.2,513.8z"/>
	<path class="st9" d="M1200,508.3c-0.5-2.5-0.9-4.8-1.6-7.2c-0.2-1.3-0.4-2.5-1.6-3.4c1.3-0.5,2.7-0.5,4.2-0.5c2.1,0.2,3,0.9,3.8,3
		c0.4,1.1,0.5,2.5,0.5,3.8c0,2.7-1.3,4-4,4.6C1201.3,508.3,1200.6,508.3,1200,508.3z"/>
	<path class="st26" d="M1142,507.7c0.4,3.8,0.9,7.4,2.1,11.1c-2.3-0.2-4.4-0.7-6.5-1.3c0.2-2.1-0.4-4.2-0.7-6.3
		C1138.6,509.8,1140.2,508.6,1142,507.7z"/>
	<path class="st27" d="M1136.8,511.1c0.4,2.1,0.9,4.2,0.7,6.3c-1.9-0.4-3.8-0.7-5.9-1.1c-0.4,0-0.9-0.2-0.9-0.7s0.4-0.7,0.7-0.9
		C1133.2,513.4,1134.9,511.9,1136.8,511.1z"/>
	<path class="st28" d="M1062.3,525.2c-2.3,2.3-4.8,4.8-7,7c0-0.4,0-0.9,0-1.3c0.2-3.4,1.7-4.9,4.9-5.5
		C1060.9,525.2,1061.5,525.4,1062.3,525.2z"/>
	<path class="st26" d="M1145.2,518.7c0.7-0.4,1.6-0.5,2.3-0.5C1146.9,518.7,1146.2,518.9,1145.2,518.7z"/>
	<path class="st9" d="M1198.7,508.8c0.5-0.2,0.9-0.4,1.6-0.5C1199.6,508.6,1199.2,508.8,1198.7,508.8z"/>
	<path class="st14" d="M1077.8,524.6c6.7-3.4,13.7-5.7,21.3-5.7c1.6,0,3,0.2,4.6,0.7c2.8,1.1,4.2,3.2,3.6,6.5c-0.4,3-1.7,5.7-3.4,8
		c-2.7,3.8-5.7,7.2-9.5,9.7c-0.9-1.3-1.1-2.8-1.6-4.4c-0.5-2.5-0.9-5.1-1.6-7.6c-0.9-4.2-3.6-6.5-8-6.7
		C1081.7,525.2,1079.6,525.6,1077.8,524.6z"/>
	<path class="st14" d="M1060.2,560c-1.9,0.2-3.8,0.2-5.7,0c-5.5-0.7-8.8-5.1-7.6-10.7c0.2-1.6,0.7-3,1.3-4.4c1.7-3.6,4-7,6.9-9.9
		c0.2-0.2,0.5-0.5,0.7-0.7l0,0c1.1,3,1.6,6.5,2.1,9.5c0.9,4.4,1.7,9,2.7,13.5C1060.9,558.5,1060.9,559.2,1060.2,560z"/>
	<path class="st21" d="M1055.8,534.5c-0.2,0.2-0.5,0.5-0.7,0.7C1055.4,534.9,1055.6,534.7,1055.8,534.5z"/>
</g>
</svg>
