<?xml version="1.0" encoding="utf-8"?>
<!-- Generator: Adobe Illustrator 25.0.0, SVG Export Plug-In . SVG Version: 6.00 Build 0)  -->
<svg version="1.1" id="Calque_1" xmlns="http://www.w3.org/2000/svg" xmlns:xlink="http://www.w3.org/1999/xlink" x="0px" y="0px"
	 viewBox="0 0 1920 1080" style="enable-background:new 0 0 1920 1080;" xml:space="preserve">
<style type="text/css">
	.st0{fill:#431F4B;}
	.st1{fill:#8E8E8E;}
</style>
<rect y="0" class="st0" width="1920" height="1080"/>
<g>
	<path class="st1" d="M716,334.5c0-0.2-0.2,2-0.5,6.4c-0.6,8.9-0.9,17.7-0.9,26.6c0,1.1,0.2,3.1,0.5,6c0.3,2.9,0.5,6.4,0.5,10.5v2.1
		c0,2.1-0.6,3.1-1.9,3.1c-1.3,0-2.4-1.2-3.3-3.6c-2.2-5.5-4.4-8.9-6.6-10.2c-11.4,10-25.1,14.9-41,14.9c-23.2,0-42.5-8.1-57.7-24.3
		c-15.3-16.2-22.9-36.6-22.9-61.3c0-24.8,7-45.1,21-60.8c14-15.7,32-23.6,54.2-23.6c8.1,0,14.5,0.7,19.3,2
		c4.8,1.3,10.8,4.1,17.9,8.2c3.5,2.1,6.1,3.1,7.8,3.1c1.4,0,2.8-1.3,4-3.8c2.1-4.4,3.7-6.6,5-6.6c1.3,0,1.9,0.6,1.9,1.9
		c0,0.6-0.2,1.7-0.5,3.1c-1.7,7.6-2.6,21.8-2.6,42.7c0,3-0.2,4.7-0.7,5.2s-1.1,0.7-1.9,0.7c-1.6,0-2.6-1.5-3.1-4.5
		c-2.1-12.6-5-22-8.8-28.2c-7.7-12.6-19.9-19-36.5-19c-12.8,0-22.9,4.3-30.3,12.8c-13.4,15.3-20.2,37.8-20.2,67.3
		c0,26.4,5.5,46.9,16.6,61.4c9.6,12.6,22.4,19,38.4,19c8.2,0,15.7-2.1,22.5-6.2c6.8-4.1,12.1-9.8,15.8-17c3.7-7.2,6.6-15.8,8.7-26
		c0.8-3.8,1.8-5.7,3.1-5.7C715.2,331,716,332.2,716,334.5z"/>
	<path class="st1" d="M777.9,386.2c0,0.9-0.7,1.4-2.1,1.4h-2.4h-5h-6.2c-1.3,0-2.6,0-4,0c-1.3,0-2.1,0-2.6,0c-1.6,0-4.5,0-8.9,0
		c-4.3,0-7.6,0-9.8,0h-0.9c-2.7,0-4-0.4-4-1.2c0-1.1,1.7-1.7,5.2-1.8c4.7-0.3,7.2-0.9,7.5-1.7c0.2-0.8,0.4-4.2,0.4-10.3v-76.9
		c0-6.2-0.2-9.8-0.5-10.9c-0.3-1-1.5-1.6-3.6-1.8h-4.7h-2.4c-1.4,0-2.1-0.6-2.1-1.7c0-1.1,1-1.7,3.1-1.7c-0.2,0,0.3,0,1.4,0
		c1.1,0,2.8,0,5.2,0h17.1c0.9,0,2.4,0,4.3,0c1.9,0,3.6,0,5.2,0h5.9c2.5,0,3.8,0.6,3.8,1.9c0,0.9-2.7,1.5-8.1,1.7
		c-2.2,0-3.6,0.4-4,1.1c-0.5,0.7-0.7,2.9-0.7,6.5v89.4c0,1.6,0.6,2.6,1.8,3.1c1.2,0.5,4,0.9,8.4,1.2
		C776.9,384.7,777.9,385.3,777.9,386.2z"/>
	<path class="st1" d="M888.1,381.7c0,5.1-4.4,7.6-13.2,7.6c-8.5,0-15.4-3.2-20.8-9.7c-2.4-2.8-3.9-5.7-4.7-8.5
		c-0.8-2.8-1.7-9.5-2.8-20.1c-0.8-6.8-3-11.5-6.5-14.2c-3.5-2.7-9.6-4.2-18.3-4.5v48.8c-0.5,2.2,3.5,3.3,11.9,3.3
		c1.7,0,2.6,0.6,2.6,1.7c0,1.1-1.1,1.7-3.3,1.7c-1.7,0-3.4,0-5,0h-8.3c-3.5,0-7.7,0-12.6,0c-4.7,0-7.4,0-7.8,0h-4.5
		c-4.4,0-6.6-0.5-6.6-1.5c0-1.2,0.8-1.8,2.4-1.8c0.5,0,1.3,0,2.4,0h0.9c5.4,0,8.1-1.1,8.1-3.3v-93.6c0-1.7-0.4-2.9-1.3-3.4
		c-0.9-0.6-3.2-0.8-6.9-0.8c-3.7,0-5.6-0.6-5.6-1.9c0-1.1,1.1-1.7,3.3-1.7h1.7c2.5,0,10,0,22.5,0c5.2,0,9.5,0,12.8,0s5.9,0,7.8,0
		c10.6,0,19.1,2.2,25.5,6.5c6.4,4.3,9.6,10,9.6,17.1c0,7.7-3.4,14-10.2,18.8c-6.8,4.8-16.4,7.6-28.7,8.4
		c13.3,1.4,22.4,4.9,27.4,10.4c5,5.5,8.2,15.4,9.6,29.7c0.9,9.8,3.9,14.6,8.8,14.6c0.8,0,1.2-0.2,1.2-0.7c0-0.2-0.2-0.7-0.6-1.5
		c-0.4-0.8-0.6-1.5-0.6-2c0-2.9,1.6-4.4,4.7-4.4C886.4,376.7,888.1,378.4,888.1,381.7z M850.7,305c0-14.1-7-21.2-20.9-21.2
		c-3.6,0-5.8,0.4-6.7,1.1c-0.9,0.7-1.3,2.4-1.3,5.1v38.7C841,328.6,850.7,320.8,850.7,305z"/>
	<path class="st1" d="M982.2,362.2c0,0.2-0.1,1.2-0.4,3c-0.2,1.8-0.4,3.5-0.4,4.9v13.7c0,1.4,0.2,3,0.7,4.7l-39.6-0.7l-45.3,0.7
		c-3.3,0-5-0.6-5-1.9c0-1.4,0.9-2.1,2.8-2.1c5.1,0,8-0.4,8.9-1.1c0.9-0.7,1.3-3.3,1.3-7.7v-81.6c0-6.5-0.6-9.9-1.7-10.3
		c-1.1-0.4-3.9-0.6-8.3-0.6c-1.9,0-2.8-0.6-2.8-1.7c0-1.3,1-1.9,3.1-1.9h5.7c1.6,0,3.2,0,4.7,0h2.6h5.9c0.8,0,4.7,0,11.9,0
		c7.3,0,16,0,26.1,0h14c4.1,0,7.5,0,10.2,0v1.6l0.2,3.5c0.3,2.3,0.9,9.3,1.9,21c0.2,0.8,0.2,1.7,0.2,2.8c0,2-0.6,3-1.7,3
		c-1.4,0-2.4-1.6-3.1-4.7c-2.2-12-6.4-19-12.5-21.1c-3.5-1.1-11.6-1.7-24.5-1.7h-12v44.3h5.6c10,0,16.2-0.8,18.6-2.5
		c2.4-1.7,3.9-6.2,4.7-13.6c0.5-4.4,1.4-6.6,2.8-6.6c1.6,0,2.4,1.6,2.4,4.7c0,1.9-0.1,4.8-0.4,8.8c-0.2,4-0.4,7-0.4,9
		c0,10.3,0.2,17.3,0.5,21.1c0.1,1.3,0.2,2.3,0.2,3.1c0,2.5-0.8,3.8-2.3,3.8c-1.4,0-2.3-2-2.8-5.9c-0.9-8.5-2.5-13.6-4.7-15.3
		c-2.2-1.7-8.3-2.5-18.5-2.5h-5.8v51.2c23.1-0.2,36.7-0.8,40.8-1.9c6.3-1.7,10-9.3,11.1-22.8c0.2-2.4,1-3.6,2.6-3.6
		C981.4,355.6,982.2,357.8,982.2,362.2z M967.8,229.5l-21.6,22.7c-9.5,10-15,15-16.6,15c-0.9,0-1.4-0.4-1.4-1.2
		c0-0.2,0.2-0.6,0.5-1.4l1.4-3.3c1.3-3.2,3.4-8.2,6.4-15.2l7.6-16.6h7.6c0.8,0,2.1,0,4,0c2.1,0,4.7,0,7.8,0H967.8z"/>
	<path class="st1" d="M1073.5,305.9c0,8.7-3.5,15.7-10.6,21c-7.1,5.3-16.4,7.9-27.8,7.9c-1.7,0-4.9-0.2-9.4-0.7h-1.4V377
		c0,4.3,1,6.6,3.1,7c2.1,0.4,5.1,0.6,9,0.6c1.7,0,2.6,0.6,2.6,1.7c0,0.8-0.9,1.3-2.7,1.4c-1.8,0.2-8.1,0.2-18.8,0.2
		c-13.4,0-21.3-0.1-23.5-0.2c-2.2-0.1-3.3-0.7-3.3-1.6c0-1.2,0.6-1.7,1.9-1.5h3.6c3.6-0.3,5.8-0.5,6.4-0.6c0.6-0.1,1.1-0.4,1.4-0.8
		c0.3-0.5,0.5-3.2,0.5-8.1v-79.4c0-6.3-0.1-9.7-0.2-10.2c-0.5-1.4-3.1-2.1-7.7-2.1h-3.1c-1.8,0-2.7-0.6-2.7-1.9
		c0-0.8,0.9-1.3,2.6-1.4c1.7-0.2,7.7-0.2,17.8-0.2c20.3,0,32.7,0.4,37.3,1.2C1065.1,283.8,1073.5,292.1,1073.5,305.9z M1052.9,306
		c0-15.1-6.7-22.6-20-22.6c-3.9,0-6.3,0.3-7.3,1c-0.9,0.6-1.4,2.5-1.4,5.5v41C1043.3,330.7,1052.9,322.5,1052.9,306z"/>
	<path class="st1" d="M1129.2,386.2c0,0.9-0.7,1.4-2.1,1.4h-2.4h-5h-6.2c-1.3,0-2.6,0-4,0c-1.3,0-2.1,0-2.6,0c-1.6,0-4.5,0-8.9,0
		c-4.3,0-7.6,0-9.8,0h-0.9c-2.7,0-4-0.4-4-1.2c0-1.1,1.7-1.7,5.2-1.8c4.7-0.3,7.2-0.9,7.5-1.7c0.2-0.8,0.4-4.2,0.4-10.3v-76.9
		c0-6.2-0.2-9.8-0.5-10.9c-0.3-1-1.5-1.6-3.6-1.8h-4.7h-2.4c-1.4,0-2.1-0.6-2.1-1.7c0-1.1,1-1.7,3.1-1.7c-0.2,0,0.3,0,1.4,0
		c1.1,0,2.8,0,5.2,0h17.1c0.9,0,2.4,0,4.3,0c1.9,0,3.6,0,5.2,0h5.9c2.5,0,3.8,0.6,3.8,1.9c0,0.9-2.7,1.5-8.1,1.7
		c-2.2,0-3.6,0.4-4,1.1c-0.5,0.7-0.7,2.9-0.7,6.5v89.4c0,1.6,0.6,2.6,1.8,3.1c1.2,0.5,4,0.9,8.4,1.2
		C1128.2,384.7,1129.2,385.3,1129.2,386.2z"/>
	<path class="st1" d="M1134.4,385.7c3.9-0.3,7.1-0.9,9.5-1.8c2.4-0.9,4.2-2.2,5.5-3.9c1.3-1.7,2.1-4.1,2.4-7.1
		c0.3-3,0.5-6.8,0.5-11.4v-119c0-6.2-0.9-10.5-2.8-12.9c-1.9-2.4-6.4-3.7-13.5-3.7v-2.8l34.8-4.3v142.7c0,4.6,0.2,8.4,0.5,11.4
		c0.3,3,1.1,5.4,2.5,7.1c1.3,1.7,3.2,3,5.7,3.9c2.4,0.9,5.8,1.5,10.1,1.8v2.8c-4.6-0.3-9.3-0.6-14.1-0.7c-4.8-0.2-9.6-0.2-14.3-0.2
		c-4.6,0-9,0.1-13.4,0.2c-4.3,0.2-8.7,0.4-13.2,0.7V385.7z"/>
	<path class="st1" d="M603.4,491.8c0-1.7-0.1-3.1-0.1-4.1c-0.1-1.1-0.4-2-0.8-2.7c-0.4-0.7-1-1.2-1.8-1.5c-0.8-0.3-1.9-0.5-3.3-0.7
		v-0.7c1.2,0.1,2.4,0.1,3.6,0.2c1.2,0,2.4,0.1,3.6,0.1c1.6,0,3.2-0.1,4.8-0.2c1.6-0.2,3.3-0.2,5.1-0.2c1.7,0,3.4,0.2,5.3,0.5
		c1.8,0.4,3.5,1,5.1,1.8c1.6,0.9,2.8,2,3.9,3.4c1,1.4,1.6,3.2,1.6,5.4c0,1.8-0.6,3.4-1.7,4.9c-1.1,1.5-2.5,2.5-4.2,3v0.1
		c2.7,0.9,4.9,2.2,6.4,4c1.5,1.8,2.3,4.2,2.3,7.2c0,1.8-0.4,3.4-1.2,4.6c-0.8,1.2-1.8,2.2-3.2,2.9c-1.3,0.7-2.8,1.3-4.5,1.6
		c-1.7,0.3-3.4,0.4-5.1,0.4c-2.7,0-5.4-0.1-8.1-0.3c-2.6-0.2-5.3-0.3-8.1-0.3c-0.9,0-1.8,0-2.8,0.1c-0.9,0-1.9,0.1-2.8,0.2v-0.7
		c1.4-0.1,2.5-0.3,3.3-0.7c0.8-0.3,1.4-0.8,1.8-1.5c0.4-0.7,0.6-1.6,0.7-2.7c0.1-1.1,0.1-2.5,0.1-4.1V491.8z M608.7,499.3
		c1.1,0.6,2.2,0.9,3.3,1.1c1.1,0.2,2.2,0.3,3.4,0.3c2.5,0,4.7-0.7,6.4-2.1c1.7-1.4,2.5-3.4,2.5-6.1c0-1.4-0.3-2.6-0.8-3.6
		c-0.6-1.1-1.3-2-2.2-2.8c-0.9-0.8-2-1.4-3.2-1.8c-1.2-0.4-2.5-0.6-3.8-0.6c-1,0-1.9,0-2.8,0.1c-0.9,0.1-1.8,0.3-2.7,0.6V499.3z
		 M608.7,517.9c0.2,0.3,0.5,0.6,1.1,0.8c0.6,0.2,1.3,0.4,2,0.6c0.8,0.2,1.6,0.3,2.5,0.4c0.9,0.1,1.7,0.1,2.5,0.1
		c3.2,0,5.7-0.8,7.5-2.5c1.8-1.7,2.7-4.1,2.7-7.4c0-1.7-0.5-3.3-1.6-4.8c-1.1-1.5-2.3-2.7-3.7-3.6c-1,0.2-1.9,0.3-2.9,0.4
		c-1,0.1-1.9,0.2-2.9,0.2c-1.2,0-2.5-0.1-3.7-0.2c-1.2-0.1-2.4-0.4-3.6-0.9V517.9z"/>
	<path class="st1" d="M634.7,482.1c1.7,0.1,3.3,0.1,4.9,0.2c1.6,0,3.2,0.1,4.9,0.1c1.6,0,3.1,0,4.7-0.1c1.6,0,3.1-0.1,4.7-0.2v0.7
		c-0.5,0.1-1,0.2-1.6,0.4c-0.6,0.2-1.1,0.4-1.6,0.7c-0.5,0.3-0.9,0.6-1.2,1.1c-0.3,0.4-0.5,1-0.5,1.6c0,0.4,0.2,1,0.6,1.7
		c0.4,0.7,1,1.6,1.8,2.7l8.5,11.5l7-11c1-1.7,1.6-3.2,1.6-4.6c0-1.2-0.5-2.1-1.4-2.8c-1-0.7-2-1.1-3.2-1.2v-0.7
		c1.4,0.1,2.8,0.1,4.2,0.2c1.4,0,2.8,0.1,4.2,0.1c1.3,0,2.5,0,3.8-0.1c1.3,0,2.5-0.1,3.8-0.2v0.7c-1.4,0.3-2.7,0.8-3.8,1.5
		c-1.1,0.7-2.1,1.6-3,2.5c-0.9,0.9-1.7,1.9-2.4,3c-0.7,1-1.3,2-1.9,2.8l-8.2,11.9v8.8c0,1.5,0.1,2.7,0.4,3.5
		c0.2,0.9,0.6,1.6,1.2,2.1c0.5,0.5,1.3,0.9,2.2,1.1c0.9,0.2,2.1,0.4,3.5,0.5v0.7c-1.8-0.1-3.6-0.1-5.3-0.2c-1.8,0-3.5-0.1-5.3-0.1
		c-1.5,0-2.9,0-4.4,0.1c-1.5,0-2.9,0.1-4.4,0.2v-0.7c1.3-0.1,2.4-0.3,3.3-0.5c0.9-0.2,1.6-0.6,2.1-1.1c0.5-0.5,0.9-1.2,1.1-2.1
		c0.2-0.9,0.3-2.1,0.3-3.5v-9.4l-10.8-13.8c-0.6-0.7-1.1-1.4-1.7-2.2c-0.6-0.7-1.3-1.4-2-2.1c-0.7-0.7-1.6-1.3-2.5-1.8
		c-1-0.5-2.1-0.9-3.3-1.2V482.1z"/>
	<path class="st1" d="M714,521.3c-1.5-0.1-3-0.1-4.5-0.2c-1.5,0-3-0.1-4.5-0.1c-1.5,0-2.9,0-4.4,0.1c-1.5,0-3,0.1-4.5,0.2v-0.7
		c1.5-0.1,2.6-0.3,3.5-0.7c0.9-0.3,1.5-0.8,1.9-1.5c0.4-0.7,0.7-1.6,0.8-2.7c0.1-1.1,0.1-2.5,0.1-4.1v-19.9c0-1.7-0.1-3.1-0.1-4.1
		c-0.1-1.1-0.4-2-0.8-2.7c-0.4-0.7-1-1.2-1.9-1.5c-0.8-0.3-2-0.5-3.4-0.7v-0.7c1.3,0.1,2.6,0.1,3.9,0.2c1.3,0,2.6,0.1,3.9,0.1
		c1.9,0,3.8-0.1,5.6-0.3c1.8-0.2,3.7-0.3,5.6-0.3c1.5,0,3,0.3,4.6,0.8c1.6,0.5,3.1,1.3,4.4,2.3c1.4,1,2.5,2.2,3.3,3.7
		c0.9,1.5,1.3,3.1,1.3,4.9c0,1.9-0.4,3.5-1.3,4.8c-0.9,1.3-2,2.4-3.3,3.2c-1.3,0.8-2.8,1.4-4.4,1.8c-1.6,0.4-3.2,0.5-4.8,0.5
		c-1.2,0-2.4-0.1-3.7-0.2c-1.3-0.1-2.5-0.4-3.7-0.9v8.9c0,1.7,0,3.1,0.1,4.1c0.1,1.1,0.4,2,0.8,2.7c0.4,0.7,1,1.2,1.9,1.5
		c0.8,0.3,2,0.5,3.4,0.7V521.3z M707.8,500.6c1,0.5,1.9,0.9,3,1c1,0.2,2,0.3,3.1,0.3c1.2,0,2.4-0.2,3.5-0.6c1.1-0.4,2.1-0.9,3-1.6
		c0.8-0.7,1.5-1.6,2-2.6c0.5-1,0.7-2.2,0.7-3.5c0-1.6-0.2-3-0.7-4.2c-0.5-1.3-1.2-2.3-2.1-3.2c-0.9-0.9-1.9-1.6-3.1-2
		c-1.2-0.5-2.5-0.7-4-0.7c-0.7,0-1.6,0.1-2.5,0.1c-1,0.1-1.9,0.3-2.8,0.7V500.6z"/>
	<path class="st1" d="M745.2,518.8c0.4,0.1,0.8,0.2,1.3,0.2c0.5,0.1,1.1,0.2,1.7,0.2c0.6,0.1,1.2,0.1,1.8,0.2
		c0.6,0.1,1.2,0.1,1.8,0.1c2.4,0,4.5-0.2,6.4-0.6c1.9-0.4,3.6-1,5.2-1.9c1.6-0.9,3.1-2,4.4-3.3c1.4-1.4,2.8-3,4.2-4.9l0.7,0.5
		l-5.4,12c-0.7-0.1-1.4-0.1-2.1-0.2c-0.7,0-1.4-0.1-2.1-0.1h-22.4c-1.2,0-2.3,0-3.5,0.1c-1.2,0-2.3,0.1-3.5,0.2v-0.7
		c1.4-0.1,2.5-0.3,3.3-0.7c0.8-0.3,1.4-0.8,1.8-1.5c0.4-0.7,0.6-1.6,0.7-2.7c0.1-1.1,0.1-2.5,0.1-4.1v-19.9c0-1.7-0.1-3.1-0.1-4.1
		c-0.1-1.1-0.3-2-0.7-2.7c-0.4-0.7-1-1.2-1.8-1.5c-0.8-0.3-2-0.5-3.4-0.7v-0.7c1.4,0,2.6,0.1,3.8,0.1c1.2,0,2.5,0.1,3.8,0.1
		c1.3,0,2.7,0,4.1,0c1.5,0,3.1,0,4.9,0c2.8,0,5.6,0,8.3-0.1c2.8,0,5.6-0.1,8.5-0.2c0,0.4-0.1,0.9-0.1,1.3c0,0.4,0,0.9,0,1.3v2.4
		c0,0.9,0,1.8,0.1,2.7c0.1,0.9,0.2,1.9,0.2,3l-0.8,0.2c-0.5-1.9-1.2-3.5-2.1-4.7c-0.9-1.2-1.8-2.2-3-2.8c-1.1-0.7-2.4-1.1-3.7-1.4
		c-1.4-0.2-2.8-0.4-4.3-0.4c-2.8,0-5.6,0.1-8.3,0.4v14.9c0.8,0,1.6,0,2.3-0.1c0.7,0,1.5-0.1,2.3-0.1c2.7,0,4.9-0.5,6.5-1.6
		c1.6-1.1,2.6-3.1,3-6h0.7c0,1.4,0,2.9-0.1,4.3c0,1.4-0.1,2.8-0.1,4.2c0,1.4,0,2.9,0.1,4.3c0,1.4,0.1,2.9,0.1,4.3h-0.7
		c-0.4-1.7-0.8-3-1.3-4.1c-0.5-1.1-1.2-1.9-1.9-2.4c-0.8-0.6-1.7-0.9-2.9-1.1c-1.2-0.2-2.5-0.3-4.1-0.3h-3.8V518.8z"/>
	<path class="st1" d="M816.3,521.1h-10.7c-2.5-2.7-4.8-5.6-6.9-8.4c-2.1-2.9-4-5.9-5.7-9.2c-0.4,0-0.9,0-1.5-0.1
		c-0.6-0.1-1.3-0.2-1.9-0.3c-0.7-0.1-1.3-0.2-1.9-0.4c-0.6-0.1-1.1-0.3-1.5-0.4v9.3c0,1.7,0,3.1,0.1,4.1c0.1,1.1,0.4,2,0.8,2.7
		c0.4,0.7,1,1.2,1.9,1.5c0.8,0.3,2,0.5,3.5,0.7v0.7c-1.5-0.1-3-0.1-4.5-0.2c-1.5,0-3-0.1-4.5-0.1c-1.5,0-2.9,0-4.4,0.1
		c-1.4,0-2.9,0.1-4.3,0.2v-0.7c1.4-0.1,2.5-0.3,3.3-0.7c0.8-0.3,1.4-0.8,1.8-1.5c0.4-0.7,0.7-1.6,0.8-2.7c0.1-1.1,0.1-2.5,0.1-4.1
		v-19.9c0-1.7-0.1-3.1-0.1-4.1c-0.1-1.1-0.4-2-0.8-2.7c-0.4-0.7-1-1.2-1.8-1.5c-0.8-0.3-1.9-0.5-3.3-0.7v-0.7
		c1.3,0.1,2.5,0.1,3.8,0.2c1.3,0,2.5,0.1,3.8,0.1c0.6,0,1.3,0,2.1-0.1s1.7-0.1,2.7-0.2c0.9-0.1,1.9-0.1,2.8-0.2
		c1-0.1,1.8-0.1,2.6-0.1c1.7,0,3.5,0.2,5.2,0.7c1.8,0.4,3.4,1.1,4.8,2.1c1.4,1,2.6,2.2,3.5,3.6c0.9,1.5,1.4,3.2,1.4,5.2
		c0,1.4-0.2,2.6-0.7,3.7c-0.5,1.1-1.2,2-2,2.8c-0.8,0.8-1.8,1.5-3,2c-1.1,0.5-2.3,0.9-3.5,1.1c0.6,1,1.2,2,2,3.2
		c0.8,1.2,1.6,2.4,2.5,3.6c0.9,1.2,1.9,2.5,3,3.7c1.1,1.2,2.2,2.3,3.3,3.3c1.2,1,2.4,1.8,3.6,2.4c1.2,0.7,2.5,1,3.8,1.2V521.1z
		 M786.1,500.3c1.8,0.7,3.6,1,5.5,1c3.1,0,5.5-0.7,7.2-2.1c1.7-1.4,2.6-3.8,2.6-7c0-1.3-0.2-2.5-0.7-3.5c-0.5-1.1-1.2-2-2.1-2.7
		c-0.9-0.8-1.9-1.4-3-1.8c-1.1-0.4-2.3-0.6-3.5-0.6c-1,0-2,0-2.9,0.1c-1,0.1-1.9,0.3-2.8,0.5c-0.1,1.9-0.1,3.8-0.2,5.8
		c0,1.9-0.1,4.1-0.1,6.3V500.3z"/>
	<path class="st1" d="M859.4,521.1h-10.7c-2.5-2.7-4.8-5.6-6.9-8.4c-2.1-2.9-4-5.9-5.7-9.2c-0.4,0-0.9,0-1.5-0.1
		c-0.6-0.1-1.3-0.2-1.9-0.3c-0.7-0.1-1.3-0.2-1.9-0.4c-0.6-0.1-1.1-0.3-1.5-0.4v9.3c0,1.7,0,3.1,0.1,4.1c0.1,1.1,0.4,2,0.8,2.7
		c0.4,0.7,1,1.2,1.9,1.5c0.8,0.3,2,0.5,3.5,0.7v0.7c-1.5-0.1-3-0.1-4.5-0.2c-1.5,0-3-0.1-4.5-0.1c-1.5,0-2.9,0-4.4,0.1
		c-1.4,0-2.9,0.1-4.3,0.2v-0.7c1.4-0.1,2.5-0.3,3.3-0.7c0.8-0.3,1.4-0.8,1.8-1.5c0.4-0.7,0.7-1.6,0.8-2.7c0.1-1.1,0.1-2.5,0.1-4.1
		v-19.9c0-1.7,0-3.1-0.1-4.1c-0.1-1.1-0.4-2-0.8-2.7c-0.4-0.7-1-1.2-1.8-1.5c-0.8-0.3-1.9-0.5-3.3-0.7v-0.7c1.3,0.1,2.5,0.1,3.8,0.2
		c1.3,0,2.5,0.1,3.8,0.1c0.6,0,1.3,0,2.1-0.1c0.8-0.1,1.7-0.1,2.7-0.2c0.9-0.1,1.9-0.1,2.8-0.2c1-0.1,1.8-0.1,2.6-0.1
		c1.7,0,3.5,0.2,5.2,0.7c1.8,0.4,3.4,1.1,4.8,2.1c1.4,1,2.6,2.2,3.5,3.6c0.9,1.5,1.4,3.2,1.4,5.2c0,1.4-0.2,2.6-0.7,3.7
		c-0.5,1.1-1.2,2-2,2.8c-0.8,0.8-1.8,1.5-3,2c-1.1,0.5-2.3,0.9-3.5,1.1c0.6,1,1.2,2,2,3.2c0.8,1.2,1.6,2.4,2.5,3.6
		c0.9,1.2,1.9,2.5,3,3.7c1.1,1.2,2.2,2.3,3.3,3.3c1.2,1,2.4,1.8,3.6,2.4c1.2,0.7,2.5,1,3.8,1.2V521.1z M829.1,500.3
		c1.8,0.7,3.6,1,5.5,1c3.1,0,5.5-0.7,7.2-2.1c1.7-1.4,2.6-3.8,2.6-7c0-1.3-0.2-2.5-0.7-3.5c-0.5-1.1-1.2-2-2.1-2.7
		c-0.9-0.8-1.9-1.4-3-1.8c-1.1-0.4-2.3-0.6-3.5-0.6c-1,0-2,0-2.9,0.1c-1,0.1-1.9,0.3-2.8,0.5c-0.1,1.9-0.1,3.8-0.2,5.8
		c0,1.9-0.1,4.1-0.1,6.3V500.3z"/>
	<path class="st1" d="M861.2,501.7c0-3.2,0.6-6.1,1.8-8.6c1.2-2.5,2.8-4.7,4.7-6.5c2-1.8,4.3-3.1,7-4.1c2.7-0.9,5.5-1.4,8.6-1.4
		c3,0,5.9,0.5,8.6,1.4c2.7,0.9,5,2.3,7,4.1c2,1.8,3.6,3.9,4.7,6.5c1.2,2.5,1.8,5.4,1.8,8.6c0,3.2-0.6,6.1-1.8,8.6
		c-1.2,2.5-2.8,4.7-4.7,6.5c-2,1.8-4.3,3.1-7,4.1c-2.7,0.9-5.5,1.4-8.6,1.4c-3,0-5.9-0.5-8.6-1.4c-2.7-0.9-5-2.3-7-4.1
		c-2-1.8-3.6-3.9-4.7-6.5C861.8,507.8,861.2,504.9,861.2,501.7z M867.6,501.7c0,2.4,0.4,4.8,1.1,7c0.7,2.2,1.8,4.2,3.1,5.9
		c1.4,1.7,3,3,5,4.1c1.9,1,4.2,1.5,6.6,1.5c2.5,0,4.7-0.5,6.6-1.5c1.9-1,3.6-2.4,5-4.1c1.4-1.7,2.4-3.6,3.1-5.9
		c0.7-2.2,1.1-4.6,1.1-7c0-2.4-0.4-4.8-1.1-7c-0.7-2.2-1.7-4.2-3.1-5.9c-1.4-1.7-3-3-5-4.1c-1.9-1-4.2-1.5-6.6-1.5
		c-2.5,0-4.7,0.5-6.6,1.5c-1.9,1-3.6,2.4-5,4.1c-1.4,1.7-2.4,3.6-3.1,5.9C867.9,497,867.6,499.3,867.6,501.7z"/>
	<path class="st1" d="M909.1,482.1c1.4,0.1,2.7,0.1,4,0.2c1.3,0,2.7,0.1,4.4,0.1c0.9,0,1.7,0,2.6-0.1c0.8,0,1.7-0.1,2.6-0.2
		c0.5,0.7,1.4,1.8,2.6,3.3c1.2,1.5,2.6,3.1,4.1,5c1.5,1.9,3.2,3.9,4.9,6c1.7,2.1,3.4,4.2,5.1,6.2c1.6,2,3.1,3.9,4.5,5.6
		c1.4,1.7,2.5,3.2,3.2,4.3h0.1c0-1.2,0-2.4,0-3.5c0-1.2,0-2.4,0-3.5v-6.9c0-2.5-0.1-4.8-0.3-6.7c-0.2-1.9-0.5-3.5-1.1-4.7
		c-0.5-1.3-1.3-2.2-2.3-2.9c-1-0.7-2.3-1.1-3.8-1.2v-0.7c1.4,0.1,2.8,0.1,4.2,0.2c1.4,0,2.8,0.1,4.2,0.1c1.3,0,2.6,0,3.9-0.1
		c1.3,0,2.6-0.1,3.9-0.2v0.7c-2.5,0.3-4.2,1-5.2,2.2c-0.9,1.1-1.4,2.9-1.4,5.2v31.6h-2.2c-2.2-3.4-4.5-6.7-6.9-10
		c-2.4-3.2-4.9-6.3-7.3-9.2c-2.4-2.9-4.7-5.6-7-8.1c-2.2-2.5-4.3-4.7-6.1-6.7c0,1-0.1,2-0.1,3c0,1,0,2,0,3v10.4
		c0,3.5,0.1,6.3,0.2,8.4c0.1,2,0.5,3.6,1,4.7c0.5,1.1,1.3,1.8,2.4,2.2c1.1,0.4,2.5,0.7,4.4,0.9v0.7c-2-0.1-4-0.1-5.9-0.2
		c-1.9,0-3.9-0.1-5.9-0.1c-1.2,0-2.3,0-3.4,0.1c-1.1,0-2.2,0.1-3.4,0.2v-0.7c1.4-0.2,2.5-0.4,3.5-0.6c1-0.2,1.8-0.5,2.5-0.9
		c0.7-0.4,1.2-1,1.5-1.8c0.3-0.8,0.5-1.9,0.6-3.3l0.7-27.4c-1.3-1-2.7-1.8-4.2-2.4c-1.5-0.6-3.1-1.1-4.7-1.5V482.1z"/>
	<path class="st1" d="M1015.6,521.1h-10.7c-2.5-2.7-4.8-5.6-6.9-8.4c-2.1-2.9-4-5.9-5.7-9.2c-0.4,0-0.9,0-1.5-0.1
		c-0.6-0.1-1.3-0.2-1.9-0.3c-0.7-0.1-1.3-0.2-1.9-0.4c-0.6-0.1-1.1-0.3-1.5-0.4v9.3c0,1.7,0,3.1,0.1,4.1c0.1,1.1,0.4,2,0.8,2.7
		c0.4,0.7,1,1.2,1.9,1.5c0.8,0.3,2,0.5,3.5,0.7v0.7c-1.5-0.1-3-0.1-4.5-0.2c-1.5,0-3-0.1-4.5-0.1c-1.5,0-2.9,0-4.4,0.1
		c-1.4,0-2.9,0.1-4.3,0.2v-0.7c1.4-0.1,2.5-0.3,3.3-0.7c0.8-0.3,1.4-0.8,1.8-1.5c0.4-0.7,0.7-1.6,0.8-2.7c0.1-1.1,0.1-2.5,0.1-4.1
		v-19.9c0-1.7,0-3.1-0.1-4.1c-0.1-1.1-0.4-2-0.8-2.7c-0.4-0.7-1-1.2-1.8-1.5c-0.8-0.3-1.9-0.5-3.3-0.7v-0.7c1.3,0.1,2.5,0.1,3.8,0.2
		c1.3,0,2.5,0.1,3.8,0.1c0.6,0,1.3,0,2.1-0.1c0.8-0.1,1.7-0.1,2.7-0.2c0.9-0.1,1.9-0.1,2.8-0.2c1-0.1,1.8-0.1,2.6-0.1
		c1.7,0,3.5,0.2,5.2,0.7c1.8,0.4,3.4,1.1,4.8,2.1c1.4,1,2.6,2.2,3.5,3.6c0.9,1.5,1.4,3.2,1.4,5.2c0,1.4-0.2,2.6-0.7,3.7
		c-0.5,1.1-1.2,2-2,2.8c-0.8,0.8-1.8,1.5-3,2c-1.1,0.5-2.3,0.9-3.5,1.1c0.6,1,1.2,2,2,3.2c0.8,1.2,1.6,2.4,2.5,3.6
		c0.9,1.2,1.9,2.5,3,3.7c1.1,1.2,2.2,2.3,3.3,3.3c1.2,1,2.4,1.8,3.6,2.4c1.2,0.7,2.5,1,3.8,1.2V521.1z M985.4,500.3
		c1.8,0.7,3.6,1,5.5,1c3.1,0,5.5-0.7,7.2-2.1c1.7-1.4,2.6-3.8,2.6-7c0-1.3-0.2-2.5-0.7-3.5c-0.5-1.1-1.2-2-2.1-2.7
		c-0.9-0.8-1.9-1.4-3-1.8c-1.1-0.4-2.3-0.6-3.5-0.6c-1,0-2,0-2.9,0.1c-1,0.1-1.9,0.3-2.8,0.5c-0.1,1.9-0.1,3.8-0.2,5.8
		c0,1.9-0.1,4.1-0.1,6.3V500.3z"/>
	<path class="st1" d="M1017.5,520.6c1.4-0.1,2.5-0.3,3.3-0.7c0.8-0.3,1.4-0.8,1.8-1.5c0.4-0.7,0.7-1.6,0.8-2.7
		c0.1-1.1,0.1-2.5,0.1-4.1v-19.9c0-1.7-0.1-3.1-0.1-4.1c-0.1-1.1-0.4-2-0.8-2.7c-0.4-0.7-1-1.2-1.9-1.5c-0.8-0.3-2-0.5-3.4-0.7v-0.7
		c1.7,0.1,3.3,0.1,4.9,0.2c1.6,0,3.2,0.1,4.9,0.1c1.3,0,2.6,0,3.9-0.1c1.3,0,2.6-0.1,3.9-0.2v0.7c-1.4,0.1-2.5,0.3-3.3,0.7
		c-0.8,0.3-1.4,0.8-1.8,1.5c-0.4,0.7-0.6,1.6-0.7,2.7c-0.1,1.1-0.1,2.5-0.1,4.1v19.9c0,1.7,0,3.1,0.1,4.1c0.1,1.1,0.4,2,0.8,2.7
		c0.4,0.7,1,1.2,1.9,1.5c0.8,0.3,2,0.5,3.5,0.7v0.7c-1.5-0.1-3-0.1-4.5-0.2c-1.5,0-3-0.1-4.5-0.1c-1.5,0-2.9,0-4.4,0.1
		c-1.4,0-2.9,0.1-4.3,0.2V520.6z"/>
	<path class="st1" d="M1076.3,494.9c-0.8-1.5-1.6-3-2.4-4.4s-1.8-2.7-3-3.8c-1.1-1.1-2.4-2-3.8-2.7c-1.5-0.7-3.2-1-5.1-1
		c-2.3,0-4.3,0.6-6.1,1.7c-1.8,1.1-3.3,2.6-4.5,4.4c-1.3,1.8-2.2,3.8-2.9,6c-0.7,2.2-1,4.5-1,6.7c0,2.5,0.3,4.9,1,7.1
		c0.7,2.2,1.6,4.2,2.9,5.9c1.3,1.7,2.8,3,4.5,4c1.8,1,3.8,1.5,6.1,1.5c1.9,0,3.8-0.2,5.6-0.6c1.8-0.4,3.5-1.1,5.1-2.3v-7.7
		c0-2.7-2-4.1-6.1-4.2v-0.7c1.5,0,2.9,0.1,4.2,0.1s2.7,0.1,4.3,0.1c1.5,0,2.9,0,4.4-0.1c1.5,0,2.9-0.1,4.4-0.2v0.7
		c-0.8,0-1.6,0.1-2.3,0.3c-0.7,0.2-1.3,0.4-1.8,0.8c-0.5,0.4-0.9,0.8-1.2,1.5c-0.3,0.6-0.4,1.4-0.4,2.4v8.3
		c-2.7,0.9-5.5,1.8-8.1,2.5s-5.3,1.2-7.8,1.2c-2.7,0-5.3-0.4-7.8-1.3c-2.5-0.9-4.8-2.2-6.8-4c-2-1.7-3.6-3.9-4.8-6.4
		c-1.2-2.5-1.8-5.5-1.8-8.8c0-2.9,0.6-5.6,1.8-8.1c1.2-2.5,2.8-4.7,4.8-6.5c2-1.8,4.3-3.3,6.8-4.3c2.5-1.1,5.1-1.6,7.8-1.6
		c1.6,0,3.1,0.1,4.4,0.2c1.3,0.1,2.5,0.3,3.6,0.5c1.1,0.2,2,0.4,2.9,0.7c0.9,0.2,1.7,0.5,2.5,0.7c0,0.6,0,1.5,0.1,2.5
		c0.1,1.1,0.2,2.1,0.4,3.3c0.2,1.1,0.3,2.2,0.5,3.3c0.2,1.1,0.3,1.9,0.4,2.5H1076.3z"/>
	<path class="st1" d="M1087.1,501.7c0-3.2,0.6-6.1,1.8-8.6c1.2-2.5,2.8-4.7,4.7-6.5c2-1.8,4.3-3.1,7-4.1c2.7-0.9,5.5-1.4,8.6-1.4
		c3,0,5.9,0.5,8.6,1.4c2.7,0.9,5,2.3,7,4.1c2,1.8,3.6,3.9,4.7,6.5c1.2,2.5,1.8,5.4,1.8,8.6c0,3.2-0.6,6.1-1.8,8.6
		c-1.2,2.5-2.8,4.7-4.7,6.5c-2,1.8-4.3,3.1-7,4.1c-2.7,0.9-5.5,1.4-8.6,1.4c-3,0-5.9-0.5-8.6-1.4c-2.7-0.9-5-2.3-7-4.1
		c-2-1.8-3.6-3.9-4.7-6.5C1087.7,507.8,1087.1,504.9,1087.1,501.7z M1093.4,501.7c0,2.4,0.4,4.8,1.1,7c0.7,2.2,1.7,4.2,3.1,5.9
		c1.4,1.7,3,3,5,4.1c1.9,1,4.2,1.5,6.6,1.5c2.5,0,4.7-0.5,6.6-1.5c1.9-1,3.6-2.4,5-4.1c1.4-1.7,2.4-3.6,3.1-5.9
		c0.7-2.2,1.1-4.6,1.1-7c0-2.4-0.4-4.8-1.1-7c-0.7-2.2-1.7-4.2-3.1-5.9c-1.4-1.7-3-3-5-4.1c-1.9-1-4.2-1.5-6.6-1.5
		c-2.5,0-4.7,0.5-6.6,1.5c-1.9,1-3.6,2.4-5,4.1c-1.4,1.7-2.4,3.6-3.1,5.9C1093.8,497,1093.4,499.3,1093.4,501.7z"/>
	<path class="st1" d="M1144.5,520.6c1.4-0.1,2.5-0.3,3.3-0.7c0.8-0.3,1.4-0.8,1.8-1.5c0.4-0.7,0.7-1.6,0.8-2.7
		c0.1-1.1,0.2-2.5,0.2-4.1V484c-2.1,0-3.9,0.1-5.3,0.2c-1.4,0.2-2.6,0.6-3.7,1.2c-1,0.7-1.9,1.7-2.7,3c-0.8,1.4-1.5,3.2-2.3,5.5
		l-0.8-0.2l0.8-11.7c1.7,0.1,3.3,0.1,5,0.2c1.6,0,3.3,0.1,5,0.1h14c1.6,0,3.2,0,4.7-0.1c1.6,0,3.1-0.1,4.7-0.2l0.8,11.7l-0.8,0.2
		c-0.8-2.3-1.5-4.2-2.3-5.5c-0.8-1.4-1.7-2.4-2.7-3c-1-0.7-2.3-1.1-3.7-1.2c-1.5-0.2-3.2-0.2-5.4-0.2v27.7c0,1.7,0,3.1,0.1,4.1
		c0.1,1.1,0.4,2,0.8,2.7c0.4,0.7,1,1.2,1.9,1.5c0.8,0.3,2,0.5,3.5,0.7v0.7c-1.5-0.1-3-0.1-4.5-0.2c-1.5,0-3-0.1-4.5-0.1
		c-1.5,0-2.9,0-4.4,0.1c-1.4,0-2.9,0.1-4.3,0.2V520.6z"/>
	<path class="st1" d="M815,615.3c-1.5-0.1-3-0.1-4.5-0.2c-1.5,0-3-0.1-4.5-0.1c-1.5,0-2.9,0-4.4,0.1c-1.5,0-3,0.1-4.5,0.2v-0.7
		c1.5-0.1,2.6-0.3,3.5-0.7c0.9-0.3,1.5-0.8,1.9-1.5c0.4-0.7,0.7-1.6,0.8-2.7c0.1-1.1,0.1-2.5,0.1-4.1v-19.9c0-1.7,0-3.1-0.1-4.1
		c-0.1-1.1-0.4-2-0.8-2.7c-0.4-0.7-1-1.2-1.9-1.5c-0.8-0.3-2-0.5-3.4-0.7V576c1.3,0.1,2.6,0.1,3.9,0.2c1.3,0,2.6,0.1,3.9,0.1
		c1.9,0,3.8-0.1,5.6-0.3c1.8-0.2,3.7-0.3,5.6-0.3c1.5,0,3,0.3,4.6,0.8c1.6,0.5,3.1,1.3,4.4,2.3c1.4,1,2.5,2.2,3.3,3.7
		c0.9,1.5,1.3,3.1,1.3,4.9c0,1.9-0.4,3.5-1.3,4.8c-0.9,1.3-2,2.4-3.3,3.2s-2.8,1.4-4.4,1.8c-1.6,0.4-3.2,0.5-4.8,0.5
		c-1.2,0-2.4-0.1-3.7-0.2c-1.3-0.1-2.5-0.4-3.7-0.9v8.9c0,1.7,0,3.1,0.1,4.1c0.1,1.1,0.4,2,0.8,2.7c0.4,0.7,1,1.2,1.9,1.5
		c0.8,0.3,2,0.5,3.4,0.7V615.3z M808.8,594.5c1,0.5,1.9,0.9,3,1c1,0.2,2,0.3,3.1,0.3c1.2,0,2.4-0.2,3.5-0.6c1.1-0.4,2.1-0.9,3-1.6
		c0.8-0.7,1.5-1.6,2-2.6c0.5-1,0.7-2.2,0.7-3.5c0-1.6-0.2-3-0.7-4.2c-0.5-1.3-1.2-2.3-2.1-3.2c-0.9-0.9-1.9-1.6-3.1-2
		c-1.2-0.5-2.5-0.7-4-0.7c-0.7,0-1.6,0.1-2.5,0.1c-1,0.1-1.9,0.3-2.8,0.7V594.5z"/>
	<path class="st1" d="M842.2,597.8l-3.9,10.8c-0.1,0.3-0.2,0.6-0.3,0.8c-0.1,0.2-0.1,0.5-0.1,0.8c0,0.7,0.2,1.3,0.6,1.8
		c0.4,0.5,0.9,0.9,1.5,1.3c0.6,0.3,1.2,0.6,1.8,0.8c0.6,0.2,1.2,0.3,1.6,0.4v0.7c-1.2-0.1-2.4-0.1-3.6-0.2c-1.2,0-2.4-0.1-3.6-0.1
		c-1.2,0-2.4,0-3.5,0.1c-1.1,0-2.3,0.1-3.6,0.2v-0.7c1.2-0.3,2.3-0.7,3.1-1.3c0.8-0.6,1.5-1.3,2.1-2.1c0.6-0.8,1-1.7,1.5-2.6
		c0.4-1,0.8-1.9,1.2-3l10.3-25.3c0.1-0.3,0.2-0.5,0.3-0.8c0.1-0.2,0.1-0.5,0.1-0.7c0-0.2-0.1-0.5-0.2-0.9c-0.1-0.4-0.3-0.8-0.5-1.1
		c1-0.2,1.9-0.5,2.7-0.8c0.8-0.3,1.6-0.7,2.5-1l12.4,34.1c0.6,1.6,1.3,2.8,2.3,3.7c1,0.9,2.5,1.5,4.4,1.7v0.7
		c-1.6-0.1-3.2-0.1-4.7-0.2c-1.5,0-3.1-0.1-4.8-0.1c-1.1,0-2,0-2.8,0c-0.8,0-1.5,0-2.1,0c-0.6,0-1.2,0-1.8,0.1
		c-0.6,0-1.2,0.1-1.9,0.1v-0.7c1.7-0.2,3.1-0.6,4.2-1.3c1.1-0.7,1.7-1.5,1.7-2.7c0-0.3-0.1-0.6-0.2-1c-0.1-0.3-0.2-0.6-0.3-0.9
		l-3.9-11H842.2z M848.6,580.9l-5.8,15.1H854L848.6,580.9z"/>
	<path class="st1" d="M915.2,615h-10.7c-2.5-2.7-4.8-5.6-6.9-8.4c-2.1-2.9-4-5.9-5.7-9.2c-0.4,0-0.9,0-1.5-0.1
		c-0.6-0.1-1.3-0.2-1.9-0.3s-1.3-0.2-1.9-0.4c-0.6-0.1-1.1-0.3-1.5-0.4v9.3c0,1.7,0,3.1,0.1,4.1c0.1,1.1,0.4,2,0.8,2.7
		c0.4,0.7,1,1.2,1.9,1.5c0.8,0.3,2,0.5,3.5,0.7v0.7c-1.5-0.1-3-0.1-4.5-0.2c-1.5,0-3-0.1-4.5-0.1c-1.5,0-2.9,0-4.4,0.1
		c-1.4,0-2.9,0.1-4.3,0.2v-0.7c1.4-0.1,2.5-0.3,3.3-0.7c0.8-0.3,1.4-0.8,1.8-1.5c0.4-0.7,0.7-1.6,0.8-2.7c0.1-1.1,0.1-2.5,0.1-4.1
		v-19.9c0-1.7,0-3.1-0.1-4.1c-0.1-1.1-0.4-2-0.8-2.7c-0.4-0.7-1-1.2-1.8-1.5c-0.8-0.3-1.9-0.5-3.3-0.7V576c1.3,0.1,2.5,0.1,3.8,0.2
		c1.3,0,2.5,0.1,3.8,0.1c0.6,0,1.3,0,2.1-0.1c0.8-0.1,1.7-0.1,2.7-0.2c0.9-0.1,1.9-0.1,2.8-0.2c1-0.1,1.8-0.1,2.6-0.1
		c1.7,0,3.5,0.2,5.2,0.7c1.8,0.4,3.4,1.1,4.8,2.1c1.4,1,2.6,2.2,3.5,3.6c0.9,1.5,1.4,3.2,1.4,5.2c0,1.4-0.2,2.6-0.7,3.7
		c-0.5,1.1-1.2,2-2,2.8c-0.8,0.8-1.8,1.5-3,2c-1.1,0.5-2.3,0.9-3.5,1.1c0.6,1,1.2,2,2,3.2c0.8,1.2,1.6,2.4,2.5,3.6
		c0.9,1.2,1.9,2.5,3,3.7c1.1,1.2,2.2,2.3,3.3,3.3c1.2,1,2.4,1.8,3.6,2.4c1.2,0.7,2.5,1,3.8,1.2V615z M884.9,594.3
		c1.8,0.7,3.6,1,5.5,1c3.1,0,5.5-0.7,7.2-2.1c1.7-1.4,2.6-3.8,2.6-7c0-1.3-0.2-2.5-0.7-3.5c-0.5-1.1-1.2-2-2.1-2.7
		c-0.9-0.8-1.9-1.4-3-1.8c-1.1-0.4-2.3-0.6-3.5-0.6c-1,0-2,0-2.9,0.1c-1,0.1-1.9,0.3-2.8,0.5c-0.1,1.9-0.1,3.8-0.2,5.8
		c0,1.9-0.1,4.1-0.1,6.3V594.3z"/>
	<path class="st1" d="M917,614.6c1.4-0.1,2.5-0.3,3.3-0.7c0.8-0.3,1.4-0.8,1.8-1.5c0.4-0.7,0.7-1.6,0.8-2.7c0.1-1.1,0.1-2.5,0.1-4.1
		v-19.9c0-1.7-0.1-3.1-0.1-4.1c-0.1-1.1-0.4-2-0.8-2.7c-0.4-0.7-1-1.2-1.9-1.5c-0.8-0.3-2-0.5-3.4-0.7V576c1.7,0.1,3.3,0.1,4.9,0.2
		c1.6,0,3.2,0.1,4.9,0.1c1.3,0,2.6,0,3.9-0.1c1.3,0,2.6-0.1,3.9-0.2v0.7c-1.4,0.1-2.5,0.3-3.3,0.7c-0.8,0.3-1.4,0.8-1.8,1.5
		c-0.4,0.7-0.6,1.6-0.7,2.7c-0.1,1.1-0.1,2.5-0.1,4.1v19.9c0,1.7,0,3.1,0.1,4.1c0.1,1.1,0.4,2,0.8,2.7c0.4,0.7,1,1.2,1.9,1.5
		c0.8,0.3,2,0.5,3.5,0.7v0.7c-1.5-0.1-3-0.1-4.5-0.2c-1.5,0-3-0.1-4.5-0.1c-1.5,0-2.9,0-4.4,0.1c-1.4,0-2.9,0.1-4.3,0.2V614.6z"/>
	<path class="st1" d="M966.7,587.4c-0.5-1.3-1.2-2.5-2-3.8c-0.8-1.3-1.8-2.4-2.8-3.3c-1.1-1-2.3-1.8-3.6-2.4
		c-1.3-0.6-2.7-0.9-4.3-0.9c-2.3,0-4.1,0.4-5.6,1.3c-1.5,0.8-2.2,2.3-2.2,4.5c0,1.3,0.3,2.4,1,3.3c0.7,0.9,1.5,1.8,2.6,2.5
		c1.1,0.7,2.3,1.4,3.7,2c1.4,0.6,2.8,1.2,4.3,1.8c1.5,0.6,2.9,1.3,4.3,2c1.4,0.7,2.6,1.6,3.7,2.6c1.1,1,2,2.1,2.6,3.5
		c0.7,1.3,1,2.9,1,4.7c0,1.9-0.4,3.6-1.1,5c-0.7,1.4-1.7,2.6-2.9,3.5c-1.2,0.9-2.6,1.6-4.2,2c-1.6,0.4-3.3,0.7-5.2,0.7
		c-1,0-2-0.1-3.1-0.3c-1.1-0.2-2.1-0.4-3.1-0.6c-1-0.2-1.9-0.4-2.7-0.6c-0.8-0.2-1.5-0.3-1.9-0.3c-0.4,0-0.9,0.1-1.3,0.2
		c-0.4,0.1-0.8,0.3-1.3,0.4c-0.4-2.3-0.8-4.5-1.3-6.6c-0.5-2.2-1-4.4-1.5-6.6l0.8-0.4c0.7,1.4,1.6,2.8,2.6,4.3
		c1,1.5,2.2,2.9,3.4,4.1c1.3,1.2,2.7,2.3,4.2,3.1s3.2,1.2,5,1.2c1.2,0,2.3-0.1,3.3-0.4c1.1-0.3,2-0.7,2.8-1.2
		c0.8-0.6,1.5-1.3,1.9-2.2c0.5-0.9,0.7-2,0.7-3.3c0-1.9-0.6-3.4-1.7-4.7c-1.2-1.3-2.6-2.3-4.3-3.3c-1.7-0.9-3.6-1.8-5.6-2.6
		c-2-0.8-3.9-1.7-5.6-2.7c-1.7-1-3.1-2.2-4.3-3.5c-1.2-1.3-1.7-3.1-1.7-5.1c0-1.5,0.3-3,0.9-4.2c0.6-1.3,1.4-2.4,2.4-3.2
		c1-0.9,2.2-1.6,3.5-2.1s2.8-0.7,4.3-0.7c1.5,0,2.8,0.1,4,0.3c1.2,0.2,2.3,0.4,3.4,0.7c1.2,0.2,2.3,0.5,3.4,0.7
		c1.1,0.2,2.3,0.3,3.6,0.3c0,1.8,0,3.5,0.1,5.2c0.1,1.7,0.2,3.4,0.4,5.1H966.7z"/>
</g>
<g>
	<path class="st1" d="M1393.6,642.9c0.4-1.5,0.7-2.5,1-3.5c1.8-5.9,5.3-10.4,11-12.6c8.1-3.1,13.9-8.7,18.5-15.8
		c0.7-1.1,1.5-2,2.9-1.2c1.4,0.7,1.3,1.9,0.9,3c-0.9,2.6-0.5,5.1,0.4,7.5c1.3,3.3,2.8,6.6,4.1,9.8c0.9,2.2,1.8,4.6,2.3,6.9
		c1.2,5.3-0.3,10.1-4.1,13.9c-2.8,2.9-3.3,6.3-3.6,10c4.2,0.3,8.3,0.7,12.3,1c0.4,0,0.9-0.3,1.1-0.7c4.3-5.6,8.7-11.1,12.9-16.8
		c3.7-5,5.5-10.7,5.4-17c-0.1-8.2,3-11.6,11.3-12.6c13.6-1.7,24.5,9.3,22.8,22.9c-0.2,1.5-1,3.1-2,4.2c-1.5,1.6-3.3,3-5.2,4.2
		c-4.5,2.8-7.6,6.7-9.4,11.5c-1.2,3.2-2.2,6.4-3.4,9.7c0.6,0.3,1.1,0.5,1.5,0.7c1.9,1,3.9,1.8,5.8,2.9c4,2.4,5.9,5.6,4.2,10.9
		c-3.4,10.9-4.3,22.1-5.3,33.4c-0.7,7-1.7,13.9-4.3,20.5c-4.5,11.1-12.2,19.3-23.1,24.4c-1.2,0.6-2.5,1.1-3.2,1.5
		c-0.5,2.9-0.9,5.6-1.3,8.2c3.7,0.7,7.8,1.5,11.8,2.4c2.7,0.6,4.6,2.2,4.4,3.8c-0.3,2.3-2.3,3-4.2,3.6c-7.5,2-15.1,3.2-22.9,3.3
		c-15.3,0.2-30.5-0.8-45.5-4.3c-4.4-1-8.8-2-13.2-3.1c-3-0.8-5.6-2.5-7.5-4.9c-1-1.2-1.7-2.9-1.8-4.5c-0.1-1.6-0.6-2.4-2-3
		c-14.1-6.6-22.1-18.1-25.5-32.9c-1.9-8.4-3.1-17-4.3-25.6c-1.1-7.7-2.4-15.3-6.4-22.3c-2.3-4-1.4-7.5,2.4-10.2
		c4.5-3.3,9.8-4.7,15.1-6c1.5-0.4,2.9-0.7,4.6-1.1c-1.2-5.1-0.3-10,1-14.9c1.9-7.1,1-14-1.1-20.9c-0.8-2.6-1.8-5.2-2.6-7.8
		c-0.4-1.2-0.1-2.3,1-2.9c1.2-0.6,2.1,0,2.7,1c2.3,3.8,5.9,6,10,7.2c4.6,1.3,9.4,2.2,13.9,3.6c3.2,1,6.4,2.3,9.3,3.9
		C1389.6,636,1391.9,639,1393.6,642.9z M1477.4,686.7c-3,1-6,2.2-9,3c-14.4,4-29.2,5.3-44.1,6c-14,0.7-27.9,0.6-41.9-0.4
		c-11.3-0.8-22.5-2-33.5-4.6c-4.2-1-8.4-2.5-12.6-3.7c0,0,0,0.2,0,0.3c2.5,6.1,3.3,12.6,4,19.1c1,8.8,2.1,17.5,4.6,25.9
		c3.5,11.7,9.9,21,21.3,26.3c3,1.4,6.2,2.8,9.4,3.8c19.3,5.9,38.6,5.9,58,0.5c7.9-2.2,15.3-5.6,21.8-10.5
		c10.2-7.7,14.7-18.4,16.6-30.5c1.2-8.3,2.1-16.6,3.3-24.9C1475.9,693.6,1476.7,690.2,1477.4,686.7z M1462.2,686.9
		c0.1-1,0.1-1.8,0.2-2.6c1.9-12,5.6-23.3,11.8-33.8c2.3-3.9,5.1-7.3,9-9.7c4.3-2.7,5.3-5.3,4.1-10.3c-2.1-9.2-11.4-13.9-20.6-10.5
		c-2.4,0.9-3.9,2.4-3.9,5.1c0,1.9-0.1,3.8-0.2,5.7c0,3.5-0.9,6.9-2.6,9.9c-1.7,3-3.5,5.9-5.6,8.7c-10.4,13.6-20.8,27-31.3,40.5
		c-0.3,0.4-0.7,0.9-1.2,1.7C1435.7,691,1449,689.7,1462.2,686.9z M1394,689c-5.8-5.4-9-12.1-12-19.1c-1-2.4-2.1-4.8-3.4-7.1
		c-1.8-3.3-4.3-5.8-7.8-7.2c-1.3-0.5-2.5-1.2-1.9-2.9c0.5-1.4,1.9-1.7,3.6-1c3,1.2,5.5,3.3,7.5,5.8c3.4,4.2,5.4,9.2,7.5,14.1
		c2,4.9,4.8,9.1,8.5,12.8c0.9,0.9,1.8,1.6,2.6,2.3c1.4-4,2.6-7.9,4-11.8c2-5.4,0.9-9.9-3.5-13.6c-0.6-0.5-1.1-1-1.8-1.5
		c-3-2.3-4.9-5.4-5.9-9.1c-0.4-1.5-0.8-3-1.1-4.5c-1.1-4.4-3.7-7.7-7.8-9.6c-2.3-1.1-4.7-2-7.1-2.7c-6.5-1.9-13.4-2.5-19.6-6.3
		c0.2,1,0.4,1.6,0.5,2.2c1.6,5.9,2.3,11.8,1.2,17.8c-0.5,3.1-1.4,6.3-1.9,9.4c-0.5,3.2-0.7,6.6,1,9.6c2,3.4,4.3,6.7,6.5,10
		c2.3,3.3,5,6.2,8.8,7.8C1379.1,687.5,1386.6,688.1,1394,689z M1423.3,618.9c-4.1,5.5-9.9,8.8-16,11.7c-6.2,2.9-9.3,8.1-10.4,14.8
		c-0.8,5.2-0.1,9.6,4.7,12.8c1.4,0.9,2.5,2.3,3.7,3.4c1.7-3.2,3.3-6.3,5-9.5c2.2-4.1,4.2-8.3,3-13.2c-0.1-0.6,0.8-2,1.3-2
		c0.8,0,1.8,0.6,2.3,1.3c0.5,0.7,0.6,1.8,0.7,2.7c0.6,4.7-1.2,8.8-3.2,12.7c-1.7,3.2-3.5,6.5-5,9.8c-1.1,2.4-1.3,5.1-0.8,7.8
		c2.9-1,5.5-1.9,8.2-2.8c4.2-1.4,6.6-4.1,6.5-8.7c-0.1-4.6,1.6-8.3,4.6-11.6c3.2-3.4,3.8-7.4,2.5-11.8c-0.4-1.5-1-2.9-1.5-4.4
		C1427,627.7,1425.2,623.5,1423.3,618.9z M1403.1,692c4,0,8,0,11.9,0c0.8,0,1.8-0.6,2.3-1.2c6.1-7.8,12.2-15.7,18.2-23.5
		c0.3-0.4,0.5-0.8,0.9-1.3c-3.3-0.3-6.3-0.6-9.4-0.7c-0.4,0-1.1,0.4-1.3,0.8c-1.4,2.8-3.7,4.5-6.5,5.5c-2.1,0.9-4.3,1.6-6.6,2.3
		c-4.4,1.4-7.7,3.7-8.7,8.6C1403.4,685.5,1402.2,688.5,1403.1,692z M1379.3,691.2c0-0.2,0.1-0.4,0.1-0.6c-5.7-1.7-10.8-4.1-15.4-7.9
		c-4.6-3.7-8.1-8.3-10.8-13.6c-6.1,1.3-12,2.6-17.3,5.6c-4.4,2.5-4.4,4.9,0.1,7.1c3.2,1.6,6.7,2.9,10.1,3.9c9.7,2.8,19.6,4,29.6,5
		C1377,691,1378.1,691.1,1379.3,691.2z M1372.1,766c1.1,3.7,3.7,5.3,6.7,6.2c16.8,5.1,33.7,5.6,50.7,0.7c3.3-1,6.6-2.3,9.8-3.7
		c1.7-0.7,2.9-2,2.7-4.3C1418.8,772.4,1395.7,772.9,1372.1,766z M1471.5,672.1c-1,4.6-1.8,8.8-2.7,12.9c0.1,0.1,0.3,0.3,0.5,0.5
		c3.2-1.5,6.5-2.9,9.5-4.7c2.6-1.5,2.5-3.3,0-4.9C1476.6,674.6,1474.2,673.5,1471.5,672.1z"/>
	<path class="st1" d="M1406.9,750c-8.6,0-16.3-1-23.4-4.8c-12.5-6.6-11.4-20.2-1.7-27.3c4.8-3.5,10.2-4.9,16-5
		c10.1-0.1,19.5,2.1,27.5,8.4c2,1.6,3.9,3.7,5.3,5.9c3.2,5.3,2.2,11.3-2.4,15.5c-3.9,3.5-8.6,5.2-13.6,6.2
		C1411.9,749.5,1409,749.8,1406.9,750z M1404.9,746c2.5-0.2,5-0.3,7.5-0.7c4.4-0.7,8.8-1.9,12.4-4.6c4.5-3.4,5.4-8.6,1.8-12.9
		c-1.9-2.3-4.3-4.3-6.9-5.8c-7.8-4.5-16.4-6-25.3-4.8c-5.4,0.8-10.2,2.8-13.6,7.3c-3.3,4.5-2.9,10.3,1,14.1c1.4,1.3,3,2.5,4.8,3.4
		C1392.3,745.1,1398.5,745.8,1404.9,746z"/>
</g>
</svg>
