<?xml version="1.0" encoding="utf-8"?>
<!-- Generator: Adobe Illustrator 25.0.0, SVG Export Plug-In . SVG Version: 6.00 Build 0)  -->
<svg version="1.1" id="Calque_1" xmlns="http://www.w3.org/2000/svg" xmlns:xlink="http://www.w3.org/1999/xlink" x="0px" y="0px"
	 viewBox="0 0 1920 1080" style="enable-background:new 0 0 1920 1080;" xml:space="preserve">
<style type="text/css">
	.st0{fill:#431F4B;}
</style>
<g>
	<path class="st0" d="M948.8,348.8c8,0,16,0,24,0c6.5,0.9,13.1,1.5,19.6,2.6c36.1,6.2,68,21.2,95.3,45.6
		c33.4,29.7,54.3,66.7,62.2,110.8c1.2,7,2,14.1,2.9,21.1c0,8,0,16,0,24c-0.6,4.7-1.1,9.4-1.8,14.1c-5.5,38.4-20.9,72.2-46.7,101.1
		c-29.6,33.2-66.3,53.9-110.2,61.8c-7.1,1.3-14.3,2-21.4,3c-8,0-16,0-24,0c-4.7-0.6-9.4-1.1-14.1-1.7c-38.2-5.5-72-20.8-100.8-46.4
		c-33.3-29.6-54.2-66.4-62.1-110.4c-1.3-7.1-2-14.3-3-21.4c0-8,0-16,0-24c0.8-6.4,1.5-12.9,2.6-19.2c6.8-39.9,24.3-74.5,52.8-103.3
		c28.7-29.1,63.3-47.4,103.6-54.5C934.7,350.5,941.7,349.7,948.8,348.8z M960.8,628c32.5,0,65,0,97.5,0c16.3,0,26.2-9.9,26.2-26.1
		c0-40.9,0-81.7,0-122.6c0-15.7-10-25.8-25.7-25.8c-65.4,0-130.7,0-196.1,0c-2.5,0-5,0.1-7.4,0.7c-11.3,2.9-18.2,12.2-18.3,24.4
		c0,40.9,0.3,81.7-0.2,122.6c-0.2,15,10.4,27.2,26.8,26.9C896,627.7,928.4,628,960.8,628z"/>
	<path class="st0" d="M857.1,483.6c7.7,6.1,14.8,11.7,21.9,17.4c24.8,19.7,49.5,39.3,74.3,59c5.3,4.2,9.5,4.3,14.8,0
		c30.3-24.1,60.7-48.2,91-72.2c1.5-1.2,3.1-2.4,5.2-4.1c0.1,1.8,0.3,3,0.3,4.1c0,37.7,0,75.5,0,113.2c0,6.3-0.9,7.2-7.1,7.2
		c-64.6,0-129.2,0-193.8,0c-5.6,0-6.7-1.1-6.7-6.5c0-38.2,0-76.5,0-114.7C856.9,486.2,857,485.3,857.1,483.6z"/>
	<path class="st0" d="M876.8,473.5c56.2,0,111.8,0,168,0c-1,1-1.6,1.6-2.2,2.1c-26.4,21-52.8,42-79.2,63c-1.6,1.3-2.7,2-4.8,0.4
		c-26.7-21.4-53.6-42.6-80.4-63.9C877.8,474.6,877.5,474.2,876.8,473.5z"/>
</g>
</svg>
