<?xml version="1.0" encoding="utf-8"?>
<!-- Generator: Adobe Illustrator 25.0.0, SVG Export Plug-In . SVG Version: 6.00 Build 0)  -->
<svg version="1.1" id="Calque_1" xmlns="http://www.w3.org/2000/svg" xmlns:xlink="http://www.w3.org/1999/xlink" x="0px" y="0px"
	 viewBox="0 0 89.5 89.5" style="enable-background:new 0 0 89.5 89.5;" xml:space="preserve">
<style type="text/css">
	.st0{fill:#FFFFFF;}
</style>
<g>
	<path class="st0" d="M46,89.5c-0.8,0-1.6,0-2.4,0c-0.4-0.1-0.9-0.2-1.3-0.2c-3.8-0.1-7.5-0.8-11.1-2C13.8,81.1,3.5,69,0.5,50.8
		c-0.8-5-0.6-10.1,0.4-15.1c2.1-10,6.9-18.4,14.7-24.9c11.1-9.3,23.8-12.6,38-9.8C63.9,2.9,72.3,8.1,79,16
		c5.8,6.9,9.2,14.8,10.1,23.8c0.1,1.2,0.3,2.4,0.4,3.6c0,0.8,0,1.6,0,2.4c-0.1,0.5-0.1,1.1-0.2,1.6c-0.3,2-0.4,4.1-0.8,6.1
		c-2.1,10.1-7.1,18.5-15,25.2c-6.9,5.8-14.9,9.2-23.9,10.2C48.5,89.3,47.2,89.4,46,89.5z M35.8,46.5c0,0.5,0,0.9,0,1.3
		c0,9,0,18,0,27c0,0.8,0.2,1.1,1,1.1c3.4,0,6.8,0,10.1,0c1.2,0,1.2,0,1.2-1.1c0-9,0-18,0-27c0-0.4,0-0.7,0-1.2c0.5,0,0.8,0,1.1,0
		c2,0,4.1,0,6.1,0c0.4,0,0.8,0,0.8-0.6c0.3-3.1,0.6-6.1,0.9-9.2c0-0.2,0-0.4,0-0.7c-3,0-5.9,0-8.9,0c0-2.1,0-4,0-5.9
		c0-1.8,0.9-2.7,2.7-2.7c1.9,0,3.7,0,5.6,0c0.5,0,0.8-0.1,0.8-0.7c0-2.9,0-5.8,0-8.7c0-0.5-0.2-0.8-0.7-0.7c-3.5,0.1-7-0.1-10.5,0.2
		c-6.2,0.5-9.6,4.9-10.1,10.5c-0.2,2.3-0.1,4.7-0.2,7.1c0,0.3,0,0.7,0,1.1c-1.6,0-3.2,0-4.7,0c-0.7,0-1,0.2-1,1c0,2.9,0,5.7,0,8.6
		c0,0.7,0.2,1,1,0.9C32.5,46.5,34.1,46.5,35.8,46.5z"/>
</g>
</svg>
