<?xml version="1.0" encoding="utf-8"?>
<!-- Generator: Adobe Illustrator 26.1.0, SVG Export Plug-In . SVG Version: 6.00 Build 0)  -->
<svg version="1.1" id="Layer_1" xmlns="http://www.w3.org/2000/svg" xmlns:xlink="http://www.w3.org/1999/xlink" x="0px" y="0px"
	 viewBox="0 0 175.9 186" style="enable-background:new 0 0 175.9 186;" xml:space="preserve">
<style type="text/css">
	.st0{fill:#C19BE5;}
	.st1{fill:#F6F5F8;}
	.st2{fill:#FDFDFD;}
	.st3{fill:#F28303;}
	.st4{fill:#C1B1D6;}
	.st5{fill:#BC5B1B;}
	.st6{fill:#A452FB;}
	.st7{fill:#E5C0FE;}
	.st8{fill:#5499FB;}
	.st9{fill:#F0C492;}
	.st10{fill:#EE1B33;}
	.st11{fill:#DD3360;}
	.st12{fill:#E463C1;}
	.st13{fill:#3A1476;}
</style>
<g>
	<path class="st0" d="M136.8,165.7c-2.3,1.3-4.9,1.8-7.4,2.2c-6.4,1.1-12.9,1.6-19.5,2.1c-7,0.5-14.1,0.5-21.2,0.5
		c-4.3,0-8.6,0.2-12.9,0c-5.1-0.2-10.2-0.5-15.3-1c-5.2-0.5-10.4-1.1-15.5-2.3c-1.4-0.3-2.8-0.8-4-1.5c-1.3-0.9-1.3-1.8,0-2.6
		c1.2-0.7,2.6-1.1,3.9-1.4c5-1.2,10.1-1.8,15.2-2.3c13.6-1.4,27.3-1.2,41-1c6.2,0.1,12.5,0.5,18.7,1.2c4.8,0.6,9.6,1.2,14.2,2.3
		c1,0.3,2,0.6,2.9,1.2C138.2,163.9,138.2,164.9,136.8,165.7z"/>
	<path class="st1" d="M110.5,130.5c-3.7,2.8-5.1,7-8,10.3c-1.8,2.1-4,3.5-7.1,3.2c3.8-1.3,5.8-4.1,7.7-7.1c1-1.6,1.9-3.3,3.2-4.7
		C107.4,131.1,108.7,130.2,110.5,130.5z"/>
	<path class="st1" d="M76.6,134.8c-1.7,2.3-3.1,4.8-5.6,6.6c-0.9,0.7-2,1.4-3.3,0.7c2.2-1.1,3.5-3,4.8-4.8c0.5-0.7,1-1.4,1.6-2
		C74.8,134.6,75.6,134.3,76.6,134.8z"/>
	<path class="st2" d="M121.2,108.2c-2.2-2.1-4.5-4.1-6.4-6.4c-3.8-4.7-5.9-10-6.7-15.8c-0.4-3-0.7-6-0.6-9c-2.2,1.4-4.6,1.6-7,0.9
		c-1-0.3-2.1-0.7-2.1-1.9c0-1.2,1-1.7,2.1-2c2.5-0.8,4.8-0.5,7,1c0.3-5.1,1-10.2,1.9-15.3c1.5-8.3,2-16.6-0.7-24.9
		c-2-6.3-6.1-11.2-12.5-14.3c-0.5-0.2-1.1-0.2-1.1-1c-0.2,0-0.3-0.1-0.5-0.1c-0.4,0.2-0.7,0.1-1-0.2c-0.6-0.1-1.2-0.2-1.8-0.3
		c-3.6,0-7.2,0.1-10.6,1.1c-0.1,0.1-0.2,0.1-0.3,0c-0.4,0.1-0.8,0.5-1.2,0.3c-1.2,0.5-2.3,1-3.5,1.5c-8.9,4-15.2,10.5-19.8,18.4
		c-6,10.3-8.3,21.6-8.8,33.2c0.2,0.1,0.2,0.2,0,0.3c0,1.5,0,2.9,0,4.4c9.1,0.3,15.3,4.7,19.6,11.7c2,3.2,3.2,6.7,3.8,10.3
		c0.1,0.8,0.5,1.4,1.3,1.9c6.4,4,9.7,9.5,9.4,16.5c-0.2,5.5-2.5,10.3-7.2,14c-0.2,0.1-0.2,0.3-0.3,0.5c1.3-0.2,2.7-0.2,3.9,0.2
		c1.8-0.9,3.3-0.1,4.8,0.6c2,0.9,3.5,2.3,5.3,3.5c0.4,0.3,0.9,0.6,1.3,0.9c2.4,1.5,4.4,1,6-1.3c1.6-2.5,2.6-5.2,3.5-8
		c1.5-4.9,5.1-6.7,10.5-5.3c1.5,0.4,2.9,0.9,4.1,1.7c1.4,0.8,3,1.3,4.6,1.6c1.8,0.3,2.8-0.4,3-2.1c0.2-2.3,0.9-4.5,2.2-6.5
		C125.8,114.8,125.1,111.9,121.2,108.2z M60,75.5c-1.1,0.8-2.5,1-3.8,1c-1.4-0.1-2.7-0.2-3.9-1c-1.2-0.8-1.2-1.8,0-2.6
		c1.8-1.4,6-1.4,7.8,0C61.1,73.7,61.1,74.7,60,75.5z M67.8,66.3c-2.6,2.2-5.9,2.2-8-0.8c-1.1-1.6-1.5-3.3-1.5-5.2
		c0.1-2.6,0.8-5.1,3-7c2.5-2.2,5.8-1.9,7.8,0.7C71.6,57.5,71.1,63.4,67.8,66.3z M92.6,75.5C92.6,75.6,92.6,75.6,92.6,75.5L92.6,75.5
		l0,0.2c-0.2,5-3.5,9.1-8.2,10.1c-3,0.6-5.7,0-8.1-1.8l0,0c-3-1.9-4.3-4.8-4.9-7.9c-0.3-1.4-0.3-2.8-0.2-4.1
		c0.1-1.8,0.1-1.8,2.1-1.5c1.8,0.4,3.7,0.8,5.5,1.2c0.2,0,0.5,0.1,0.7,0.1c0.2-0.1,0.4-0.1,0.6,0c0.8,0,1.5,0,2.3,0
		c1.2-0.1,2.4-0.6,3.7-0.5c0.1-0.1,0.2-0.1,0.3-0.1c0.1-0.1,0.2-0.2,0.2-0.3c1-0.5,2-1,3-1.5c0.3-0.2,0.5-0.4,0.8-0.6l0.1,0
		c0.1-0.1,0.2-0.1,0.3-0.2l0,0l0,0c1-0.8,1.5-0.5,1.6,0.7l0.1,0.1l0,0.1c0.3,0.6,0.3,1.2,0.2,1.8c0.2,0.4,0.2,0.9,0.1,1.3
		c0.2,0.5,0.2,1,0,1.5C92.8,74.6,92.7,75.1,92.6,75.5z M93.8,63.5c-0.5-0.5-0.3-1.1,0-1.7c2.2-3.3,7.1-5.4,11.3-4.9
		c0.4,0.1,1.1-0.1,1.1,0.5c0.1,0.7-0.7,0.6-1.1,0.7c-3.1,0.9-5,1.7-6.4,2.9c2,0.4,3.9,0.9,5.3,2.1c0.3,0.3,1,0.5,0.6,1.1
		c-0.3,0.4-0.8,0-1.2-0.1c-2.6-1-5.3-1.1-8-0.3C94.9,64.1,94.2,64.1,93.8,63.5z"/>
	<path class="st3" d="M29.2,134.6L29.2,134.6C29.2,134.6,29.2,134.6,29.2,134.6L29.2,134.6z M28.9,134.3L28.9,134.3L28.9,134.3
		L28.9,134.3L28.9,134.3z M61.5,103.1c-0.5-0.5-1-1-1.8-0.4c-0.8,0.8-1.6,1.4-2.5,2c-4.8,3.1-10.4,4.7-16,6
		c-3.3,0.8-6.7,1.4-10.1,1.4c-2.2,0-3.8-0.4-4.6-1.2c2.1-0.2,2.1-0.2,1.4-2.1c-0.1-0.3-0.2-0.5-0.3-0.8c-1.2,0.3-1.7,1.2-2.3,2.1
		c-4.8,7.2-4.3,16.5,2.6,23c0.4,0.4,1,0.6,1,1.3c0.2,0,0.4,0,0.3,0.3c0.5-0.1,0.6,0.2,0.6,0.5c2,1,4,2.1,6.3,2.6
		c0.4-0.1,0.8-0.1,1.2,0.1c1.2,0,2.5,0,3.7,0c0.5-0.3,1-0.2,1.5-0.1l0.1,0l0.1,0c0.2-0.3,0.4-0.3,0.6,0c0.2,0,0.4,0,0.6-0.1
		c1-1,2.4-1,3.6-1.4c4.9-1.8,10-3.6,13.6-7.3C68.4,121.6,69.2,110.5,61.5,103.1z M41,122.5c-0.3,2.1-2.5,3.7-4.8,3.5
		c-0.3,0-0.6,0-0.8-0.3c-0.4,0-0.8-0.1-1.1-0.1l0,0c0,0,0,0,0,0c0,0-0.1,0-0.1-0.1c-2.8-1.6-3.7-3-3.2-5.6c0-0.1,0-0.2,0.2-0.3l0,0
		c0.3-1.4,1.2-2.4,2.8-2.7c0.7-0.3,1.4-0.2,2.1-0.2c0.1,0,0.1,0,0.2,0c0,0,0,0,0,0c0.2,0,0.4-0.1,0.5,0c0,0,0,0,0.1,0.1
		c0,0,0.1,0.1,0.2,0.1C40,117.4,41.3,120.1,41,122.5z M46.8,118.9c0-0.1,0.1-0.3,0.1-0.4c0,0,0,0,0,0c0.1-0.1,0.2-0.1,0.3-0.2
		c0,0,0.1,0,0.1,0c0.1,0,0.2,0,0.2,0c0.2,0,0.3,0,0.5,0l0,0c0.3,0,0.6,0.1,0.8,0.2c0,0,0.1,0,0.1,0.1s0.1,0.1,0.1,0.1
		c0.3,0.3,0.5,0.7,0.6,1.2c0.2,0,0.3,0.1,0.3,0.3c0.2,0,0.3,0.1,0.3,0.3c1.1,0.6,1.2,1.2,0.2,1.6c-1.2,0.5-2.4,1.2-3.9,0.7
		C45.5,121.5,46.7,120.1,46.8,118.9z M58.4,127.7c-0.1,0.5-0.4,0.8-1,0.5c-0.3,0.3-0.6,0.4-1,0c-1.4,0.5-2.3,1.2-1.3,2.6
		c0.3,0.5,0.2,1-0.4,1.2c-0.9,0.4-1.8,1-2.9,0.7c-1.2,0.1-2.5,0.1-3.7,0l0,0l0,0c0,0,0,0,0,0l0-0.1c-2.6-0.9-4.4-2.5-5.5-4.8
		c-0.9-1.8-0.7-2.2,1.5-2.4c0.3,0,0.6-0.1,0.9-0.1c0.7-0.4,1.2-0.2,1.4,0.5c0.1,0.4,0.4,0.6,0.7,0.8c1-0.2,2.1-0.2,1.7-1.6
		c-0.1-0.4,0.2-0.6,0.6-0.7c2.1-0.7,3.9-1.8,5.6-3.1c0.3-0.3,0.7-0.3,1.1-0.2c0.7-0.3,1.2-0.1,1.5,0.4
		C58.6,123.5,58.9,125.5,58.4,127.7z M61.5,118.9c-0.5,0.2-0.7,0.1-1.1-0.1c0,0,0,0.1-0.1,0.1c-2.3,0.3-3.9-0.7-5-2.3
		c-1.2-1.6-1.2-3.4,0-5.1c1.2-1.6,2.9-2,4.9-1.5c0.3,0,0.5-0.1,0.7,0.1c0.2,0.1,0.5,0.1,0.7,0.2c2.1,0.8,3,2.4,3.1,4.3
		C65,116.6,63.7,118,61.5,118.9z"/>
	<path class="st4" d="M47.5,78.2c9.1,0.3,15.3,4.7,19.6,11.7c2,3.2,3.2,6.7,3.8,10.3c0.1,0.8,0.5,1.4,1.3,1.9
		c6.4,4,9.7,9.5,9.4,16.5c-0.2,5.5-2.5,10.3-7.2,14c-0.2,0.1-0.2,0.3-0.3,0.5c-0.4,0.2-0.8,0.5-1.2,0.7c-0.4,0-0.7,0.2-0.7,0.6h0
		c-0.4-0.1-0.8,0-1.1,0.2c-2.5,1.4-5.2,2.6-7.9,3.6c-0.3,0.1-0.7,0.2-0.7,0.6c0,0-0.1,0-0.1-0.1c-2.4-3-2.5-3.1,1.1-4.7
		c8.6-4,12.4-10.5,12.3-19.1c0-4.9-2.2-9-5.9-12.6c-0.7-0.6-1.3-1.2-2-1.9c0.6-0.3,0.7-0.7,0.5-1.3c-1-4.1-2.6-8.1-5.5-11.4
		c-3.4-4-7.8-6.7-13.4-7.3C47.4,80,47.4,80,47.5,78.2z"/>
	<path class="st5" d="M44.1,137.6c1-1,2.4-1,3.6-1.4c4.9-1.8,10-3.6,13.6-7.3c7.1-7.3,7.9-18.4,0.2-25.8c-0.5-0.5-1-1-1.8-0.4
		c0.2-0.4,0.5-0.8,0.7-1.2c-1-0.2-1.8-1.4-1.4-2.3c0.2-0.6,0.8-0.3,1.2-0.3c2.5,0.3,4.5,1.4,6.3,2.9c-0.2,0.5-0.2,0.5,0.5,1.1
		c3.9,3.7,5.9,8.1,5.9,13.2c0,5-2.2,9.3-5.4,13.2l0,0c-0.1,0.1-0.2,0.1-0.3,0.2c-0.1,0.2-0.3,0.3-0.6,0.4c-0.1,0.1-0.2,0.1-0.3,0.2
		l0,0.1l-0.1,0c0,0.1,0,0.1-0.1,0.1c-4.5,3-9.5,5-14.8,6.3C48.8,137.1,46.5,137.7,44.1,137.6z"/>
	<path class="st2" d="M25.9,88.8c0-0.1-0.1-0.3-0.1-0.5c0-0.2,0-0.3,0-0.5c0.1-3.1,1.4-5.6,4.2-7.4c3.3-2.1,7-1.3,8.9,2
		c0.9,1.7,1.3,3.5,1.5,5.3c0.1,0.7-0.2,0.9-1,1c-1.6,0.2-3.3,0.4-4,2.2c-2.8,1-5.2,0.4-7.6-1C27.2,89.5,26.8,88.8,25.9,88.8z"/>
	<path class="st6" d="M52,96.5c3.8-0.4,5.8,2.9,5.5,5.1c-0.1,0.4-0.1,1-0.6,1.2c-3.3,1.7-6.5,3.5-10.2,4.5
		C47.7,103.5,47.4,99,52,96.5z"/>
	<path class="st4" d="M25.9,88.8c0.9,0,1.4,0.7,2,1.1c2.4,1.5,4.8,2.1,7.6,1c0.6,1.6,2.1,2.5,3.3,3.8c0.6,0.6,0.7,1-0.1,1.5
		c-1.1,0.8-1.8,2-2,3.3c-0.1,0.6-0.4,0.8-1,0.5c-1.5-0.5-2.9-0.9-3-2.8c-0.1-1.8-1-2.1-2.7-1.3c-0.5,0.2-0.8,0.3-1.2-0.1
		C27,93.8,25.7,91.5,25.9,88.8z"/>
	<path class="st1" d="M49.7,80.5c5.6,0.6,10,3.3,13.4,7.3c2.9,3.4,4.4,7.3,5.5,11.4c0.2,0.6,0,1-0.5,1.3c-1.6-0.7-2.5-1.9-3.1-3.5
		c-2.5-6.5-6.5-12-13.3-15.6C51,81.1,50.1,81.1,49.7,80.5z"/>
	<path class="st7" d="M22.3,108.8c-1.5-6.2-1.5-12.1,1.6-18.2c0.7,2.5,1.6,4.5,3.3,6.4c-1.7,0.6-3,1.4-4,2.6
		c-1.1,1.4-0.9,2.2,0.9,2.8c1.1,0.4,2.2,0.7,3.2,1.1c0.4,0.1,1.1,0.1,1,0.6c0,0.5-0.2,1-0.9,1.2C25.5,106.1,23.9,107.2,22.3,108.8z"
		/>
	<path class="st8" d="M42.2,96.1c1.4-0.2,2.7,0,3.9,0.7c0.4,0.2,0.7,0.4,0.4,1c-1.6,3.2-1.7,6.8-2.9,10.3c-1.5-2-3-3.9-4.5-5.8
		c0-1.7,0-3.4,1.4-4.8c0.5-0.5,1.1-0.8,1.4-1.4l0,0C42,96.2,42.1,96.2,42.2,96.1z"/>
	<path class="st1" d="M59,90.9c-1.6-0.5-3-1.1-4.5-1.8c-2.1-0.9-4.3-1.2-6.4,0.6c-0.2-2.5-0.3-4.8-0.5-7.1c-0.1-1,0.5-0.6,1-0.5
		c4,1.5,7.1,4,9.7,7.1c0.4,0.5,0.7,1,1.1,1.5C59.2,90.7,59.1,90.8,59,90.9z"/>
	<path class="st9" d="M27.6,108c-1.2,0.3-1.7,1.2-2.3,2.1c-4.8,7.2-4.3,16.5,2.6,23c0.4,0.4,1,0.6,1,1.3c-2-0.9-3.3-2.3-4.6-3.9
		c-2.7-3.3-4.2-7.1-3.8-11.2c0.4-4,1.4-7.9,5-10.8c0.5-0.4,1-0.7,1.6-1C27.6,107.2,27.7,107.6,27.6,108z"/>
	<path class="st10" d="M30.4,104.3c0.3-0.3,0.7-0.6,1-0.8c0.5,0.3,0.9,0.5,1.4,0.8c2.5,1.2,3.4,3.4,4.3,5.6c-0.2,0-0.4,0.1-0.7,0.1
		c-0.2-0.2-0.4-0.1-0.5,0.1c-1.3,0.1-2.6,0.3-3.9,0.4c-1-1-1.7-2.2-1.7-3.6C30.3,106.1,30.4,105.2,30.4,104.3z"/>
	<path class="st3" d="M67.4,129.4c3.3-3.9,5.4-8.2,5.4-13.2c0-5.1-2-9.5-5.9-13.2c-0.7-0.6-0.7-0.6-0.5-1.1
		c7.6,5.5,9.6,14.4,5.1,22.5c-0.8,1.4-1.6,2.7-2.6,3.9C68.6,128.7,68.2,129.3,67.4,129.4z"/>
	<path class="st11" d="M37.1,109.9c-0.9-2.2-1.8-4.5-4.3-5.6c-0.5-0.2-0.9-0.5-1.4-0.8c0.7-0.8,1.7-1.2,2.8-1c1,0.3,2.2,0.5,2.9,1.3
		c1.2,1.4,2.2,2.9,3,4.4c0.2,0.4,0.3,0.8-0.2,1C39,109.7,38,109.7,37.1,109.9z"/>
	<path class="st1" d="M62.6,138.8c0-0.4,0.3-0.5,0.7-0.6c2.7-1,5.4-2.2,7.9-3.6c0.3-0.2,0.7-0.3,1.1-0.2c-1.3,1.7-2.3,3.6-3.9,5.1
		c-1.6,1.5-2.5,1.6-4.5,0.7C63.4,139.7,63,139.2,62.6,138.8z"/>
	<path class="st1" d="M59.3,90.7c1.7,2.1,2.8,4.5,3.9,7.1c-1.8-0.5-3.6-0.7-5.3-0.7c-1,0-1.3-0.9-0.7-1.7c0.6-0.7,1.2-1.5,1.8-2.2
		c0.7-0.8,0.8-1.5,0.1-2.2C59.1,90.8,59.2,90.7,59.3,90.7z"/>
	<path class="st10" d="M26.5,98.9c1.2-0.6,2.6-0.6,3.8-1.3c0.6-0.3,0.8,0,0.9,0.5c0.2,0.9,0.3,1.7,0.4,2.6c0.1,1-0.9,1.1-1.5,1.5
		c-0.8-0.3-1.5-0.5-2.2-0.8C25.8,100.6,25.8,100.6,26.5,98.9z"/>
	<path class="st6" d="M51.4,90.1c1.6-0.2,2.9,0.5,4.1,1.3c0.6,0.4,1.8,0.2,1.8,1c0,0.6-0.8,1.1-1.2,1.7c-0.6,1-1.4,1.4-2.6,0.9
		C52.8,93.3,52.1,91.7,51.4,90.1z"/>
	<path class="st8" d="M38.4,90.6c2.2-0.5,4.2,0.1,6.4,0.2c-0.6,3.3-0.9,3.6-2.9,3.8C41.1,93,39.2,92.2,38.4,90.6z"/>
	<path class="st1" d="M42.4,88.2c-0.2-1.3-0.4-2.5-0.7-3.8c-0.1-0.5,0-0.8,0.7-0.6c0.1,0,0.2,0,0.3,0c3.2,0.5,3.2,0.5,3.3,4.4
		C44.8,88.2,43.6,88.2,42.4,88.2z"/>
	<path class="st0" d="M52,96.5c-4.7,2.4-4.3,6.9-5.2,10.9c-0.3,0.3-0.7,0.6-1,0.4c-0.5-0.2-0.2-0.6-0.1-1c0.5-2.2,1-4.5,1.7-6.7
		C47.9,97.9,49.8,96.5,52,96.5z"/>
	<path class="st10" d="M39.9,109.2c0.6-0.2,0.5-0.6,0.2-1c-0.9-1.5-1.9-3-3-4.4c-0.7-0.9-1.9-1-2.9-1.3c1.8-0.4,3.2,0.3,4.3,1.6
		c1,1.2,1.8,2.4,2.7,3.6c0.9,1.2,0.9,1.3-0.8,1.5C40.3,109.2,40.1,109.2,39.9,109.2z"/>
	<path class="st12" d="M30.4,104.3c0,0.9-0.1,1.7-0.1,2.6c0,1.4,0.7,2.5,1.7,3.6c-0.7,0.3-1.2,0.1-1.6-0.5
		C28.9,108.1,28.9,106,30.4,104.3z"/>
	<path class="st4" d="M42,96.2c-0.3,0.6-1,0.9-1.4,1.4c-1.4,1.4-1.4,3.1-1.4,4.8c-0.9-0.3-1.1-1-1.1-1.8
		C38.2,98.5,39.7,96.9,42,96.2z"/>
	<path class="st1" d="M48.9,95.6c-0.3-1.7-0.5-3.4-1-5.2c1.1,0.4,1,1.2,1.4,1.7c0.3,0.5,0.5,1,0.8,1.5
		C50.7,94.7,50.6,95.5,48.9,95.6z"/>
	<path class="st7" d="M40.3,80.8c1.5-0.2,3,0.1,4.4,0.2c0.6,0.1,1.1,0.3,0.9,1c-0.2,0.8-0.8,0.3-1.2,0.3c-1-0.1-2-0.4-3-0.6
		C40.9,81.6,40.3,81.6,40.3,80.8z"/>
	<path class="st12" d="M26.5,98.9c-0.8,1.8-0.8,1.7,1.3,2.5c0.8,0.3,1.5,0.5,2.2,0.8c-0.2,0.2-0.4,0.6-0.7,0.5
		c-1.6-0.5-3.2-1-4.8-1.6c-0.6-0.2-0.2-0.5,0-0.8C25.2,99.7,25.8,99.2,26.5,98.9z"/>
	<path class="st4" d="M38.4,90.6c0.8,1.6,2.7,2.4,3.5,4c-0.6,0.4-1,0.2-1.4-0.3c-0.8-0.9-1.7-1.8-2.6-2.6
		C37,90.9,37.5,90.7,38.4,90.6z"/>
	<path class="st0" d="M51.4,90.1c0.7,1.6,1.4,3.2,2.1,4.8c-0.3,0-0.9,0-1-0.1c-1-1.4-1.6-2.9-2.1-4.4C50.2,89.9,51,90,51.4,90.1z"/>
	<path class="st4" d="M42.4,88.2c1.2,0,2.4,0,3.6,0c0,0.2,0.2,0.5,0.1,0.5c-0.8,0.6-1.8,0.3-2.8,0.4C42.7,89.1,42.3,88.8,42.4,88.2z
		"/>
	<path class="st0" d="M46.4,92.2c0.2,1.1,0.5,2,0.4,3C45.2,94.7,45.2,94.7,46.4,92.2z"/>
	<path class="st5" d="M41.1,137.9c0.5-0.3,1-0.2,1.5-0.1C42.1,138,41.6,138,41.1,137.9z"/>
	<path class="st5" d="M36.1,137.7c0.4,0,0.8-0.1,1.2,0.1C36.9,138,36.5,138,36.1,137.7z"/>
	<path class="st9" d="M29.2,134.6c0.5-0.1,0.6,0.1,0.7,0.5C29.5,135.1,29.3,134.9,29.2,134.6z"/>
	<path class="st3" d="M66.2,130.1c0.1-0.1,0.2-0.1,0.3-0.2C66.5,130,66.4,130,66.2,130.1z"/>
	<path class="st11" d="M35.9,110.1c0.2-0.2,0.3-0.2,0.5-0.1C36.3,110,36.1,110.1,35.9,110.1z"/>
	<path class="st5" d="M42.9,137.7c0.2-0.3,0.4-0.3,0.6,0C43.3,137.7,43.1,137.7,42.9,137.7z"/>
	<path class="st3" d="M67.2,129.5c0.1-0.1,0.2-0.1,0.3-0.2C67.4,129.4,67.3,129.5,67.2,129.5z"/>
	<path class="st3" d="M66,130.3c0.1,0,0.1-0.1,0.1-0.1C66.1,130.3,66.1,130.3,66,130.3z"/>
	<path class="st4" d="M47.5,73.5c0.2,0.1,0.2,0.2,0,0.3C47.5,73.7,47.5,73.6,47.5,73.5z"/>
	<path class="st9" d="M28.9,134.3c0.2,0,0.4,0,0.3,0.3C29,134.6,28.9,134.6,28.9,134.3z"/>
	<path class="st4" d="M25.8,87.8c0,0.2,0,0.3,0,0.5C25.6,88.2,25.6,88,25.8,87.8z"/>
	<path class="st4" d="M42.2,96.1c-0.1,0-0.2,0.1-0.2,0.1C42,96.2,42.1,96.2,42.2,96.1z"/>
	<path class="st4" d="M78,133.3c1.8-0.9,3.3-0.1,4.8,0.6c2,0.9,3.5,2.3,5.3,3.5c0.4,0.3,0.9,0.6,1.3,0.9c2.4,1.5,4.4,1,6-1.3
		c1.6-2.5,2.6-5.2,3.5-8c1.5-4.9,5.1-6.7,10.5-5.3c1.5,0.4,2.9,0.9,4.1,1.7c1.4,0.8,3,1.3,4.6,1.6c1.8,0.3,2.8-0.4,3-2.1
		c0.2-2.3,0.9-4.5,2.2-6.5c2.4-3.6,1.7-6.5-2.2-10.1c-2.2-2.1-4.5-4.1-6.4-6.4c-3.8-4.7-5.9-10-6.7-15.8c-0.4-3-0.7-6-0.6-9
		c0.4-0.7,0.4-1.4,0-2c0.3-5.1,1-10.2,1.9-15.3c1.5-8.3,2-16.6-0.7-24.9c-2-6.3-6.1-11.2-12.5-14.3c-0.5-0.2-1.1-0.2-1.1-1
		c0.2,0,0.4-0.1,0.6-0.1c0.2,0.1,0.4,0.2,0.6,0.3c1.7,0.7,3.3,1.5,5.1,2c4.2,2,7.8,4.6,10.8,7.9c6.7,7,10.1,15.4,11.3,24.5
		c0.8,5.7,0,11.5,0.6,17.2c-2,0.7-4,0.9-6,0.2c-0.7-0.2-1.2-0.3-1.5,0.3c-0.4,0.7,0.2,1.1,0.9,1.4c1.5,0.6,3.2,0.5,4.7,0.5
		c0,0.3,0.2,0.5,0.1,0.8c-0.2,1.8-0.2,3.7,0.3,5.5c0.8,2.5,3.4,4.5,6.1,4.7c2.7,0.2,3.8-0.5,5.3-3.6c0.4-0.8,0.8-1.3,1.8-1.6
		c2-0.5,4.1-1,6.1-1.6c-0.8,1.5-2.2,2.5-3.6,3.5c-1.4,1-2.4,2.2-2.7,3.8c-0.5,2.7-1.9,3.6-5,3.5c-0.9,0-1.8-0.2-2.7,0
		c-1.5,0.3-2.5,1.1-3.4,2.2c-1.5,2-3.1,2.1-5.1,0.6c-0.6-0.5-1.2-1.7-2.2-0.6c-0.9,1,0.4,1.6,1,2.1c2.8,2.1,5.7,1.8,7.8-0.9
		c0.3-0.4,0.5-0.9,1.2-1c0.5,0.1,0.5,0.6,0.5,0.9c0.9,3,1.9,6,2.8,9c2.5,7.8,6.7,14.6,13.4,20c2.7,2.2,2.7,3,0.3,5.4
		c0,0,0,0.1,0.1,0.1c-2.4,0.5-4.8,0.5-7.2,0c-2.4-0.6-4.7-0.5-6.9,0.5c-0.1,0-0.2,0-0.3,0l0,0c-2.3,0-4,1-5.3,2.6
		c-0.8,1.1-1.6,2.2-2.8,3c-1.9,0-3.4-0.9-5-1.7c-1.5-0.7-3-1.4-4.6-1.8c-2.1-0.6-4.1-0.5-6,0.6c-1.7-0.2-3.1,0.4-4.3,1.6
		c-0.8,0.8-1.5,1.6-2.1,2.5c-2,3-3.7,6.2-6.6,8.6c-2.2,0-4-1-5.6-2.1C84.6,138,81.5,135.4,78,133.3z"/>
	<path class="st2" d="M142,77.9c-2,0.5-4,1-6.1,1.6c-0.9,0.2-1.4,0.8-1.8,1.6c-1.5,3.1-2.6,3.8-5.3,3.6c-2.8-0.2-5.4-2.2-6.1-4.7
		c-0.5-1.8-0.6-3.6-0.3-5.5c0-0.3-0.1-0.5-0.1-0.8l0.1,0c0.2,0.1,0.3,0,0.4-0.1c5.4-1.1,10.2-3.4,14.9-5.9c1.6-0.8,3.1-1.7,4.9-0.7
		c1.8,1,2.1,2.8,2,4.5C144.3,73.9,143.6,76,142,77.9z"/>
	<path class="st1" d="M124.1,71.3c-0.6-5.7,0.1-11.5-0.6-17.2c-1.2-9.1-4.6-17.5-11.3-24.5c-3.1-3.2-6.6-5.9-10.8-7.9
		c-0.3-0.4,0.1-0.5,0.4-0.5c8.2,3,14.2,8.4,18.5,15.3c4.3,7,6.4,14.5,6.5,22.5c0.1,3.6,0,7.1,0.2,10.7c0,0.6-0.2,0.9-0.7,1
		C125.6,70.9,124.9,71.3,124.1,71.3z"/>
	<path class="st1" d="M144.5,126.3c0,0-0.1-0.1-0.1-0.1c2.4-2.3,2.4-3.2-0.3-5.4c-6.7-5.4-10.9-12.2-13.4-20c-1-3-1.9-6-2.8-9
		c-0.1-0.3,0-0.8-0.5-0.9c1.7-1.2,3-0.8,3.5,1c2,6.8,3.8,13.7,7.8,19.8c2.4,3.7,5.3,7,8.9,9.7c2.3,1.8,2.1,3.3-0.8,4.3
		C146,126.1,145.3,126.4,144.5,126.3z"/>
	<path class="st1" d="M93.5,142.3c2.9-2.4,4.7-5.6,6.6-8.6c0.6-0.9,1.3-1.8,2.1-2.5c1.2-1.1,2.6-1.8,4.3-1.6
		c-1.9,1.5-3.2,3.3-4.3,5.3c-1,1.8-2.2,3.6-3.6,5.1C97.2,141.3,95.7,142.4,93.5,142.3z"/>
	<path class="st1" d="M122.1,132.5c1.2-0.8,2-1.9,2.8-3c1.3-1.7,3-2.7,5.3-2.6c-1.5,1.2-2.6,2.9-3.9,4.2
		C125.2,132.2,123.9,133,122.1,132.5z"/>
	<path class="st7" d="M101.8,21.2c-0.3,0.1-0.7,0.1-0.4,0.5c-1.8-0.5-3.4-1.3-5.1-2C98.2,19.9,100,20.5,101.8,21.2z"/>
	<path class="st4" d="M94.4,19.3c0.1,0,0.1,0.1,0.1,0.2c-0.4,0.2-0.7,0.1-1-0.2c0.1,0,0.2-0.1,0.3-0.1C94,19.2,94.2,19.3,94.4,19.3z
		"/>
	<path class="st1" d="M72.3,134.4c0-0.4,0.2-0.6,0.7-0.6C72.7,134,72.5,134.2,72.3,134.4z"/>
	<path class="st1" d="M130.2,126.9c0.1,0,0.2,0,0.3,0C130.4,126.8,130.3,126.8,130.2,126.9z"/>
	<path class="st4" d="M122.6,73.5c-0.1,0.1-0.2,0.2-0.4,0.1C122.4,73.6,122.5,73.6,122.6,73.5z"/>
	<path class="st12" d="M107.5,74.9c0.4,0.7,0.4,1.4,0,2c-2.2,1.4-4.6,1.6-7,0.9c-1-0.3-2.1-0.7-2.1-1.9c0-1.2,1-1.7,2.1-2
		C103,73.2,105.3,73.5,107.5,74.9z"/>
	<path class="st12" d="M56.1,76.5c-1.4-0.1-2.7-0.2-3.9-1c-1.2-0.8-1.2-1.8,0-2.6c1.8-1.4,6-1.4,7.8,0c1.1,0.8,1.1,1.9-0.1,2.7
		C58.8,76.3,57.5,76.5,56.1,76.5z"/>
	<path class="st9" d="M35.3,125.6c2.3-0.2,3.9-1.3,4.4-3.4c0.5-2.4-0.7-4.1-2.8-5.4c3.1,0.5,4.5,3.2,4.1,5.6
		c-0.3,2.1-2.5,3.7-4.8,3.5C35.8,125.9,35.5,125.9,35.3,125.6z"/>
	<path class="st9" d="M60.5,118.8c1-0.8,2.6-1.1,2.8-2.6c0.7-1.1,0.6-2.2,0-3.3c0,0,0,0,0,0c0-0.3-0.1-0.6-0.4-0.8l0,0
		c-0.1-0.4-0.3-0.6-0.6-0.8v0c-0.2-0.1-0.3-0.3-0.5-0.4l-0.1,0.1l0.1-0.1c-0.1-0.1-0.2-0.2-0.2-0.3c0.1-0.1,0.1-0.1,0.2-0.2
		c2.1,0.8,3,2.4,3.1,4.3c0.1,1.9-1.2,3.3-3.3,4.2C61.1,119,60.8,118.9,60.5,118.8z"/>
	<path class="st9" d="M57.4,128.1c0.3-2.5,0.3-4.9-1.4-7c0.7-0.3,1.2-0.1,1.5,0.4c1.1,1.9,1.5,4,0.9,6.1
		C58.3,128.2,58,128.5,57.4,128.1z"/>
	<path class="st9" d="M51.8,132.7c0.2-0.1,0.5-0.2,0.7-0.3c1.5-0.3,2-1,1.2-2.3c-0.2-0.4-0.4-0.9,0.2-1.2c0.8-0.3,1.3-1.4,2.5-0.8
		c-1.4,0.5-2.3,1.2-1.3,2.6c0.3,0.5,0.2,1-0.4,1.2C53.8,132.4,52.9,133,51.8,132.7z"/>
	<path class="st9" d="M46.8,122.8c0.9-0.2,1.8-0.5,2.7-0.7c1-0.2,1.3-0.8,0.9-1.6c1.1,0.6,1.2,1.2,0.2,1.6
		C49.5,122.5,48.2,123.2,46.8,122.8z"/>
	<path class="st9" d="M46.9,126.7c-1.8,1.1-1.5-0.8-2.1-1.3c0.7-0.4,1.2-0.2,1.4,0.5C46.3,126.3,46.5,126.5,46.9,126.7z"/>
	<path class="st9" d="M49.8,119.9c-0.7-0.4-1.2-1-1.7-1.6C49.3,118.4,49.6,119,49.8,119.9z"/>
	<path class="st9" d="M60.2,110c0,0,0.1,0,0.1-0.1c0.3,0,0.5-0.1,0.7,0.1l-0.1,0.1C60.8,110.2,60.5,110.1,60.2,110z"/>
	<path class="st9" d="M36.7,116.8c-0.2,0-0.4-0.1-0.6-0.1C36.3,116.6,36.5,116.6,36.7,116.8z"/>
	<polygon class="st9" points="48,132.7 48,132.7 48,132.8 	"/>
	<path class="st9" d="M61.1,110.1c0.2,0.1,0.5,0.1,0.7,0.2c-0.1,0.1-0.1,0.1-0.2,0.2C61.4,110.4,61.2,110.3,61.1,110.1L61.1,110.1z"
		/>
	<path class="st9" d="M34,125.5l0.1,0C34.1,125.6,34,125.6,34,125.5z"/>
	<path class="st9" d="M50.2,120.2c-0.2,0-0.3-0.1-0.3-0.3C50.1,119.9,50.2,120,50.2,120.2z"/>
	<path class="st9" d="M50.5,120.5c-0.2,0-0.3-0.1-0.3-0.3C50.4,120.1,50.5,120.2,50.5,120.5z"/>
	<path class="st9" d="M60.4,118.9c0-0.1,0-0.1,0.1-0.2C60.4,118.8,60.4,118.9,60.4,118.9z"/>
	<path class="st11" d="M78.4,79.1c3.3-1.1,6.4-0.8,9.3,1.2c0.9,0.6,1.1,1.1,0.2,2c-3.2,3-8.7,2.8-11.7-0.4c-0.3-0.3-0.6-0.6-0.4-1.1
		l-0.1,0c0.1-0.1,0.2-0.2,0.3-0.3l0,0C76.8,80,77.6,79.5,78.4,79.1L78.4,79.1z"/>
	<path class="st1" d="M68.1,58.4c-0.1,1.2-0.3,2.2-1.5,2.9c-0.5,0.3-1.1,0.2-1.5-0.2c-0.9-0.9-1-1.9-0.7-3.1
		c0.1-0.3,0.2-0.6,0.4-0.9c0.4-0.6,0.9-1.2,1.8-1.1c0.9,0.1,1.2,0.8,1.4,1.4C68,57.8,68,58.1,68.1,58.4z"/>
	<g>
		<path class="st13" d="M73.2,21.5L73.2,21.5c0.3,0,0.5-0.1,0.6-0.4C73.5,21.2,73.3,21.3,73.2,21.5C73.1,21.4,73.1,21.4,73.2,21.5
			C73.1,21.5,73.1,21.4,73.2,21.5L73.2,21.5L73.2,21.5L73.2,21.5z"/>
		<path class="st13" d="M151,123.4c-0.1-1.4-1.1-2.4-2.2-3.2c-4-3-7.1-6.7-9.4-10.9c-3.2-5.7-4.9-11.8-6.7-18
			c-0.3-0.9,0.2-1,0.9-1.2c1.9-0.5,3.3-1.5,3.6-3.3c0.3-2.1,1.6-3.4,3.3-4.7c4-3,6.1-6.9,5.8-11.6c-0.2-4.7-4.3-7.2-9.3-4.6
			c-2.3,1.2-4.7,2.4-7.1,3.4c-0.7,0.3-1,0.3-1.1-0.5c0-1.3-0.2-2.6-0.3-3.9c-0.2,0-0.5,0.1-0.5-0.2c0-3,0-6,0-8.9
			c0-0.1,0.2-0.2,0.3-0.3c0-1.8-0.3-3.5-0.7-5.2c-2.2-9.9-6.8-18.6-15.4-25.3c-5.7-4.4-12.2-7-19.8-7.6c-1.1,0.4-2.2,0.4-3.3,0
			c-2.5-0.1-4.9,0.2-7.2,0.8c0,0,0,0,0,0c-0.2,0-0.4,0.1-0.6,0.1c-0.2,0.2-0.4,0.5-0.6,0.7v0c0.6,0,1.1-0.1,1.5-0.5c0,0,0,0,0,0
			c-0.4,0.4-0.9,0.5-1.5,0.5c-0.3,0-0.5,0-0.7-0.1c0.2,0.1,0.5,0.1,0.7,0.1c0.2-0.2,0.4-0.5,0.6-0.7c-0.5,0.1-1,0.3-1.5,0.4
			c0,0,0,0,0,0c-0.2,0.1-0.4,0.1-0.6,0.2c-0.2,0.3-0.4,0.4-0.7,0.4c0.3,0,0.6,0,0.7-0.4c-0.4,0-0.7,0.1-1,0.3c0,0,0,0,0,0
			c-0.2,0-0.3,0.1-0.5,0.1c-0.2,0.4-0.4,0.7-0.8,0.6c0.4,0,0.6-0.3,0.8-0.6c-0.4,0.2-0.8,0.3-1.2,0.5c0,0,0,0,0,0
			c-0.1,0-0.2,0.1-0.3,0.1c-0.1,0.2-0.2,0.3-0.4,0.3c0.2,0,0.4-0.1,0.4-0.3c-0.2,0.1-0.4,0.2-0.7,0.3l0,0c0,0.3-0.2,0.3-0.4,0.3
			c0.2,0,0.3-0.1,0.4-0.3c-0.2,0.1-0.4,0.2-0.6,0.3c0,0,0,0,0,0c-0.3,0.1-0.6,0.3-0.9,0.4c0.4,0,0.8,0.1,0.9-0.4c0,0,0,0,0,0
			c0,0,0,0,0,0c-0.1,0.5-0.5,0.4-0.9,0.4c-0.1,0-0.2,0.1-0.3,0.1c-0.1,0.3-0.3,0.4-0.6,0.4c0,0.2,0,0.2-0.2,0.1
			c-2.9,1.3-5.3,3.1-7.7,5.1c-9,7.7-14.1,17.4-16.8,28.2c0.3,0.2,0.2,0.4-0.1,0.6l0,0.1c0.3,0.5,0.5,1.1-0.4,1.3
			c0,0.1,0,0.2-0.1,0.3c0.8,0.9-0.2,1.5-0.4,2.2l-0.2,0.5c0,0,0,0,0,0c0,0.2,0,0.4,0,0.6c0.1-0.1,0.4-0.2,0.4-0.3c0-0.1,0-0.1,0-0.1
			c0,0,0,0.1,0,0.1c0,0.1-0.3,0.2-0.4,0.3c-0.1,0.3-0.2,0.7-0.2,1.1c0,0,0,0,0,0c0,0.3-0.1,0.6-0.1,0.9c0.6-0.2,0.7-0.4,0.5-0.6
			c0.2,0.2,0.1,0.5-0.5,0.6c-0.1,0.3-0.1,0.6-0.2,0.9c0,0,0,0,0,0c-0.1,0.5-0.2,1.1-0.2,1.7c0.4-0.2,0.5-0.5,0.5-0.8
			c0,0.3-0.1,0.5-0.5,0.8c0,0.2,0,0.4-0.1,0.5c0,0,0,0,0,0c-0.1,0.6-0.1,1.1-0.2,1.7c0.2-0.3,0.6-0.6,0.6-1c0,0.4-0.4,0.7-0.6,1
			c0,0.3-0.1,0.6-0.1,0.8c0,0,0,0,0,0c-0.1,0.1-0.1,0.2,0,0.3c0,0,0.1,0,0.1-0.1c0,0,0,0,0,0c0,0,0,0-0.1,0.1c0,0.4,0,0.8,0,1.1
			c0,0,0,0,0,0c0,0,0,0,0,0c0,0.4-0.1,0.7-0.1,1.1l0,0c-0.2,0.5-0.2,0.9-0.1,1.4c0,0,0,0,0,0c-0.1,2.1-0.1,4.2-0.2,6.3
			c0,0.5,0.3,1.1-0.5,1.2c0.7,0.3,1,0.1,1-0.5c0,0.6-0.3,0.7-1,0.5c-1.8-0.5-3.6-0.4-5.4-0.3c-0.6,0-1.2,0-1.7-0.4
			c-2.3-1.6-4.9-1.5-7.4-0.5c-3.1,1.2-5.1,3.4-5.9,6.3c-0.6,2.1-1.4,4.1-2.6,6c-0.1,0.2-0.2,0.4-0.3,0.6c-2.8,6-2.6,12.2-1,18.5
			c0.2,0.9,0.3,1.8-0.2,2.6c-0.8,1.5-1.3,3.2-1.5,4.9c0.4,0.7,0.6,1.4-0.2,1.9c0,0.3,0,0.5,0,0.8c0.9,1,0.6,2,0.2,3
			c1.5,8,6.8,13,14.7,15.9c1.4,0.5,2.8,0.9,4.4,0.9c6.7,0.1,13.1-0.8,19.3-3.1c0.9-0.3,1.3-0.2,1.8,0.5c0.9,1.5,1.8,3,3.4,4
			c0.1-0.1,0.3-0.1,0.4-0.2c-0.1,0.1-0.3,0.1-0.4,0.2c1.5,1.4,3.3,1.5,5.3,0.9c2.2-1.1,3.5-3,4.8-4.8c0.5-0.7,1-1.4,1.6-2
			c0.6-0.7,1.5-1,2.4-0.4c1.2,0.4,2.2,1.1,3.2,1.8c2.3,1.6,4.5,3.3,6.9,5c2.6,1.8,5.5,2.9,8.8,2.5c3.8-1.3,5.8-4.1,7.7-7.1
			c1-1.6,1.9-3.3,3.2-4.7c1.1-1.1,2.3-2,4.2-1.8c1.7,0,3.1,0.7,4.5,1.4c1.8,0.8,3.5,1.7,5.4,2.2c3,0.9,5.6,0.2,7.6-2.1
			c0.5-0.5,0.9-1.1,1.4-1.7c1.9-2.5,3.9-3,7.2-2.3c4,0.8,8,0.7,11.8-0.9C150.2,126.4,151.1,125.1,151,123.4z M85.1,18.5
			c-1.5,0.4-2.8,0.7-4,1.1c0,0,0,0,0,0C82.3,19.3,83.6,19,85.1,18.5C85.1,18.5,85.1,18.5,85.1,18.5z M47.3,100.1
			c0.6-2.2,2.4-3.5,4.7-3.5c3.8-0.4,5.8,2.9,5.5,5.1c-0.1,0.4-0.1,1-0.6,1.2c-3.3,1.7-6.5,3.5-10.2,4.5c-0.3,0.3-0.7,0.6-1,0.4
			c-0.5-0.2-0.2-0.6-0.1-1C46.2,104.6,46.7,102.3,47.3,100.1z M50.4,90.4c-0.2-0.5,0.6-0.4,1-0.3c1.6-0.2,2.9,0.5,4.1,1.3
			c0.6,0.4,1.8,0.2,1.8,1c0,0.6-0.8,1.1-1.2,1.7c-0.6,1-1.4,1.4-2.6,0.9c-0.3,0-0.9,0-1-0.1C51.5,93.5,50.9,91.9,50.4,90.4z
			 M48.9,95.6c-0.3-1.7-0.5-3.4-1-5.2c1.1,0.4,1,1.2,1.4,1.7c0.3,0.5,0.5,1,0.8,1.5C50.7,94.7,50.6,95.5,48.9,95.6z M57.1,95.4
			c0.6-0.7,1.2-1.5,1.8-2.2c0.7-0.8,0.8-1.5,0.1-2.2c-1.6-0.5-3-1.1-4.5-1.8c-2.1-0.9-4.3-1.2-6.4,0.6c-0.2-2.5-0.3-4.8-0.5-7.1
			c-0.1-1,0.5-0.7,1-0.5c4,1.5,7.1,4,9.7,7.1c0.4,0.5,0.7,1,1.1,1.5c1.7,2.1,2.8,4.5,3.9,7.1c-1.8-0.5-3.6-0.7-5.3-0.7
			C56.8,97,56.5,96.1,57.1,95.4z M30.4,104.3c0.3-0.3,0.7-0.6,1-0.8c0.1-0.1,0.2-0.2,0.2-0.2s0.2-0.1,0.2-0.2c0,0,0.1-0.1,0.1-0.1
			c0.1-0.1,0.3-0.2,0.4-0.2c0,0,0.1,0,0.2-0.1c0.5-0.2,1-0.2,1.6-0.2c0.6-0.1,1.2-0.1,1.7,0c0.2,0,0.3,0.1,0.5,0.1
			c0.1,0,0.2,0,0.2,0.1c0.1,0,0.2,0.1,0.3,0.2c0.2,0.1,0.3,0.2,0.5,0.3c0.1,0.1,0.3,0.2,0.4,0.3c0.1,0,0.1,0.1,0.2,0.2
			c0.1,0,0.1,0.1,0.2,0.2c0.1,0.1,0.2,0.2,0.3,0.4c1,1.2,1.8,2.4,2.7,3.6c0.9,1.2,0.9,1.3-0.8,1.5c-0.2,0-0.4,0-0.6,0
			c-0.8,0.5-1.8,0.5-2.8,0.7c-0.2,0-0.4,0.1-0.6,0.1c-0.2,0-0.4,0-0.5,0.1c-1.3,0.1-2.6,0.3-3.9,0.4c-0.7,0.3-1.2,0.1-1.6-0.5
			C28.9,108.1,28.9,106,30.4,104.3z M24.6,101c-0.6-0.2-0.2-0.5,0-0.8c0.5-0.6,1.1-1.1,1.8-1.4c1.2-0.6,2.6-0.6,3.8-1.3
			c0.6-0.3,0.8,0,0.9,0.5c0.2,0.9,0.3,1.7,0.4,2.6c0.1,1-0.9,1.1-1.5,1.5c-0.2,0.2-0.4,0.6-0.7,0.5C27.8,102.1,26.2,101.6,24.6,101z
			 M39.1,102.4c-0.9-0.3-1.1-1-1.1-1.8c0.1-2.1,1.6-3.8,3.9-4.4c0,0,0,0,0,0c0.1,0,0.2-0.1,0.2-0.1c1.4-0.2,2.7,0,3.9,0.7
			c0.4,0.2,0.7,0.4,0.4,1c-1.6,3.2-1.7,6.8-2.9,10.3C42.1,106.2,40.6,104.3,39.1,102.4z M37.9,91.7c-0.9-0.8-0.5-1,0.5-1.1
			c2.2-0.5,4.2,0.1,6.4,0.2c-0.6,3.3-0.9,3.6-2.9,3.8c-0.6,0.4-1,0.2-1.4-0.3C39.7,93.4,38.8,92.5,37.9,91.7z M46.8,95.2
			c-1.6-0.5-1.6-0.5-0.4-3C46.6,93.3,46.9,94.2,46.8,95.2z M46.2,69.9c0,0.2-0.1,0.3-0.3,0.5C46.1,70.2,46.2,70.1,46.2,69.9z
			 M46.3,73.7c0,0.5-0.2,1.1-0.2,1.6C46,76.2,45.9,77,46,77.8c0-0.8,0.1-1.6,0.2-2.5C46.2,74.8,46.3,74.3,46.3,73.7
			C46.3,73.7,46.3,73.7,46.3,73.7z M46,88.2c0,0.2,0.2,0.5,0.1,0.5c-0.8,0.6-1.8,0.3-2.8,0.4c-0.7,0.1-1-0.2-1-0.9
			c-0.2-1.3-0.4-2.5-0.7-3.8c-0.1-0.5,0-0.8,0.7-0.6c0.1,0,0.2,0,0.3,0C45.8,84.3,45.8,84.3,46,88.2z M44.7,81
			c0.6,0.1,1.1,0.3,0.9,1c-0.2,0.8-0.8,0.3-1.2,0.3c-1-0.1-2-0.4-3-0.6c-0.5-0.1-1.1-0.2-1.2-1C41.8,80.6,43.2,80.9,44.7,81z
			 M25.8,87.8c0.2-3.1,1.4-5.6,4.2-7.4c3.3-2.1,7-1.3,8.9,2c0.9,1.7,1.3,3.5,1.5,5.3c0.1,0.7-0.2,0.9-1,1c-1.6,0.2-3.3,0.4-4,2.2
			c0.6,1.6,2.1,2.5,3.3,3.8c0.6,0.6,0.7,1-0.1,1.5c-1.1,0.8-1.8,2-2,3.3c-0.1,0.6-0.4,0.8-1,0.5c-1.5-0.5-2.9-0.8-3-2.8
			c-0.1-1.8-1-2.1-2.7-1.3c-0.5,0.2-0.8,0.3-1.2-0.1c-1.7-2.1-3-4.3-2.9-7.1c0-0.2-0.1-0.3-0.1-0.5C25.6,88.2,25.6,88,25.8,87.8z
			 M23.9,90.6c0.7,2.5,1.6,4.5,3.2,6.4c-1.7,0.6-3,1.4-4,2.6c-0.5,0.6-0.7,1-0.7,1.4c0,0.6,0.5,1,1.5,1.4c1.1,0.4,2.2,0.7,3.2,1.1
			c0.4,0.1,1.1,0.1,1,0.6c0,0.5-0.2,1-0.9,1.2c-2,0.7-3.6,1.8-5.1,3.4c-0.6-2.6-1-5.2-1-7.7C21.4,97.5,22.1,94.1,23.9,90.6z
			 M51.2,136.6c-2.3,0.5-4.7,1.2-7.1,1c-0.2,0-0.4,0-0.6,0.1c-0.2,0-0.4,0-0.6,0l-0.1,0l-0.1,0c-0.5,0.2-1,0.3-1.5,0.1
			c-1.2,0-2.5,0-3.7,0c-0.4,0.1-0.8,0.1-1.2-0.1c-2.3-0.5-4.3-1.6-6.3-2.6c-0.4,0-0.5-0.2-0.7-0.5c-0.2,0-0.3-0.1-0.3-0.3
			c-2-0.9-3.3-2.3-4.6-3.9c-2.7-3.3-4.2-7.1-3.8-11.2c0.3-4,1.4-7.9,5-10.8c0.5-0.4,1-0.7,1.6-1c0.5-0.2,0.6,0.1,0.5,0.5
			c0.1,0.3,0.2,0.5,0.3,0.8c0.7,1.9,0.7,1.9-1.4,2.1c0.9,0.8,2.4,1.2,4.6,1.2c3.5,0,6.8-0.6,10.1-1.4c5.6-1.4,11.1-3,16-6
			c0.9-0.6,1.8-1.2,2.5-2c0.2-0.4,0.5-0.8,0.7-1.2c-1-0.2-1.8-1.4-1.4-2.3c0.2-0.6,0.8-0.3,1.2-0.3c2.5,0.3,4.6,1.4,6.4,2.9
			c7.6,5.5,9.6,14.4,5.1,22.5c-0.8,1.4-1.6,2.6-2.6,3.9c-0.4,0.5-0.8,1.1-1.6,1.2c0,0,0,0,0,0c-0.1,0.1-0.2,0.1-0.3,0.2
			c-0.1,0.1-0.1,0.2-0.2,0.3c0,0-0.1,0.1-0.2,0.1c-0.1,0-0.1,0-0.2,0c-0.1,0.1-0.2,0.1-0.3,0.2l0,0.1c0,0,0,0,0,0l0,0
			c0,0.1,0,0.1-0.1,0.1C61.5,133.3,56.5,135.3,51.2,136.6z M63,141c0.2-0.1,0.5-0.3,0.6-0.5C63.5,140.7,63.2,140.9,63,141z
			 M146.7,125.9c-0.7,0.2-1.4,0.5-2.2,0.5c-2.4,0.4-4.8,0.5-7.2,0c-2.4-0.6-4.7-0.5-6.9,0.5c-0.1,0-0.2,0-0.3,0.1
			c-1.5,1.2-2.6,2.9-3.9,4.2c-1.1,1.1-2.4,2-4.2,1.4c-1.9,0-3.4-0.9-5-1.7c-1.5-0.7-3-1.4-4.6-1.8c-2.1-0.6-4.1-0.5-6,0.6
			c-1.9,1.5-3.2,3.3-4.3,5.3c-1,1.8-2.2,3.6-3.6,5.1c-1.3,1.4-2.9,2.5-5,2.4c-2.2,0-4-1-5.6-2.1c-3.3-2.3-6.4-4.8-9.9-7
			c-1.3-0.4-2.6-0.4-3.9-0.2c-0.4,0.2-0.8,0.5-1.2,0.7c-0.2,0.2-0.4,0.4-0.6,0.6h0c-1.3,1.7-2.3,3.5-3.9,5c-1.6,1.5-2.5,1.6-4.5,0.7
			c0,0,0,0,0,0c-0.4-0.5-0.9-0.9-1.3-1.3c0,0-0.1,0-0.1-0.1c-2.4-3-2.5-3.1,1.1-4.7c8.6-4,12.4-10.5,12.3-19.1c0-4.9-2.2-9-5.9-12.6
			c-0.7-0.6-1.3-1.2-2-1.9c-1.6-0.7-2.5-1.9-3.1-3.5c-2.5-6.5-6.5-12-13.3-15.6c-0.6-0.3-1.5-0.3-1.9-1c-2.3-0.4-2.3-0.4-2.2-2.3
			c0-1.5,0-2.9,0-4.4c0-0.1,0-0.2,0-0.3c0.5-11.6,2.8-22.8,8.8-33.2c4.6-7.9,10.9-14.3,19.8-18.4c1.1-0.5,2.3-1,3.5-1.5
			c0.5,0.2,0.8-0.1,1.2-0.3c-0.3-0.1-0.6-0.3-0.9-0.2c0.3-0.1,0.6,0.1,0.9,0.2c0.1,0,0.1,0,0.2,0c0,0,0,0,0,0c3.5-1,7-1.1,10.6-1.1
			c0,0,0,0,0.1,0c0.6,0.1,1.2,0.2,1.8,0.3c0.1,0,0.2-0.1,0.3-0.1c0,0,0,0,0,0c0.2,0,0.4,0,0.6,0.1c0,0,0,0,0,0
			c0.1,0,0.1,0.1,0.1,0.2c0.2,0,0.3,0.1,0.5,0.1c0.2,0,0.4-0.1,0.6-0.1c0,0,0,0,0,0c0.2,0.1,0.4,0.2,0.6,0.3
			c1.9,0.2,3.8,0.7,5.5,1.5c8.2,3,14.2,8.3,18.5,15.3c4.3,7,6.4,14.5,6.5,22.5c0.1,3.6,0,7.1,0.3,10.7c0.1,0.6-0.1,0.9-0.7,1
			c-0.7,0.2-1.4,0.6-2.2,0.5c-2,0.7-4,0.9-6,0.2c-0.6-0.2-1.2-0.3-1.5,0.3c-0.4,0.7,0.2,1.1,0.9,1.3c1.5,0.7,3.2,0.5,4.8,0.5l0,0
			c0,0,0,0,0,0c0.1,0,0.3,0,0.4-0.1c5.4-1.1,10.2-3.4,14.9-5.9c1.6-0.8,3.1-1.7,4.9-0.7c1.8,1,2.1,2.8,2,4.5
			c-0.1,2.3-0.8,4.5-2.5,6.4c-0.8,1.5-2.2,2.5-3.6,3.5c-1.4,1-2.4,2.2-2.7,3.8c-0.6,2.7-1.9,3.6-5,3.5c-0.9,0-1.8-0.2-2.7,0
			c-1.5,0.3-2.5,1.1-3.4,2.2c-1.5,2-3.1,2.1-5,0.6c-0.6-0.5-1.2-1.7-2.2-0.7c-0.9,1,0.4,1.6,1,2.1c2.8,2.1,5.7,1.8,7.8-0.9
			c0.3-0.4,0.5-0.9,1.2-1c1.7-1.2,3-0.8,3.5,1c2,6.8,3.8,13.7,7.8,19.8c2.4,3.7,5.3,7,8.9,9.7C149.9,123.4,149.6,124.9,146.7,125.9z
			"/>
		<path class="st13" d="M130.2,126.8C130.2,126.8,130.2,126.8,130.2,126.8L130.2,126.8C130.2,126.8,130.2,126.8,130.2,126.8z"/>
		<path class="st13" d="M128.2,55.7c0,3,0,6,0,8.9c0,0.4,0.3,0.3,0.5,0.2c0-3.2,0.3-6.3-0.2-9.5C128.3,55.5,128.2,55.6,128.2,55.7z"
			/>
		<path class="st13" d="M18.7,119.9c-0.1,1,0,2,0.2,3C19.3,121.9,19.6,120.8,18.7,119.9z"/>
		<path class="st13" d="M47.8,57.1c-0.1,0.7-0.3,1.5-0.4,2.2C47.6,58.6,48.6,58,47.8,57.1z"/>
		<path class="st13" d="M18.9,117.1c-0.1,0.6-0.1,1.3-0.2,1.9C19.6,118.5,19.3,117.8,18.9,117.1z"/>
		<path class="st13" d="M92.6,17.4c-1.1-0.1-2.2-0.2-3.3,0C90.4,17.8,91.5,17.8,92.6,17.4z"/>
		<path class="st13" d="M48.3,55.5c-0.4,0.4-0.2,0.9-0.4,1.3C48.8,56.6,48.5,56.1,48.3,55.5z"/>
		<path class="st13" d="M48.4,54.9c0,0.2-0.1,0.4-0.1,0.6C48.6,55.3,48.6,55.1,48.4,54.9z"/>
		<path class="st13" d="M73.1,21.5L73.1,21.5c-0.1,0-0.2,0-0.2,0.1C73.1,21.7,73.1,21.6,73.1,21.5z"/>
		<path class="st13" d="M61.2,53.3c-2.2,1.9-2.8,4.4-3,7c0,1.9,0.4,3.6,1.5,5.2c2.1,3,5.4,3,8,0.8c3.3-2.8,3.8-8.8,1.2-12.2
			C67,51.4,63.7,51.1,61.2,53.3z M66.6,61.3c-0.5,0.3-1.1,0.2-1.5-0.2c-0.9-0.9-1-1.9-0.7-3.1c0.1-0.3,0.2-0.6,0.4-0.9
			c0.4-0.6,0.9-1.2,1.8-1.1c0.9,0.1,1.2,0.8,1.4,1.4c0.1,0.3,0.1,0.6,0.2,0.9C68,59.6,67.8,60.7,66.6,61.3z"/>
		<path class="st13" d="M105.1,57c-4.2-0.6-9.1,1.6-11.3,4.9c-0.4,0.6-0.5,1.1,0,1.7c0.5,0.6,1.1,0.5,1.8,0.3c2.7-0.8,5.4-0.7,8,0.3
			c0.4,0.1,0.9,0.5,1.2,0.1c0.4-0.5-0.3-0.8-0.6-1.1c-1.5-1.2-3.4-1.7-5.3-2.1c1.4-1.2,3.2-2,6.4-2.9c0.4-0.1,1.2,0,1.1-0.7
			C106.2,56.9,105.5,57,105.1,57z"/>
		<path class="st13" d="M92.6,72.6C92.6,72.6,92.6,72.6,92.6,72.6c0.1-0.5,0.1-0.9-0.1-1.4c0,0,0,0,0,0c0-0.6,0-1.2-0.2-1.7
			c0,0,0,0,0,0l0-0.1l-0.1-0.1c0,0,0,0,0,0c-0.1-1.1-0.6-1.5-1.6-0.6c0,0,0,0,0,0c0,0,0,0,0,0c0,0,0,0,0,0c0,0,0,0,0,0
			c0,0.1-0.1,0.1-0.1,0.2c0.1,0,0.1-0.1,0.1-0.2c-0.1,0.1-0.2,0.1-0.3,0.2c0,0,0,0,0.1,0c0,0,0,0,0,0l-0.1,0c0,0.3-0.1,0.5-0.2,0.6
			c0.1-0.1,0.2-0.3,0.2-0.5c-0.3,0.2-0.5,0.4-0.8,0.6c0,0,0,0,0,0c0,0,0,0,0,0c0,0,0,0,0,0h0c-1,0.5-2,1-3,1.5c0,0,0,0,0,0
			c0,0,0,0,0,0c0,0,0,0,0,0c0,0,0,0,0,0c-0.1,0.1-0.2,0.2-0.2,0.3c0,0,0,0,0,0c-0.1,0-0.2,0-0.3,0.1c0,0,0,0,0,0
			c-1.3-0.1-2.5,0.4-3.7,0.5c0.3,0,0.6,0.1,0.8,0.1c-0.9,0-1.9,0.3-2.8,0.3c0.9,0,1.8-0.2,2.8-0.3c-0.3,0-0.6,0-0.8-0.1
			c-0.8,0-1.5,0-2.3,0c-0.2-0.1-0.4-0.1-0.6,0h0c-0.2,0-0.5-0.1-0.7-0.1c0,0,0,0,0,0c-1.8-0.4-3.7-0.8-5.5-1.2c-2-0.3-2-0.3-2.1,1.5
			c-0.1,1.4-0.1,2.8,0.2,4.1c0.6,3.2,1.9,6,4.9,7.9c0,0,0,0,0,0l0,0c0.1,0,0.1,0,0.1,0c-0.1,0-0.1,0-0.2,0c2.4,1.8,5.1,2.3,8.1,1.8
			c4.7-0.9,8.1-5.1,8.2-10.1c0,0,0,0,0,0l0.1-0.1l0-0.1v0c0.2-0.5,0.2-0.9,0.1-1.4c0,0,0,0,0,0C92.8,73.6,92.8,73.1,92.6,72.6z
			 M89.5,69.5C89.5,69.5,89.5,69.5,89.5,69.5c-0.1,0.1-0.2,0.3-0.3,0.4C89.3,69.7,89.4,69.6,89.5,69.5z M78.4,79.1L78.4,79.1
			C78.4,79.1,78.4,79.1,78.4,79.1C78.4,79.1,78.4,79.1,78.4,79.1L78.4,79.1C78.4,79.1,78.4,79.1,78.4,79.1c3.3-1.1,6.4-0.7,9.3,1.2
			c0.9,0.6,1.1,1.1,0.2,2c-3.2,3-8.7,2.8-11.7-0.4c-0.3-0.3-0.6-0.7-0.4-1.1c-0.2,0.2-0.3,0.3-0.5,0.5c0.1-0.2,0.3-0.3,0.5-0.5
			l-0.1,0c0.1-0.1,0.2-0.2,0.3-0.3c0,0,0,0,0,0C76.8,80,77.6,79.5,78.4,79.1"/>
		<path class="st13" d="M54.8,121.4c-1.7,1.3-3.5,2.4-5.6,3.1c-0.4,0.1-0.7,0.3-0.6,0.7c0.4,1.5-0.7,1.4-1.7,1.6
			c-1.8,1.1-1.4-0.8-2.1-1.3c-0.3,0-0.6,0.1-0.9,0.1c-2.1,0.1-2.4,0.6-1.5,2.4c1.1,2.3,2.9,3.9,5.5,4.8l0.1,0c1.2,0.1,2.5,0.1,3.7,0
			c0.2-0.1,0.5-0.2,0.7-0.3c1.5-0.3,2-1,1.2-2.3c-0.2-0.4-0.4-0.9,0.2-1.2c0.8-0.3,1.3-1.4,2.5-0.8c0.3,0.3,0.6,0.3,1,0
			c0.3-2.5,0.3-4.9-1.4-7C55.6,121.1,55.2,121.1,54.8,121.4z"/>
		<path class="st13" d="M63.3,112.9c-0.5-0.1-0.4-0.5-0.4-0.8c-0.6,0-0.6-0.4-0.6-0.8v0c0,0-0.1,0-0.1,0c0,0,0.1,0,0.1,0
			c-0.1-0.1-0.3-0.3-0.5-0.4c0,0,0,0,0,0c-0.1-0.1-0.2-0.2-0.2-0.3c-0.2-0.1-0.4-0.2-0.5-0.3c-0.3,0-0.5-0.1-0.8-0.2
			c0.2,0.3,0.4,0.5,0.7,0.6c-0.3-0.1-0.5-0.3-0.7-0.6c0,0,0.1,0,0.1-0.1c-2-0.4-3.8-0.1-4.9,1.5c-1.2,1.6-1.2,3.4,0,5.1
			c1.1,1.6,2.7,2.6,5,2.3c0-0.1,0-0.1,0-0.2l0,0c1-0.8,2.6-1.1,2.8-2.6C63.2,115.1,63.2,114,63.3,112.9L63.3,112.9z M62.1,111.2
			C62.1,111.2,62.1,111.2,62.1,111.2C62.1,111.2,62.1,111.2,62.1,111.2z M61.9,111.1c-0.1-0.1-0.1-0.1-0.1-0.2c0,0,0,0,0,0
			C61.8,111,61.8,111.1,61.9,111.1z"/>
		<path class="st13" d="M62.9,112.1C62.9,112.1,62.9,112.1,62.9,112.1c0,0.3-0.1,0.7,0.4,0.8C63.3,112.6,63.2,112.3,62.9,112.1
			c-0.1-0.4-0.3-0.6-0.6-0.8C62.3,111.7,62.3,112,62.9,112.1C62.9,112.1,62.9,112.1,62.9,112.1C62.9,112.1,62.9,112.1,62.9,112.1
			L62.9,112.1z"/>
		<path class="st13" d="M36.9,116.9c-0.1,0-0.1,0-0.2-0.1c-0.2,0-0.4-0.1-0.6-0.1c-0.8,0-1.6-0.2-2.3,0.2c0,0,0,0,0,0c0,0,0,0,0,0
			c-1.6,0.3-2.5,1.3-2.8,2.7c0,0,0,0,0,0l0,0c0,0,0,0,0,0c-0.1,0-0.2,0.1-0.1,0.3c-0.5,2.6,0.3,4.1,3.2,5.6l0.1,0
			c0.4,0,0.8,0.1,1.1,0.1c2.3-0.2,3.9-1.2,4.4-3.4C40.2,119.9,39,118.2,36.9,116.9z M33.3,118.1c-0.1,0-0.2,0-0.2,0c0,0,0,0,0,0
			c0,0,0,0,0,0C33.2,118.1,33.3,118.1,33.3,118.1z M32,120.7C32,120.7,32,120.7,32,120.7L32,120.7C32,120.7,32,120.7,32,120.7
			L32,120.7L32,120.7c-0.1-0.2-0.1-0.3-0.2-0.4C31.9,120.4,31.9,120.6,32,120.7C32,120.7,32,120.7,32,120.7
			C32,120.7,32,120.7,32,120.7z M31.7,119.6C31.7,119.6,31.7,119.6,31.7,119.6C31.7,119.6,31.7,119.6,31.7,119.6
			c0-0.5,0.3-0.7,0.8-0.4C32,118.9,31.7,119.1,31.7,119.6z M33,119.7c0.1,0,0.2,0,0.3-0.1c0,0,0,0,0,0c0,0,0,0,0,0
			C33.2,119.7,33.1,119.7,33,119.7z M33.4,119.4c0-0.2-0.3-0.5-0.4-0.7c0-0.1-0.1-0.1-0.1-0.2c0,0.1,0,0.1,0.1,0.2
			C33.1,118.9,33.5,119.2,33.4,119.4z M35.2,118.4c-0.4,0.4-0.9,0.4-1.3,0C34.3,118.8,34.8,118.8,35.2,118.4
			c0.3-0.3,0.9-0.6,0.7-1.1c-0.2-0.4-0.8-0.1-1.2-0.2c0,0,0,0,0,0c0,0,0,0,0,0c0.4,0,1-0.2,1.2,0.2
			C36.1,117.8,35.6,118.1,35.2,118.4z"/>
		<path class="st13" d="M49.8,119.9C49.8,119.9,49.8,119.9,49.8,119.9C49.8,119.9,49.8,119.9,49.8,119.9L49.8,119.9z"/>
		<path class="st13" d="M50.1,120.2C50.1,120.2,50.1,120.2,50.1,120.2C50.1,120.2,50.2,120.2,50.1,120.2L50.1,120.2z"/>
		<polygon class="st13" points="50.4,120.4 50.5,120.4 50.5,120.5 		"/>
		<path class="st13" d="M49.5,122.1c1-0.2,1.3-0.8,0.9-1.6c-0.2,0-0.3-0.1-0.3-0.3c-0.2,0-0.3-0.1-0.3-0.3c-0.7-0.4-1.2-1-1.7-1.6
			c-0.6-0.1-1.2-0.1-1.3,0.5c-0.1,1.3-1.3,2.6,0,3.9C47.7,122.5,48.6,122.3,49.5,122.1z"/>
		<path class="st13" d="M63.2,116.2c0.7-1.1,0.6-2.2,0-3.3C63.3,114,63.2,115.1,63.2,116.2z"/>
	</g>
</g>
</svg>
