<?xml version="1.0" encoding="utf-8"?>
<!-- Generator: Adobe Illustrator 25.0.0, SVG Export Plug-In . SVG Version: 6.00 Build 0)  -->
<svg version="1.1" id="Calque_1" xmlns="http://www.w3.org/2000/svg" xmlns:xlink="http://www.w3.org/1999/xlink" x="0px" y="0px"
	 viewBox="0 0 89 89" style="enable-background:new 0 0 89 89;" xml:space="preserve">
<style type="text/css">
	.st0{fill:#FFFFFF;}
</style>
<g>
	<path class="st0" d="M41.7,0c1.9,0,3.7,0,5.6,0c0.2,0,0.4,0.1,0.7,0.1c6.9,0.5,13.4,2.5,19.3,6.1c11.5,7.1,18.6,17.2,21,30.5
		c0.3,1.6,0.5,3.3,0.7,4.9c0,1.9,0,3.7,0,5.6c-0.1,0.6-0.2,1.1-0.2,1.7c-1,8.8-4.1,16.7-9.8,23.5C72,81,63.1,86.3,52.3,88.3
		c-1.6,0.3-3.3,0.5-5,0.7c-1.9,0-3.7,0-5.6,0c-1.1-0.1-2.2-0.2-3.3-0.4c-8.2-1.2-15.6-4.3-22-9.6C8,72,2.7,63.1,0.7,52.3
		c-0.3-1.6-0.5-3.3-0.7-5c0-1.9,0-3.7,0-5.6c0.1-0.6,0.1-1.1,0.2-1.7c1-9.4,4.6-17.8,10.9-24.9C18,7.3,26.6,2.5,36.9,0.7
		C38.5,0.4,40.1,0.2,41.7,0z M44.5,18.8c0,0.1,0,0.2,0,0.3c-3.6,0-7.3-0.1-10.9,0c-3,0.1-5.8,0.8-8.3,2.4c-4.2,2.8-6,6.9-6.1,11.7
		c-0.2,7.5-0.1,14.9,0,22.4c0,2.9,0.8,5.6,2.4,8c2.8,4.2,7,6,11.8,6.1c7.4,0.2,14.8,0.1,22.2,0c3.7-0.1,7.1-1.2,9.8-3.8
		c3.1-2.9,4.3-6.6,4.4-10.6C70,49.4,70,43.3,70,37.2c0-1.8-0.1-3.6-0.3-5.4c-0.7-6.9-5.6-11.9-12.5-12.5C53,19,48.7,19,44.5,18.8z"
		/>
	<path class="st0" d="M44.6,23.5c3.8,0.1,7.6,0.1,11.5,0.4c5.4,0.3,8.9,3.7,9.1,9.1c0.2,7.7,0.2,15.5,0,23.2
		c-0.1,5.4-3.7,8.9-9.1,9.1c-7.7,0.2-15.4,0.2-23.1,0c-5.5-0.1-9-3.6-9.1-9.1c-0.2-7.8-0.1-15.5,0-23.3c0.1-3.4,1.6-6.1,4.7-7.8
		c1.9-1,4-1.3,6.1-1.3c3.3,0,6.6,0,9.9,0C44.6,23.6,44.6,23.5,44.6,23.5z M57.6,44.5c0-7.2-5.8-13.1-13.1-13.1
		c-7.3,0-13.2,5.8-13.2,13.1c0,7.2,5.8,13.1,13.1,13.1C51.7,57.6,57.6,51.8,57.6,44.5z M61.2,30.8c0-1.7-1.4-3-3-3
		c-1.7,0-3.1,1.3-3.1,3.1c0,1.7,1.3,3,3,3C59.8,33.9,61.2,32.6,61.2,30.8z"/>
	<path class="st0" d="M53,44.5c0,4.7-3.8,8.5-8.5,8.5c-4.7,0-8.5-3.9-8.5-8.6c0-4.7,3.9-8.5,8.6-8.4C49.2,36,53,39.8,53,44.5z"/>
</g>
</svg>
