<?xml version="1.0" encoding="utf-8"?>
<!-- Generator: Adobe Illustrator 25.0.0, SVG Export Plug-In . SVG Version: 6.00 Build 0)  -->
<svg version="1.1" id="Calque_1" xmlns="http://www.w3.org/2000/svg" xmlns:xlink="http://www.w3.org/1999/xlink" x="0px" y="0px"
	 viewBox="0 0 1920 1080" style="enable-background:new 0 0 1920 1080;" xml:space="preserve">
<style type="text/css">
	.st0{fill:#717171;}
	.st1{fill:#686868;}
	.st2{fill:#5F534B;}
	.st3{fill:#7C7C7C;}
	.st4{fill:#747474;}
	.st5{fill:#9C9D9D;}
	.st6{fill:#574A41;}
	.st7{fill:#8C8C8C;}
	.st8{fill:#5E5E5E;}
	.st9{fill:#7A675B;}
	.st10{fill:#777777;}
	.st11{fill:#A8A8A9;}
	.st12{fill:#E5A27F;}
	.st13{fill:#FDFDFD;}
	.st14{fill:#D4D4D4;}
	.st15{fill:#EEA47E;}
	.st16{font-family:'Rockwell-Regular';}
	.st17{font-size:41.1061px;}
</style>
<g>
	<g>
		<g>
			<path class="st0" d="M806.5,519.5c0,0.6,0.1,1.3,0.1,1.9c0,2.1-1.2,4.4,1.4,5.9c0.1,0.9,0.3,1.8,0.4,2.8c-1.1,1.8-1.2,3.4,0.5,5
				c0.5,2.7,1.2,5.4,0.5,8.2c-0.2,2.5-1.3,5.1,0.9,7.3c0,5.6,0,11.2,0,16.9c-2,2.9-1.6,5.9-0.5,8.9c-0.3,2.2-0.5,4.4-0.8,6.6
				c-1.6,1.1-1.7,2.4-0.4,3.8c-0.2,0.9-0.4,1.7-0.7,2.6c-3.5,0.2-2.8-2.5-3.2-4.5c0.1-1.1,0.2-2.1,0.2-3.2c2.1-2.4,1.7-5,0.5-7.6
				c0.2-2.6,0.4-5.2,0.6-7.9c2.4-4,2.4-7.9,0-11.9c-0.6-3.5-1.1-6.9-0.6-10.4c1.3-2.2,1.4-4.3-0.4-6.3c-0.1-1.5-0.2-3-0.3-4.5
				c0.2-1.7,0.7-3.3-1-4.6c-0.1-1.5-0.2-2.9-0.3-4.4c-1.2-17.2-8.2-32.8-14-48.6c-1.8-4.9-2.9-10.4-6.6-14.4
				c-0.5-1.1-0.9-2.1-1.4-3.2c-1.8-7.1-4.1-13.9-7.9-20.2c-0.4-1.2-0.7-2.3-1.1-3.5c1.4-2.3-2.6-5.2,0.6-7.4
				c3.5,6.1,3.4,13.3,7.8,18.7c0.8,2,1.6,4,2.3,6c0.4,3.6,1.6,6.8,4.1,9.6c0.4,1.1,0.8,2.1,1.2,3.2c3.1,12.2,8.9,23.5,12.3,35.7
				C802.6,506.5,803.2,513.4,806.5,519.5z"/>
			<path class="st1" d="M607.3,536.9c-0.3-6.4,1.3-12.5,2.1-18.8c3.9-6.1,4.6-13.1,5.9-20c2-5.7,1.5-12.3,6.5-16.8
				c0.1-0.7,0.2-1.4,0.3-2.1c-0.3-0.8,0-1.3,0.7-1.7c0.2,0.1,0.4,0.2,0.6,0.4c2.5,3.9-1.9,7.1-1.1,10.9c-0.3,0.3-0.5,0.7-0.8,1
				c-1.5,1.9-2.5,4-2,6.5c-0.1,0.4-0.3,0.8-0.4,1.2c-0.9,0.4-1.1,1.2-1,2.1c-2.6,6.9-4.7,14-4.9,21.5c-0.1,1.2-0.1,2.4-0.2,3.6
				c-1.8,1.5-1.7,3.2-0.7,5c-0.2,0.9-0.3,1.7-0.5,2.6c-2.2,1.7-1.4,3.9-0.9,6c-0.2,2.8-0.3,5.6-0.5,8.4c-2.2,8.7-2.3,17.3,0,26
				c0.1,2.4,0.3,4.7,0.4,7.1c-0.5,2.5-1.4,5.1,1,7.2c0,0.9-0.1,1.7-0.1,2.6c-1,0.1-2.1,0.1-3.1,0.2c-1.8-2.2-1.2-4.9-1.4-7.4
				c0.4-2.1,1.1-4.1-0.9-5.8c-1.1-11.2-1.1-22.5,0-33.7C608.4,541,607.8,539,607.3,536.9z"/>
			<path class="st2" d="M698.5,532.2c-0.5-2-0.9-3.9-1.4-5.9c0.9-2.5-0.8-4.6-1.1-6.9c0.8,0,1.7,0,2.5,0c0.4,3.1,1.3,6.1,2.9,8.8
				c-0.5,2.3-0.1,4.2,2,5.5c0.2,0.8,0.4,1.6,0.5,2.4c-0.3,3,0.5,5.7,2.5,8l0,0c0,0.5,0,1,0,1.5c1.2,0.7,2.1,4.4,3.7,0.3
				c0.8-1.9,1.6-3.8,2.4-5.7c1-0.8,1.9-1.6,2.9-2.5c0.5,2.7,0.9,5.4,1.4,8.1c-1.7,5.6-3.4,11.2-5,16.9c-1.9,0.3-3.8,0.7-5.7,1
				c-1.9-6.3-2.5-13-5.9-18.8C703.2,540,702.3,535.9,698.5,532.2z"/>
			<path class="st3" d="M780.9,445.5c-4.4-5.4-4.3-12.6-7.8-18.7c-3.2,2.2,0.8,5.1-0.6,7.4c-5.5-10.2-5.7-21.4-6.5-32.5
				c-0.1-1.8,0.6-3.5,2.9-3.5c1.9,0,2.8,1.4,2.7,2.9C770.9,416.7,776.7,430.9,780.9,445.5z"/>
			<path class="st4" d="M648.2,415.6c1.2,7.4-2,14-4.3,20.5c-3.7,10.2-6.6,20.8-12.7,29.9c-0.2-4.1,3.5-7.2,2.7-11.4
				c1.6-1,3.1-2.1,1.8-4.4c-2.1,0.9-1.8,2.7-1.9,4.3c-0.8,0.5-1.6,0.9-2.4,1.4c5.4-15.5,11.1-30.9,13.9-47.1
				c1.7,8.3-3.3,15.8-3.3,25.4C646.5,427.7,644.9,420.9,648.2,415.6z M637.1,447c1.8-3.4,4.5-6.5,4.2-11.7
				C638.4,439.3,637.3,442.9,637.1,447z"/>
			<path class="st3" d="M717,545.6c-0.5-2.7-0.9-5.4-1.4-8.1c0,0,0,0,0,0c2.9-4.4,3.5-9.5,5.4-14.8c-1.7,0.8-2.8,1.3-3.8,1.9
				c0.9-2.6,2.2-5.1,2.7-7.8c0.8-4.2,4.2-8.3,0.8-12.7c3.5-1.3,3.6,1.9,4.8,4.8c0.6-3.6,2.1-5.8,1.6-8.5c4.2-0.6,2.8,1.9,2.1,3.9
				c-2.2,6.7-4.6,13.4-6.5,20.2c-0.7,2.3-3.7,6.2,2.6,6c1.7,0,1.8,1.6,0.9,2.8C723.2,537.5,720.1,541.6,717,545.6z M721.9,531.6
				c-0.1-0.1-0.3-0.3-0.4-0.4c-0.1,0.1-0.3,0.3-0.4,0.4c0.2,0.1,0.4,0.3,0.6,0.4C721.7,531.8,721.8,531.7,721.9,531.6z"/>
			<path class="st3" d="M782.8,461c3.8,4.1,4.8,9.5,6.6,14.4c5.8,15.9,12.8,31.4,14,48.6c-3.6-5.6-3.3-12.3-5.1-18.4
				c-3.8-12.7-8.2-25.2-13.4-37.4C783.9,465.9,782.4,463.7,782.8,461z"/>
			<path class="st5" d="M712.9,602.4c0.3,1.4,0.6,2.7,0.9,4.1c-1.1,1.1-0.7,1.8,0.5,2.4c0,0.9-0.1,1.7-0.1,2.6c-0.9,0-1.7,0-2.6,0.1
				c-1.7-0.9-0.5-2.7-1.2-4c-0.5-2.2,1.1-4.8-1.3-6.7c-2.2,2.5-1,5.3-1.4,7.9c-0.2,1.6,0.2,3.9-2.4,3.8c-2-0.1-2.1-1.9-1.8-3.5
				c2-8,1.9-16.2,2.4-24.4c0-0.7,0.9-1.3,1.4-2c0.1,2.9,0.5,5.8,0.4,8.7c-0.1,3,1.5,3.5,3.9,3.3c0.1,1.5,0.3,3,0.4,4.5
				C711.7,600.4,711.6,601.6,712.9,602.4z"/>
			<path class="st6" d="M727.1,500.4c0.4,2.7-1,4.9-1.6,8.5c-1.2-2.9-1.4-6-4.8-4.8c-6.3,0-12.5-0.1-18.8,0c-3,0.1-6.4-0.3-8,3.3
				c-0.1,0.6-0.2,1.1-0.3,1.7c-0.7-0.1-1.3-0.2-2-0.2c-0.3-1.1-0.6-2.1-0.9-3.2c0.2-1.7,0.4-3.5,0.6-5.2c3.4,0,6.8,0,10.2-0.1
				c1.8,1.2,3.5,1.2,5.3,0c1.3,0,2.5,0,3.8,0c2.6,1.3,5.2,1.3,7.9,0C721.1,500.4,724.1,500.4,727.1,500.4z"/>
			<path class="st3" d="M806.5,519.5c-3.3-6.1-4-13-5.8-19.5c-3.4-12.2-9.2-23.5-12.3-35.7c5.4,6.7,7.1,15.2,9.8,23
				C801.9,497.7,806.1,508.1,806.5,519.5z"/>
			<path class="st7" d="M698.5,532.2c3.9,3.7,4.7,7.8,1.9,12.5c-2.5-3.4-5-6.8-7.5-10.1c-0.8-1.1-2.6-2.1-1.2-3.7
				c1.4-1.5,2.7-0.1,3.8,0.8C696.4,532.5,697.4,532.6,698.5,532.2z"/>
			<path class="st8" d="M711.6,594.6c-2.4,0.3-4-0.3-3.9-3.3c0.1-2.9-0.2-5.8-0.4-8.7c0-2.4,0-4.7,0-7.1c0.1-1.7,0.3-3.3,0.4-5
				c0.1-1.1-0.3-3,1.6-2.5c1.4,0.3,0.9,2.1,1.2,3.3c0.1,1.4,0.2,2.8,0.3,4.2c0,1.9,0,3.9,0,5.8c-0.6,2.3-0.9,4.5,0.2,6.8
				C711.3,590.3,711.5,592.4,711.6,594.6z"/>
			<path class="st8" d="M648.2,415.6c-3.3,5.3-1.6,12.1-6.2,18.5c0-9.5,5-17.1,3.3-25.4c0-1.6,0.1-3.2,0.1-4.7
				c0.8-0.9,1.5-1.7,3-3.4c0,4.9,0,8.9,0,12.9C648.2,414.2,648.2,414.9,648.2,415.6z"/>
			<path class="st7" d="M610.6,572.6c-2.3-8.7-2.3-17.3,0-26C611.7,555.3,611.6,564,610.6,572.6z"/>
			<path class="st8" d="M631.3,455.8c0.8-0.5,1.6-0.9,2.4-1.4c0,0,0.1,0.1,0.1,0.1c0.8,4.2-2.9,7.4-2.7,11.4
				c-1.2,3.1-2.4,6.1-3.5,9.2c-1.7,0.5-1.9,3.1-4.2,2.7c-0.2-0.2-0.4-0.3-0.6-0.4c0.5-1.6,1-3.1,1.5-4.7c2.8-4,5.3-8,5.8-13
				c0.9-0.8,1.1-1.9,0.9-3C630.9,456.4,631,456.1,631.3,455.8z"/>
			<path class="st4" d="M648.3,413.5c0-4,0-8,0-12.9c-1.5,1.6-2.2,2.5-3,3.4c-1.1-2.7-1.4-5.5,2.2-5.8c2.9-0.2,2.8,2.8,2.6,4.9
				C649.7,406.6,651,410.4,648.3,413.5z"/>
			<path class="st5" d="M710.6,571.3c-0.3-1.2,0.2-3-1.2-3.3c-1.9-0.4-1.5,1.4-1.6,2.5c-0.2,1.6-0.3,3.3-0.4,5
				c-2.9-3.8-2.1-7.9-1.1-12c1.9-0.3,3.8-0.7,5.7-1c-0.1,2.9-0.2,5.8-0.3,8.8C711.3,571.3,710.9,571.3,710.6,571.3z"/>
			<path class="st7" d="M613.2,521c0.3-7.5,2.4-14.5,4.9-21.5c0,0,0.3,0.3,0.3,0.3C619,507.4,616,514.2,613.2,521z"/>
			<path class="st3" d="M773.5,437.6c3.9,6.2,6.2,13.1,7.9,20.2C777.4,451.7,774.7,444.9,773.5,437.6z"/>
			<path class="st7" d="M615.3,498.2c-1.3,6.9-2,13.9-5.9,20C610.7,511.3,611,504.1,615.3,498.2z"/>
			<path class="st9" d="M698.6,519.4c-0.8,0-1.7,0-2.5,0c-0.4,0-0.9,0-1.3,0c-0.7-2-1.3-4-2-6.1c0.3-0.1,0.6-0.3,0.9-0.5
				c1.5-0.9,1-2.4,1.1-3.8c0.2-0.2,0.3-0.3,0.5-0.5C697,512,699.1,515.3,698.6,519.4z"/>
			<path class="st10" d="M623.4,477.9c2.2,0.4,2.5-2.2,4.2-2.7c-0.7,4.9-2.1,9.6-5.3,13.6C621.5,485,625.9,481.8,623.4,477.9z"/>
			<path class="st10" d="M630.1,459.8c-0.5,5-3,9-5.8,13c0.5-4.8,2.4-9.1,5.2-13.1C629.5,459.8,630.1,459.8,630.1,459.8z"/>
			<path class="st3" d="M806.1,554.3c2.4,3.9,2.4,7.9,0,11.9C805.1,562.2,805.2,558.3,806.1,554.3z"/>
			<path class="st3" d="M804.8,584.9c0.4,1.9-0.3,4.7,3.2,4.5c-0.2,2.6-2.1,2.6-3.4,1.5C802.4,589,803.1,586.8,804.8,584.9z"/>
			<path class="st3" d="M809.8,576.3c-1.1-3-1.6-6,0.5-8.9C811,570.4,811.2,573.4,809.8,576.3z"/>
			<path class="st3" d="M787.3,461.1c-2.4-2.7-3.7-6-4.1-9.6C785.9,454.1,786.9,457.5,787.3,461.1z"/>
			<path class="st11" d="M707.7,608.7c0.4-2.6-0.8-5.4,1.4-7.9c2.4,2,0.8,4.6,1.3,6.7C709.5,607.9,708.6,608.3,707.7,608.7z"/>
			<path class="st3" d="M805.6,574.1c1.2,2.6,1.6,5.2-0.5,7.6C804.5,579.1,804.3,576.5,805.6,574.1z"/>
			<path class="st3" d="M805.1,537.6c1.8,2,1.6,4.1,0.4,6.3C804.2,541.9,804.5,539.7,805.1,537.6z"/>
			<path class="st11" d="M711.1,588.1c-1.2-2.2-0.8-4.5-0.2-6.8C713.3,583.5,713.4,585.8,711.1,588.1z"/>
			<path class="st7" d="M612,586.9c-2.4-2.1-1.5-4.7-1-7.2C612.7,581.9,612.9,584.3,612,586.9z"/>
			<path class="st3" d="M810.3,550.5c-2.1-2.2-1.1-4.8-0.9-7.3C811.3,545.5,811,548,810.3,550.5z"/>
			<path class="st3" d="M694.8,519.4c0.4,0,0.9,0,1.3,0c0.3,2.3,2,4.4,1.1,6.9C695.3,524.3,694.3,522.1,694.8,519.4z"/>
			<path class="st3" d="M808,527.2c-2.6-1.5-1.4-3.8-1.4-5.9C808.4,523,808.7,525,808,527.2z"/>
			<path class="st7" d="M612.4,529.6c-1.1-1.8-1.1-3.6,0.7-5C614.1,526.4,614.2,528.1,612.4,529.6z"/>
			<path class="st7" d="M607.3,536.9c0.5,2.1,1.2,4.2-0.8,5.9C605.2,540.6,605.7,538.7,607.3,536.9z"/>
			<path class="st10" d="M619.6,496.2c-0.5-2.5,0.5-4.6,2-6.5C622,492.2,621.5,494.4,619.6,496.2z"/>
			<path class="st7" d="M611,538.2c-0.5-2.1-1.3-4.3,0.9-6C612.8,534.4,612.7,536.4,611,538.2z"/>
			<path class="st3" d="M808.9,534.9c-1.7-1.5-1.6-3.2-0.5-5C809.8,531.5,809.6,533.2,808.9,534.9z"/>
			<path class="st7" d="M606.4,576.5c2,1.7,1.3,3.8,0.9,5.8C605.7,580.6,605,578.7,606.4,576.5z"/>
			<path class="st3" d="M691.1,500.4c-0.2,1.7-0.4,3.5-0.6,5.2C689.1,503.7,686.1,501.6,691.1,500.4z"/>
			<path class="st3" d="M803.8,528.5c1.6,1.3,1.2,2.9,1,4.6C803.4,531.8,803,530.3,803.8,528.5z"/>
			<path class="st3" d="M808.7,586.8c-1.3-1.4-1.2-2.7,0.4-3.8C809.7,584.3,809.6,585.6,808.7,586.8z"/>
			<path class="st3" d="M691.4,508.8c0.7,0.1,1.3,0.2,2,0.2c0,0,0,0,0,0c0.1,1.3,0.1,2.5,0.2,3.8c-0.3,0.2-0.5,0.4-0.9,0.5
				C691.5,512.1,691,510.6,691.4,508.8z"/>
			<path class="st3" d="M718.2,500.4c-2.6,1.3-5.3,1.3-7.9,0C712.9,499.7,715.6,499.6,718.2,500.4z"/>
			<path class="st11" d="M710.6,571.3c0.4,0,0.7,0,1.1,0c1.4,1.7,1,3.1-0.8,4.3C710.8,574.1,710.7,572.7,710.6,571.3z"/>
			<path class="st11" d="M712.9,602.4c-1.3-0.8-1.2-2-0.9-3.3C713,600,714.2,600.9,712.9,602.4z"/>
			<path class="st7" d="M608.7,589.7c1-0.1,2.1-0.1,3.1-0.2c-0.4,0.6-0.6,1.6-1.1,1.7C609.6,591.6,609,590.7,608.7,589.7z"/>
			<path class="st11" d="M714.3,608.9c-1.2-0.6-1.6-1.4-0.5-2.4C715.2,607.1,715.2,607.9,714.3,608.9z"/>
			<path class="st11" d="M711.6,611.5c0.9,0,1.7,0,2.6-0.1c0,0.9-0.2,1.7-1.2,1.7C712,613.2,711.7,612.4,711.6,611.5z"/>
			<path class="st3" d="M706.5,500.3c-1.8,1.2-3.5,1.3-5.3,0C703,499.7,704.7,499.7,706.5,500.3z"/>
			<path class="st10" d="M622.1,479.2c-0.1,0.7-0.2,1.4-0.3,2.1C619.2,480.2,622.3,479.9,622.1,479.2z"/>
			<path class="st4" d="M630.1,459.8c0,0-0.6-0.1-0.6-0.1c-0.3-1.4,0.4-2.3,1.5-3C631.2,458,631,459,630.1,459.8z"/>
			<path class="st10" d="M618.4,499.8c0,0-0.3-0.3-0.3-0.3c0-0.9,0.1-1.7,1-2.2C618.9,498.2,618.7,499,618.4,499.8z"/>
			<path class="st12" d="M698.6,519.4c0.5-4.1-1.6-7.4-3.4-10.9c-0.5-0.4-1-0.8-1.5-1.2c1.7-3.6,5-3.2,8-3.3c6.3-0.1,12.5,0,18.8,0
				c3.5,4.4,0.1,8.5-0.8,12.7c-0.5,2.7-1.8,5.2-2.7,7.8c-0.1,0.8-0.3,1.6-0.4,2.4c-1.5,1.5-1.4,3.3-1.4,5.2l-0.1-0.1
				c-2,2.2-2.5,5-2.6,7.9c-0.8,1.9-1.7,3.8-2.4,5.7c-1.6,4.1-2.5,0.4-3.7-0.3c0.6-0.5,0.8-1,0-1.5c0,0,0,0,0,0
				c-0.1-2.9,0.3-5.9-2.5-8c-0.2-0.8-0.4-1.6-0.5-2.4c0.6-2.3-0.4-4-2-5.5C699.9,525.5,699,522.5,698.6,519.4z"/>
			<path class="st9" d="M704,536c2.8,2,2.4,5.1,2.5,8C704.5,541.7,703.7,539.1,704,536z"/>
			<path class="st9" d="M712.7,540.1c0.1-2.9,0.6-5.6,2.6-7.9c0.1,1.8,0.2,3.6,0.3,5.4c0,0,0,0,0,0
				C714.6,538.4,713.7,539.2,712.7,540.1z"/>
			<path class="st9" d="M701.5,528.2c1.6,1.5,2.6,3.2,2,5.5C701.4,532.3,701,530.4,701.5,528.2z"/>
			<path class="st9" d="M706.5,544c0.9,0.5,0.7,1,0,1.5C706.5,545,706.5,544.5,706.5,544z"/>
			<path class="st8" d="M637.1,447c0.1-4.1,1.2-7.7,4.2-11.7C641.6,440.5,638.9,443.6,637.1,447z"/>
			<path class="st8" d="M633.7,454.5c0.2-1.6-0.2-3.4,1.9-4.3c1.3,2.3-0.2,3.4-1.8,4.4C633.8,454.6,633.7,454.5,633.7,454.5z"/>
			<path class="st2" d="M715.6,537.6c-0.1-1.8-0.2-3.6-0.3-5.4c0,0,0,0.1,0.1,0.1c2.2-1.3,1.4-3.3,1.4-5.2c0.1-0.8,0.3-1.6,0.4-2.4
				c1.1-0.5,2.2-1,3.8-1.9C719.1,528.1,718.5,533.2,715.6,537.6z"/>
			<path class="st13" d="M721.9,531.6c-0.1,0.1-0.1,0.3-0.2,0.4c-0.2-0.1-0.4-0.3-0.6-0.4c0.1-0.1,0.3-0.3,0.4-0.4
				C721.6,531.3,721.8,531.4,721.9,531.6z"/>
			<path class="st9" d="M693.8,507.4c0.5,0.4,1,0.8,1.5,1.2c-0.2,0.2-0.3,0.3-0.5,0.5c-0.4,0-0.9,0-1.3,0c0,0,0,0,0,0
				C693.5,508.5,693.7,508,693.8,507.4z"/>
			<path class="st6" d="M693.4,509.1c0.4,0,0.9,0,1.3,0c-0.1,1.3,0.4,2.9-1.1,3.8C693.6,511.6,693.5,510.3,693.4,509.1z"/>
			<path class="st9" d="M716.7,527.1c0,1.8,0.8,3.9-1.4,5.2C715.4,530.4,715.3,528.5,716.7,527.1z"/>
		</g>
		<g>
			<path class="st4" d="M382.8,424.2c-1.9,14.4-8.4,27.2-14.2,40.1c-17.1,38.3-25.3,77.9-19.8,119.8c0.3,1.9,0.9,4.5-1.7,4.8
				c-3.4,0.5-3.3-2.5-3.6-4.9c-4.6-32.7-1-64.7,10.2-95.6c7.5-20.7,16-41,24.1-61.5c1.3-0.8,1.4-2,1.1-3.3c-0.3-2.5,0.7-4.8,1.4-7.1
				C386.2,417.5,380.5,422.2,382.8,424.2z"/>
			<path class="st0" d="M522.3,456.8c0.4,1.1,0.8,2.1,1.2,3.2c1.2,5.9,3.1,11.4,6.8,16.3c0.7,2,1.5,4,2.2,6
				c3.3,12.7,6.6,25.4,9.9,38.2c0.8,1.7-0.4,4.2,2.1,5.2c1,4.3,1.6,8.7,1.4,13.1c-1.1,2.4-0.3,5-0.5,7.5c-1,0-1.9,0-2.9-0.1
				c-0.1-1.2-0.2-2.3-0.2-3.5c2.3-1.6,2.9-3-0.4-4.2c-2.4-12.3-4.8-24.7-7.1-37c-0.2-7.4-3.8-13.9-6.3-20.5
				c-3.1-8.3-5.1-17.1-10.7-24.3c-0.4-1.1-0.8-2.2-1.2-3.2c-1.3-5.7-2.9-11.4-6.4-16.2c-1-1.3-1.5-2.8-1.4-4.5
				c0.9-1.7-1.6-3.6,0.4-5.5c2.6,2.1,2.6,5.3,3.7,8C515.8,442.5,517.3,450.4,522.3,456.8z"/>
			<path class="st9" d="M478.8,506c-4.1,9.5-10.8,17.4-15.9,26.3c-3.3,5.8-7.4,11-11.1,16.5c-0.5,0.5-1,1-1.5,1.4
				c-2-1.9-4.2,0.8-6.2-0.1c7.8-8.7,12.9-19.1,19.5-28.6c3.6-5.2,8.2-10,9.5-16.6c-1-2.9-3.4-1.4-5.1-1.5c-17.5-0.2-35-0.3-52.5-0.5
				c2.2-1.3,4.6-0.8,7-0.8c15.1,0,30.2,0.1,45.3-0.1C471.9,502,475.9,502.1,478.8,506z"/>
			<path class="st6" d="M478.8,506c-2.8-3.9-6.8-3.9-11.2-3.9c-15.1,0.2-30.2,0-45.3,0.1c-2.3,0-4.8-0.5-7,0.8
				c-1,0.3-2.3,0.4-2.5,1.8c-1-0.4-2-0.7-3.1-1.1c-2.6-3.1,1.5-3.1,2.1-4.7c2.8,0,5.7,0,8.5,0c0.6,0.7,1.2,0.7,1.8,0
				c19.3,0,38.5,0,57.8,0c0.2,1.6,0.4,3.1,0.6,4.7C480,504.4,479.4,505.2,478.8,506z"/>
			<path class="st3" d="M522.3,456.8c-4.9-6.4-6.4-14.3-9.5-21.5c-1.1-2.6-1.1-5.9-3.7-8c-2,2,0.5,3.8-0.4,5.5
				c-5.8-10.2-5.5-21.4-6-32.6c-0.1-1.5,0.6-3.4,2.5-3.1c2.8,0.4,2.9,3,2.8,5.1c-0.2,12.1,3.4,23.4,6.9,34.7
				C517,443.7,521.2,449.7,522.3,456.8z"/>
			<path class="st2" d="M409.9,503.7c1,0.4,2,0.7,3.1,1.1c0.4,0.1,0.9,0.1,1.3,0.1c8.3,15.8,19,30.1,28.6,45.1
				c-0.1,1.2-0.4,2.3-1.6,2.8c-0.7-0.5-1.4-1-2.2-1.4c-9.7-15-19.4-30-29.1-45C409.9,505.5,409.9,504.6,409.9,503.7z"/>
			<path class="st3" d="M382.8,424.2c-2.3-2.1,3.4-6.8-2.5-7.7c-1-5.3,1.1-10.5,0.7-15.9c-0.2-1.9,0.8-3.4,3-3.3
				c1.8,0.1,2.6,1.4,2.6,3.1C386.4,408.6,386.2,416.7,382.8,424.2z"/>
			<path class="st5" d="M444.1,607.3c-0.5,1.1-1,2.6-2.6,2.2c-1.4-0.4-1.6-1.9-1.3-3.2c1-4.5,2.1-8.9,3.1-13.4c3,0.3,3.3-1.6,3.4-4
				c0.1-3.1,0.3-6.2,0.5-9.3c2.7,2.4,1.3,5.7,1.6,8.6c0.6,6,0.1,12.1,1.8,18c0.4,1.4,0.5,3.3-1.6,3.6c-1.6,0.2-2-1.3-2.3-2.6
				c-0.1-2.3,0.4-4.8-2.2-6.9C444.4,602.6,444.2,604.9,444.1,607.3z"/>
			<path class="st3" d="M517.7,456.7c5.5,7.2,7.5,16,10.7,24.3c2.5,6.7,6.1,13.1,6.3,20.5C529,486.6,523.3,471.7,517.7,456.7z"/>
			<path class="st3" d="M545.3,546.3c0.2-2.5-0.6-5.1,0.5-7.5c2.3,12.3,2.3,24.7,0.1,37c-1.3-1.9-0.4-4.1-0.7-6.2
				C545.3,561.8,545.3,554.1,545.3,546.3z"/>
			<path class="st3" d="M542.4,520.4c-3.3-12.7-6.6-25.4-9.9-38.2c5.8,12,9.1,24.8,10.8,38C543,520.3,542.7,520.3,542.4,520.4z"/>
			<path class="st5" d="M450.2,550.2c0.5-0.5,1-1,1.5-1.4c-2.3,8.6-1.8,17.8-4.5,26.4c-0.2-2.2-0.5-4.5-0.5-6.7
				c0-2.4-0.6-4.1-3.4-3.9c-1.2-0.7-1.1-1.6-0.5-2.6c1.8,0,3.6-0.5,3.7-2.5C446.4,555.7,449,553.3,450.2,550.2z"/>
			<path class="st8" d="M443.3,564.5c2.8-0.1,3.4,1.5,3.4,3.9c0,2.2,0.3,4.5,0.5,6.7c0,1.5,0,3,0,4.5c-0.2,3.1-0.4,6.2-0.5,9.3
				c-0.1,2.3-0.4,4.2-3.4,4c0-1.6,0-3.1,0-4.7c1.2-2.8,1.1-5.7,0.3-8.5c0-1.9,0-3.9,0-5.8c0.6-1.6,0.7-3.1-0.2-4.7
				C443.3,567.6,443.3,566,443.3,564.5z"/>
			<path class="st0" d="M545.3,569.6c0.3,2-0.6,4.2,0.7,6.2c0.4,2.8,0,5.5-0.9,8.1c-0.3,0-0.7,0-1,0c-1.2,0-2.4,0-3.6,0
				c0.7-4.7,1.3-9.5,2-14.2C543.4,569.7,544.3,569.6,545.3,569.6z"/>
			<path class="st6" d="M450.2,550.2c-1.2,3-3.8,5.4-3.8,9.1c0,2-1.8,2.6-3.7,2.5c-0.6-2.1-1.1-4.1-1.7-6.2c0-0.9,0.1-1.9,0.1-2.8
				c1.2-0.6,1.5-1.6,1.6-2.8c0.4,0.1,0.8,0.1,1.2,0.2C446,551.1,448.2,548.4,450.2,550.2z"/>
			<path class="st8" d="M545.3,569.6c-1,0-1.9,0-2.9,0.1c0-7.8,0-15.7,0-23.5c1,0,1.9,0,2.9,0.1
				C545.3,554.1,545.3,561.8,545.3,569.6z"/>
			<path class="st3" d="M510.1,437.3c3.5,4.8,5.1,10.5,6.4,16.2C512.8,448.7,510.8,443.3,510.1,437.3z"/>
			<path class="st3" d="M530.3,476.3c-3.7-4.8-5.6-10.4-6.8-16.3C527.2,464.8,529.1,470.4,530.3,476.3z"/>
			<path class="st5" d="M409.9,503.7c0,0.9,0,1.8,0.1,2.7c-0.6-0.5-1.6-0.9-1.9-1.6c-0.8-1.8-3.7-3.3-2-5.5c1.4-1.9,3.9-1.1,5.9-0.4
				C411.4,500.6,407.2,500.6,409.9,503.7z"/>
			<path class="st14" d="M444.1,607.3c0.1-2.3,0.3-4.7,0.4-7c2.5,2.2,2.1,4.6,2.2,6.9C445.8,607.2,445,607.3,444.1,607.3z"/>
			<path class="st11" d="M443.6,579.7c0.8,2.9,0.9,5.7-0.3,8.5C441.3,585.3,440.9,582.4,443.6,579.7z"/>
			<path class="st5" d="M480.6,503.7c-0.2-1.6-0.4-3.1-0.6-4.7c1.2-0.6,2.8-0.9,3.2,0.5C483.9,501.4,482.7,503,480.6,503.7z"/>
			<path class="st3" d="M544,583.9c0.3,0,0.7,0,1,0c0,2.7,1,6.4-4.1,4.2C542.8,587.2,544,586,544,583.9z"/>
			<path class="st8" d="M544,583.9c0,2.1-1.2,3.4-3,4.2c-1.6-1.2-1.2-2.7-0.6-4.2C541.6,583.9,542.8,583.9,544,583.9z"/>
			<path class="st7" d="M542.4,520.4c0.3-0.1,0.6-0.1,0.9-0.2c1.2,1.6,2,3.3,1.2,5.4C542,524.6,543.2,522.1,542.4,520.4z"/>
			<path class="st11" d="M443.4,569.2c0.9,1.5,0.8,3.1,0.2,4.7C441.4,572.4,441.2,570.8,443.4,569.2z"/>
			<path class="st8" d="M541.8,538.5c3.3,1.1,2.6,2.6,0.4,4.2C542,541.3,541.9,539.9,541.8,538.5z"/>
			<path class="st5" d="M441.2,552.8c0,0.9-0.1,1.9-0.1,2.8c-2-0.8-1.9-2.6-2-4.3C439.8,551.8,440.5,552.3,441.2,552.8z"/>
			<path class="st3" d="M378.9,423.6c0.2,1.3,0.2,2.5-1.1,3.3C376.8,425.4,377.8,424.5,378.9,423.6z"/>
			<path class="st5" d="M422.2,498.9c-0.6,0.7-1.2,0.7-1.8,0C421.1,498.9,421.6,498.9,422.2,498.9z"/>
			<path class="st15" d="M444,550.1c-0.4,0-0.8-0.1-1.2-0.2c-9.7-15-20.4-29.3-28.6-45.1c19.6,0,39.2,0,58.8,0
				c-1.3,6.6-5.9,11.4-9.5,16.6C456.9,531,451.7,541.4,444,550.1z"/>
			<path class="st12" d="M473,504.9c-19.6,0-39.2,0-58.8,0c-0.4,0-0.9,0-1.3-0.1c0.2-1.4,1.4-1.5,2.5-1.8c17.5,0.1,35,0.2,52.5,0.5
				C469.6,503.4,472,502,473,504.9z"/>
		</g>
		<g>
			<path class="st0" d="M1044.6,437.3c1.1,1.8,2.1,3.6,2.1,5.7c-0.2,1.4-0.2,2.7,1.4,3.3c0.9,0.9,1.3,2,1.2,3.3
				c1.9,6.6,4.1,13.1,8.1,18.8c1.9,4.1,3.9,8.1,4.8,12.6c-0.1,3.1,0.3,6,2.8,8.1c11.3,30.6,14.1,62,9.4,94.2c-0.3,2.1-0.7,4-3.4,3.6
				c-2-0.3-2-2.1-1.8-3.6c3.9-29.3,1.4-58.1-6.2-86.6c-0.1-0.2,0-0.4,0-0.6c0.2-3.2-0.2-6.2-2.8-8.4c-0.4-1.1-0.7-2.2-1.1-3.2
				c-2.3-10.4-5.9-20.2-11.7-29.2c-0.4-1.1-0.8-2.2-1.3-3.3c0.2-1.3,0.2-2.6-1.3-3.2c-1.5-1.8-2.2-3.9-2.5-6.1
				C1043,440.9,1041.4,438.1,1044.6,437.3z"/>
			<path class="st1" d="M878.3,521c-0.1,1.1-0.2,2.1-0.3,3.2c-2.4,2-1.5,4.6-1.1,7.1c-0.1,1.5-0.2,3.1-0.3,4.6
				c-2.5,4.8-1.4,9.8-1,14.8c0,3.5,0,7,0,10.6c-0.4,4.6-1.5,9.2,0.9,13.5c0.1,1.5,0.2,3.1,0.4,4.6c-0.9,1.6,0.5,3.8-1.6,5.1
				c-2.7-1.8-0.1-5.5-2.7-7.2c-0.1-0.7-0.1-1.4-0.2-2.2c0.1-5.4,1.3-10.8-1-16c0-2.6,0-5.2,0-7.8c2.3-4.8,1.2-9.8,0.9-14.8
				c0.1-1.1,0.3-2.2,0.4-3.4c1.6-1.3,1.3-2.9,0.7-4.6c0.1-1.5,0.2-3,0.3-4.4c2.2-1.5,1.6-3.7,1.2-5.7c0.1-0.7,0.1-1.4,0.2-2.1
				c2.7-4.6,3.1-9.8,3.6-14.9c0.1-0.7,0.3-1.3,0.4-2c1.2-0.7,1.3-1.8,1-3.1c0.5-1.6,0.9-3.1,1.4-4.7c3.1-4.4,4.2-9.6,5.2-14.7
				c0.4-1.1,0.8-2.2,1.2-3.3c1.5-0.7,1.8-1.8,1.3-3.3c0.4-1.1,0.9-2.1,1.3-3.2c1.5-0.7,1.8-1.8,1.3-3.3c0.4-1.1,0.9-2.1,1.3-3.2
				c1.4-0.6,1.7-1.8,1.4-3.2c1.7-4.1,3.4-8.3,5.2-12.4c1.4-0.7,1.7-1.8,1.3-3.2c0.4-1.1,0.8-2.2,1.3-3.3c1.4-0.7,1.7-1.8,1.3-3.2
				c2.6-9.7,5.6-19.4,6.9-29.4c2.3-3.3,0.9-6.9,1.2-10.4c0,0,0,0,0,0c0.9,0,1.8,0,2.8,0c0,0,0,0,0,0c-0.3,3.7-0.9,7.3,0.3,11
				c-0.1,0.7-0.1,1.4-0.2,2c-3,6.8-3.4,14.3-4.8,21.5c-0.5,1.4-0.9,2.9-1.4,4.3c-3.1,4-4.5,8.7-5.3,13.6c-0.4,1.1-0.8,2.2-1.2,3.2
				c-1.5,0.6-1.8,1.7-1.4,3.2c-0.5,1.1-0.9,2.2-1.4,3.3c-1.9,1.5-2.8,3.4-2.5,5.8c-0.7,2-1.5,3.9-2.2,5.9c-3.7,4.2-4.5,9.5-5.7,14.7
				c-0.4,1.1-0.8,2.3-1.2,3.4C881.9,498.2,879.6,509.4,878.3,521z"/>
			<path class="st2" d="M981.6,533.3c0,1.3,0,2.6,0,3.9c-1.3,4-2.4,7.9,2.4,10.4c-0.7,2.9-1.4,5.7-2.1,8.6c-1.1,3.6-3.6,5-7.2,5
				c-0.6,0-1.3,0-1.9,0c-1.4-0.6-2.8-0.5-4.1,0.1c-0.9-0.2-1.9-0.5-2.8-0.7c-0.1-1.2-0.1-2.4-0.2-3.6c-1.8-5.8,0.7-11.5,0.2-17.3
				c0-3.6,0.2-7.1-0.1-10.7c-0.3-4.2,1.2-5.9,5.4-5.1c1.8,0.8,3.6,0.8,5.5,0c1.2,0.1,2.5,0.2,3.7,0.3
				C981,527.1,979.7,530.4,981.6,533.3z M969.9,541.7c0,3.7,0,7.3,0,11c0,2.5,0.7,4.1,3.6,4.1c2.6,0,4.1-0.9,4-3.7
				c-0.1-7.1-0.1-14.2,0-21.3c0-2.8-1.2-3.8-3.9-3.8c-2.9,0-3.7,1.5-3.7,4C970,535.2,969.9,538.5,969.9,541.7z"/>
			<path class="st0" d="M1133.4,577.4c-0.1-1.9-0.2-3.8-0.4-5.7c0.1-2.5,1.2-5.1-1.1-7.3c-0.9-9.1-0.9-18.1,0-27.2
				c2.5-2.6,1.1-5.7,1.1-8.6c0.1-1.5,0.2-3,0.3-4.4c1.7-3.7,2.5-7.5,1.8-11.5c0.1-0.9,0.3-1.8,0.4-2.7c2.6-2.3,2.3-5.7,3-8.7
				c3.3-13,7-25.9,13-38c0.4,0,0.9,0,1.3,0c0.5,3.9-3.4,6.8-2.4,10.8c-0.5,1.1-0.9,2.3-1.4,3.4c-3.2,5.9-5.3,12.2-6.3,18.9
				c-0.1,0.6-0.2,1.2-0.2,1.8c-2,2.5-2.8,5.4-2.3,8.6c0,0.6-0.1,1.2-0.1,1.7c-1.9,1.2-1.5,3-1.2,4.8c-0.1,1-0.2,2-0.2,3.1
				c-4,9-3,18.7-3.8,28.1c-0.5,5.7-1.8,11.8,1.3,17.4c0.4,1.9,0.7,3.7,0.1,5.6c-0.3,3.2-0.7,6.3,0.2,9.4c0.3,1,0.8,2.3-0.7,2.4
				C1135,579.3,1134.2,578,1133.4,577.4z"/>
			<path class="st4" d="M1329.3,517.6c-0.1-0.7-0.1-1.3-0.2-2c0.3-5.7-1.3-11-3.6-16.1c-0.1-0.7-0.2-1.3-0.3-2
				c0.6-3.6-2.1-6.4-2.1-9.9c1.1-0.5,1.2-1.5,1.3-2.5c0.9,1.3,1.7,2.6,2.6,4c0.5,1.9,1,3.8,1.6,5.8c-0.4,1.3-0.3,2.5,1.1,3.3
				c0.1,0.6,0.2,1.2,0.3,1.8c-0.2,3.1,0.3,6,2.3,8.6c0.1,1.1,0.2,2.1,0.3,3.2c0,4.7,0.3,9.3,2.2,13.7c0.1,1.5,0.3,3,0.4,4.5
				c-0.3,2.5-1.3,5.1,0.9,7.2c0.6,9.1,0.7,18.1-0.1,27.2c-2.1,2.1-1.2,4.7-1,7.1c-0.1,1.1-0.1,2.1-0.2,3.2c-2,1.6-1.3,3.8-1.1,5.8
				c-0.8,1-1.8,1.3-2.9,0.6c-0.1-1.5-0.3-3-0.4-4.5c0.1-1.1,0.2-2.2,0.3-3.2c2.2-2.6,1.3-5.6,0.9-8.5c0.1-3.2,0.2-6.4,0.3-9.6
				c2-2.2,2-4.4,0-6.6c-0.1-3.7-0.2-7.3-0.2-11c0.2-3.7,1.4-7.6-1-11c-0.2-1.5-0.3-2.9-0.5-4.4
				C1330.7,520.6,1331,518.9,1329.3,517.6z"/>
			<path class="st11" d="M974.7,561.1c3.6,0,6.1-1.4,7.2-5c0.2,0.8,0.7,1.7,0.6,2.5c-2.2,15.5-0.8,30.9,1.6,46.2
				c0.3,1.6,0.5,4-1.7,4.3c-2.6,0.3-2.8-2.3-3.1-4.1c-2.6-11.9-3.2-23.9-2.7-36C976.7,566.2,976.9,563.4,974.7,561.1z"/>
			<path class="st5" d="M1230.2,548.7c-1.1-2.5-2-5-2-7.7c0.9-0.4,1.8-0.9,2.7-1.3c0.8-0.1,1.7,0,2.1-1.1c0.5-1.5-0.6-4,1.7-4.4
				c2.5-0.5,1.7,2.9,3.5,3.9c3.2-5.5,5.7-11.4,10.5-15.5c0.9-0.8,1.9-2.2,3.3-1.2c1.2,0.8,1.2,2.5,0.1,3.4
				c-8.2,7.6-10.1,18.2-13.7,28c-0.4,0-0.8,0-1.1,0.1c-0.2-2.2,0-4.8-2.5-5.9c-0.5-0.2-1.8,1.3-2.8,2
				C1231.4,548.8,1230.8,548.7,1230.2,548.7z"/>
			<path class="st8" d="M1152.9,463.2c-0.4,0-0.9,0-1.3,0c1-2.8,2.2-5.6,3-8.5c1.9-7,7.4-12.7,7.3-20.3c4.3-11.7,7.4-23.7,9.1-36
				c2.5-1.4,0.3-4.7,3.1-7.3c0,5.5,0,9.9,0,14.4c-0.1,1.1-0.2,2.2-0.3,3.3c-1.3,0.8-1.2,2.2-1.5,3.4
				C1167.4,429.8,1161.1,446.9,1152.9,463.2z"/>
			<path class="st3" d="M1161.8,434.4c0.1,7.7-5.3,13.4-7.3,20.3c-0.8,2.9-2,5.6-3,8.5c-6,12.1-9.6,25-13,38c-0.8,3-0.4,6.4-3,8.7
				c0.6-12,5.3-22.9,9-34C1149.3,461.7,1155.2,447.9,1161.8,434.4z"/>
			<path class="st3" d="M1152.9,463.2c8.2-16.4,14.5-33.5,19.3-51.1c0.3-1.2,0.2-2.6,1.5-3.4c0.6,8.4-3.2,15.8-5.8,23.3
				c-5,14.3-11,28.3-17.4,42C1149.5,470,1153.4,467.1,1152.9,463.2z"/>
			<path class="st5" d="M965.8,539.6c0.5,5.8-1.9,11.5-0.2,17.3c-3-1.9-2.6-5.4-3.4-8.1c-2-6.8-5.4-12.6-9.8-17.9
				c-1.1-1.4-2.8-2.7-1-4.3c1.8-1.5,3.1,0.4,4.3,1.5c2.7,2.5,4.7,5.6,6.5,8.8C963,538.3,963.3,540.4,965.8,539.6z"/>
			<path class="st10" d="M1310.3,445.1c1.2,1.8,2.2,3.8,2.4,6c-0.3,1.3,0,2.4,1.4,3.1c0.4,1.1,0.9,2.2,1.3,3.3
				c-0.6,3.1,2.3,5.3,2.3,8.3c-0.8,0-1.6,0.1-2.4,0.1c-2.1-3.4-2.2-7.9-5.6-10.6c-1.3-3.3-2.6-6.5-3.9-9.8c-1.4-5.6-2.9-11.2-6.2-16
				c-0.1-0.8-0.3-1.5-0.4-2.3c1.2-0.6,1.7-1.7,1.8-3C1304.6,430.9,1305.7,438.8,1310.3,445.1z"/>
			<path class="st5" d="M984,547.5c-4.9-2.5-3.7-6.5-2.4-10.4c1,1,1.9,3.6,3.3,0.3c1.7-4,4.8-7.1,7.8-10.2c1-1,2.1-1.6,3.4-0.4
				c0.9,0.9,1.1,2.1,0.1,2.9C990.3,534.5,988,541.6,984,547.5z"/>
			<path class="st7" d="M1296.5,419.5c-4.9-8.8-4.4-18.5-4.6-28.1c0-1.7,0.9-2.9,2.8-2.8c1.8,0.1,2.8,1.2,2.9,2.9
				c0,3.6,1,7.2-0.4,10.8c-2.9-2.4-0.2-6.4-2.5-9.4c-1.3,7.4,0.8,14.1,1.2,20.9c0.3,0.9,0.5,1.8,0.8,2.8
				C1296.6,417.5,1296.5,418.5,1296.5,419.5z"/>
			<path class="st3" d="M1136.2,561.9c-3.1-5.6-1.7-11.7-1.3-17.4c0.7-9.4-0.2-19.1,3.8-28.1C1137.9,531.5,1137,546.7,1136.2,561.9z
				"/>
			<path class="st5" d="M1233.3,599.4c-0.1,1.3-0.2,2.7-1.8,2.9c-1.8,0.2-2.1-1.2-2-2.5c0.1-1.4,0.6-2.8,0.9-4.3
				c1.6-0.6,1.6-1.9,1.3-3.3c0.1-3.2,0.3-6.5,0.4-9.7c0.4,0,0.8,0,1.2,0c0.2,2.6,1.6,4,4.2,4.1c1.5,5,2.4,10.1,2.5,15.4
				c-0.9,0-1.9,0-2.8,0c-0.3-1-0.7-2.1-1-3.1c-0.5-2.1,0.7-4.4-1.2-6.7C1232.7,594.5,1233.5,597.1,1233.3,599.4z"/>
			<path class="st7" d="M966.8,584.6c-0.2-6.7-0.4-13.5-0.7-20.2c0.8,0,1.6,0.1,2.4,0.1c0.5,2.6-1,5.5,1.4,7.7c0,2.2,0,4.3,0,6.5
				c-1.9,6.6-2.8,13.2-2.1,20.1c-0.1,1.5-0.3,3-0.4,4.5c-1.3,0.8-1.3,1.9-0.9,3.2c-0.3,0.8-0.5,2-1.5,1.6c-1.8-0.6-1.8-2.4-1.3-3.8
				c1.8-5.4,1.9-11,2.4-16.6C967.3,586.9,967.3,585.8,966.8,584.6z"/>
			<path class="st8" d="M1237.4,586.6c-2.6-0.2-4-1.5-4.2-4.1c-0.1-1.4-0.3-2.8-0.4-4.2c0-4.1,0.1-8.2,0.1-12.4
				c0.1-1.8,0.2-3.6,0.3-5.4c0.5-1.3,0.9-2.5,1.4-3.8c0.9,0.4,1.7,0.8,2.6,1.2c-0.2,3.3-0.4,6.6-0.5,9.9c-0.9,2.5-1,4.9,0.1,7.4
				C1237,579,1237.2,582.8,1237.4,586.6z"/>
			<path class="st2" d="M1315.3,465.9c0.8,0,1.6-0.1,2.4-0.1c0.5,0.5,1,1,1.5,1.6c0.9,2.4,1.8,4.8,2.7,7.2c-1.3,4,2.7,6.8,2.5,10.6
				c-0.1,1-0.3,2-1.3,2.5c-0.4-0.4-0.8-0.8-1.2-1.2c-2.3-6.4-4.6-12.8-6.8-19.2C1315.1,466.8,1315.2,466.4,1315.3,465.9z"/>
			<path class="st6" d="M1036.4,426.8c-0.6-3.3-2.3-6.4-2-9.9c1.1-5.3-0.8-10.5-0.8-15.7c0-1.7-0.7-4.4,2.7-2.8
				c0,1.6,0.1,3.2,0.1,4.8c-0.2,2.3-0.8,4.8-0.4,7c1.1,6.5,2.6,12.9,4,19.3C1038.5,429,1038.4,426.7,1036.4,426.8z"/>
			<path class="st7" d="M1036.3,398.4c-3.5-1.6-2.7,1.1-2.7,2.8c0,5.2,1.9,10.4,0.8,15.7c-3.2-6.2-3-13-3-19.6c0-2,1.4-3.4,3.3-3.1
				C1037,394.6,1037.9,396.2,1036.3,398.4z"/>
			<path class="st10" d="M1047.5,455.4c5.8,9,9.4,18.8,11.7,29.2C1054.2,475.3,1050.7,465.4,1047.5,455.4z"/>
			<path class="st10" d="M1036.4,426.8c2-0.1,2.1,2.2,3.6,2.7c0.6,0,1.1,0.1,1.7,0.1c1.5,2.4,3.2,4.7,2.9,7.7
				c-3.2,0.8-1.6,3.6-2.2,5.5C1038.8,438.1,1037.9,432.3,1036.4,426.8z"/>
			<path class="st7" d="M878.3,521c1.3-11.5,3.6-22.8,8.8-33.3C884.7,498.9,882.2,510.1,878.3,521z"/>
			<path class="st3" d="M1174,405.4c0-4.5,0-8.9,0-14.4c-2.8,2.6-0.6,5.9-3.1,7.3c-0.9-3.2-1.3-6.3,0.9-9.1c0.3-0.4,1.8-0.5,2.4-0.1
				c3.3,2.2,1.5,5.5,1.6,8.3C1175.8,400.2,1176.2,403.1,1174,405.4z"/>
			<path class="st7" d="M1041.7,429.6c-0.6,0-1.1-0.1-1.7-0.1c-1.4-6.4-2.9-12.8-4-19.3c-0.4-2.2,0.3-4.7,0.4-7
				C1038.7,411.9,1040.5,420.7,1041.7,429.6z"/>
			<path class="st7" d="M1310.3,445.1c-4.6-6.3-5.7-14.2-9.3-20.9c-0.5-0.2-1.1-0.3-1.6-0.5c0,0,0,0.1,0,0.1
				c0.6-0.7,1.3-1.4,1.9-2.2C1305.3,429.1,1308.4,436.9,1310.3,445.1z"/>
			<path class="st5" d="M1222.5,529.5c-1.9-0.4-2.3-2.3-3.5-3.5c-1.2-1.2-4.8-2.2-1.9-4.6c2.2-1.9,3.7,0.7,5.2,2.1
				c1.7,1.6,3.2,3.4,3.5,5.8C1224.7,529.3,1223.6,529.4,1222.5,529.5z"/>
			<path class="st7" d="M909.4,430.2c1.4-7.2,1.8-14.6,4.8-21.5C915.2,416.4,913.1,423.5,909.4,430.2z"/>
			<path class="st3" d="M1133.4,577.4c0.8,0.7,1.6,1.9,2.4,1.9c1.5-0.1,1-1.4,0.7-2.4c-0.9-3.1-0.5-6.3-0.2-9.4
				c2.6,2.9,0.9,6.7,2.2,9.9c0.8,1.9,0.8,4.2-1.8,4.6C1133.4,582.4,1132.7,580.2,1133.4,577.4z"/>
			<path class="st11" d="M967.8,598.7c-0.7-6.8,0.2-13.5,2.1-20.1C971.8,585.6,970.9,592.3,967.8,598.7z"/>
			<path class="st7" d="M872.5,577.3c2.6,1.7,0,5.4,2.7,7.2c2.1-1.3,0.8-3.6,1.6-5.1c1.5,1.2,1.6,2.9,1.7,4.6c0,1.6-0.6,2.9-2.3,3.3
				c-2.1,0.5-3.3-0.7-3.7-2.5C871.9,582.3,871.3,579.8,872.5,577.3z"/>
			<path class="st10" d="M1057.3,468.4c-4-5.7-6.2-12.2-8.1-18.8C1053.3,455.3,1055.9,461.6,1057.3,468.4z"/>
			<path class="st7" d="M1222.5,529.5c1.1-0.1,2.2-0.2,3.3-0.2c2.8,2.9,4.7,6.3,5.1,10.4c-0.9,0.4-1.8,0.9-2.7,1.3
				C1226.3,537.2,1224.4,533.3,1222.5,529.5z"/>
			<path class="st3" d="M1142.8,496.4c1-6.7,3.1-13,6.3-18.9C1147.8,484,1146.2,490.5,1142.8,496.4z"/>
			<path class="st7" d="M871.2,559.2c2.4,5.2,1.1,10.6,1,16C869.5,570,870.2,564.6,871.2,559.2z"/>
			<path class="st7" d="M1325.5,499.5c2.3,5.1,3.9,10.4,3.6,16.1C1326.2,510.6,1325.5,505.1,1325.5,499.5z"/>
			<path class="st2" d="M1295.9,413.7c-0.4-6.8-2.6-13.5-1.2-20.9c2.3,3.1-0.4,7,2.5,9.4c0,0.8,0,1.6,0,2.4c-1.4,3.2,1.2,6,1,9
				C1297.3,413.7,1296.6,413.7,1295.9,413.7z"/>
			<path class="st2" d="M1232,548.8c1-0.7,2.3-2.2,2.8-2c2.5,1.1,2.3,3.6,2.5,5.9c-0.9,0.9-1.7,1.8-2.6,2.7
				c-0.8-0.1-1.6-0.2-2.5-0.3c-0.2-1.2-0.4-2.3-0.6-3.5C1231.7,550.7,1231.9,549.8,1232,548.8z"/>
			<path class="st7" d="M1299.6,429.5c3.3,4.9,4.8,10.4,6.2,16C1302,440.8,1300.3,435.4,1299.6,429.5z"/>
			<path class="st7" d="M872.2,536.6c0.3,5,1.3,10-0.9,14.8C870.1,546.4,869.6,541.4,872.2,536.6z"/>
			<path class="st7" d="M875.5,550.7c-0.4-5-1.5-10,1-14.8C877.4,540.9,878.1,545.9,875.5,550.7z"/>
			<path class="st7" d="M1298,413.7c0.2-3.1-2.3-5.8-1-9c2.9,4.4,3.6,9.3,3.5,14.4c-1.5-0.5-1.7-1.9-2.2-3.2
				C1298.3,415.2,1298.1,414.4,1298,413.7z"/>
			<path class="st7" d="M886.5,477.1c-1,5.2-2,10.3-5.2,14.7C881.8,486.4,882.8,481.3,886.5,477.1z"/>
			<path class="st7" d="M878.6,501.5c-0.5,5.1-0.9,10.3-3.6,14.9C874.7,511.1,875.2,506,878.6,501.5z"/>
			<path class="st7" d="M888.3,484.2c1.2-5.2,2-10.5,5.7-14.7C892.9,474.8,891.7,479.9,888.3,484.2z"/>
			<path class="st11" d="M969.9,572.2c-2.4-2.2-0.9-5.2-1.4-7.7c0.1-1.1,0.1-2.1,0.2-3.2c1.4-0.7,2.7-0.7,4.1-0.1
				C969.1,564.1,972.2,568.8,969.9,572.2z"/>
			<path class="st7" d="M876.5,574.8c-2.5-4.4-1.3-9-0.9-13.5C877.9,565.6,877.5,570.2,876.5,574.8z"/>
			<path class="st7" d="M1324.3,485.2c0.2-3.8-3.8-6.6-2.5-10.6c3.4,4.3,4.8,9.2,5.1,14.6C1326.1,487.9,1325.2,486.5,1324.3,485.2z"
				/>
			<path class="st7" d="M1334.6,525.5c-1.9-4.4-2.2-9-2.2-13.7C1335,516.1,1336,520.6,1334.6,525.5z"/>
			<path class="st7" d="M902.7,448.1c0.9-4.9,2.2-9.6,5.3-13.6C908,439.7,905.9,444.1,902.7,448.1z"/>
			<path class="st7" d="M914.4,406.6c-1.2-3.6-0.6-7.3-0.3-11C917.6,399.2,916.5,402.9,914.4,406.6z"/>
			<path class="st7" d="M1315.3,465.9c-0.1,0.4-0.2,0.9-0.3,1.3c-3-3.4-4.8-7.4-5.3-12C1313.1,458,1313.2,462.5,1315.3,465.9z"/>
			<path class="st3" d="M1135.2,512.7c0.8,4-0.1,7.8-1.8,11.5C1132.3,520.1,1133.4,516.3,1135.2,512.7z"/>
			<path class="st7" d="M911.4,395.7c-0.3,3.5,1.1,7.2-1.2,10.4C909.6,402.5,908.1,398.8,911.4,395.7z"/>
			<path class="st7" d="M1330.6,526.7c2.5,3.5,1.2,7.3,1,11C1329.3,534.3,1329.9,530.5,1330.6,526.7z"/>
			<path class="st5" d="M981.6,533.3c-1.9-2.8-0.5-6.1-1.3-9.1C984,526.7,982.6,530,981.6,533.3z"/>
			<path class="st7" d="M1319.2,467.4c-0.5-0.5-1-1-1.5-1.6c0-3-2.9-5.2-2.3-8.3C1318.1,460.2,1319.5,463.5,1319.2,467.4z"/>
			<path class="st10" d="M1065,489.2c-2.5-2.2-2.9-5.1-2.8-8.1C1064.4,483.3,1065.2,486,1065,489.2z"/>
			<path class="st3" d="M1133.1,528.6c0,2.9,1.4,6-1.1,8.6C1131.3,534.2,1131,531.2,1133.1,528.6z"/>
			<path class="st7" d="M1321.8,486.5c0.4,0.4,0.8,0.8,1.2,1.2c0,3.4,2.7,6.3,2.1,9.8C1322.4,494.3,1321.9,490.5,1321.8,486.5z"/>
			<path class="st7" d="M1331.5,564.9c0.4,2.9,1.3,5.9-0.9,8.5C1329.8,570.5,1329.5,567.6,1331.5,564.9z"/>
			<path class="st10" d="M1060.3,487.8c2.6,2.2,3,5.2,2.8,8.4C1060.9,493.9,1060.5,490.9,1060.3,487.8z"/>
			<path class="st11" d="M1233.3,599.4c0.2-2.3-0.6-4.9,1.5-7.1c1.9,2.2,0.7,4.6,1.2,6.7C1235.2,599.1,1234.3,599.3,1233.3,599.4z"
				/>
			<path class="st3" d="M1140.2,506.8c-0.5-3.2,0.3-6.1,2.3-8.6C1143,501.4,1142.2,504.2,1140.2,506.8z"/>
			<path class="st7" d="M1332.1,508.6c-2-2.5-2.4-5.5-2.3-8.6C1331.6,502.7,1333.1,505.3,1332.1,508.6z"/>
			<path class="st7" d="M1331.8,548.8c2,2.2,2,4.4,0,6.6C1330.7,553.2,1330.6,551,1331.8,548.8z"/>
			<path class="st2" d="M1298.4,415.9c0.5,1.2,0.7,2.6,2.2,3.2c0.2,0.8,0.5,1.7,0.7,2.5c-0.6,0.7-1.3,1.4-1.9,2.2
				c-2.9-0.1-2.2-2.6-2.9-4.2c0.1-1,0.1-2,0.2-3.1C1297.2,416.3,1297.8,416.1,1298.4,415.9z"/>
			<path class="st7" d="M876.8,531.2c-0.3-2.5-1.3-5,1.1-7.1C879.1,526.7,878.8,529.1,876.8,531.2z"/>
			<path class="st11" d="M1236.7,575.2c-1-2.4-1-4.9-0.1-7.4C1238.9,570.3,1238.8,572.7,1236.7,575.2z"/>
			<path class="st7" d="M1336,537.2c-2.3-2.2-1.2-4.7-0.9-7.2C1337.1,532.1,1337,534.6,1336,537.2z"/>
			<path class="st7" d="M1334.9,571.5c-0.2-2.4-1.2-5,1-7.1C1337.2,567,1337,569.3,1334.9,571.5z"/>
			<path class="st3" d="M1132,564.4c2.3,2.2,1.1,4.8,1.1,7.3C1131.2,569.4,1131,567,1132,564.4z"/>
			<path class="st5" d="M968.7,561.2c-0.1,1.1-0.1,2.1-0.2,3.2c-0.8,0-1.6-0.1-2.4-0.1c-1.2-1.2-1.4-2.5-0.3-3.9
				C966.8,560.7,967.7,561,968.7,561.2z"/>
			<path class="st7" d="M896.2,463.6c-0.2-2.4,0.6-4.3,2.5-5.8C899.3,460.4,898.2,462.2,896.2,463.6z"/>
			<path class="st11" d="M1233.3,560.5c-0.1,1.8-0.2,3.6-0.3,5.4c-2.4-1.5-2.3-3.4-0.8-5.4c0,0,0.6,0,0.6,0
				S1233.3,560.5,1233.3,560.5z"/>
			<path class="st7" d="M874.8,518.5c0.4,2.1,1,4.2-1.2,5.7C872.4,522,873,520.1,874.8,518.5z"/>
			<path class="st11" d="M1234.7,555.4c0.9-0.9,1.7-1.8,2.6-2.7c0.4,0,0.8,0,1.1-0.1c0,1.8,0.7,3.8-1.2,5.2
				c-0.9-0.4-1.7-0.8-2.6-1.2C1234.7,556.3,1234.7,555.9,1234.7,555.4z"/>
			<path class="st7" d="M1333.6,580.6c-0.2-2.1-0.9-4.2,1.1-5.8C1335.6,576.9,1335.8,578.9,1333.6,580.6z"/>
			<path class="st7" d="M1330.3,576.7c0.1,1.5,0.3,3,0.4,4.5C1327.4,580,1328.9,578.3,1330.3,576.7z"/>
			<path class="st5" d="M1234.7,555.4c0,0.4,0,0.9,0,1.3c-0.5,1.3-0.9,2.5-1.4,3.8c0,0-0.6,0-0.6,0s-0.6,0-0.6,0
				c-0.3-1.8-0.6-3.6,0.1-5.3C1233,555.3,1233.8,555.4,1234.7,555.4z"/>
			<path class="st3" d="M1138.9,513.3c-0.3-1.8-0.7-3.5,1.2-4.8C1140.9,510.4,1140.3,511.9,1138.9,513.3z"/>
			<path class="st7" d="M1329.3,517.6c1.7,1.3,1.4,3,0.9,4.7C1328.8,521,1328.1,519.5,1329.3,517.6z"/>
			<path class="st11" d="M1232.8,578.3c0.1,1.4,0.3,2.8,0.4,4.2c-0.4,0-0.8,0-1.2,0C1230.8,580.9,1230.9,579.4,1232.8,578.3z"/>
			<path class="st7" d="M873.2,528.7c0.6,1.6,1,3.3-0.7,4.6C871.3,531.5,872,530,873.2,528.7z"/>
			<path class="st11" d="M966.8,584.6c0.4,1.2,0.5,2.3-0.7,3.1C964.6,586.3,965.7,585.4,966.8,584.6z"/>
			<path class="st7" d="M880,496.5c0.4,1.2,0.3,2.3-1,3.1C877.9,498.1,878.7,497.2,880,496.5z"/>
			<path class="st11" d="M1231.7,592.3c0.3,1.4,0.3,2.7-1.3,3.3C1229.5,593.9,1230.7,593.1,1231.7,592.3z"/>
			<path class="st7" d="M1329.6,498.3c-1.3-0.8-1.4-2-1.1-3.3C1329.5,495.8,1330.5,496.8,1329.6,498.3z"/>
			<path class="st11" d="M1232,548.8c-0.1,1-0.3,1.9-0.4,2.9c-1.3-0.6-2-1.5-1.4-3C1230.8,548.7,1231.4,548.8,1232,548.8z"/>
			<path class="st11" d="M1237.1,602.1c0.9,0,1.9,0,2.8,0c-0.3,0.6-0.6,1.7-1,1.8C1237.6,604.1,1237.3,603.1,1237.1,602.1z"/>
			<path class="st11" d="M966.5,606.5c-0.4-1.3-0.4-2.4,0.9-3.2C968.8,604.8,967.5,605.6,966.5,606.5z"/>
			<path class="st7" d="M914.2,395.7c-0.9,0-1.8,0-2.8,0C912.3,393.5,913.2,393.4,914.2,395.7z"/>
			<path class="st7" d="M903.4,435.5c0.4,1.4,0.1,2.5-1.3,3.2C901.2,437.1,902.1,436.2,903.4,435.5z"/>
			<path class="st5" d="M976.6,523.8c-1.8,0.7-3.7,0.8-5.5,0C972.9,522.8,974.7,522.7,976.6,523.8z"/>
			<path class="st7" d="M889.1,470.5c0.5,1.5,0.1,2.6-1.3,3.3C887.3,472.3,887.9,471.3,889.1,470.5z"/>
			<path class="st7" d="M891.6,464c0.5,1.4,0.2,2.6-1.3,3.3C889.7,465.7,890.4,464.8,891.6,464z"/>
			<path class="st7" d="M894.3,457.6c0.3,1.4,0,2.5-1.4,3.2C892.4,459.3,893,458.3,894.3,457.6z"/>
			<path class="st7" d="M1314.1,454.2c-1.3-0.6-1.6-1.7-1.4-3.1C1313.8,451.9,1314.7,452.7,1314.1,454.2z"/>
			<path class="st7" d="M900.1,454.5c-0.4-1.4,0-2.6,1.4-3.2C902.1,452.9,901.3,453.8,900.1,454.5z"/>
			<path class="st10" d="M1044.9,448.9c1.5,0.6,1.5,1.9,1.3,3.2C1045.2,451.3,1044.5,450.4,1044.9,448.9z"/>
			<path class="st7" d="M900.8,442.1c0.4,1.4,0,2.5-1.3,3.2C898.8,443.7,899.5,442.7,900.8,442.1z"/>
			<path class="st10" d="M1048.1,446.3c-1.6-0.6-1.6-1.9-1.4-3.3C1047.7,443.9,1048.7,444.8,1048.1,446.3z"/>
			<path class="st2" d="M1299.3,423.7c0.5,0.2,1.1,0.3,1.6,0.5c-0.2,1.3-0.6,2.4-1.8,3C1298.6,426,1298,424.8,1299.3,423.7z"/>
			<path class="st12" d="M969.9,541.7c0-3.2,0.1-6.5,0-9.7c0-2.6,0.8-4,3.7-4c2.7,0,3.9,1,3.9,3.8c-0.1,7.1,0,14.2,0,21.3
				c0,2.8-1.5,3.7-4,3.7c-2.9,0-3.6-1.6-3.6-4.1C969.9,549,969.9,545.4,969.9,541.7z"/>
			<path class="st10" d="M1298.4,415.9c-0.6,0.2-1.2,0.4-1.7,0.5c-0.3-0.9-0.5-1.8-0.8-2.8c0.7,0,1.4,0,2.2,0
				C1298.1,414.4,1298.3,415.2,1298.4,415.9z"/>
		</g>
	</g>
	<text transform="matrix(1 0 0 1 336.6875 652.4844)" class="st16 st17">Classique</text>
	<text transform="matrix(1 0 0 1 615.1094 652.4844)" class="st16 st17">Echancré</text>
	<text transform="matrix(1 0 0 1 894.1094 652.4844)" class="st16 st17">Brésilien</text>
	<text transform="matrix(1 0 0 1 1160.8906 652.4844)" class="st16 st17">Intégral</text>
</g>
</svg>
