<?xml version="1.0" encoding="utf-8"?>
<!-- Generator: Adobe Illustrator 25.0.0, SVG Export Plug-In . SVG Version: 6.00 Build 0)  -->
<svg version="1.1" id="Calque_1" xmlns="http://www.w3.org/2000/svg" xmlns:xlink="http://www.w3.org/1999/xlink" x="0px" y="0px"
	 viewBox="0 0 1920 1080" style="enable-background:new 0 0 1920 1080;" xml:space="preserve">
<style type="text/css">
	.st0{fill:#D8D850;}
	.st1{fill:#8E8D8A;}
	.st2{fill:#676768;}
</style>
<rect class="st0" width="1920" height="1080"/>
<g>
	<g>
		<path class="st1" d="M697.2,187.9c5.6,0.3,11.2,0.5,16.8,0.7s11.2,0.2,16.8,0.2c5,0,9.9-0.1,14.8-0.2c4.9-0.2,9.8-0.4,14.8-0.7
			v2.8c-6.5,0.9-11.9,2.8-16.1,5.6c-4.2,2.8-6.3,7.9-6.3,15.2c0,3.9,0.6,10.2,1.8,19s2.6,18.4,4.4,28.8c1.8,10.4,3.7,20.9,5.6,31.3
			c1.9,10.4,3.8,19.3,5.5,26.6c0.8,3.1,1.6,5.8,2.6,8.2c0.9,2.3,2.3,4.4,4,6.2c1.7,1.8,4.1,3.3,7.2,4.4c3.1,1.2,7.2,2.1,12.4,2.7
			v2.8c-6.2-0.3-12.4-0.5-18.6-0.7c-6.2-0.2-12.3-0.2-18.6-0.2c-5.9,0-11.7,0.1-17.4,0.2c-5.7,0.2-11.5,0.4-17.4,0.7v-2.8
			c3.3-0.5,6.4-1.1,9.3-1.8c3-0.7,5.6-1.8,7.8-3.2c2.3-1.4,4-3.3,5.3-5.7c1.2-2.4,1.9-5.6,1.9-9.7c0-1.9-0.1-4.4-0.2-7.5
			c-0.2-3.1-0.6-6.7-1.4-10.7L716.1,206h-0.5c-4.4,11.2-9,22.3-13.8,33.3s-9.6,22-14.2,33c-4.7,11.1-9.2,22.2-13.7,33.5
			c-4.4,11.3-8.4,22.9-12,34.7h-0.5c-7.5-24.1-15.9-47.4-25.3-69.7c-9.4-22.3-19.5-44.7-30.2-67.1h-0.5c-1.2,8.6-2.5,18.1-3.7,28.5
			s-2.4,20.6-3.4,30.5s-1.8,18.9-2.5,27.1c-0.6,8.2-0.9,14.3-0.9,18.3c0,5.1,0.4,9.6,1.1,13.3c0.7,3.7,2.1,6.9,4.1,9.3
			c2,2.5,4.8,4.4,8.3,5.6s8.1,2,13.7,2.3v2.8c-6.5-0.3-12.9-0.5-19.2-0.7c-6.2-0.2-12.6-0.2-19.2-0.2c-4.8,0-9.6,0.1-14.4,0.2
			c-4.8,0.2-9.5,0.4-14.4,0.7v-2.8c3.3-0.3,6.5-0.9,9.7-1.9c3.2-0.9,6.1-2.2,8.8-3.9c2.6-1.6,4.9-3.6,6.7-5.8
			c1.8-2.3,2.9-4.9,3.4-8.1c0.9-5.4,1.8-11.2,2.6-17.2s1.6-11.9,2.3-17.9l11.2-83.1c-3.3-2.6-7.2-4.8-11.7-6.5s-9-3-13.5-3.7v-2.8
			c6.7,0.3,13.3,0.5,20,0.7c6.6,0.2,13.3,0.2,20,0.2c4.8,0,9.6-0.1,14.4-0.2c4.7-0.2,9.5-0.4,14.4-0.7v2.8c-3,0.8-5.7,2.1-8.2,3.9
			c-2.5,1.8-3.7,4.6-3.7,8.5c0,2.6,0.4,5.2,1.3,7.7c0.9,2.5,1.8,5.1,2.9,7.7l32.9,80.8c7.9-16.5,15.5-33,22.7-49.6
			s13.7-33.6,19.6-51c-1.7-2-3.7-3.7-6.1-4.9c-2.3-1.2-4.8-2.3-7.2-3v-2.7H697.2z"/>
		<path class="st1" d="M830.8,273.2l-15.4,42.3c-0.5,1.2-0.9,2.3-1.3,3.3c-0.4,0.9-0.6,1.9-0.6,3c0,2.8,0.8,5.2,2.5,7.2
			c1.6,2,3.6,3.7,6,5c2.3,1.3,4.7,2.4,7.2,3.2c2.5,0.8,4.6,1.3,6.3,1.6v2.8c-4.7-0.3-9.3-0.5-14-0.7s-9.4-0.2-14.2-0.2
			c-4.7,0-9.2,0.1-13.7,0.2c-4.4,0.2-9.1,0.4-14.1,0.7v-2.8c4.8-1.1,8.8-2.8,12-5c3.2-2.3,5.9-4.9,8.1-8.1c2.2-3.1,4.1-6.5,5.7-10.3
			c1.6-3.7,3.2-7.6,4.8-11.7l40.4-99.3c0.5-1.1,0.9-2.1,1.3-3c0.4-0.9,0.6-1.8,0.6-2.6s-0.3-1.9-0.8-3.5s-1.2-3-2-4.2
			c4-0.8,7.6-1.8,10.5-3c3-1.2,6.2-2.6,9.8-4l48.6,133.6c2.2,6.1,5.2,10.9,9.1,14.4c3.9,3.5,9.7,5.7,17.3,6.7v2.8
			c-6.2-0.3-12.3-0.5-18.3-0.7s-12.3-0.2-18.8-0.2c-4.2,0-7.9,0-11,0s-5.9,0-8.4,0.1s-4.9,0.2-7.1,0.4c-2.3,0.2-4.7,0.3-7.4,0.5
			v-2.8c6.5-0.8,12-2.5,16.5-5c4.4-2.6,6.7-6,6.7-10.4c0-1.2-0.3-2.5-0.8-3.7s-1-2.4-1.3-3.5l-15.2-43L830.8,273.2L830.8,273.2z
			 M856.1,206.9l-22.9,59.3h43.9L856.1,206.9z"/>
		<path class="st1" d="M919.8,187.9c5.4,0.3,10.8,0.5,16.1,0.7s10.7,0.2,16.1,0.2c6.5,0,12.9-0.1,19.2-0.2
			c6.2-0.2,12.5-0.4,18.7-0.7v2.8c-2.2,0.3-4.5,0.7-7,1.2s-4.8,1.2-7,2.2s-4,2.4-5.4,4.1c-1.4,1.7-2.1,4.1-2.1,7
			c0,2.8,2.3,9.8,6.8,21l36.7,88.7l30.4-71.7c7.8-18.8,11.7-31.7,11.7-38.5c0-2.5-0.5-4.6-1.6-6.3s-2.6-3.1-4.4-4.1
			c-1.9-1-3.9-1.8-6.2-2.3c-2.3-0.5-4.6-1-6.9-1.3v-2.8c5.3,0.3,10.5,0.5,15.8,0.7c5.2,0.2,10.4,0.2,15.5,0.2
			c4.4,0,8.6-0.1,12.8-0.2c4.2-0.2,8.4-0.4,12.6-0.7v2.8c-5.5,0.6-10,2.4-13.8,5.4c-3.7,3-6.9,6.5-9.6,10.7
			c-2.6,4.2-4.9,8.7-6.9,13.5c-1.9,4.8-3.9,9.3-5.7,13.5L1006.9,343h-5.1l-54.4-128c-2.8-6.7-6.3-12.3-10.4-16.7
			c-4.1-4.4-9.8-7-17.2-7.6V187.9z"/>
		<path class="st1" d="M1141,331.6c1.4,0.3,3.1,0.6,5.1,0.9s4.2,0.6,6.5,0.9s4.7,0.6,7.2,0.8c2.5,0.2,4.8,0.4,7,0.4
			c9.3,0,17.7-0.8,25.1-2.3c7.4-1.6,14.2-4,20.3-7.5c6.1-3.4,11.9-7.8,17.4-13.1c5.4-5.3,11-11.7,16.6-19.2l2.6,2.1l-21.3,46.9
			c-2.6-0.3-5.4-0.5-8.2-0.7c-2.8-0.2-5.5-0.2-8.2-0.2h-87.8c-4.5,0-9,0.1-13.5,0.2c-4.5,0.2-9,0.4-13.5,0.7v-2.8
			c5.6-0.5,10-1.3,13.1-2.6c3.1-1.2,5.4-3.2,7-5.8c1.6-2.6,2.5-6.1,2.9-10.4s0.6-9.7,0.6-16.2v-78c0-6.5-0.2-11.9-0.6-16.2
			s-1.4-7.7-2.9-10.4c-1.6-2.6-4-4.6-7.2-5.8c-3.3-1.2-7.7-2.1-13.3-2.6v-2.8c5.3,0.2,10.3,0.3,15.1,0.5c4.7,0.2,9.7,0.3,14.7,0.4
			c5.1,0.1,10.4,0.1,16.1,0.1s12.1,0,19.3,0c10.9,0,21.8-0.1,32.7-0.2c10.9-0.2,22-0.4,33.2-0.7c-0.2,1.7-0.3,3.4-0.4,5.1
			c-0.1,1.7-0.1,3.3-0.1,4.9v9.3c0,3.4,0.2,6.9,0.5,10.4s0.6,7.4,0.9,11.6l-3,0.9c-2-7.5-4.7-13.6-8.1-18.3
			c-3.3-4.7-7.2-8.4-11.7-11.1c-4.4-2.6-9.3-4.4-14.6-5.4c-5.3-0.9-10.9-1.4-16.8-1.4c-10.9,0-21.8,0.5-32.7,1.4v58.4
			c3.1,0,6.1-0.1,9-0.2c2.9-0.2,5.9-0.2,9-0.2c10.7,0,19.3-2.1,25.6-6.4c6.3-4.3,10.2-12.1,11.6-23.5h2.8c0,5.6-0.1,11.2-0.2,16.8
			c-0.2,5.6-0.2,11.1-0.2,16.6c0,5.6,0.1,11.2,0.2,16.8c0.2,5.6,0.2,11.2,0.2,16.8h-2.8c-1.4-6.5-3.1-11.9-5.1-16s-4.6-7.3-7.6-9.5
			s-6.8-3.7-11.3-4.4c-4.5-0.8-9.9-1.2-16.1-1.2H1141V331.6z"/>
		<path class="st1" d="M1247.7,338.8c4.4-0.3,8.2-1.1,11.6-2.3c3.3-1.2,6.3-2.9,9-4.9c2.6-2,5.1-4.4,7.5-7c2.3-2.6,4.7-5.5,7.2-8.6
			l41.6-51.4l-34.8-47.2c-5.9-8.4-11.8-14.6-17.7-18.7c-5.9-4-12.7-6.7-20.3-7.9V188c5.6,0.3,11.2,0.5,16.9,0.7
			c5.7,0.2,11.3,0.2,16.9,0.2c5.9,0,11.9-0.1,17.9-0.2c6-0.2,11.9-0.4,17.9-0.7v2.8c-3.4,0.3-6.8,1.4-10.2,3.3c-3.4,1.9-5,4.8-5,8.6
			c0,1.7,0.7,3.9,2.2,6.4c1.5,2.6,3.7,5.9,6.7,9.9l23.4,32l21.5-29.2c3-4,5.3-7.8,7.1-11.3c1.8-3.5,2.7-6.9,2.7-10.2
			c0-1.7-0.5-3.2-1.6-4.4s-2.4-2.3-3.9-3c-1.5-0.8-3.1-1.3-4.8-1.6c-1.7-0.3-3.2-0.5-4.4-0.5V188c4.4,0.3,8.7,0.5,13,0.7
			s8.6,0.2,13,0.2c5,0,10-0.1,15.1-0.2c5.1-0.2,10.1-0.4,15.1-0.7v2.8c-5.8,0.9-10.7,2.5-14.9,4.7c-4.2,2.2-8,4.9-11.4,8.1
			c-3.4,3.2-6.6,6.7-9.6,10.5s-6.1,7.8-9.3,12l-23.6,29.9l38.3,51.4c2,2.8,4.5,6,7.4,9.5s6.1,6.9,9.7,10c3.6,3.2,7.5,5.9,11.8,8.2
			c4.3,2.3,8.8,3.5,13.7,3.9v2.8c-7-0.3-13.9-0.5-20.7-0.7c-6.8-0.2-13.7-0.2-20.7-0.2c-6.2,0-12.4,0.1-18.5,0.2
			c-6.1,0.2-12.2,0.4-18.5,0.7V339c2.5-0.5,5-0.9,7.5-1.4s4.8-1.2,6.9-2.1s3.8-2.3,5.1-4.1c1.3-1.8,2-4.3,2-7.6
			c0-1.2-1.1-3.7-3.4-7.4c-2.3-3.7-5.1-7.8-8.5-12.5l-25.7-34.6l-24.8,33.2c-3.6,4.7-6.5,9.1-8.8,13.2s-3.4,7.1-3.4,9
			c0,3.1,0.8,5.6,2.5,7.4c1.6,1.8,3.7,3.2,6.1,4.1s5,1.6,7.7,1.9s5.3,0.6,7.6,0.9v2.8c-7-0.3-14-0.5-21-0.7s-14-0.2-21-0.2
			c-4.4,0-8.6,0.1-12.8,0.2c-4.2,0.2-8.5,0.4-12.8,0.7v-3H1247.7z"/>
	</g>
	<g>
		<path class="st1" d="M764.6,480.3c2.9,1.8,7.2,3.3,11.8,3.3c6.7,0,10.6-3.5,10.6-8.7c0-4.8-2.7-7.5-9.6-10.1
			c-8.3-2.9-13.4-7.2-13.4-14.4c0-7.9,6.6-13.8,16.5-13.8c5.2,0,9,1.2,11.2,2.5l-1.8,5.4c-1.7-0.9-5.1-2.4-9.7-2.4
			c-6.9,0-9.6,4.2-9.6,7.6c0,4.8,3.1,7.1,10.1,9.8c8.6,3.3,13,7.5,13,14.9c0,7.9-5.8,14.6-17.8,14.6c-4.9,0-10.3-1.4-13-3.2
			L764.6,480.3z"/>
		<path class="st1" d="M811.1,488.3l-12.9-50.9h6.9l6,25.7c1.5,6.3,2.9,12.7,3.8,17.6h0.2c0.8-5.1,2.4-11.1,4.2-17.7l6.8-25.7h6.9
			l6.2,25.8c1.4,6,2.8,12.1,3.5,17.4h0.2c1.1-5.6,2.5-11.2,4.1-17.6l6.7-25.7h6.7L846,488.1h-7l-6.4-26.5
			c-1.6-6.5-2.6-11.5-3.3-16.6h-0.2c-0.9,5.1-2,10-3.9,16.6l-7.2,26.5h-6.9V488.3z"/>
		<path class="st1" d="M873.2,437.4v50.9h-6.6v-50.9H873.2z"/>
		<path class="st1" d="M894.3,443h-15.5v-5.6h37.7v5.6H901v45.3h-6.6V443H894.3z"/>
		<path class="st1" d="M918.7,484.4l28.2-41.3v-0.2h-25.8v-5.5h34.3v4l-28.1,41.1v0.2h28.5v5.5h-37.1L918.7,484.4L918.7,484.4z"/>
		<path class="st1" d="M990.3,464.4h-19.8v18.3h22v5.5h-28.6v-50.9h27.5v5.5h-20.9V459h19.8V464.4z"/>
		<path class="st1" d="M1001.1,438.1c3.3-0.7,8.1-1.1,12.6-1.1c7,0,11.5,1.3,14.7,4.2c2.6,2.3,4,5.7,4,9.7c0,6.7-4.2,11.2-9.6,13
			v0.2c3.9,1.4,6.3,5,7.5,10.3c1.7,7.1,2.9,12,3.9,14h-6.8c-0.8-1.4-2-5.8-3.4-12.2c-1.5-7-4.2-9.7-10.2-9.9h-6.2v22h-6.6v-50.2
			H1001.1z M1007.6,461.3h6.7c7,0,11.5-3.8,11.5-9.7c0-6.6-4.8-9.4-11.7-9.5c-3.2,0-5.4,0.3-6.5,0.6L1007.6,461.3L1007.6,461.3z"/>
		<path class="st1" d="M1041.7,437.4h6.6v45.4h21.7v5.5h-28.3L1041.7,437.4L1041.7,437.4z"/>
		<path class="st1" d="M1085.5,472.3l-5.3,16h-6.8l17.3-50.9h7.9l17.4,50.9h-7l-5.4-16H1085.5z M1102.2,467.1l-5-14.6
			c-1.1-3.3-1.9-6.3-2.6-9.3h-0.2c-0.8,3-1.6,6.1-2.6,9.2l-5,14.7L1102.2,467.1L1102.2,467.1z"/>
		<path class="st1" d="M1123.5,488.3v-50.9h7.2l16.3,25.7c3.8,6,6.7,11.3,9.1,16.5l0.1-0.1c-0.6-6.8-0.8-13-0.8-20.9v-21.3h6.2v50.9
			h-6.6l-16.2-25.8c-3.5-5.7-6.9-11.5-9.5-17l-0.2,0.1c0.4,6.4,0.5,12.5,0.5,21v21.7L1123.5,488.3L1123.5,488.3z"/>
		<path class="st1" d="M1173.2,438.1c4-0.6,8.8-1.1,14-1.1c9.4,0,16.2,2.2,20.6,6.3c4.5,4.2,7.2,10,7.2,18.3s-2.6,15.1-7.3,19.8
			c-4.8,4.8-12.6,7.3-22.5,7.3c-4.7,0-8.6-0.2-11.9-0.6L1173.2,438.1L1173.2,438.1z M1179.8,483.1c1.7,0.3,4.1,0.4,6.6,0.4
			c14,0,21.7-7.9,21.7-21.6c0.1-12-6.7-19.6-20.6-19.6c-3.4,0-6,0.3-7.7,0.7V483.1z"/>
	</g>
</g>
<g>
	<path class="st2" d="M1041.6,604.5c-1.5,9,2.1,16.4,7.8,23c8,9.5,5.8,27.2-1.9,35.4c-2.4,2.6-5.2,4.5-8.8,4.8
		c-1.4,0.1-2.8-0.1-3.6-1.4c-0.9-1.5-0.6-2.9,0.4-4.1c1.3-1.5,2.8-2.8,4-4.3c5.7-6.9,5.8-19.4,0.2-26.3c-4.4-5.5-8.9-10.9-8.6-18.5
		c0-0.7-0.2-1.4-1.1-1.4s-1.2,0.6-1.2,1.4c0.2,7.6-4.1,13-8.6,18.6c-6.2,7.8-5.1,21,1.9,28.1c1.8,1.8,4.7,3.7,2.6,6.6
		c-2.1,3-5.2,1.3-7.8,0.2c-1.4-0.6-2.6-1.8-3.8-2.8c-0.7-0.6-1.8-1.5-0.7-2.6c1-0.9,1.6,0.1,2.3,0.7c1.3,1.3,2.8,2.4,4.6,3
		c1.1,0.3,2.5,1.1,3.2,0.1c0.8-1.2-0.7-2-1.4-2.7c-7.2-7-8.5-15.6-6.4-25c1-4.7,4.4-8,7.2-11.5c2.7-3.3,4.2-7.1,4.3-11.3
		c0-1.3,0.2-2.7-1.7-2.5c-1.5,0.2-3.6-1-3.9,1.9c-0.5,4.1-2.1,7.7-4.7,10.9c-0.6,0.7-1.1,1.6-2.2,0.9c-0.9-0.6-0.5-1.5,0-2.1
		c4.7-5.7,4.9-12.4,4.7-19.2c0-0.7,0.1-1.4,0-2.1c-1.8-8.3,4.1-12.5,9.2-17c1.7-1.5,3.7-1.1,5.3,0.4c2.2,2.1,4.5,4.3,6.6,6.5
		c2,2.1,2.2,4.7,2.1,7.4C1041.5,601.1,1041.6,602.8,1041.6,604.5z M1046.1,643.8c-0.1,7.1-1.9,13.6-7.4,18.5c-0.7,0.6-2,1.4-1.4,2.5
		c0.7,1.2,2.1,0.5,3.1,0.2c2.7-0.9,4.7-2.8,6.4-5c5.6-7.4,7.8-22.2,0.5-31.2c-3.8-4.6-7.4-9.4-8-15.7c-0.1-1.2-0.8-1.4-1.8-1.5
		c-3.4-0.4-4,0.2-3.8,3.6c0.4,5.5,3.5,9.6,7,13.5C1044.3,633,1046.2,638,1046.1,643.8z M1028.7,588.1c-0.4-0.3-0.8-0.5-1.2-0.8
		c-1.6,1.9-3.1,3.9-4.8,5.7c-1.3,1.4-2.1,2.9-2.1,4.9c0.1,3,0.1,6,0,8.9c-0.1,1.8,0.7,2.4,2.4,2.4c4.1-0.1,8.3-0.2,12.4,0
		c3.2,0.2,3.8-0.9,3.7-3.9c-0.2-5.8-0.1-5.8-5.8-6.2c-3.3-0.2-4.6-1.5-4.6-5C1028.7,592.1,1028.7,590.1,1028.7,588.1z M1031.9,587.9
		c-0.3,0.1-0.6,0.2-0.9,0.3c0,1.9,0.1,3.8,0,5.7c-0.1,2.1,0.8,2.9,2.8,2.8c1-0.1,2.1,0,3.1,0c2.4,0.1,2.2-1.2,1.1-2.5
		C1036.1,592,1034,590,1031.9,587.9z"/>
	<path class="st2" d="M995.9,628c1-0.3,1.9-0.7,2.7-0.9c2.6-0.8,5.2-1.6,7.1,1.2c1.6,2.3,1.4,6.7-0.4,9c-3.7,4.8-7.4,9.6-11.1,14.5
		c-1.7,2.2-3.6,3.9-6.4,2.2c-2.7-1.6-2.2-4.2-1-6.7c0.6-1.3,1.2-2.7,2-4c3.6-5.7,5.2-11.8,4.2-18.6c-0.4-2.4,0.8-4.5,1.6-6.6
		c0.6-1.5,1.9-1.8,3.4-1.7c3,0,6,0.1,8.9,0c2.2-0.1,3.3,1,4,3c0.9,2.7,1,5.3,0.9,8.1c-0.5,13.7-0.8,27.5-1.2,41.2
		c-0.1,4.5-0.6,4.9-5,5c-2.4,0-4.8,0-7.2,0c-0.8,0-1.8-0.1-1.8-1.1s0.9-1.2,1.8-1.2c2.5,0,5-0.1,7.6,0c1.6,0,2.2-0.6,2.3-2.2
		c0.4-14.5,0.8-29.1,1.3-43.6c0.1-1.9-0.7-2.4-2.4-2.3c-2.5,0.1-5,0-7.6,0C995.2,623.1,995.2,623.1,995.9,628z M997.3,631.6
		c-3.1,6.4-5.8,12-8.6,17.6c-0.4,0.9-0.6,1.8,0.3,2.5c1.1,0.8,2,0.2,2.7-0.7c4-5.1,7.9-10.3,12.3-16
		C1000.8,635.4,998.9,634.4,997.3,631.6z M1002.3,620.6c1.5,0,3,0,4.4,0c0.6,0,1.5,0.1,1.5-0.9c0-0.9-0.7-1.1-1.4-1.1
		c-2.8,0-5.7,0-8.5,0c-0.7,0-1.5,0.2-1.5,1c0,1.2,1.1,0.9,1.8,0.9C999.8,620.7,1001.1,620.6,1002.3,620.6z M1002,632.8
		c1.1-0.2,2-0.8,2-1.9c0.1-1.4-0.8-2.1-2.1-2.1c-1.2,0.1-1.8,0.9-1.8,2C1000.1,632,1000.8,632.7,1002,632.8z"/>
	<path class="st2" d="M893.8,675.9c-3.6,0.1-8.5-1.3-13.4-2.3c-2.1-0.4-3.6-1.9-4.6-3.8c-0.3-0.7-0.4-1.4,0.2-1.8
		c0.5-0.4,1.2-0.3,1.5,0.2c2,3.9,6,3.3,9.3,4.2c3.8,1,7.7,1.2,11.6,0.8c7.2-0.6,12.8-3.5,16.7-9.9c5.2-8.7,12.4-15.2,22.2-18.6
		c2.8-1,5.8-1.4,8.8-1.5c6.2-0.3,10.9-3.1,14.1-8.5c2.7-4.6,3.2-9.5-0.9-13.3c-8.6-7.8-6.4-16.6,1.2-27c3.9-5.3,8.4-10.2,12.4-15.6
		c0.6-0.8,1.1-2.2,2.3-1.4c1.5,0.9,0.3,2-0.3,2.8c-3.8,4.9-7.6,9.8-11.5,14.5c-3.1,3.7-5.2,7.8-6.5,12.3c-1.1,3.6-0.5,6.8,2.1,9.6
		c0.2,0.3,0.5,0.5,0.7,0.8c4.2,4.7,6.8,9.8,3.9,16.2c-3.1,6.8-8.3,11.3-15.7,11.7c-13.5,0.7-23.1,7.5-30,18.5
		C912.3,672.5,904.8,675.9,893.8,675.9z"/>
	<path class="st2" d="M879.2,627.3c0,2.3,0,4.6,0,6.9c0,1.7,0.2,3.4-1.5,4.6c-0.8,0.6-0.5,1.7-0.5,2.6c0,3.9,0,7.8-0.1,11.7
		c-0.1,2.8,0.8,4.6,3.8,5.2c2.5,0.5,2.1,2,1,3.5c-1.8,2.4-4.3,3.1-7,2.3c-2.9-0.9-4.6-3-4.6-6.1c-0.1-5.1,0-10.3,0.1-15.4
		c0-1.7,0.4-3.4-1.4-4.6c-0.8-0.6-0.6-1.7-0.6-2.6c0-5.3,0-10.5,0.1-15.8c0.1-3.8,2.3-6.2,5.4-6.2c3.2,0,5.4,2.4,5.5,6.2
		C879.3,622.1,879.2,624.7,879.2,627.3L879.2,627.3z M870.9,626.5L870.9,626.5c0,2.6,0,5.2-0.1,7.9c0,2.2,1.5,1.9,2.8,1.8
		c1.2,0,2.9,0.6,2.9-1.7c0-5.1,0.1-10.3,0.1-15.4c0-1.8-0.8-3.2-2.8-3.2c-2.2,0-2.9,1.4-3,3.4C870.9,621.7,870.9,624.1,870.9,626.5z
		 M879.7,660.6c-3.1-1.1-4.6-3.1-5.1-5.8c-0.1-0.5-0.3-0.9-0.8-0.9c-0.5-0.1-1,0.1-1.1,0.6c-0.3,2.3-0.6,4.6,1.3,6.4
		C875.5,662.3,877.3,662.3,879.7,660.6z M874.6,645.1L874.6,645.1c0-1.6,0.1-3.2,0-4.8c0-0.7-0.1-1.5-1.1-1.4
		c-0.6,0.1-0.9,0.7-0.9,1.3c0,3.2-0.1,6.4-0.1,9.6c0,0.7,0.2,1.4,1.1,1.4c0.9-0.1,0.9-0.9,0.9-1.6
		C874.6,648,874.6,646.5,874.6,645.1z"/>
	<path class="st2" d="M930.9,573.8c0,0.1-0.1,0.5-0.3,0.9c-3.1,9.4-6.1,18.7-9.2,28c-1.6,4.6-4.1,8.7-7.2,12.4
		c-6.8,8.1-12.5,16.9-16.2,26.9c-2.3,6.2-6.6,11.2-12,15.1c-0.9,0.6-2,1.7-3,0.4c-0.8-1.2,0.6-1.7,1.4-2.3
		c5.8-4.3,9.8-9.8,12.2-16.6c2.5-6.9,6-13.6,10.9-19c8.6-9.4,13-20.6,16.4-32.4c1.4-4.7,3-9.4,4.6-14c0.2-0.8,0.5-1.6,1.6-1.4
		C930.9,572,931.1,572.7,930.9,573.8z"/>
	<path class="st2" d="M971.3,665.1c0-2.4,0-4.8,0-7.2c0-2.1,0.8-3.9,2.8-4.7c1.8-0.7,2-1.9,2-3.5c-0.1-3.9,0-7.8,0-11.7
		c0-2.9,1.1-5.2,3.8-6.3c2.3-1,4.5-0.6,6.4,1.1c2.3,2.1,2.2,4.9,2,7.6c-0.1,0.6-0.4,1.1-1.1,1.1c-0.9,0.1-1.3-0.5-1.3-1.2
		c-0.1-1.1,0-2.3-0.1-3.4c-0.3-2-1.5-3.1-3.5-3.1c-2-0.1-3.5,1-3.6,3c-0.2,4.7,0.1,9.4-0.3,14.1c-0.1,1.9,3.7,1.6,1.7,3.6
		c-0.9,0.8-2.8,0.4-4.3,0.7c-1.4,0.3-2,1.5-2,2.8c0,4.8,0,9.6,0,14.4c0,2.1,1.1,3.2,3.2,3.2c3.4,0,6.9,0,10.3,0
		c2.3,0,3.3-1.3,3.3-3.5c0-3.5,0-7.1,0-10.7c0-1-0.2-2.3,1.3-2.3c1.2,0,1.2,1.2,1.2,2.1c0,3.8,0.1,7.6,0,11.3
		c-0.2,3.6-2.1,5.4-5.7,5.5c-3.4,0.1-6.9,0.1-10.3,0c-3.7-0.1-5.6-2-5.7-5.8c0-1.3,0-2.5,0-3.8C971.3,667.3,971.3,666.2,971.3,665.1
		L971.3,665.1z"/>
</g>
</svg>
