<?xml version="1.0" encoding="utf-8"?>
<!-- Generator: Adobe Illustrator 26.2.1, SVG Export Plug-In . SVG Version: 6.00 Build 0)  -->
<svg version="1.1" id="Layer_1" xmlns="http://www.w3.org/2000/svg" xmlns:xlink="http://www.w3.org/1999/xlink" x="0px" y="0px"
	 viewBox="0 0 1366 768" style="enable-background:new 0 0 1366 768;" xml:space="preserve">
<style type="text/css">
	.st0{fill:#826CAF;}
	.st1{fill:#FFFFFF;}
	.st2{fill:#F07E2C;}
	.st3{fill:#6F5CA7;}
	.st4{fill:#5650A1;}
	.st5{fill:#271549;}
	.st6{fill:#0B4660;}
	.st7{fill:#FEFEFE;}
	.st8{fill:#F17028;}
	.st9{fill:#CB5228;}
	.st10{fill:#032640;}
	.st11{fill:#CC6C28;}
	.st12{fill:#E3B7BB;}
	.st13{fill:#FABC3C;}
	.st14{fill:#F48334;}
	.st15{fill:#05021B;}
</style>
<g>
	<path class="st0" d="M684.76,409.04c0.02-0.03,0.04-0.06,0.06-0.08c0.04-0.07,0.08-0.13,0.12-0.2
		C684.88,408.85,684.82,408.95,684.76,409.04z M774.78,355c-0.03-0.14-0.09-0.27-0.16-0.41c-0.2-0.39-0.53-0.76-0.76-1.14
		c0,0-0.01,0-0.01-0.01l-0.02-0.03c-0.01,0.01-0.01,0.01-0.02,0.01c-2.01,1.64-4.02,3.27-6.03,4.9c0.42,4.91-0.37,9.33-4.98,12.17
		c0.69,4.44-2.7,5.12-5.67,5.92c-7.6,2.07-15.49,2.11-23.25,3.1c1.76,4.89,4.05,9.71,2,15.1c2.69,0.36,5.63-1.23,8.08,1.02
		c1.85,7.11,0.76,14.31,0.51,21.48c-0.03,0.75-0.34,3.26-2.69,2.42c-0.81,3.45-3.41,3.29-6.07,2.98c-2.1,0.33-3.81-0.15-5.32-1.84
		c-0.2-0.23-0.4-0.46-0.59-0.7c-0.14-0.17-0.28-0.34-0.41-0.51c-0.06-0.07-0.12-0.14-0.18-0.22c-0.19-0.24-0.38-0.48-0.58-0.72
		c-0.2-0.24-0.4-0.47-0.6-0.7c-0.15-0.16-0.3-0.31-0.46-0.46c-0.17-0.17-0.34-0.32-0.52-0.46c-0.08-0.07-0.17-0.13-0.26-0.2
		c-0.09-0.07-0.19-0.14-0.29-0.2c-0.11-0.07-0.23-0.14-0.35-0.2c-0.07-0.04-0.15-0.08-0.23-0.11c-0.17-0.08-0.35-0.15-0.54-0.21
		c-0.1-0.03-0.2-0.06-0.31-0.08c-0.1-0.03-0.21-0.05-0.31-0.06c-0.11-0.02-0.22-0.03-0.33-0.04c-0.27-0.02-0.55-0.02-0.85,0.01
		c-0.13,0.01-0.27,0.03-0.41,0.06c0,0-0.01-0.01-0.01,0c-0.11,0.02-0.22,0.04-0.34,0.07c-0.18,0.04-0.36,0.09-0.54,0.15
		c-0.02,0-0.03,0.01-0.05,0.02c-0.17,0.05-0.34,0.11-0.52,0.18c-1.04,0.41-1.58-1.39-2.18-2.36c-1.31-2.09-2.63-4.18-4.11-6.14
		c-0.59-0.78-1.16-2.27-2.66-1.44c-1.02,0.57-1.17,1.83-0.81,2.66c2.43,5.61-2,5.13-5.85,6.49c2.63-5.63,1.66-10.81,1.61-15.94
		c-1.29,0.02-2.58,0.04-3.87,0.05h-0.08c0.41,1.01,0.81,2.03,1.22,3.04c0.57,2.87,3.35,6.19-1.64,7.91l-0.4,0.07l-0.08,0.41
		c-1.07,3.71-3.41,4.41-8.88,2.64c-0.25-0.11-0.49-0.23-0.73-0.36c-0.24-0.12-0.47-0.25-0.7-0.4c-0.26-0.16-0.52-0.33-0.76-0.51
		c-0.2-0.14-0.39-0.29-0.57-0.44c-0.18-0.14-0.35-0.29-0.52-0.45c-0.08-0.06-0.16-0.13-0.24-0.21c-0.35-0.32-0.68-0.66-0.98-1.01
		c-0.64-0.75-1.19-1.56-1.61-2.38c-0.08-0.14-0.15-0.29-0.21-0.43c-0.09-0.19-0.17-0.38-0.24-0.57c-0.07-0.17-0.13-0.35-0.19-0.53
		c-0.03-0.1-0.07-0.21-0.1-0.32c-0.02-0.08-0.04-0.17-0.06-0.25c-0.01-0.07-0.02-0.14-0.04-0.21c-0.03-0.15-0.05-0.29-0.07-0.44
		c-0.02-0.19-0.04-0.39-0.04-0.58c-0.01-0.21,0-0.42,0.02-0.63c0.01-0.16,0.04-0.32,0.07-0.48c1.09-5.35,5.11-6.75,9.83-7.09
		c-10.84-5.28-21.9-10.02-33.73-12.62c-3.53-0.77-6.6,2.83-6.15,7.05c0.18,1.63,0.58,3.23,0.87,4.85c2.15,1.91,5.19,2.89,6.17,6
		c0.35,0.76,0.64,1.5,0.8,2.2c0.01,0.03,0.02,0.07,0.03,0.11c0.05,0.24,0.09,0.48,0.11,0.71c0.01,0.14,0.02,0.29,0.02,0.43
		c0,0.08,0,0.16-0.01,0.23c-0.01,0.05-0.01,0.1-0.01,0.14c0,0.02-0.01,0.04-0.01,0.06c-0.05,0.38-0.16,0.74-0.35,1.07
		c-0.09,0.15-0.19,0.3-0.32,0.45c-0.44,0.51-1.09,0.94-2.03,1.29c-0.13,0.05-0.26,0.09-0.4,0.14h-0.01
		c-0.14,0.28-0.29,0.53-0.46,0.77c-0.24,0.36-0.5,0.67-0.78,0.95c-0.06,0.08-0.13,0.14-0.2,0.19c-0.06,0.07-0.13,0.12-0.2,0.17
		c-0.26,0.21-0.54,0.39-0.83,0.54c-0.1,0.06-0.2,0.11-0.31,0.15c-0.1,0.05-0.21,0.09-0.32,0.13c-0.09,0.03-0.18,0.06-0.28,0.09
		c-0.19,0.06-0.39,0.11-0.6,0.14c-0.11,0.02-0.22,0.04-0.33,0.05c-0.16,0.03-0.33,0.04-0.5,0.05c-0.17,0.01-0.35,0.02-0.53,0.02
		c-1.49,0-3.29-0.36-5.48-1.07c-1.32-0.37-2.82-2.42-3.77-1.12c-1.17,1.6-1.93,3.92-1.18,6.11c0.53,1.6,1.47,3.08-0.34,4.42
		c-0.72,0.53-1.57,0.59-2.34,0.19c-1.85-0.98-1.53-2.81-1.45-4.42c0.19-3.42,1.65-6.76,0.76-10.27c-1.21-0.01-2.41-0.01-3.62-0.02
		c-0.08,0.61-0.16,1.22-0.24,1.85c0.43,1.87,0.81,3.73-1.09,5.11l0.13-0.12c-0.04,0.03-0.09,0.07-0.13,0.1
		c-0.57,0.44-1.14,0.81-1.72,1.1c-0.15,0.08-0.3,0.15-0.44,0.21c-0.55,0.26-1.09,0.46-1.65,0.6c-0.16,0.05-0.33,0.09-0.5,0.13
		c-0.02,0-0.03,0-0.05,0.01c-0.3,0.06-0.6,0.11-0.9,0.15c-0.29,0.04-0.58,0.07-0.88,0.09c-0.1,0.01-0.21,0.01-0.32,0.01
		c-0.2,0.02-0.4,0.02-0.6,0.02h-0.03c-0.51,0-1.04-0.02-1.56-0.08c-0.08,0-0.17-0.01-0.26-0.02c-0.3-0.03-0.6-0.07-0.9-0.11
		c-0.74-0.1-1.48-0.23-2.22-0.38c-0.58-0.11-1.15-0.23-1.73-0.36c-0.32-0.06-0.64-0.13-0.96-0.2c-3.02-0.62-5.03-2.73-5.88-5.38
		c-0.38-1.18-2.59-2.24-1.09-3.68c1.7-1.65,4.05-1.1,6.17-1c1.97,0.1,1.76,1.75,1.65,2.99c-0.22,2.63,1.4,3.5,3.49,3.88
		c2.13,0.39,3.63-0.85,4.28-2.63c0.82-2.26-0.05-4.36-2.2-5.4c-2.79-1.35-5.79-2.24-8.62-3.51c-3.99-1.81-6.26-4.64-4.84-9.33
		c-2.14-3.87-6.62-5.26-9.18-8.71c-1.04-1.42-2.81-2.32-2.93-4.37c-3.43-1.17-8.21-1.23-5.89-7.17c-0.21-0.78-0.42-1.94-1.37-1.72
		c-6.06,1.43-5.17-5.35-8.46-7.2c-0.43-0.25,0.01-1.55,0.78-2.07c-0.61-1.3-1.22-2.61-1.83-3.92c-0.11,0.32-0.22,0.64-0.33,0.96
		c0.15,0.82,0.18,1.61-0.73,2.05c-0.09,0.65-0.18,1.3-0.27,1.96c0.15,0.83,0.18,1.61-0.73,2.06c-0.09,0.98-0.18,1.97-0.27,2.96
		c0.03,1.4,0.74,2.92-0.73,4.06c-0.09,0.98-0.18,1.98-0.27,2.96c-0.12,14.37,0.59,28.65,6.11,42.19
		c2.95,7.24,4.99,14.93,10.09,21.14c0.32,0.25,0.65,0.51,0.98,0.76l0.01,0.01v0.01l0.02,0.01c0.25,0.33,0.5,0.66,0.75,0.99
		c0.41,0.65,0.81,1.32,1.22,1.97c1.29,0.61,1.99,1.62,2.05,3.05c1.26,0.71,2.25,1.7,2.94,2.98c1.63,1.06,2.98,2.4,4.02,4.05
		c0.43,0.47,0.87,0.93,1.3,1.41c7.01,6,14.09,11.89,22.39,16.07c0.96,0.48,1.55,1.68,2.32,2.54c0.73,0.14,1.57,0.09,1.96,0.95
		c5.83-0.27,10.66,3.15,16.13,4.39c24.05,5.42,47.41,4.06,69.34-7.62c27.41-14.6,44.34-37.34,50.58-68.09
		C778.93,383.67,778.06,369.35,774.78,355z M658.78,446.44c0.17-3.98,1.35-8.32-1.88-11.84c-0.05-0.68-0.1-1.38-0.15-2.07
		c-0.7-0.48-1.03,3.12-1.8,0.24c-0.55-2.1-0.99-4.09-3.08-5.19c-1.44,0.06-3.1-0.23-2.97,2.1c0.41,7.32-1,14.72,0.98,21.96
		c-3.31,4.13-7.57,1.27-11.95,1.62c3.74-8.39,0.64-17.31,2.84-25.75c-3.46,2.22-4.89,5.81-6.53,10.14
		c-0.21-1.83-0.35-2.97-0.48-4.12c-0.48,0.73-0.96,1.46-1.58,2.4c-0.85-3.91,0.43-7.75-1.07-11.38c-0.6-1.47,0.8-2.17,2.03-1.9
		c7.84,1.68,15.6-0.34,23.39-0.29c0.16,0,0.32,0.86,0.48,1.32c0.81-0.36,1.8-1.27,1.87,0.62c0.05,1.46,0.1,2.92,0.15,4.39
		c1.33-1.14,2.57-1.24,3.71,0.29c0.47,0.63,1.49,1.59,0.73,2c-1.35,0.72-2.24,3.24-4.44,1.57c-0.41,0.65-0.82,1.3-1.23,1.96
		c7.72,0.3,7.74,0.31,6.2,8.08c-0.67,3.39,0.54,6.45,1.79,9.52C658.42,453.35,658.48,453.19,658.78,446.44z M666.97,408.27
		c-0.13-0.31-0.24-0.62-0.33-0.94c-0.02-0.03-0.03-0.06-0.03-0.09c-0.03-0.08-0.05-0.16-0.07-0.25c-0.05-0.16-0.09-0.31-0.12-0.47
		c-0.03-0.09-0.05-0.18-0.06-0.28c-0.06-0.26-0.1-0.52-0.14-0.79c-0.01-0.02-0.01-0.04-0.01-0.07c-0.02-0.13-0.03-0.26-0.05-0.39
		c-0.02-0.13-0.03-0.27-0.04-0.4c-0.02-0.2-0.03-0.4-0.04-0.6c-0.21-4.45,3.33-6.69,7.24-7.3c4.83-0.75,8.63,1.24,10.67,5.97
		c0.02,0.1,0.04,0.2,0.07,0.3c0.04,0.15,0.08,0.3,0.12,0.45c0.11,0.35,0.23,0.7,0.35,1.05c0.07,0.19,0.14,0.39,0.21,0.58
		c0.01,0.04,0.03,0.08,0.04,0.12c0.06,0.17,0.12,0.34,0.17,0.51c0.06,0.2,0.12,0.4,0.17,0.6c0.03,0.12,0.06,0.25,0.08,0.37
		c0.02,0.13,0.03,0.25,0.04,0.38c0.01,0.08,0.01,0.15,0.02,0.22c0,0.1-0.01,0.2-0.01,0.29c0,0.11,0.01,0.21-0.01,0.31v0.06
		c-0.01,0.08-0.03,0.16-0.05,0.23c-0.05,0.19-0.11,0.37-0.21,0.55c-0.01,0.02-0.02,0.05-0.03,0.07h-0.01
		c-0.06,0.09-0.12,0.19-0.18,0.28c-0.06,0.09-0.14,0.17-0.22,0.26c-0.08,0.09-0.17,0.17-0.27,0.25c-0.07,0.06-0.15,0.13-0.24,0.18
		c-0.05,0.04-0.11,0.08-0.16,0.11c-0.12,0.08-0.26,0.16-0.41,0.24c-0.21,0.11-0.45,0.22-0.7,0.32c-0.13,0.05-0.27,0.1-0.41,0.15
		l-0.4,0.07l-0.08,0.41c-1.07,3.71-3.41,4.41-8.88,2.64c-1.14-0.35-2.12-0.83-2.95-1.44c-0.12-0.08-0.24-0.17-0.35-0.27
		c-0.43-0.33-0.82-0.71-1.17-1.12c-0.12-0.14-0.24-0.28-0.34-0.43c-0.4-0.52-0.74-1.08-1.01-1.68
		C667.1,408.59,667.03,408.43,666.97,408.27z M703.49,453.2c-2.02,1.13-4.55,0.6-6.83,0.23c-0.84-0.14-1.07-0.63-0.66-2.02
		c1.36-4.51,1.74-9.22-0.15-13.8c-1.17-0.37-2.33,1.25-3.5,0.01c-0.49,0.49-0.99,0.99-1.48,1.49c-2.63,3.56-1.36,7.83-2.17,11.68
		c-0.76,3.58-3.57,1.86-5.71,0.98c-1.83-2.43,0.44-4.88-0.02-7.41c-0.38-2.11-0.19-4.27-2.11-5.75c-1.97-0.39-3.34,2.45-5.5,1.01
		l-0.41,0.07l-0.07,0.41c-0.01,3.84-0.01,7.69-0.02,11.53c-0.91,3.65-3.76,2.17-5.53,1.59c-2.05-0.68,0.25-2.06,0.23-3.06
		c-0.07-5.37,2.08-11.08-1.87-16.24c2.35,0.32,5.36-3.01,7.33,1.61c0.61,1.44,1.95-0.08,2.87-0.44c3.2-1.26,6.29-1.9,8.87,1.18
		c1.61,1.91,2.62,0.03,3.57-0.67c3.29-2.46,6.72-2.88,10.12-0.63c3.72,2.46,4.01,6.29,3.05,10.22c-0.31,1.29-0.42,2.58-0.66,3.86
		C702.56,450.62,705.93,451.83,703.49,453.2z M728.13,443.64c-3.43-0.02-6.86-0.08-10.29,0.04c-1.35,0.04-2.99-0.71-3.99,0.94
		c2.05,3.54,4.57,4.03,8,1.65c2.51-1.75,5.31-0.82,7.93,0.24c-0.33,2.22-1.78,1.27-2.98,1.06c-1.98,4.02-6.03,5.11-11.83,3.19
		c-5.13-1.29-7.54-5.03-7.91-9.91c-0.26-3.33,4.95-7.44,10.04-8.11c4.61-0.62,8.85,0.25,11.29,4.94c0.53,1.01,1.06,2.04,1.58,3.05
		C731.78,443.25,730.33,443.65,728.13,443.64z M684.76,409.04c0.02-0.03,0.04-0.06,0.06-0.08c0.04-0.07,0.08-0.13,0.12-0.2
		C684.88,408.85,684.82,408.95,684.76,409.04z"/>
	<path class="st1" d="M780.81,408.52c-1.11,5.05-1.79,10.29-5.94,14.05c-0.16,1.39,0.35,2.96-1.04,4.02
		c-1.12,3.01-1.46,6.5-4.97,8.03l-0.01,0.01c-2.27,6.65-5.8,12.33-11.98,16.02l-0.02,0.02c-2.33,5.02-6.35,8.33-11,11
		c-4.11,3.33-8.24,6.6-13.45,8.09c-5,1.43-9.28,4.49-13.76,6.88c-6.14,3.28-12.71,3.65-19.11,4.85c-3.87,0.72-7.85,0.98-11.71,2.04
		c-5.28,1.43-10.05-1.58-15.17-2.01c-10.31-0.88-20.01-4.41-29.4-8.68c-1.45-0.66-3.29-1.07-3.33-3.25
		c-0.39-0.86-1.23-0.81-1.96-0.95c-3.76,1.24-6.58-1.15-9.27-2.89c-5.13-3.3-9.7-7.39-13.96-11.8c-1.08-1.1-2.04-2.22-1.48-3.92
		c-0.43-0.47-0.87-0.94-1.3-1.41c-2.92,0.22-4.25-1.13-4.02-4.04c-0.69-1.29-1.68-2.27-2.94-2.98c-2.08-0.08-2.1-1.55-2.05-3.06
		c-0.41-0.65-0.81-1.31-1.22-1.96c-0.25-0.33-0.5-0.67-0.75-1l-0.02-0.01v-0.01l-0.01-0.01c-0.33-0.25-0.66-0.51-0.98-0.76
		c-5.1-6.21-7.14-13.9-10.09-21.14c-5.52-13.54-6.23-27.81-6.11-42.19c-1.12,0.21-1.71,0.86-1.8,2.03
		c-0.83,10.78-0.79,21.58,1.58,32.11c6.57,29.29,22.92,51.91,48.43,67.4c21.16,12.85,44.43,17.44,68.9,13.45
		c18.31-2.99,34.92-10.28,49.33-22.34c13.93-11.65,24.43-25.71,30.82-42.77"/>
	<path class="st1" d="M676.26,280.31c-2.89,0.19-6.35-0.46-8.37,2.77c7.18,0.28,14.26-0.8,21.58-0.1
		c18.73,1.75,35.22,8.47,50.3,19.32c0.35,0.27,0.7,0.53,1.04,0.79c0.66,0.4,1.32,0.81,1.97,1.22c0.36,0.07,0.72,0.16,1.08,0.27
		c0.18,0.06,0.36,0.12,0.54,0.18c0.18,0.07,0.36,0.13,0.55,0.21c0.18,0.07,0.36,0.15,0.54,0.23c0.18,0.08,0.36,0.17,0.54,0.25
		c0.04,0.02,0.08,0.04,0.12,0.06c0.32,0.16,0.64,0.34,0.96,0.53c0.63,0.37,1.25,0.8,1.85,1.25c0.3,0.23,0.59,0.46,0.88,0.7
		c1.2,1.03,2.28,2.21,3.11,3.4c0.1,0.15,0.2,0.3,0.3,0.45c0.4,0.64,0.74,1.27,0.98,1.9c0.06,0.14,0.11,0.28,0.15,0.42
		c0.1,0.28,0.17,0.57,0.23,0.84c0.3,0.43,0.6,0.86,0.9,1.29c0.3,0.43,0.61,0.85,0.91,1.29c0.96-0.27,1.81-0.15,2.42,0.75
		c1.35,0.65,2.35,1.66,3,3.01c1.14,2.71,2.16,5.51,5,7.01c1.79,0.76,2.08,2.28,2,3.98c0.68,1.35,1.35,2.69,2.03,4.03
		c1.95,0.15,1.98,1.55,1.97,3c0.38,2.32,3.15,3.44,2.99,6.03c1.3,1.03,1.85,2.43,1.98,4.04c0.69,1.23,1.13,2.54,1.02,3.98
		c2.31,1.04,2,3.09,1.98,5.04"/>
	<path class="st1" d="M784.82,358.3c-5.43-22.69-17.56-41.21-35.55-55.67c-21.27-17.11-45.91-24.07-73.01-22.31"/>
	<path class="st2" d="M743.86,304.58c-0.36-0.1-0.72-0.19-1.07-0.26h-0.01c-0.65-0.41-1.31-0.82-1.97-1.22
		c0.66,0.4,1.32,0.81,1.97,1.21C743.14,304.38,743.5,304.47,743.86,304.58z"/>
	<path class="st2" d="M754.61,315c0.6,0.86,1.2,1.72,1.81,2.58h-0.01C755.81,316.72,755.21,315.86,754.61,315z"/>
	<path class="st0" d="M761.22,325.35c-0.54-0.97-1.49-1.73-1.46-2.98c-0.31-0.32-0.63-0.63-0.94-0.95c-1.71-0.71-2.05-2.28-2.4-3.83
		c-0.61-0.86-1.21-1.72-1.81-2.58c-1.12-0.74-2.2-1.53-3.25-2.34c-1.58-1.22-3.08-2.52-4.51-3.91c-1.43-1.39-2.78-2.86-4.06-4.43
		h-0.01v-0.01c-0.65-0.4-1.31-0.81-1.97-1.21c-0.34-0.26-0.69-0.52-1.04-0.79c-15.08-10.85-31.57-17.57-50.3-19.32
		c-7.32-0.69-14.4,0.38-21.58,0.1c-0.65,0.09-1.3,0.18-1.95,0.27c-0.78,1.24-1.95,0.83-3.05,0.73c-0.98,0.09-1.97,0.18-2.95,0.27
		c-0.45,0.9-1.22,0.88-2.05,0.73c-15.29,4.11-29,11.04-41.04,21.56c-10.51,9.17-18.54,19.95-24.05,32.69
		c6.6-2.61,13.31-2.88,20.12-0.9c-0.13-1.93-0.13-1.93-4.16-2.46c6.27-1.37,11.57,0.01,14.81,4.06c1.52-3.54,1.75-8.09,6.73-8.65
		c1.85-0.2,3.72-0.27,4.66,1.88c4.13-1.12,1.12-4.47,2.04-6.6c0.69-1.6-2.05-5.65,3.11-4.13c1.18,0.35,0.84-1.48,0.86-2.33
		c0.07-2.99,0.03-5.99,0.03-8.93c1.95-0.81,3.03,1.35,4.71,1.14c0-0.09,0.01-0.18,0.01-0.27c0.03-1.24,0.07-2.48,0.1-3.73
		c-5.1-2.43-5.63-2.21-7.78,3.6c-1.23,3.34-2.3,6.74-3.53,10.08c-0.32,0.87-0.99,1.62-1.53,2.48c-0.06-0.01-0.11-0.02-0.16-0.03
		c-0.09-0.03-0.18-0.07-0.25-0.12c-0.06-0.04-0.11-0.08-0.15-0.13c-0.05-0.04-0.09-0.1-0.12-0.15c-0.05-0.07-0.09-0.15-0.12-0.24
		c-0.02-0.05-0.03-0.09-0.04-0.14c-0.03-0.09-0.05-0.18-0.06-0.28c-0.02-0.09-0.03-0.18-0.03-0.27c-0.01-0.06-0.02-0.13-0.02-0.2
		c-0.02-0.34-0.03-0.69-0.08-1.01c-0.02-0.12-0.05-0.23-0.08-0.34c-0.02-0.08-0.05-0.16-0.1-0.24c-0.01-0.01-0.02-0.04-0.03-0.06
		c-0.01,0-0.01-0.01-0.02-0.02c-0.03-0.04-0.07-0.09-0.12-0.13c-0.04-0.04-0.08-0.07-0.14-0.1c-0.05-0.02-0.1-0.04-0.16-0.05
		c-0.04-0.01-0.08-0.02-0.12-0.03c-0.05,0-0.11-0.01-0.18-0.01c-0.13,0-0.28,0.02-0.45,0.05c-0.08,0.02-0.17,0.05-0.27,0.08
		c-0.04,0.01-0.09,0.02-0.14,0.04c-0.05,0.02-0.11,0.04-0.17,0.06c0.05-0.53,0.13-1.05,0.25-1.57c0.07-0.34,0.16-0.68,0.26-1.01
		c0.04-0.17,0.09-0.33,0.15-0.49c0.1-0.33,0.22-0.66,0.35-0.98c0.09-0.24,0.19-0.49,0.3-0.73c0.56-1.36,1.23-2.67,1.85-4
		c0.12-0.26,0.24-0.51,0.35-0.77c0.32-0.71,0.62-1.43,0.88-2.15c0.08-0.25,0.17-0.5,0.24-0.75c0.08-0.25,0.15-0.51,0.22-0.76
		c0.06-0.26,0.12-0.52,0.17-0.78c0.05-0.26,0.09-0.52,0.13-0.79c0.05-0.35,0.08-0.71,0.1-1.08c0.09-2.08,2.51-3.14,4.34-3.6
		c1.84-0.46,3.44,0.3,2.84,2.91c-0.04,0.14,2.27,0.83,3.49,1.26c1.39-2.44,2.98-1.98,3.85,0.15c0.79,1.9,3.81,4.48-0.65,5.96
		c-0.76,2.95-2.25,0.03-3.33,0.41c0.53,3.22,1.56,6.26,3.09,9.13c0.92-0.5,1.82-1.01,2.73-1.52h0.01l0.07,0.08
		c-0.09-0.89,0.25-1.49,1.18-1.64c1.93-0.98,3.66-2.59,6.1-2.02c0.33-0.12,0.66-0.24,0.98-0.37c-0.33-4.17-2.81-7.67-3.23-11.96
		c-0.99-10.17,2.42-14.45,12.7-14.95c0.93-0.04,1.86-0.07,2.78-0.07c0.7,0,1.4,0.01,2.09,0.04c0.47,0.02,0.95,0.04,1.41,0.07
		c0.03,0,0.06,0,0.08,0.01c0.31,0.01,0.61,0.03,0.91,0.06c0.01-0.01,0.02-0.01,0.04,0c0.39,0.02,0.78,0.06,1.17,0.1
		c0.75,0.07,1.5,0.16,2.24,0.26c0.22,0.02,0.44,0.05,0.66,0.09c0.06,0,0.13,0.01,0.19,0.03c0.4,0.05,0.79,0.11,1.19,0.18
		c0.02,0,0.05,0,0.08,0.01c0.11,0.02,0.23,0.04,0.35,0.06c0.52,0.09,1.04,0.18,1.56,0.29c0.34,0.06,0.68,0.13,1.02,0.21
		c1.03,0.21,2.05,0.45,3.06,0.71c0.18,0.04,0.36,0.09,0.53,0.14c1.67,0.44,3.33,0.93,4.97,1.49c0.47,0.15,0.94,0.31,1.41,0.48
		c0.53,0.18,1.06,0.37,1.58,0.57c0.51,0.18,1.01,0.37,1.51,0.57c0.53,0.2,1.06,0.4,1.58,0.62c0.53,0.21,1.05,0.42,1.57,0.65
		c0.45,0.18,0.89,0.37,1.34,0.57c0.45,0.19,0.89,0.39,1.34,0.59c11.83,5.32,23.14,11.66,33.23,20c0.81,0.67,1.53,1.25,1.58,2.37
		h5.24c-0.27,1.57-1.54,0.74-2.22,1.16c6.05,3.99,9.7,10.41,15.16,15.01c1.47-0.88,0.37-2.88,1.8-4.14c4.53,3.3,2.77,8.23,3.3,12.98
		c2.54-1.52,4.64-3.56,7.58-2.79C768.43,335.36,764.18,330.69,761.22,325.35z M614.52,332.15c-1.86-3.79-3.77-5.53-6.59-7.13
		c2.86-1.2,4.03-4.45,6.02-4.62c2.13-0.19,3.03,3.46,5.65,4.26C618.05,327.16,615.26,327.98,614.52,332.15z M630.06,325.03
		c0.6,0.16,2.63-0.35,0.97,1.09c-2.08,1.8-4.7,1.85-7.09,0.1c-1.82-0.82-3.01-1.66-0.4-3.14c0.17-0.11,0.34-0.2,0.51-0.27
		c0.13-0.07,0.25-0.13,0.38-0.19c0.22-0.1,0.43-0.2,0.65-0.28c0.22-0.09,0.44-0.17,0.66-0.24c0.15-0.06,0.31-0.11,0.47-0.15
		c0.37-0.12,0.76-0.21,1.14-0.29c0.14-0.03,0.28-0.06,0.42-0.08c0.27-0.05,0.54-0.09,0.81-0.12c0.22-0.03,0.45-0.06,0.68-0.07
		c0.21-0.03,0.42-0.04,0.63-0.05v0.05c0.01,0.04,0.01,0.07,0.01,0.11C629.96,322.67,630,323.85,630.06,325.03z M731.25,307.53
		c-1.65-0.02-3.59-1.98-3.61-3.61c-0.03-1.92,1.94-3.84,3.82-3.87c1.67-0.02,2.83,2.05,3.91,3.63
		C734.39,305.48,733.18,307.54,731.25,307.53z"/>
	<path class="st3" d="M592.8,339.34c-3,4.63-4.26,9.91-5.71,15.12c0.61,1.32,1.22,2.62,1.83,3.92c1.99-0.08,4.34,1.1,5.37-1.98
		c0.38-1.14,1.73-1.03,2.38-0.07c1.68,2.49,3.95,1.69,6.18,1.36c2.1-5.71,3.64-11.8,10.05-14.51c0.01-1.59,0.02-3.16,0.02-4.75
		C606.11,336.46,599.4,336.73,592.8,339.34z M599.14,353.45c1.23-3.72-5.32-2.87-1.79-7.08c3.27-3.89,4.25,0.58,6.52,1.21
		C602.48,349.31,601.29,350.79,599.14,353.45z"/>
	<path class="st1" d="M584.03,368.5c-1.47-1.67-1.91-3.14,0.73-4.06C584.79,365.84,585.5,367.37,584.03,368.5z"/>
	<path class="st1" d="M665.94,283.35c-0.78,1.24-1.95,0.83-3.05,0.73C663.45,281.93,664.48,281.74,665.94,283.35z"/>
	<path class="st1" d="M586.03,357.47c-1.55-1.32-0.65-1.78,0.73-2.05C586.91,356.25,586.94,357.03,586.03,357.47z"/>
	<path class="st1" d="M659.94,284.36c-0.45,0.9-1.22,0.88-2.05,0.73C658.17,283.69,658.62,282.8,659.94,284.36z"/>
	<path class="st1" d="M585.03,361.49c-1.55-1.32-0.65-1.78,0.73-2.06C585.91,360.26,585.94,361.04,585.03,361.49z"/>
	<path class="st3" d="M615.97,389.61c-2.14-3.87-6.62-5.26-9.17-8.71c-1.05-1.42-2.82-2.32-2.94-4.36c8.63,1.6,17.28,2.96,26.1,2.95
		c18.4-0.03,36.81,0,55.21-0.01c5.31,0,10.77-1.15,15.84-0.68c10.99,1.03,21.93,0.21,32.88,0.71c1.76,4.89,4.05,9.7,2,15.09
		c-0.01,0.29,0.02,0.57,0.08,0.85c-2.29,0.9-3.19,3.81-5.89,4.12c0.46-3.13-0.05-6.37-3.94-4.84c-3.31,1.31-7.79,0.52-9.92,4.79
		c-0.71,1.41-2.01,3.11-4.17,3.09c-1.49-4.98,2.19-9.32,1.77-14.17l0.01-0.01c0.47,0.93,1.03,0.46,1.41-0.01
		c0.12-0.15-0.27-0.7-0.42-1.07c-2.69-1.66-5.45-0.76-8.37-0.53c2.37,4.28,1.21,8.57,1.27,12.74c-1.32,0.02-2.63,0.03-3.95,0.05
		c0,0,0.09,0.01,0.09,0.01c-0.36-0.36-0.72-0.72-1.07-1.08c-1.98-0.73-3.96-1.45-5.93-2.18c-10.84-5.28-21.9-10.02-33.73-12.62
		c-3.53-0.78-6.6,2.83-6.15,7.04c0.17,1.63,0.57,3.24,0.87,4.86c-3.53-0.57-6.86,0.16-10.08,1.58c-2.06-4.87-5.48-0.81-8.49-1.27
		c4.98,2.03,3.7,6,3.42,9.64c-1.21-0.01-2.42-0.01-3.63-0.02c-1.06-1.88-1.95-3.98-3.85-5.13c-2.81-1.69-5.76-3.15-8.69-4.64
		c-1.39-0.7-2.82-1.35-2.44-3.25c0.38-1.88,1.97-1.83,3.49-2.08c4.71-0.8,7.38,1.3,8.26,6.51c0.9-1.43,1.38-2.1,1.76-2.82
		c3.33-6.27,3.33-6.26-3.15-6.73c-0.64-0.05-1.24-0.51-1.88-0.56C626.8,386.39,620.94,385.33,615.97,389.61z"/>
	<path class="st1" d="M780.81,408.53c-3.79,3.91-4.54,9.12-5.94,14.05c-0.16,1.39,0.35,2.95-1.04,4.02
		c-3.71,1.4-4.08,4.87-4.97,8.03l-0.01,0.01c-4.94,4.64-8.46,10.33-11.98,16.02l-0.02,0.02c-5.64,1.69-9.27,5.39-11,11
		c-4.11,3.32-8.24,6.6-13.45,8.09c-5,1.43-9.28,4.49-13.76,6.88c-6.14,3.28-12.71,3.65-19.11,4.85c-3.87,0.72-7.85,0.98-11.71,2.04
		c-5.28,1.44-10.05-1.58-15.17-2.01c-10.31-0.87-20.01-4.41-29.4-8.67c-1.45-0.66-3.29-1.07-3.33-3.25
		c5.83-0.27,10.66,3.15,16.13,4.39c24.05,5.42,47.41,4.06,69.34-7.62c27.41-14.6,44.34-37.34,50.58-68.09
		c2.96-14.61,2.09-28.93-1.19-43.27c-0.03-0.14-0.09-0.27-0.16-0.41c-0.2-0.39-0.53-0.76-0.76-1.14c-0.24-3.32-1.41-6.33-3.02-9.2
		c0.19-1.13-0.61-1.84-1.12-2.67c-1.29-6.21-5.54-10.88-8.5-16.22c-0.54-0.97-1.49-1.73-1.46-2.98c0.69-0.34,1.39-0.68,2.08-1.02
		c1.14,2.71,2.16,5.51,5,7.01c-0.08,1.71,0.2,3.23,2,3.99c0.68,1.35,1.35,2.69,2.03,4.03c-0.02,1.45,0.65,2.44,1.97,3
		c0.38,2.32,3.15,3.44,2.99,6.03c-1.52,2.42-0.08,3.38,1.98,4.04c0.69,1.23,1.13,2.54,1.02,3.99c0.38,1.8-1.09,4.31,1.98,5.04"/>
	<path class="st4" d="M733.88,379.51c-10.94-0.51-21.89,0.31-32.88-0.71c-5.06-0.47-10.53,0.67-15.84,0.68
		c-18.4,0.01-36.81-0.02-55.21,0.01c-8.82,0.01-17.47-1.35-26.1-2.95c-3.43-1.18-8.21-1.24-5.89-7.17c2.06,0.53,3.88-0.67,5.84-0.82
		c2.6,3.46,5.35,6.85,10.17,6.81c4.32-0.03,8.45,0.8,12.61,1.85c1.56,0.4,3.54,0.72,4.88,0.1c6.54-3.02,14.72,0.49,20.56-5.24
		c0.27-0.27,1.24,0.03,1.82,0.24c4.03,1.49,8.04,0.57,12.05-0.04l0.47,0.12c0,0,0.48-0.08,0.48-0.08c0.68,0.33,1.37,0.67,2.05,1
		c3.99,0.03,7.98,2.78,11.97,0c0.69,0,1.37,0,2.06,0.01c1.53,0.51,2.5-1.1,3.91-1.05c3.32,0.25,6.66,2.59,9.96-0.08
		c5.15,4.05,10.72,5.8,17.08,3.1c7.64,2.85,15.28,2,22.92,0c1.11,0.73,2.26,1.16,3.66,1.19c6.86,0.16,12.25-2.53,16.25-8.1
		c2.03,0.7,4.05,1.39,6.08,2.09c0.69,4.45-2.71,5.12-5.67,5.93C749.53,378.47,741.64,378.51,733.88,379.51z"/>
	<path class="st5" d="M707.71,399.56c-0.07-4.17,1.09-8.46-1.27-12.74c2.92-0.22,5.68-1.13,8.37,0.53
		c-0.33,0.36-0.66,0.71-0.99,1.07c0,0-0.01,0.01-0.01,0.01c-1.77,2.17-2.26,4.95-2.74,7.48c-0.4,2.06-1.33,4.78,0.97,6.7
		c2.15,0.02,3.46-1.67,4.17-3.09c2.13-4.27,6.61-3.48,9.92-4.79c3.89-1.53,4.41,1.71,3.94,4.84c-0.07,1.48-0.06,2.96-0.23,4.43
		c-0.28,2.55,1.43,3.67,3.35,4.14c2.23,0.55,2.92-1.36,3.66-3.04c1.52-3.41,1.17-6.6-0.9-9.65c-0.06-0.28-0.09-0.56-0.08-0.85
		c2.69,0.36,5.63-1.23,8.09,1.02c-0.04,4.17-0.05,8.34-0.12,12.52c-0.06,3.9,0.73,7.97-2.07,11.38c0,0,0.01-0.01,0.01-0.01
		c-2.02,1-4.05,2-6.07,3c-2.1,0.33-3.82-0.15-5.32-1.84c-2.27-2.55-3.98-6.26-8.68-4.39c-1.04,0.41-1.58-1.38-2.18-2.35
		c-1.3-2.09-2.62-4.18-4.11-6.14c-0.59-0.79-1.16-2.27-2.66-1.44c-1.03,0.57-1.17,1.83-0.81,2.66c2.43,5.6-2,5.13-5.86,6.49
		C708.74,409.86,707.76,404.68,707.71,399.56z M720.82,399.44c-1.16,0.69-2.32,1.39-3.48,2.08l-0.41,0.07l-0.07,0.41
		c-0.67,0.83-2.01,1.66-0.01,2.51c3.08,5.74,7.41,9.94,14.07,11c1.42,0.23,1.81,1.12,2.5,2c2.5,3.19,4.52,1.86,5.86-0.97
		c1.03-2.18,2.03-4.52,1.47-7.1c-0.04-0.79-0.09-1.57-0.13-2.36c-0.76,0.82-1.51,1.63-2.27,2.45l-0.41,0.07l-0.08,0.41
		c-2.16,2.81-5.29,0.94-7.88,1.64c-3.27-1.74-4.5-4.42-4.19-8.12c0.14-1.66,0.75-3.66-1-5.05c-1.91-2.12-2.76,0.18-3.98,0.95
		L720.82,399.44z"/>
	<path class="st5" d="M615.97,389.61c4.97-4.28,10.83-3.23,16.58-2.75c0.64,0.05,1.25,0.51,1.88,0.56c6.48,0.47,6.49,0.46,3.15,6.73
		c-0.38,0.72-0.86,1.39-1.76,2.82c-0.88-5.21-3.55-7.3-8.26-6.51c-1.53,0.26-3.11,0.2-3.49,2.08c-0.39,1.9,1.05,2.55,2.44,3.25
		c2.93,1.48,5.88,2.95,8.69,4.64c1.9,1.14,2.79,3.24,3.85,5.13c-0.08,0.61-0.16,1.23-0.23,1.84c-1.52,1.45-0.93,3.37-1.1,5.11
		c0,0,0.13-0.12,0.13-0.12c-4.84,1.76-9.9,0.89-14.85,1.28c-3.02-0.63-5.03-2.73-5.89-5.39c-0.38-1.18-2.59-2.23-1.09-3.68
		c1.7-1.64,4.05-1.11,6.17-1c1.98,0.1,1.77,1.74,1.66,2.98c-0.23,2.64,1.4,3.51,3.48,3.89c2.13,0.39,3.63-0.85,4.28-2.63
		c0.82-2.25-0.04-4.35-2.2-5.39c-2.79-1.35-5.79-2.25-8.62-3.52C616.82,397.13,614.55,394.31,615.97,389.61z"/>
	<path class="st5" d="M675.36,439.62l-0.41,0.07c0,0-0.07,0.41-0.07,0.41c-1.51,3.84-1.65,7.69-0.01,11.54
		c-0.92,3.65-3.76,2.17-5.54,1.58c-2.04-0.68,0.25-2.06,0.24-3.06c-0.07-5.37,2.07-11.08-1.87-16.23c2.35,0.31,5.35-3.01,7.32,1.6
		c0.61,1.44,1.95-0.07,2.88-0.44c3.2-1.26,6.28-1.9,8.87,1.18c1.6,1.91,2.62,0.04,3.57-0.67c3.29-2.46,6.72-2.88,10.12-0.63
		c3.72,2.46,4.01,6.29,3.05,10.21c-0.32,1.3-0.43,2.58-0.66,3.87c-0.28,1.57,3.08,2.78,0.64,4.15c-2.02,1.13-4.55,0.61-6.82,0.23
		c-0.85-0.14-1.08-0.63-0.66-2.02c1.35-4.51,1.74-9.23-0.15-13.8c-1.17-1.86-2.34-1.1-3.5,0.01c-0.49,0.49-0.99,0.99-1.48,1.48
		c-3.61,1.31-3.23,4.39-2.95,7.21c0.38,3.82-0.27,6.38-4.94,5.47c-1.82-2.44,0.44-4.88-0.01-7.41c-0.38-2.11-0.2-4.27-2.12-5.76
		C678.51,436.12,677.14,438.99,675.36,439.62z"/>
	<path class="st5" d="M656.75,432.53c-0.7-0.49-1.03,3.12-1.8,0.24c-0.55-2.1-1-4.08-3.08-5.19c-4.65-1.77-4.92-1.66-4.97,2.43
		c-0.06,5.15,0,10.31-0.02,15.46c-0.01,2.55,0.38,4.89,2.99,6.16c-3.3,4.12-7.56,1.27-11.95,1.62c3.74-8.4,0.64-17.31,2.84-25.75
		c-5.52-1.72-5.4,3.17-7.01,6.03c-0.48,0.73-0.96,1.45-1.58,2.39c-0.85-3.91,0.43-7.75-1.07-11.38c-0.61-1.47,0.8-2.17,2.03-1.9
		c7.83,1.68,15.59-0.34,23.39-0.29c0.16,0,0.32,0.86,0.48,1.32C656.92,426.63,656.84,429.58,656.75,432.53z"/>
	<path class="st5" d="M642.68,405.58c0.27-3.64,1.56-7.61-3.42-9.64c3.02,0.46,6.43-3.6,8.49,1.27c3.22-1.42,6.55-2.15,10.08-1.58
		c2.15,1.9,5.19,2.89,6.17,6c0.16,2.57-0.8,4.78-2.19,6.85c0,0,0.02-0.01,0.02-0.01c-3.2,2.74-7.13,1.93-10.83,2.19
		c-1.32-0.37-2.82-2.41-3.77-1.12c-1.17,1.59-1.93,3.92-1.19,6.11c0.54,1.59,1.47,3.08-0.33,4.42c-0.72,0.53-1.57,0.59-2.34,0.18
		c-1.86-0.98-1.54-2.8-1.45-4.41C642.11,412.43,643.58,409.09,642.68,405.58z M649.88,399.98c-0.35,1.51-2.99,2.5-1.01,4.53
		c0.05,0.83,0.09,1.67,0.95,2.14c2.4,1.42,5.27,3.11,7.36,0.52c2.03-2.52,2.84-5.92-0.27-8.72c-0.29-0.32-0.58-0.65-0.87-0.97
		c-1.74-0.42-3.34-0.23-4.7,1.05C650.85,399,650.37,399.49,649.88,399.98z"/>
	<path class="st6" d="M773.83,353.41c-0.01,0.01-0.01,0.01-0.02,0.01c0.01,0.01,0.03,0.02,0.04,0.02L773.83,353.41z M764.21,352.12
		c2.53-2.62,3.62-5.99,6.63-7.88c0.19-1.13-0.61-1.84-1.12-2.67c-2.94-0.77-5.04,1.27-7.58,2.79c-0.53-4.75,1.23-9.68-3.3-12.98
		c-1.43,1.25-0.33,3.25-1.8,4.14c-0.03,2.23-0.06,4.47-0.08,6.7c2.01,2.89,0.23,6.23,1.07,9.26c1.24-0.98,2.48-1.97,4.25-3.36
		c0.28,3.51-2.81,4.28-3.5,6.38c-0.04,1.34-0.07,2.67-0.1,4.01c0.86,1.8-1.15,3.19-0.68,4.94c4.21,0.13,6.94-2.6,9.78-5.12
		c2.01-1.63,4.02-3.26,6.03-4.9C770.96,351.76,767.7,353,764.21,352.12z M763.93,347.14c-0.04,0.01-0.07,0.02-0.11,0.02
		c-0.12-0.01-0.24-0.17-0.35-0.26c0.25,0.02,0.5,0.04,0.76,0.05c0,0-0.01,0-0.01,0.01c-0.03,0.02-0.06,0.04-0.09,0.06
		C764.06,347.06,763.99,347.11,763.93,347.14z"/>
	<path class="st5" d="M713.85,444.62c2.06,3.54,4.57,4.03,8,1.64c2.52-1.75,5.31-0.82,7.93,0.24c-0.96,0.45-2.41-0.49-2.98,1.07
		c0,0,0,0,0,0c-3.54,2.55-7.53,3.44-11.82,3.19c-5.14-1.3-7.54-5.03-7.92-9.92c-0.25-3.32,4.95-7.43,10.04-8.11
		c4.61-0.62,8.85,0.26,11.29,4.94c0.53,1.02,1.05,2.04,1.58,3.06c-0.01,2.41-1.78,1.88-3.18,1.89c-3.99,0.03-7.98-0.02-11.97,0.03
		C713.67,442.67,713.67,442.77,713.85,444.62z M719.65,439.68c1.35-0.52,3.89,1,3.94-1.53c0.04-2.12-2.27-2.43-4.1-2.52
		c-1.8-0.09-3.6,0.31-3.43,2.53C716.23,440.49,718.37,439.25,719.65,439.68z"/>
	<path class="st5" d="M696.84,396.36c1.98,0.73,3.96,1.45,5.93,2.18c0.36,0.36,0.72,0.72,1.07,1.08c0,0-0.09-0.01-0.09-0.01
		c0.41,1.01,0.82,2.03,1.22,3.04c-0.71,2.6,1.16,5.74-1.64,7.91l-0.41,0.07c0,0-0.07,0.41-0.07,0.41c-2.37,2.89-5.7,2.51-8.88,2.65
		c-4.32-1.92-7.68-6.75-6.97-10.23C688.1,398.1,692.12,396.71,696.84,396.36z M692.86,408.53c1.63,4.1,3.8,3.69,5.76,0.42
		c1.91-3.18,2.18-6.52-0.76-9.44c-1.17-1.85-2.34-1.11-3.5,0.01l-0.41,0.07l-0.07,0.41C692.13,402.68,690.53,405.37,692.86,408.53z"
		/>
	<path class="st5" d="M672.99,413.68c-4.78-1.45-6.71-5.35-6.91-9.7c-0.2-4.45,3.33-6.69,7.24-7.3c4.83-0.75,8.64,1.24,10.67,5.97
		c-0.71,2.6,1.16,5.74-1.64,7.91l-0.41,0.07c0,0-0.07,0.41-0.07,0.41C679.51,413.93,676.17,413.55,672.99,413.68z M673.36,399.52
		l-0.41,0.07l-0.07,0.41c-1.74,2.68-3.34,5.37-1.01,8.53c1.63,4.1,3.8,3.69,5.76,0.42c1.91-3.18,2.18-6.52-0.76-9.44
		C675.69,397.66,674.52,398.41,673.36,399.52z"/>
	<path class="st6" d="M603.81,368.55c-1.96,0.16-3.78,1.36-5.84,0.82c-0.21-0.79-0.42-1.94-1.37-1.72c-6.06,1.42-5.17-5.35-8.46-7.2
		c-0.44-0.25,0.01-1.54,0.78-2.07c1.99-0.07,4.33,1.1,5.36-1.98c0.38-1.15,1.73-1.03,2.38-0.07c1.68,2.49,3.95,1.69,6.18,1.35
		C602.42,361.37,603.07,364.97,603.81,368.55z"/>
	<path class="st5" d="M657.8,434.49c7.72,0.31,7.74,0.31,6.2,8.09c-0.67,3.39,0.54,6.45,1.79,9.52c-7.37,1.25-7.31,1.09-7.01-5.65
		c0.18-3.98,1.36-8.32-1.87-11.84c0,0,0.45,0,0.45,0L657.8,434.49z"/>
	<path class="st1" d="M637.96,468.64c-3.76,1.24-6.58-1.14-9.27-2.89c-5.13-3.3-9.7-7.39-13.96-11.79c-1.08-1.1-2.04-2.22-1.48-3.92
		c7.01,6,14.09,11.89,22.39,16.07C636.6,466.59,637.19,467.78,637.96,468.64z"/>
	<path class="st3" d="M758,363.44c4.22,0.13,6.94-2.6,9.78-5.12c0.42,4.91-0.37,9.32-4.98,12.16c-2.03-0.7-4.05-1.39-6.08-2.09
		C757.15,366.74,757.57,365.09,758,363.44z"/>
	<path class="st7" d="M649.88,451.64c-2.6-1.27-2.99-3.61-2.99-6.16c0.01-5.15-0.04-10.31,0.02-15.46c0.04-4.1,0.32-4.2,4.97-2.43
		c-1.44,0.05-3.1-0.24-2.97,2.1C649.31,437,647.9,444.39,649.88,451.64z"/>
	<path class="st7" d="M741.78,419.52c2.8-3.41,2.01-7.48,2.07-11.38c0.07-4.17,0.08-8.34,0.12-12.52
		c1.84,7.11,0.75,14.32,0.51,21.48C744.45,417.86,744.13,420.38,741.78,419.52z"/>
	<path class="st7" d="M633.76,433.53c1.61-2.86,1.49-7.74,7.01-6.03c-3.46,2.22-4.89,5.81-6.53,10.14
		C634.03,435.82,633.89,434.68,633.76,433.53z"/>
	<path class="st5" d="M659.03,428.68c1.34-1.14,2.58-1.25,3.72,0.29c0.47,0.63,1.48,1.59,0.73,2c-1.35,0.72-2.24,3.24-4.44,1.57
		C657.71,431.25,657.7,429.96,659.03,428.68z"/>
	<path class="st7" d="M713.85,444.62c-0.17-1.85-0.17-1.95,0.98-1.96c3.99-0.05,7.98,0,11.97-0.03c1.39-0.01,3.17,0.52,3.18-1.89
		c1.81,2.51,0.35,2.91-1.84,2.9c-3.43-0.02-6.87-0.08-10.29,0.03C716.49,443.72,714.85,442.96,713.85,444.62z"/>
	<path class="st7" d="M682.99,451.77c4.67,0.91,5.32-1.64,4.94-5.47c-0.28-2.81-0.66-5.89,2.95-7.21
		c-2.63,3.57-1.36,7.83-2.17,11.68C687.95,454.37,685.13,452.65,682.99,451.77z"/>
	<path class="st7" d="M659.03,428.68c-1.33,1.29-1.32,2.57,0,3.86c-0.41,0.65-0.82,1.3-1.23,1.96c0,0-0.44,0.11-0.44,0.11
		s-0.45,0-0.45,0c-0.05-0.69-0.1-1.38-0.15-2.07c0.09-2.95,0.17-5.9,0.26-8.85c0.81-0.37,1.8-1.28,1.86,0.61
		C658.93,425.75,658.98,427.22,659.03,428.68z"/>
	<path class="st7" d="M623.01,413.68c4.95-0.39,10.01,0.49,14.85-1.28C633.19,416.13,628.09,414.74,623.01,413.68z"/>
	<path class="st7" d="M714.97,450.77c4.29,0.25,8.28-0.64,11.82-3.19C724.82,451.59,720.77,452.68,714.97,450.77z"/>
	<path class="st7" d="M651,410.67c3.7-0.27,7.63,0.55,10.83-2.19C660,411.97,656.93,412.6,651,410.67z"/>
	<path class="st7" d="M674.87,451.64c-1.64-3.85-1.49-7.69,0.01-11.54C674.87,443.95,674.87,447.79,674.87,451.64z"/>
	<path class="st7" d="M672.99,413.68c3.18-0.13,6.52,0.25,8.88-2.65C680.8,414.75,678.46,415.44,672.99,413.68z"/>
	<path class="st7" d="M693.98,413.68c3.18-0.13,6.52,0.25,8.88-2.65C701.79,414.75,699.45,415.44,693.98,413.68z"/>
	<path class="st7" d="M735.72,422.51c2.02-1,4.05-2,6.07-3C740.98,422.98,738.38,422.82,735.72,422.51z"/>
	<path class="st7" d="M682.35,410.55c2.8-2.17,0.93-5.3,1.64-7.91C684.56,405.51,687.34,408.84,682.35,410.55z"/>
	<path class="st7" d="M703.34,410.55c2.8-2.17,0.93-5.3,1.64-7.91C705.55,405.51,708.33,408.84,703.34,410.55z"/>
	<path class="st1" d="M611.95,448.63c-2.92,0.22-4.25-1.13-4.02-4.05C609.56,445.65,610.91,446.98,611.95,448.63z"/>
	<path class="st7" d="M661.82,408.49c1.38-2.07,2.35-4.28,2.19-6.85C665.36,404.59,665.77,407.24,661.82,408.49z"/>
	<path class="st7" d="M637.73,412.52c0.17-1.75-0.43-3.66,1.1-5.11C639.25,409.28,639.63,411.15,637.73,412.52z"/>
	<path class="st7" d="M675.36,439.62c1.78-0.63,3.15-3.5,5.5-1.01C678.89,438.22,677.52,441.06,675.36,439.62z"/>
	<path class="st1" d="M604.99,441.6c-2.08-0.08-2.1-1.55-2.05-3.05C604.23,439.16,604.93,440.17,604.99,441.6z"/>
	<path class="st7" d="M726.8,447.57c0.57-1.55,2.02-0.61,2.98-1.07C729.45,448.73,728,447.78,726.8,447.57z"/>
	<path class="st7" d="M692.35,437.62c1.16-1.11,2.33-1.87,3.5-0.01C694.68,437.23,693.52,438.86,692.35,437.62z"/>
	<path class="st1" d="M756.85,450.68c-2.33,5.02-6.35,8.33-11,11C747.58,456.07,751.21,452.36,756.85,450.68z"/>
	<path class="st1" d="M768.85,434.64c-2.27,6.65-5.8,12.33-11.98,16.02C760.39,444.96,763.91,439.27,768.85,434.64z"/>
	<path class="st1" d="M754.61,315c-1.12-0.74-2.2-1.53-3.25-2.34c-1.58-1.22-3.08-2.52-4.51-3.91c-1.43-1.39-2.78-2.86-4.06-4.43
		c0.35,0.07,0.71,0.16,1.07,0.26c0.18,0.06,0.36,0.12,0.54,0.18c0.18,0.07,0.36,0.13,0.55,0.21c0.18,0.07,0.36,0.15,0.54,0.23
		c0.18,0.08,0.36,0.17,0.54,0.25c0.04,0.02,0.08,0.04,0.12,0.06c0.32,0.16,0.64,0.34,0.96,0.53c0.63,0.37,1.25,0.79,1.85,1.24
		c0.3,0.23,0.59,0.46,0.88,0.7c1.2,1.03,2.28,2.21,3.11,3.4c0.1,0.15,0.2,0.3,0.3,0.45c0.4,0.63,0.74,1.26,0.98,1.9
		c0.06,0.14,0.11,0.28,0.15,0.42C754.48,314.45,754.55,314.73,754.61,315z"/>
	<path class="st8" d="M743.86,304.58c-0.36-0.1-0.72-0.19-1.07-0.26h-0.01v-0.01C743.14,304.38,743.5,304.47,743.86,304.58z"/>
	<path class="st1" d="M780.81,408.53c-1.11,5.05-1.79,10.29-5.94,14.05C776.27,417.65,777.02,412.44,780.81,408.53"/>
	<path class="st1" d="M773.83,426.59c-1.12,3.01-1.46,6.5-4.97,8.03C769.75,431.46,770.12,427.99,773.83,426.59z"/>
	<path class="st1" d="M780.81,358.46c-3.07-0.73-1.6-3.24-1.98-5.04C781.14,354.45,780.83,356.51,780.81,358.46"/>
	<path class="st1" d="M777.81,349.43c-2.06-0.65-3.5-1.62-1.98-4.04C777.13,346.42,777.68,347.83,777.81,349.43z"/>
	<path class="st1" d="M761.84,321.35c-0.69,0.34-1.39,0.68-2.08,1.02c-0.31-0.32-0.63-0.63-0.94-0.95c0-1.02,0.01-2.06,0.02-3.08
		C760.19,318.99,761.19,319.99,761.84,321.35z"/>
	<path class="st1" d="M758.84,318.33c-0.01,1.02-0.02,2.06-0.02,3.08c-1.71-0.71-2.05-2.28-2.4-3.83
		C757.38,317.31,758.23,317.43,758.84,318.33z"/>
	<path class="st1" d="M768.84,332.34c-1.8-0.75-2.08-2.28-2-3.99C768.63,329.12,768.92,330.63,768.84,332.34z"/>
	<path class="st1" d="M772.84,339.36c-1.32-0.56-1.99-1.56-1.97-3C772.82,336.51,772.85,337.92,772.84,339.36z"/>
	<path class="st3" d="M659.93,316.14c-0.33-4.17-2.81-7.67-3.23-11.96c-0.99-10.17,2.41-14.45,12.7-14.95
		c12.28-0.59,23.7,2.82,34.66,7.75c11.83,5.32,23.14,11.67,33.23,20c0.81,0.67,1.53,1.25,1.58,2.36c-0.93,0.6-1.86,1.73-2.78,1.71
		c-5.88-0.1-6.49,3.62-6.18,8.13c-0.37,0.01-0.75,0.01-1.12,0.02c0.17-8.56-3.22-12.17-11-11.7c-0.28-0.08-0.55-0.17-0.82-0.28
		c-0.17-2.92-0.53-5.55-4.08-2.28c-1.07,0.98-2.02,1.55-3.5,0.78c-0.94-0.49-2.48-0.25-2.2,0.93c0.92,3.88-2.81,3.32-4.25,4.9
		c-0.92-0.5-1.84-1-2.76-1.49c0,0-0.07,0.11-0.07,0.11c0.15-0.97-0.38-1.53-1.17-1.91c-1-1.19-2.43-1.58-3.83-2.02
		c0.98-1.86,1.26-3.97,0.63-5.81c-0.83-2.46-0.43-3.33,2.21-3.16c1,0.07,2.17,0.46,3.14-0.45c-6.41-2.7-14.83-0.56-17.98,4.52
		c-3.54-10.89-4.48-11.9-11.23-11.96c-2-0.33-3.72-0.06-3.95,2.41c-0.19,2.07,0.45,3.62,2.97,3.39c4.36,1.36,4.85,4.23,3.08,7.97
		c-0.76,0.25-1.7,0.14-2.15,1.05c-1.66,0.08-3.37,0.1-3.95,2.16l0.08-0.06c-1.2-0.23-2.04,0.51-2.93,1.11
		c-1.07-1.79-2.73-0.85-4.17-0.9C660.55,316.37,660.24,316.24,659.93,316.14z M709.59,303.02c-0.97,2.84-3.33,4.01-5.32,5.58
		c1.98,1.56,3.87,3.2,5.38,5.61c1.07-2.4,2.83-4.01,5.16-5.19C713.08,307.03,711.51,305.22,709.59,303.02z M697.24,297.35
		c-0.01,1.71-1.89,1.58-2.15,2.71c-0.33,1.49,2.08,1.33,2.14,2.8c1.19-0.27,2.08-1.15,2.39-2.15
		C700.12,299.15,698.54,298.59,697.24,297.35z"/>
	<path class="st9" d="M660.84,316.52c1.44,0.06,3.1-0.89,4.17,0.9c-3.08,4.62-5.86,9.39-7.11,14.89
		c-1.48,5.94-2.39,11.94-2.01,18.09c-0.16,8.9,1.93,16.76,10.01,21.86c-4.01,0.61-8.02,1.53-12.05,0.04
		c-0.58-0.21-1.55-0.51-1.82-0.24c-5.84,5.73-14.01,2.22-20.56,5.24c-1.34,0.62-3.32,0.3-4.88-0.1c-4.15-1.05-8.28-1.88-12.61-1.85
		c-4.82,0.04-7.56-3.36-10.17-6.81c-0.75-3.58-1.39-7.17-0.96-10.86c2.1-5.7,3.64-11.8,10.05-14.5c2.62-1.43,5.42-1.07,8.21-0.81
		c-4.71,3.07-7.94,7.08-8.2,12.98c-1.99,3.81-1.01,6.75,2.02,9.76c3.47,3.45,7.88,4.48,12.17,5.06c7.97,1.08,14.43-2.52,18.19-9.44
		c2.52-4.64-0.73-8.93-3.14-13.01c-1.33-2.25-3.3-3.67-5.24-5.2c1.25-0.07,2.49-0.14,3.74-0.21c0.75,0.01,1.5,0.01,2.25,0.02
		c0.96-0.22,2.66,1.28,2.84-0.56c0.74-7.58,3.7-14.52,5.85-21.7c0,0,0.07,0.08,0.07,0.09c0.92-0.17,1.14-0.84,1.18-1.64
		c1.93-0.98,3.66-2.59,6.1-2.01c0.08,0.62,0.15,1.35,0.94,1.36C660.66,317.87,660.75,317.14,660.84,316.52z M658.95,319.61
		c-2.82,0.38-2.86,2.02-3.68,2.96c-3.46,4-1.87,9.72-5.97,14.18c-3.79,4.12-1.53,8.17,3.66,11.73
		C652.22,338.38,654.44,329.02,658.95,319.61z"/>
	<path class="st6" d="M634.97,333.26c4.13-1.12,1.11-4.47,2.04-6.59c0.69-1.59-2.05-5.66,3.11-4.13c1.18,0.35,0.84-1.48,0.86-2.34
		c0.07-2.99,0.03-5.98,0.03-8.93c1.96-0.81,3.03,1.35,4.71,1.15c0,0,0.05,0.04,0.05,0.04c0.53,3.21,1.56,6.26,3.1,9.13
		c-0.48,2.17-1.45,4.09-2.86,5.81c-0.2-2.39,0.27-4.96-1.85-6.99c-0.55,3.1-0.17,5.95,0.81,8.74c-1.77,3.51-1.31,7.47-2.23,11.15
		c-2.14-2.61,0.78-6.63-2.42-9.03c-1.25,3.54,0.52,6.82,0.54,10.2c-2.9-1.53-1.93-6.32-5.86-7
		C634.98,334.07,634.97,333.67,634.97,333.26z"/>
	<path class="st3" d="M757.04,335.52c-0.03,2.23-0.05,4.47-0.08,6.7c-2.41,0.42-2.31-1.8-3.13-3.02c-3.1-4.59-6.51-8.63-12.89-7.66
		c-0.76,0-1.52-0.01-2.28-0.01c-2.92,0.33-5.75,0.33-7.9-2.17c0.33-2.4,0.59-4.85,3.5-5.94c1.09,2.44-0.22,6.94,4.31,5.75
		c3.58-0.94,2.63-3.8,1.34-6.36c-1.11-2.19,1.18-1.64,1.97-2.29C747.93,324.5,751.58,330.92,757.04,335.52z"/>
	<path class="st10" d="M634.97,333.26c0.01,0.41,0.01,0.81,0.02,1.22c0.28,1.83-1.34,2.09-2.36,2.61c-1.87,0.96-2.69,2.14-1.74,4.18
		c-2.64,0.81-5.63-0.99-8.09,1.12c-0.56,0-1.12-0.01-1.68-0.01c-2.79-0.26-5.59-0.62-8.21,0.81c0.01-1.58,0.02-3.17,0.03-4.75
		c-0.13-1.93-0.13-1.93-4.16-2.46c6.27-1.37,11.57,0.01,14.81,4.05c1.52-3.54,1.75-8.09,6.73-8.65
		C632.15,331.18,634.02,331.11,634.97,333.26z"/>
	<path class="st7" d="M645.82,308.42c-5.1-2.43-5.63-2.21-7.78,3.61c-1.23,3.34-2.3,6.74-3.53,10.07c-0.32,0.87-0.99,1.62-1.53,2.48
		c-2.04-0.32,0.42-4.65-3.09-3.31c0,0,0.07,0.07,0.07,0.07c0.49-5.72,4.99-10.09,5.25-15.97c0.09-2.08,2.51-3.15,4.34-3.61
		c1.84-0.46,3.44,0.3,2.84,2.92c-0.03,0.14,2.28,0.83,3.5,1.26C645.87,306.76,645.85,307.59,645.82,308.42z"/>
	<path class="st11" d="M642.72,340.3c0.92-3.68,0.46-7.64,2.23-11.15c1.17-0.1,0.81-1.1,1.04-1.76c1.41-1.71,2.38-3.64,2.86-5.81
		c0.91-0.51,1.83-1.01,2.74-1.52c-2.15,7.17-5.11,14.11-5.85,21.69c-0.18,1.84-1.88,0.34-2.84,0.56
		C642.84,341.66,642.78,340.98,642.72,340.3z"/>
	<path class="st10" d="M741.88,320.51c-0.79,0.66-3.08,0.1-1.97,2.29c1.3,2.56,2.25,5.42-1.34,6.36c-4.53,1.19-3.23-3.3-4.31-5.75
		c-2.91,1.09-3.17,3.54-3.5,5.94c-0.3,0.01-0.58-0.05-0.85-0.17c-0.31-4.51,0.31-8.23,6.18-8.13c0.92,0.02,1.85-1.11,2.78-1.71
		c1.73,0,3.46,0,5.24,0C743.83,320.92,742.57,320.09,741.88,320.51z"/>
	<path class="st3" d="M614.52,332.14c-1.86-3.79-3.77-5.53-6.59-7.13c2.86-1.2,4.03-4.44,6.02-4.62c2.13-0.19,3.03,3.46,5.65,4.26
		C618.05,327.16,615.26,327.98,614.52,332.14z"/>
	<path class="st3" d="M735.37,303.68c-0.97,1.79-2.19,3.86-4.11,3.85c-1.65-0.01-3.6-1.97-3.62-3.61c-0.02-1.92,1.94-3.85,3.83-3.87
		C733.13,300.03,734.29,302.09,735.37,303.68z"/>
	<path class="st12" d="M623.94,326.23c-1.82-0.83-3.01-1.66-0.4-3.14c2.02-1.14,4.15-1.65,6.42-1.75c0,0-0.07-0.07-0.07-0.07
		c0.06,1.25,0.11,2.5,0.17,3.75C628.38,327.27,625.79,324.83,623.94,326.23z"/>
	<path class="st12" d="M645.82,308.42c0.02-0.83,0.05-1.65,0.07-2.48c1.38-2.43,2.97-1.97,3.85,0.15c0.79,1.9,3.8,4.48-0.65,5.96
		c-1.88-0.55-1.49-3.09-3.27-3.73L645.82,308.42z"/>
	<path class="st7" d="M623.94,326.23c1.85-1.4,4.44,1.04,6.12-1.2c0.6,0.17,2.63-0.35,0.97,1.09
		C628.95,327.92,626.33,327.97,623.94,326.23z"/>
	<path class="st7" d="M645.82,308.32c1.78,0.64,1.39,3.18,3.27,3.73c-0.76,2.96-2.25,0.04-3.34,0.42c0,0-0.05-0.04-0.05-0.04
		C645.75,311.06,645.79,309.69,645.82,308.32z"/>
	<path class="st11" d="M660.84,316.52c-0.09,0.62-0.18,1.35-0.96,1.34c-0.79-0.01-0.85-0.74-0.94-1.36
		c0.33-0.12,0.65-0.25,0.98-0.37C660.24,316.24,660.55,316.37,660.84,316.52z"/>
	<path class="st11" d="M652.84,318.52c-0.04,0.8-0.26,1.47-1.18,1.64C651.57,319.26,651.91,318.68,652.84,318.52z"/>
	<path class="st7" d="M603.87,347.59c-1.39,1.72-2.59,3.2-4.74,5.86c1.23-3.73-5.31-2.87-1.78-7.08
		C600.62,342.48,601.6,346.95,603.87,347.59z"/>
	<path class="st0" d="M735.96,395.45c2.07,3.05,2.42,6.23,0.9,9.65c-0.75,1.67-1.44,3.59-3.66,3.04c-1.92-0.48-3.63-1.59-3.35-4.14
		c0.16-1.47,0.16-2.95,0.23-4.43C732.78,399.26,733.67,396.35,735.96,395.45z"/>
	<path class="st7" d="M712.04,402.6c-2.3-1.91-1.37-4.64-0.97-6.7c0.49-2.52,0.97-5.31,2.74-7.48
		C714.23,393.28,710.55,397.62,712.04,402.6z"/>
	<path class="st7" d="M713.82,388.42c0.33-0.36,0.66-0.71,0.99-1.07c0.16,0.37,0.54,0.92,0.42,1.07
		C714.85,388.88,714.28,389.34,713.82,388.42z"/>
	<path class="st0" d="M703.85,399.61c-0.36-0.36-0.71-0.72-1.07-1.08C703.14,398.9,703.49,399.26,703.85,399.61z"/>
	<path class="st0" d="M773.86,353.45c0,0-0.01,0-0.01-0.01c-0.01,0-0.03-0.01-0.04-0.02c-2.85-1.66-6.11-0.42-9.6-1.29
		c2.53-2.62,3.62-5.99,6.63-7.88C772.45,347.11,773.62,350.12,773.86,353.45z"/>
	<path class="st13" d="M729.9,329.19c0.27,0.12,0.56,0.18,0.85,0.17c2.15,2.49,4.98,2.49,7.9,2.17c3.4,8.67,6.76,17.36,6.23,26.95
		c0.03,0.98,0.05,1.97,0.08,2.95c-1.05,5.61-3.38,10.46-8.14,13.87c-7.64,2-15.28,2.84-22.92,0c-5.32-3.14-7.69-8.22-9.07-13.95
		c0-0.96,0.01-1.92,0.01-2.87c0.1-4.48,0.38-8.93,2.19-13.13c3.99-5.28,7.99-10.56,11.98-15.84c0.98-0.43,1.95-0.86,2.93-1.3
		c2.27,0.42,4.72-0.42,6.84,1C729.15,329.21,729.52,329.2,729.9,329.19z M728.86,356.41c-0.26,0.18-0.71,0.33-0.74,0.54
		c-0.27,1.92-0.73,3.45-3.2,3.57c-2.28,0.11-3.09-0.5-3.26-2.95c-0.16-2.31-1.57-0.58-2.41-0.15c-2.48,1.27-2.96,3.77-2.14,5.82
		c0.77,1.92,2.81,2.91,5.2,1.47c0.76-0.46,1.93-0.2,2.91-0.31c1.93-0.21,4.17,1.01,5.39-1.94c1.15-2.8-0.5-4.32-1.84-6.13
		c8.15,0.13,8.93-0.65,7.69-7.58c-2.02,1.1-4.42,1.28-6.2,0.33c-2.08-1.11-2.7,0.25-3.64,1.2c-1.37,1.4-0.68,2.66,0.48,3.86
		C727.75,354.82,728.27,355.65,728.86,356.41z M716.02,356.38c3.69,0.47,5.54-2.22,5.77-5.14c0.37-4.61-3.28-0.91-4.86-1.78
		c-0.26-0.14-0.69,0.05-0.97-0.07c-2.56-1.05-4.84-1.42-5.03,2.38C710.76,355.16,712.66,356.52,716.02,356.38z M715.26,373.94
		c-1.23-5.27-3.42-8.67-3.93-12.6C710.39,367.87,710.63,368.74,715.26,373.94z M733.81,372.44c0.35,0.2,0.71,0.4,1.06,0.6
		c2.41-3.44,3.7-7.16,2.6-12.27C736.1,365.13,734.96,368.79,733.81,372.44z"/>
	<path class="st11" d="M704.83,361.35c1.38,5.72,3.75,10.8,9.07,13.95c-6.37,2.7-11.93,0.95-17.08-3.1
		c-1.34-1.92-2.67-3.83-4.01-5.75c-0.87-2.93-1.11-5.93-0.92-8.97c1.21,0.36,2.41,0.73,3.83,1.15c0.24-5.03-0.27-10.04,3.07-15.45
		c-0.18,4.66-1.07,8.12-0.93,11.7C698.1,361.09,698.24,361.39,704.83,361.35z"/>
	<path class="st11" d="M736.82,375.3c4.76-3.41,7.09-8.26,8.14-13.87c8.11,0.03,8.78-0.7,7.79-8.93c-0.32-2.69-1.66-5.3-0.31-8.68
		c1.62,4.22,2.24,8.17,2.32,12.05c0.07,3.47,1.51,3.41,3.92,2.63c0.86,1.8-1.15,3.2-0.68,4.94c-0.42,1.65-0.85,3.3-1.27,4.95
		c-3.99,5.57-9.39,8.26-16.25,8.1C739.08,376.46,737.93,376.03,736.82,375.3z"/>
	<path class="st8" d="M680.88,373.31c-3.99,2.78-7.98,0.03-11.97,0c-1-3.96-1.99-7.93-2.99-11.89c5.6,3.99,11.74,3.12,17.91,1.99
		C684.09,367.09,682.55,370.22,680.88,373.31z"/>
	<path class="st8" d="M665.9,372.27c-8.08-5.1-10.17-12.97-10.01-21.86c3.39,2.34,4.05,7.11,7.96,8.99c1,4.31,2.01,8.61,3.01,12.92
		l-0.48,0.08L665.9,372.27z"/>
	<path class="st8" d="M691.88,357.48c-0.19,3.04,0.06,6.03,0.93,8.97c-1.41,2.54-4.1,3.76-5.95,5.83c-1.41-0.06-2.38,1.55-3.91,1.05
		c2.77-3.86,2.37-8.67,3.86-12.9C689.15,360.58,689.99,358.13,691.88,357.48z"/>
	<path class="st9" d="M686.85,372.27c1.86-2.07,4.55-3.3,5.95-5.83c1.34,1.92,2.67,3.83,4.01,5.75
		C693.51,374.86,690.17,372.52,686.85,372.27z"/>
	<path class="st9" d="M686.8,360.42c-1.5,4.24-1.09,9.05-3.86,12.9c-0.69,0-1.37,0-2.06-0.01c1.67-3.09,3.21-6.23,2.96-9.9
		c2.07-2.33,0.02-5.87,2.2-8.55C687.41,356.88,686.66,358.7,686.8,360.42z"/>
	<path class="st9" d="M666.86,372.31c-1-4.31-2.01-8.61-3.01-12.92c0.2-1.08-0.32-2.3,0.69-3.28c2.2,1.33,0.98,3.54,1.38,5.31
		c1,3.96,1.99,7.93,2.99,11.89C668.23,372.98,667.54,372.65,666.86,372.31z"/>
	<path class="st0" d="M724.78,398.5c1.75,1.39,1.14,3.39,1,5.05c-0.31,3.71,0.92,6.39,4.19,8.12c5.1,1.72,7.01,1.32,7.88-1.64
		l0.08-0.41c0,0,0.41-0.07,0.41-0.07c0.84,1.09,1.61,0.1,2.4-0.09c0.56,2.58-0.44,4.92-1.47,7.1c-1.34,2.84-3.36,4.16-5.86,0.97
		c-0.69-0.88-1.07-1.78-2.5-2c-6.65-1.06-10.98-5.27-14.07-11c0.08-0.84,1.11-1.67,0.01-2.51l0.07-0.41c0,0,0.41-0.07,0.41-0.07
		c1.81,0.41,3.51,0.62,3.48-2.08c0,0-0.02,0.01-0.02,0.01C722.44,400.45,723.47,398.87,724.78,398.5z"/>
	<path class="st7" d="M737.85,410.03c-0.87,2.96-2.78,3.36-7.88,1.64C732.57,410.96,735.69,412.84,737.85,410.03z"/>
	<path class="st7" d="M724.78,398.5c-1.31,0.38-2.34,1.95-3.98,0.95C722.02,398.68,722.87,396.38,724.78,398.5z"/>
	<path class="st7" d="M720.82,399.44c0.04,2.7-1.66,2.49-3.48,2.08C718.5,400.83,719.66,400.14,720.82,399.44z"/>
	<path class="st7" d="M740.73,409.46c-0.79,0.19-1.56,1.18-2.4,0.09c0.76-0.82,1.51-1.63,2.27-2.45
		C740.65,407.89,740.69,408.67,740.73,409.46z"/>
	<path class="st7" d="M716.86,402.01c1.09,0.84,0.07,1.67-0.01,2.51C714.84,403.68,716.19,402.84,716.86,402.01z"/>
	<path class="st0" d="M656.91,398.43c3.11,2.81,2.3,6.21,0.27,8.72c-2.09,2.59-4.97,0.9-7.36-0.52
		C652.33,404.03,657.21,403.48,656.91,398.43z"/>
	<path class="st3" d="M656.91,398.43c0.3,5.05-4.58,5.6-7.09,8.21c-0.86-0.47-0.89-1.31-0.95-2.14c0.43-1.49,2.46-2.62,1.01-4.53
		c0.49-0.49,0.97-0.97,1.46-1.46c1.84,0.88,3.34,0.21,4.7-1.05C656.33,397.79,656.62,398.11,656.91,398.43z"/>
	<path class="st7" d="M656.04,397.46c-1.36,1.27-2.86,1.94-4.7,1.05C652.7,397.23,654.3,397.04,656.04,397.46z"/>
	<path class="st7" d="M649.88,399.98c1.45,1.91-0.58,3.04-1.01,4.53C646.89,402.47,649.53,401.48,649.88,399.98z"/>
	<path class="st14" d="M758.68,358.49c-2.41,0.78-3.85,0.84-3.92-2.63c-0.08-3.87-0.7-7.83-2.32-12.05
		c-1.35,3.38-0.01,5.99,0.31,8.68c0.99,8.23,0.32,8.96-7.79,8.93c-0.02-0.98-0.05-1.97-0.08-2.95c2.9-2.85,2.04-6.32,1.65-9.74
		c-0.71-6.12-3.33-11.6-5.6-17.2c6.38-0.98,9.79,3.07,12.89,7.66c0.83,1.22,0.73,3.44,3.13,3.02c2.02,2.89,0.23,6.23,1.08,9.25
		c-0.12,1.09-0.68,2.3,0.74,3.02C758.75,355.82,758.71,357.16,758.68,358.49z"/>
	<path class="st10" d="M758.78,354.49c-1.42-0.72-0.86-1.92-0.74-3.02c1.24-0.98,2.48-1.97,4.24-3.36
		C762.56,351.62,759.47,352.38,758.78,354.49z"/>
	<path class="st10" d="M764.23,346.96c-0.14,0.08-0.28,0.21-0.41,0.2c-0.12-0.01-0.24-0.17-0.35-0.26
		C763.72,346.92,763.98,346.94,764.23,346.96z"/>
	<path class="st0" d="M719.65,439.68c-1.28-0.43-3.42,0.81-3.6-1.52c-0.17-2.22,1.63-2.61,3.43-2.53c1.83,0.09,4.14,0.39,4.1,2.52
		C723.54,440.68,721,439.16,719.65,439.68z"/>
	<path class="st0" d="M693.87,400l0.07-0.41c0,0,0.41-0.07,0.41-0.07c1.17,1.24,2.33-0.39,3.5-0.01c2.94,2.93,2.67,6.26,0.76,9.44
		c-1.96,3.26-4.13,3.68-5.76-0.42C691.95,405.54,694.65,402.98,693.87,400z"/>
	<path class="st7" d="M693.87,400c0.78,2.98-1.92,5.54-1.01,8.53C690.53,405.37,692.13,402.68,693.87,400z"/>
	<path class="st7" d="M697.85,399.51c-1.17-0.38-2.33,1.25-3.5,0.01C695.52,398.41,696.68,397.66,697.85,399.51z"/>
	<path class="st0" d="M676.86,399.51c2.94,2.93,2.67,6.26,0.76,9.44c-1.96,3.26-4.13,3.68-5.76-0.42c-0.91-2.99,1.8-5.55,1.01-8.53
		l0.07-0.41c0,0,0.41-0.07,0.41-0.07C674.53,400.76,675.69,399.14,676.86,399.51z"/>
	<path class="st7" d="M672.88,400c0.78,2.98-1.92,5.54-1.01,8.53C669.54,405.37,671.14,402.68,672.88,400z"/>
	<path class="st7" d="M676.86,399.51c-1.17-0.38-2.33,1.25-3.5,0.01C674.52,398.41,675.69,397.66,676.86,399.51z"/>
	<path class="st14" d="M665.92,361.42c-0.4-1.77,0.81-3.98-1.38-5.31c-1.02,0.97-0.49,2.2-0.69,3.28c-3.91-1.88-4.57-6.64-7.96-8.99
		c-0.38-6.15,0.53-12.15,2.01-18.09c4.13-4.84,7.19-10.35,10.04-16c0,0-0.08,0.06-0.08,0.06c2.05,0.63,3.38-0.07,3.95-2.16
		c0.44-0.91,1.39-0.79,2.15-1.05c3.95-0.11,7.74,0.32,10.94,2.98c1.14,1.01,2.35,1.44,3.71,0.4c0.24,1.19,0.7,2.12,2.18,1.79
		l0.06,0.06c0.76,6.32,4.54,11.77,5.21,18.14c0.11,1.01,1.25,0.61,1.91,0c0.65-0.69,1.29-1.38,1.94-2.07
		c1.36-0.97,2.73-1.95,4.09-2.92c0.99-0.09,1.98-0.19,2.98-0.28c0.94,0.1,1.87,0.2,2.81,0.29c-0.98,1.92-2.11,3.79-2.92,5.78
		c-2.77,6.83-4.48,13.79-2.03,21.13c0,0.96-0.01,1.92-0.01,2.87c-6.59,0.04-6.73-0.26-6.98-6.48c-0.14-3.57,0.74-7.04,0.93-11.7
		c-3.34,5.42-2.83,10.42-3.07,15.45c-1.42-0.43-2.62-0.79-3.83-1.15c-1.88,0.65-2.73,3.1-5.08,2.94c-0.14-1.72,0.61-3.54-0.76-5.55
		c-2.18,2.68-0.12,6.22-2.2,8.55C677.67,364.55,671.53,365.41,665.92,361.42z M683.87,347.27c-3.56,1.6-6.89,2.48-7.86-3.08
		c-1.9,1.56-1.49,4.62-4.63,4.29c-3.49-0.37-3.57-3.11-3.92-6.13c-3.07,4.81-2.09,9.24,2.29,10.84c4.89,1.79,9.93,2.48,14.21-1.74
		c4.05-3.53,4.15-5.78,0.36-8.53C683.45,344.3,683.88,345.81,683.87,347.27z M681.49,340.33c1.71,0.4,3.34-1.44,5.45-0.17
		c1.35,0.81,3.38,0.34,4.15-1.58c0.78-1.96-0.07-3.66-1.65-4.73c-2.28-1.54-5.1-2.04-7.6-1.23c-2.08,0.67-4.06,2.29-3.9,5.11
		C678.06,339.94,679.5,340.42,681.49,340.33z M667.75,332.41c-0.78,0-1.48-0.15-2.09,0.03c-2.92,0.85-5.11,2.58-4.66,5.88
		c0.52,3.81,3.79,2.25,5.32,1.58c1.79-0.78,2.77,0.38,4.12,0.45c1.63,0.08,3.01-0.22,3.7-1.8c0.58-1.35,0.09-2.5-0.91-3.59
		C671.7,333.3,670.01,332.15,667.75,332.41z M670.99,325.36c1.53,0.08,2.43,3.15,4.13,0.97c1.47-1.89-0.73-2.44-1.66-3.41
		c-0.34-0.35-0.64-0.77-0.85-1.22c-1.18-2.51-3.09-1.92-3,0.11c0.13,2.91-1.97,1.42-2.81,2.18c-1.49,1.35-2.43,2.81-1.54,4.8
		c0.55,1.22,1.44,2.44,2.98,2.18c1.88-0.32,2.81-1.58,2.65-3.58C670.84,326.74,670.95,326.08,670.99,325.36z"/>
	<path class="st10" d="M684.9,316.15c-3.19-2.66-6.99-3.1-10.94-2.98c1.77-3.74,1.28-6.61-3.08-7.97c0.45-1.91,1.39-3.74,0.97-5.8
		c6.75,0.06,7.69,1.06,11.23,11.96c3.15-5.08,11.58-7.22,17.98-4.52c-0.97,0.9-2.14,0.51-3.14,0.45c-2.64-0.18-3.04,0.7-2.21,3.16
		c0.62,1.84,0.34,3.96-0.63,5.81c-0.75,0.11-1.5,0.23-2.26,0.34c-0.7-0.12-1.39-0.25-2.09-0.37c-2.68-2.31-1.44-5.08-0.09-8.49
		C685.94,309.57,684.36,312.17,684.9,316.15z"/>
	<path class="st6" d="M709.79,331.56c-0.94-0.1-1.87-0.2-2.81-0.29c-0.05-0.94-0.1-1.88-0.15-2.82c-0.46-1.79,2.42-2.72,1.3-4.74
		c-1.83,0.11-2.08,1.41-2.31,2.72c-0.97-1.62-1.93-3.24-2.9-4.86c1.44-1.58,5.17-1.02,4.25-4.9c-0.28-1.17,1.26-1.41,2.2-0.93
		c1.48,0.77,2.44,0.2,3.5-0.78c3.55-3.28,3.92-0.65,4.08,2.28c-2.63,2.07-3.67,4.15-0.02,6.25c-2.39,2.11-2.04,6.02-5.07,7.7
		C711.18,331.31,710.48,331.44,709.79,331.56z M711.13,320.99c-0.03-0.13-0.07-0.25-0.1-0.38c-0.15,0.04-0.31,0.06-0.43,0.14
		c-0.04,0.03,0.06,0.24,0.09,0.36C710.84,321.07,710.98,321.03,711.13,320.99z"/>
	<path class="st10" d="M728.78,329.21c-2.12-1.42-4.57-0.58-6.84-1c0.29-3.02-1.2-4.56-4.07-4.97c-0.03-1.91-0.06-3.82-0.09-5.72
		C725.56,317.04,728.95,320.65,728.78,329.21z"/>
	<path class="st9" d="M692.83,316.59c0.75-0.11,1.5-0.23,2.26-0.34c1.4,0.43,2.83,0.82,3.83,2.01c0.03,0.86,0.19,1.64,1.17,1.91
		c0,0,0.07-0.11,0.07-0.11c0.24,4.18,3.39,7.37,3.84,11.47c-1.36,0.97-2.73,1.95-4.09,2.92
		C699.63,327.68,696.28,322.12,692.83,316.59z"/>
	<path class="st7" d="M709.59,303.02c1.92,2.2,3.49,4.01,5.21,5.99c-2.33,1.18-4.09,2.79-5.16,5.19c-1.51-2.41-3.4-4.05-5.38-5.61
		C706.26,307.03,708.62,305.86,709.59,303.02z"/>
	<path class="st7" d="M667.94,316.32c-2.85,5.65-5.91,11.16-10.04,16c1.25-5.5,4.03-10.27,7.11-14.89
		C665.91,316.83,666.74,316.09,667.94,316.32z"/>
	<path class="st11" d="M704,331.55c-0.45-4.11-3.6-7.3-3.84-11.47c0.92,0.5,1.84,0.99,2.76,1.49c0.97,1.62,1.93,3.24,2.9,4.86
		c0.08,0.8,0.02,1.67,1.01,2.02c0.05,0.94,0.1,1.88,0.15,2.82C705.99,331.36,705,331.45,704,331.55z"/>
	<path class="st15" d="M671.86,299.4c0.42,2.06-0.53,3.88-0.97,5.8c-2.53,0.23-3.16-1.32-2.97-3.39
		C668.14,299.33,669.86,299.07,671.86,299.4z"/>
	<path class="st15" d="M717.77,317.51c0.03,1.91,0.06,3.82,0.09,5.72c-0.31,0.08-0.62,0.16-0.93,0.25
		c-3.65-2.09-2.61-4.17,0.02-6.25C717.23,317.34,717.5,317.44,717.77,317.51z"/>
	<path class="st7" d="M697.24,297.35c1.3,1.24,2.88,1.8,2.39,3.36c-0.31,1-1.2,1.88-2.39,2.15c-0.06-1.47-2.48-1.31-2.14-2.8
		C695.34,298.93,697.22,299.07,697.24,297.35z"/>
	<path class="st7" d="M671.82,314.21c-0.57,2.1-1.9,2.8-3.95,2.16C668.45,314.31,670.15,314.29,671.82,314.21z"/>
	<path class="st11" d="M700.09,320.18c-0.98-0.27-1.15-1.05-1.17-1.91C699.72,318.66,700.24,319.21,700.09,320.18z"/>
	<path class="st8" d="M636.91,342.52c1.95,1.53,3.91,2.95,5.24,5.2c2.42,4.08,5.67,8.36,3.14,13.01
		c-3.76,6.92-10.21,10.52-18.19,9.44c-4.29-0.58-8.7-1.6-12.17-5.06c-3.02-3.01-4.01-5.95-2.02-9.76c3.62-1.4,2.76-6.24,6.04-7.9
		c-0.03,1.74,0.12,3.81,2.25,3.72c2.31-0.09,4.95-0.54,6.78-1.81c1.99-1.39-0.85-2.69-1.19-4.15c-0.14-0.62-0.59-1.18-0.9-1.77
		c2.29-0.62,4.59-1.23,6.88-1.85C634.37,340.98,635.44,342.63,636.91,342.52z M622.85,358.45c1.88-1.86,1.2-3.69-0.62-4.76
		c-1.4-0.83-3.05,0.1-3.16,1.85c-0.15,2.6,1.53,3.29,3.85,2.84c-1.76,2.34-0.94,4.31,1,5.96c2.17,1.85,2.57,0.09,3.54-1.52
		c0.44-0.74,2.84-1.36,3.44,0.9c0.29,1.09,0.51,1.99,1.87,1.32c0.79-0.39,1.23-1.06,1.25-1.98c0.03-1.03-0.52-1.71-1.45-1.5
		c-2.51,0.56-2.62-1.69-3.49-3.12C626.55,362.58,625.18,362.54,622.85,358.45z M638.09,356.53c0-1.68-0.5-2.96-2.18-2.89
		c-1.31,0.05-1.89,1.13-1.95,2.45c-0.07,1.52,0.19,2.67,2.11,2.48C637.46,358.45,638.23,357.83,638.09,356.53z"/>
	<path class="st11" d="M658.95,319.61c-4.51,9.41-6.73,18.77-5.99,28.87c-5.19-3.56-7.45-7.6-3.66-11.73
		c4.1-4.46,2.51-10.18,5.97-14.18C656.09,321.63,656.14,319.99,658.95,319.61z"/>
	<path class="st0" d="M636.91,342.52c-1.46,0.1-2.54-1.54-4.12-0.92c-0.64-0.11-1.27-0.23-1.91-0.34c-0.95-2.04-0.13-3.22,1.74-4.18
		c1.03-0.53,2.65-0.78,2.36-2.61c3.92,0.67,2.95,5.47,5.86,7c0.02,0.3-0.04,0.58-0.2,0.84C639.4,342.38,638.15,342.45,636.91,342.52
		z"/>
	<path class="st7" d="M618.96,347.46c-3.28,1.66-2.42,6.5-6.05,7.9c0.26-5.9,3.48-9.91,8.2-12.98c0.56,0,1.12,0.01,1.68,0.01
		c-0.59,1.04-1.19,2.07-1.78,3.11c0,0-0.03,0-0.03,0c-0.35,0.28-0.7,0.55-1.05,0.83C619.61,346.71,619.29,347.08,618.96,347.46z"/>
	<path class="st10" d="M640.65,342.31c0.15-0.26,0.22-0.54,0.2-0.84c-0.02-3.38-1.79-6.66-0.54-10.2c3.2,2.4,0.28,6.42,2.42,9.03
		c0.06,0.68,0.12,1.35,0.18,2.03C642.15,342.33,641.4,342.32,640.65,342.31z"/>
	<path class="st10" d="M645.99,327.4c-0.23,0.66,0.13,1.66-1.04,1.76c-0.98-2.79-1.36-5.64-0.81-8.74
		C646.26,322.45,645.79,325.02,645.99,327.4z"/>
	<path class="st11" d="M740.93,331.54c2.27,5.6,4.89,11.08,5.6,17.2c0.4,3.42,1.25,6.89-1.65,9.74c0.53-9.59-2.83-18.27-6.23-26.95
		C739.41,331.53,740.17,331.54,740.93,331.54z"/>
	<path class="st13" d="M621.01,345.5c0.59-1.04,1.19-2.07,1.78-3.11c2.46-2.11,5.45-0.31,8.09-1.12c0.64,0.11,1.27,0.23,1.91,0.34
		c-2.3,0.62-4.59,1.23-6.88,1.85C624.23,344.04,623.14,346.02,621.01,345.5z"/>
	<path class="st15" d="M728.76,356.32c1.35,1.81,3,3.34,1.85,6.13c-1.21,2.95-3.45,1.73-5.39,1.94c-0.98,0.11-2.16-0.15-2.91,0.31
		c-2.39,1.44-4.43,0.45-5.2-1.47c-0.82-2.05-0.33-4.55,2.14-5.82c0.84-0.43,2.25-2.16,2.41,0.15c0.17,2.45,0.98,3.06,3.26,2.95
		c2.47-0.12,2.93-1.64,3.2-3.57c0.03-0.21,0.48-0.36,0.74-0.54L728.76,356.32z"/>
	<path class="st15" d="M716.02,356.38c-3.36,0.14-5.26-1.22-5.09-4.61c0.19-3.8,2.47-3.43,5.03-2.38c0.29,0.12,0.72-0.08,0.97,0.07
		c1.58,0.87,5.23-2.83,4.86,1.78C721.56,354.16,719.72,356.85,716.02,356.38z"/>
	<path class="st15" d="M728.86,356.41c-0.59-0.77-1.11-1.59-1.78-2.28c-1.16-1.2-1.85-2.46-0.48-3.86c0.94-0.96,1.56-2.31,3.64-1.2
		c1.79,0.95,4.19,0.77,6.2-0.33c1.24,6.93,0.46,7.7-7.69,7.58C728.76,356.32,728.86,356.41,728.86,356.41z"/>
	<path class="st11" d="M709.79,331.56c0.69-0.12,1.39-0.25,2.08-0.37c0.76,0.16,1.63,0.09,2.09,0.93
		c-3.91,3.57-6.02,8.08-6.93,13.23c-1.81,4.19-2.09,8.65-2.19,13.13c-2.45-7.34-0.74-14.31,2.03-21.13
		C707.67,335.35,708.8,333.49,709.79,331.56z"/>
	<path class="st3" d="M713.96,332.12c-0.46-0.84-1.32-0.77-2.09-0.93c3.03-1.68,2.68-5.6,5.07-7.7c0.31-0.08,0.62-0.17,0.93-0.25
		c2.87,0.41,4.37,1.95,4.07,4.97c-0.98,0.43-1.95,0.86-2.93,1.3C717.32,330.38,715.64,331.25,713.96,332.12z"/>
	<path class="st7" d="M713.96,332.12c1.68-0.87,3.37-1.74,5.05-2.62c-3.99,5.28-7.99,10.56-11.98,15.84
		C707.93,340.2,710.05,335.69,713.96,332.12z"/>
	<path class="st11" d="M715.26,373.94c-4.63-5.2-4.88-6.07-3.93-12.6C711.84,365.26,714.03,368.67,715.26,373.94z"/>
	<path class="st11" d="M733.81,372.44c1.14-3.65,2.29-7.3,3.66-11.67c1.1,5.1-0.19,8.83-2.6,12.27
		C734.52,372.84,734.16,372.64,733.81,372.44z"/>
	<path class="st15" d="M683.97,351.45c-4.29,4.23-9.33,3.54-14.21,1.74c-4.38-1.6-5.37-6.03-2.29-10.84
		c0.35,3.02,0.43,5.76,3.92,6.13c3.14,0.33,2.73-2.72,4.63-4.29c0.97,5.56,4.3,4.68,7.86,3.08
		C683.9,348.66,683.93,350.06,683.97,351.45z"/>
	<path class="st15" d="M681.49,340.33c-1.99,0.09-3.43-0.39-3.55-2.6c-0.16-2.81,1.82-4.44,3.9-5.11c2.5-0.81,5.32-0.31,7.6,1.23
		c1.58,1.07,2.43,2.77,1.65,4.73c-0.77,1.91-2.8,2.39-4.15,1.58C684.83,338.88,683.2,340.73,681.49,340.33z"/>
	<path class="st15" d="M667.75,332.41c2.25-0.27,3.94,0.88,5.48,2.55c1,1.08,1.49,2.24,0.91,3.59c-0.69,1.59-2.07,1.88-3.7,1.8
		c-1.35-0.07-2.33-1.22-4.12-0.45c-1.53,0.66-4.8,2.23-5.32-1.58c-0.45-3.31,1.74-5.04,4.66-5.88
		C666.27,332.26,666.97,332.41,667.75,332.41z"/>
	<path class="st8" d="M670.99,325.36c-0.04,0.72-0.15,1.38-0.1,2.03c0.16,2-0.77,3.27-2.65,3.58c-1.54,0.26-2.44-0.97-2.98-2.18
		c-0.89-1.98,0.05-3.45,1.54-4.8c0.84-0.76,2.95,0.72,2.81-2.18c-0.09-2.03,1.82-2.62,3-0.11c0.21,0.44,0.51,0.86,0.85,1.22
		c0.93,0.98,3.12,1.52,1.66,3.41C673.43,328.51,672.53,325.44,670.99,325.36z"/>
	<path class="st11" d="M692.83,316.59c3.45,5.52,6.79,11.09,7.08,17.87c-0.64,0.69-1.29,1.38-1.94,2.07
		c-0.88-6.64-2.06-13.15-7.11-18.14c0,0-0.06-0.06-0.06-0.06c0.01-0.61,0.02-1.22,0.03-1.84l-0.08-0.28
		C691.44,316.35,692.14,316.47,692.83,316.59z"/>
	<path class="st9" d="M690.86,318.4c5.05,4.99,6.24,11.5,7.11,18.14c-0.66,0.61-1.8,1.01-1.91,0
		C695.4,330.17,691.62,324.72,690.86,318.4z"/>
	<path class="st3" d="M684.9,316.15c-0.54-3.98,1.04-6.58,5.75-8.42c-1.35,3.41-2.6,6.18,0.09,8.49c0,0,0.08,0.27,0.08,0.27
		c-0.74,0.02-1.47,0.03-2.21,0.05C687.25,317.59,686.05,317.16,684.9,316.15z"/>
	<path class="st9" d="M683.97,351.45c-0.03-1.39-0.06-2.79-0.09-4.18c0.01-1.46-0.42-2.97,0.45-4.35
		C688.12,345.67,688.02,347.92,683.97,351.45z"/>
	<path class="st9" d="M688.62,316.55c0.74-0.02,1.47-0.03,2.21-0.05c-0.01,0.61-0.02,1.22-0.03,1.84
		C689.32,318.66,688.86,317.74,688.62,316.55z"/>
	<path class="st10" d="M706.83,328.45c-0.98-0.35-0.92-1.22-1.01-2.02c0.23-1.31,0.48-2.61,2.31-2.72
		C709.25,325.72,706.37,326.66,706.83,328.45z"/>
	<path class="st10" d="M711.13,320.99c-0.15,0.04-0.29,0.09-0.44,0.13c-0.03-0.13-0.13-0.33-0.09-0.36c0.11-0.09,0.28-0.1,0.43-0.14
		C711.06,320.74,711.09,320.86,711.13,320.99z"/>
	<path class="st9" d="M621.01,345.5c2.13,0.53,3.22-1.46,4.89-2.04c0.31,0.59,0.75,1.14,0.9,1.77c0.34,1.46,3.18,2.76,1.19,4.15
		c-1.82,1.27-4.47,1.71-6.78,1.81c-2.13,0.08-2.28-1.98-2.25-3.72c0.33-0.38,0.65-0.75,0.98-1.13c0.35-0.28,0.7-0.55,1.05-0.83
		L621.01,345.5z"/>
	<path class="st15" d="M622.85,358.45c2.33,4.08,3.7,4.13,6.23-0.01c0.87,1.43,0.98,3.68,3.49,3.12c0.93-0.21,1.48,0.48,1.45,1.5
		c-0.03,0.92-0.47,1.6-1.25,1.98c-1.37,0.67-1.59-0.23-1.87-1.32c-0.6-2.26-2.99-1.64-3.44-0.9c-0.97,1.62-1.36,3.38-3.54,1.52
		c-1.94-1.65-2.76-3.62-1-5.96L622.85,358.45z"/>
	<path class="st15" d="M622.93,358.39c-2.32,0.46-4-0.24-3.85-2.84c0.1-1.76,1.75-2.68,3.16-1.85c1.81,1.07,2.49,2.9,0.61,4.76
		C622.85,358.45,622.93,358.39,622.93,358.39z"/>
	<path class="st15" d="M638.09,356.53c0.15,1.3-0.63,1.91-2.01,2.05c-1.93,0.18-2.18-0.96-2.11-2.48c0.06-1.33,0.64-2.4,1.95-2.45
		C637.58,353.58,638.08,354.85,638.09,356.53z"/>
	<path class="st13" d="M620.99,345.5c-0.35,0.28-0.7,0.55-1.05,0.83C620.29,346.05,620.64,345.78,620.99,345.5z"/>
</g>
</svg>
