<?xml version="1.0" encoding="utf-8"?>
<!-- Generator: Adobe Illustrator 26.2.1, SVG Export Plug-In . SVG Version: 6.00 Build 0)  -->
<svg version="1.1" id="Layer_1" xmlns="http://www.w3.org/2000/svg" xmlns:xlink="http://www.w3.org/1999/xlink" x="0px" y="0px"
	 viewBox="0 0 1366 768" style="enable-background:new 0 0 1366 768;" xml:space="preserve">
<style type="text/css">
	.st0{fill:#F07E2C;}
	.st1{fill:#CC6C28;}
	.st2{fill:#FFFFFF;}
	.st3{fill:#E3B7BB;}
	.st4{fill:#6F5CA7;}
	.st5{fill:#032640;}
	.st6{fill:#0B4660;}
	.st7{fill:#1A9CB7;}
	.st8{fill:#05021B;}
	.st9{fill:#FEFEFE;}
	.st10{fill:#271549;}
	.st11{fill:#FABC3C;}
	.st12{fill:#826CAF;}
	.st13{fill:#5650A1;}
</style>
<g>
	<path class="st0" d="M757.09,324.25v0.03h-0.01v-0.01c0-0.01-0.01-0.01-0.01-0.01s0,0,0-0.01
		C757.08,324.25,757.08,324.25,757.09,324.25z"/>
	<path class="st1" d="M757.09,324.25v0.03h-0.01v-0.01c0-0.01-0.01-0.01-0.01-0.01s0,0,0-0.01
		C757.08,324.25,757.08,324.25,757.09,324.25z"/>
	<path class="st2" d="M757.09,324.25c-0.01,0-0.01,0-0.02,0c0,0.01,0,0.01,0,0.01c-1.54-0.94-2.92-1.99-3.04-4.02
		C756.69,320.33,757.23,322.02,757.09,324.25z"/>
	<path class="st1" d="M757.09,324.25v0.03h-0.01v-0.01c0-0.01-0.01-0.01-0.01-0.01s0,0,0-0.01
		C757.08,324.25,757.08,324.25,757.09,324.25z"/>
	<path class="st1" d="M750.11,316.3c-0.27-0.37-0.54-0.74-0.8-1.11C749.58,315.56,749.84,315.93,750.11,316.3z"/>
	<path class="st3" d="M740.15,441.47c3.4-1.06,3.9-4.22,4.99-6.95c3.68,0.05,3.59,3.38,3.67,5.36c0.12,2.76-2.7,1.33-4.24,1.57
		C743.14,441.68,741.63,441.48,740.15,441.47z"/>
	<path class="st4" d="M678,345.22c-1.09,0-2.18,0.02-3.28,0.03c-1.47,0.02-2.94,0.03-4.4,0.01c-0.63,0-1.27-0.01-1.9-0.02
		c-1.01-0.02-2.02-0.07-3.02-0.13c-0.63-0.04-1.26-0.09-1.88-0.15c-0.04,0-0.09-0.01-0.13-0.01c-0.45-0.05-0.9-0.1-1.35-0.16
		c-0.33-0.04-0.65-0.08-0.98-0.13c-1.08-0.16-2.16-0.36-3.24-0.61c-0.32-0.07-0.65-0.15-0.97-0.24c-0.48-0.12-0.95-0.25-1.42-0.4
		c-0.48-0.15-1-0.25-1.51-0.25c-1,0-1.93,0.39-2.34,1.56c-0.56,1.6-1.03,3.23,0.9,4.8c4.35,3.54,8.53,7.33,10.66,12.78h-1.93
		c-2.27-5.01-6.3-8.77-10.61-11.51c-3.23-2.05-5.76-6.21-10.54-5.44c-3.15,0.02-3.68,2.22-3.68,4.65c-0.01,4.1,0.14,8.18,0.22,12.27
		c-1.89-0.56-3.81-1.28-5.79-0.79c-6.74,1.67-13.74,0.41-20.48,2c-4.11,1.2-8.35,2.02-12.2,4.04c-3,2.2-6.07,4.37-5.76,8.75
		c-0.6,7.36,3.3,12.44,8.39,17.01c2.9,2.6,7.2,3.32,9.23,7.04c-6.3,5.62-6.29,5.61-2.02,12.65c0.24,0.39,0.22,0.94,0.31,1.43
		c-1.88,1.38-4.1,2.5-3.96,5.37c0.08,0.17,0.07,0.34-0.03,0.51c0.98,1.48,1.97,2.96,2.96,4.45c0.09,0.08,0.2,0.16,0.29,0.22
		c0.15,0.1,0.29,0.18,0.44,0.24c0.05,0.03,0.1,0.05,0.14,0.06c0.17,0.07,0.34,0.11,0.52,0.13c0.1,0.01,0.2,0.02,0.3,0.02
		c0.32,0.02,0.64-0.01,0.97-0.07c0.02-0.01,0.05-0.01,0.08-0.02c0.07-0.01,0.15-0.03,0.22-0.05c0.07-0.01,0.14-0.03,0.22-0.05
		c0.06-0.01,0.13-0.03,0.19-0.05c0.1-0.02,0.19-0.05,0.27-0.07c0.26-0.07,0.52-0.14,0.78-0.22h0.01c0.34-0.09,0.69-0.17,1.03-0.22
		c0.34-0.04,0.67-0.05,1,0.01c0.08,0.01,0.15,0.03,0.23,0.05c0.41,0.1,0.81,0.31,1.2,0.68c0.03,0.02,0.07,0.06,0.1,0.09
		c0.01,0.03,0.03,0.07,0.04,0.1c0.77,1.97,1.4,3.97,1.75,5.97c0.02,0.13,0.04,0.27,0.06,0.4c0.03,0.18,0.06,0.37,0.08,0.55
		c0.02,0.15,0.04,0.3,0.05,0.45c0.29,2.71,0.01,5.43-1.18,8.14c-1.82,4.15-2.37,8.44-2.84,12.82c-5.24-5.26-10.71-10.32-15.65-15.85
		c-4.09-4.59-5.63-10.71-8.22-16.18c-5.88-12.4-8.5-25.53-9.19-39.18c-0.29-5.85,1.18-11.54,0.91-17.35
		c0.09-0.65,0.18-1.3,0.28-1.96c0.92-0.45,0.88-1.23,0.72-2.06c8.25-35.3,28.98-59.66,63.07-72.27c0.35,1.56-0.71,2.93-0.7,4.35
		c0.02,4.22-1.55,9.02,3.55,11.71c2.61,2.07,5.16,1.06,7.68-0.16c1.3-0.63,2.72-1.2,2.49-3.14c-0.22-1.77-1.2-2.58-2.9-2.67
		c-1.67-1.11-3.95-1.87-2.99-4.65c0.81-2.35,1.62-4.73,4.54-5.31c7.71-1.57,16.22,6.16,14.17,13.62
		c-2.72,9.93-6.79,19.43-11.78,28.49c-3.28-3.14-4.78-7.87-9-10.18c-2.27-2.89-5.73-3.91-8.94-4.57
		c-6.91-1.43-15.71,1.16-16.98,9.61c-2,0.89-0.24,3.4-1.68,4.51c-1.61-0.56-2.99-1.03-4.38-1.52c-0.87-0.36-1.66-0.66-2.4-0.91
		c-0.23-0.09-0.45-0.16-0.67-0.22c-0.52-0.17-1.01-0.31-1.48-0.4c-0.2-0.05-0.39-0.09-0.57-0.11c-0.22-0.05-0.44-0.08-0.64-0.09
		c-0.07-0.01-0.15-0.01-0.23-0.02c-0.33-0.03-0.65-0.03-0.97-0.01c-0.14,0.01-0.28,0.02-0.41,0.04c-0.07,0.01-0.15,0.02-0.22,0.03
		c-0.03,0-0.05,0-0.08,0.01c-0.1,0.01-0.19,0.03-0.29,0.06c-0.15,0.03-0.3,0.07-0.45,0.12c-0.15,0.04-0.3,0.09-0.44,0.16
		c-0.11,0.03-0.21,0.08-0.31,0.14c-0.15,0.06-0.3,0.14-0.45,0.23c-0.08,0.05-0.16,0.09-0.24,0.14c-0.24,0.15-0.47,0.31-0.71,0.49
		c-0.14,0.1-0.29,0.22-0.43,0.35c-0.11,0.09-0.22,0.19-0.33,0.29c-0.11,0.09-0.22,0.19-0.33,0.3v0.01
		c-0.14,0.12-0.28,0.26-0.42,0.41c-0.14,0.14-0.29,0.3-0.43,0.45c-0.42,0.44-0.84,0.93-1.29,1.47c-3.35,6.16-3.35,6.18,3.31,6.17
		c16.11-0.01,32.21-0.04,48.32-0.07c0.64,2.63-2.11,2.64-3.61,3.95h22.72c0.6,0.4,1.19,0.79,1.7,1.29c0.25,0.24,0.48,0.5,0.68,0.8
		c0.09,0.13,0.16,0.26,0.23,0.4c0.03,0.06,0.06,0.12,0.08,0.18C677.9,344.94,677.95,345.08,678,345.22z"/>
	<path class="st2" d="M672.88,487.88c15.09,1.21,29.58-0.43,43.42-5.62c31.07-11.65,52.26-33.62,62.93-65.12
		c7.72-22.8,7.15-45.82-1.16-68.49c-9.7-26.45-27.79-45.45-52.73-57.79c-16.56-8.18-34.39-10.95-52.78-9.67
		c-2.9,0.2-6.36-0.45-8.39,2.76c3.02,0.12,6.08,0.74,8.98-0.68c2.6-0.03,5.17,0.02,7.7,0.15c0.64,0.03,1.28,0.07,1.91,0.11
		c1.65,0.11,3.29,0.26,4.9,0.45c0.52,0.06,1.04,0.12,1.56,0.19c0.47,0.05,0.94,0.12,1.41,0.18c0.08,0.01,0.16,0.03,0.24,0.04
		c0.72,0.1,1.43,0.2,2.14,0.32c0.37,0.06,0.73,0.12,1.09,0.19c0.51,0.08,1.02,0.18,1.52,0.28c0.22,0.03,0.43,0.07,0.64,0.12
		c0.59,0.11,1.17,0.23,1.75,0.35c0.57,0.12,1.14,0.25,1.7,0.39c0.17,0.03,0.33,0.07,0.49,0.11c0.65,0.15,1.3,0.32,1.94,0.49
		c0.18,0.04,0.36,0.09,0.53,0.14c0.54,0.14,1.08,0.29,1.62,0.45c0.4,0.1,0.8,0.22,1.19,0.34c0.21,0.06,0.42,0.12,0.63,0.19
		c0.6,0.18,1.19,0.36,1.79,0.56c0.29,0.09,0.57,0.18,0.85,0.28c0.47,0.16,0.94,0.32,1.41,0.49c0.42,0.15,0.84,0.3,1.25,0.47
		c0.27,0.09,0.54,0.19,0.81,0.3c0.51,0.18,1.01,0.38,1.51,0.59c0.31,0.12,0.63,0.24,0.94,0.38c0.38,0.15,0.76,0.31,1.14,0.47
		c0.51,0.21,1.01,0.45,1.51,0.68c0.25,0.11,0.5,0.22,0.74,0.33c0.42,0.19,0.83,0.38,1.24,0.59c0.37,0.16,0.74,0.34,1.1,0.53
		c0.57,0.27,1.13,0.56,1.69,0.85c0.08,0.04,0.15,0.08,0.22,0.13c0.6,0.3,1.2,0.62,1.79,0.96c0.21,0.11,0.41,0.22,0.61,0.33
		c0.56,0.31,1.12,0.63,1.68,0.97c0.17,0.1,0.34,0.2,0.51,0.3c0.45,0.27,0.9,0.54,1.34,0.83c0.31,0.17,0.61,0.36,0.9,0.55
		c0.45,0.28,0.9,0.57,1.34,0.86c0.25,0.17,0.5,0.33,0.75,0.51c0.66,0.43,1.31,0.88,1.96,1.35c0.58,0.4,1.15,0.82,1.72,1.25
		c0.83,0.61,1.66,1.24,2.47,1.88c0.54,0.42,1.08,0.86,1.62,1.31c0.3,0.24,0.59,0.48,0.88,0.73c0.6,0.49,1.19,1,1.77,1.53
		c0.65,0.56,1.29,1.14,1.94,1.74c1.28,1.19,2.55,2.41,3.79,3.68c0.49,0.49,0.97,0.99,1.45,1.49c0.16,0.16,0.32,0.33,0.48,0.5
		c0.26,0.38,0.53,0.75,0.8,1.12c1.31,1.31,2.62,2.63,3.92,3.94c2.66,0.09,3.2,1.78,3.06,4.01c0.41,0.02,0.78,0.08,1.11,0.18
		c0.35,0.09,0.66,0.23,0.95,0.41c1.73,1.02,2.51,3.16,3.46,4.62c7.8,11.93,12.89,24.9,15.72,39.05c3.03,15.14,0.25,29.67-2.44,44.27
		c-0.85,4.63-3.19,9.06-5.29,13.36c-5.84,12.03-13.93,22.48-23.92,31.27c-15.15,13.32-32.37,21.99-52.81,24.37
		c-19.71,2.29-38.3-0.54-55.99-9.26c-3.51-1.73-8.06-2.42-9.74-6.91c-1.43-0.03-2.83-0.1-2.98-2.02c-1.38-0.05-2.89,0.06-2.86-2.01
		c-0.08-0.33-0.17-0.67-0.25-1c-0.39-0.37-0.78-0.73-1.17-1.1c-0.19-0.02-0.39-0.03-0.58-0.04c-1.03-0.7-2.07-1.4-3.1-2.11
		c-0.27-0.22-0.54-0.43-0.81-0.64c-0.42-0.32-0.83-0.64-1.25-0.96c-0.65-0.62-1.3-1.24-1.94-1.85
		c-5.24-5.26-10.71-10.32-15.65-15.85c-4.09-4.59-5.63-10.71-8.22-16.18c-5.88-12.4-8.5-25.53-9.19-39.18
		c-0.29-5.85,1.18-11.54,0.91-17.35c-0.72,0.52-1.32,0.95-1.85,1.31c-0.07,2.39-0.13,4.78-0.14,7.17
		c-0.03,7.69,0.29,15.39,0.73,23.07c0.22,3.81,0.49,7.61,0.76,11.41c0.23,0.74,0.45,1.48,0.63,2.22
		c4.1,16.5,11.81,31.27,23.27,43.59C622.89,473.87,645.37,485.67,672.88,487.88"/>
	<path class="st5" d="M683,329.98c-0.03,0.89-0.59,2.17-1.3,2.58c-3.12,1.81-2.44,4.78-2.61,7.51c-2.36-1.34-3.78-0.85-3.94,2.06
		h-22.72c1.5-1.31,4.25-1.33,3.61-3.95c1.13-2.26,2.86-4.25,3.14-6.9c4.99-9.05,9.06-18.56,11.78-28.49
		c2.05-7.46-6.46-15.19-14.17-13.62c-2.92,0.58-3.73,2.96-4.54,5.31c-0.96,2.78,1.32,3.53,2.99,4.65c-4.16,1.32-6.11-2.25-8.86-4.05
		c-0.62-2.13,0.52-3.96,1-5.89c0.81-0.08,1.48-0.37,1.79-1.19c3.08-1.86,6.6-2.25,10-3.04c0.97,0.04,1.94,0.07,2.91,0.1
		c5.89,0.9,10.34,4.2,13.88,8.74C684.37,304.63,683.42,317.38,683,329.98z"/>
	<path class="st6" d="M702.69,338.96c-4.47,0.64-8.54,1.03-12.5,1.89c-2.37,0.5-5.25-1.5-7.12,1.41c-1.93,0.37-2.5-1.74-3.98-2.19
		c0.17-2.73-0.51-5.7,2.61-7.51c0.71-0.41,1.27-1.69,1.3-2.58c0.42-12.6,1.37-25.35-7.04-36.19c-3.54-4.55-7.99-7.84-13.88-8.74
		c0.06-0.27,0.11-0.55,0.15-0.82c0.65-0.09,1.29-0.18,1.94-0.28c3.02,0.12,6.08,0.74,8.98-0.67c2.09,2.11,5.63,2.09,7.21,4.94
		c0.07,0.24,0.17,0.46,0.29,0.65c0.12,0.19,0.26,0.36,0.42,0.52c0.32,0.3,0.71,0.53,1.14,0.72h0.01v0.01h0.01
		c0.01,0.03,0.03,0.06,0.04,0.09c0.03,0.06,0.06,0.13,0.09,0.19c0.18,0.35,0.35,0.69,0.52,1.03c0.11,0.22,0.22,0.44,0.33,0.66
		c0.3,0.61,0.59,1.21,0.87,1.83c0.38,0.79,0.73,1.6,1.07,2.4c0.13,0.31,0.27,0.63,0.39,0.95c0.2,0.49,0.39,0.97,0.57,1.47
		c0.1,0.25,0.19,0.5,0.27,0.74c0.17,0.45,0.33,0.91,0.47,1.37c0.14,0.41,0.27,0.82,0.39,1.24c0.1,0.33,0.2,0.66,0.29,1
		c0.09,0.33,0.18,0.66,0.26,0.99c0.13,0.5,0.25,1,0.35,1.51c0.11,0.5,0.21,1.01,0.3,1.53c0.95,5.51,2.27,10.97,3.81,16.35
		c1.65,5.73,4.53,9.29,7.92,10.75C701.82,335.45,700.67,337.87,702.69,338.96z"/>
	<path class="st7" d="M647.97,305.1c-5.1-2.69-3.53-7.5-3.55-11.71c-0.01-1.42,1.05-2.79,0.7-4.35c0.39-0.93,1.14-0.89,1.94-0.72
		c0.04,0.31,0.15,0.61,0.32,0.87c-0.48,1.94-1.62,3.76-1,5.89C645.49,298.64,647.8,301.69,647.97,305.1z"/>
	<path class="st2" d="M662.23,284.23c-0.04,0.27-0.09,0.55-0.15,0.82c-0.97-0.03-1.94-0.06-2.91-0.1
		C659.74,282.82,660.77,282.6,662.23,284.23z"/>
	<path class="st2" d="M581.33,363.37c-1.56-1.32-0.66-1.78,0.72-2.06C582.21,362.13,582.25,362.91,581.33,363.37z"/>
	<path class="st6" d="M649.17,287.99c-0.31,0.82-0.98,1.11-1.79,1.19c-0.17-0.26-0.28-0.56-0.32-0.87
		C647.76,288.2,648.46,288.1,649.17,287.99z"/>
	<path class="st6" d="M598.13,367.48c3.85-2.02,8.09-2.82,12.2-4.03c1.92,1.52,4.17,0.78,6.24,0.74
		c11.76-0.21,23.45,0.03,34.71,4.08c2.7,0.97,5.49,0.96,8.31,1.01c11.77,0.2,23.26-1.98,34.76-4.03c12.58-2.23,25.14-4.53,37.71-6.8
		c6.73-0.41,13,1.51,19.2,3.78c6.21,2.27,11.37,5.95,12.69,12.71c1.39,7.15-2.06,13.03-7.35,17.45c-11.97,10-26.35,14.36-41.4,16.93
		c2.44-3.31,5.96-5.86,7.05-10.12c1.91-3.77-1.73-6.35-2.04-9.65c13.24-7.42,26.56-14.57,42.75-12.82
		c-3.91-6.77-13.29-9.86-22.47-8.05c-4.35,0.86-8.81,1.16-13.22,1.71c-2.44-0.32-4.8,0.03-7.2,0.54
		c-10.8,2.31-21.79,3.76-32.76,4.28c-10.66,0.51-21.28,1.66-32.14,0.51c-11.35-1.21-22.53-2.59-33.56-5.53
		c-4.29-1.15-8.61-2.84-13.24-1.99C604.94,368.09,601.44,369.22,598.13,367.48z"/>
	<path class="st5" d="M609.99,400.29c-2.03-3.71-6.33-4.44-9.23-7.04c-5.09-4.58-8.98-9.65-8.38-17.01
		c8.28-4.56,15.62-2.02,23.06,2.52c6.44,3.93,11.55,9.79,18.73,12.57c-0.76,1.95-2.2,3.67-2.01,5.94c-0.82,1.44,0.07,2.32,1.04,3.17
		l-0.04-0.05c-0.08,1.63,1.15,2.5,2.05,3.56l0.21,0.25c0.75,1.27,1.5,2.54,2.72,4.61c-4.23-1.01-7.49-1.79-10.75-2.57
		c-0.3-0.6-0.76-0.91-1.45-0.71c-0.22,0.01-0.44,0.05-0.66,0.1c-2.46-0.43-4.33-2.71-7.07-2.25l0.02,0.02
		c-0.58-1.39-1.83-0.92-2.86-1.05C613.91,400.79,612.02,400.35,609.99,400.29z"/>
	<path class="st8" d="M663.15,362.29c-2.13-5.45-6.31-9.24-10.67-12.78c-1.92-1.56-1.46-3.21-0.9-4.8c0.61-1.74,2.41-1.74,3.85-1.3
		c7.4,2.28,15,1.84,22.57,1.82c-0.65,1.78-1.12,3.67-2.01,5.33c-1.18,2.18,0.42,2.29,1.7,2.97c2.48,1.3,1.04-1.11,1.6-1.59
		c1.09-0.91,0.65-2.93,2.22-3.31c0.85,1.1,1.86,2.02,2.37,3.16c0.59,1.3,1.11,2.19,2.36,0.87c0.7-0.74,2.62-1.19,0.96-2.98
		c-1.17-1.26-1.92-2.92-2.86-4.4c5.75-1.79,11.86-2.29,17.39-4.89c1.17-0.55,2.2-0.05,2.67,1.37c0.51,1.55,1.19,3.04,1.8,4.56
		c-8.49,1.97-14.14,7.4-18.02,14.97c-0.67,0.07-1.34,0.13-2,0.2c-0.83-0.41-1.14-0.95-0.87-1.95c0.41-1.55-0.74-2.33-5.37-4
		c-1.43-0.51-2.61-0.34-3.45,0.96c-0.82,1.27,0.2,1.46,1.08,2.02c1.24,0.8,2.96,1.66,1.74,3.74
		C673.93,362.27,668.54,362.28,663.15,362.29z"/>
	<path class="st3" d="M659.18,331.27c-0.28,2.65-2.01,4.64-3.14,6.9c-16.11,0.02-32.21,0.06-48.32,0.07
		c-6.66,0.01-6.66-0.01-3.31-6.18c8.41,2.73,9.26,2.55,13.79-2.94c1.39,0.48,2.77,0.96,4.38,1.51c1.44-1.1-0.32-3.61,1.68-4.5
		c2.2,2.43,5,1.74,7.18,0.6c4.48-2.35,7.04-0.14,8.72,3.39c0.86,1.82,1.48,1.6,2.87,1.15c4.96-1.61,6.58-5.51,7.15-10.18
		C654.4,323.41,655.9,328.13,659.18,331.27z"/>
	<path class="st7" d="M686.2,361.49c0.67-0.07,1.34-0.13,2-0.2c0.64,0,1.28,0,1.93,0c4.12,0.15,8.26,0.54,12.24-1.01
		c3.83,0.1,7.64-0.03,11.37-1.04c6.11-0.18,12.17-1.5,18.32-0.79c-12.57,2.27-25.13,4.57-37.71,6.8
		c-11.5,2.04-22.99,4.23-34.76,4.03c-2.82-0.05-5.61-0.04-8.31-1.01c-11.25-4.05-22.95-4.29-34.71-4.08
		c-2.07,0.04-4.32,0.78-6.24-0.74c6.74-1.59,13.74-0.33,20.48-2c1.98-0.49,3.9,0.24,5.79,0.8c4.12,0.01,8.25,0.02,12.37,0.04
		c4.08,0,8.16,0,12.24,0c0.64,0,1.29,0,1.93,0c5.39-0.01,10.79-0.02,16.18-0.03C681.61,361.93,684.08,363.26,686.2,361.49z"/>
	<path class="st8" d="M634.17,391.33c-7.17-2.78-12.29-8.64-18.73-12.57c-7.44-4.54-14.78-7.09-23.06-2.52
		c-0.31-4.39,2.75-6.56,5.76-8.76c3.31,1.74,6.81,0.62,10.23,0.72c0.94,0.73,2.04,0.88,3.18,1.15c10.93,2.58,21.62,6.13,32.75,7.87
		C640.49,381.62,636.81,386.1,634.17,391.33z"/>
	<path class="st9" d="M650.19,321.1c-0.58,4.67-2.2,8.57-7.15,10.18c-1.39,0.45-2,0.67-2.87-1.15c-1.68-3.54-4.23-5.74-8.72-3.39
		c-2.17,1.14-4.98,1.83-7.18-0.6c1.27-8.44,10.07-11.03,16.98-9.61C644.45,317.19,647.91,318.2,650.19,321.1z"/>
	<path class="st10" d="M609.99,400.29c2.03,0.06,3.91,0.5,5.37,2.06c0.56,1.43,1.69,1.3,2.86,1.05c0,0-0.02-0.02-0.02-0.02
		c-1.04,4.42,3.31,3.56,5.08,5.23c-4.02,3.55-7.99,7.18-13.26,8.85c0.02-1.38-0.4-2.5-1.75-3.1c-0.1-0.48-0.07-1.03-0.31-1.42
		C603.7,405.9,603.7,405.9,609.99,400.29z"/>
	<path class="st3" d="M648.97,362.28c-4.13-0.01-8.25-0.02-12.37-0.04c-0.08-4.09-0.23-8.18-0.22-12.26
		c0.01-2.43,0.53-4.64,3.68-4.65C645.06,349.91,648.23,355.45,648.97,362.28z"/>
	<path class="st10" d="M648.97,362.28c-0.74-6.83-3.92-12.37-8.91-16.95c4.77-0.78,7.31,3.39,10.53,5.44
		c4.31,2.74,8.34,6.51,10.62,11.51C657.14,362.28,653.05,362.28,648.97,362.28z"/>
	<path class="st11" d="M684.36,345.28c0.94,1.48,1.69,3.13,2.86,4.4c1.66,1.79-0.27,2.24-0.96,2.98c-1.24,1.32-1.77,0.43-2.36-0.87
		c-0.51-1.14-1.52-2.07-2.37-3.16c-1.57,0.38-1.13,2.39-2.22,3.31c-0.57,0.47,0.88,2.89-1.6,1.59c-1.28-0.68-2.88-0.78-1.7-2.97
		c0.89-1.66,1.35-3.54,2.01-5.33c-0.45-1.49-1.65-2.3-2.85-3.09c0.16-2.91,1.58-3.4,3.94-2.06c1.48,0.45,2.05,2.56,3.98,2.18
		C683.5,343.26,683.93,344.27,684.36,345.28z"/>
	<path class="st7" d="M625.94,405.53c0.7-0.2,1.15,0.1,1.45,0.71c0.15,1.63,2.24,2.51,1.72,4.41c-2.78,2.48-6.02,4.49-7.95,7.84
		l0.09-0.07c-1.49,0-3.16-0.26-3.09,2.08l0.11-0.01c-4.23-0.07-7.07,3.54-11.02,4.2c-0.99-1.48-1.98-2.97-2.96-4.45
		c9.14-0.1,15.78-4.64,20.93-11.83l-0.07,0.06C626.44,407.77,626.03,406.61,625.94,405.53z"/>
	<path class="st6" d="M647.98,305.09c-0.18-3.4-2.49-6.45-1.59-10.02c2.75,1.8,4.7,5.36,8.86,4.05c1.7,0.09,2.68,0.91,2.89,2.67
		c0.24,1.94-1.19,2.5-2.49,3.14C653.14,306.16,650.58,307.16,647.98,305.09z"/>
	<path class="st9" d="M618.2,329.13c-4.53,5.49-5.38,5.67-13.79,2.94C608.93,326.66,611.11,326.2,618.2,329.13z"/>
	<path class="st9" d="M615.14,455.73c-0.65-0.61-1.3-1.23-1.94-1.85c0.47-4.38,1.02-8.67,2.84-12.82c1.19-2.71,1.47-5.43,1.18-8.14
		c-0.01-0.15-0.03-0.3-0.05-0.45c-0.02-0.18-0.05-0.37-0.08-0.55c-0.02-0.13-0.04-0.27-0.06-0.4c-0.35-2.01-0.98-4.01-1.75-5.97
		l0.24,0.1l0.4-0.03c0.85,1.74,1.88,3.3,2.12,5.39C619.01,439.5,615.81,447.46,615.14,455.73z"/>
	<path class="st9" d="M615.24,425.44c0.01,0.03,0.03,0.07,0.04,0.1l-0.12-0.05L615.24,425.44z"/>
	<path class="st9" d="M625.22,408.41c-5.15,7.19-11.8,11.73-20.93,11.83c0.11-0.16,0.12-0.33,0.03-0.51
		c2.24,0.1,4.06-0.88,5.71-2.27c5.27-1.67,9.23-5.3,13.26-8.85C623.93,408.54,624.58,408.47,625.22,408.41z"/>
	<path class="st9" d="M607.25,424.69c3.96-0.66,6.79-4.28,11.02-4.21c-0.72,0.98-1.43,1.96-2.15,2.94l0.03-0.02
		c-1.29,0.24-1.12,1.18-1,2.1c0,0,0.09-0.05,0.09-0.05C612.79,422.94,609.74,426.86,607.25,424.69z"/>
	<path class="st7" d="M610.03,417.46c-1.65,1.39-3.47,2.37-5.71,2.27c-0.14-2.87,2.08-4,3.96-5.37
		C609.63,414.96,610.05,416.08,610.03,417.46z"/>
	<path class="st4" d="M706.18,346.23c-0.01,0.01-0.03,0.01-0.04,0.02l0.08,0.07C706.21,346.29,706.2,346.26,706.18,346.23z
		 M706.22,346.32c-0.01-0.03-0.02-0.06-0.04-0.09c-0.01,0.01-0.03,0.01-0.04,0.02L706.22,346.32z M682.21,290.1l0.01,0.01h0.01
		v-0.05h-0.04C682.2,290.07,682.2,290.09,682.21,290.1z M773.98,372.18c-1.24-16.49-6.71-31.85-16.03-45.68
		c-0.43-0.65-0.59-1.48-0.87-2.22v-0.01c0,0-0.01,0-0.01-0.01c-1.54-0.94-2.92-1.99-3.04-4.02c-1.3-1.31-2.61-2.63-3.92-3.94
		c-0.27-0.37-0.54-0.74-0.81-1.11v-0.01c-0.16-0.17-0.32-0.33-0.47-0.5c-0.48-0.5-0.96-1-1.45-1.49c-1.24-1.27-2.51-2.49-3.79-3.68
		c-0.64-0.59-1.29-1.17-1.94-1.74c-0.58-0.53-1.17-1.04-1.77-1.53c-0.29-0.25-0.58-0.49-0.88-0.73c-0.53-0.44-1.07-0.88-1.62-1.31
		c-0.81-0.64-1.64-1.27-2.47-1.88c-0.57-0.43-1.14-0.85-1.72-1.25c-0.65-0.46-1.3-0.91-1.96-1.35c-0.25-0.18-0.5-0.34-0.75-0.51
		c-0.44-0.29-0.89-0.58-1.34-0.86c-0.29-0.19-0.59-0.38-0.9-0.55c-0.44-0.29-0.89-0.56-1.34-0.83c-0.17-0.1-0.34-0.2-0.51-0.3
		c-0.55-0.33-1.11-0.65-1.68-0.97c-0.2-0.11-0.4-0.22-0.61-0.33c-0.59-0.33-1.19-0.65-1.79-0.96c-0.07-0.05-0.14-0.09-0.22-0.13
		c-0.56-0.29-1.12-0.58-1.69-0.85c-0.36-0.19-0.73-0.37-1.1-0.53c-0.41-0.21-0.82-0.4-1.24-0.59c-0.24-0.11-0.49-0.22-0.74-0.33
		c-0.5-0.23-1-0.46-1.51-0.68c-0.38-0.16-0.76-0.32-1.14-0.47c-0.31-0.14-0.63-0.26-0.94-0.38c-0.5-0.21-1-0.41-1.51-0.59
		c-0.27-0.11-0.54-0.21-0.81-0.3c-0.41-0.17-0.83-0.32-1.25-0.47c-0.47-0.17-0.94-0.33-1.41-0.49c-0.28-0.1-0.56-0.19-0.85-0.28
		c-0.6-0.2-1.19-0.38-1.79-0.56c-0.21-0.07-0.42-0.13-0.63-0.19c-0.39-0.12-0.79-0.24-1.19-0.34c-0.54-0.16-1.08-0.31-1.62-0.45
		c-0.17-0.05-0.35-0.1-0.53-0.14c-0.64-0.17-1.29-0.34-1.94-0.49c-0.16-0.04-0.32-0.08-0.49-0.11c-0.56-0.14-1.13-0.27-1.7-0.39
		c-0.58-0.12-1.16-0.24-1.75-0.35c-0.21-0.05-0.42-0.09-0.64-0.12c-0.5-0.1-1.01-0.2-1.52-0.28c-0.36-0.07-0.72-0.13-1.09-0.19
		c-0.71-0.11-1.42-0.22-2.14-0.32c-0.08-0.01-0.16-0.03-0.24-0.04c-0.47-0.06-0.94-0.13-1.41-0.18c-0.52-0.07-1.04-0.13-1.56-0.19
		c-1.61-0.19-3.25-0.34-4.9-0.45c-0.63-0.04-1.27-0.08-1.91-0.11c-2.53-0.13-5.1-0.18-7.7-0.15c2.09,2.11,5.63,2.09,7.21,4.94
		c0.16,0,0.31,0.01,0.44,0.04c0.12,0.01,0.22,0.04,0.32,0.07c0.03,0.01,0.06,0.02,0.08,0.03c0.09,0.03,0.18,0.07,0.25,0.11
		c0.04,0.03,0.08,0.05,0.11,0.08c0.07,0.04,0.12,0.09,0.18,0.14c0.08,0.08,0.15,0.17,0.21,0.27c0.02,0.02,0.03,0.04,0.04,0.07
		c0.03,0.05,0.06,0.12,0.08,0.18c0.01,0.01,0.02,0.02,0.01,0.03c0.03,0.05,0.04,0.09,0.05,0.14c0.03,0.08,0.05,0.17,0.06,0.27
		c0.01,0.05,0.02,0.11,0.02,0.17c0.01,0.08,0.02,0.16,0.02,0.25c0.11,0,0.21,0.01,0.31,0.02c0.02,0,0.04,0.01,0.05,0.01
		c0.22,0.03,0.42,0.07,0.61,0.14c0,0,0,0,0.01,0c0.09,0.03,0.17,0.07,0.26,0.11c0.39,0.18,0.71,0.44,0.97,0.75
		c0.09,0.09,0.16,0.19,0.24,0.3c0.04,0.05,0.07,0.1,0.11,0.15c0.33,0.51,0.59,1.09,0.83,1.66c5.65,13.38,10.86,26.93,14.55,41.02
		v0.01c1.65,1.22,0.5,3.64,2.52,4.73c-4.47,0.65-8.54,1.04-12.5,1.89c-2.37,0.5-5.24-1.49-7.12,1.4v0.01c0.43,1,0.86,2,1.28,3.02
		v0.01h0.01c1.07-0.34,2.16-0.63,3.25-0.9c0.74-0.18,1.47-0.34,2.21-0.51c0.73-0.17,1.47-0.33,2.21-0.49c3.31-0.73,6.6-1.53,9.72-3
		c1.17-0.55,2.2-0.05,2.67,1.37c0.5,1.52,1.16,2.99,1.76,4.47c0.38-0.2,0.76-0.39,1.15-0.54c0.17-0.07,0.34-0.13,0.51-0.18
		c0.14-0.05,0.28-0.09,0.43-0.12c0.11-0.03,0.21-0.05,0.33-0.06c0.04-0.02,0.08-0.03,0.12-0.02c0.5-0.09,1.02-0.08,1.56,0.02
		c0.83-0.05,1.56-0.01,2.17,0.18c0.07,0.02,0.13,0.04,0.2,0.07c0.02,0.01,0.05,0.02,0.08,0.03c0.15,0.06,0.28,0.13,0.41,0.22
		c0.08,0.06,0.16,0.13,0.24,0.2c0.06,0.06,0.13,0.12,0.18,0.19c0.22,0.28,0.37,0.62,0.45,1.05c0.04,0.22,0.06,0.45,0.06,0.7
		c0,0.26-0.02,0.55-0.06,0.87c-0.46,3.44,2.17,6.98-0.27,10.4c5.8-0.17,11.55-1.37,17.37-0.89c0.31,0.03,0.61,0.06,0.91,0.1h0.04
		c0.31-0.02,0.61-0.03,0.91-0.05c3.73-0.1,7.32,0.47,10.84,1.41c0.72,0.19,1.43,0.39,2.14,0.61c0,0,0,0,0.01,0
		c1.78,0.54,3.54,1.16,5.3,1.8c1.16,0.43,2.29,0.9,3.36,1.44c4.65,2.32,8.26,5.78,9.33,11.27c0.04,0.21,0.08,0.42,0.11,0.63
		c0.03,0.16,0.05,0.32,0.06,0.47c0.03,0.17,0.05,0.33,0.06,0.5c0,0.04,0.01,0.07,0.01,0.1c0.05,0.49,0.07,0.98,0.07,1.45
		c0,0.36-0.01,0.72-0.04,1.07c-0.05,0.7-0.14,1.39-0.28,2.06c-0.07,0.33-0.15,0.65-0.24,0.97c-0.01,0.03-0.01,0.05-0.02,0.07
		c-0.08,0.27-0.16,0.54-0.25,0.8c-0.25,0.73-0.55,1.43-0.89,2.12c-0.13,0.26-0.26,0.51-0.41,0.76c0,0.03-0.02,0.05-0.04,0.08
		c-0.16,0.29-0.33,0.57-0.51,0.85v0.01c-0.3,0.46-0.62,0.91-0.95,1.35c-0.14,0.18-0.28,0.36-0.43,0.54
		c-0.17,0.21-0.34,0.41-0.51,0.61c-0.93,1.07-1.97,2.07-3.09,3.01c-1.87,1.56-3.8,2.99-5.78,4.29c-0.79,0.52-1.59,1.02-2.4,1.5
		c-0.81,0.48-1.63,0.94-2.45,1.39c-0.82,0.45-1.65,0.87-2.49,1.28c-0.01,0-0.01,0-0.01,0.01c-0.83,0.41-1.68,0.8-2.53,1.17
		c-2.56,1.14-5.18,2.13-7.84,3c-2.23,0.73-4.48,1.38-6.77,1.96c-0.45,0.11-0.91,0.23-1.37,0.34c-1.28,0.31-2.57,0.6-3.86,0.87
		c-1.95,0.41-3.92,0.78-5.9,1.12h-0.01c-1.87-0.12-3.53-0.82-5.11-1.8c-0.75-0.04-1.5-0.04-2.24-0.14
		c-0.42-0.05-0.84-0.14-1.23-0.28c-0.5-0.18-0.98-0.44-1.42-0.85c-0.38,0.11-0.76,0.23-1.14,0.34c0.37,0.65,0.73,1.3,1.1,1.95
		c1.11,0.16,2.26-0.12,3.32,0.61c0.06,0.04,0.13,0.08,0.2,0.12c0.42,0.21,0.93,0.27,1.42,0.36c0.73,0.14,1.39,0.36,1.58,1.27
		c0.1,0.51-0.85,1.35-1.46,1.86c-1.04,0.87-2,0.81-2.97,0.08c-0.17-0.12-0.33-0.26-0.49-0.42c-0.09-0.08-0.18-0.16-0.27-0.23
		c-0.19-0.15-0.38-0.27-0.59-0.39c-0.21-0.13-0.43-0.24-0.65-0.35c-0.33-0.16-0.66-0.33-0.98-0.51c-0.18,0.55-0.36,1.09-0.54,1.64
		c0.97,0.85,1.94,1.69,2.84,2.47c-4.06,2.61-8.48,4.34-13.03,5.74c-2.07,0.63-4.16,1.2-6.27,1.74v0.01c1.69,3.5,3.15,7.13,5.91,9.99
		c4.46,3.42,3.85-1.48,5.2-3.18v-0.01c1.75-5.58,6.4-9.54,11.45-9.77c0.39-0.02,0.78,0.03,1.18,0.13c0.22,0.05,0.45,0.13,0.67,0.22
		c0.67,0.26,1.32,0.67,1.94,1.19c0.2,0.17,0.4,0.35,0.6,0.55c2.41,2.36,3.99,6.23,2.84,8.73c-0.74,1.6-1.41,3.24-2.1,4.86
		c0.22,1.06,0.33,1.99,0.29,2.8c0,0.22-0.02,0.43-0.05,0.64c-0.02,0.14-0.05,0.28-0.08,0.41c-0.5,2.09-2.34,2.94-5.95,2.51
		c-4.24-0.51-8.58-0.15-12.87-0.18v0.01c3.45,9.3,5.26,18.9,5.91,28.78c0.07,1.1,0.64,2.17,0.98,3.24c5.01,1.2,8.75-2.13,13-3.68
		c-0.76-0.52-1.13-1.33-0.98-2.15c0.09-0.49,0.17-0.98,0.23-1.47c0.03-0.18,0.06-0.37,0.08-0.56c0.01-0.02,0.01-0.05,0.01-0.08
		c0.07-0.46,0.12-0.93,0.17-1.4c0.12-1.2,0.21-2.4,0.27-3.61c0.05-0.95,0.08-1.89,0.1-2.85c0.01-0.48,0.02-0.95,0.03-1.43
		c0.02-0.95,0.03-1.92,0.04-2.87c0.01-1.81,0.04-3.61,0.1-5.4c0.05-1.19,0.11-2.37,0.21-3.55c0.04-0.46,0.08-0.91,0.13-1.37
		c0.02-0.21,0.04-0.41,0.07-0.61c0.06-0.53,0.13-1.05,0.21-1.57c0.01-0.06,0.02-0.13,0.03-0.19c0.05-0.4,0.12-0.79,0.19-1.19
		c0.03-0.13,0.05-0.26,0.08-0.39c0.13-0.67,0.27-1.34,0.44-2.01c0.17-0.68,0.35-1.34,0.56-2c0.2-0.62,0.37-1.27,0.66-1.85
		c0.65-1.27,0.82-3.2,2.47-3.38c1.56-0.17,1.71,1.78,2.52,2.75c0.52,0.63,0.98,1.32,1.47,1.99c0.38,0.13,0.61,0.42,0.81,0.75
		c0.02,0.04,0.05,0.08,0.07,0.12c0.14,0.25,0.28,0.52,0.44,0.75c0.04,0.06,0.08,0.11,0.13,0.16c0,0,0,0,0,0.01l0.14,0.14
		c0.06,0.05,0.11,0.09,0.17,0.13c0.17,0.12,0.39,0.19,0.66,0.2c0,0,0.01,0,0.01-0.01c0.05-0.04,0.11-0.08,0.16-0.12
		c0.12-0.09,0.24-0.18,0.36-0.28c0.12-1.23-0.72-1.96-1.38-2.8c-0.06-0.07-0.12-0.14-0.17-0.21c-0.21-0.29-0.39-0.59-0.49-0.94
		c-0.02-0.05-0.05-0.11-0.08-0.16c-0.02-0.05-0.04-0.09-0.06-0.13c-0.31-0.6-0.79-1.15-1.25-1.71c-0.09-0.09-0.16-0.18-0.23-0.27
		c-0.86-1.05-1.55-2.16-0.79-3.68c0.06-0.12,0.12-0.23,0.18-0.33c0.19-0.32,0.4-0.59,0.63-0.82c0.23-0.23,0.47-0.42,0.73-0.57
		c0.17-0.11,0.35-0.2,0.53-0.27c1.32-0.54,2.89-0.39,4.3-0.13c0.24,0.05,0.48,0.09,0.71,0.14c1.57,0.31,3.22,0.54,4.79,0.9
		c0.63,0.15,1.25,0.32,1.84,0.53c0.89,0.32,1.72,0.71,2.48,1.25c1.5,1.07,2.66,2.68,3.2,5.23c0.18,0.88,0.83,1.49,1.63,1.9
		c0.11,0.06,0.23,0.12,0.35,0.17c1.04,0.01,1.77,0.28,2.3,0.71c1.34,1.1,1.31,3.22,1.37,4.64c0.04,0.91-0.24,1.36-0.69,1.57
		c-0.16,0.08-0.35,0.13-0.56,0.15c-0.92,0.09-2.14-0.28-2.98-0.15c-1.44,0.23-2.95,0.03-4.43,0.02h-1.02
		c-3.25-0.01-6.51-0.02-9.76-0.03c-1.7-0.01-3.39-0.01-5.09-0.02v0.01c-2.44,8.07,0.46,16.1,0.07,24.16
		c15.31-8.01,26.9-19.91,35.95-34.5C771.52,413,775.55,393.09,773.98,372.18z M740.26,334.35c-0.95,1.19-1.88,2.72-3.07,3.83
		c-0.26,0.25-0.54,0.47-0.83,0.67c-1.1,0.74-2.43,1.07-4.13,0.55c-0.35-0.11-0.71-0.25-1.08-0.43c-0.53-0.66-0.74-1.26-0.74-1.82
		c0-0.13,0.01-0.25,0.04-0.37c0-0.03,0.01-0.07,0.02-0.11c0.02-0.11,0.05-0.21,0.09-0.31c0.04-0.13,0.1-0.26,0.16-0.39
		c0.02-0.03,0.04-0.06,0.06-0.1c0.1-0.17,0.22-0.35,0.35-0.53c0.14-0.19,0.29-0.38,0.46-0.57c0.14-0.17,0.3-0.35,0.46-0.52
		c0.01-0.02,0.03-0.04,0.05-0.06h0.01v-0.01l-0.1,0.03c1.21-2.31,4.94-3.66,3.51-6.89c-0.21-0.46-0.45-0.83-0.73-1.12
		c-0.07-0.08-0.14-0.15-0.21-0.21c-0.37-0.32-0.79-0.53-1.23-0.66c-0.96-0.29-2.07-0.23-3.17-0.15h-0.09
		c-0.73,0.05-1.46,0.09-2.14,0.03c-2.66-0.23-5.32-0.03-7.99,0.04c-2.91,0.09-5.83,0.03-8.72-0.88c-2.29-0.72-3.87-1.67-4.2-4.15
		l0.07,0.03v-0.01c-0.08-0.08-0.16-0.16-0.22-0.24c-0.07-0.08-0.13-0.15-0.18-0.23c-0.06-0.07-0.11-0.15-0.16-0.22
		c-0.15-0.25-0.25-0.5-0.32-0.76c-0.04-0.11-0.07-0.22-0.09-0.34c-0.03-0.14-0.05-0.29-0.06-0.44c-0.01-0.14-0.02-0.29-0.02-0.43
		c0-1.11,0.3-2.26,0.22-3.36c0.29-0.69,0.58-1.39,0.87-2.09c0.26-0.42,0.46-0.89,0.79-1.24c1.7-1.81,3.68-4.24,6.14-1.92
		c2.48,2.33,0.13,4.37-1.61,6.12c-0.32,1.61-0.22,2.71,0.45,3.38c0.11,0.12,0.26,0.23,0.42,0.33c0.16,0.09,0.34,0.17,0.55,0.24
		c0.2,0.06,0.42,0.11,0.67,0.15c0.47,0.07,1.01,0.1,1.64,0.08c6.2-0.18,12.41-1.84,18.64-0.13c2.35,0.65,4.97,0.76,5.42,3.96
		c0.09,0.32,0.13,0.63,0.11,0.96C743.39,327.52,742.62,331.39,740.26,334.35z M721.11,424.66c-1.82,0.03-2.61-1.31-3.79-2.67
		c-0.11-0.11-0.2-0.22-0.31-0.33c-0.31-0.33-0.65-0.67-1.05-0.97c3.29-0.26,4.78,1.43,6.63,2.19
		C722.09,423.5,721.61,424.66,721.11,424.66z M682.19,290.06c0.01,0.01,0.01,0.03,0.02,0.04l0.01,0.01h0.01v-0.05H682.19z
		 M706.18,346.23c-0.01,0.01-0.03,0.01-0.04,0.02l0.08,0.07C706.21,346.29,706.2,346.26,706.18,346.23z M682.19,290.06
		c0.01,0.01,0.01,0.03,0.02,0.04l0.01,0.01h0.01v-0.05H682.19z"/>
	<path class="st2" d="M775.89,412.78c-0.85,4.63-3.19,9.05-5.29,13.36c-5.84,12.03-13.93,22.48-23.92,31.27
		c-15.15,13.32-32.37,21.98-52.81,24.36c-19.71,2.3-38.3-0.53-55.99-9.26c-3.51-1.73-8.06-2.42-9.74-6.91l0.16-0.18
		c2.86,0.26,4.84,2.87,7.78,2.95c3.07,2.06,6.35,3.56,10.09,3.87c3.14,1.74,6.38,3.14,10.05,3.18c0.97,0.33,1.94,0.66,2.91,1
		c8.93,1.71,17.97,1.08,26.97,1.19c1.82,0.02,3.62,0.06,5.15-1.17h2.83c3.07-0.89,6.66-0.2,9.1-3.01c5.01,1.19,8.75-2.14,13-3.68
		c2.94-0.95,5.73-2.22,8.17-4.18c15.31-8.01,26.9-19.92,35.95-34.5c11.22-18.09,15.25-38,13.68-58.91
		c-1.24-16.49-6.71-31.85-16.03-45.68c-0.43-0.64-0.59-1.48-0.87-2.22h0.01v-0.03c0.41,0.02,0.78,0.08,1.11,0.18
		c0.35,0.1,0.66,0.24,0.95,0.41c1.73,1.02,2.51,3.16,3.46,4.62c7.8,11.94,12.89,24.9,15.72,39.05
		C781.36,383.65,778.58,398.18,775.89,412.78z"/>
	<path class="st7" d="M616.15,423.39c0,0.01,0,0.01,0,0.02c-0.01,0-0.01,0-0.02,0L616.15,423.39z"/>
	<path class="st7" d="M641.44,424.92c-2.99-0.19-4.46,3.55-6.61,5.53c-0.98,0.91-1.05,2.84-3.25,2.75
		c-0.23-2.15,1.26-3.65,2.33-4.67c3.08-2.91,2.46-3.71-0.85-6.5c-5.23-4.41-8.97-3.49-13.28,0.36c-1.06,0.95-2.25,1.33-3.63,1.02
		c-0.07,0.73-0.15,1.48-0.23,2.2c0.85,1.74,1.88,3.3,2.12,5.39c0.97,8.49-2.23,16.45-2.9,24.72c0.42,0.32,0.83,0.64,1.25,0.96
		c0.27,0.21,0.54,0.42,0.81,0.64c1.03,0.7,2.07,1.41,3.1,2.11c-2.3-8.72-1.88-16.81,5.73-23.24c-6.43,6.79-4.59,15.29-5.15,23.28
		c0.39,0.37,0.78,0.73,1.17,1.09c-0.25-5.83-0.1-11.43,7.33-12.86c1.39-0.27,1.51-0.97,0.72-2.03c-1.44-1.89-0.38-4.15-0.88-6.17
		c7.04,0.28,7.03,0.3,5.56,7.3c-0.34,1.62,0.44,1.93,1.29,1.86c0.36-0.04,0.74-0.15,1.05-0.26c2.1-0.76,4.06-1.91,6.09-2.89
		c0.79-1.05,1.84-1.58,3.22-1.67c-0.15,2.21-1.91,1.57-3.07,1.91v0.01c-0.02,0.18-0.03,0.35-0.04,0.51c-0.16,2.88,1,3.79,3.93,2.1
		c1.51-0.88,3.04-1.73,4.57-2.59c0.18-0.1,0.37-0.21,0.55-0.31c0.75-5.19,4.83-8.94,5.94-13.97
		C653.86,426.32,647.59,425.31,641.44,424.92z M630.79,435.8c-0.04,0.17-0.11,0.3-0.22,0.4c-0.26,0.27-0.69,0.39-1.16,0.47
		c-0.08,0.94-0.16,1.87-0.24,2.8c-3.23-0.92-0.52-2.01-0.05-3.03c0.29-0.55,0.55-1.1,0.89-1.62c0-0.01,0.01-0.01,0.03-0.01
		c0.14,0,0.69,0.18,0.73,0.32C630.83,435.4,630.83,435.62,630.79,435.8z"/>
	<path class="st12" d="M629.21,439.49c0,0.01,0.01,0.02,0.01,0.03h-0.05L629.21,439.49z"/>
	<path class="st12" d="M652.37,445.49c-2.9,8.73-1.86,18.38-6.2,26.77c-3.74-0.31-7.02-1.82-10.09-3.87
		c3.31-2.35,6.61-4.87,5.95-9.54c-0.41-2.88-0.13-5.23,3.42-7.36c-3.51,0.37-6.47-1.6-9.3-1.46c-0.17,0.01-0.34,0.02-0.51,0.05
		h-0.03c-0.16,0.02-0.32,0.05-0.48,0.1c-0.33,0.08-0.66,0.2-0.99,0.37c-0.68,0.34-1.36,0.87-2.05,1.68
		c-2.82,3.29-7.79,4.53-9.24,9.3c-0.18,0.01-0.37,0.03-0.55,0.05c-0.08-0.33-0.17-0.67-0.25-1c-0.25-5.83-0.1-11.43,7.33-12.86
		c1.39-0.27,1.51-0.97,0.72-2.03c-1.44-1.89-0.38-4.15-0.88-6.17c7.04,0.28,7.03,0.3,5.56,7.3c-0.31,1.49,0.32,1.87,1.08,1.87
		c0.07,0,0.14,0,0.21-0.01c0.36-0.04,0.74-0.15,1.05-0.26c2.1-0.76,4.06-1.91,6.09-2.89c0,0,0.15,0.25,0.15,0.24v0.01
		c-0.02,0.18-0.03,0.35-0.04,0.51c-0.16,2.88,1,3.79,3.93,2.1c1.51-0.88,3.04-1.73,4.57-2.59c0.09-0.04,0.18-0.1,0.28-0.15
		C652.19,445.59,652.28,445.54,652.37,445.49z"/>
	<path class="st9" d="M626.03,436.2c-6.43,6.79-4.59,15.29-5.15,23.28c-0.19-0.02-0.39-0.03-0.58-0.04
		C618,450.72,618.42,442.63,626.03,436.2z"/>
	<path class="st1" d="M625.28,463.45l-0.12,0.14c-1.38-0.05-2.89,0.06-2.86-2.01c0.18-0.02,0.37-0.04,0.55-0.05
		C624.02,461.71,624.72,462.49,625.28,463.45z"/>
	<path class="st1" d="M628.3,465.43l-0.16,0.18c-1.43-0.03-2.83-0.1-2.98-2.03l0.12-0.14C626.72,463.45,627.68,464.17,628.3,465.43z
		"/>
	<path class="st7" d="M682.19,290.06c2.06,0.04,2.78,1.61,3.43,3.14c5.66,13.38,10.87,26.93,14.55,41.02
		c-3.38-1.46-6.27-5.02-7.91-10.75c-1.54-5.37-2.86-10.84-3.81-16.35C687.39,301.01,684.98,295.49,682.19,290.06z"/>
	<path class="st7" d="M680.36,288.21c1.25,0.02,1.87,0.66,1.87,1.9C681.35,289.74,680.65,289.18,680.36,288.21z"/>
	<path class="st10" d="M704.26,410.93c-0.18,0.55-0.36,1.09-0.54,1.64c-1.92-0.44-3.49,0.52-5.2,1.14
		c-6.96,2.52-13.84,4.93-21.51,4.89c-8.45-0.05-16.14-2.64-23.93-5.23c0.48-1.72-0.6-1.91-1.87-1.93c-0.94-0.35-1.64-0.96-2.01-1.92
		c0.87-1.62,2.92-1.06,4.05-2.2c11.12,3.76,20.37-1.87,19.72-12c1.21-4.26-2.33-7.2-3.03-10.93c0.22-4.1-4.19-3.71-5.8-6.02
		c2.03,0,4.05,0,6.08,0c1.89,2.89,5.52,2.97,7.95,4.99c1.93,1.66,3.58,1.09,5.04-0.84c-1.68,0.28-3.35,0.56-5.03,0.84
		c-1.48-2.04,1.18-3.22,1.04-4.99l-0.04,0.03c0.94,0.22,1.56-0.18,1.95-1.02c9.14,0.06,18.11-1.37,27.08-2.9
		c4.44,4.68,8.24,9.86,12,15.08c0.31,3.29,3.95,5.88,2.04,9.65c-1.08,1.73-2.52-0.87-3.77,0.38c-2.72,2.72-5.58,5.3-8.39,7.93
		c-1.72-0.09-3.49,0.03-4.89-1.27c0.69-1.21,1.56-2.23,2.83-2.86c0.93-0.39,1.18-1.14,1.09-2.08c0,0-0.06,0.06-0.06,0.06
		c2.2,0.01,2.45-1.81,3.07-3.29c2.86-6.71-1.29-11.19-4.99-15.81c-0.46-0.78-1.07-1.23-2.02-0.9l0.05,0.04
		c-2.2-5.25-6.81-2.65-10.31-2.87c-3.66-0.23-6.54,1.83-7.6,5.71c-2.28,3.34-4.12,6.84-3.88,11.07
		c-0.18,11.21,11.58,16.47,20.69,11.26c0.37,0.65,0.73,1.3,1.1,1.95C704.86,409.33,704.56,410.13,704.26,410.93z M682.06,402.42
		c-1.75-2.12-3.72-2.74-6.31-1.35c-1.28,0.69-2.01,1.13-0.66,2.37c2.02,1.97,1.78,3.44-0.7,4.95c-2.45,1.49-4.98,0.88-8.72,0.39
		c3.94,2.47,6.7,3.18,9.72,1.05c1.74-1.23,3.31-1.37,5.27,0.24c3.11,2.56,6.08,1.1,8.78-1.24c-3.5,0.84-7.05,1.47-9.54-1.75
		C678.06,404.69,682.79,404.68,682.06,402.42z M655.7,410.05c-0.11-0.14-0.24-0.39-0.3-0.38c-0.28,0.08-0.54,0.22-0.81,0.34
		c0.09,0.13,0.21,0.4,0.26,0.38C655.14,410.32,655.42,410.17,655.7,410.05z M702.41,410.45c0.12-0.14,0.22-0.26,0.33-0.38
		c-0.26-0.14-0.51-0.31-0.78-0.41c-0.07-0.02-0.22,0.21-0.34,0.32C701.89,410.13,702.15,410.29,702.41,410.45z"/>
	<path class="st8" d="M720.2,389.55c-3.76-5.22-7.56-10.4-12-15.08c6.45-0.89,12.91-1.75,19.06-4.08c4.41-0.55,8.87-0.85,13.22-1.71
		c9.17-1.81,18.55,1.28,22.47,8.05C746.77,374.98,733.44,382.13,720.2,389.55z"/>
	<path class="st7" d="M727.26,370.39c-6.15,2.33-12.6,3.19-19.06,4.08c-8.97,1.53-17.94,2.96-27.08,2.9
		c-0.86-0.06-1.63,0.05-1.95,1.02c0,0,0.04-0.03,0.04-0.03c-3,0.49-6,0.58-9,0c-2.03,0-4.05,0-6.08,0
		c-2.94-0.04-5.88-0.09-8.82-0.13c-3.51-2.14-7.38-0.4-11.03-1.02c-11.13-1.75-21.82-5.3-32.75-7.87c-1.14-0.27-2.24-0.42-3.18-1.15
		c4.63-0.85,8.95,0.84,13.24,1.99c11.03,2.94,22.22,4.32,33.56,5.53c10.85,1.16,21.48,0,32.14-0.51
		c10.97-0.52,21.96-1.97,32.76-4.28C722.46,370.41,724.82,370.07,727.26,370.39z"/>
	<path class="st8" d="M710.09,407.51c2.8-2.64,5.66-5.22,8.39-7.93c1.26-1.25,2.69,1.34,3.77-0.38c-1.08,4.26-4.61,6.81-7.05,10.11
		C713.33,409.19,711.66,408.49,710.09,407.51z"/>
	<path class="st4" d="M651.21,411.44c1.26,0.02,2.35,0.21,1.87,1.93c-0.67,0.65-2.55,1.16-0.41,2.23c2.78,1.39,5.48,2.89,8.46,3.94
		c5.21,1.85,11.08,0.83,15.96,3.9c-1.15-0.01-2.41,0.31-3.42-0.07c-8.24-3.12-12.64,0.88-15.36,8.13
		c-4.45-5.19-10.72-6.19-16.88-6.58c-2.98-0.19-4.46,3.56-6.6,5.53c-0.98,0.91-1.06,2.84-3.25,2.75c-0.23-2.15,1.25-3.66,2.32-4.67
		c3.09-2.91,2.47-3.72-0.85-6.51c-5.22-4.4-8.96-3.49-13.28,0.36c-1.06,0.95-2.25,1.33-3.65,1.03c0.72-0.98,1.43-1.96,2.15-2.94
		c0,0-0.11,0.02-0.11,0.02c1.33-0.24,2.39-0.88,3.09-2.08c0,0-0.09,0.07-0.09,0.07c3.76-1.48,7.29-3.2,7.95-7.84
		c0.52-1.9-1.57-2.78-1.72-4.41c3.26,0.78,6.51,1.56,10.75,2.57c-1.22-2.07-1.97-3.34-2.71-4.61c2.14-0.41,3.13,1.57,4.74,2.27
		c1.27,0.91,1.39,4.1,4.13,2.1c2.64-0.75,5.29-1.5,7.93-2.25c0.34,0.33,0.69,0.67,1.03,1c-1.13,1.14-3.18,0.57-4.05,2.2
		c-1.28,0.03-2.87-0.42-3.46,1.16c-0.4,1.07,0.79,1.75,1.53,2.22C649.1,414.09,650.34,413.14,651.21,411.44z"/>
	<path class="st10" d="M652.22,406.33c-2.64,0.75-5.29,1.5-7.93,2.25c-0.18-1.81-1.08-3.2-2.78-3.71c-1.08-0.33-1.17,0.83-1.35,1.61
		c-1.6-0.7-2.6-2.68-4.74-2.27c-0.01,0-0.22-0.25-0.22-0.25c0.09-1.64,0.47-3.44-2.05-3.56c0,0,0.04,0.05,0.04,0.05
		c0.2-1.24,0.07-2.37-1.04-3.17c-0.19-2.27,1.24-3.99,2.01-5.94c2.65-5.23,6.33-9.71,10.13-14.11c3.65,0.61,7.52-1.12,11.03,1.02
		c-1.39,0.98-3.32,1.22-4.11,3.03c-1.1,0.96-2.26,1.85-3.28,2.88c-5.39,5.47-5.19,14.72,0.36,18.22l-0.06-0.06
		c-0.09,0.88,0.1,1.63,0.98,2.04C650.22,405,651.22,405.67,652.22,406.33z"/>
	<path class="st13" d="M625.22,408.41c-0.64,0.07-1.29,0.13-1.93,0.2c-1.77-1.67-6.13-0.81-5.08-5.23c2.74-0.46,4.61,1.82,7.07,2.25
		c-0.04,0.94-0.09,1.89-0.13,2.83L625.22,408.41z"/>
	<path class="st4" d="M633.15,400.39c2.52,0.12,2.14,1.92,2.05,3.56C634.3,402.89,633.07,402.02,633.15,400.39z"/>
	<path class="st4" d="M632.16,397.27c1.11,0.81,1.23,1.94,1.04,3.17C632.23,399.59,631.34,398.71,632.16,397.27z"/>
	<path class="st13" d="M618.23,403.4c-1.17,0.25-2.3,0.38-2.86-1.05C616.4,402.48,617.65,402.01,618.23,403.4z"/>
	<path class="st9" d="M625.15,408.46c0.04-0.94,0.09-1.89,0.13-2.83c0.22-0.05,0.44-0.08,0.66-0.1
		C626.03,406.61,626.44,407.77,625.15,408.46z"/>
	<path class="st11" d="M686.2,361.49c-2.12,1.77-4.59,0.44-6.87,0.77c1.22-2.07-0.51-2.94-1.74-3.74c-0.88-0.56-1.9-0.75-1.08-2.02
		c0.84-1.3,2.02-1.48,3.45-0.96c4.63,1.66,5.78,2.45,5.37,4C685.06,360.54,685.37,361.07,686.2,361.49z"/>
	<path class="st4" d="M690.13,361.28c-0.64,0-1.28,0-1.93,0c3.88-7.57,9.52-12.99,18.02-14.97c0,0-0.08-0.07-0.08-0.07
		C700.58,351.02,693.55,354.21,690.13,361.28z"/>
	<path class="st3" d="M710.28,345.33c2.46-0.14,4.14,0.47,3.73,3.5c-0.46,3.45,2.17,6.99-0.27,10.4c-3.73,1.01-7.54,1.14-11.37,1.04
		C703.09,354.27,706.31,349.6,710.28,345.33z"/>
	<path class="st10" d="M710.28,345.33c-3.98,4.27-7.19,8.94-7.91,14.94c-3.98,1.54-8.12,1.16-12.24,1.01
		c3.42-7.07,10.46-10.26,16.01-15.03C707.44,345.55,708.77,345.04,710.28,345.33z"/>
	<path class="st9" d="M629.11,410.65c-0.66,4.64-4.19,6.36-7.95,7.84C623.09,415.14,626.33,413.13,629.11,410.65z"/>
	<path class="st9" d="M621.25,418.42c-0.69,1.19-1.75,1.84-3.09,2.08C618.09,418.16,619.75,418.42,621.25,418.42z"/>
	<path class="st4" d="M616.16,423.39c-0.08,0.74-0.16,1.48-0.24,2.22c0,0-0.4,0.03-0.4,0.03s-0.37-0.15-0.37-0.15
		C615.04,424.58,614.87,423.64,616.16,423.39z"/>
	<path class="st10" d="M702.2,470.21c-0.65-9.88-2.46-19.49-5.91-28.79c-1.04-2.96-2.08-5.93-3.12-8.9c-2.76-2.86-4.22-6.49-5.91-10
		c-3.44-0.31-6.69,1.54-10.17,0.92c-1.14-0.01-2.41,0.3-3.42-0.07c-8.24-3.12-12.63,0.87-15.36,8.13
		c-1.11,5.03-5.19,8.78-5.94,13.97v0.01c-2.9,8.73-1.86,18.38-6.2,26.77c3.14,1.74,6.38,3.14,10.05,3.18
		c-0.11-4.62-2.66-9.34,1.01-14.57c-0.51,5.81,0.34,10.75,1.9,15.57c8.93,1.71,17.97,1.08,26.97,1.19c1.82,0.02,3.62,0.06,5.15-1.17
		c1.71-4.82,2.4-9.81,1.75-16.32c3.86,6.24,1.24,11.33,1.08,16.32c3.07-0.89,6.66-0.2,9.1-3.01
		C702.84,472.38,702.27,471.31,702.2,470.21z M686.81,468.43c-6.04-1.24-12.44,1.97-18.44-2.4c-2.38-1.74-6.99-0.41-6.97-6.09
		c1.14,1.52,1.74,2.84,2.75,3.53c2.08,1.4,4.16,1.97,4.06-1.85c-0.02-0.83-0.02-1.67,0.07-2.49c0.2-1.84,1.34-2.57,3.09-2.48
		c2.01,0.12,1.66,1.68,1.75,2.95c0.1,1.38-0.16,2.62-1.16,3.67c-0.81,0.86-0.78,1.78,0.14,2.58c1.28,1.12,2.83,0.71,4.29,0.67
		c1.71-0.05,0.79-1.26,0.93-2.12c0.4-2.42-1.81-6.91,2.7-6.41c3.49,0.38,2.85,3.93,2.07,7.23c-0.89,3.75,2.61,1.97,4.37,2.15
		c0.53,0.06,1.11-0.37,1.81-0.63C688.4,468.21,687.45,468.57,686.81,468.43z"/>
	<path class="st10" d="M724.35,465.59c-2.44,1.96-5.23,3.22-8.17,4.18c-0.76-0.52-1.13-1.32-0.98-2.15
		c0.09-0.49,0.17-0.98,0.23-1.48c0.03-0.18,0.06-0.36,0.08-0.55c0.01-0.02,0.01-0.05,0.01-0.08c0.07-0.46,0.12-0.93,0.17-1.41
		c0.12-1.19,0.21-2.4,0.27-3.6c0.05-0.95,0.08-1.9,0.1-2.85c0.01-0.48,0.02-0.95,0.03-1.44c0.02-0.95,0.03-1.92,0.04-2.87
		c0.01-1.81,0.04-3.6,0.1-5.4c0.05-1.18,0.11-2.37,0.21-3.54c0.04-0.46,0.08-0.91,0.13-1.38c0.02-0.21,0.04-0.41,0.07-0.61
		c0.06-0.52,0.13-1.04,0.21-1.57c0.09-0.59,0.19-1.18,0.3-1.77c0.13-0.67,0.27-1.35,0.44-2.02c0.17-0.67,0.35-1.34,0.56-2
		c0.2-0.62,0.37-1.26,0.66-1.85c0.65-1.27,0.82-3.2,2.47-3.38c1.56-0.17,1.71,1.78,2.52,2.75c0.52,0.63,0.98,1.33,1.47,1.99
		c0.16,2.36-1.84,4.4-0.99,6.85C721.84,449.49,724.74,457.53,724.35,465.59z"/>
	<path class="st8" d="M687.27,422.53c-3.45-0.31-6.7,1.54-10.17,0.92c-4.88-3.07-10.75-2.05-15.96-3.9
		c-2.98-1.06-5.68-2.55-8.46-3.94c-2.14-1.07-0.26-1.58,0.41-2.23c7.79,2.59,15.48,5.18,23.93,5.23c7.67,0.04,14.55-2.37,21.51-4.89
		c1.71-0.62,3.28-1.58,5.2-1.14c0.97,0.85,1.95,1.69,2.84,2.47C700.66,418.83,694,420.78,687.27,422.53z"/>
	<path class="st3" d="M696.3,441.43c-1.04-2.97-2.08-5.94-3.12-8.91c4.47,3.44,3.85-1.49,5.2-3.18c2.11,3.03,5.24,1.67,7.63,1.19
		c5.46-1.11,7.31-0.44,8.95,4.71c1.02,4.83-0.44,7.01-5.79,6.37C704.92,441.09,700.59,441.45,696.3,441.43z"/>
	<path class="st10" d="M740.15,441.47c-0.34,0-0.68,0-1.02,0c-2.02-1.15-3.44-2.71-4.52-4.88c-1.67-3.36-3.94-6.24-8.43-4.1
		c-0.83-1.99-3.69-3.39-2.4-5.96c1.49-2.97,4.65-2.47,7.08-1.98c5.02,1.01,10.87,1.11,12.31,7.92c0.21,1,1.02,1.66,1.98,2.06
		C744.05,437.25,743.55,440.41,740.15,441.47z"/>
	<path class="st9" d="M714.95,435.24c-1.63-5.16-3.49-5.82-8.95-4.71c-2.39,0.48-5.52,1.84-7.63-1.19
		c1.75-5.58,6.41-9.55,11.45-9.77c4.25-0.19,9.01,6.95,7.23,10.82C716.32,431.98,715.65,433.62,714.95,435.24z"/>
	<path class="st11" d="M704.06,406.58c-9.11,5.21-20.87-0.05-20.69-11.26c0.87,0,1.74,0,2.61,0c0.42,3.18,2.64,0.92,3.65,0.89
		c4.29-0.14,5.28,2.03,4.75,5.67c-0.16,1.11-0.47,2.21-0.72,3.31c8.26,0.48,12.06-2.26,13.69-9.87c0.87,0,1.75,0,2.62,0
		c0.94,2.2-0.55,4.03-0.92,6.04c0,0,0.06-0.06,0.06-0.06c-1.09,0.31-0.83,1.33-1.09,2.08c-1.27,0.63-2.14,1.65-2.83,2.86
		C704.82,406.35,704.44,406.47,704.06,406.58z"/>
	<path class="st9" d="M732.01,334.21c1.21-2.31,4.94-3.66,3.51-6.89c-1.45-3.26-4.9-1.87-7.57-2.11c-5.55-0.49-11.17,0.9-16.71-0.85
		c-2.29-0.72-3.87-1.67-4.2-4.15c2.54,0.57,4.99,1.21,7.43,2.3c2.79,1.24,6.46,1.7,8.99-0.16c4.34-3.19,11.73-3.16,15.7,0.87
		c-1.01,0-2.02,0-3.02,0c-1.61-0.94-3.17-2.25-5.09-0.05c1.71,0,3.42,0,5.13,0c0.34,1.09,0.67,2.18,1.02,3.27
		C738.4,330.24,736.19,333.56,732.01,334.21z"/>
	<path class="st3" d="M739.16,323.22c-3.97-4.02-11.36-4.06-15.7-0.87c-2.53,1.86-6.2,1.4-8.99,0.16c-2.44-1.09-4.89-1.73-7.43-2.3
		c0,0,0.09,0.04,0.09,0.04c-0.08-2.04,0.85-4.23-0.85-6.04c0.29-0.7,0.58-1.4,0.87-2.09c2.06,0.48,2.9,3.14,5.32,2.96
		c-0.6,3.05,0.28,4.28,3.73,4.18c6.2-0.18,12.41-1.84,18.64-0.13c2.35,0.65,4.98,0.76,5.42,3.96c-0.38,0.03-0.75,0.06-1.13,0.09
		C739.13,323.19,739.16,323.22,739.16,323.22z"/>
	<path class="st3" d="M736.14,323.23c1.01,0,2.02,0,3.02,0c0,0-0.03-0.03-0.03-0.03c0.1,0.72,0.21,1.43,0.31,2.15
		c0.31-0.43,0.62-0.85,0.93-1.28c3.01,3.46,2.24,7.33-0.12,10.29c-2.1,2.64-4.15,6.99-9.11,4.62c0.98-1.47,1.35-3.06,0.96-4.8
		c0,0-0.1,0.03-0.1,0.04c4.18-0.65,6.39-3.97,5.18-7.76c-0.35-1.09-0.68-2.18-1.02-3.27C736.17,323.18,736.14,323.23,736.14,323.23z
		"/>
	<path class="st3" d="M726.18,432.48c4.49-2.13,6.76,0.75,8.43,4.1c1.08,2.17,2.5,3.73,4.52,4.88c-4.95-0.02-9.9-0.03-14.85-0.04
		c-0.85-2.45,1.15-4.49,0.99-6.85c1.13,0.4,0.96,2.2,2.42,2.25c0.64,0.71-0.06,2.42,1.79,2.35c0.01-1.16-0.31-2.09-1.27-2.75
		C728.39,434.68,726.61,433.93,726.18,432.48z"/>
	<path class="st12" d="M712.47,315.09c-2.42,0.18-3.27-2.49-5.32-2.96c0.26-0.42,0.46-0.89,0.79-1.24c1.7-1.81,3.68-4.24,6.14-1.93
		C716.56,311.3,714.21,313.34,712.47,315.09z"/>
	<path class="st8" d="M704.26,410.93c0.3-0.8,0.6-1.6,0.89-2.4c1.11,0.16,2.26-0.12,3.32,0.61c1.01,0.7,2.86,0.12,3.19,1.75
		c0.1,0.51-0.85,1.34-1.46,1.86c-1.21,1.02-2.32,0.76-3.45-0.34C706.08,411.76,705.1,411.41,704.26,410.93z"/>
	<path class="st9" d="M715.96,420.69c3.29-0.26,4.78,1.42,6.63,2.18c-0.49,0.62-0.97,1.78-1.48,1.78
		C718.7,424.7,718.1,422.33,715.96,420.69z"/>
	<path class="st9" d="M732.12,334.18c0.38,1.74,0.01,3.33-0.96,4.8C729.57,336.99,730.85,335.58,732.12,334.18z"/>
	<path class="st9" d="M706.28,314.22c1.69,1.81,0.77,4,0.85,6.04C705.28,318.47,706.44,316.25,706.28,314.22z"/>
	<path class="st9" d="M740.38,324.06c-0.31,0.43-0.62,0.85-0.93,1.28c-0.1-0.72-0.21-1.43-0.31-2.15c0.38-0.03,0.75-0.06,1.13-0.09
		C740.36,323.42,740.39,323.73,740.38,324.06z"/>
	<path class="st3" d="M642.03,458.85c0.66,4.67-2.64,7.19-5.95,9.54c-2.94-0.08-4.92-2.69-7.78-2.95c-0.62-1.26-1.58-1.99-3.02-1.99
		c-0.56-0.95-1.26-1.74-2.43-1.92c1.45-4.77,6.42-6,9.24-9.3c0.69-0.8,1.37-1.34,2.05-1.68c0.33-0.17,0.66-0.29,0.99-0.37
		c0.16-0.04,0.32-0.07,0.48-0.1h0.03c0.08-0.02,0.16-0.03,0.24-0.03c0.09-0.01,0.18-0.02,0.27-0.02c2.83-0.14,5.79,1.83,9.3,1.46
		C641.9,453.62,641.62,455.97,642.03,458.85z"/>
	<path class="st4" d="M694.08,476.47h-2.83c1.71-4.82,2.4-9.81,1.75-16.32C696.86,466.39,694.24,471.48,694.08,476.47z"/>
	<path class="st4" d="M659.13,476.45c-0.97-0.34-1.94-0.67-2.91-1c-0.11-4.62-2.66-9.34,1.01-14.57
		C656.72,466.69,657.57,471.63,659.13,476.45z"/>
	<path class="st12" d="M643.21,445.52c0.79-1.05,1.85-1.58,3.22-1.66c-0.15,2.2-1.91,1.56-3.07,1.91
		C643.36,445.76,643.21,445.52,643.21,445.52z"/>
	<path class="st4" d="M629.13,436.44c0.28-0.55,0.55-1.1,0.89-1.61c0.03-0.05,0.73,0.15,0.76,0.31c0.25,1.09-0.49,1.39-1.37,1.53
		C629.4,436.67,629.13,436.44,629.13,436.44z"/>
	<path class="st4" d="M629.21,439.48c-3.28-0.92-0.56-2.01-0.08-3.04c0,0,0.28,0.23,0.28,0.23c-0.08,0.95-0.16,1.9-0.24,2.84
		C629.17,439.52,629.21,439.48,629.21,439.48z"/>
	<path class="st11" d="M652.22,406.33c-1-0.66-2.01-1.32-3.01-1.98c-0.11-0.79,0.05-1.7-0.98-2.04c0,0,0.06,0.06,0.06,0.06
		c-0.35-2.43-2.23-4.43-1.92-7.04c0.87,0,1.75,0,2.62,0.01c0.79,2.42,2.56,1.1,3.97,1.02c3.09-0.16,5.17,0.95,5.2,4.32
		c0.01,1.48-0.48,2.96-0.75,4.45c8.32,0.56,12.14-2.41,12.95-9.8c0.87,0,1.74,0,2.61,0c0.65,10.14-8.6,15.77-19.72,12.01
		C652.91,407,652.57,406.66,652.22,406.33z"/>
	<path class="st1" d="M685.98,395.32c-0.87,0-1.74,0-2.61,0c-0.25-4.23,1.6-7.73,3.88-11.07c2.31-0.31,4.06-1.83,6.05-2.82
		c11.08-1.27,17.18,6.41,16.68,13.9c-0.87,0-1.75,0-2.62,0c-0.73-7.34-4.3-11.02-10.68-11.02
		C690.28,384.31,686.72,387.98,685.98,395.32z"/>
	<path class="st1" d="M649,395.33c-0.87,0-1.75,0-2.62-0.01c2.62-10.8,6.4-13.95,16.68-13.89c2.3,0.99,4.6,1.97,6.89,2.96
		c0.7,3.73,4.25,6.67,3.03,10.93c-0.87,0-1.74,0-2.62,0c0.25-7.9-4.4-10.41-9.37-10.98c-6-0.69-9.2,2.13-11.03,9.28
		C649.81,394.24,649.33,394.76,649,395.33z"/>
	<path class="st8" d="M709.97,395.32c0.51-7.48-5.6-15.16-16.68-13.9c3.95-2.34,7.91-1.03,11.87-0.02c0,0-0.05-0.04-0.05-0.04
		c0.37,0.98,1.2,0.93,2.02,0.9c3.7,4.62,7.85,9.1,4.99,15.81c-0.63,1.48-0.87,3.3-3.07,3.29
		C709.42,399.36,710.91,397.53,709.97,395.32z"/>
	<path class="st4" d="M682.06,402.42c0.73,2.27-4,2.27-2.16,4.65c2.49,3.22,6.04,2.59,9.54,1.75c-2.7,2.33-5.67,3.8-8.78,1.24
		c-1.95-1.61-3.52-1.47-5.27-0.24c-3.01,2.14-5.77,1.42-9.72-1.05c3.74,0.49,6.26,1.1,8.72-0.39c2.49-1.51,2.72-2.97,0.7-4.95
		C677.45,403.3,679.9,403.9,682.06,402.42z"/>
	<path class="st4" d="M669.95,384.39c-2.3-0.99-4.6-1.97-6.89-2.96c-3.91-2.85-7.89-0.19-11.84-0.17c0.78-1.81,2.72-2.04,4.11-3.03
		c2.94,0.04,5.88,0.09,8.82,0.13C665.76,380.69,670.17,380.29,669.95,384.39z"/>
	<path class="st4" d="M705.16,381.4c-3.96-1.01-7.92-2.32-11.87,0.02c-1.99,0.99-3.74,2.52-6.05,2.82c1.06-3.88,3.95-5.94,7.6-5.71
		C698.35,378.76,702.96,376.15,705.16,381.4z"/>
	<path class="st4" d="M670.22,378.37c3,0.58,6,0.48,9,0c0.14,1.76-2.51,2.94-1.04,4.99l-0.01,0.01
		C675.74,381.35,672.11,381.26,670.22,378.37z"/>
	<path class="st12" d="M682.06,402.42c-2.15,1.48-4.61,0.89-6.96,1.02c-1.35-1.24-0.62-1.69,0.66-2.37
		C678.34,399.68,680.31,400.3,682.06,402.42z"/>
	<path class="st8" d="M651.21,411.44c-0.88,1.69-2.11,2.65-3.95,1.46c-0.73-0.47-1.93-1.15-1.53-2.22c0.59-1.58,2.18-1.13,3.46-1.16
		C649.58,410.48,650.27,411.09,651.21,411.44z"/>
	<path class="st4" d="M678.18,383.35c1.68-0.28,3.35-0.56,5.03-0.84C681.75,384.45,680.1,385.02,678.18,383.35L678.18,383.35z"/>
	<path class="st8" d="M708.03,403.38c0.25-0.75-0.01-1.77,1.09-2.08C709.21,402.24,708.96,402.99,708.03,403.38z"/>
	<path class="st4" d="M707.13,382.26c-0.82,0.03-1.64,0.08-2.02-0.9C706.06,381.04,706.67,381.48,707.13,382.26z"/>
	<path class="st4" d="M655.7,410.05c-0.28,0.13-0.56,0.27-0.85,0.35c-0.05,0.01-0.17-0.25-0.26-0.38c0.27-0.12,0.53-0.27,0.81-0.34
		C655.46,409.65,655.59,409.9,655.7,410.05z"/>
	<path class="st4" d="M702.41,410.45c-0.26-0.16-0.52-0.31-0.79-0.47c0.11-0.11,0.27-0.34,0.34-0.32c0.27,0.09,0.52,0.26,0.78,0.41
		C702.64,410.18,702.53,410.31,702.41,410.45z"/>
	<path class="st4" d="M679.17,378.39c0.32-0.98,1.09-1.08,1.95-1.02C680.73,378.21,680.12,378.61,679.17,378.39z"/>
	<path class="st8" d="M640.16,406.47c0.18-0.78,0.27-1.94,1.35-1.61c1.7,0.52,2.6,1.91,2.78,3.71
		C641.55,410.58,641.43,407.38,640.16,406.47z"/>
	<path class="st8" d="M651.21,381.26c3.95-0.02,7.93-2.68,11.84,0.17c-10.27-0.06-14.06,3.09-16.68,13.89
		c-0.3,2.6,1.58,4.61,1.92,7.04c-5.55-3.5-5.75-12.75-0.36-18.22C648.95,383.11,650.12,382.22,651.21,381.26z"/>
	<path class="st8" d="M648.23,402.31c1.03,0.34,0.88,1.25,0.98,2.04C648.33,403.93,648.15,403.19,648.23,402.31z"/>
	<path class="st4" d="M661.4,459.95c1.14,1.51,1.74,2.84,2.76,3.52c2.08,1.4,4.15,1.97,4.06-1.84c-0.02-0.83-0.02-1.67,0.07-2.49
		c0.2-1.83,1.34-2.57,3.08-2.47c2.01,0.11,1.66,1.67,1.75,2.95c0.09,1.37-0.16,2.62-1.16,3.67c-0.82,0.86-0.79,1.78,0.14,2.58
		c1.28,1.12,2.83,0.71,4.29,0.66c1.71-0.05,0.8-1.26,0.94-2.11c0.4-2.42-1.82-6.91,2.7-6.41c3.49,0.38,2.84,3.94,2.07,7.22
		c-0.89,3.76,2.61,1.97,4.37,2.15c0.53,0.05,1.11-0.37,1.81-0.63c0.14,1.47-0.82,1.82-1.45,1.69c-6.04-1.25-12.44,1.96-18.44-2.4
		C665.99,464.3,661.38,465.62,661.4,459.95z"/>
	<path class="st8" d="M685.98,395.32c0.74-7.34,4.3-11.01,10.69-11.01c6.38,0,9.95,3.68,10.68,11.02
		c-1.62,7.61-5.43,10.35-13.69,9.87c0.25-1.1,0.56-2.2,0.72-3.31c0.53-3.64-0.47-5.81-4.75-5.67
		C688.62,396.25,686.39,398.51,685.98,395.32z"/>
	<path class="st3" d="M736.17,323.18c-1.71,0-3.42,0-5.13,0c1.92-2.21,3.48-0.89,5.09,0.05
		C736.14,323.23,736.17,323.18,736.17,323.18z"/>
	<path class="st4" d="M728.22,436.43c0.96,0.66,1.27,1.59,1.27,2.75c-1.85,0.07-1.15-1.64-1.79-2.35
		C727.88,436.71,728.05,436.57,728.22,436.43z"/>
	<path class="st8" d="M649,395.33c0.33-0.57,0.82-1.09,0.97-1.71c1.83-7.15,5.03-9.97,11.03-9.28c4.97,0.57,9.61,3.08,9.37,10.98
		c-0.81,7.39-4.63,10.36-12.95,9.8c0.27-1.49,0.76-2.97,0.75-4.45c-0.02-3.37-2.11-4.48-5.2-4.32
		C651.56,396.43,649.78,397.75,649,395.33z"/>
</g>
</svg>
