<?xml version="1.0" encoding="utf-8"?>
<!-- Generator: Adobe Illustrator 26.2.1, SVG Export Plug-In . SVG Version: 6.00 Build 0)  -->
<svg version="1.1" id="Layer_1" xmlns="http://www.w3.org/2000/svg" xmlns:xlink="http://www.w3.org/1999/xlink" x="0px" y="0px"
	 viewBox="0 0 1366 768" style="enable-background:new 0 0 1366 768;" xml:space="preserve">
<style type="text/css">
	.st0{fill:#6F5CA7;}
	.st1{fill:#FFFFFF;}
	.st2{fill:#F07E2C;}
	.st3{fill:#CC6C28;}
	.st4{fill:#5650A1;}
	.st5{fill:#0B4660;}
	.st6{fill:#271549;}
	.st7{fill:#E3B7BB;}
	.st8{fill:#FABC3C;}
	.st9{fill:#FEFEFE;}
	.st10{fill:#826CAF;}
	.st11{fill:#F17028;}
	.st12{fill:#CB5228;}
	.st13{fill:#032640;}
</style>
<g>
	<path class="st0" d="M690.27,376.09c0.19,0.02,0.38,0.05,0.57,0.09c0.07,0.01,0.13,0.03,0.2,0.05c-0.07-0.02-0.13-0.04-0.2-0.06
		C690.65,376.13,690.46,376.1,690.27,376.09z"/>
	<path class="st0" d="M691.03,376.23c0.21,0.05,0.42,0.11,0.62,0.18C691.45,376.34,691.24,376.28,691.03,376.23z"/>
	<path class="st0" d="M604.54,336.01c-0.02,0-0.04,0-0.05,0c-0.04,0-0.08,0-0.12,0c-0.23,0.01-0.48,0-0.76-0.04
		C603.93,335.98,604.24,335.98,604.54,336.01z"/>
	<path class="st0" d="M731.67,382.9c-0.09-1.32-0.64-2.22-1.49-2.89c-0.52-0.4-1.14-0.71-1.83-0.98c-0.25-0.1-0.5-0.2-0.75-0.31
		c-0.74-0.32-1.47-0.66-2.19-1.01c-0.98-0.46-1.94-0.92-2.94-1.32c-0.11-0.04-0.21-0.09-0.32-0.13c-0.2-0.09-0.4-0.19-0.58-0.3
		c-1.58-0.9-2.29-2.28-1.64-4.23c0.09-0.28,0.19-0.56,0.3-0.83c0.08-0.21,0.17-0.4,0.26-0.59l-2.11-0.05
		c-0.02,0.05-0.05,0.1-0.09,0.15c-0.03,0.05-0.06,0.09-0.11,0.13c-0.03,0.05-0.07,0.09-0.12,0.12c-0.17,0.13-0.38,0.2-0.62,0.2
		h-0.09c-0.06-0.01-0.13-0.01-0.19-0.02c-0.12-0.01-0.23-0.02-0.34-0.03c-0.86-0.04-1.55,0.03-2.11,0.2
		c-0.26,0.08-0.5,0.18-0.7,0.31c-0.24,0.13-0.44,0.29-0.61,0.47c-1.52,1.57-0.95,4.65-1.58,6.76c-0.5,1.69-0.15,3.65-0.07,5.48
		c0.04,0.91-0.43,2.22,0.85,2.56c1.17,0.32,1.82-0.67,2.02-1.68c0.17-0.83,0.53-1.47,1.04-1.73c0.18-0.09,0.37-0.14,0.57-0.14
		c0.24,0,0.51,0.07,0.8,0.22c4.48,2.35,3.27-1.74,4.07-3.63c0.14,0.05,0.27,0.11,0.39,0.17c0.25,0.13,0.46,0.29,0.64,0.46
		c1.18,1.14,1.21,3.07,2.48,4.01c0.19,0.14,0.38,0.28,0.58,0.42c0.19,0.14,0.39,0.27,0.59,0.39c0.42,0.27,0.85,0.5,1.3,0.65
		c0.13,0.06,0.27,0.1,0.4,0.13c0.03,0.02,0.06,0.03,0.09,0.03c0.16,0.05,0.32,0.08,0.48,0.1c0,0,0.01,0,0.02,0
		c0.17,0.03,0.35,0.04,0.54,0.04c0.08,0,0.16,0,0.24-0.01c0.05,0,0.11-0.01,0.17-0.02h0.1c0.05,0,0.1-0.01,0.15-0.02
		c0.04-0.01,0.09-0.02,0.13-0.03c0.02,0,0.04,0,0.06-0.01c0.02,0,0.04-0.01,0.06-0.02c0.06-0.01,0.12-0.03,0.19-0.05
		c0.13-0.03,0.26-0.07,0.39-0.12C731.34,385.28,731.74,384.18,731.67,382.9z M731.67,382.9c-0.09-1.32-0.64-2.22-1.49-2.89
		c-0.52-0.4-1.14-0.71-1.83-0.98c-0.25-0.1-0.5-0.2-0.75-0.31c-0.74-0.32-1.47-0.66-2.19-1.01c-0.98-0.46-1.94-0.92-2.94-1.32
		c-0.11-0.04-0.21-0.09-0.32-0.13c-0.2-0.09-0.4-0.19-0.58-0.3c-1.58-0.9-2.29-2.28-1.64-4.23c0.09-0.28,0.19-0.56,0.3-0.83
		c0.08-0.21,0.17-0.4,0.26-0.59l-2.11-0.05c-0.02,0.05-0.05,0.1-0.09,0.15c-0.03,0.05-0.06,0.09-0.11,0.13
		c-0.03,0.05-0.07,0.09-0.12,0.12c-0.17,0.13-0.38,0.2-0.62,0.2h-0.09c-0.06-0.01-0.13-0.01-0.19-0.02
		c-0.12-0.01-0.23-0.02-0.34-0.03c-0.86-0.04-1.55,0.03-2.11,0.2c-0.26,0.08-0.5,0.18-0.7,0.31c-0.24,0.13-0.44,0.29-0.61,0.47
		c-1.52,1.57-0.95,4.65-1.58,6.76c-0.5,1.69-0.15,3.65-0.07,5.48c0.04,0.91-0.43,2.22,0.85,2.56c1.17,0.32,1.82-0.67,2.02-1.68
		c0.17-0.83,0.53-1.47,1.04-1.73c0.18-0.09,0.37-0.14,0.57-0.14c0.24,0,0.51,0.07,0.8,0.22c4.48,2.35,3.27-1.74,4.07-3.63
		c0.14,0.05,0.27,0.11,0.39,0.17c0.25,0.13,0.46,0.29,0.64,0.46c1.18,1.14,1.21,3.07,2.48,4.01c0.19,0.14,0.38,0.28,0.58,0.42
		c0.19,0.14,0.39,0.27,0.59,0.39c0.42,0.27,0.85,0.5,1.3,0.65c0.13,0.06,0.27,0.1,0.4,0.13c0.03,0.02,0.06,0.03,0.09,0.03
		c0.16,0.05,0.32,0.08,0.48,0.1c0,0,0.01,0,0.02,0c0.17,0.03,0.35,0.04,0.54,0.04c0.08,0,0.16,0,0.24-0.01
		c0.05,0,0.11-0.01,0.17-0.02h0.1c0.05,0,0.1-0.01,0.15-0.02c0.04-0.01,0.09-0.02,0.13-0.03c0.02,0,0.04,0,0.06-0.01
		c0.02,0,0.04-0.01,0.06-0.02c0.06-0.01,0.12-0.03,0.19-0.05c0.13-0.03,0.26-0.07,0.39-0.12
		C731.34,385.28,731.74,384.18,731.67,382.9z M731.67,382.9c-0.09-1.32-0.64-2.22-1.49-2.89c-0.52-0.4-1.14-0.71-1.83-0.98
		c-0.25-0.1-0.5-0.2-0.75-0.31c-0.74-0.32-1.47-0.66-2.19-1.01c-0.98-0.46-1.94-0.92-2.94-1.32c-0.11-0.04-0.21-0.09-0.32-0.13
		c-0.2-0.09-0.4-0.19-0.58-0.3c-1.58-0.9-2.29-2.28-1.64-4.23c0.09-0.28,0.19-0.56,0.3-0.83c0.08-0.21,0.17-0.4,0.26-0.59
		l-2.11-0.05c-0.02,0.05-0.05,0.1-0.09,0.15c-0.03,0.05-0.06,0.09-0.11,0.13c-0.03,0.05-0.07,0.09-0.12,0.12
		c-0.17,0.13-0.38,0.2-0.62,0.2h-0.09c-0.06-0.01-0.13-0.01-0.19-0.02c-0.12-0.01-0.23-0.02-0.34-0.03
		c-0.86-0.04-1.55,0.03-2.11,0.2c-0.26,0.08-0.5,0.18-0.7,0.31c-0.24,0.13-0.44,0.29-0.61,0.47c-1.52,1.57-0.95,4.65-1.58,6.76
		c-0.5,1.69-0.15,3.65-0.07,5.48c0.04,0.91-0.43,2.22,0.85,2.56c1.17,0.32,1.82-0.67,2.02-1.68c0.17-0.83,0.53-1.47,1.04-1.73
		c0.18-0.09,0.37-0.14,0.57-0.14c0.24,0,0.51,0.07,0.8,0.22c4.48,2.35,3.27-1.74,4.07-3.63c0.14,0.05,0.27,0.11,0.39,0.17
		c0.25,0.13,0.46,0.29,0.64,0.46c1.18,1.14,1.21,3.07,2.48,4.01c0.19,0.14,0.38,0.28,0.58,0.42c0.19,0.14,0.39,0.27,0.59,0.39
		c0.42,0.27,0.85,0.5,1.3,0.65c0.13,0.06,0.27,0.1,0.4,0.13c0.03,0.02,0.06,0.03,0.09,0.03c0.16,0.05,0.32,0.08,0.48,0.1
		c0,0,0.01,0,0.02,0c0.17,0.03,0.35,0.04,0.54,0.04c0.08,0,0.16,0,0.24-0.01c0.05,0,0.11-0.01,0.17-0.02h0.1
		c0.05,0,0.1-0.01,0.15-0.02c0.04-0.01,0.09-0.02,0.13-0.03c0.02,0,0.04,0,0.06-0.01c0.02,0,0.04-0.01,0.06-0.02
		c0.06-0.01,0.12-0.03,0.19-0.05c0.13-0.03,0.26-0.07,0.39-0.12C731.34,385.28,731.74,384.18,731.67,382.9z M731.67,382.9
		c-0.09-1.32-0.64-2.22-1.49-2.89c-0.52-0.4-1.14-0.71-1.83-0.98c-0.25-0.1-0.5-0.2-0.75-0.31c-0.74-0.32-1.47-0.66-2.19-1.01
		c-0.98-0.46-1.94-0.92-2.94-1.32c-0.11-0.04-0.21-0.09-0.32-0.13c-0.2-0.09-0.4-0.19-0.58-0.3c-1.58-0.9-2.29-2.28-1.64-4.23
		c0.09-0.28,0.19-0.56,0.3-0.83c0.08-0.21,0.17-0.4,0.26-0.59l-2.11-0.05c-0.02,0.05-0.05,0.1-0.09,0.15
		c-0.03,0.05-0.06,0.09-0.11,0.13c-0.03,0.05-0.07,0.09-0.12,0.12c-0.17,0.13-0.38,0.2-0.62,0.2h-0.09
		c-0.06-0.01-0.13-0.01-0.19-0.02c-0.12-0.01-0.23-0.02-0.34-0.03c-0.86-0.04-1.55,0.03-2.11,0.2c-0.26,0.08-0.5,0.18-0.7,0.31
		c-0.24,0.13-0.44,0.29-0.61,0.47c-1.52,1.57-0.95,4.65-1.58,6.76c-0.5,1.69-0.15,3.65-0.07,5.48c0.04,0.91-0.43,2.22,0.85,2.56
		c1.17,0.32,1.82-0.67,2.02-1.68c0.17-0.83,0.53-1.47,1.04-1.73c0.18-0.09,0.37-0.14,0.57-0.14c0.24,0,0.51,0.07,0.8,0.22
		c4.48,2.35,3.27-1.74,4.07-3.63c0.14,0.05,0.27,0.11,0.39,0.17c0.25,0.13,0.46,0.29,0.64,0.46c1.18,1.14,1.21,3.07,2.48,4.01
		c0.19,0.14,0.38,0.28,0.58,0.42c0.19,0.14,0.39,0.27,0.59,0.39c0.42,0.27,0.85,0.5,1.3,0.65c0.13,0.06,0.27,0.1,0.4,0.13
		c0.03,0.02,0.06,0.03,0.09,0.03c0.16,0.05,0.32,0.08,0.48,0.1c0,0,0.01,0,0.02,0c0.17,0.03,0.35,0.04,0.54,0.04
		c0.08,0,0.16,0,0.24-0.01c0.05,0,0.11-0.01,0.17-0.02h0.1c0.05,0,0.1-0.01,0.15-0.02c0.04-0.01,0.09-0.02,0.13-0.03
		c0.02,0,0.04,0,0.06-0.01c0.02,0,0.04-0.01,0.06-0.02c0.06-0.01,0.12-0.03,0.19-0.05c0.13-0.03,0.26-0.07,0.39-0.12
		C731.34,385.28,731.74,384.18,731.67,382.9z M731.67,382.9c-0.09-1.32-0.64-2.22-1.49-2.89c-0.52-0.4-1.14-0.71-1.83-0.98
		c-0.25-0.1-0.5-0.2-0.75-0.31c-0.74-0.32-1.47-0.66-2.19-1.01c-0.98-0.46-1.94-0.92-2.94-1.32c-0.11-0.04-0.21-0.09-0.32-0.13
		c-0.2-0.09-0.4-0.19-0.58-0.3c-1.58-0.9-2.29-2.28-1.64-4.23c0.09-0.28,0.19-0.56,0.3-0.83c0.08-0.21,0.17-0.4,0.26-0.59
		l-2.11-0.05c-0.02,0.05-0.05,0.1-0.09,0.15c-0.03,0.05-0.06,0.09-0.11,0.13c-0.03,0.05-0.07,0.09-0.12,0.12
		c-0.17,0.13-0.38,0.2-0.62,0.2h-0.09c-0.06-0.01-0.13-0.01-0.19-0.02c-0.12-0.01-0.23-0.02-0.34-0.03
		c-0.86-0.04-1.55,0.03-2.11,0.2c-0.26,0.08-0.5,0.18-0.7,0.31c-0.24,0.13-0.44,0.29-0.61,0.47c-1.52,1.57-0.95,4.65-1.58,6.76
		c-0.5,1.69-0.15,3.65-0.07,5.48c0.04,0.91-0.43,2.22,0.85,2.56c1.17,0.32,1.82-0.67,2.02-1.68c0.17-0.83,0.53-1.47,1.04-1.73
		c0.18-0.09,0.37-0.14,0.57-0.14c0.24,0,0.51,0.07,0.8,0.22c4.48,2.35,3.27-1.74,4.07-3.63c0.14,0.05,0.27,0.11,0.39,0.17
		c0.25,0.13,0.46,0.29,0.64,0.46c1.18,1.14,1.21,3.07,2.48,4.01c0.19,0.14,0.38,0.28,0.58,0.42c0.19,0.14,0.39,0.27,0.59,0.39
		c0.42,0.27,0.85,0.5,1.3,0.65c0.13,0.06,0.27,0.1,0.4,0.13c0.03,0.02,0.06,0.03,0.09,0.03c0.16,0.05,0.32,0.08,0.48,0.1
		c0,0,0.01,0,0.02,0c0.17,0.03,0.35,0.04,0.54,0.04c0.08,0,0.16,0,0.24-0.01c0.05,0,0.11-0.01,0.17-0.02h0.1
		c0.05,0,0.1-0.01,0.15-0.02c0.04-0.01,0.09-0.02,0.13-0.03c0.02,0,0.04,0,0.06-0.01c0.02,0,0.04-0.01,0.06-0.02
		c0.06-0.01,0.12-0.03,0.19-0.05c0.13-0.03,0.26-0.07,0.39-0.12C731.34,385.28,731.74,384.18,731.67,382.9z M700.62,370.1v0.01
		c1.67-0.05,2.95-0.05,3.9,0.08C703.58,370.05,702.3,370.05,700.62,370.1z M764.26,335.12c-2.22-4.55-5.06-8.79-7.6-13.18
		c0,0-0.01,0-0.01-0.01c-1.54-0.93-2.93-1.99-3.04-4.03c-1.65-1.65-3.3-3.3-4.94-4.94c-1.31-0.75-2.33-1.77-3.07-3.09
		c-12.47-11.92-26.87-20.39-43.7-24.49c-12.77-3.1-25.67-3.63-38.67-1.66c-0.8,0.13-1.65-0.06-2.48-0.1
		c-0.65,0.09-1.3,0.19-1.95,0.28c-0.44,0.92-1.22,0.88-2.05,0.73c-40.16,10.36-64.83,35.84-74.13,76.35
		c-5.17,28.42,0.56,54.32,17.95,77.46c2.85,3.81,6.12,7.29,9.2,10.91c0.37,0.27,0.73,0.54,1.1,0.82c1.98,1.97,3.95,3.96,5.93,5.94
		c0.32,0.06,0.63,0.03,0.94-0.07c0.06-1.28,0.12-2.56,0.18-3.84v-12.03c0.78-4.24,0.59-8.88,3.69-12.16
		c0.1-0.12,0.23-0.24,0.35-0.35c0.5-0.47,1.07-0.91,1.73-1.31c0.47-0.07,0.93-0.12,1.39-0.16c2.08-0.15,4.1,0.02,6.03,0.67
		c0.3,0.1,0.6,0.21,0.9,0.34c0.6,0.25,1.18,0.54,1.76,0.89c0.28-4.12-0.36-8.32,1.11-12.35c0.03-0.09,0.07-0.18,0.1-0.27
		c0.1-0.28,0.21-0.56,0.33-0.84c0.1-0.25,0.22-0.49,0.34-0.71c0.07-0.12,0.13-0.22,0.2-0.33c0.1-0.15,0.21-0.3,0.32-0.42
		c0-0.01,0.01-0.01,0.01-0.01c0.06-0.07,0.12-0.13,0.18-0.18c0.06-0.06,0.13-0.11,0.19-0.16c0.38-0.27,0.83-0.38,1.38-0.23
		c0.08,0.03,0.17,0.06,0.26,0.09c0.09,0.03,0.18,0.07,0.27,0.12c0.19,0.1,0.37,0.19,0.53,0.26c0.77,0.32,1.3,0.37,1.67,0.22
		c0.13-0.05,0.24-0.12,0.33-0.21c0.09-0.09,0.17-0.19,0.23-0.31c0.33-0.6,0.35-1.54,0.52-2.25c0.4-1.58,0.21-3.23,0.78-4.88
		c0.7-2.04,1.19-3.33,1.76-3.95c0.38-0.41,0.8-0.51,1.36-0.32c0.35,0.13,0.77,0.38,1.26,0.74c0.09,0.06,0.17,0.13,0.26,0.2
		c0.18,0.13,0.36,0.28,0.55,0.44c0.38,0.32,0.81,0.69,1.29,1.12c1.29,1.15,1.94,0.58,2.87-0.26c1.72-1.54,3.04-3.52,5.21-4.58
		c0.35-0.17,0.7-0.33,1.05-0.47c0.91-0.35,1.8-0.54,2.68-0.22c0.23,0.08,0.46,0.2,0.69,0.36c0.08,0.05,0.15,0.11,0.23,0.17
		c0.1,0.08,0.19,0.17,0.26,0.25c1.26,1.25,0.82,2.79,0.05,4.27c-0.9,1.75-1.77,3.52-2.67,5.31v0.01c0.46,0.21,1,0.3,1.54,0.35
		c1.61,0.17,3.34,0.04,3.74,2.39c0.42,2.39-0.04,4.41-1.73,6.11c-0.18,0.19-0.38,0.37-0.6,0.55c-0.35,0.29-0.68,0.61-1,0.93
		c-0.96,0.96-1.82,2.05-2.76,3.05v0.01c7.26-0.82,13.68-5.04,21.13-5.17c1.51-0.03,3.42-1.78,4.39,0.13
		c0.93,1.86-2.52,1.77-2.59,4.31c7.1-2.67,14.21-3.56,21.5-3.28c5.87,0.24,11.44,1.36,16.73,4.02c0.95,0.48,1.92,0.96,2.88,1.43
		c0.03,0.02,0.07,0.04,0.1,0.06c0.06,0.03,0.13,0.06,0.19,0.09h0.01c0.04,0.01,0.07,0.03,0.11,0.05c1.3,0.63,2.61,1.24,3.93,1.84
		c0.58,0.27,1.16,0.54,1.74,0.8c0.01,0.01,0.03,0.02,0.05,0.02c0.61,0.28,1.22,0.56,1.84,0.82c0.04,0.02,0.07,0.04,0.11,0.05
		c0.56,0.25,1.13,0.5,1.7,0.73c0.67,0.3,1.35,0.58,2.03,0.87c0.58,0.25,1.17,0.49,1.75,0.72c1.06,0.44,2.12,0.86,3.19,1.28
		c1.19,0.47,2.39,0.94,3.6,1.38c0.29,0.11,0.58,0.22,0.87,0.33c0.74,0.27,1.49,0.55,2.24,0.81c0.02,0.01,0.04,0.02,0.06,0.02
		c0.54,0.2,1.08,0.39,1.62,0.58c0.04,0.01,0.08,0.03,0.11,0.04c1.17,0.42,2.34,0.82,3.51,1.21c1.53,0.51,3.29,0.63,4.44,2.04
		c8.52-10.44,13.58-22.56,16.53-35.55C777.59,378.6,774.64,356.36,764.26,335.12z M738.66,337.29c0.11,0.16,0.22,0.31,0.32,0.45
		c0.2,0.27,0.4,0.5,0.6,0.68c0.05,0.05,0.1,0.09,0.15,0.13c0.09,0.08,0.19,0.15,0.28,0.21c0.09,0.06,0.19,0.11,0.28,0.15
		c0.09,0.04,0.17,0.07,0.26,0.09c0.39,0.1,0.75,0.05,1.11-0.1h0.01c0.18-0.08,0.36-0.18,0.53-0.28c0,0,0,0,0.01,0
		c0.12-0.08,0.24-0.16,0.36-0.24c0.3-0.21,0.62-0.46,0.95-0.69c0.13-0.09,0.26-0.18,0.4-0.27c0.15-0.1,0.3-0.18,0.45-0.26
		c1.39-0.66,2.87-0.29,4.04,1c1.63,1.79,2.7,3.84,2.17,6.32c-0.47,2.17-2.39,1.16-3.93,1.54c-0.66-0.86-4.89,1.6-2.23-2.68
		c0.23-0.37,0.16-0.84-0.07-1.2c-0.04-0.07-0.09-0.13-0.15-0.2c-0.1-0.12-0.23-0.22-0.37-0.3c-0.17-0.08-0.35-0.12-0.53-0.11
		c-0.21,0.02-0.42,0.04-0.62,0.07c-0.2,0.04-0.39,0.09-0.58,0.14c-0.19,0.06-0.37,0.13-0.55,0.21c-0.26,0.12-0.5,0.28-0.72,0.46
		c-0.07,0.06-0.14,0.13-0.21,0.2c-0.41,0.42-0.71,0.99-0.87,1.73c-0.58,2.75,0.78,5.2,1.09,7.81c0.18,1.42-0.06,2.23-0.79,2.76
		c-0.23,0.16-0.5,0.3-0.84,0.42c-0.16,0.05-0.34,0.11-0.53,0.16c-2.43,0.65-4.23,1.19-3.14-2.73c1.18-4.24-0.55-8.52-1-12.77
		C734.08,335.62,738.03,336.34,738.66,337.29z M724.52,339.1c1.31,0.24,2.54,0.7,3.62,1.33c0.13,0.08,0.27,0.16,0.4,0.24
		c0.38,0.25,0.75,0.52,1.1,0.81c0.23,0.19,0.45,0.4,0.65,0.61c1.51,1.53,2.41,3.48,2.33,5.55c-0.11,2.84-1.55,4.99-3.99,6.2
		c-0.49,0.24-1.02,0.45-1.58,0.61c-1.14,0.34-2.43,0.51-3.86,0.51c-0.31,0-0.61-0.02-0.92-0.05c-0.28-0.03-0.57-0.07-0.85-0.12
		c-0.9-0.18-1.77-0.47-2.57-0.88c-0.4-0.2-0.78-0.42-1.14-0.66c-0.25-0.16-0.48-0.34-0.71-0.52c-1.91-1.54-3.19-3.74-3.26-6.09
		c-0.08-2.45,0.94-4.5,2.72-5.88c0.16-0.13,0.33-0.25,0.51-0.35c0.58-0.39,1.23-0.7,1.94-0.94c0.26-0.1,0.53-0.17,0.81-0.24
		c0.01,0,0.02-0.01,0.02-0.01c0.87-0.21,1.81-0.32,2.81-0.31C723.22,338.92,723.88,338.98,724.52,339.1z M705.27,319.78
		c0.68-0.43,1.34-0.87,1.97-1.33c2.31-1.68,4.24-3.64,5.57-6.56c2.51,3.74,5.06,6.63,9.03,8.79c-3.72,2.42-6.96,4.79-8.79,9.21
		c-2.36-4.13-5.19-6.99-9.16-9.25C704.36,320.35,704.82,320.07,705.27,319.78z M688.71,310.08c4.27-3.91,4.51,1.07,7.02,1.9
		c-2.07,1.4-3.65,2.69-5.09,4.57C692.58,313.46,683.73,314.63,688.71,310.08z M668.67,334.66c0.06-2.09,0.06-3.44,0.35-4.3
		c0.01-0.05,0.02-0.09,0.04-0.13c0.07-0.19,0.16-0.36,0.27-0.5c0.02-0.03,0.04-0.05,0.06-0.07c0.59-0.68,1.73-0.74,3.98-0.62
		c0.55,0.03,1.18,0.08,1.88,0.12c-1.27,5.03-3.54,9.65-2.15,15.18c7.88-6.56,16.27-11.69,27.21-8.35c-0.15,0.79-0.45,2.03-0.59,3.28
		c-0.13,1.11-0.59,2.11-1.59,2.31c-0.46,0.1-0.76,0.01-0.96-0.17c-0.1-0.1-0.18-0.23-0.24-0.37c-0.19-0.43-0.22-1.02-0.4-1.45
		c-0.36-0.87-1.04-1.32-1.78-1.68c-0.45-0.21-0.92-0.39-1.36-0.61c-0.23-0.11-0.45-0.19-0.66-0.25c-1.15-0.29-2.14,0.2-2.65,1.4
		c-0.63,1.46-0.65,2.99,1.23,3.7c1.7,0.64,3.47,1.09,5.1,1.85c0.92,0.44,1.86,0.93,2.63,1.54c0.1,0.08,0.21,0.17,0.31,0.27
		c1.09,0.98,1.7,2.28,1.15,4.12c-0.25,0.83-0.64,1.49-1.13,2c-0.19,0.2-0.4,0.38-0.62,0.54c-0.57,0.39-1.22,0.66-1.92,0.81
		c-0.14,0.04-0.28,0.06-0.43,0.08c-0.85,0.14-1.77,0.13-2.7,0.03c-0.54-0.06-1.08-0.17-1.62-0.31c-0.18-0.05-0.36-0.1-0.54-0.15
		c-0.36-0.1-0.71-0.21-1.06-0.32c-0.36-0.12-0.71-0.24-1.06-0.35c-0.21-0.07-0.44-0.12-0.67-0.15c-0.56-0.09-1.15-0.08-1.6,0.06
		c-0.17,0.07-0.32,0.14-0.43,0.24c-0.06,0.05-0.11,0.1-0.16,0.16c-0.09,0.13-0.13,0.28-0.13,0.46c0.02,1.48-0.31,2.42-0.87,3.04
		c-0.3,0.33-0.66,0.57-1.07,0.75c-0.25,0.11-0.51,0.2-0.78,0.28c-0.18,0.05-0.37,0.1-0.56,0.14c-0.29,0.07-0.58,0.13-0.88,0.18
		c-1,0.2-2.04,0.4-2.97,0.89c1.15-4.31-1.85-6.35-3.44-9.04c-0.48-0.83-0.73-2.07-2-1.65c-1.08,0.37-1.42,1.65-1.04,2.54
		c1,2.34,0.84,3.56,0.09,4.25c-0.09,0.09-0.2,0.18-0.31,0.25c-0.06,0.04-0.12,0.07-0.18,0.1c-0.12,0.07-0.25,0.13-0.38,0.18
		c-0.54,0.21-1.19,0.34-1.85,0.46c-0.17,0.03-0.34,0.06-0.51,0.09c-0.33,0.06-0.67,0.13-1,0.2c-0.16,0.04-0.32,0.09-0.48,0.13
		c-0.24,0.07-0.47,0.15-0.69,0.25C669.79,348.74,668.49,341.66,668.67,334.66z M642.21,318.85c0.7-1.28,1.98-2.45,3.38-3.73
		c0.35-0.32,0.71-0.65,1.07-0.98c1.07-1.01,2.15-2.1,3.06-3.36c2.36,3.58,4.38,7.05,9.3,8.57c-4.51,2.21-7.2,5.16-9.45,9.55
		c-0.76-1.2-1.28-1.7-1.44-2.3c-0.22-0.82-0.71-1.52-1.32-2.15c-0.08-0.08-0.16-0.16-0.24-0.24c-0.08-0.08-0.16-0.15-0.24-0.23
		c-0.17-0.15-0.34-0.29-0.52-0.44c-0.17-0.14-0.35-0.28-0.53-0.42c-0.27-0.2-0.54-0.4-0.8-0.6c-0.18-0.13-0.35-0.26-0.52-0.39
		c-0.25-0.19-0.49-0.38-0.71-0.57c-0.15-0.12-0.29-0.25-0.41-0.38C642.09,320.45,641.73,319.71,642.21,318.85z M639.45,339.1
		c0.24-0.03,0.47-0.05,0.7-0.07c0.47-0.04,0.93-0.08,1.36-0.1c0.85-0.04,1.6-0.01,2.22,0.16c0.18,0.05,0.35,0.11,0.51,0.19
		c0.24,0.11,0.44,0.26,0.6,0.45c0.17,0.18,0.3,0.4,0.38,0.67c0.03,0.09,0.06,0.19,0.08,0.29c0.16,0.76,0.03,1.82-0.46,3.29
		c-0.45,1.34,0.07,2.97-0.07,4.45c-0.1,1.12,1.95,2.56-0.23,3.31c-0.34,0.12-0.7,0.23-1.08,0.33c-0.76,0.2-1.56,0.34-2.24,0.27
		c-0.23-0.02-0.45-0.06-0.64-0.13c-0.1-0.03-0.19-0.07-0.28-0.12c-1.16-0.63-0.11-2.32,0.08-3.6c0.4-2.82,1.13-5.77-0.55-8.77
		c-0.11-0.2-0.24-0.41-0.37-0.61h-0.01V339.1z M605.12,335.92c0.07-0.02,0.13-0.04,0.2-0.05c0.01-0.01,0.01-0.01,0.02-0.01
		c0.07-0.02,0.14-0.05,0.21-0.08c0.14-0.06,0.27-0.13,0.39-0.21c0.4-0.24,0.73-0.56,1.02-0.91c0.14-0.17,0.28-0.36,0.42-0.54
		c0.42-0.56,0.81-1.14,1.32-1.6c0.07-0.07,0.15-0.13,0.23-0.19c0.12-0.1,0.25-0.18,0.39-0.25c0.11-0.06,0.22-0.12,0.34-0.17
		c0.04-0.01,0.08-0.03,0.13-0.04c0.11-0.04,0.22-0.07,0.34-0.1c4.04-0.88,5.24,4.13,8.96,3.66c0.67-0.09,0.17,1.72-0.47,1.86
		c-6.43,1.42-4.49,6.58-4.85,10.7c-0.09,0.99-0.01,1.99-0.01,3.17c2.76,0.19,2.17-5.18,5.88-2.45c1.13,0.82,1.83,1.01,1.05,2.33
		c-1.68,2.86-4.21,4.27-7.47,3.81c-0.97-0.14-1.77-0.44-2.41-0.88c-0.25-0.18-0.48-0.38-0.69-0.6c-0.93-0.99-1.36-2.42-1.36-4.15
		c0.01-2-0.05-4,0.01-6.01c0.01-0.4,0.03-0.8,0.05-1.2c0.03-0.59,0.05-1.17,0.02-1.74c-0.01-0.16-0.02-0.3-0.03-0.46
		c0-0.15-0.02-0.3-0.05-0.45c-0.01-0.11-0.03-0.22-0.06-0.34c0-0.03,0-0.06-0.02-0.1c-0.01-0.07-0.03-0.14-0.05-0.21
		c-0.02-0.06-0.04-0.13-0.06-0.2c-0.04-0.14-0.09-0.27-0.15-0.39c-0.01-0.02-0.02-0.04-0.03-0.06c-0.06-0.13-0.13-0.26-0.21-0.38
		c-0.13-0.21-0.28-0.4-0.48-0.57c-0.1-0.09-0.21-0.18-0.33-0.26c-0.03-0.02-0.07-0.05-0.1-0.07c-0.03-0.03-0.07-0.05-0.11-0.07
		c-0.07-0.05-0.15-0.09-0.23-0.13c-0.1-0.05-0.21-0.11-0.33-0.16c-0.13-0.05-0.27-0.1-0.42-0.14c-0.08-0.03-0.16-0.05-0.25-0.07
		c-0.38-0.1-0.81-0.17-1.3-0.2C604.8,335.99,604.98,335.96,605.12,335.92z M607.39,378.37c-5.29-3.65,0.95-4.79,1.25-7.25
		c1.52,1.91,2.84,3.49,4.95,4.69C610.8,375.07,611.53,381.24,607.39,378.37z M612.15,412.29c2.47-1.43,4.32-3.47,6.6-6.91
		c-0.08,1.38,0.51,2.34,1.29,3.11c0.13,0.13,0.27,0.26,0.41,0.38c0.08,0.06,0.15,0.12,0.22,0.18c0.22,0.18,0.45,0.34,0.67,0.51
		c1.58,1.18,3.04,2.11,1.48,4.25C619.12,418.88,618.48,418.41,612.15,412.29z M635.9,386.69v0.01c-0.1,0.19-0.2,0.38-0.31,0.55
		c-0.42,0.73-0.9,1.34-1.44,1.84c-0.27,0.25-0.55,0.47-0.85,0.67c-0.15,0.1-0.3,0.2-0.45,0.28c-1.31,0.74-2.86,1.04-4.62,1
		c-0.22,0-0.43-0.01-0.64-0.03c-3.13-0.28-4.95-2.15-5.42-5.26c-0.37-2.44-0.59-5-0.25-7.42c0.58-4.1,0.87-5.93-0.17-7.03
		c-0.04-0.05-0.08-0.09-0.13-0.13c-0.09-0.08-0.19-0.16-0.3-0.24c-0.05-0.04-0.11-0.08-0.17-0.11c-0.12-0.07-0.25-0.14-0.39-0.21
		c-0.14-0.06-0.28-0.13-0.44-0.19c-0.16-0.06-0.33-0.13-0.52-0.19c-0.36-0.12-0.77-0.24-1.22-0.36c-0.23-0.06-0.47-0.12-0.73-0.19
		c-0.51-0.13-1.06-0.26-1.68-0.41c0.48-1.94,2.09-1.02,3.2-1.28c0.53-0.12,1.11-0.04,1.58-0.28c0.08-0.05,0.17-0.1,0.24-0.17
		c0.12-0.1,0.23-0.23,0.32-0.41c2-3.71,4.59-3.69,8.09,0.02c0.16,0.17,0.36,0.3,0.57,0.42c0.22,0.11,0.45,0.22,0.67,0.32
		c0.06,0.03,0.12,0.05,0.19,0.08c0.01,0,0.01,0,0.01,0c0.13,0.04,0.28,0.06,0.43,0.07c0.85,0.06,1.92-0.23,2.48,0.14
		c0.06,0.04,0.11,0.09,0.15,0.14c0.17,0.2,0.25,0.52,0.19,1.03c-0.28,2.29-2.94,1.44-4.63,1.76c-0.34,5.27-0.67,10.54-1,15.82
		c2.43-0.2,2.01-5.8,6.23-3.1C636.46,384.84,636.66,385.19,635.9,386.69z M631.68,345.9c-0.3,0.06-0.65-0.09-0.99-0.15
		c-0.83-1.37,2.07-2.43,0.32-3.93c-0.87-0.75-1.52-0.14-2.25,0.13c-1.68,0.62-2.18,1.98-1.98,3.59c0.24,1.96,0.51,3.92,0.99,5.82
		c0.45,1.78,0.15,2.82-0.58,3.46c-0.07,0.07-0.16,0.14-0.26,0.21c-0.28,0.18-0.6,0.33-0.95,0.44c-0.23,0.08-0.48,0.14-0.74,0.19
		c-0.52,0.1-1.08,0.17-1.65,0.22c-0.89,0.08-1.87-0.41-1.48-1.41c1.88-4.83-0.4-9.48-0.43-14.21c-0.01-1.07-1-2.38,0.57-2.99
		c1.37-0.53,3.51-1.02,4.06,0.36c0.92,2.31,2.05,1.76,3.22,0.81c1.88-1.51,3.71-2.36,5.71-0.46c1.89,1.81,3.29,4.19,2.23,6.68
		C636.4,347.17,633.66,345.53,631.68,345.9z M654.21,379.89c-0.83-0.05-1.63,0.13-2.42,0.36c-0.36,0.1-0.71,0.22-1.06,0.32
		c-0.28,0.09-0.56,0.17-0.85,0.24c-0.97,0.24-1.97,0.36-3.04,0.03c-0.12-1.55,2.25-2.59,1.58-4.25c-0.02-0.06-0.05-0.11-0.07-0.16
		c-0.08-0.16-0.19-0.33-0.33-0.5c-0.1-0.12-0.19-0.22-0.3-0.31c-0.1-0.08-0.2-0.15-0.3-0.21c-0.1-0.05-0.2-0.09-0.31-0.11
		c-0.52-0.13-1.08,0.07-1.72,0.41c-2.23,1.21-2.88,3.2-2.55,5.43c0.34,2.28,0.74,4.54,1.04,6.82c0.22,1.64-0.04,2.61-0.69,3.19
		c-0.35,0.33-0.83,0.54-1.42,0.69c-0.46,0.13-1,0.21-1.59,0.27c-0.63,0.07-1.11,0.05-1.47-0.04c-0.07-0.01-0.13-0.03-0.19-0.06
		c-0.24-0.07-0.42-0.19-0.55-0.34c-0.02-0.01-0.04-0.03-0.06-0.06c-0.03-0.03-0.05-0.06-0.07-0.1c-0.07-0.11-0.12-0.23-0.15-0.36
		c-0.2-0.74,0.08-1.78,0.04-2.69c-0.22-5.11,0.88-10.32-1.05-15.28c-0.42-1.1-0.23-1.81,0.29-2.26c0.32-0.29,0.77-0.47,1.27-0.6
		c0.09-0.02,0.19-0.05,0.29-0.07c1.49-0.39,3.62-1.05,3.95,0.94c0.16,0.93,0.37,1.51,0.61,1.83c0.03,0.04,0.06,0.07,0.09,0.1
		c0.86,0.92,2.07-0.92,2.77-1.3c1.88-1,3.47-2.78,5.8-1.21c2.51,1.7,3.44,4.35,3.92,7.17C655.85,378.81,655.51,379.97,654.21,379.89
		z M654.8,352.74c-0.17-0.04-0.34-0.1-0.5-0.16c-0.33-0.11-0.65-0.24-0.97-0.39c-0.32-0.14-0.63-0.31-0.94-0.5
		c-0.92-0.55-1.77-1.27-2.51-2.14c-3.11-3.66-2.85-9.3,0.49-12.65c0.11-0.11,0.24-0.23,0.36-0.34c0.22-0.19,0.44-0.38,0.67-0.55
		c0.68-0.51,1.41-0.91,2.17-1.2c2.16-0.83,4.55-0.77,6.74,0.18c0.29,0.13,0.58,0.27,0.86,0.43c0.14,0.08,0.28,0.16,0.42,0.25
		c0.28,0.17,0.56,0.36,0.82,0.57c0.4,0.31,0.79,0.66,1.16,1.04c0.94,0.96,1.75,2.03,2.72,3.27c0.17,0.21,0.33,0.42,0.5,0.63
		c0.17,0.21,0.34,0.43,0.52,0.65c0,0.01,0.01,0.01,0.01,0.02h0.01v0.01c-0.6-0.03-1.21,0.01-1.8,0.05c-1.75,0.14-3.41,0.4-4.48-0.53
		c-0.15-0.13-0.28-0.29-0.41-0.47c-0.13-0.19-0.25-0.4-0.35-0.65c-0.1-0.25-0.18-0.52-0.25-0.83c-0.07-0.32-0.12-0.66-0.16-1.05
		c-0.01-0.15-0.04-0.28-0.08-0.4c-0.06-0.18-0.15-0.32-0.27-0.45c-0.08-0.09-0.17-0.16-0.28-0.22c-0.04-0.04-0.1-0.06-0.15-0.09
		c-0.09-0.05-0.19-0.09-0.3-0.12c-0.01,0-0.02-0.01-0.04-0.01c-0.1-0.03-0.2-0.05-0.31-0.07c-0.12-0.03-0.26-0.04-0.4-0.05
		c-0.15-0.01-0.31-0.01-0.46-0.01c-0.44,0-0.83,0.07-1.19,0.19c-1.09,0.36-1.83,1.22-2.27,2.25c-1.18,2.79-1.22,5.79-0.2,8.62
		c1.09,3.02,4.36,3.22,6.57,0.28c0.48-0.64,0.94-1.31,1.44-1.77c0.11-0.1,0.22-0.2,0.34-0.27c0.43-0.3,0.9-0.42,1.45-0.23
		c0.3,0.1,0.62,0.3,0.98,0.62c0.09,0.08,0.16,0.15,0.23,0.23c1.1,1.13,0.69,1.97-0.06,2.67c-0.06,0.06-0.12,0.12-0.19,0.17
		c-0.07,0.05-0.13,0.11-0.2,0.16c-0.13,0.11-0.27,0.21-0.4,0.31c-0.14,0.1-0.27,0.2-0.4,0.29c-0.07,0.04-0.13,0.09-0.19,0.14
		c-0.12,0.09-0.24,0.18-0.34,0.27c-1.25,1.12-2.72,1.8-4.26,2.07C657.55,353.2,656.15,353.12,654.8,352.74z M671.41,406.41
		c-0.88-2.41-2.37-3.56-3.95-4.63c-0.23-0.16-0.45-0.31-0.68-0.46c0.14-0.19,0.27-0.36,0.39-0.53c0.14-0.19,0.29-0.36,0.43-0.53
		c0.27-0.32,0.55-0.6,0.82-0.85c0.15-0.13,0.29-0.25,0.44-0.35c2.17-1.64,4.4-1.03,6.82,1.98
		C674.46,402.76,671.73,403.25,671.41,406.41z M676.83,379.05c-0.66-0.03-1.31-0.05-1.97-0.06c-2.5-0.05-5.01,0-7.51,0.05
		c-0.63,0.01-1.34-0.07-1.95,0c-0.14,0.02-0.27,0.05-0.4,0.08c-0.12,0.04-0.24,0.08-0.35,0.14s-0.21,0.13-0.31,0.21
		c-0.34,0.33-0.55,0.87-0.52,1.76c0.02,0.46,0.09,0.84,0.22,1.16c0.04,0.11,0.09,0.21,0.14,0.3c0.1,0.18,0.22,0.34,0.38,0.47
		c0.64,0.6,1.65,0.74,2.73,0.88c0.13,0.01,0.25,0.03,0.37,0.04c2.89,0.33,4.77-2.81,7.7-2.15c0.09,0.02,0.19,0.05,0.28,0.08
		c0.55,0.16,1.15,0.16,2.05,0.2c0.3,0.02,0.63,0.04,1,0.07c-0.43,0.42-0.86,0.81-1.29,1.16c-4.77,3.99-9.51,4.63-14.87,2.54
		c-3.52-1.38-5.4-4.29-5.53-7.57c-0.07-1.98,0.64-3.65,1.91-4.99c0.27-0.29,0.57-0.56,0.89-0.81c0.16-0.12,0.32-0.25,0.49-0.37
		c0.34-0.24,0.71-0.46,1.09-0.67c0.39-0.21,0.79-0.4,1.21-0.58c3.93-1.67,8.27-1.44,11.64,0.4c0.46,0.25,0.9,0.53,1.32,0.84
		c1.25,0.93,2.32,2.12,3.1,3.55c0.79,1.47,1.05,2.56,0.07,3.03C678.32,379,677.7,379.09,676.83,379.05z M683.67,414.88
		c0.14-1.96-0.95-3.01-2.11-3.9c-0.15-0.11-0.29-0.22-0.44-0.33c-1.56-1.15-3-2.16-1.46-4.83c4.53-7.87,7.01,0.13,10.77,1.26
		C688.16,409.43,685.79,410.99,683.67,414.88z M701.45,388.89c-0.24-0.1-0.47-0.26-0.69-0.46c-1.35-1.28-2.47-1.42-3.73-0.84
		c-0.34,0.16-0.7,0.37-1.07,0.63c-0.12,0.08-0.25,0.17-0.38,0.27c-3.59,2.69-7.68,1.97-11.28,0.15c-2.53-1.28-4.21-3.62-2.9-7
		c0.21-0.56,0.52-1.1,0.9-1.62c0.26-0.35,0.55-0.68,0.86-0.99c0.94-0.95,2.11-1.75,3.36-2.27c0.21-0.1,0.42-0.18,0.63-0.25
		c1.04-0.36,2.11-0.52,3.12-0.42c0.19,0.02,0.38,0.05,0.57,0.09c0.07,0.01,0.13,0.03,0.2,0.05c0.21,0.05,0.42,0.11,0.62,0.18
		c0.14,0.05,0.27,0.1,0.41,0.16c0.28,0.11,0.55,0.24,0.84,0.38c0.43,0.2,0.88,0.42,1.38,0.63c0.69-2.09,0.73-4.07,0.13-5.86
		c-0.53-1.55-2.07-2.61-3.38-0.88c-3.11,4.06-3,4.14-7.19,3.99c0.16-3.24,0.9-5.43,2.46-6.73c0.35-0.29,0.74-0.53,1.17-0.73
		c1.87-0.88,4.56-0.95,8.29-0.36c1.53,0.17,3.07,0.32,1.95,2.54l0.07,0.39l0.39,0.06c0.38-0.68,0.92-0.83,1.61-0.46
		c0.17-0.85,0.54-1.27,1-1.45c0.05-0.03,0.1-0.04,0.15-0.05c0.45-0.14,0.96-0.1,1.47-0.07c0.35,0.03,0.7,0.05,1.02,0.02
		c0.95-0.09,1.56-0.28,1.9-0.54c0.88-0.67,0.1-1.81-0.86-3.14c0.11-0.05,0.23-0.09,0.34-0.13c0.23-0.07,0.46-0.11,0.69-0.13
		c0.22-0.02,0.45-0.02,0.67,0c0.23,0.01,0.46,0.04,0.68,0.08c0.46,0.08,0.92,0.18,1.38,0.27c1.07,0.21,2.15,0.33,3.2-0.26
		c0.17-0.09,0.68,0.16,1.07,0.43c0.07,0.05,0.14,0.1,0.2,0.15c0.16,0.13,0.27,0.25,0.26,0.32c-0.06,0.36-0.08,0.67-0.08,0.95
		c0,0.22,0.02,0.41,0.05,0.58c0.07,0.4,0.23,0.69,0.44,0.9c0.09,0.09,0.2,0.16,0.31,0.23c0.01,0,0.02,0.01,0.04,0.02
		c0.18,0.09,0.38,0.15,0.6,0.2c0.8,0.15,1.79,0.03,2.64,0.11c0.34,0.03,0.65,0.11,0.9,0.25c0.09,0.04,0.17,0.1,0.24,0.16
		c0.28,0.23,0.45,0.59,0.44,1.11c0,0.25-0.06,0.5-0.17,0.71c-0.02,0.05-0.05,0.1-0.09,0.15c-0.03,0.05-0.06,0.09-0.11,0.13
		c-0.03,0.05-0.07,0.09-0.12,0.12c-0.17,0.13-0.38,0.2-0.62,0.2h-0.09c-0.06-0.01-0.13-0.01-0.19-0.02
		c-0.12-0.01-0.23-0.02-0.34-0.03c-0.86-0.04-1.55,0.03-2.11,0.2c-0.26,0.08-0.5,0.18-0.7,0.31c-0.24,0.13-0.44,0.29-0.61,0.47
		c-1.52,1.57-0.95,4.65-1.58,6.76c-0.5,1.69-0.15,3.65-0.07,5.48c0.04,0.91-0.43,2.22,0.85,2.56c1.17,0.32,1.82-0.67,2.02-1.68
		c0.17-0.83,0.53-1.47,1.04-1.73c0.18-0.09,0.37-0.14,0.57-0.14c0.24,0,0.51,0.07,0.8,0.22c4.48,2.35,3.27-1.74,4.07-3.63
		c0.14,0.05,0.27,0.11,0.39,0.17c0.25,0.13,0.46,0.29,0.64,0.46c1.18,1.14,1.21,3.07,2.48,4.01c0.19,0.14,0.38,0.28,0.58,0.42
		c0.19,0.14,0.39,0.27,0.59,0.39c0.42,0.27,0.85,0.5,1.3,0.65c0.13,0.06,0.27,0.1,0.4,0.13c0.03,0.02,0.06,0.03,0.09,0.03
		c0.16,0.05,0.32,0.08,0.48,0.1c0,0,0.01,0,0.02,0c0.17,0.03,0.35,0.04,0.54,0.04c0.08,0,0.16,0,0.24-0.01
		c0.05,0,0.11-0.01,0.17-0.02h0.1c0.05,0,0.1-0.01,0.15-0.02c0.04-0.01,0.09-0.02,0.13-0.03c0.02,0,0.04,0,0.06-0.01
		c0.02,0,0.04-0.01,0.06-0.02c0.06-0.01,0.12-0.03,0.19-0.05c0.13-0.03,0.26-0.07,0.39-0.12c1.24-0.47,1.65-1.57,1.57-2.85
		c-0.09-1.32-0.64-2.22-1.49-2.89c-0.52-0.4-1.14-0.71-1.83-0.98c-0.25-0.1-0.5-0.2-0.75-0.31c-0.74-0.32-1.47-0.66-2.19-1.01
		c-0.98-0.46-1.94-0.92-2.94-1.32c-0.11-0.04-0.21-0.09-0.32-0.13c-0.2-0.09-0.4-0.19-0.58-0.3c-1.58-0.9-2.29-2.28-1.64-4.23
		c0.09-0.28,0.19-0.56,0.3-0.83c0.08-0.21,0.17-0.4,0.26-0.59c0.3-0.62,0.68-1.17,1.18-1.57c0.12-0.11,0.24-0.2,0.38-0.28
		c0.1-0.07,0.2-0.12,0.31-0.17c0.21-0.1,0.45-0.18,0.7-0.24c0.06-0.02,0.11-0.03,0.17-0.04c0.37-0.06,0.78-0.08,1.23-0.05
		c1.03,0.08,2.1,0.03,3.16-0.01c1.23-0.05,2.45-0.1,3.61,0.04c0.42,0.05,0.83,0.13,1.23,0.24c0.14,0.04,0.27,0.08,0.4,0.13
		c0.29,0.1,0.55,0.15,0.8,0.17c1.63,0.14,2.77-1.08,4.68-0.89c-0.74,2.85-1.41,5.43-2.27,8.72c-1.67-2.07-2.8-3.85-4.3-5.21
		c-1.22-1.11-2.97-1.7-4.63-0.77c-1.39,0.77-2.17,2.27-2.11,3.72c0.03,0.61,0.24,1.01,0.56,1.29c0.07,0.05,0.14,0.11,0.22,0.16
		c0.15,0.09,0.31,0.16,0.48,0.23c0.68,0.26,1.52,0.33,2.17,0.59c2.77,1.06,5.67,1.87,7.97,3.89c1.4,1.24,2.89,2.61,2.12,4.68
		c-0.34,0.9-0.81,1.75-1.42,2.44c-0.27,0.29-0.56,0.55-0.88,0.77c-0.43,0.3-0.91,0.53-1.45,0.67c-0.27,0.06-0.56,0.11-0.86,0.13
		c-0.23,0.02-0.47,0.04-0.71,0.06c-0.47,0.04-0.96,0.08-1.45,0.09c-1.34,0.06-2.67-0.01-3.73-0.53c-0.81-0.4-1.59-0.64-2.35-0.77
		c-0.07-0.01-0.13-0.03-0.2-0.03c-0.19-0.03-0.37-0.05-0.56-0.06c-0.02-0.01-0.05-0.01-0.07-0.01c-0.1,0-0.19-0.01-0.28-0.01
		c-0.38-0.02-0.76-0.01-1.13,0.03c-0.2,0.02-0.4,0.05-0.6,0.08c-0.18,0.02-0.36,0.06-0.54,0.1c-0.09,0.02-0.18,0.04-0.27,0.06
		c-0.09,0.01-0.18,0.04-0.27,0.06c-0.13,0.04-0.27,0.07-0.41,0.11c-0.57,0.16-1.13,0.36-1.7,0.57c-0.52,0.21-1.04,0.42-1.56,0.63
		c-0.14,0.06-0.27,0.11-0.41,0.17c-8.23,3.39-11.99,0.96-11.95-7.92c0-1.48,0.13-2.99,0.45-4.44c0.77-3.49,1.02-5.3,0.16-6.21
		c-0.06-0.07-0.13-0.13-0.21-0.19c-0.37-0.29-0.91-0.46-1.62-0.55c-0.95-0.14-2.23-0.14-3.9-0.09v0.01c0.63,4.64,1.66,9.26,1.05,14
		c1.26-1.19,1.47,0.11,1.94,0.82c1.51,0.99,1.32,2.17,0.26,3.31c-0.19,0.2-0.39,0.36-0.6,0.49
		C702.7,389.09,702.05,389.14,701.45,388.89z M750.83,414.84c-1.18,3.37-1.26,8.32-7.17,7.04c-2.75-0.91-2.07-2.84-1.43-4.79
		c0.61-1.86,0.92-3.85,1.8-5.56c1.24-2.41-0.57-3.59-1.55-5.16c-1.31-2.13-2.9-0.63-4.31-0.25c-0.13,0.04-0.26,0.07-0.39,0.11
		c-1.45,0.41-2.85,0.94-4.23,1.52c-3.36,1.45-6.55,3.29-9.84,4.9c-0.36,0.18-0.73,0.35-1.1,0.53c-0.73,0.35-1.48,0.68-2.23,0.99
		c-3.87,1.59-7.79,3.15-11.48,1.48c-1.12-0.51-2.22-1.32-3.29-2.52l0.08,0.04c-0.02-0.01-0.04-0.03-0.06-0.04
		c-0.09-0.06-0.18-0.11-0.26-0.18c-0.17-0.11-0.32-0.23-0.47-0.36c-0.16-0.13-0.31-0.27-0.45-0.41c-0.08-0.08-0.15-0.16-0.22-0.24
		l-0.09-0.09c-0.16-0.2-0.31-0.4-0.44-0.61c-0.06-0.08-0.11-0.17-0.15-0.25c-0.23-0.4-0.4-0.82-0.51-1.27
		c-0.04-0.12-0.07-0.25-0.09-0.38c-0.02-0.06-0.03-0.13-0.04-0.2c-0.01-0.01-0.01-0.02-0.01-0.03c-0.03-0.2-0.06-0.41-0.07-0.63
		c-0.01-0.09-0.01-0.18-0.01-0.27c-0.02-0.24-0.01-0.48,0-0.73c0.01-0.12,0.01-0.25,0.03-0.37c-0.05-1.02-0.09-2.05-0.14-3.07
		c0.47-1.93,0.87-4.3,2.08-5.6c0.05-0.06,0.11-0.12,0.17-0.17c0.06-0.06,0.12-0.11,0.18-0.16c0.25-0.2,0.53-0.36,0.84-0.46
		c0.16-0.06,0.32-0.1,0.5-0.13c0.53-0.09,1.15-0.05,1.88,0.15c4.74,1.28,1.7,5.39,1.38,8.37c0.63,1.39,1.64,2.4,3.02,3.03
		c0.97-0.33,1.94-0.66,2.91-0.98c2.16-1.06,4.33-2.1,6.49-3.15c0.9-0.44,1.8-0.87,2.69-1.31c2.28-1.1,4.55-2.22,6.8-3.37
		c0.43-0.21,0.85-0.43,1.28-0.65c0.65-0.34,1.31-0.6,1.97-0.81c0.16-0.06,0.33-0.11,0.49-0.15c0.83-0.23,1.66-0.39,2.51-0.48
		c0.16-0.02,0.33-0.04,0.5-0.05c1.85-0.17,3.73-0.09,5.62-0.04c0.31,0.01,0.57,0.05,0.79,0.14c0.11,0.04,0.21,0.09,0.3,0.15
		c0.1,0.07,0.18,0.14,0.25,0.22c0.29,0.32,0.43,0.78,0.45,1.36l0.02,0.03C751.23,402.38,753.24,407.95,750.83,414.84z
		 M753.71,380.38c-1.19-1.82-2.16-3.36-4.01-4.41c-0.42-0.24-0.89-0.46-1.41-0.65c-0.01,0-0.01-0.01-0.02-0.01
		c0.31-0.05,0.59-0.14,0.86-0.26c0.13-0.06,0.26-0.12,0.38-0.2c0.49-0.29,0.92-0.67,1.32-1.06c0.2-0.2,0.39-0.4,0.59-0.58
		c0.09-0.1,0.19-0.19,0.28-0.28c0.85-0.78,1.7-1.3,2.99-0.64C760.16,375.07,755.21,377.39,753.71,380.38z M731.67,382.9
		c-0.09-1.32-0.64-2.22-1.49-2.89c-0.52-0.4-1.14-0.71-1.83-0.98c-0.25-0.1-0.5-0.2-0.75-0.31c-0.74-0.32-1.47-0.66-2.19-1.01
		c-0.98-0.46-1.94-0.92-2.94-1.32c-0.11-0.04-0.21-0.09-0.32-0.13c-0.2-0.09-0.4-0.19-0.58-0.3c-1.58-0.9-2.29-2.28-1.64-4.23
		c0.09-0.28,0.19-0.56,0.3-0.83c0.08-0.21,0.17-0.4,0.26-0.59l-2.11-0.05c-0.02,0.05-0.05,0.1-0.09,0.15
		c-0.03,0.05-0.06,0.09-0.11,0.13c-0.03,0.05-0.07,0.09-0.12,0.12c-0.17,0.13-0.38,0.2-0.62,0.2h-0.09
		c-0.06-0.01-0.13-0.01-0.19-0.02c-0.12-0.01-0.23-0.02-0.34-0.03c-0.86-0.04-1.55,0.03-2.11,0.2c-0.26,0.08-0.5,0.18-0.7,0.31
		c-0.24,0.13-0.44,0.29-0.61,0.47c-1.52,1.57-0.95,4.65-1.58,6.76c-0.5,1.69-0.15,3.65-0.07,5.48c0.04,0.91-0.43,2.22,0.85,2.56
		c1.17,0.32,1.82-0.67,2.02-1.68c0.17-0.83,0.53-1.47,1.04-1.73c0.18-0.09,0.37-0.14,0.57-0.14c0.24,0,0.51,0.07,0.8,0.22
		c4.48,2.35,3.27-1.74,4.07-3.63c0.14,0.05,0.27,0.11,0.39,0.17c0.25,0.13,0.46,0.29,0.64,0.46c1.18,1.14,1.21,3.07,2.48,4.01
		c0.19,0.14,0.38,0.28,0.58,0.42c0.19,0.14,0.39,0.27,0.59,0.39c0.42,0.27,0.85,0.5,1.3,0.65c0.13,0.06,0.27,0.1,0.4,0.13
		c0.03,0.02,0.06,0.03,0.09,0.03c0.16,0.05,0.32,0.08,0.48,0.1c0,0,0.01,0,0.02,0c0.17,0.03,0.35,0.04,0.54,0.04
		c0.08,0,0.16,0,0.24-0.01c0.05,0,0.11-0.01,0.17-0.02h0.1c0.05,0,0.1-0.01,0.15-0.02c0.04-0.01,0.09-0.02,0.13-0.03
		c0.02,0,0.04,0,0.06-0.01c0.02,0,0.04-0.01,0.06-0.02c0.06-0.01,0.12-0.03,0.19-0.05c0.13-0.03,0.26-0.07,0.39-0.12
		C731.34,385.28,731.74,384.18,731.67,382.9z M731.67,382.9c-0.09-1.32-0.64-2.22-1.49-2.89c-0.52-0.4-1.14-0.71-1.83-0.98
		c-0.25-0.1-0.5-0.2-0.75-0.31c-0.74-0.32-1.47-0.66-2.19-1.01c-0.98-0.46-1.94-0.92-2.94-1.32c-0.11-0.04-0.21-0.09-0.32-0.13
		c-0.2-0.09-0.4-0.19-0.58-0.3c-1.58-0.9-2.29-2.28-1.64-4.23c0.09-0.28,0.19-0.56,0.3-0.83c0.08-0.21,0.17-0.4,0.26-0.59
		l-2.11-0.05c-0.02,0.05-0.05,0.1-0.09,0.15c-0.03,0.05-0.06,0.09-0.11,0.13c-0.03,0.05-0.07,0.09-0.12,0.12
		c-0.17,0.13-0.38,0.2-0.62,0.2h-0.09c-0.06-0.01-0.13-0.01-0.19-0.02c-0.12-0.01-0.23-0.02-0.34-0.03
		c-0.86-0.04-1.55,0.03-2.11,0.2c-0.26,0.08-0.5,0.18-0.7,0.31c-0.24,0.13-0.44,0.29-0.61,0.47c-1.52,1.57-0.95,4.65-1.58,6.76
		c-0.5,1.69-0.15,3.65-0.07,5.48c0.04,0.91-0.43,2.22,0.85,2.56c1.17,0.32,1.82-0.67,2.02-1.68c0.17-0.83,0.53-1.47,1.04-1.73
		c0.18-0.09,0.37-0.14,0.57-0.14c0.24,0,0.51,0.07,0.8,0.22c4.48,2.35,3.27-1.74,4.07-3.63c0.14,0.05,0.27,0.11,0.39,0.17
		c0.25,0.13,0.46,0.29,0.64,0.46c1.18,1.14,1.21,3.07,2.48,4.01c0.19,0.14,0.38,0.28,0.58,0.42c0.19,0.14,0.39,0.27,0.59,0.39
		c0.42,0.27,0.85,0.5,1.3,0.65c0.13,0.06,0.27,0.1,0.4,0.13c0.03,0.02,0.06,0.03,0.09,0.03c0.16,0.05,0.32,0.08,0.48,0.1
		c0,0,0.01,0,0.02,0c0.17,0.03,0.35,0.04,0.54,0.04c0.08,0,0.16,0,0.24-0.01c0.05,0,0.11-0.01,0.17-0.02h0.1
		c0.05,0,0.1-0.01,0.15-0.02c0.04-0.01,0.09-0.02,0.13-0.03c0.02,0,0.04,0,0.06-0.01c0.02,0,0.04-0.01,0.06-0.02
		c0.06-0.01,0.12-0.03,0.19-0.05c0.13-0.03,0.26-0.07,0.39-0.12C731.34,385.28,731.74,384.18,731.67,382.9z M731.67,382.9
		c-0.09-1.32-0.64-2.22-1.49-2.89c-0.52-0.4-1.14-0.71-1.83-0.98c-0.25-0.1-0.5-0.2-0.75-0.31c-0.74-0.32-1.47-0.66-2.19-1.01
		c-0.98-0.46-1.94-0.92-2.94-1.32c-0.11-0.04-0.21-0.09-0.32-0.13c-0.2-0.09-0.4-0.19-0.58-0.3c-1.58-0.9-2.29-2.28-1.64-4.23
		c0.09-0.28,0.19-0.56,0.3-0.83c0.08-0.21,0.17-0.4,0.26-0.59l-2.11-0.05c-0.02,0.05-0.05,0.1-0.09,0.15
		c-0.03,0.05-0.06,0.09-0.11,0.13c-0.03,0.05-0.07,0.09-0.12,0.12c-0.17,0.13-0.38,0.2-0.62,0.2h-0.09
		c-0.06-0.01-0.13-0.01-0.19-0.02c-0.12-0.01-0.23-0.02-0.34-0.03c-0.86-0.04-1.55,0.03-2.11,0.2c-0.26,0.08-0.5,0.18-0.7,0.31
		c-0.24,0.13-0.44,0.29-0.61,0.47c-1.52,1.57-0.95,4.65-1.58,6.76c-0.5,1.69-0.15,3.65-0.07,5.48c0.04,0.91-0.43,2.22,0.85,2.56
		c1.17,0.32,1.82-0.67,2.02-1.68c0.17-0.83,0.53-1.47,1.04-1.73c0.18-0.09,0.37-0.14,0.57-0.14c0.24,0,0.51,0.07,0.8,0.22
		c4.48,2.35,3.27-1.74,4.07-3.63c0.14,0.05,0.27,0.11,0.39,0.17c0.25,0.13,0.46,0.29,0.64,0.46c1.18,1.14,1.21,3.07,2.48,4.01
		c0.19,0.14,0.38,0.28,0.58,0.42c0.19,0.14,0.39,0.27,0.59,0.39c0.42,0.27,0.85,0.5,1.3,0.65c0.13,0.06,0.27,0.1,0.4,0.13
		c0.03,0.02,0.06,0.03,0.09,0.03c0.16,0.05,0.32,0.08,0.48,0.1c0,0,0.01,0,0.02,0c0.17,0.03,0.35,0.04,0.54,0.04
		c0.08,0,0.16,0,0.24-0.01c0.05,0,0.11-0.01,0.17-0.02h0.1c0.05,0,0.1-0.01,0.15-0.02c0.04-0.01,0.09-0.02,0.13-0.03
		c0.02,0,0.04,0,0.06-0.01c0.02,0,0.04-0.01,0.06-0.02c0.06-0.01,0.12-0.03,0.19-0.05c0.13-0.03,0.26-0.07,0.39-0.12
		C731.34,385.28,731.74,384.18,731.67,382.9z M731.67,382.9c-0.09-1.32-0.64-2.22-1.49-2.89c-0.52-0.4-1.14-0.71-1.83-0.98
		c-0.25-0.1-0.5-0.2-0.75-0.31c-0.74-0.32-1.47-0.66-2.19-1.01c-0.98-0.46-1.94-0.92-2.94-1.32c-0.11-0.04-0.21-0.09-0.32-0.13
		c-0.2-0.09-0.4-0.19-0.58-0.3c-1.58-0.9-2.29-2.28-1.64-4.23c0.09-0.28,0.19-0.56,0.3-0.83c0.08-0.21,0.17-0.4,0.26-0.59
		l-2.11-0.05c-0.02,0.05-0.05,0.1-0.09,0.15c-0.03,0.05-0.06,0.09-0.11,0.13c-0.03,0.05-0.07,0.09-0.12,0.12
		c-0.17,0.13-0.38,0.2-0.62,0.2h-0.09c-0.06-0.01-0.13-0.01-0.19-0.02c-0.12-0.01-0.23-0.02-0.34-0.03
		c-0.86-0.04-1.55,0.03-2.11,0.2c-0.26,0.08-0.5,0.18-0.7,0.31c-0.24,0.13-0.44,0.29-0.61,0.47c-1.52,1.57-0.95,4.65-1.58,6.76
		c-0.5,1.69-0.15,3.65-0.07,5.48c0.04,0.91-0.43,2.22,0.85,2.56c1.17,0.32,1.82-0.67,2.02-1.68c0.17-0.83,0.53-1.47,1.04-1.73
		c0.18-0.09,0.37-0.14,0.57-0.14c0.24,0,0.51,0.07,0.8,0.22c4.48,2.35,3.27-1.74,4.07-3.63c0.14,0.05,0.27,0.11,0.39,0.17
		c0.25,0.13,0.46,0.29,0.64,0.46c1.18,1.14,1.21,3.07,2.48,4.01c0.19,0.14,0.38,0.28,0.58,0.42c0.19,0.14,0.39,0.27,0.59,0.39
		c0.42,0.27,0.85,0.5,1.3,0.65c0.13,0.06,0.27,0.1,0.4,0.13c0.03,0.02,0.06,0.03,0.09,0.03c0.16,0.05,0.32,0.08,0.48,0.1
		c0,0,0.01,0,0.02,0c0.17,0.03,0.35,0.04,0.54,0.04c0.08,0,0.16,0,0.24-0.01c0.05,0,0.11-0.01,0.17-0.02h0.1
		c0.05,0,0.1-0.01,0.15-0.02c0.04-0.01,0.09-0.02,0.13-0.03c0.02,0,0.04,0,0.06-0.01c0.02,0,0.04-0.01,0.06-0.02
		c0.06-0.01,0.12-0.03,0.19-0.05c0.13-0.03,0.26-0.07,0.39-0.12C731.34,385.28,731.74,384.18,731.67,382.9z"/>
	<path class="st1" d="M695.67,486.27c31.26-4.18,55.51-19.95,72.71-46.32c14.89-22.81,20.17-47.8,15.28-74.75"/>
	<path class="st1" d="M783.67,365.2c-5.05-27.76-19.46-49.84-41.97-66.21c-19.73-14.34-42.33-20.52-66.69-19.04
		c-4.76,0.29-10.19-0.15-14.26,3.67c0.83,0.04,1.68,0.22,2.48,0.1c13-1.98,25.9-1.45,38.67,1.66c16.83,4.1,31.23,12.57,43.7,24.49
		c2.29-0.24,3.33,0.77,3.07,3.08c1.64,1.65,3.29,3.29,4.94,4.95c1.04,0.04,1.76,0.32,2.24,0.79c0.1,0.1,0.19,0.2,0.28,0.32
		c0.08,0.12,0.15,0.25,0.21,0.38c0.32,0.68,0.38,1.55,0.32,2.52c5.86,2.25,7.31,8.19,10.33,12.74c6.43,9.69,10.65,20.79,11.95,31.94
		c1.72,14.86,2.26,30.04-2.73,44.94c-5.44,16.24-13.54,30.52-25.73,42.51c-11.02,10.85-23.75,18.66-38.5,23.42
		c-11.03,3.56-22.23,5.18-33.73,4.78c-20.43-0.7-38.83-7.31-55.26-19.48c-1.24-0.92-2.26-1.99-2.2-3.69
		c-0.3-0.29-0.59-0.59-0.88-0.88c-1.53,0.05-3.03,0.06-3.11-2.08c-1.98-1.98-3.95-3.96-5.93-5.94c-0.37-0.27-0.73-0.54-1.1-0.81
		c-3.08-3.62-6.35-7.11-9.2-10.91c-17.39-23.14-23.12-49.05-17.95-77.46c-1.81,0.11-1.72,1.75-2.31,2.86
		c-0.1,0.19-0.23,0.45-0.36,0.72c0.58,4.15,0.05,8.41-0.46,12.62c-0.82,6.84-0.57,13.61-0.31,20.49c0.05,1.35,0.09,2.69,0.13,4.04
		c0.95,1.21,1.16,3.4,1.59,5.06c5.31,20.78,15,38.87,31.19,53.39c23.99,21.52,51.81,30.38,83.59,26.12"/>
	<path class="st2" d="M756.34,319.4c-0.12-0.27-0.29-0.5-0.49-0.7C756.05,318.9,756.22,319.14,756.34,319.4z"/>
	<path class="st2" d="M756.66,321.92c0,0.01,0,0.01,0,0.02c0,0-0.01,0-0.01-0.01s0-0.01-0.01-0.02
		C756.65,321.91,756.65,321.92,756.66,321.92z"/>
	<path class="st1" d="M658.8,283.9c-0.44,0.92-1.22,0.88-2.05,0.73C657.03,283.23,657.48,282.33,658.8,283.9z"/>
	<path class="st1" d="M776.21,411.54c-5.44,16.24-13.54,30.52-25.73,42.51c-11.02,10.85-23.75,18.66-38.5,23.42
		c-11.03,3.56-22.23,5.18-33.73,4.78c-20.43-0.7-38.83-7.31-55.26-19.48c-1.24-0.92-2.26-1.99-2.2-3.69c1,0.44,2,0.88,2.99,1.34
		c7.51,5.15,15.61,9.05,24.25,11.86c15.8,5.14,31.89,6.09,48.15,2.95c13.32-2.57,25.94-7.05,36.63-15.87
		c2.36-0.78,4.46-1.96,5.96-4.03c0.31-0.3,0.61-0.59,0.91-0.89c3.7-2.68,7.62-5.13,9.88-9.35c0.38-0.57,0.75-1.14,1.13-1.72
		c2.38-1.47,3.9-3.65,5.11-6.1c8.52-10.44,13.58-22.56,16.53-35.54c5.26-23.12,2.31-45.36-8.07-66.6c-2.22-4.55-5.06-8.79-7.6-13.18
		c0-0.01,0-0.01,0-0.02c5.86,2.25,7.31,8.19,10.33,12.74c6.43,9.69,10.65,20.79,11.95,31.94
		C780.66,381.45,781.2,396.64,776.21,411.54z"/>
	<path class="st3" d="M756.66,321.92c0,0.01,0,0.01,0,0.02c0,0-0.01,0-0.01-0.01s0-0.01-0.01-0.02
		C756.65,321.91,756.65,321.92,756.66,321.92z"/>
	<path class="st4" d="M755.8,437.27c-1.21,2.45-2.73,4.64-5.11,6.1c-15.9-1.91-31.14-6.17-45.87-12.43
		c5.97-1.53,11.61-3.81,17.74-3.17c-0.05-1.08-0.43-1.47-0.89-1.6c-0.43-0.11-0.94,0-1.35-0.02c-5.14-0.25-10.05,0.85-14.86,2.62
		c-2.76,1-5.35,1.38-8.48,0.5c-11.26-3.11-22.73-2.72-34.25-1.22c-5.54,0.72-10.46,3.57-16.01,4.06h-0.01
		c1.54-4.41,6.74-4.62,9.15-8.04c0.27-0.31,0.55-0.63,0.82-0.95c0.34-0.3,0.69-0.6,1.03-0.9c0.14-0.04,0.28-0.07,0.42-0.09
		c0.14-0.02,0.28-0.03,0.43-0.03c7.26-0.82,13.68-5.04,21.13-5.17c1.51-0.03,3.42-1.78,4.39,0.13c0.93,1.86-2.52,1.77-2.59,4.31
		c7.1-2.67,14.21-3.55,21.5-3.27c5.87,0.23,11.44,1.36,16.73,4.02c1.09,0.55,2.19,1.09,3.29,1.63c1.3,0.63,2.61,1.24,3.93,1.85
		c0.58,0.27,1.16,0.54,1.74,0.79c0.01,0.01,0.03,0.02,0.05,0.02c0.61,0.28,1.22,0.56,1.84,0.82c0.04,0.02,0.07,0.04,0.11,0.05
		c0.56,0.25,1.13,0.5,1.7,0.73c0.67,0.3,1.35,0.58,2.03,0.86c0.58,0.25,1.17,0.49,1.75,0.72c1.06,0.44,2.12,0.86,3.19,1.28
		c1.19,0.47,2.39,0.93,3.6,1.38c0.29,0.11,0.58,0.22,0.87,0.33c0.74,0.27,1.49,0.55,2.24,0.81c0.02,0.01,0.04,0.02,0.06,0.02
		c0.54,0.2,1.08,0.39,1.62,0.58c0.04,0.01,0.08,0.03,0.11,0.04c1.17,0.41,2.34,0.81,3.51,1.2
		C752.89,435.74,754.65,435.86,755.8,437.27z"/>
	<path class="st5" d="M658.56,422.08c-0.29,0.01-0.57,0.05-0.85,0.12c-0.34,0.3-0.69,0.6-1.03,0.91c0,0,0.05-0.05,0.05-0.05
		c-0.29,0.34-0.58,0.67-0.87,1.01c-2.41,3.42-7.61,3.63-9.15,8.04c0,0,0.01,0,0.01,0c-0.96-0.15-1.63,0.21-1.98,1.13
		c-0.41,1.03-2.09,0.72-2.19,2.08c-0.98-1.01-1.96-2.01-2.95-3.02c0.35-7.07,5.38-11.91,8.43-17.74c-5.79,4.04-9.28,9.46-10.16,16.5
		c-0.41,0.07-0.81,0.14-1.22,0.22c-0.51-1.48-1.71-2.33-2.9-3.19c0.28-4.12-0.37-8.32,1.1-12.34c0.64-1.76,1.52-4.01,3.59-2.94
		c3.22,1.68,2.91-0.82,3.28-2.3c0.39-1.58,0.2-3.23,0.77-4.88c1.85-5.37,2.2-5.58,6.48-1.77c1.29,1.15,1.94,0.58,2.87-0.26
		c1.72-1.55,3.04-3.53,5.21-4.58c1.57-0.76,3.16-1.39,4.65-0.15c1.57,1.3,1.13,2.93,0.31,4.52c-0.9,1.75-1.77,3.51-2.68,5.31
		c1.87,0.88,4.74-0.39,5.29,2.75c0.46,2.66-0.16,4.86-2.33,6.66C660.92,419.26,659.8,420.75,658.56,422.08z M643.14,414.66
		c0.87-3.41,1.45-6.03,2.24-8.59c0.27-0.87,0.64-1.65-0.42-1.91c-1.12-0.28-1.01,0.8-1.33,1.54
		C642.5,408.35,642.41,411.02,643.14,414.66z M651.01,412.76c-0.03-0.13-0.07-0.25-0.1-0.38c-0.15,0.04-0.31,0.06-0.43,0.14
		c-0.04,0.03,0.06,0.24,0.09,0.36C650.72,412.84,650.86,412.8,651.01,412.76z"/>
	<path class="st6" d="M699.78,369.54c0.47-2.27,2.3-1.41,3.64-1.54c3.38-0.33,2.39-1.84,1.04-3.68c2.22-1,4.66,1.12,6.98-0.17
		c0.28-0.16,1.56,0.66,1.52,0.89c-0.59,3.66,2.07,2.82,4,3c0.93,0.09,1.6,0.49,1.59,1.51c-0.01,0.73-0.47,1.38-1.2,1.3
		c-6.29-0.66-4.61,4.59-5.53,7.7c-0.5,1.69-0.15,3.65-0.07,5.48c0.04,0.91-0.44,2.22,0.84,2.56c1.18,0.32,1.82-0.67,2.02-1.68
		c0.29-1.44,1.17-2.3,2.41-1.65c4.49,2.35,3.27-1.75,4.07-3.64c2.25,0.83,1.95,3.49,3.5,4.65c1.6,1.2,3.35,2.3,5.49,1.48
		c1.24-0.47,1.66-1.57,1.57-2.85c-0.14-2.12-1.47-3.16-3.32-3.88c-2-0.78-3.89-1.84-5.88-2.63c-2.2-0.87-3.3-2.37-2.54-4.66
		c0.69-2.08,1.68-3.99,4.52-3.77c2.81,0.21,5.87-0.49,8.41,0.39c2.09,0.72,3.27-0.93,5.48-0.71c-0.74,2.85-1.42,5.43-2.28,8.72
		c-1.67-2.07-2.79-3.85-4.3-5.21c-1.22-1.11-2.97-1.7-4.63-0.77c-1.39,0.77-2.17,2.27-2.11,3.72c0.08,1.96,2.12,1.76,3.43,2.26
		c2.77,1.06,5.67,1.88,7.97,3.9c1.4,1.23,2.89,2.61,2.12,4.67c-0.77,2.07-2.21,3.84-4.61,4.02c-1.96,0.14-4.25,0.42-5.89-0.38
		c-3.81-1.88-7.05-0.43-10.35,0.93c-8.23,3.39-11.99,0.96-11.95-7.92c0.01-1.48,0.13-2.99,0.45-4.44c1.47-6.7,1.08-7.24-5.57-7.04
		C700.34,369.91,700.06,369.73,699.78,369.54z"/>
	<path class="st6" d="M675.25,329.15c-1.27,5.03-3.54,9.66-2.15,15.19c7.89-6.57,16.27-11.69,27.21-8.35
		c-0.15,0.79-0.45,2.02-0.59,3.28c-0.12,1.11-0.59,2.1-1.59,2.31c-1.44,0.3-1.25-1.15-1.6-1.99c-0.57-1.39-1.97-1.72-3.13-2.29
		c-1.42-0.7-2.71-0.27-3.32,1.16c-0.63,1.47-0.65,2.99,1.24,3.7c1.69,0.64,3.47,1.09,5.1,1.86c2.47,1.16,5.05,2.72,4.08,5.93
		c-0.94,3.13-3.83,3.79-6.8,3.45c-1.45-0.16-2.88-0.67-4.28-1.12c-1.24-0.4-3.01-0.3-2.99,0.77c0.08,5.15-4.13,3.68-7.12,5.28
		c1.15-4.31-1.86-6.35-3.44-9.04c-0.49-0.83-0.74-2.07-2-1.64c-1.08,0.37-1.42,1.65-1.05,2.53c2.55,5.96-2.42,4.64-5.3,5.91
		c2.26-7.33,0.97-14.41,1.16-21.4C668.84,328.72,668.61,328.72,675.25,329.15z M686.16,345.55c1.62,0.59,1.3,1.83,1.77,2.62
		c1.09,1.85,2.84,2.83,4.96,2.54c1.25-0.17,1.73-1.33,1.82-2.64c0.16-2.42-1.65-3.16-3.32-3.76c-2.19-0.78-4.41-1.41-6.01-3.24
		c-1.42-1.64-2.66-0.9-3.67,0.42c-1.26,1.65-5.06,1.75-3.57,5.03c1.11,2.44,2.1,6.22,5.02,6.07c3.47-0.18,2.19-4.1,2.73-6.5
		C685.92,345.94,686.03,345.81,686.16,345.55z"/>
	<path class="st6" d="M703.61,384.92c1.51,0.99,1.32,2.17,0.26,3.31c-0.93,1-2.18,1.07-3.12,0.19c-1.84-1.74-3.25-1.37-5.18,0.06
		c-3.59,2.68-7.68,1.97-11.28,0.15c-2.53-1.28-4.22-3.62-2.91-7.01c1.28-3.32,5.91-6.2,9.45-5.46c1.1,0.23,2.12,0.85,3.45,1.4
		c0.69-2.09,0.74-4.07,0.13-5.86c-0.52-1.55-2.06-2.6-3.38-0.88c-3.1,4.06-2.99,4.15-7.19,3.99c0.35-7.1,3.49-9.15,11.92-7.82
		c0.65,0.85,1.3,1.69,1.95,2.54l0.07,0.39c0,0,0.39,0.07,0.39,0.07c1.09,3.43,1.91,6.91,1.54,10.55c-0.17,1.67,0.37,2.89,1.96,3.56
		c0,0-0.01,0-0.01,0C701.97,385.21,702.81,385.03,703.61,384.92z M691.09,379.07c-1.8,0.76-4.2,0.97-4.31,3.85
		c-0.07,1.75,0.71,2.95,2.52,3.04c2.54,0.12,4.06-1.24,4.36-3.74C693.86,380.52,693.08,379.34,691.09,379.07z"/>
	<path class="st7" d="M715.66,408.08c5.76-2.81,11.56-5.54,17.26-8.47c3.57-1.84,7.31-1.63,11.1-1.54c1.22,0.03,1.76,0.7,1.79,1.87
		c-6.55-2.18-11.92,0.57-17.1,4.13c-1.23,0.27-2.63,0.34-2.59,2.25c1.49-0.14,2.65-0.48,2.61-2.24c5.67-0.95,10.99-3.83,16.97-3.01
		c-0.15,0.69-0.05,1.3,0.66,1.59c0.16,0.07,0.44-0.18,0.67-0.28c-0.44-0.44-0.87-0.88-1.31-1.33c0.04-0.36,0.08-0.73,0.12-1.09
		c5.4,2.41,7.42,7.97,5,14.86c-1.18,3.38-1.27,8.33-7.17,7.04c-1.26-2.36-0.16-4.3,0.9-6.39c1.73-3.42,2.15-7.06-0.39-10.24
		c-2.66-3.34-5.9-1.83-8.98-0.46c-6.17,2.75-12.35,5.5-18.52,8.25C716.33,411.38,716,409.73,715.66,408.08z"/>
	<path class="st6" d="M628.65,386.93c2.43-0.2,2.01-5.79,6.24-3.09c1.57,1,1.76,1.35,1,2.86c-1.62,3.22-4.24,4.43-7.67,4.36
		c-3.52-0.07-5.56-1.97-6.06-5.3c-0.37-2.44-0.59-5-0.25-7.42c1.04-7.41,1.16-7.4-5.76-9.06c0.49-1.94,2.1-1.02,3.21-1.28
		c0.77-0.18,1.64,0.08,2.14-0.86c2-3.72,4.58-3.69,8.09,0.02c0.32,0.34,0.8,0.54,1.24,0.75c1.17,0.57,3.74-0.81,3.46,1.45
		c-0.28,2.3-2.94,1.44-4.64,1.76c-0.48,0.04-1.34-0.04-1.39,0.12c-1.41,4.99-1.93,10.08-1.27,15.24
		C627.02,386.69,628.08,386.78,628.65,386.93z"/>
	<path class="st6" d="M646.84,380.85c-0.15-1.75,2.88-2.84,1.18-4.92c-0.76-0.94-1.62-0.77-2.63-0.22c-2.23,1.21-2.88,3.2-2.55,5.43
		c0.34,2.28,0.73,4.53,1.04,6.82c0.43,3.26-1.01,3.85-3.7,4.14c-3.49,0.38-2.37-1.86-2.45-3.64c-0.22-5.1,0.88-10.32-1.04-15.28
		c-0.7-1.79,0.26-2.53,1.56-2.85c1.5-0.37,3.89-1.26,4.25,0.86c0.7,4.2,2.54,1.12,3.47,0.63c1.88-1,3.47-2.78,5.8-1.21
		c2.51,1.7,3.44,4.34,3.92,7.16c0.18,1.03-0.16,2.19-1.46,2.12C651.7,379.75,649.5,381.65,646.84,380.85z"/>
	<path class="st6" d="M678.7,382.27c-5.22,5.02-10.33,5.99-16.17,3.71c-3.52-1.38-5.4-4.29-5.53-7.57
		c-0.14-3.44,2.12-5.96,5.58-7.43c6.07-2.58,13.12-0.63,16.06,4.79c1.13,2.07,1.18,3.39-1.81,3.26c-3.16-0.13-6.32-0.07-9.48-0.01
		c-1.56,0.03-3.62-0.51-3.53,2.19c0.09,2.51,1.88,2.62,3.84,2.85c2.98,0.34,4.89-3.01,7.97-2.07
		C676.36,382.22,677.18,382.15,678.7,382.27z M669.36,377.11c1.33-0.67,3.87,1.1,3.9-1.49c0.02-1.86-1.23-3.7-3.82-3.63
		c-2.45,0.06-4.57,1.03-4.43,3.49C665.18,378.26,667.93,376.39,669.36,377.11z"/>
	<path class="st8" d="M617.92,452.2c0-4.01,0-8.02,0-12.03c1.33-0.18,2.92,0.51,3.82-1.14l-0.06,0.07c3.4,0.02,6.27-1.58,9.18-3.04
		c2.32,3.03,3.64,6.54,4.74,10.14C629.9,448.81,624.57,452.47,617.92,452.2z"/>
	<path class="st6" d="M723.19,354.95c-4.91-0.01-9.32-3.89-9.46-8.32c-0.14-4.57,3.52-7.77,8.82-7.72
		c5.56,0.05,10.24,4.11,10.06,8.72C732.43,352.19,728.85,354.97,723.19,354.95z M725.72,345.98c-0.22-1.82,0.71-4.95-2.42-4.81
		c-3.34,0.15-3.43,3.38-3.58,6.06c-0.13,2.25,0.12,5.15,2.59,5.04C725.57,352.13,725.76,348.9,725.72,345.98z"/>
	<path class="st6" d="M613.76,351.16c2.76,0.19,2.18-5.18,5.89-2.46c1.12,0.82,1.83,1.01,1.05,2.33c-1.68,2.86-4.21,4.28-7.47,3.82
		c-3.1-0.44-4.46-2.57-4.45-5.63c0-2-0.05-4.01,0.01-6.01c0.1-3.46,0.87-7.31-5.17-7.23c3.85,0.54,3.69-3.6,6.53-4.21
		c4.04-0.88,5.24,4.13,8.96,3.66c0.67-0.09,0.18,1.72-0.46,1.86c-6.43,1.42-4.49,6.58-4.85,10.7
		C613.69,348.98,613.76,349.97,613.76,351.16z"/>
	<path class="st9" d="M637.86,456.2c-4.07,3.5-9.07,3.87-14.08,4.21c-0.99-0.45-1.99-0.89-2.99-1.34c-0.3-0.29-0.59-0.59-0.88-0.88
		c-0.72-0.71-1.45-1.44-2.17-2.15c0.06-1.27,0.12-2.56,0.18-3.83c6.66,0.27,11.99-3.39,17.67-5.99c0.29,1.69-0.19,3.58,1.35,4.93
		C637.23,452.82,636.1,454.78,637.86,456.2z"/>
	<path class="st6" d="M667.32,341.85c-3.38-0.15-6.96,1.71-7.45-3.47c-0.11-1.19-1.2-1.43-2.28-1.43c-1.74,0-2.89,1.08-3.47,2.45
		c-1.18,2.79-1.22,5.79-0.2,8.61c1.09,3.03,4.36,3.23,6.57,0.28c1.21-1.62,2.28-3.38,4.21-1.64c2.31,2.08-0.42,3.23-1.54,4.24
		c-3.86,3.44-9.8,2.74-13.28-1.34c-3.22-3.79-2.84-9.71,0.84-13c3.73-3.34,9.16-3.07,12.84,0.72
		C664.8,338.55,665.83,340.02,667.32,341.85z"/>
	<path class="st6" d="M630.69,345.75c-0.83-1.38,2.07-2.44,0.32-3.94c-0.87-0.74-1.52-0.14-2.25,0.13c-1.68,0.62-2.18,1.98-1.98,3.6
		c0.24,1.95,0.51,3.92,0.99,5.82c0.96,3.78-1.49,4.26-4.18,4.51c-0.89,0.08-1.87-0.41-1.48-1.41c1.88-4.82-0.4-9.47-0.44-14.21
		c-0.01-1.07-1-2.38,0.57-2.99c1.37-0.53,3.51-1.02,4.06,0.36c0.92,2.31,2.05,1.76,3.22,0.81c1.88-1.51,3.71-2.37,5.71-0.46
		c1.89,1.8,3.3,4.18,2.23,6.67c-1.07,2.51-3.81,0.88-5.79,1.24C631.38,345.96,631.04,345.81,630.69,345.75z"/>
	<path class="st6" d="M746.65,346.02c-0.67-0.86-4.89,1.6-2.23-2.68c0.46-0.74-0.27-1.87-1.12-1.81c-1.68,0.13-3.12,0.81-3.54,2.81
		c-0.58,2.75,0.77,5.2,1.09,7.81c0.26,2.1-0.38,2.86-2.16,3.34c-2.43,0.65-4.23,1.19-3.14-2.72c1.18-4.24-0.55-8.52-1-12.77
		c-0.46-4.37,3.49-3.65,4.12-2.7c2.1,3.17,3.39,1.35,5.26,0.12c1.51-0.99,3.19-0.69,4.49,0.74c1.63,1.79,2.7,3.84,2.17,6.32
		C750.11,346.65,748.19,345.64,746.65,346.02z"/>
	<path class="st10" d="M649.57,328.9c-0.77-1.19-1.28-1.7-1.44-2.3c-0.96-3.63-7.38-5.09-5.92-7.75c1.4-2.55,5.11-4.7,7.51-8.08
		c2.35,3.58,4.37,7.06,9.3,8.58C654.5,321.55,651.81,324.51,649.57,328.9z"/>
	<path class="st10" d="M703.89,320.64c3.76-2.29,6.98-4.5,8.91-8.75c2.51,3.74,5.07,6.63,9.03,8.79c-3.72,2.42-6.96,4.79-8.79,9.22
		C710.69,325.76,707.85,322.9,703.89,320.64z"/>
	<path class="st9" d="M716.66,413.04c6.17-2.75,12.35-5.5,18.52-8.25c3.08-1.37,6.32-2.88,8.98,0.46c2.54,3.18,2.12,6.82,0.39,10.24
		c-1.06,2.1-2.16,4.04-0.9,6.39c-2.75-0.92-2.07-2.84-1.43-4.79c0.61-1.85,0.93-3.85,1.81-5.56c1.24-2.4-0.58-3.58-1.55-5.16
		c-1.32-2.13-2.91-0.64-4.32-0.26c-6.36,1.72-11.77,5.57-17.79,8.05c-5.05,2.08-10.19,4.09-14.77-1.04
		c1.15,0.01,2.31,0.02,3.46,0.03C711.62,414.97,714.15,414.41,716.66,413.04z"/>
	<path class="st10" d="M612.14,412.29c2.47-1.43,4.32-3.47,6.61-6.91c-0.26,4.63,6.91,4.54,4.07,8.43
		C619.13,418.88,618.48,418.41,612.14,412.29z"/>
	<path class="st10" d="M690.43,407.08c-2.28,2.34-4.65,3.9-6.76,7.8c0.35-4.85-6.82-4.16-4.01-9.06
		C684.2,397.95,686.68,405.94,690.43,407.08z"/>
	<path class="st11" d="M621.73,439.03c-0.9,1.65-2.49,0.95-3.82,1.14c0.92-5.03,0.49-10.63,5.77-13.83
		c0.07,0.75,0.22,1.45,1.01,1.79c1.31,2.06,3.02,3.72,5.03,5.08c0,0-0.03-0.03-0.03-0.03c-0.17,1.18,0.63,1.98,1.14,2.88
		c-2.91,1.47-5.78,3.06-9.18,3.04c0.57-1.05,1.26-1.93,2.6-1.94c1.86-0.02,1.81-1.64,1.37-2.45c-0.73-1.34-1.86-2.71-3.17-3.42
		c-1.45-0.78-1.92,1.04-2.2,1.94C619.6,435.36,618.65,437.77,621.73,439.03z"/>
	<path class="st6" d="M639.44,339.11c4.02-0.44,7.22-0.6,5.39,4.87c-0.45,1.34,0.07,2.97-0.07,4.45c-0.1,1.12,1.95,2.55-0.24,3.31
		c-1.34,0.46-3.18,0.93-4.23,0.35c-1.17-0.63-0.11-2.32,0.07-3.6C640.8,345.47,641.6,342.32,639.44,339.11z"/>
	<path class="st10" d="M702.71,404.03c0.78-3.17,1.34-7.54,5.65-6.37c4.74,1.28,1.7,5.4,1.39,8.38
		C707.18,406.12,704.8,405.6,702.71,404.03z"/>
	<path class="st12" d="M624.7,428.13c-0.79-0.34-0.94-1.04-1.01-1.79c3.54-0.5,6.94-0.15,10.08,1.74c1.19,0.86,2.39,1.71,2.9,3.19
		c-0.85,1.49-1.87,2.75-3.77,2.83c-1.19,0.13-1.65-2.28-3.19-0.92c0,0,0.03,0.03,0.03,0.03C630.17,429.4,628.31,427.89,624.7,428.13
		z"/>
	<path class="st7" d="M702.71,404.03c2.09,1.56,4.48,2.08,7.03,2.01c0.63,1.39,1.64,2.4,3.02,3.03c0.02,2.5-1.28,3.8-3.7,4.08
		c-1.15-0.01-2.31-0.02-3.46-0.03c0,0,0.09,0.04,0.09,0.04c0.24-2.58-0.59-4.65-2.84-6.05C702.8,406.09,702.75,405.06,702.71,404.03
		z"/>
	<path class="st9" d="M753.7,380.38c-1.47-2.24-2.6-4.05-5.44-5.06c2.89-0.5,3.67-4.42,6.42-3.03
		C760.15,375.06,755.2,377.38,753.7,380.38z"/>
	<path class="st9" d="M608.63,371.11c1.52,1.91,2.85,3.5,4.95,4.7c-2.79-0.75-2.06,5.43-6.2,2.56
		C602.09,374.71,608.36,373.57,608.63,371.11z"/>
	<path class="st9" d="M690.64,316.55c1.94-3.09-6.9-1.92-1.93-6.47c4.27-3.91,4.51,1.07,7.02,1.9
		C693.65,313.38,692.07,314.66,690.64,316.55z"/>
	<path class="st9" d="M671.41,406.41c-1.01-2.75-2.81-3.87-4.63-5.08c2.82-4.05,5.7-4.27,8.9-0.29
		C674.46,402.75,671.73,403.25,671.41,406.41z"/>
	<path class="st9" d="M628.65,386.93c-0.58-0.15-1.63-0.24-1.66-0.46c-0.66-5.16-0.13-10.25,1.27-15.24
		c0.04-0.16,0.91-0.09,1.39-0.12C629.32,376.38,628.99,381.65,628.65,386.93z"/>
	<path class="st10" d="M709.06,413.15c2.41-0.28,3.71-1.58,3.7-4.08c0.97-0.33,1.94-0.66,2.91-0.99c0.33,1.65,0.66,3.3,1,4.96
		C714.15,414.41,711.62,414.97,709.06,413.15z"/>
	<path class="st9" d="M701.68,384.11c-1.59-0.67-2.13-1.89-1.96-3.56c0.37-3.64-0.46-7.11-1.54-10.55c0.38-0.68,0.92-0.84,1.61-0.46
		c0.28,0.19,0.56,0.38,0.84,0.57C701.26,374.75,702.29,379.37,701.68,384.11z"/>
	<path class="st9" d="M702.85,407.11c2.25,1.4,3.09,3.47,2.84,6.05C703.45,411.76,702.59,409.7,702.85,407.11z"/>
	<path class="st3" d="M756.66,321.92c0,0.01,0,0.01,0,0.02c0,0-0.01,0-0.01-0.01c-1.54-0.93-2.93-1.99-3.04-4.03
		c1.04,0.04,1.76,0.32,2.24,0.79c0.1,0.1,0.19,0.2,0.28,0.32c0.08,0.12,0.15,0.25,0.21,0.38
		C756.66,320.08,756.72,320.94,756.66,321.92z"/>
	<path class="st3" d="M748.67,312.95c-1.31-0.74-2.33-1.77-3.07-3.08C747.89,309.63,748.92,310.64,748.67,312.95z"/>
	<path class="st1" d="M619.91,458.18c-1.53,0.05-3.03,0.06-3.11-2.08c0.32,0.06,0.63,0.03,0.94-0.07
		C618.46,456.75,619.18,457.47,619.91,458.18z"/>
	<path class="st9" d="M697.72,369.55c-0.65-0.85-1.3-1.69-1.95-2.54C697.29,367.18,698.84,367.33,697.72,369.55z"/>
	<path class="st9" d="M703.61,384.92c-0.81,0.1-1.64,0.29-1.94-0.82C702.93,382.92,703.15,384.22,703.61,384.92z"/>
	<path class="st0" d="M732.8,459.35c-10.69,8.82-23.31,13.3-36.63,15.87c-16.26,3.14-32.35,2.19-48.15-2.95
		c-8.64-2.81-16.74-6.72-24.25-11.86c5.01-0.33,10.01-0.7,14.08-4.21c5.69-2.55,10.76-5.58,10.01-13.09
		c12.61,3.62,24.98,7.86,36.82,13.58c0.83,0.4,1.78,1.36,2.66,0.48c0.77-0.76,0.38-1.9-0.06-2.81c-1.4-2.86-2.84-5.7-4.26-8.55
		c0.26-0.38,0.52-0.77,0.78-1.16C698.64,454.95,714.88,460.21,732.8,459.35z"/>
	<path class="st4" d="M721.23,443.04c-2.64-2.67-5.52-4.13-9.18-5.09c-7.05-1.86-13.78-4.89-21.01-6.13
		c-5.85-1-11.87-1.55-17.68-1.43c-6.05,0.12-12.37,0.71-18.28,3.13c6.69,3.28,13.66,6.02,19.34,11.02c0.26,0.47,1.39,0.68,0.73,1.37
		c-0.48,0.5-1.2,0.1-1.46-0.66c-5.45-2.75-11.33-4.9-16.22-8.43c-4.03-2.92-7.22-2.6-11.03-0.62c-0.84,0.43-1.78,0.69-2.68,1.03
		c1.37,1.96,2.74,3.92,4.11,5.88c12.61,3.62,24.98,7.86,36.82,13.58c0.83,0.4,1.78,1.36,2.66,0.48c0.77-0.76,0.38-1.9-0.06-2.81
		c-1.4-2.86-2.84-5.7-4.26-8.55c0.26-0.38,0.52-0.77,0.78-1.16c14.83,10.31,31.07,15.57,49,14.71c2.36-0.78,4.46-1.96,5.96-4.03
		C732.03,452.51,726.3,448.2,721.23,443.04z M682.08,443.72c-0.12,0.07-0.24,0.19-0.36,0.18c-0.11-0.01-0.22-0.16-0.32-0.25
		c0.23,0.02,0.46,0.04,0.69,0.06C682.09,443.71,682.08,443.71,682.08,443.72z M684.62,434.6c6.77,3.67,12.43,9.17,19.51,12.35
		C695.97,445.57,690.05,440.49,684.62,434.6z"/>
	<path class="st9" d="M749.55,445.08c-8.81-0.99-17.68-1.48-26.41-3.58c4.67,5.61,10.68,9.16,16.53,12.93
		c-0.3,0.3-0.6,0.59-0.91,0.89c-6.74-2.81-12.47-7.13-17.54-12.29c-2.64-2.67-5.52-4.13-9.18-5.09c-7.05-1.86-13.78-4.89-21.01-6.13
		c-5.85-1-11.87-1.55-17.68-1.43c-6.05,0.12-12.37,0.71-18.28,3.13c6.69,3.28,13.66,6.02,19.34,11.02c-0.24,0.23-0.49,0.46-0.73,0.7
		c-5.45-2.75-11.33-4.9-16.22-8.43c-4.03-2.92-7.22-2.6-11.03-0.62c-0.84,0.43-1.78,0.69-2.68,1.03c-0.31-0.34-0.62-0.69-0.93-1.03
		c-0.05-0.3-0.14-0.59-0.27-0.87c0.09-1.36,1.78-1.04,2.18-2.08c0.77-0.19,1.82,0.12,1.98-1.13c5.55-0.48,10.47-3.33,16.01-4.06
		c11.52-1.5,22.99-1.89,34.25,1.22c3.13,0.87,5.72,0.5,8.48-0.5c4.81-1.77,9.72-2.87,14.86-2.62c0.41,0.02,0.92-0.09,1.35,0.02
		c0.46,0.13,0.84,0.51,0.89,1.6c-6.13-0.64-11.77,1.65-17.74,3.17c14.73,6.25,29.97,10.52,45.87,12.43
		C750.3,443.94,749.93,444.51,749.55,445.08z"/>
	<path class="st4" d="M749.55,445.08c-2.26,4.22-6.18,6.67-9.88,9.35c-5.85-3.76-11.86-7.32-16.53-12.93
		C731.88,443.61,740.74,444.09,749.55,445.08z"/>
	<path class="st0" d="M656.67,423.11c0.34-0.3,0.69-0.61,1.03-0.91C657.36,422.51,657.02,422.81,656.67,423.11z"/>
	<path class="st0" d="M655.86,424.07c0.29-0.34,0.58-0.67,0.87-1.01C656.44,423.39,656.15,423.73,655.86,424.07z"/>
	<path class="st3" d="M642.55,435.32c0.13,0.28,0.23,0.57,0.28,0.87c-0.79,3.52-3.18,5.82-5.91,7.87c-1.34-3.32-2.68-6.64-4.03-9.96
		c1.9-0.07,2.92-1.34,3.77-2.83c0.4-0.07,0.81-0.14,1.21-0.22c0.58,0.41,1.15,0.83,1.73,1.24
		C640.59,433.31,641.57,434.31,642.55,435.32z"/>
	<path class="st13" d="M639.61,432.3c-0.58-0.41-1.15-0.83-1.73-1.24c0.88-7.04,4.37-12.46,10.16-16.5
		C644.98,420.39,639.96,425.22,639.61,432.3z"/>
	<path class="st9" d="M643.14,414.66c-0.73-3.64-0.64-6.31,0.49-8.96c0.31-0.73,0.21-1.81,1.33-1.54c1.06,0.26,0.69,1.04,0.42,1.91
		C644.59,408.63,644.01,411.25,643.14,414.66z"/>
	<path class="st4" d="M646.71,432.11c-0.16,1.26-1.21,0.94-1.98,1.13C645.09,432.31,645.76,431.96,646.71,432.11z"/>
	<path class="st13" d="M651.01,412.76c-0.15,0.04-0.29,0.09-0.44,0.13c-0.03-0.13-0.13-0.33-0.09-0.36c0.11-0.09,0.28-0.1,0.43-0.14
		C650.94,412.5,650.97,412.63,651.01,412.76z"/>
	<path class="st0" d="M686.16,345.55c-0.13,0.26-0.23,0.39-0.27,0.54c-0.55,2.4,0.74,6.32-2.73,6.5c-2.92,0.15-3.91-3.63-5.02-6.07
		c-1.5-3.28,2.3-3.38,3.57-5.03c1.01-1.32,2.25-2.05,3.67-0.42c1.6,1.84,3.82,2.47,6.01,3.24c1.68,0.59,3.48,1.33,3.32,3.76
		c-0.09,1.31-0.57,2.47-1.82,2.64c-2.12,0.29-3.87-0.69-4.96-2.54C687.46,347.38,687.78,346.15,686.16,345.55z"/>
	<path class="st0" d="M691.09,379.07c1.99,0.27,2.77,1.44,2.56,3.15c-0.3,2.51-1.81,3.86-4.36,3.74c-1.81-0.09-2.59-1.29-2.52-3.04
		C686.89,380.04,689.29,379.83,691.09,379.07z"/>
	<path class="st9" d="M728.71,404.07c5.18-3.56,10.55-6.31,17.1-4.13c0,0,0.02,0.03,0.02,0.03c-0.04,0.36-0.08,0.73-0.12,1.09
		l-0.02,0.01c-5.98-0.82-11.3,2.06-16.97,3.01L728.71,404.07z"/>
	<path class="st9" d="M728.72,404.09c0.04,1.76-1.12,2.1-2.61,2.24c-0.04-1.91,1.36-1.99,2.59-2.25
		C728.71,404.07,728.72,404.09,728.72,404.09z"/>
	<path class="st9" d="M745.71,401.07c0.44,0.44,0.87,0.88,1.31,1.33c-0.23,0.1-0.51,0.35-0.67,0.28c-0.71-0.29-0.81-0.91-0.66-1.59
		C745.69,401.08,745.71,401.07,745.71,401.07z"/>
	<path class="st0" d="M669.36,377.11c-1.44-0.72-4.19,1.14-4.35-1.64c-0.14-2.46,1.98-3.42,4.43-3.49c2.59-0.07,3.84,1.78,3.82,3.63
		C673.23,378.21,670.7,376.45,669.36,377.11z"/>
	<path class="st13" d="M632.89,434.1c1.34,3.32,2.68,6.64,4.03,9.96c-1.21,2.36,2.34,4.71,0.02,7.08c-1.54-1.34-1.06-3.24-1.35-4.93
		c-1.11-3.6-2.42-7.11-4.74-10.14c-0.52-0.91-1.32-1.7-1.14-2.88C631.25,431.82,631.71,434.23,632.89,434.1z"/>
	<path class="st0" d="M725.72,345.98c0.04,2.92-0.15,6.15-3.41,6.29c-2.47,0.11-2.71-2.79-2.59-5.04c0.15-2.68,0.25-5.91,3.58-6.06
		C726.43,341.03,725.5,344.16,725.72,345.98z"/>
	<path class="st10" d="M636.94,451.14c2.32-2.37-1.23-4.71-0.02-7.08c2.73-2.05,5.12-4.35,5.91-7.87c0.31,0.35,0.62,0.69,0.93,1.03
		c1.37,1.96,2.74,3.92,4.11,5.89c0.75,7.51-4.32,10.54-10.01,13.09C636.09,454.78,637.23,452.83,636.94,451.14z"/>
	<path class="st9" d="M621.73,439.03c-3.08-1.26-2.13-3.67-1.47-5.8c0.28-0.9,0.75-2.72,2.2-1.94c1.31,0.71,2.44,2.08,3.17,3.42
		c0.44,0.8,0.49,2.42-1.37,2.45c-1.34,0.02-2.03,0.9-2.6,1.94C621.67,439.11,621.73,439.03,621.73,439.03z"/>
	<path class="st13" d="M624.7,428.13c3.61-0.23,5.47,1.28,5.03,5.08C627.72,431.85,626.01,430.19,624.7,428.13z"/>
	<path class="st9" d="M704.14,446.95c-8.17-1.39-14.09-6.46-19.51-12.35C691.4,438.28,697.06,443.78,704.14,446.95z"/>
	<path class="st9" d="M674.41,444.54c0.26,0.47,1.39,0.68,0.73,1.36c-0.48,0.5-1.2,0.1-1.46-0.66
		C673.93,445.01,674.17,444.77,674.41,444.54z"/>
	<path class="st0" d="M682.09,443.71c-0.12,0.07-0.25,0.2-0.37,0.19c-0.12-0.01-0.22-0.16-0.32-0.25
		C681.62,443.67,681.85,443.69,682.09,443.71z"/>
</g>
</svg>
