<?xml version="1.0" encoding="utf-8"?>
<!-- Generator: Adobe Illustrator 26.2.1, SVG Export Plug-In . SVG Version: 6.00 Build 0)  -->
<svg version="1.1" id="Layer_1" xmlns="http://www.w3.org/2000/svg" xmlns:xlink="http://www.w3.org/1999/xlink" x="0px" y="0px"
	 viewBox="0 0 1366 768" style="enable-background:new 0 0 1366 768;" xml:space="preserve">
<style type="text/css">
	.st0{fill:#826CAF;}
	.st1{fill:#FFFFFF;}
	.st2{fill:#F07E2C;}
	.st3{fill:#CB5228;}
	.st4{fill:#6F5CA7;}
	.st5{fill:#5650A1;}
	.st6{fill:#0B4660;}
	.st7{fill:#032640;}
	.st8{fill:#FABC3C;}
	.st9{fill:#E3B7BB;}
	.st10{fill:#FEFEFE;}
	.st11{fill:#F17028;}
	.st12{fill:#1A9CB7;}
	.st13{fill:#271549;}
	.st14{fill:#05021B;}
</style>
<g>
	<path class="st0" d="M757.19,319.14c-2.86-3.7-6.48-6.64-9.2-10.41c-15.59-14.65-34.09-23.42-55.19-25.83
		c-8.41-0.95-17.16-1.32-25.69,0.57c-0.94,0.21-1.98,0-2.97-0.02c-0.65,0.09-1.3,0.18-1.95,0.27c-0.45,0.9-1.22,0.88-2.05,0.73
		c-39.76,10.22-64.49,35.31-74.13,75.35c0.15,0.82,0.18,1.61-0.73,2.06c-0.09,0.98-0.18,1.97-0.27,2.96
		c-1.1,6.37-1.04,12.83-0.79,19.24c0.77,19.56,7.08,37.24,18.55,53.07c1.44,1.98,2.85,3.97,4.27,5.95c1.3-2.51,4.05-2.29,6.16-3.27
		c-9.86-8.21-13.88-18.9-14.12-31.59c-0.16-8.34,1.24-16.33,3.16-24.33c-5.69-10.58-0.07-20.44,11.97-21.04
		c4.32-4.39,9.46-7.57,14.92-10.27c-3.76-6.99-2.5-11.86,4.41-17.36c-5.66-4.51-12.13-3.96-18.71-3.15
		c5.35-3.34,10.95-3.16,16.57-0.65c2.85,1.27,5.35,2.15,8.78,1.47c8.03-1.62,16.71,5.36,16.89,16.78c1.04-0.34,2.09-0.67,3.13-1
		c1.33-5.86,1.25-11.96,3.63-17.7c1.26-3.02,2.64-5.58,5.28-7.45c0.1-7.34,3.06-11.25,9.91-11.72c13.21-0.91,25.65,1.97,37.07,8.86
		c7.32-3.23,8.97-2.57,9.94,3.96c5.65,4.02,11.27,8.06,16.94,12.03c0.29,0.2,0.57,0.39,0.85,0.59c0.14,0.1,0.28,0.2,0.41,0.31
		c0.31,0.23,0.59,0.48,0.85,0.76c0.1,0.1,0.19,0.21,0.27,0.33c0.09,0.11,0.17,0.23,0.24,0.36c0.04,0.07,0.08,0.14,0.11,0.21
		c0.04,0.07,0.07,0.15,0.1,0.23c0.03,0.08,0.06,0.15,0.08,0.23c0.02,0.04,0.03,0.07,0.03,0.11c0.02,0.07,0.04,0.14,0.05,0.22
		c0.05,0.24,0.07,0.49,0.07,0.76h0.01v0.01c0.01,0,0.01,0.01,0.02,0.02c0.32,0.27,0.65,0.54,0.97,0.81
		c0.97,0.72,1.95,1.45,2.92,2.18c6.09,2.77,9.87,8.13,14.03,12.95c6.35,7.34,10.48,16.04,13.96,25.05
		C778.43,358.45,771.49,337.63,757.19,319.14z M615,346.49c1.72,1.92,2.63,4.19,5.3,4.75c-1.85,1.98-3.36,4.91-5.04,5.02
		c-1.72,0.11-2.68-3.48-6.06-4.25C612.22,350.41,613.81,348.9,615,346.49z M656.07,335.04c-1.49-4.1-3.78-6.4-8.69-6.45
		c-7.48-0.09-11.91-5.79-16.45-10.79c-1.73-1.91,0.31-2.27,1.58-2.04c2.89,0.51,5.71,1.33,8.57,2.02c0.17-0.23,0.36-0.45,0.58-0.65
		c-2.76-5.09-6.19-9.94-6.49-16.51c9.98,4.17,11.41,13.77,15.64,21.52c-0.64-6.04-1.66-11.89,2.22-17.67
		c4.58,6.25,6.53,13.26,4.8,20.11c-1.42,5.6-0.38,10.03,2.28,15.19C656.86,339.19,656.73,336.84,656.07,335.04z M711.77,314.59
		c-2.44-2.9-4.29-5.63-7.38-7.54c1.73-1.38,2.98-2.21,4.02-3.25c1.03-1.03,1.85-2.28,2.91-3.61c2.38,2.33,4.22,5.1,8.02,6.64
		C715.59,308.74,712.97,310.68,711.77,314.59z M737.5,327.36c-1.86-2.39-3.03-4.35-5.56-5.36c1.72-1.88,4.01-2.9,4.95-5.84
		c1.73,2.29,2.77,4.4,5.58,5.13C740.48,323.27,738.13,324.26,737.5,327.36z"/>
	<path class="st1" d="M784.55,399.36c-0.26-6.66-0.78-13.43-0.04-20.07c0.31-2.81,0.78-5.66,0.95-8.51
		c-0.19-0.3-0.34-0.67-0.41-1.11c-0.47-2.95-0.76-5.91-0.93-8.88c-0.06-0.29-0.08-0.57-0.04-0.83c-0.1-1.89-0.17-3.79-0.17-5.7
		c0-0.22,0.02-0.42,0.06-0.62c-4.32-14.62-11.51-27.83-21.7-39.11c-22.38-24.71-50.66-36.21-83.89-34.75
		c-4.73,0.2-10.17-0.17-14.22,3.66c0.99,0.02,2.03,0.23,2.97,0.02c8.53-1.9,17.28-1.53,25.69-0.57c21.1,2.41,39.6,11.18,55.19,25.83
		c1.82-0.25,3.16,0.52,4.43,1.78c13.32,13.25,23.18,28.56,28,46.91c4.8,18.26,4.75,36.57-0.63,54.59
		c-6.37,21.35-18.67,38.58-36.76,51.86c-13.22,9.71-27.78,15.89-43.78,17.86c-30.69,3.79-58.14-3.95-81.19-25.33
		c-1.3-1.21-2.94-2.32-2.85-4.48c-1.65-1.65-3.29-3.3-4.93-4.95c-0.37-0.27-0.74-0.53-1.11-0.8c-0.71-1.02-1.42-2.05-2.13-3.07
		c-1.42-1.99-2.83-3.98-4.27-5.95c-11.47-15.83-17.78-33.51-18.55-53.07c-0.25-6.41-0.31-12.87,0.79-19.24
		c-1.46,0.21-1.66,1.24-1.87,2.51c-2.82,16.33-1.6,32.47,3.45,48.12c6.57,20.34,18.8,36.82,35.51,50.17
		c16.14,12.91,34.69,19.55,54.86,21.34c20.5,1.82,39.94-2.68,58.01-12.8c13.56-7.6,25.03-17.62,34.04-30.22
		c7.35-10.28,12.4-21.72,15.86-33.85C784.78,406.51,784.69,402.94,784.55,399.36z"/>
	<path class="st1" d="M585.28,361.86c-1.55-1.34-0.65-1.78,0.73-2.06C586.16,360.62,586.19,361.41,585.28,361.86z"/>
	<path class="st2" d="M662.19,283.72c-0.45,0.9-1.22,0.88-2.05,0.73C660.42,283.06,660.87,282.17,662.19,283.72z"/>
	<path class="st3" d="M614.21,362.85c4.31-4.39,9.45-7.57,14.92-10.27c1.18-0.9,2.98-0.33,3.97-1.68c2.32-0.07,4.63-0.2,6.79-1.19
		c1.09-0.05,2.18-0.09,3.26-0.14c3.12,0.19,6.19,0.58,9.02,2.02c-14.69,7.58-22.65,19.65-23.98,36.15
		c-0.04,1.35-0.66,2.51-1.06,3.76c-3.45,10.77-3.99,20.02,5.46,27.42c15.53,12.17,33.37,14.47,52.2,12.65
		c7.68-0.74,14.72-3.43,21.31-7.51c2.7-1.67,4-5.71,8.13-5.02c-6.2,8.17-7.95,17.48-7.07,27.48c-3.17,0.94-6.48,0.62-9.75,1.34
		c-10.07,2.19-20.14,3.43-30.67,2.5c-8.86-0.78-17.27-4.37-26.32-3.44c-9.88,1.01-18.86-1.94-27.21-7.09
		c-9.86-8.22-13.89-18.9-14.13-31.59c-0.16-8.34,1.25-16.33,3.17-24.33C605.51,376.47,608.72,369.01,614.21,362.85z"/>
	<path class="st1" d="M779.79,412c-6.37,21.35-18.67,38.58-36.76,51.86c-13.22,9.71-27.78,15.89-43.78,17.86
		c-30.69,3.79-58.14-3.96-81.19-25.33c-1.3-1.21-2.94-2.32-2.85-4.48c2.79,0.16,3.65,3.08,5.82,4.12
		c10.27,7.87,21.46,13.76,34,17.23c12.88,3.56,25.9,4.5,39,2.71c9.88-1.35,19.71-3.44,28.4-8.9c0.54-0.25,1.09-0.49,1.63-0.74
		c2.35-1.18,4.7-2.36,7.05-3.54c0.87-0.24,1.44-0.76,1.56-1.71c2.32-0.43,3.92-2.08,5.68-3.43c4.45-2.73,8.42-5.95,10.98-10.63
		c0.92-0.6,1.83-1.21,2.75-1.82c0.74-0.75,1.48-1.5,2.22-2.25l1.71-1.51c3.8-4.85,7.38-9.85,10.23-15.33
		c5.03-9.13,8.83-18.69,9.97-29.16c1.14-4.99,2.23-9.98,1.73-15.15c0.49-23.35-6.45-44.17-20.75-62.66
		c-2.86-3.7-6.48-6.64-9.2-10.41c1.82-0.25,3.16,0.52,4.43,1.78c13.32,13.25,23.18,28.56,28,46.91
		C785.22,375.67,785.17,393.98,779.79,412z"/>
	<path class="st4" d="M776.21,396.94c-2.31,0.36-4.54,1.38-6.96,0.87c0.25-1.04,0.5-2.1,0.75-3.14c-0.1-0.17-0.11-0.34-0.03-0.51
		c-0.28-3-2.59-3.61-4.89-4.24v0.01l-0.05-0.03c0.01,0,0.03,0.01,0.04,0.01c-0.3-0.87-1-1.01-1.8-0.92
		c3.23-10.1,3.23-10.1-3.03-13.49c-6.15-3.33-6.38-3.25-8.61,3.33c-0.58,1.72-1.13,3.44-1.69,5.17c-1.31-0.36-2.93,0.37-3.91-1.12
		c-3.74-12.77-11.31-22.49-22.93-28.98c2.84-1.6,3.78-4.82,5.96-6.98c2.8-0.05,5.6-0.15,8.41-0.15c6.66,0,7.87,1.92,5.13,8.07
		c-0.5,0.5-0.99,1.01-1.49,1.53c-3.24,1.24-4.2,3.22-1.97,6.21c4.87,1.89,8.73-0.84,11.08-7.85c1.44-2.98,1.45-5.96-0.01-8.93
		c-0.09-0.67-0.18-1.35-0.26-2.01c6.09,2.77,9.87,8.13,14.03,12.95c6.35,7.34,10.48,16.04,13.96,25.05
		C778.44,386.96,777.35,391.95,776.21,396.94z"/>
	<path class="st5" d="M712.42,458.02c-7.61,0.47-15.2,1.01-22.84,1.1c-22.92,0.27-45.78-0.26-68.55-3.1
		c-2.17-1.03-3.03-3.95-5.82-4.12c-1.65-1.65-3.29-3.3-4.93-4.95c-0.37-0.27-0.74-0.53-1.11-0.8c-0.71-1.02-1.42-2.05-2.13-3.07
		c1.3-2.51,4.05-2.29,6.16-3.27c8.35,5.15,17.33,8.11,27.22,7.1c9.06-0.93,17.47,2.66,26.32,3.44c10.54,0.92,20.61-0.31,30.68-2.5
		c3.26-0.71,6.57-0.39,9.74-1.34C708.92,450.35,710.67,454.19,712.42,458.02z"/>
	<path class="st6" d="M729.06,346.92c-2.17,2.16-3.12,5.39-5.96,6.98c-1.2-0.45-2.39-0.95-3.62-1.35
		c-6.3-2.06-12.66-3.67-19.34-1.96c-0.47-1.7,2.2-2.48,1.22-4.64c-2.2,1.07-3.92,2.31-4.23,4.87l0.02-0.02
		c-0.79-0.07-1.48,0.1-1.95,0.8c-3.98-1.36-7.65-3.73-12.05-3.66c-0.58-0.43-1.17-0.85-1.75-1.28c0.71-3.89,2.88-5.22,5.84-2.9
		c3.96,3.1,3.7,0.6,4.03-2.3c0.37-3.24,1.15-6.43,1.76-9.65c0.64-0.38,1.27-0.76,1.91-1.15c-0.65,4.65-1.7,9.29-0.77,14.03
		c1.01-4.94,1.79-9.84,2.86-14.72c0.44-1.99-1.16-0.18-1.83-0.16c0.28-1.66,0.56-3.32,0.85-4.98c2.7-3.65,4.55-1.2,5.95,1.09
		c1.16,1.9,1.71,4.18,2.69,6.72c3.72-4.38,7.17-8.57,11.41-11.98c7.31-3.23,8.97-2.57,9.94,3.96c-2.05,3.94-4.11,7.87-6.16,11.82
		c-0.45,0.2-1.41,0.19-1,0.89c0.36,0.59,0.98,0.03,1.29-0.51c3.25-0.07,6.66-0.65,8.82,2.78c-2.61,0.07-5.23,0.14-7.84,0.21
		c-0.94-0.07-1.89-0.14-2.83-0.2c-1.12-1.04-1.24-2.41-1.24-3.82c1.27-2.08,4.28-3.44,2.84-6.64c-0.61-1.36-1.86-1.64-3.26-1.63
		c-2.65,0.02-4.3,1.15-4.6,3.91c-1.2,0.74-1.37,2.07-1.83,3.23c-1.6,9.75,4.17,11.53,9.9,12.08
		C723.07,347.01,726.07,346.87,729.06,346.92z M707,342.37c-1.96,0.38-3.38,0.67-3.54,3C705.54,345.38,706.33,344.32,707,342.37z"/>
	<path class="st7" d="M641.66,317.12c-2.76-5.09-6.19-9.94-6.49-16.52c9.98,4.16,11.4,13.78,15.64,21.52
		c-0.64-6.04-1.66-11.89,2.22-17.66c4.58,6.25,6.52,13.26,4.79,20.1c-1.41,5.6-0.38,10.03,2.28,15.19
		c-3.25-0.56-3.38-2.91-4.04-4.72c-1.49-4.09-3.78-6.4-8.69-6.46c-7.48-0.08-11.92-5.79-16.45-10.79c-1.73-1.91,0.31-2.26,1.58-2.04
		c2.88,0.51,5.71,1.33,8.56,2.02c0.3,0.67,0.99,1.13,1.43,0.58C643.06,317.67,642.04,317.49,641.66,317.12z"/>
	<path class="st4" d="M716.09,320.66c-4.23,3.4-7.68,7.59-11.41,11.98c-0.99-2.54-1.53-4.82-2.69-6.72
		c-1.4-2.29-3.25-4.73-5.95-1.09c-1.66-2.6-0.88-7.29-5.92-7.01c-7.38,0.51-14.67,1.35-21.01,5.71c0.1-7.34,3.06-11.25,9.91-11.72
		C692.23,310.88,704.67,313.77,716.09,320.66z"/>
	<path class="st7" d="M669.1,323.52c6.34-4.35,13.63-5.2,21.01-5.71c-1.53,2.44-1.25,6.14-4.71,7.21
		c-10.74,3.34-16.27,11.29-19.21,21.59c-1.64,1.76-4.22,0.72-6,2.05c1.33-5.86,1.25-11.95,3.63-17.69
		C665.09,327.95,666.47,325.39,669.1,323.52z"/>
	<path class="st8" d="M660.2,348.66c1.78-1.33,4.37-0.29,6-2.05c3.93,0.02,7.85,0.03,11.78,0.05c1.14,0,2.28-0.01,3.42-0.01
		c0.58,0.43,1.17,0.85,1.75,1.28c-1.08,1.03-2.45,0.72-3.74,0.81c-6.61,0.46-12.91,1.93-18.4,5.92c-0.65,0.35-1.3,0.7-1.95,1.05
		c-3.47,1.29-6.37,3.44-9.02,5.97c-1.97,1.37-3.61,3.07-4.94,5.07c-2.09,1.4-3.51,3.45-5.21,5.25c-2.69,2.84-3.97,6.89-7.63,8.84
		c3.78-9.84,9.75-18.13,17.75-24.95c1.79-1.52,4.06-2.51,5.09-4.83l0.27-0.35c0.56-0.35,1.12-0.7,1.68-1.05
		C658.11,349.33,659.16,349,660.2,348.66z"/>
	<path class="st7" d="M657.07,349.67c-0.56,0.35-1.12,0.7-1.68,1.04c-0.76-2.5-1.22-5.15-2.35-7.47c-2.36-4.88-8.01-9.79-13.91-6.42
		c3.11,3.68,4.41,7.97,4.03,12.75c-1.09,0.05-2.18,0.09-3.26,0.14c0.65-3.52,0.25-6.84-1.74-9.91c-0.73-1.13-1.17-2.31-2.98-1.55
		c-2.66,1.11-4.43,3.05-4.84,5.74c-0.41,2.65-0.81,5.7,2.78,6.91c-0.99,1.35-2.79,0.78-3.97,1.68c-3.76-6.98-2.51-11.86,4.41-17.35
		c-5.66-4.51-12.13-3.97-18.71-3.16c5.35-3.34,10.95-3.16,16.57-0.65c2.85,1.27,5.34,2.14,8.78,1.46
		C648.21,331.27,656.89,338.25,657.07,349.67z"/>
	<path class="st4" d="M719.87,336.43c2.05-3.94,4.11-7.87,6.16-11.81c5.64,4.02,11.26,8.06,16.94,12.03
		c1.54,1.07,3.09,2.01,3.06,4.19c-5.57-1.94-11.41-0.24-17.05-1.25c-2.16-3.42-5.57-2.85-8.82-2.78L719.87,336.43z"/>
	<path class="st9" d="M728.99,339.59c5.64,1,11.48-0.7,17.05,1.25c0,0-0.01-0.06-0.01-0.06c0.33,0.28,0.67,0.56,1,0.84
		c0.97,0.73,1.95,1.45,2.92,2.18c0.09,0.67,0.17,1.34,0.26,2.01c-0.67,1.76-1.6,3.02-3.75,1.98c-2.66-1.63-5.21-3.53-8.58-3.31
		c-2.52-2.32-5.04-2.32-7.55,0c-3.48,0-6.95,0-10.43,0c0.41-1.56,0.83-3.11,1.24-4.67C723.76,339.72,726.37,339.66,728.99,339.59z"
		/>
	<path class="st4" d="M614.21,362.85c-5.49,6.15-8.7,13.62-11.97,21.04C596.55,373.32,602.16,363.46,614.21,362.85z"/>
	<path class="st4" d="M704.39,307.05c1.73-1.38,2.98-2.21,4.02-3.25c1.03-1.03,1.85-2.28,2.91-3.62c2.38,2.33,4.22,5.09,8.02,6.63
		c-3.75,1.92-6.37,3.86-7.57,7.77C709.32,311.69,707.47,308.96,704.39,307.05z"/>
	<path class="st10" d="M609.2,352.01c3.02-1.6,4.61-3.11,5.8-5.53c1.72,1.92,2.63,4.19,5.3,4.76c-1.85,1.98-3.36,4.9-5.04,5.01
		C613.54,356.37,612.57,352.77,609.2,352.01z"/>
	<path class="st10" d="M737.5,327.36c-1.85-2.39-3.03-4.35-5.56-5.37c1.72-1.87,4.01-2.9,4.95-5.84c1.73,2.29,2.77,4.39,5.58,5.12
		C740.48,323.28,738.13,324.26,737.5,327.36z"/>
	<path class="st4" d="M747.03,341.61c-0.33-0.28-0.67-0.56-1-0.84C746.36,341.05,746.69,341.33,747.03,341.61z"/>
	<path class="st11" d="M661.02,354.66c5.49-3.99,11.78-5.46,18.4-5.92c1.29-0.09,2.66,0.22,3.74-0.81
		c4.41-0.07,8.08,2.31,12.05,3.66c0.28,0.13,0.57,0.24,0.87,0.32c10.65,7.3,18.77,16.67,23.49,28.84
		c4.77,12.31,7.36,24.33-4.31,34.57c-1.11,0.97-1.24,2.3-1.1,3.68l0.07,0.03c-4.13-0.7-5.43,3.34-8.13,5.02
		c-6.6,4.09-13.63,6.77-21.31,7.51c-18.83,1.82-36.67-0.48-52.2-12.65c-9.45-7.4-8.91-16.65-5.46-27.42
		c0.4-1.25,1.01-2.41,1.06-3.76c0.65-0.67,1.3-1.34,1.95-2.01c0.13-0.04,0.38-0.07,0.38-0.11c0.01-0.24-0.04-0.47-0.07-0.71
		c-0.13-1.68,0.61-2.97,1.81-4.06c3.67-1.95,4.94-6,7.63-8.84c1.7-1.79,3.12-3.84,5.21-5.25c-0.27,4.37,0.83,8.07,5.36,9.65
		c3.48,1.22,6.64,0.26,9.04-2.51c3.24-3.74,1.48-7.45-0.36-11.1c0,0-0.02,0.02-0.02,0.02c2.26,0.72,5.3,0.24,4.31,4.63
		c-0.54,2.38,1.87,4.13,4.48,4.28c2.39,0.14,4.23-1.09,4.84-3.42c0.61-2.34-0.46-4.22-2.61-5.26c-1.08-0.52-2.55-0.07-2.2-2.3
		c0.85-5.35-2.78-5.92-6.78-5.89L661.02,354.66z M689.28,394.45c-4.72,0.34-1.83,3.55-2.09,5.57c0.43,2.44-0.38,4.24-2.87,4.83
		c-2.45,0.58-4.52-0.08-6.03-2.31c-3.23-4.78-6.59-4.85-8.95,0.12c-1.56,3.28-4.22,2.64-6.3,2.05c-2.31-0.66-3.3-3-2.59-5.6
		c0.36-1.32,0.78-2.62,1.24-4.16c-4.81,1.19-7.71,4.64-7.23,8.48c1.03,8.25,7.16,12.33,14.97,14.34c-0.57-3.18-0.79-6.71,2.87-7.7
		c3.94-1.06,6.48,1.09,7.13,5.31c0.09,0.6,1.12,1.05,1.71,1.58c9.4-1.47,13.46-7.42,13.12-19.22c3.11-0.53,5.03-2.59,5.79-5.4
		c1.02-3.77-0.37-7.07-3.96-8.57c-2.6-1.09-4.83,0.53-6.23,2.93C688.41,389.16,689.48,391.86,689.28,394.45z M646.19,390.44
		c-0.48,4.19,2.47,6,5.56,7.08c2.19,0.76,5.41-3.78,5.64-6.96c0.29-4.07-1.97-6.3-5.37-7.23
		C649.52,382.64,646.18,387.04,646.19,390.44z"/>
	<path class="st10" d="M712.42,458.02c-1.75-3.83-3.51-7.67-5.26-11.5c-0.88-10,0.87-19.32,7.07-27.48c0,0-0.07-0.03-0.07-0.03
		c2.24-0.8,3.52-2.88,5.37-4.24c6.37-4.68,15.01-5.01,20.56-11.07c-1.67,5.49-6.43,7.38-11.09,8.82
		c-15.53,4.79-27.44,27.97-13.64,45.58c1.38,1.76,3.94,3.12,3.74,5.99C715.86,463.2,714.48,460.24,712.42,458.02z"/>
	<path class="st0" d="M643.15,349.57c0.38-4.78-0.92-9.07-4.03-12.75c5.9-3.37,11.55,1.54,13.91,6.42c1.13,2.32,1.58,4.97,2.35,7.47
		c0,0-0.27,0.35-0.27,0.35c-1.14-0.74-1.93,0.48-2.94,0.53C649.34,350.15,646.27,349.76,643.15,349.57z"/>
	<path class="st10" d="M652.17,351.59c1-0.04,1.8-1.26,2.94-0.53c-1.03,2.32-3.3,3.31-5.09,4.83c-8,6.82-13.97,15.11-17.75,24.95
		c-1.2,1.08-1.94,2.37-1.81,4.05c-0.18,0.24-0.29,0.52-0.31,0.82c-0.65,0.67-1.3,1.34-1.95,2.01
		C629.52,371.24,637.48,359.17,652.17,351.59z"/>
	<path class="st0" d="M633.1,350.89c-3.59-1.21-3.19-4.27-2.78-6.91c0.41-2.69,2.19-4.64,4.84-5.74c1.81-0.75,2.25,0.42,2.98,1.55
		c1.99,3.07,2.39,6.39,1.74,9.91C637.73,350.7,635.42,350.83,633.1,350.89z"/>
	<path class="st0" d="M722.43,467.06c-8.69,5.46-18.52,7.56-28.4,8.9c-13.1,1.79-26.12,0.85-39-2.71
		c-12.54-3.46-23.73-9.36-34-17.23c22.77,2.84,45.63,3.37,68.55,3.1c7.64-0.09,15.23-0.63,22.84-1.1c2.06,2.21,3.44,5.18,6.7,6.07
		C719.99,465.34,721.01,466.41,722.43,467.06z"/>
	<path class="st12" d="M719.07,464.02c0.02,0,0.03-0.01,0.05-0.01v0.08C719.1,464.07,719.09,464.04,719.07,464.02z"/>
	<path class="st12" d="M766.24,426.1c-1.86-3.81-4.78-7-6.15-11.15c-1.57-4.8-1.01-9.38,0.14-14.04c-3.1-0.78-6.59-0.91-9.21-2.49
		c-3.91-2.37-6.06-1.46-7.77,1.98c-0.01,0.01-0.02,0.03-0.03,0.05c-0.05,0.12-0.11,0.24-0.17,0.36c-0.01,0.03-0.03,0.05-0.04,0.08
		l0.05-0.08c-0.27,1.36-0.59,2.66-2.47,2.2c-0.18,0.22-0.35,0.46-0.49,0.69c-0.01,0.01-0.02,0.01-0.02,0.02
		c-0.31,1.02-0.72,1.92-1.22,2.71c0,0-0.01,0.01-0.02,0.02c-0.16,0.26-0.34,0.51-0.52,0.74c-2.25,2.92-5.81,4.26-9.31,5.33
		c-15.53,4.8-27.44,27.98-13.64,45.58c1.37,1.74,3.89,3.09,3.75,5.9c2.31-0.67,3.41,1.28,4.94,2.31c2.35-1.18,4.7-2.36,7.05-3.54
		c-12.26-4.88-18.83-15.94-16.4-27.63c-0.11-1.76,0.57-3.1,1.48-4.33c0.13-0.17,0.26-0.34,0.4-0.51c0.27-0.34,0.55-0.68,0.83-1.01
		c0.15-0.17,0.29-0.34,0.42-0.51c0.21-0.25,0.41-0.51,0.6-0.77c0.25-0.35,0.49-0.71,0.69-1.09c0.21-0.38,0.38-0.77,0.5-1.19
		c-0.01,0-0.01,0-0.01,0c-0.39,0.14-0.78,0.29-1.17,0.43c0.04-0.28-0.01-0.63,0.14-0.82c0.47-0.56,0.97-0.59,1.35,0.15l0.05-0.38
		l0.37-0.1v-0.01c3.98,0.4,8.14-2.99,11.96,0.57c1.08,0.64,2.17,1.28,3.41,2.02c0.33-0.85,0.62-1.58,0.88-2.32
		c0.9-2.59,2.7-3.79,5.36-2.99c2.1,0.63,3.39,2.22,2.84,4.54c-0.57,2.36-1.73,4.73-4.67,3.95c-3.47-0.92-2.78,1.01-2.48,2.94
		c0.14,0.56,0.29,1.12,0.44,1.68c5.72,0.74,10.81,3.29,15.97,5.62c0.02,0.01,0.04,0.02,0.06,0.03l-0.06-0.06
		c0.65,0.15,1.29,0.31,1.94,0.47C759.81,436.58,763.39,431.58,766.24,426.1z M720.37,424.89c0.41-4.44,6.68-9.35,12.77-9.81
		c2.64-0.19,5.31-0.03,8.05,0.23C732.75,415.34,726.28,419.51,720.37,424.89z"/>
	<path class="st0" d="M749.33,447c-2.56,4.68-6.53,7.9-10.98,10.63c-0.82-2-1.59-3.89-4.4-3.66c-1.65,0.13-2.73,0.66-3.41,2.19
		c-1.09,2.46,0.9,3.5,2.13,4.91c-0.12,0.94-0.69,1.47-1.56,1.71c-12.26-4.88-18.83-15.94-16.4-27.63c0.11,0.48,0.3,0.95,0.32,1.45
		c0.25,4.99,2.11,9.51,6.96,10.92c4.71,1.39,9.93,1.31,13.16-3.83c0.79-1.26,1.72-0.96,2.94-0.89c1.18,0.07,2.37,1.79,3.6,0.55
		c0.1-0.11,0.21-0.24,0.32-0.4h0.01C744.49,444.22,746.19,446.9,749.33,447z"/>
	<path class="st0" d="M776.21,396.94c-1.14,10.47-4.94,20.03-9.97,29.16c-1.86-3.81-4.78-7-6.15-11.15
		c-1.57-4.8-1.01-9.38,0.14-14.04c2.49-1.11,5.81,1.46,7.83-1.77c0.4-0.44,0.79-0.88,1.19-1.33
		C771.67,398.32,773.9,397.3,776.21,396.94z"/>
	<path class="st8" d="M743.49,440.07c-0.45,1.2,0.56,1.69,1.31,2.34c2.11,1.82,5.11,1.17,7.28,2.77c-0.92,0.6-1.83,1.21-2.75,1.82
		c-3.14-0.1-4.84-2.78-7.31-4.08c-1.24-2.55-4.5-4.06-3.92-7.56c5.72,0.74,10.81,3.29,15.97,5.62c0.02,0.01,0.04,0.02,0.06,0.03
		h-0.05c-2.84,0.1-5.36-1.25-8.06-1.78C745.08,439.07,743.95,438.86,743.49,440.07z"/>
	<path class="st12" d="M738.35,457.63c-1.76,1.36-3.36,3-5.68,3.43c-1.23-1.41-3.22-2.45-2.13-4.91c0.68-1.53,1.76-2.06,3.41-2.19
		C736.76,453.74,737.53,455.63,738.35,457.63z"/>
	<path class="st12" d="M754.3,442.94c-0.74,0.75-1.48,1.5-2.22,2.25c-2.17-1.6-5.17-0.95-7.28-2.77c-0.75-0.65-1.76-1.13-1.31-2.34
		c0.46-1.21,1.59-1,2.53-0.83c2.7,0.52,5.22,1.88,8.06,1.78C754.15,441.65,754.22,442.29,754.3,442.94z"/>
	<path class="st12" d="M754.13,441.02h-0.05c0-0.01-0.01-0.02-0.01-0.03v-0.03L754.13,441.02z"/>
	<path class="st10" d="M724.06,466.31c-0.54,0.25-1.09,0.49-1.63,0.74c-1.42-0.64-2.44-1.72-3.31-2.96v-0.01
		c-0.02-0.02-0.03-0.05-0.05-0.07c0.02,0,0.03-0.01,0.05-0.01C721.43,463.33,722.53,465.29,724.06,466.31z"/>
	<path class="st8" d="M756.01,441.43l-1.71,1.51c-0.08-0.64-0.15-1.28-0.22-1.92c0-0.01-0.01-0.02-0.01-0.03v-0.03
		C754.72,441.11,755.36,441.27,756.01,441.43z"/>
	<path class="st3" d="M740.59,403c-0.19,0.23-0.36,0.48-0.5,0.71c-5.54,6.05-14.18,6.38-20.55,11.06c-1.85,1.35-3.12,3.43-5.37,4.24
		c-0.14-1.38-0.01-2.7,1.1-3.68c11.67-10.25,9.08-22.26,4.31-34.57c-4.72-12.18-12.84-21.54-23.49-28.84
		c0.36-0.37,0.72-0.75,1.08-1.12c0,0-0.02,0.02-0.02,0.02c1-0.08,2-0.16,3-0.24c6.69-1.71,13.04-0.09,19.34,1.96
		c1.22,0.4,2.41,0.9,3.62,1.35c11.62,6.5,19.19,16.21,22.92,28.98c-1.44,0.23-3.15-0.63-4.22,1.05c-0.24,0.57-0.49,1.14-0.73,1.7
		c-1.5,1.05-0.83,3.05-1.86,4.3c-0.02,0.81-0.12,1.65,0.89,1.99l-0.07-0.07c2.77,2.42,5.04,5.01,2.96,9.03c0,0,0.05-0.08,0.05-0.08
		C741.01,400.14,741.52,402.39,740.59,403z"/>
	<path class="st13" d="M749.94,384c0.56-1.72,1.1-3.45,1.69-5.17c2.23-6.59,2.46-6.67,8.61-3.34c6.26,3.4,6.26,3.4,3.03,13.49
		c0.28,0.93,0.68,1.64,1.81,0.95c0,0-0.05-0.04-0.05-0.04c-0.13,1-0.27,2-0.4,2.99c-5.89,0.24-10.8-2.75-15.96-4.91
		C748.09,386.34,749.5,385.32,749.94,384z"/>
	<path class="st12" d="M739.22,389.94c1.03-1.26,0.36-3.25,1.86-4.3c0.69,0.08,1.39,0.17,2.08,0.25c0,0-0.09-0.09-0.09-0.09
		c-0.31,1.68,0.91,2.28,2.05,2.97c7.66,4.67,15.9,6.83,24.88,5.9c-0.25,1.05-0.5,2.1-0.76,3.14c-0.39,0.44-0.79,0.89-1.19,1.33
		c-1.66,0.76-3.21,0.83-5.13,0.39c-7.9-1.81-15.17-5.39-22.89-7.67c0,0,0.07,0.07,0.07,0.07
		C740.63,390.9,739.92,390.42,739.22,389.94z"/>
	<path class="st10" d="M737.88,344.47c3.37-0.22,5.92,1.68,8.58,3.31c0,2,0,4,0.01,6.01c-1.28,0.37-2.39,1.38-3.86,1.06
		c2.74-6.15,1.53-8.07-5.13-8.07c-2.8,0-5.61,0.09-8.41,0.15c-2.98-0.05-5.98,0.09-8.94-0.2c-5.73-0.56-11.5-2.33-9.9-12.08
		c1.88,2.03,0.17,5.68,3.24,7.17c1.49,2.5,3.78,3.04,6.45,2.65c3.48,0,6.95,0,10.43,0C732.84,344.47,735.36,344.47,737.88,344.47z"
		/>
	<path class="st9" d="M742.6,354.84c1.47,0.33,2.58-0.69,3.86-1.06c1.25,0.32,2.5,0.63,3.76,0.95c-2.35,7.01-6.21,9.74-11.08,7.86
		c-0.98-2.59,2.67-3.71,1.97-6.22C741.61,355.86,742.1,355.35,742.6,354.84z"/>
	<path class="st10" d="M770,394.67c-8.97,0.92-17.22-1.23-24.88-5.9c-1.14-0.69-2.36-1.29-2.05-2.97c2.05,0.26,3.36,2.43,5.6,2.19
		c5.16,2.16,10.06,5.15,15.96,4.91c1.39,2.07,3.56,0.84,5.34,1.27C769.89,394.34,769.9,394.51,770,394.67z"/>
	<path class="st0" d="M750.22,354.73c-1.25-0.32-2.51-0.63-3.76-0.95c0-2,0-4,0-6.01c2.15,1.04,3.07-0.23,3.75-1.98
		C751.67,348.77,751.66,351.75,750.22,354.73z"/>
	<path class="st12" d="M748.67,387.99c-2.24,0.23-3.55-1.93-5.6-2.19c0,0,0.09,0.09,0.09,0.09c-0.45-0.65-0.9-1.3-1.35-1.95
		c1.08-1.68,2.79-0.82,4.22-1.05c0.98,1.5,2.61,0.76,3.91,1.12C749.5,385.32,748.09,386.34,748.67,387.99z"/>
	<path class="st12" d="M769.97,394.16c-1.78-0.42-3.95,0.81-5.34-1.27c0.13-1,0.26-2,0.4-2.99
		C767.35,390.53,769.69,391.14,769.97,394.16z"/>
	<path class="st10" d="M741.11,356.37c0.69,2.51-2.95,3.62-1.97,6.22C736.91,359.59,737.87,357.61,741.11,356.37z"/>
	<path class="st12" d="M765.08,389.94c-1.13,0.69-1.53-0.02-1.81-0.95C764.08,388.9,764.78,389.04,765.08,389.94z"/>
	<path class="st14" d="M677.98,346.67c-3.93-0.02-7.85-0.03-11.78-0.05c2.93-10.3,8.46-18.25,19.21-21.59
		c3.46-1.08,3.18-4.78,4.71-7.21c5.05-0.27,4.26,4.41,5.92,7.01c-0.28,1.66-0.56,3.32-0.85,4.98c-0.02,0.31-0.1,0.59-0.26,0.86
		c-0.64,0.38-1.27,0.76-1.91,1.15c-1-0.03-2.04-0.28-2.98-0.05C679.44,334.33,672.86,336.76,677.98,346.67z"/>
	<path class="st4" d="M677.98,346.67c-5.12-9.91,1.46-12.33,12.07-14.91c0.93-0.23,1.98,0.02,2.98,0.05
		c-0.6,3.21-1.39,6.41-1.76,9.65c-0.33,2.89-0.07,5.39-4.03,2.3c-2.96-2.31-5.13-0.99-5.84,2.9
		C680.26,346.66,679.12,346.66,677.98,346.67z"/>
	<path class="st0" d="M712.04,331.41c0.3-2.76,1.95-3.89,4.6-3.91c1.4-0.01,2.65,0.27,3.26,1.63c1.44,3.2-1.57,4.56-2.84,6.64
		C714.6,335.24,713.05,333.64,712.04,331.41z"/>
	<path class="st9" d="M712.04,331.41c1.01,2.23,2.55,3.83,5.02,4.36c0.01,1.41,0.12,2.78,1.24,3.82c-0.8,2.53-2.77,2.51-4.86,2.22
		c-3.07-1.49-1.36-5.14-3.24-7.17C710.68,333.48,710.85,332.15,712.04,331.41z"/>
	<path class="st10" d="M694.94,330.66c0.15-0.26,0.24-0.55,0.26-0.86c0.67-0.02,2.27-1.83,1.83,0.16
		c-1.07,4.87-1.85,9.77-2.86,14.72C693.24,339.95,694.28,335.31,694.94,330.66z"/>
	<path class="st0" d="M713.45,341.81c2.09,0.29,4.05,0.31,4.86-2.22c0.94,0.07,1.89,0.14,2.83,0.2c-0.41,1.56-0.83,3.11-1.24,4.67
		C717.23,344.85,714.94,344.31,713.45,341.81z"/>
	<path class="st7" d="M700.14,350.58c-1,0.08-2,0.16-3,0.24c0.31-2.56,2.03-3.8,4.23-4.87C702.34,348.1,699.67,348.88,700.14,350.58
		z"/>
	<path class="st7" d="M707,342.37c-0.67,1.95-1.45,3.01-3.54,3C703.61,343.05,705.04,342.76,707,342.37z"/>
	<path class="st4" d="M720.17,336.81c-0.31,0.54-0.93,1.1-1.29,0.51c-0.42-0.69,0.55-0.69,1-0.89
		C719.87,336.43,720.17,336.81,720.17,336.81z"/>
	<path class="st7" d="M697.16,350.8c-0.36,0.37-0.72,0.75-1.08,1.12c-0.3-0.09-0.59-0.19-0.87-0.32
		C695.68,350.89,696.37,350.72,697.16,350.8z"/>
	<path class="st0" d="M641.66,317.12c0.38,0.37,1.41,0.55,0.85,1.23c-0.45,0.55-1.13,0.1-1.43-0.58
		C641.25,317.54,641.44,317.32,641.66,317.12z"/>
	<path class="st3" d="M659.15,362.79c1.84,3.65,3.6,7.36,0.36,11.1c-2.4,2.78-5.56,3.73-9.04,2.51c-4.53-1.59-5.62-5.29-5.36-9.65
		c1.33-2,2.97-3.7,4.94-5.07C653.12,361.78,656.2,361.76,659.15,362.79z"/>
	<path class="st11" d="M659.15,362.79c-2.95-1.03-6.03-1.01-9.09-1.11c2.65-2.54,5.55-4.68,9.02-5.97l0.22,0.23
		c-0.06,2.29-0.11,4.58-0.17,6.87L659.15,362.79z"/>
	<path class="st11" d="M659.07,355.71c0.65-0.35,1.3-0.7,1.95-1.05c0,0,0.16,0.19,0.16,0.19c-0.63,0.36-1.26,0.73-1.88,1.09
		L659.07,355.71z"/>
	<path class="st0" d="M737.88,344.47c-2.52,0-5.04,0-7.55,0C732.85,342.15,735.36,342.15,737.88,344.47z"/>
	<path class="st14" d="M681.14,416.95c-0.59-0.52-1.62-0.98-1.71-1.58c-0.65-4.22-3.19-6.37-7.13-5.31
		c-3.66,0.99-3.44,4.52-2.87,7.7c-7.81-2.01-13.94-6.09-14.97-14.34c-0.48-3.84,2.42-7.29,7.23-8.48c-0.46,1.53-0.88,2.84-1.24,4.16
		c-0.71,2.6,0.28,4.94,2.59,5.6c2.08,0.6,4.74,1.23,6.3-2.05c2.36-4.96,5.73-4.9,8.95-0.12c1.51,2.23,3.58,2.89,6.03,2.31
		c2.49-0.59,3.3-2.39,2.87-4.83c2.64,2.03,2.13,4.78,1.71,7.51C688.17,412.21,683.86,413.92,681.14,416.95z"/>
	<path class="st3" d="M659.3,355.94c0.63-0.37,1.25-0.73,1.88-1.09c3.99-0.03,7.63,0.54,6.78,5.89c-0.36,2.23,1.12,1.78,2.2,2.3
		c2.14,1.04,3.22,2.92,2.61,5.26c-0.61,2.33-2.46,3.56-4.84,3.42c-2.61-0.15-5.02-1.89-4.48-4.28c0.99-4.39-2.05-3.9-4.31-4.63
		C659.18,360.52,659.24,358.23,659.3,355.94z"/>
	<path class="st14" d="M689.28,394.45c0.2-2.59-0.87-5.29,0.58-7.77c1.4-2.4,3.63-4.02,6.23-2.93c3.59,1.51,4.98,4.8,3.96,8.57
		c-0.76,2.81-2.68,4.87-5.79,5.4c0,0-0.01,0.07-0.01,0.07c-0.4-1.04-1.18-1.03-2.05-0.74c-0.42-0.41-0.85-0.82-1.27-1.23
		c-0.19-0.94-0.47-1.75-1.71-1.24L689.28,394.45z"/>
	<path class="st14" d="M646.19,390.44c-0.02-3.4,3.32-7.8,5.83-7.11c3.4,0.93,5.66,3.16,5.37,7.23c-0.23,3.18-3.45,7.73-5.64,6.96
		C648.67,396.44,645.72,394.63,646.19,390.44z"/>
	<path class="st3" d="M690.93,395.84c0.42,0.41,0.85,0.82,1.27,1.23c0.52,0.71,1.24,0.86,2.05,0.74c0,0,0.01-0.07,0.01-0.07
		c0.33,11.8-3.73,17.75-13.12,19.22c2.72-3.03,7.03-4.74,7.75-9.41c0.43-2.73,0.93-5.48-1.71-7.51c0.26-2.02-2.63-5.23,2.09-5.57
		c0,0-0.05,0.14-0.05,0.15C689.41,395.54,690.12,395.77,690.93,395.84z"/>
	<path class="st8" d="M630.14,385.72c0.03-0.3,0.13-0.58,0.31-0.82c0.03,0.24,0.08,0.48,0.07,0.71
		C630.53,385.65,630.28,385.69,630.14,385.72z"/>
	<path class="st9" d="M738.1,435.37c-0.58,3.5,2.68,5,3.92,7.55c-1.34,1.97-2.64-0.07-3.93-0.15c-1.22-0.08-2.15-0.37-2.94,0.9
		c-3.23,5.15-8.45,5.21-13.16,3.83c-4.85-1.42-6.71-5.94-6.96-10.93c-0.02-0.49-0.21-0.96-0.33-1.44c-0.27-4.14,3.9-5.95,4.92-9.42
		c0,0,0.31-0.24,0.31-0.24l0.05-0.38c0,0,0.37-0.1,0.37-0.1c0,0-0.08-0.01-0.08-0.01c4,0.46,8.19-3.01,12.04,0.57
		c0.81,3.35,0.03,7.76,5.34,8.15C737.8,434.25,737.95,434.81,738.1,435.37z"/>
	<path class="st0" d="M737.66,433.69c-5.31-0.39-4.53-4.8-5.34-8.15c1.09,0.65,2.17,1.29,3.42,2.02c0.33-0.86,0.62-1.58,0.88-2.32
		c0.91-2.59,2.7-3.79,5.36-2.99c2.1,0.63,3.4,2.22,2.84,4.54c-0.57,2.36-1.73,4.73-4.66,3.95
		C736.67,429.83,737.36,431.77,737.66,433.69z"/>
	<path class="st10" d="M740.05,391.86c7.71,2.29,14.99,5.87,22.89,7.67c1.91,0.44,3.46,0.37,5.13-0.39
		c-2.02,3.22-5.34,0.65-7.83,1.76c-3.1-0.78-6.59-0.91-9.2-2.49c-4.09-2.48-6.26-1.36-8.01,2.47
		C745.08,396.86,742.81,394.28,740.05,391.86z"/>
	<path class="st10" d="M720.28,424.97c0,0,0.08,0.01,0.08,0.01c0.34-4.46,6.65-9.44,12.78-9.9c2.64-0.2,5.31-0.03,8.05,0.22
		C732.71,415.34,726.21,419.54,720.28,424.97z"/>
	<path class="st10" d="M740.59,403c0.93-0.61,0.42-2.86,2.48-2.19C742.79,402.16,742.47,403.47,740.59,403z"/>
	<path class="st10" d="M719.94,425.47c0,0-0.32,0.25-0.31,0.24c-0.39,0.14-0.78,0.29-1.17,0.43c0.04-0.28-0.01-0.64,0.14-0.82
		C719.06,424.75,719.56,424.73,719.94,425.47z"/>
	<path class="st10" d="M741.8,383.93c0.45,0.65,0.9,1.3,1.35,1.95c-0.69-0.08-1.39-0.17-2.08-0.25
		C741.32,385.07,741.56,384.5,741.8,383.93z"/>
	<path class="st10" d="M739.22,389.94c0.7,0.48,1.41,0.96,0.89,1.99C739.1,391.59,739.2,390.75,739.22,389.94z"/>
	<path class="st11" d="M694.26,397.8c-0.81,0.12-1.53-0.03-2.05-0.74C693.08,396.78,693.86,396.76,694.26,397.8z"/>
	<path class="st11" d="M690.93,395.84c-0.82-0.07-1.52-0.3-1.71-1.24C690.47,394.09,690.74,394.9,690.93,395.84z"/>
</g>
</svg>
