<?xml version="1.0" encoding="utf-8"?>
<!-- Generator: Adobe Illustrator 25.0.0, SVG Export Plug-In . SVG Version: 6.00 Build 0)  -->
<svg version="1.1" id="Calque_1" xmlns="http://www.w3.org/2000/svg" xmlns:xlink="http://www.w3.org/1999/xlink" x="0px" y="0px"
	 viewBox="0 0 1920 1080" style="enable-background:new 0 0 1920 1080;" xml:space="preserve">
<style type="text/css">
	.st0{fill:#FC2626;}
	.st1{fill:#FD0707;}
	.st2{fill:#CACACE;}
	.st3{fill:#D1C8CD;}
	.st4{fill:#F91C1B;}
	.st5{fill:#F9EEEA;}
	.st6{fill:#FAE2E0;}
	.st7{fill:#FA7875;}
	.st8{fill:#F92B2D;}
	.st9{fill:#F9E9E7;}
</style>
<g>
	<path class="st0" d="M848,512c0-14.33,0-28.67,0-43c2.23-1.53,4.22-3.53,7.15-3.73c0.33,0,0.66-0.01,0.99-0.01
		c8.34-0.03,16.68-0.06,25.02-0.09c1.26-0.02,2.52-0.04,3.78-0.06c18.67,0.48,37.34,0.39,56.01,0.05c1.33,0.31,2.67,0.63,4,0.94
		c0.36,0.25,0.73,0.51,1.09,0.76c0.86,1.64,2.57,2.96,1.88,5.17c-1.47,1.98-1.44,3.96-0.02,5.95c0,10.02,0,20.04,0,30.05
		c-0.32,0.33-0.63,0.65-0.95,0.98c-3.19,0.07-3.36,4.32-7.58,4.24c-27.98-0.47-55.97-0.24-83.96-0.25c-1.95,0-3.95,0.41-4.79-2.34
		c-0.37-1.21-0.85-1.06-1.64,1.32C848.67,511.99,848.34,511.99,848,512z M911.97,496c0,1,0,2.01,0,3.01c-1,0.65-1,1.31-0.03,1.98
		c1.75,2.08,3.84,2.74,4.76-0.3c0.78-2.6,0.43-5.54,0.58-8.33c2.75,1.05,5.45,0.81,8.1-0.37c0.14-0.06,0.33-0.04,0.49-0.05
		c1.48-0.01,2.04-0.75,1.92-2.21c-0.14-1.61-1.26-1.74-2.47-1.78c-0.99-0.03-2.04,0.17-2.97-0.06c-2-0.49-5.39,1.83-5.47-2.71
		c-0.08-4.88,3.57-2.56,5.71-2.98c1.44-0.28,2.98-0.06,4.47-0.08c1.43-0.02,2.13-0.75,2.03-2.19c-0.08-1.18-0.78-1.88-1.92-1.79
		c-5.05,0.38-10.21-1.11-15.17,0.86c-2.78-0.56-3.49,2.58-5.63,3.16c-5.47-5.49-12.08-4.48-18.72-3.27
		c-0.81,0.66-0.74,1.41-0.22,2.21c0.03,0.94,0.06,1.88,0.09,2.82c-0.61,0.74-0.57,1.52-0.12,2.31c0.03,0.84,0.05,1.68,0.08,2.52
		c-0.74,3.45-0.86,6.89,0.01,10.34c0,2.04,0.55,3.43,3.06,3.28c2.43-0.14,4.88,0.03,7.33,0.07c0.44,0.55,0.85,0.51,1.23-0.07
		c5.55-0.65,7.9-4.43,9.12-9.32C909.16,494.43,909.47,496.6,911.97,496z M871.83,478.11c-6.99-0.01-7-0.01-7.03,7.12
		c-0.02,4.14-0.14,8.29,0.06,12.42c0.08,1.66-1.38,4.48,1.94,4.63c3.33,0.15,2.41-2.7,2.24-4.37c-0.42-3.97,1.02-5.5,4.96-4.8
		c0.96,0.17,1.98,0.02,2.97-0.03c4.28-0.23,5.66-2.82,6.15-6.77c0.49-3.92-1.13-6.12-4.43-7.53
		C876.5,477.84,874.13,478.15,871.83,478.11z"/>
	<path class="st1" d="M1055.94,568.52c3.7,1.04,4.58,3.67,4.53,7.22c-0.12,9.76,0.1,19.53-0.06,29.28c-0.06,3.46,1.1,4.71,4.57,4.4
		c3.25-0.3,6.63-0.4,9.03,2.57c0,1,0,2,0,3c-0.93,0.14-1.26,0.93-1.81,1.54c-10.79,12.07-21.5,24.23-33.19,35.46c-0.67,0-1.33,0-2,0
		c-6.68-8.6-14.43-16.22-22-24c-0.28-0.98-0.92-1.65-1.84-2.06c-1.4-1.56-2.81-3.12-4.21-4.68c-0.13-0.28-0.35-0.4-0.66-0.36
		c-0.45-0.54-0.91-1.08-1.36-1.62c-0.37-0.41-0.75-0.82-1.12-1.23c-0.27-0.35-0.53-0.7-0.8-1.04l0,0c-1.89-3.75-1.52-6.63,3.03-7.91
		c2.73,0.13,5.5,0.93,8.13-0.5c0.96-1.07,0.68-2.28,0.38-3.48c0.14-11.04,0.27-22.08,0.41-33.11c1.02-1.08,2.03-2.16,3.05-3.23
		c1.02-0.06,2.03-0.12,3.05-0.19c0,0,0.45,0.19,0.45,0.19l0.45-0.19c8.29,0.21,16.58,0.51,24.86-0.15c1.1,0.03,2.2,0.06,3.3,0.09
		c0.98,0.02,1.96,0.04,2.93,0.06c0,0,0.46,0.19,0.46,0.19L1055.94,568.52z"/>
	<path class="st2" d="M1052.11,568.5c-1.1-0.03-2.2-0.06-3.3-0.09c0-0.48,0-0.96,0-1.44c0.08-0.32,0.05-0.62-0.09-0.91
		c0.07-29.64,0.14-59.27,0.21-88.91c0.01-3,0.04-6-0.04-8.99c-0.07-2.77-1.33-4.2-4.36-4.12c-5.66,0.15-11.32,0.06-16.98,0.03
		c-7.73-0.03-11.21-3.37-11.44-11.23c-0.15-4.99-0.3-10.01,0.05-14.98c0.32-4.5-1.05-5.93-5.76-5.9
		c-28.97,0.22-57.95,0.11-86.92,0.11c-9.99,0-19.98-0.06-29.97,0.02c-5.83,0.05-8.5,2.81-8.52,8.54
		c-0.03,8.16-0.02,16.32-0.03,24.48c-1.26,0.02-2.52,0.04-3.78,0.06c1.15-12.12-3.75-25.05,4.84-36.17c45.67,0,91.33,0,137,0
		c-0.19,2.21,1.64,3.15,2.87,4.39c7.49,7.55,14.98,15.11,22.58,22.54c2.56,2.51,3.58,5.27,3.58,8.86
		C1051.98,499.37,1052.07,533.94,1052.11,568.5z"/>
	<path class="st3" d="M1008.94,621.26c1.4,1.56,2.81,3.12,4.21,4.68c-39.08,0.02-78.16-0.05-117.23,0.15
		c-5.49,0.03-10.15-0.87-13.78-5.17c-1.86-5.12-0.94-10.45-1.03-15.68c-0.15-8.08-0.07-16.16-0.08-24.24c0-2.33,0-4.67,0-7
		c0-5,0-10,0-15c0-6.67,0-13.34,0-20c0-5,0-10,0-15c-0.02-2.76-0.05-5.52-0.07-8.28c1.37-0.47,2.74-0.48,4.11,0.02
		c-0.03,32.6-0.07,65.21-0.09,97.82c-0.01,7.01,1.49,8.53,8.43,8.53c36.93,0.01,73.86,0.01,110.79-0.02
		C1005.79,622.08,1007.55,622.61,1008.94,621.26z"/>
	<path class="st4" d="M885.06,515.74c-1.37-0.5-2.73-0.49-4.11-0.02c-0.66,0.03-1.32,0.06-1.98,0.1
		c-8.99-0.19-17.99-0.38-26.98-0.57c-1.31-0.81-2.63-1.6-2.99-3.27c0.79-2.39,1.27-2.53,1.64-1.32c0.84,2.75,2.84,2.34,4.79,2.34
		c27.99,0.01,55.98-0.22,83.96,0.25c4.22,0.07,4.38-4.18,7.58-4.24c0.3,0,0.6,0,0.9-0.02c0.07,0.67,0.14,1.34,0.2,2.02
		c-1.07,1.24-2.13,2.49-3.2,3.73c-1.32,0.28-2.64,0.56-3.96,0.84c-1.6-0.48-3.19-0.55-4.77,0.1
		C919.12,515.35,902.09,515.22,885.06,515.74z"/>
	<path class="st2" d="M1055.94,568.52l-0.44,0.23c0,0-0.46-0.19-0.46-0.19C1055.32,568.08,1055.62,568.04,1055.94,568.52z"/>
	<path class="st5" d="M887.48,488.75c-0.03-0.84-0.05-1.68-0.08-2.52c0.55-0.74,0.52-1.52,0.12-2.31c-0.03-0.94-0.06-1.88-0.09-2.82
		c0.07-0.74,0.15-1.47,0.22-2.21c6.64-1.2,13.25-2.21,18.72,3.27c1.76,3.43,1.85,7.15,1.86,10.89c-1.21,4.89-3.57,8.67-9.12,9.32
		c-0.41,0.02-0.82,0.05-1.23,0.07c-2.44-0.04-4.89-0.21-7.33-0.07c-2.51,0.14-3.06-1.24-3.06-3.28
		C888.15,495.64,888.17,492.19,887.48,488.75z M892.03,490.34c0,1.99,0.01,3.98,0,5.96c-0.01,1.27,0.26,2.41,1.8,2.43
		c3.69,0.05,7.45,0.13,9.29-4.05c1.69-3.84,0.65-9.51-2.12-11.44c-2.35-1.64-5.14-1.84-7.64-1.07c-2.52,0.78-0.96,3.41-1.31,5.19
		C891.87,488.32,892.02,489.35,892.03,490.34z"/>
	<path class="st5" d="M871.83,478.11c2.31,0.04,4.67-0.28,6.87,0.66c3.3,1.41,4.91,3.61,4.43,7.53c-0.49,3.96-1.87,6.54-6.15,6.77
		c-0.99,0.05-2.01,0.2-2.97,0.03c-3.94-0.7-5.38,0.84-4.96,4.8c0.18,1.67,1.09,4.52-2.24,4.37c-3.32-0.15-1.86-2.97-1.94-4.63
		c-0.2-4.13-0.08-8.28-0.06-12.42C864.83,478.1,864.84,478.1,871.83,478.11z M869.43,486.04c-0.12,1.05-0.73,2.2,0.6,2.95
		c0.14,0.5,0.36,0.75,0.81,0.25c3.26,0.07,7.35,1.56,7.17-4.21c0.15-0.37,1.09-0.86-0.15-1.02c-0.39-0.84-0.62-1.87-1.9-1.74
		C873.35,482.77,868.27,479,869.43,486.04z"/>
	<path class="st6" d="M912,479c4.96-1.97,10.12-0.48,15.17-0.86c1.13-0.09,1.84,0.61,1.92,1.79c0.1,1.43-0.61,2.17-2.03,2.19
		c-1.49,0.02-3.03-0.2-4.47,0.08c-2.14,0.42-5.79-1.9-5.71,2.98c0.07,4.54,3.47,2.22,5.47,2.71c0.94,0.23,1.98,0.03,2.97,0.06
		c1.21,0.04,2.33,0.17,2.47,1.78c0.13,1.46-0.44,2.2-1.92,2.21c-0.17,0-0.35-0.02-0.49,0.05c-2.65,1.18-5.35,1.42-8.1,0.37
		c-0.15,2.79,0.21,5.73-0.58,8.33c-0.92,3.04-3.01,2.38-4.76,0.3c0.01-0.66,0.02-1.32,0.03-1.98c0-1,0-2.01,0-3.01
		C911.98,490.33,911.99,484.66,912,479z"/>
	<path class="st4" d="M912,479c-0.01,5.67-0.02,11.33-0.04,17c-2.49,0.6-2.8-1.57-3.73-2.95c-0.01-3.73-0.1-7.45-1.86-10.89
		C908.51,481.58,909.22,478.44,912,479z"/>
	<path class="st6" d="M948.28,475.97c1.62,5.83,0.45,11.78,0.69,17.68c0.21,5.12,0.07,10.25,0.08,15.37
		c-0.07,0.79-0.19,1.55-0.98,1.98c-0.07-0.67-0.14-1.34-0.2-2.02c0.16-0.31,0.18-0.63,0.05-0.96c0-10.02,0-20.04,0-30.05
		C948.04,477.3,948.16,476.64,948.28,475.97z"/>
	<path class="st7" d="M887.48,488.75c0.69,3.45,0.66,6.89,0.01,10.34C886.62,495.64,886.75,492.2,887.48,488.75z"/>
	<path class="st1" d="M947.93,472.02c0.12,0.33,0.24,0.65,0.37,0.98c-0.01,0.99-0.01,1.98-0.02,2.97c-0.12,0.67-0.24,1.33-0.36,2
		C946.5,475.98,946.46,474,947.93,472.02z"/>
	<path class="st4" d="M911.97,499.01c-0.01,0.66-0.02,1.32-0.03,1.98C910.97,500.31,910.97,499.66,911.97,499.01z"/>
	<path class="st7" d="M887.66,478.89c-0.07,0.74-0.15,1.47-0.22,2.21C886.91,480.3,886.84,479.55,887.66,478.89z"/>
	<path class="st7" d="M887.53,483.92c0.39,0.79,0.43,1.57-0.12,2.31C886.96,485.44,886.92,484.66,887.53,483.92z"/>
	<path class="st1" d="M947.92,508.02c0.13,0.33,0.11,0.65-0.05,0.96c-0.3,0.01-0.6,0.02-0.9,0.02
		C947.29,508.68,947.6,508.35,947.92,508.02z"/>
	<path class="st7" d="M897.89,502.44c0.41-0.02,0.82-0.05,1.23-0.07C898.74,502.94,898.33,502.99,897.89,502.44z"/>
	<path class="st2" d="M855.15,465.27c0.33,0,0.66-0.01,0.99-0.01C855.81,465.26,855.48,465.26,855.15,465.27z"/>
	<path class="st3" d="M940.92,515.57c-1.58,0.81-3.17,0.72-4.77,0.1C937.72,515.03,939.32,515.09,940.92,515.57z"/>
	<path class="st8" d="M957.03,556.1c-1.01,0.23-2.02,0.46-3.04,0.69c0.02-0.78-3.99-0.81-0.59-2.07c6.03-2.24,12.14-4.63,18.43-5.75
		c5.48-0.98,10.39-3.63,16.18-4.19c-10.3-7.45-16.79-17.49-22.37-29.6c-4.18,13.5-9.88,25.03-16.05,36.33
		c-1.34,2.45-3.09,4.63,0.42,6.64c-0.69,0.22-1.38,0.44-2.07,0.66c-4.03,0.1-4.38,3.66-5.82,6.2c-5.4,7.5-9.99,15.59-16.84,21.99
		c-2.22,2.08-4.66,3.71-7.53,4.65c-3.07,1.01-5.71-0.41-7.71-2.3c-1.81-1.72-0.53-4.15,0.39-6.04c2.18-4.53,5.28-8.36,9.3-11.45
		c3.28-2.51,6.4-5.24,10.28-6.86c1.45,2.38-1.1,2.77-2.05,3.72c-4.7,4.68-9.45,9.3-12.75,15.13c-0.69,1.23-2.17,2.79-0.94,3.99
		c1.27,1.23,2.72-0.33,3.83-1.15c7.61-5.67,12.56-13.47,17.06-21.61c10.55-16.95,19.13-34.83,25.87-53.65
		c2.14-5.96-0.41-11.03-1.35-16.47c0.16-0.83,0.19-1.62-0.56-2.22c-0.22-1.94-0.44-3.88-0.66-5.81c0.05-0.16,0.17-0.34,0.12-0.47
		c-0.1-0.3-0.27-0.57-0.41-0.86c0.18-0.22,0.15-0.42-0.08-0.58c-0.03-2.34-0.06-4.68-0.08-7.02c0.27-2,0.54-4.01,0.82-6.01
		c0.21-0.93,0.42-1.87,0.63-2.8c0.23-0.29,0.47-0.59,0.7-0.88c2.91-1.26,5.87-1.65,8.9-0.42c0,0,0.14,0.04,0.14,0.04
		c0.28,0.34,0.56,0.68,0.84,1.03c0,0,0.02,0.03,0.02,0.03c0.12,0.66,0.24,1.32,0.36,1.98c-0.15,1.31-0.3,2.62-0.45,3.92
		c-0.41-0.26-0.94-0.43-1.21-0.8c-1.26-1.72-1.1-5.45-4.15-4.61c-2.84,0.78-0.92,4.09-1.5,6.19c-0.17,0.62-0.1,1.32-0.09,1.99
		c0.03,4.81-0.14,9.66,1.8,14.82c3.13-4.01,0.89-8.84,4-12.38c0.33,2.85,0.63,5.4,0.93,7.95c-0.1,1.65-0.2,3.3-0.3,4.95
		c-0.04,0.33-0.08,0.65-0.11,0.98c-0.18,2.31-0.36,4.63-0.54,6.94c-0.97,2.42-1.47,4.84,0.14,7.21c-0.07,0.35,0.04,0.64,0.32,0.86
		c-0.1,0.8,0.12,1.46,0.77,1.96c4.4,11.96,11.31,22,22.02,29.23c3.4,2.29,6.74,3.61,11.07,3.11c8.42-0.97,16.93-1.14,25.17,1.4
		c3.86,1.19,7.19,3.11,5.7,8.19c-7.53-6.57-16.56-4.77-25.32-4.53c6.71,3.22,13.41,6.34,21.13,5.78c1.21-0.09,2.69-0.87,3.5,0.86
		c-0.48,0.64-0.96,1.28-1.43,1.92c-0.94,0.32-1.89,0.63-2.83,0.95c-2.96-0.09-5.92-0.18-8.88-0.27c-1.23-0.66-2.54-0.84-3.92-0.71
		c-0.93-0.83-2.05-0.91-3.21-0.83l-0.35-0.22c0,0-0.41,0.04-0.41,0.04c-0.56-0.78-1.37-0.91-2.25-0.84l-0.28-0.23
		c0,0-0.36,0.05-0.36,0.05c-1.99-0.75-3.97-1.51-5.95-2.26c0,0-0.12,0.02-0.12,0.02c-0.71-0.3-1.43-0.61-2.14-0.92
		c0,0,0.09,0.07,0.09,0.08c-0.4-0.2-0.81-0.4-1.21-0.6c-0.88-0.42-1.75-0.85-2.63-1.27c-0.96-1.25-2.2-1.09-3.49-0.71
		c-0.58,0.04-1.17,0.07-1.75,0.11c-7.48,0.62-14.91,1.59-22.14,3.71c-0.33,0.06-0.66,0.12-1,0.17
		C964.88,553.59,960.89,554.57,957.03,556.1z"/>
	<path class="st9" d="M935.15,565.08c-4.5,8.14-9.45,15.94-17.06,21.61c-1.1,0.82-2.56,2.39-3.83,1.15
		c-1.24-1.21,0.24-2.77,0.94-3.99c3.3-5.84,8.05-10.45,12.75-15.13c0.95-0.95,3.5-1.33,2.05-3.72c0.25-1.33-0.68-3.35,1.36-3.73
		C934.13,560.76,933.47,564.19,935.15,565.08z"/>
	<path class="st6" d="M969.73,488.07c-0.3-2.55-0.6-5.1-0.93-7.95c-3.11,3.53-0.88,8.37-4,12.38c-1.94-5.16-1.77-10.01-1.8-14.82
		c0-0.67-0.08-1.37,0.09-1.99c0.58-2.11-1.34-5.41,1.5-6.19c3.06-0.84,2.89,2.89,4.15,4.61c0.27,0.37,0.8,0.54,1.21,0.8
		c-0.1,3.29,1.52,6.39,1.04,9.73C970.81,485.88,971.27,487.33,969.73,488.07z"/>
	<path class="st9" d="M1033.29,555.02c-0.81-1.73-2.29-0.95-3.5-0.86c-7.72,0.56-14.42-2.57-21.13-5.78
		c8.77-0.25,17.79-2.04,25.32,4.53c0.33,0.38,0.66,0.75,0.99,1.12C1034.41,554.36,1033.85,554.69,1033.29,555.02z"/>
	<path class="st6" d="M969.05,467.89c-3.03-1.23-5.98-0.85-8.9,0.42C962.53,464.49,965.73,464.34,969.05,467.89z"/>
	<path class="st6" d="M968.92,508.15c-1.62-2.37-1.12-4.78-0.14-7.21C971.53,503.29,968.43,505.76,968.92,508.15z"/>
	<path class="st5" d="M958,478c0.03,2.34,0.06,4.68,0.08,7.02C956.36,482.7,956.47,480.36,958,478z"/>
	<path class="st5" d="M959.46,469.19c-0.21,0.93-0.42,1.87-0.63,2.8c-0.83-0.65-2.51-0.86-2.24-2.09
		C956.89,468.48,958.42,469.22,959.46,469.19z"/>
	<path class="st9" d="M1038.93,552.54c-0.16,0.24-0.31,0.47-0.47,0.69c-0.12-0.25-0.35-0.51-0.34-0.76c0.01-0.24,0.27-0.47,0.42-0.7
		C1038.67,552.03,1038.8,552.28,1038.93,552.54z"/>
	<path class="st6" d="M970.01,510.97c-0.65-0.5-0.87-1.17-0.77-1.96C969.97,509.48,970.1,510.18,970.01,510.97z"/>
	<path class="st6" d="M970.4,470.97c-0.12-0.66-0.24-1.32-0.36-1.98C971.01,469.49,971.17,470.15,970.4,470.97z"/>
	<path class="st5" d="M959.12,492.74c0.74,0.6,0.72,1.4,0.56,2.22C958.99,494.35,958.97,493.57,959.12,492.74z"/>
	<path class="st6" d="M969.32,494c0.04-0.33,0.08-0.65,0.11-0.98c0.07,0.24,0.17,0.48,0.2,0.72
		C969.64,493.82,969.43,493.91,969.32,494z"/>
	<path class="st6" d="M970.02,468.96c-0.28-0.34-0.56-0.68-0.84-1.03C969.46,468.27,969.74,468.61,970.02,468.96z"/>
	<path class="st5" d="M958.17,485.59c0.14,0.28,0.32,0.56,0.41,0.86c0.04,0.13-0.08,0.31-0.12,0.47
		C958.37,486.48,958.27,486.04,958.17,485.59z"/>
	<path class="st8" d="M892.02,490.34c0-0.99-0.15-2.02,0.03-2.98c0.34-1.78-1.22-4.42,1.31-5.19c2.5-0.77,5.29-0.57,7.64,1.07
		c2.76,1.93,3.81,7.6,2.12,11.44c-1.85,4.18-5.6,4.1-9.29,4.05c-1.54-0.02-1.81-1.16-1.8-2.43
		C892.03,494.32,892.03,492.33,892.02,490.34z"/>
	<path class="st4" d="M875.97,482.27c1.28-0.13,1.5,0.9,1.9,1.74c0.05,0.34,0.1,0.68,0.15,1.02c0.17,5.77-3.92,4.29-7.17,4.21
		c-0.24-0.19-0.51-0.28-0.81-0.25c-1.33-0.75-0.72-1.9-0.6-2.95C871.04,483.79,873.74,483.44,875.97,482.27z"/>
	<path class="st8" d="M875.97,482.27c-2.23,1.17-4.93,1.52-6.54,3.77C868.27,479,873.35,482.77,875.97,482.27z"/>
	<path class="st8" d="M878.01,485.03c-0.05-0.34-0.1-0.68-0.15-1.02C879.1,484.17,878.17,484.66,878.01,485.03z"/>
	<path class="st8" d="M870.03,488.99c0.3-0.03,0.58,0.06,0.81,0.25C870.39,489.74,870.17,489.5,870.03,488.99z"/>
</g>
</svg>
