<?xml version="1.0" encoding="utf-8"?>
<!-- Generator: Adobe Illustrator 25.0.0, SVG Export Plug-In . SVG Version: 6.00 Build 0)  -->
<svg version="1.1" id="Calque_1" xmlns="http://www.w3.org/2000/svg" xmlns:xlink="http://www.w3.org/1999/xlink" x="0px" y="0px"
	 viewBox="0 0 1920 1080" style="enable-background:new 0 0 1920 1080;" xml:space="preserve">
<style type="text/css">
	.st0{fill:#463F32;}
	.st1{font-family:'Apple-Chancery';}
	.st2{font-size:15px;}
	.st3{letter-spacing:30;}
	.st4{fill:#FFFFFF;stroke:#8E8D8A;stroke-width:0.25;stroke-miterlimit:9.9988;}
	.st5{fill:#FFFFFF;stroke:#8E8D8A;stroke-width:0.25;stroke-miterlimit:10;}
	.st6{fill:none;stroke:#8E8D8A;stroke-width:0.25;stroke-miterlimit:10;}
</style>
<text transform="matrix(1 0 0 1 752.0146 560.8721)" class="st0 st1 st2 st3">   </text>
<text transform="matrix(1 0 0 1 752.0146 578.8721)" class="st0 st1 st2 st3">   </text>
<g>
	<g>
		<g>
			
				<ellipse transform="matrix(0.4617 -0.887 0.887 0.4617 105.4771 1035.1515)" class="st4" cx="905.6" cy="430.7" rx="3.5" ry="1.3"/>
			<path class="st5" d="M913,399.3l-5.8,28.1c1.4-3.9,2.8-8.4,3.9-13.4c1.1-5.2,1.8-10,2.2-14.4C913.2,399.5,913.1,399.4,913,399.3z
				"/>
			<path class="st6" d="M934.9,395c-7.1,1.6-14.2,2.9-21.4,4.1c-4.9-2.5-9.4-5.7-14.2-8.2"/>
			<path class="st6" d="M936.7,391c-5.6,5-13.5,7.7-21.3,7.1c-4.1-0.3-7.5-3-10.4-5.7c-3-2.7-4.9-6.7-3.9-10.5"/>
			<path class="st6" d="M905.6,382.5c-4.6,5.4,2.1,12,7,14.4c2.7,1.4,7-0.2,9.9-1.1c3.2-1,6.4-2.4,8.8-4.8"/>
			<path class="st6" d="M929.3,389.1c-5.8,1.5-11.4,4.1-16.1,7.8c-2.8-3.5-2.9-9.2-0.7-13.1"/>
			<path class="st6" d="M906.4,381.5c-1.5,2.3-1.2,5.4,0.1,7.9s3.4,4.5,5.4,6.4c3.4-0.1,7.9-0.4,11.2-1.5c3.2-1.1,6.2-3.3,7.4-6.4"
				/>
			<path class="st6" d="M916.5,386.3c-1.9,3.1-3.4,6.5-4.3,10C916.4,392.2,912.2,390.4,916.5,386.3z"/>
		</g>
		<g>
			
				<ellipse transform="matrix(0.4617 -0.887 0.887 0.4617 105.4771 1035.1515)" class="st4" cx="905.6" cy="430.7" rx="3.5" ry="1.3"/>
			<path class="st5" d="M913,399.3l-5.8,28.1c1.4-3.9,2.8-8.4,3.9-13.4c1.1-5.2,1.8-10,2.2-14.4C913.2,399.5,913.1,399.4,913,399.3z
				"/>
			<path class="st6" d="M934.9,395c-7.1,1.6-14.2,2.9-21.4,4.1c-4.9-2.5-9.4-5.7-14.2-8.2"/>
			<path class="st6" d="M936.7,391c-5.6,5-13.5,7.7-21.3,7.1c-4.1-0.3-7.5-3-10.4-5.7c-3-2.7-4.9-6.7-3.9-10.5"/>
			<path class="st6" d="M905.6,382.5c-4.6,5.4,2.1,12,7,14.4c2.7,1.4,7-0.2,9.9-1.1c3.2-1,6.4-2.4,8.8-4.8"/>
			<path class="st6" d="M929.3,389.1c-5.8,1.5-11.4,4.1-16.1,7.8c-2.8-3.5-2.9-9.2-0.7-13.1"/>
			<path class="st6" d="M906.4,381.5c-1.5,2.3-1.2,5.4,0.1,7.9s3.4,4.5,5.4,6.4c3.4-0.1,7.9-0.4,11.2-1.5c3.2-1.1,6.2-3.3,7.4-6.4"
				/>
			<path class="st6" d="M916.5,386.3c-1.9,3.1-3.4,6.5-4.3,10C916.4,392.2,912.2,390.4,916.5,386.3z"/>
		</g>
	</g>
	<g>
		<g>
			
				<ellipse transform="matrix(0.4617 -0.887 0.887 0.4617 105.4771 1035.1515)" class="st4" cx="905.6" cy="430.7" rx="3.5" ry="1.3"/>
			<path class="st5" d="M913,399.3l-5.8,28.1c1.4-3.9,2.8-8.4,3.9-13.4c1.1-5.2,1.8-10,2.2-14.4C913.2,399.5,913.1,399.4,913,399.3z
				"/>
			<path class="st6" d="M934.9,395c-7.1,1.6-14.2,2.9-21.4,4.1c-4.9-2.5-9.4-5.7-14.2-8.2"/>
			<path class="st6" d="M936.7,391c-5.6,5-13.5,7.7-21.3,7.1c-4.1-0.3-7.5-3-10.4-5.7c-3-2.7-4.9-6.7-3.9-10.5"/>
			<path class="st6" d="M905.6,382.5c-4.6,5.4,2.1,12,7,14.4c2.7,1.4,7-0.2,9.9-1.1c3.2-1,6.4-2.4,8.8-4.8"/>
			<path class="st6" d="M929.3,389.1c-5.8,1.5-11.4,4.1-16.1,7.8c-2.8-3.5-2.9-9.2-0.7-13.1"/>
			<path class="st6" d="M906.4,381.5c-1.5,2.3-1.2,5.4,0.1,7.9s3.4,4.5,5.4,6.4c3.4-0.1,7.9-0.4,11.2-1.5c3.2-1.1,6.2-3.3,7.4-6.4"
				/>
			<path class="st6" d="M916.5,386.3c-1.9,3.1-3.4,6.5-4.3,10C916.4,392.2,912.2,390.4,916.5,386.3z"/>
		</g>
		<g>
			
				<ellipse transform="matrix(0.4617 -0.887 0.887 0.4617 105.4771 1035.1515)" class="st4" cx="905.6" cy="430.7" rx="3.5" ry="1.3"/>
			<path class="st5" d="M913.1,399.4c-0.6,9.6-3.9,18.6-5.8,28C909.2,418,911.7,409,913.1,399.4z"/>
			<path class="st6" d="M934.9,395c-7.1,1.6-14.2,2.9-21.4,4.1c-4.9-2.5-9.4-5.7-14.2-8.2"/>
			<path class="st6" d="M936.7,391c-5.6,5-13.5,7.7-21.3,7.1c-4.1-0.3-7.5-3-10.4-5.7c-3-2.7-4.9-6.7-3.9-10.5"/>
			<path class="st6" d="M905.6,382.5c-4.6,5.4,2.1,12,7,14.4c2.7,1.4,7-0.2,9.9-1.1c3.2-1,6.4-2.4,8.8-4.8"/>
			<path class="st6" d="M929.3,389.1c-5.8,1.5-11.4,4.1-16.1,7.8c-2.8-3.5-2.9-9.2-0.7-13.1"/>
			<path class="st6" d="M906.4,381.5c-1.5,2.3-1.2,5.4,0.1,7.9s3.4,4.5,5.4,6.4c3.4-0.1,7.9-0.4,11.2-1.5c3.2-1.1,6.2-3.3,7.4-6.4"
				/>
			<path class="st6" d="M916.5,386.3c-1.9,3.1-3.4,6.5-4.3,10C916.4,392.2,912.2,390.4,916.5,386.3z"/>
		</g>
	</g>
</g>
</svg>
