<?xml version="1.0" encoding="utf-8"?>
<!-- Generator: Adobe Illustrator 25.0.0, SVG Export Plug-In . SVG Version: 6.00 Build 0)  -->
<svg version="1.1" id="Calque_1" xmlns="http://www.w3.org/2000/svg" xmlns:xlink="http://www.w3.org/1999/xlink" x="0px" y="0px"
	 viewBox="0 0 1920 1080" style="enable-background:new 0 0 1920 1080;" xml:space="preserve">
<style type="text/css">
	.st0{fill:#F1EDA3;}
</style>
<g>
	<g>
		<path class="st0" d="M742.32,508.28c19.02,0,38.04,0,57.23,0c-0.17,1.52-0.34,3.05-0.34,4.57c-0.51,5.59-1.01,11.01-1.51,16.6
			c-0.5,6.1-1.01,12.2-1.68,18.29c-0.51,5.42-1.01,10.84-1.35,16.26c-0.17,1.86-0.17,1.86-1.85,2.37c-6.9,2.03-13.97,4.07-20.87,6.1
			c-0.67,0.17-1.35,0.17-2.02,0c-7.24-2.03-14.48-4.23-21.71-6.27c-0.67-0.34-0.84-0.51-0.84-1.02c-0.5-5.59-1.01-11.01-1.51-16.6
			c-0.51-6.1-1.01-12.2-1.68-18.46c-0.34-5.25-0.84-10.67-1.35-16.09C742.66,512.17,742.49,510.31,742.32,508.28z M746.02,511.67
			c0,0.34,0,0.68,0,0.85c0.67,7.96,1.35,15.92,2.19,23.88c0.67,8.64,1.51,17.28,2.19,25.91c0,0.68,0.34,0.85,0.84,1.02
			c6.23,1.69,12.46,3.56,18.68,5.42c0.51,0.17,1.18,0.17,1.85,0c6.23-1.69,12.46-3.56,18.68-5.42c0.5-0.17,0.84-0.51,0.84-1.02
			c0.17-1.69,0.34-3.39,0.34-5.08c0.67-6.78,1.18-13.38,1.85-20.16c0.67-6.94,1.18-13.72,1.85-20.66c0.17-1.52,0.34-3.05,0.5-4.74
			C779.18,511.67,762.69,511.67,746.02,511.67z"/>
		<path class="st0" d="M757.13,545.54c2.36,0,4.54,0,6.73,0c0,1.19,0.17,2.37,0.17,3.56c0,0.51,0.17,0.68,0.67,0.85
			c2.02,0.68,3.87,1.35,5.89,2.03c0.34,0.17,0.67,0.17,1.01,0c2.02-0.68,4.04-1.36,5.89-2.03c0.17,0,0.51-0.34,0.51-0.51
			c0.17-2.37,0.34-4.74,0.5-7.28c-4.88,0-9.76,0-14.81,0c-0.17-2.2-0.17-4.4-0.34-6.78c5.22,0,10.27,0,15.49,0
			c0.17-2.37,0.34-4.57,0.51-6.78c-7.74,0-15.49,0-23.23,0c-0.34-2.2-0.5-4.57-0.67-6.78c10.27,0,20.54,0,30.8,0
			c-0.17,2.2-0.34,4.4-0.34,6.44c-0.34,6.1-0.67,12.2-1.18,18.29c-0.17,2.54-0.34,5.08-0.51,7.62c0,0.17-0.34,0.68-0.5,0.68
			c-4.04,1.36-8.25,2.71-12.29,4.07c-0.34,0.17-0.67,0-0.84,0c-4.04-1.36-8.08-2.71-12.29-4.07c-0.17,0-0.67-0.34-0.67-0.51
			C757.47,551.47,757.3,548.59,757.13,545.54z"/>
	</g>
	<g>
		<path class="st0" d="M674.6,509.03c0-0.23-0.11-0.56,0.34-0.45c0.11,0,0.11,0,0.23,0c18.59,0,37.06,0,55.65,0
			c-0.11,1.24-0.23,2.48-0.34,3.72c-0.34,4.39-0.79,8.79-1.13,13.18c-0.45,4.39-0.79,8.79-1.24,13.29
			c-0.34,4.39-0.79,8.79-1.13,13.18c-0.45,4.51-0.79,8.9-1.24,13.41c0,0.45-0.11,0.68-0.56,0.79c-7.32,2.03-14.64,4.06-21.85,6.08
			c-0.34,0.11-0.79,0.11-1.13,0c-7.21-2.03-14.42-4.06-21.74-5.97c-0.56-0.11-0.79-0.34-0.79-0.9c0-0.56-0.11-1.13-0.11-1.58
			c-0.45-5.52-1.01-10.93-1.46-16.22s-0.9-10.7-1.46-16c-0.56-6.42-1.13-12.96-1.69-19.38C674.83,511.06,674.72,510.05,674.6,509.03
			z M725.64,513.32c-15.32,0-30.53,0-45.74,0c0.11,1.01,0.11,2.03,0.23,2.93c0.45,4.84,0.9,9.69,1.35,14.65
			c0.45,4.84,0.9,9.69,1.24,14.64c0.45,5.41,1.01,10.81,1.46,16.22c0,0.45,0.23,0.56,0.56,0.68c5.86,1.58,11.72,3.27,17.57,4.84
			c0.23,0.11,0.56,0.11,0.79,0c5.86-1.58,11.72-3.27,17.69-4.84c0.34-0.11,0.56-0.23,0.56-0.68c0.11-1.58,0.23-3.04,0.34-4.62
			c0.34-3.94,0.68-7.77,1.01-11.72c0.45-4.51,0.79-8.9,1.24-13.41c0.34-3.94,0.68-7.89,1.01-11.83
			C725.18,517.93,725.41,515.68,725.64,513.32z"/>
		<path class="st0" d="M687.11,541.59c-0.68-7.1-1.35-14.19-1.92-21.29c11.72,0,23.43,0,35.15,0c-0.23,2.37-0.45,4.62-0.68,6.98
			c-9.01,0-17.91,0-26.92,0c0.23,2.37,0.45,4.73,0.68,7.21c8.56,0,17.01,0,25.57,0c-0.23,2.03-0.34,3.94-0.56,5.86
			c-0.34,3.94-0.68,7.89-1.01,11.83c-0.11,1.13-0.23,2.25-0.34,3.38c0,0.34-0.11,0.56-0.56,0.68c-4.51,1.24-9.01,2.48-13.41,3.72
			c-0.23,0.11-0.56,0.11-0.79,0c-4.51-1.24-9.01-2.48-13.52-3.72c-0.34-0.11-0.56-0.23-0.56-0.56c-0.23-3.27-0.56-6.53-0.9-9.69
			c0-0.23,0-0.56,0-0.79c2.37,0,4.62,0,6.98,0c0.11,1.24,0.23,2.37,0.34,3.6c0.11,0.68-0.11,1.46,0.23,1.92s1.13,0.45,1.8,0.56
			c1.8,0.45,3.72,1.01,5.52,1.46c0.23,0.11,0.56,0.11,0.79,0c2.37-0.68,4.73-1.24,7.1-1.92c0.23,0,0.45-0.34,0.45-0.45
			c0.23-2.93,0.56-5.75,0.79-8.79C703.33,541.59,695.22,541.59,687.11,541.59z"/>
	</g>
	<g>
		<path class="st0" d="M817.26,510.41c17.86,0,35.61,0,53.35,0c0.72,0.36,0.97,0.84,0.84,1.69c-0.24,2.05-0.48,4.1-0.6,6.16
			c-0.72,7.48-1.45,14.97-2.29,22.33c-0.72,7-1.45,14.12-2.05,21.12c-0.12,0.84-0.48,1.21-1.21,1.45
			c-6.4,2.41-12.67,4.71-19.07,7.12c-0.72,0.24-1.45,0.24-2.17,0c-7.24-2.41-14.61-4.83-21.85-7.24c-0.6-0.24-0.97-0.6-0.97-1.33
			c-0.36-4.59-0.84-9.29-1.33-14c-0.6-5.67-1.21-11.35-1.69-17.02c-0.72-6.16-1.33-12.31-1.93-18.35
			C816.17,511.38,816.41,510.78,817.26,510.41z M858.42,525.74c0,0.24-0.12,0.36-0.12,0.6c-0.24,0.97-0.48,1.93-0.6,2.9
			c-0.12,0.72,0.24,1.33,0.84,1.45c0.72,0.24,1.21-0.12,1.57-0.84c0-0.12,0.12-0.24,0.12-0.48c0.36-1.33,0.72-2.78,1.09-4.1
			c0.24-1.21,0-1.69-1.21-1.81c-0.12,0-0.36,0-0.48,0c-4.1,0-8.21,0-12.19,0c-1.09,0-1.45,0.36-1.45,1.45c0,4.83,0,9.78,0,14.61
			c0,1.09,0.36,1.45,1.45,1.45c2.53,0,5.07,0,7.6,0c0.24,0,0.48,0,0.6,0c0,0.12,0,0.24,0,0.36c-0.6,3.62-1.21,7.24-1.93,10.86
			c0,0.24-0.24,0.48-0.48,0.48c-1.33,0.48-2.66,0.84-3.98,1.33c-0.72,0.24-1.45,0.48-2.17,0.72c-0.6,0.24-0.97,0.72-0.84,1.33
			c0.12,0.6,0.72,0.97,1.33,0.97c0.24,0,0.36,0,0.6-0.12c2.41-0.84,4.71-1.57,7.12-2.41c0.6-0.24,0.97-0.6,1.09-1.21
			c0.84-4.47,1.57-8.81,2.41-13.28c0.24-1.21-0.24-1.81-1.57-1.81c-2.53,0-5.19,0-7.73,0c-0.24,0-0.36,0-0.6,0
			c0-4.22,0-8.33,0-12.55C851.9,525.74,855.16,525.74,858.42,525.74z M841.4,554.11c-0.24,0-0.36-0.12-0.48-0.12
			c-1.81-0.48-3.62-0.97-5.43-1.45c-0.48-0.12-0.6-0.36-0.72-0.72c-0.24-1.57-0.6-3.14-0.84-4.59c0-0.24-0.12-0.48-0.24-0.72
			c-0.36-0.6-0.84-0.72-1.45-0.48c-0.72,0.24-1.09,0.72-0.84,1.33c0.36,2.05,0.84,4.1,1.21,6.16c0.12,0.6,0.6,1.09,1.21,1.33
			c2.9,0.84,5.79,1.69,8.69,2.41c0.48,0.12,0.97,0,1.21-0.48c0.12-0.36,0.24-0.72,0.24-1.21c0-10.14,0-20.4,0-30.54
			c0-1.33-0.36-1.69-1.57-1.69c-4.83,0-9.54,0-14.36,0c-0.12,0-0.36,0-0.48,0c-0.6,0.12-0.97,0.48-1.09,1.09
			c-0.12,0.84,0.36,1.45,1.45,1.45c4.35,0,8.57,0,12.92,0c0.24,0,0.48,0,0.72,0C841.4,535.16,841.4,544.57,841.4,554.11z"/>
	</g>
</g>
</svg>
