<?xml version="1.0" encoding="utf-8"?>
<!-- Generator: Adobe Illustrator 25.0.0, SVG Export Plug-In . SVG Version: 6.00 Build 0)  -->
<svg version="1.1" id="Calque_1" xmlns="http://www.w3.org/2000/svg" xmlns:xlink="http://www.w3.org/1999/xlink" x="0px" y="0px"
	 viewBox="0 0 1920 1080" style="enable-background:new 0 0 1920 1080;" xml:space="preserve">
<style type="text/css">
	.st0{fill:#F1EDA3;}
</style>
<g>
	<g>
		<path class="st0" d="M743.32,504.43c19.02,0,38.04,0,57.23,0c-0.17,1.52-0.34,3.05-0.34,4.57c-0.51,5.59-1.01,11.01-1.51,16.6
			c-0.5,6.1-1.01,12.2-1.68,18.29c-0.51,5.42-1.01,10.84-1.35,16.26c-0.17,1.86-0.17,1.86-1.85,2.37c-6.9,2.03-13.97,4.07-20.87,6.1
			c-0.67,0.17-1.35,0.17-2.02,0c-7.24-2.03-14.48-4.23-21.71-6.27c-0.67-0.34-0.84-0.51-0.84-1.02c-0.5-5.59-1.01-11.01-1.51-16.6
			c-0.51-6.1-1.01-12.2-1.68-18.46c-0.34-5.25-0.84-10.67-1.35-16.09C743.66,508.33,743.49,506.46,743.32,504.43z M747.02,507.82
			c0,0.34,0,0.68,0,0.85c0.67,7.96,1.35,15.92,2.19,23.88c0.67,8.64,1.51,17.28,2.19,25.91c0,0.68,0.34,0.85,0.84,1.02
			c6.23,1.69,12.46,3.56,18.68,5.42c0.51,0.17,1.18,0.17,1.85,0c6.23-1.69,12.46-3.56,18.68-5.42c0.5-0.17,0.84-0.51,0.84-1.02
			c0.17-1.69,0.34-3.39,0.34-5.08c0.67-6.78,1.18-13.38,1.85-20.16c0.67-6.94,1.18-13.72,1.85-20.66c0.17-1.52,0.34-3.05,0.5-4.74
			C780.18,507.82,763.69,507.82,747.02,507.82z"/>
		<path class="st0" d="M758.13,541.69c2.36,0,4.54,0,6.73,0c0,1.19,0.17,2.37,0.17,3.56c0,0.51,0.17,0.68,0.67,0.85
			c2.02,0.68,3.87,1.36,5.89,2.03c0.34,0.17,0.67,0.17,1.01,0c2.02-0.68,4.04-1.35,5.89-2.03c0.17,0,0.51-0.34,0.51-0.51
			c0.17-2.37,0.34-4.74,0.5-7.28c-4.88,0-9.76,0-14.81,0c-0.17-2.2-0.17-4.4-0.34-6.78c5.22,0,10.27,0,15.49,0
			c0.17-2.37,0.34-4.57,0.51-6.78c-7.74,0-15.49,0-23.23,0c-0.34-2.2-0.5-4.57-0.67-6.78c10.27,0,20.54,0,30.8,0
			c-0.17,2.2-0.34,4.4-0.34,6.44c-0.34,6.1-0.67,12.2-1.18,18.29c-0.17,2.54-0.34,5.08-0.51,7.62c0,0.17-0.34,0.68-0.5,0.68
			c-4.04,1.36-8.25,2.71-12.29,4.07c-0.34,0.17-0.67,0-0.84,0c-4.04-1.36-8.08-2.71-12.29-4.07c-0.17,0-0.67-0.34-0.67-0.51
			C758.47,547.62,758.3,544.74,758.13,541.69z"/>
	</g>
	<g>
		<path class="st0" d="M675.6,505.19c0-0.23-0.11-0.56,0.34-0.45c0.11,0,0.11,0,0.23,0c18.59,0,37.06,0,55.65,0
			c-0.11,1.24-0.23,2.48-0.34,3.72c-0.34,4.39-0.79,8.79-1.13,13.18c-0.45,4.39-0.79,8.79-1.24,13.29
			c-0.34,4.39-0.79,8.79-1.13,13.18c-0.45,4.51-0.79,8.9-1.24,13.41c0,0.45-0.11,0.68-0.56,0.79c-7.32,2.03-14.64,4.06-21.85,6.08
			c-0.34,0.11-0.79,0.11-1.13,0c-7.21-2.03-14.42-4.06-21.74-5.97c-0.56-0.11-0.79-0.34-0.79-0.9s-0.11-1.13-0.11-1.58
			c-0.45-5.52-1.01-10.93-1.46-16.22c-0.45-5.29-0.9-10.7-1.46-16c-0.56-6.42-1.13-12.96-1.69-19.38
			C675.83,507.21,675.72,506.2,675.6,505.19z M726.64,509.47c-15.32,0-30.53,0-45.74,0c0.11,1.01,0.11,2.03,0.23,2.93
			c0.45,4.84,0.9,9.69,1.35,14.64c0.45,4.84,0.9,9.69,1.24,14.65c0.45,5.41,1.01,10.81,1.46,16.22c0,0.45,0.23,0.56,0.56,0.68
			c5.86,1.58,11.72,3.27,17.57,4.84c0.23,0.11,0.56,0.11,0.79,0c5.86-1.58,11.72-3.27,17.69-4.84c0.34-0.11,0.56-0.23,0.56-0.68
			c0.11-1.58,0.23-3.04,0.34-4.62c0.34-3.94,0.68-7.77,1.01-11.72c0.45-4.51,0.79-8.9,1.24-13.41c0.34-3.94,0.68-7.89,1.01-11.83
			C726.18,514.08,726.41,511.83,726.64,509.47z"/>
		<path class="st0" d="M688.11,537.74c-0.68-7.1-1.35-14.19-1.92-21.29c11.72,0,23.43,0,35.15,0c-0.23,2.37-0.45,4.62-0.68,6.98
			c-9.01,0-17.91,0-26.92,0c0.23,2.37,0.45,4.73,0.68,7.21c8.56,0,17.01,0,25.57,0c-0.23,2.03-0.34,3.94-0.56,5.86
			c-0.34,3.94-0.68,7.89-1.01,11.83c-0.11,1.13-0.23,2.25-0.34,3.38c0,0.34-0.11,0.56-0.56,0.68c-4.51,1.24-9.01,2.48-13.41,3.72
			c-0.23,0.11-0.56,0.11-0.79,0c-4.51-1.24-9.01-2.48-13.52-3.72c-0.34-0.11-0.56-0.23-0.56-0.56c-0.23-3.27-0.56-6.53-0.9-9.69
			c0-0.23,0-0.56,0-0.79c2.37,0,4.62,0,6.98,0c0.11,1.24,0.23,2.37,0.34,3.6c0.11,0.68-0.11,1.46,0.23,1.92
			c0.34,0.45,1.13,0.45,1.8,0.56c1.8,0.45,3.72,1.01,5.52,1.46c0.23,0.11,0.56,0.11,0.79,0c2.37-0.68,4.73-1.24,7.1-1.92
			c0.23,0,0.45-0.34,0.45-0.45c0.23-2.93,0.56-5.75,0.79-8.79C704.33,537.74,696.22,537.74,688.11,537.74z"/>
	</g>
	<g>
		<g>
			<path class="st0" d="M913.06,527.26L913.06,527.26c-0.33,1.67-1,4-1.33,6l-2,6.33h6.67l-1.67-6.33
				C914.06,531.26,913.72,528.92,913.06,527.26z"/>
			<path class="st0" d="M945.06,506.59h-52.67c-2,0-3.67,1.67-3.67,3.67v52.67c0,2,1.67,3.67,3.67,3.67h52.67
				c2,0,3.67-1.67,3.67-3.67v-52.67C948.72,508.26,947.06,506.59,945.06,506.59z M920.06,552.59l-2.33-8h-8.67l-2.33,8h-7
				l9.33-30.67h9l9.33,30.67H920.06z M938.06,552.59h-7v-22h7C938.06,530.59,938.06,552.59,938.06,552.59z M934.39,527.59
				c-2.33,0-3.67-1.67-3.67-3.33c0-2,1.33-3.33,3.67-3.33s3.67,1.33,3.67,3.33S936.72,527.59,934.39,527.59z"/>
		</g>
	</g>
	<g>
		<path class="st0" d="M991.81,505.86c1.6,0,3.17,0,4.77,0c0.31,0.08,0.62,0.19,0.95,0.22c12.92,1.26,23.88,10.38,27.11,22.61
			c0.48,1.83,0.73,3.71,1.09,5.57c0,1.56,0,3.09,0,4.64c-0.08,0.35-0.2,0.68-0.22,1.04c-1.71,12.23-8.47,20.7-20.15,25.31
			c-2.75,1.09-5.83,1.39-8.77,2.08c-1.6,0-3.17,0-4.77,0c-0.31-0.08-0.62-0.19-0.95-0.22c-12.45-1.2-23.13-9.69-26.77-21.43
			c-0.67-2.18-0.98-4.51-1.46-6.74c0-1.56,0-3.09,0-4.64c0.08-0.35,0.2-0.68,0.22-1.04c1.85-12.83,9.08-21.46,21.58-25.8
			C986.82,506.62,989.37,506.38,991.81,505.86z M974.94,536.58c0,3.74-0.03,7.45,0,11.19c0.03,4.42,2.8,7.13,7.34,7.15
			c7.93,0.03,15.87,0.03,23.83,0c4.54,0,7.32-2.7,7.34-7.15c0.03-7.45,0.03-14.91,0-22.39c-0.03-4.42-2.8-7.13-7.34-7.15
			c-7.93-0.03-15.87-0.03-23.83,0c-4.54,0-7.32,2.73-7.34,7.15C974.91,529.12,974.94,532.84,974.94,536.58z"/>
		<path class="st0" d="M983.74,527.7c2.3,0,4.48-0.11,6.64,0.03c3.06,0.19,5.16,2.32,5.33,5.16c0.2,3-1.57,5.22-4.71,5.79
			c-1.23,0.22-2.49,0.25-3.95,0.38c0,0.79,0,1.61,0,2.46c0,0.82,0,1.61,0,2.51c-1.15,0-2.19,0-3.31,0
			C983.74,538.62,983.74,533.25,983.74,527.7z M987.13,530.71c0,1.8,0,3.47,0,5.22c1.71,0.14,3.45,0.33,4.54-1.09
			c0.48-0.66,0.59-2.02,0.22-2.76C990.94,530.16,988.95,530.79,987.13,530.71z"/>
		<path class="st0" d="M1006,534.8c-1.26-0.19-2.55-0.44-3.81-0.49c-0.42-0.03-0.9,0.46-1.35,0.71c0.31,0.35,0.56,0.82,0.95,1.04
			c0.98,0.52,2.05,0.9,3.03,1.39c1.37,0.68,2.02,1.8,1.91,3.33s-0.92,2.57-2.33,3.11c-2.02,0.82-4.12,0.66-6.17,0.05
			c-0.34-0.11-0.7-0.66-0.78-1.06c-0.14-0.66-0.03-1.34-0.03-2.02c1.46,0.25,2.83,0.57,4.23,0.68c0.5,0.03,1.07-0.46,1.63-0.71
			c-0.39-0.38-0.73-0.87-1.18-1.15c-0.62-0.38-1.37-0.57-2.02-0.9c-2.07-1.01-2.86-2.4-2.47-4.23c0.36-1.69,1.93-2.89,3.98-3.06
			c0.5-0.03,1.04-0.05,1.54,0C1006.59,531.74,1006.25,531.83,1006,534.8z"/>
	</g>
	<g>
		<path class="st0" d="M1064.47,566.69c-5.88,0-11.8,0-17.69,0c-7.33-0.03-12.38-5.11-12.41-12.48c-0.03-11.8-0.03-23.57,0-35.37
			c0-7.23,5.11-12.35,12.35-12.35c11.83-0.03,23.7-0.03,35.53,0c7.2,0,12.32,5.14,12.32,12.38c0.03,11.83,0.03,23.7,0,35.53
			c0,7.14-5.14,12.25-12.25,12.28C1076.37,566.72,1070.42,566.69,1064.47,566.69z M1064.34,560.78c5.72,0,11.45,0,17.2,0
			c4.73,0,7.11-2.38,7.11-7.14c0-11.35,0-22.7,0-34.05c0-4.76-2.35-7.14-7.07-7.14c-11.42,0-22.83,0-34.21,0
			c-4.63,0-7.01,2.38-7.01,7.04c0,11.42,0,22.83,0,34.21c0,4.66,2.38,7.04,7.01,7.04C1052.99,560.78,1058.68,560.78,1064.34,560.78z
			"/>
		<path class="st0" d="M1055.31,540.87c-1.38,2.96-2.67,5.56-3.83,8.2c-0.51,1.13-1.16,1.7-2.44,1.54c-0.84-0.1-1.7,0-2.57-0.03
			c-1.38-0.03-1.64-0.42-1-1.67c1.9-3.7,3.83-7.43,5.82-11.06c0.55-1.03,0.51-1.8,0-2.8c-1.86-3.6-3.67-7.27-5.47-10.9
			c-0.8-1.58-0.61-1.7,1.09-1.93c3.15-0.45,5.11,0.51,6.05,3.73c0.55,1.93,1.67,3.67,2.67,5.82c1.19-2.6,2.41-4.89,3.34-7.3
			c0.68-1.77,1.67-2.38,3.57-2.28c3.34,0.16,3.76-0.26,1.93,3.18c-1.7,3.15-3.25,6.4-4.95,9.55c-0.48,0.87-0.42,1.51,0.03,2.35
			c2.03,3.76,3.96,7.59,5.95,11.38c0.84,1.61,0.64,1.93-1.19,1.96c-4.21,0.06-4.21,0.06-6.08-3.83
			C1057.27,544.89,1056.37,543.06,1055.31,540.87z"/>
		<path class="st0" d="M1077.36,529.01c0-1.83,0.03-3.54,0-5.24c-0.03-1.06,0.32-1.54,1.48-1.51c5.05,0.13,4.08-0.71,4.12,3.96
			c0.06,7.3,0.06,14.57,0.03,21.87c0,0.51-0.35,1.32-0.74,1.51c-3.38,1.51-6.88,2.03-10.45,0.68c-4.12-1.58-6.43-6.17-5.79-11.25
			c0.77-6.08,4.34-9.45,10.48-9.84C1076.69,529.1,1076.91,529.07,1077.36,529.01z M1077.2,545.63c0.03-0.13,0.13-0.29,0.13-0.45
			c0-2.99,0.03-5.98,0.03-8.97c0-2.32-0.8-2.89-2.83-1.7c-1,0.61-2.12,1.74-2.35,2.8c-0.39,1.77-0.39,3.7-0.03,5.47
			C1072.6,545.25,1074.66,546.21,1077.2,545.63z"/>
	</g>
	<g>
		<path class="st0" d="M867.51,536.6c0,4.82-0.03,9.64,0.02,14.46c0.01,0.99-0.27,1.56-1.15,2.06c-8.44,4.82-16.86,9.69-25.27,14.57
			c-0.76,0.44-1.32,0.49-2.11,0.03c-8.45-4.91-16.91-9.79-25.39-14.65c-0.76-0.44-1.08-0.91-1.08-1.83c0.04-9.78,0.04-19.56,0-29.34
			c0-0.93,0.34-1.38,1.09-1.81c8.48-4.86,16.94-9.74,25.39-14.64c0.71-0.41,1.25-0.46,1.99-0.03c8.45,4.91,16.91,9.79,25.39,14.65
			c0.8,0.46,1.15,0.96,1.14,1.93C867.48,526.87,867.51,531.74,867.51,536.6z M854.28,528.25c0.09-0.52,0.22-1.14,0.32-1.77
			c0.45-2.83,0.72-5.66-0.36-8.42c-1-2.56-2.96-3.73-5.56-2.95c-1.85,0.56-3.62,1.52-5.31,2.49c-1.21,0.7-2.23,1.72-3.35,2.6
			c-0.86-0.7-1.65-1.4-2.49-2.03c-1.92-1.44-3.94-2.68-6.37-3.11c-2.61-0.46-4.72,0.54-5.37,3.08c-0.52,2.04-0.53,4.24-0.55,6.37
			c-0.02,1.29,0.37,2.59,0.58,3.92c-0.65,0.22-1.22,0.4-1.77,0.61c-2.56,0.93-5.02,2.05-6.91,4.11c-1.97,2.15-2.11,4.59-0.11,6.65
			c1.29,1.32,2.89,2.38,4.49,3.33c1.32,0.78,2.84,1.23,4.31,1.84c-0.62,2.94-1.1,5.88-0.47,8.87c0.75,3.54,3.07,5.12,6.55,4.16
			c1.65-0.46,3.21-1.32,4.7-2.2c1.25-0.74,2.33-1.76,3.58-2.73c0.38,0.33,0.75,0.75,1.2,1.04c2.01,1.26,3.92,2.78,6.08,3.66
			c3.72,1.52,6.59-0.06,7.18-4.02c0.37-2.45,0.16-5.02-0.09-7.5c-0.13-1.22,0.08-1.62,1.21-2.02c1.67-0.61,3.33-1.36,4.82-2.31
			c5.16-3.29,5.14-7.48-0.07-10.66C858.61,530.08,856.49,529.3,854.28,528.25z"/>
		<path class="st0" d="M840.6,544.5c-5.1,0.02-5.18,0.07-7.31-3.81c-2.79-5.08-2.77-3.08-0.01-8.17c2.08-3.84,2.16-3.8,6.55-3.81
			c4.77-0.01,4.85-0.05,7.16,4.18c2.53,4.62,2.47,2.71,0.01,7.44c-0.02,0.04-0.06,0.07-0.07,0.12
			C845.68,543.63,843.6,545.39,840.6,544.5z M844.34,536.56c0.01-2.38-1.86-4.29-4.23-4.32c-2.44-0.04-4.38,1.88-4.38,4.31
			c0,2.36,1.89,4.3,4.23,4.36C842.33,540.96,844.33,538.99,844.34,536.56z"/>
		<path class="st0" d="M826.34,530.42c0.81,2.03,1.58,3.93,2.33,5.83c0.08,0.19,0.09,0.46,0.02,0.65c-0.76,1.95-1.54,3.89-2.36,5.95
			c-2.87-0.87-5.56-1.94-7.63-4.15c-1.43-1.53-1.41-2.83,0.06-4.33C820.81,532.29,823.48,531.34,826.34,530.42z"/>
		<path class="st0" d="M827.84,545.47c2.13,0.27,4.16,0.52,6.19,0.8c0.24,0.03,0.53,0.2,0.68,0.4c1.29,1.6,2.56,3.22,3.91,4.92
			c-2.14,2.01-4.4,3.77-7.28,4.51c-2.14,0.55-3.36-0.16-3.89-2.33C826.76,550.98,827.15,548.23,827.84,545.47z"/>
		<path class="st0" d="M852.32,545.38c0.7,3,1.13,5.96,0.09,8.93c-0.64,1.83-1.83,2.33-3.87,1.73c-2.72-0.8-4.86-2.5-6.92-4.46
			c1.31-1.71,2.58-3.38,3.87-5.04c0.12-0.16,0.38-0.28,0.58-0.31C848.11,545.95,850.15,545.68,852.32,545.38z"/>
		<path class="st0" d="M841.55,521.68c2.07-1.93,4.22-3.69,6.98-4.51c2.26-0.67,3.47,0.05,4.08,2.36c0.54,2.07,0.39,5.33-0.43,8.3
			c-2.09-0.29-4.2-0.57-6.31-0.91c-0.26-0.04-0.5-0.38-0.69-0.62C844.01,524.83,842.86,523.34,841.55,521.68z"/>
		<path class="st0" d="M827.88,527.83c-0.73-2.88-1.11-5.67-0.4-8.49c0.52-2.09,1.71-2.74,3.81-2.2c2.88,0.75,5.11,2.54,7.27,4.52
			c-1.33,1.69-2.59,3.3-3.87,4.89c-0.16,0.19-0.43,0.36-0.68,0.4C832.02,527.27,830.04,527.53,827.88,527.83z"/>
		<path class="st0" d="M853.84,542.76c-0.82-1.98-1.58-3.78-2.31-5.6c-0.11-0.28-0.2-0.66-0.1-0.91c0.73-1.91,1.51-3.8,2.31-5.77
			c2.7,0.8,5.24,1.79,7.31,3.68c1.79,1.64,1.81,3.11,0.05,4.8C859.07,540.91,856.52,541.9,853.84,542.76z"/>
		<path class="st0" d="M851.83,543.32c-1.64,0.29-3.01,0.52-4.67,0.81c1.02-1.79,1.9-3.33,2.97-5.19
			C850.73,540.51,851.23,541.79,851.83,543.32z"/>
		<path class="st0" d="M842.97,546.62c-1,1.22-1.85,2.26-2.83,3.47c-1.01-1.18-1.91-2.23-2.97-3.47
			C839.16,546.62,840.92,546.62,842.97,546.62z"/>
		<path class="st0" d="M829.97,538.99c1.06,1.85,1.94,3.38,2.96,5.16c-1.61-0.26-2.93-0.47-4.54-0.73
			C828.91,541.96,829.38,540.64,829.97,538.99z"/>
		<path class="st0" d="M840.05,523.16c0.98,1.16,1.85,2.2,2.88,3.43c-1.99,0-3.74,0-5.74,0
			C838.18,525.4,839.06,524.34,840.05,523.16z"/>
		<path class="st0" d="M829.97,534.2c-0.58-1.57-1.04-2.83-1.58-4.29c1.53-0.27,2.89-0.52,4.49-0.8
			C831.89,530.86,831.02,532.38,829.97,534.2z"/>
		<path class="st0" d="M847.16,529.1c1.53,0.27,2.69,0.47,3.86,0.69c0.17,0.03,0.32,0.16,0.61,0.31c-0.48,1.29-0.95,2.54-1.52,4.09
			C849.07,532.4,848.19,530.89,847.16,529.1z"/>
	</g>
</g>
</svg>
