<?xml version="1.0" encoding="utf-8"?>
<!-- Generator: Adobe Illustrator 25.0.0, SVG Export Plug-In . SVG Version: 6.00 Build 0)  -->
<svg version="1.1" id="Calque_1" xmlns="http://www.w3.org/2000/svg" xmlns:xlink="http://www.w3.org/1999/xlink" x="0px" y="0px"
	 viewBox="0 0 1920 1080" style="enable-background:new 0 0 1920 1080;" xml:space="preserve">
<style type="text/css">
	.st0{fill:#F1EDA3;}
</style>
<g>
	<g>
		<path class="st0" d="M818.32,508.29c19.02,0,38.04,0,57.23,0c-0.17,1.52-0.34,3.05-0.34,4.57c-0.51,5.59-1.01,11.01-1.51,16.6
			c-0.5,6.1-1.01,12.2-1.68,18.29c-0.51,5.42-1.01,10.84-1.35,16.26c-0.17,1.86-0.17,1.86-1.85,2.37c-6.9,2.03-13.97,4.07-20.87,6.1
			c-0.67,0.17-1.35,0.17-2.02,0c-7.24-2.03-14.48-4.23-21.71-6.27c-0.67-0.34-0.84-0.51-0.84-1.02c-0.5-5.59-1.01-11.01-1.51-16.6
			c-0.51-6.1-1.01-12.2-1.68-18.46c-0.34-5.25-0.84-10.67-1.35-16.09C818.66,512.19,818.49,510.33,818.32,508.29z M822.02,511.68
			c0,0.34,0,0.68,0,0.85c0.67,7.96,1.35,15.92,2.19,23.88c0.67,8.64,1.51,17.28,2.19,25.91c0,0.68,0.34,0.85,0.84,1.02
			c6.23,1.69,12.46,3.56,18.68,5.42c0.51,0.17,1.18,0.17,1.85,0c6.23-1.69,12.46-3.56,18.68-5.42c0.5-0.17,0.84-0.51,0.84-1.02
			c0.17-1.69,0.34-3.39,0.34-5.08c0.67-6.78,1.18-13.38,1.85-20.16c0.67-6.94,1.18-13.72,1.85-20.66c0.17-1.52,0.34-3.05,0.5-4.74
			C855.18,511.68,838.69,511.68,822.02,511.68z"/>
		<path class="st0" d="M833.13,545.56c2.36,0,4.54,0,6.73,0c0,1.19,0.17,2.37,0.17,3.56c0,0.51,0.17,0.68,0.67,0.85
			c2.02,0.68,3.87,1.36,5.89,2.03c0.34,0.17,0.67,0.17,1.01,0c2.02-0.68,4.04-1.36,5.89-2.03c0.17,0,0.51-0.34,0.51-0.51
			c0.17-2.37,0.34-4.74,0.5-7.28c-4.88,0-9.76,0-14.81,0c-0.17-2.2-0.17-4.4-0.34-6.78c5.22,0,10.27,0,15.49,0
			c0.17-2.37,0.34-4.57,0.51-6.78c-7.74,0-15.49,0-23.23,0c-0.34-2.2-0.5-4.57-0.67-6.78c10.27,0,20.54,0,30.8,0
			c-0.17,2.2-0.34,4.4-0.34,6.44c-0.34,6.1-0.67,12.2-1.18,18.29c-0.17,2.54-0.34,5.08-0.51,7.62c0,0.17-0.34,0.68-0.5,0.68
			c-4.04,1.36-8.25,2.71-12.29,4.07c-0.34,0.17-0.67,0-0.84,0c-4.04-1.36-8.08-2.71-12.29-4.07c-0.17,0-0.67-0.34-0.67-0.51
			C833.47,551.48,833.3,548.61,833.13,545.56z"/>
	</g>
	<g>
		<path class="st0" d="M750.6,509.05c0-0.23-0.11-0.56,0.34-0.45c0.11,0,0.11,0,0.23,0c18.59,0,37.06,0,55.65,0
			c-0.11,1.24-0.23,2.48-0.34,3.72c-0.34,4.39-0.79,8.79-1.13,13.18c-0.45,4.39-0.79,8.79-1.24,13.29
			c-0.34,4.39-0.79,8.79-1.13,13.18c-0.45,4.51-0.79,8.9-1.24,13.41c0,0.45-0.11,0.68-0.56,0.79c-7.32,2.03-14.64,4.06-21.85,6.08
			c-0.34,0.11-0.79,0.11-1.13,0c-7.21-2.03-14.42-4.06-21.74-5.97c-0.56-0.11-0.79-0.34-0.79-0.9c0-0.56-0.11-1.13-0.11-1.58
			c-0.45-5.52-1.01-10.93-1.46-16.22c-0.45-5.29-0.9-10.7-1.46-16c-0.56-6.42-1.13-12.96-1.69-19.38
			C750.83,511.08,750.72,510.06,750.6,509.05z M801.64,513.33c-15.32,0-30.53,0-45.74,0c0.11,1.01,0.11,2.03,0.23,2.93
			c0.45,4.84,0.9,9.69,1.35,14.64c0.45,4.84,0.9,9.69,1.24,14.65c0.45,5.41,1.01,10.81,1.46,16.22c0,0.45,0.23,0.56,0.56,0.68
			c5.86,1.58,11.72,3.27,17.57,4.84c0.23,0.11,0.56,0.11,0.79,0c5.86-1.58,11.72-3.27,17.69-4.84c0.34-0.11,0.56-0.23,0.56-0.68
			c0.11-1.58,0.23-3.04,0.34-4.62c0.34-3.94,0.68-7.77,1.01-11.72c0.45-4.51,0.79-8.9,1.24-13.41c0.34-3.94,0.68-7.89,1.01-11.83
			C801.18,517.95,801.41,515.7,801.64,513.33z"/>
		<path class="st0" d="M763.11,541.61c-0.68-7.1-1.35-14.19-1.92-21.29c11.72,0,23.43,0,35.15,0c-0.23,2.37-0.45,4.62-0.68,6.98
			c-9.01,0-17.91,0-26.92,0c0.23,2.37,0.45,4.73,0.68,7.21c8.56,0,17.01,0,25.57,0c-0.23,2.03-0.34,3.94-0.56,5.86
			c-0.34,3.94-0.68,7.89-1.01,11.83c-0.11,1.13-0.23,2.25-0.34,3.38c0,0.34-0.11,0.56-0.56,0.68c-4.51,1.24-9.01,2.48-13.41,3.72
			c-0.23,0.11-0.56,0.11-0.79,0c-4.51-1.24-9.01-2.48-13.52-3.72c-0.34-0.11-0.56-0.23-0.56-0.56c-0.23-3.27-0.56-6.53-0.9-9.69
			c0-0.23,0-0.56,0-0.79c2.37,0,4.62,0,6.98,0c0.11,1.24,0.23,2.37,0.34,3.6c0.11,0.68-0.11,1.46,0.23,1.92s1.13,0.45,1.8,0.56
			c1.8,0.45,3.72,1.01,5.52,1.46c0.23,0.11,0.56,0.11,0.79,0c2.37-0.68,4.73-1.24,7.1-1.92c0.23,0,0.45-0.34,0.45-0.45
			c0.23-2.93,0.56-5.75,0.79-8.79C779.33,541.61,771.22,541.61,763.11,541.61z"/>
	</g>
	<g>
		<path class="st0" d="M952.04,535.29c0,7.58,0,15.15,0,22.73c-0.44,0.3-0.87,0.63-1.33,0.89c-7.19,4.2-14.4,8.37-21.58,12.58
			c-2.52,1.48-5,3.02-7.5,4.53c-0.3,0-0.59,0-0.89,0c-0.35-0.25-0.68-0.53-1.05-0.74c-9.31-5.34-18.61-10.71-27.97-15.98
			c-1.17-0.66-1.51-1.38-1.5-2.65c0.02-3.18-0.11-6.37-0.18-9.55c0-8.07,0-16.14,0-24.21c0.44-0.3,0.87-0.63,1.33-0.9
			c8.38-4.89,16.76-9.76,25.14-14.65c1.34-0.78,2.63-1.64,3.94-2.46c0.3,0,0.59,0,0.89,0c0.35,0.25,0.68,0.53,1.05,0.74
			c9.19,5.27,18.35,10.57,27.59,15.75c1.46,0.82,1.91,1.73,1.89,3.33C951.81,528.23,951.97,531.76,952.04,535.29z M911.83,561.02
			c2.84,1.38,5.51,2.62,8.12,3.96c1.18,0.61,2.17,0.56,3.3-0.14c6.03-3.7,12.08-7.35,18.14-11c1.12-0.67,1.68-1.61,1.68-2.9
			c0.01-6.99,0.01-13.97,0.01-20.96c0-1.29-0.56-2.23-1.69-2.9c-6.01-3.53-12.02-7.07-18.01-10.64c-1.22-0.73-2.33-0.79-3.58-0.06
			c-6.15,3.59-12.32,7.14-18.49,10.69c-1.13,0.65-1.71,1.58-1.71,2.88c0,7.04-0.03,14.07,0.05,21.1c0.01,0.85,0.43,1.85,0.99,2.5
			c1.02,1.18,2.19,2.29,3.47,3.16c3.55,2.41,7.55,1.91,10.57-1.14c0.87-0.88,1.33-1.85,1.32-3.14c-0.04-6.89-0.07-13.78,0.02-20.66
			c0.02-1.57-0.69-1.64-1.86-1.59c-1.12,0.05-2.18-0.28-2.14,1.61c0.12,6.34,0.04,12.69,0.04,19.04c0,2.94-2.41,4.34-4.98,2.85
			c-0.93-0.54-1.86-1.15-2.62-1.89c-0.46-0.45-0.86-1.21-0.87-1.84c-0.06-6.15-0.02-12.3-0.06-18.45c-0.01-0.91,0.3-1.41,1.09-1.86
			c5.29-3.01,10.57-6.05,15.81-9.14c0.86-0.51,1.49-0.43,2.28,0.05c5.06,3.02,10.12,6.03,15.22,8.99c0.89,0.51,1.21,1.09,1.2,2.1
			c-0.04,5.85-0.05,11.71,0.01,17.56c0.01,1.08-0.37,1.68-1.27,2.22c-5.1,3.05-10.18,6.14-15.24,9.25c-0.84,0.51-1.5,0.6-2.42,0.12
			c-2.15-1.14-4.38-2.13-6.7-3.24C912.93,558.75,912.42,559.79,911.83,561.02z M934.72,536.64c-0.35-2.54-1.05-3.81-2.8-4.68
			c-3.32-1.65-6.75-1.75-10.08-0.15c-2.11,1.01-3.22,2.88-3.12,5.27c0.1,2.29,1.33,3.85,3.42,4.72c0.81,0.34,1.65,0.62,2.5,0.87
			c1.79,0.53,3.61,0.94,5.37,1.54c2.24,0.76,2.64,2.88,0.92,4.48c-2.39,2.21-7.49,1.27-8.64-1.74c-0.53-1.39-1.29-1.51-2.44-1.24
			c-0.51,0.12-1.02,0.24-1.52,0.36c0.61,3.78,2.89,6.18,6.39,6.57c1.45,0.16,2.95,0.16,4.41,0.01c3.6-0.37,6.23-2.88,6.56-6.13
			c0.3-2.94-1.35-4.87-5.24-6.08c-2.11-0.65-4.24-1.22-6.35-1.86c-1.06-0.32-1.87-0.97-1.85-2.18c0.02-1.25,0.8-2.11,1.93-2.28
			c1.47-0.22,3.03-0.3,4.49-0.06c0.77,0.13,1.75,0.93,2.03,1.66c0.53,1.37,1.35,1.49,2.52,1.22
			C933.67,536.84,934.15,536.76,934.72,536.64z"/>
	</g>
</g>
</svg>
