<?xml version="1.0" encoding="utf-8"?>
<!-- Generator: Adobe Illustrator 25.0.0, SVG Export Plug-In . SVG Version: 6.00 Build 0)  -->
<svg version="1.1" id="Calque_1" xmlns="http://www.w3.org/2000/svg" xmlns:xlink="http://www.w3.org/1999/xlink" x="0px" y="0px"
	 viewBox="0 0 60.01 60.01" style="enable-background:new 0 0 60.01 60.01;" xml:space="preserve">
<style type="text/css">
	.st0{fill:#05A9C7;}
</style>
<g>
	<g>
		<path class="st0" d="M24.34,20.68L24.34,20.68c-0.33,1.67-1,4-1.33,6l-2,6.33h6.67l-1.67-6.33C25.34,24.68,25,22.34,24.34,20.68z"
			/>
		<path class="st0" d="M56.34,0H3.67C1.67,0,0,1.67,0,3.67v52.67c0,2,1.67,3.67,3.67,3.67h52.67c2,0,3.67-1.67,3.67-3.67V3.67
			C60,1.68,58.34,0,56.34,0z M31.34,46l-2.33-8h-8.67l-2.33,8h-7l9.33-30.67h9L38.67,46H31.34z M49.34,46h-7V24h7V46z M45.67,21
			C43.34,21,42,19.33,42,17.67c0-2,1.33-3.33,3.67-3.33s3.67,1.33,3.67,3.33S48,21,45.67,21z"/>
	</g>
</g>
</svg>
