<?xml version="1.0" encoding="utf-8"?>
<!-- Generator: Adobe Illustrator 25.0.0, SVG Export Plug-In . SVG Version: 6.00 Build 0)  -->
<svg version="1.1" id="Calque_1" xmlns="http://www.w3.org/2000/svg" xmlns:xlink="http://www.w3.org/1999/xlink" x="0px" y="0px"
	 viewBox="0 0 1920 1080" style="enable-background:new 0 0 1920 1080;" xml:space="preserve">
<style type="text/css">
	.st0{fill:#F1EDA3;}
</style>
<g>
	<g>
		<path class="st0" d="M818.32,508.28c19.02,0,38.04,0,57.23,0c-0.17,1.52-0.34,3.05-0.34,4.57c-0.51,5.59-1.01,11.01-1.51,16.6
			c-0.5,6.1-1.01,12.2-1.68,18.29c-0.51,5.42-1.01,10.84-1.35,16.26c-0.17,1.86-0.17,1.86-1.85,2.37c-6.9,2.03-13.97,4.07-20.87,6.1
			c-0.67,0.17-1.35,0.17-2.02,0c-7.24-2.03-14.48-4.23-21.71-6.27c-0.67-0.34-0.84-0.51-0.84-1.02c-0.5-5.59-1.01-11.01-1.51-16.6
			c-0.51-6.1-1.01-12.2-1.68-18.46c-0.34-5.25-0.84-10.67-1.35-16.09C818.66,512.17,818.49,510.31,818.32,508.28z M822.02,511.67
			c0,0.34,0,0.68,0,0.85c0.67,7.96,1.35,15.92,2.19,23.88c0.67,8.64,1.51,17.28,2.19,25.91c0,0.68,0.34,0.85,0.84,1.02
			c6.23,1.69,12.46,3.56,18.68,5.42c0.51,0.17,1.18,0.17,1.85,0c6.23-1.69,12.46-3.56,18.68-5.42c0.5-0.17,0.84-0.51,0.84-1.02
			c0.17-1.69,0.34-3.39,0.34-5.08c0.67-6.78,1.18-13.38,1.85-20.16c0.67-6.94,1.18-13.72,1.85-20.66c0.17-1.52,0.34-3.05,0.5-4.74
			C855.18,511.67,838.69,511.67,822.02,511.67z"/>
		<path class="st0" d="M833.13,545.54c2.36,0,4.54,0,6.73,0c0,1.19,0.17,2.37,0.17,3.56c0,0.51,0.17,0.68,0.67,0.85
			c2.02,0.68,3.87,1.35,5.89,2.03c0.34,0.17,0.67,0.17,1.01,0c2.02-0.68,4.04-1.36,5.89-2.03c0.17,0,0.51-0.34,0.51-0.51
			c0.17-2.37,0.34-4.74,0.5-7.28c-4.88,0-9.76,0-14.81,0c-0.17-2.2-0.17-4.4-0.34-6.78c5.22,0,10.27,0,15.49,0
			c0.17-2.37,0.34-4.57,0.51-6.78c-7.74,0-15.49,0-23.23,0c-0.34-2.2-0.5-4.57-0.67-6.78c10.27,0,20.54,0,30.8,0
			c-0.17,2.2-0.34,4.4-0.34,6.44c-0.34,6.1-0.67,12.2-1.18,18.29c-0.17,2.54-0.34,5.08-0.51,7.62c0,0.17-0.34,0.68-0.5,0.68
			c-4.04,1.36-8.25,2.71-12.29,4.07c-0.34,0.17-0.67,0-0.84,0c-4.04-1.36-8.08-2.71-12.29-4.07c-0.17,0-0.67-0.34-0.67-0.51
			C833.47,551.47,833.3,548.59,833.13,545.54z"/>
	</g>
	<g>
		<path class="st0" d="M750.6,509.03c0-0.23-0.11-0.56,0.34-0.45c0.11,0,0.11,0,0.23,0c18.59,0,37.06,0,55.65,0
			c-0.11,1.24-0.23,2.48-0.34,3.72c-0.34,4.39-0.79,8.79-1.13,13.18c-0.45,4.39-0.79,8.79-1.24,13.29
			c-0.34,4.39-0.79,8.79-1.13,13.18c-0.45,4.51-0.79,8.9-1.24,13.41c0,0.45-0.11,0.68-0.56,0.79c-7.32,2.03-14.64,4.06-21.85,6.08
			c-0.34,0.11-0.79,0.11-1.13,0c-7.21-2.03-14.42-4.06-21.74-5.97c-0.56-0.11-0.79-0.34-0.79-0.9c0-0.56-0.11-1.13-0.11-1.58
			c-0.45-5.52-1.01-10.93-1.46-16.22s-0.9-10.7-1.46-16c-0.56-6.42-1.13-12.96-1.69-19.38C750.83,511.06,750.72,510.05,750.6,509.03
			z M801.64,513.32c-15.32,0-30.53,0-45.74,0c0.11,1.01,0.11,2.03,0.23,2.93c0.45,4.84,0.9,9.69,1.35,14.65
			c0.45,4.84,0.9,9.69,1.24,14.64c0.45,5.41,1.01,10.81,1.46,16.22c0,0.45,0.23,0.56,0.56,0.68c5.86,1.58,11.72,3.27,17.57,4.84
			c0.23,0.11,0.56,0.11,0.79,0c5.86-1.58,11.72-3.27,17.69-4.84c0.34-0.11,0.56-0.23,0.56-0.68c0.11-1.58,0.23-3.04,0.34-4.62
			c0.34-3.94,0.68-7.77,1.01-11.72c0.45-4.51,0.79-8.9,1.24-13.41c0.34-3.94,0.68-7.89,1.01-11.83
			C801.18,517.93,801.41,515.68,801.64,513.32z"/>
		<path class="st0" d="M763.11,541.59c-0.68-7.1-1.35-14.19-1.92-21.29c11.72,0,23.43,0,35.15,0c-0.23,2.37-0.45,4.62-0.68,6.98
			c-9.01,0-17.91,0-26.92,0c0.23,2.37,0.45,4.73,0.68,7.21c8.56,0,17.01,0,25.57,0c-0.23,2.03-0.34,3.94-0.56,5.86
			c-0.34,3.94-0.68,7.89-1.01,11.83c-0.11,1.13-0.23,2.25-0.34,3.38c0,0.34-0.11,0.56-0.56,0.68c-4.51,1.24-9.01,2.48-13.41,3.72
			c-0.23,0.11-0.56,0.11-0.79,0c-4.51-1.24-9.01-2.48-13.52-3.72c-0.34-0.11-0.56-0.23-0.56-0.56c-0.23-3.27-0.56-6.53-0.9-9.69
			c0-0.23,0-0.56,0-0.79c2.37,0,4.62,0,6.98,0c0.11,1.24,0.23,2.37,0.34,3.6c0.11,0.68-0.11,1.46,0.23,1.92s1.13,0.45,1.8,0.56
			c1.8,0.45,3.72,1.01,5.52,1.46c0.23,0.11,0.56,0.11,0.79,0c2.37-0.68,4.73-1.24,7.1-1.92c0.23,0,0.45-0.34,0.45-0.45
			c0.23-2.93,0.56-5.75,0.79-8.79C779.33,541.59,771.22,541.59,763.11,541.59z"/>
	</g>
	<g>
		<path class="st0" d="M942.51,540.45c0,4.82-0.03,9.64,0.02,14.46c0.01,0.99-0.27,1.56-1.15,2.06
			c-8.44,4.82-16.86,9.69-25.27,14.57c-0.76,0.44-1.32,0.49-2.11,0.03c-8.45-4.91-16.91-9.79-25.39-14.65
			c-0.76-0.44-1.08-0.91-1.08-1.83c0.04-9.78,0.04-19.56,0-29.34c0-0.93,0.34-1.38,1.09-1.81c8.48-4.86,16.94-9.74,25.39-14.64
			c0.71-0.41,1.25-0.46,1.99-0.03c8.45,4.91,16.91,9.79,25.39,14.65c0.8,0.46,1.15,0.96,1.14,1.93
			C942.48,530.72,942.51,535.59,942.51,540.45z M929.28,532.1c0.09-0.52,0.22-1.14,0.32-1.77c0.45-2.83,0.72-5.66-0.36-8.42
			c-1-2.56-2.96-3.73-5.56-2.95c-1.85,0.56-3.62,1.52-5.31,2.49c-1.21,0.7-2.23,1.72-3.35,2.6c-0.86-0.7-1.65-1.4-2.49-2.03
			c-1.92-1.44-3.94-2.68-6.37-3.11c-2.61-0.46-4.72,0.54-5.37,3.08c-0.52,2.04-0.53,4.24-0.55,6.37c-0.02,1.29,0.37,2.59,0.58,3.92
			c-0.65,0.22-1.22,0.4-1.77,0.61c-2.56,0.93-5.02,2.05-6.91,4.11c-1.97,2.15-2.11,4.59-0.11,6.65c1.29,1.32,2.89,2.38,4.49,3.33
			c1.32,0.78,2.84,1.23,4.31,1.84c-0.62,2.94-1.1,5.88-0.47,8.87c0.75,3.54,3.07,5.12,6.55,4.16c1.65-0.46,3.21-1.32,4.7-2.2
			c1.25-0.74,2.33-1.76,3.58-2.73c0.38,0.33,0.75,0.75,1.2,1.04c2.01,1.26,3.92,2.78,6.08,3.66c3.72,1.52,6.59-0.06,7.18-4.02
			c0.37-2.45,0.16-5.02-0.09-7.5c-0.13-1.22,0.08-1.62,1.21-2.02c1.67-0.61,3.33-1.36,4.82-2.31c5.16-3.29,5.14-7.48-0.07-10.66
			C933.61,533.93,931.49,533.15,929.28,532.1z"/>
		<path class="st0" d="M915.6,548.35c-5.1,0.02-5.18,0.07-7.31-3.81c-2.79-5.08-2.77-3.08-0.01-8.17c2.08-3.84,2.16-3.8,6.55-3.81
			c4.77-0.01,4.85-0.05,7.16,4.18c2.53,4.62,2.47,2.71,0.01,7.44c-0.02,0.04-0.06,0.07-0.07,0.12
			C920.68,547.48,918.6,549.24,915.6,548.35z M919.34,540.41c0.01-2.38-1.86-4.29-4.23-4.32c-2.44-0.04-4.38,1.88-4.38,4.31
			c0,2.36,1.89,4.3,4.23,4.36C917.33,544.81,919.33,542.83,919.34,540.41z"/>
		<path class="st0" d="M901.34,534.27c0.81,2.03,1.58,3.93,2.33,5.83c0.08,0.19,0.09,0.46,0.02,0.65c-0.76,1.95-1.54,3.89-2.36,5.95
			c-2.87-0.87-5.56-1.94-7.63-4.15c-1.43-1.53-1.41-2.83,0.06-4.33C895.81,536.13,898.48,535.19,901.34,534.27z"/>
		<path class="st0" d="M902.84,549.32c2.13,0.27,4.16,0.52,6.19,0.8c0.24,0.03,0.53,0.2,0.68,0.4c1.29,1.6,2.56,3.22,3.91,4.92
			c-2.14,2.01-4.4,3.77-7.28,4.51c-2.14,0.55-3.36-0.16-3.89-2.33C901.76,554.83,902.15,552.08,902.84,549.32z"/>
		<path class="st0" d="M927.32,549.23c0.7,3,1.13,5.96,0.09,8.93c-0.64,1.83-1.83,2.33-3.87,1.73c-2.72-0.8-4.86-2.5-6.92-4.46
			c1.31-1.71,2.58-3.38,3.87-5.04c0.12-0.16,0.38-0.28,0.58-0.31C923.11,549.8,925.15,549.53,927.32,549.23z"/>
		<path class="st0" d="M916.55,525.53c2.07-1.93,4.22-3.69,6.98-4.51c2.26-0.67,3.47,0.05,4.08,2.36c0.54,2.07,0.39,5.33-0.43,8.3
			c-2.09-0.29-4.2-0.57-6.31-0.91c-0.26-0.04-0.5-0.38-0.69-0.62C919.01,528.68,917.86,527.19,916.55,525.53z"/>
		<path class="st0" d="M902.88,531.68c-0.73-2.88-1.11-5.67-0.4-8.49c0.52-2.09,1.71-2.74,3.81-2.2c2.88,0.75,5.11,2.54,7.27,4.52
			c-1.33,1.69-2.59,3.3-3.87,4.89c-0.16,0.19-0.43,0.36-0.68,0.4C907.02,531.12,905.04,531.38,902.88,531.68z"/>
		<path class="st0" d="M928.84,546.61c-0.82-1.98-1.58-3.78-2.31-5.6c-0.11-0.28-0.2-0.66-0.1-0.91c0.73-1.91,1.51-3.8,2.31-5.77
			c2.7,0.8,5.24,1.79,7.31,3.68c1.79,1.64,1.81,3.11,0.05,4.8C934.07,544.76,931.52,545.75,928.84,546.61z"/>
		<path class="st0" d="M926.83,547.17c-1.64,0.29-3.01,0.52-4.67,0.81c1.02-1.79,1.9-3.33,2.97-5.19
			C925.73,544.36,926.23,545.64,926.83,547.17z"/>
		<path class="st0" d="M917.97,550.47c-1,1.22-1.85,2.26-2.83,3.47c-1.01-1.18-1.91-2.23-2.97-3.47
			C914.16,550.47,915.92,550.47,917.97,550.47z"/>
		<path class="st0" d="M904.97,542.84c1.06,1.85,1.94,3.38,2.96,5.16c-1.61-0.26-2.93-0.47-4.54-0.73
			C903.91,545.81,904.38,544.49,904.97,542.84z"/>
		<path class="st0" d="M915.05,527.01c0.98,1.16,1.85,2.2,2.88,3.43c-1.99,0-3.74,0-5.74,0
			C913.18,529.25,914.06,528.19,915.05,527.01z"/>
		<path class="st0" d="M904.97,538.05c-0.58-1.57-1.04-2.83-1.58-4.29c1.53-0.27,2.89-0.52,4.49-0.8
			C906.89,534.71,906.02,536.23,904.97,538.05z"/>
		<path class="st0" d="M922.16,532.95c1.53,0.27,2.69,0.47,3.86,0.69c0.17,0.03,0.32,0.16,0.61,0.31c-0.48,1.29-0.95,2.54-1.52,4.09
			C924.07,536.25,923.19,534.73,922.16,532.95z"/>
	</g>
</g>
</svg>
