<?xml version="1.0" encoding="utf-8"?>
<!-- Generator: Adobe Illustrator 25.0.0, SVG Export Plug-In . SVG Version: 6.00 Build 0)  -->
<svg version="1.1" id="Calque_1" xmlns="http://www.w3.org/2000/svg" xmlns:xlink="http://www.w3.org/1999/xlink" x="0px" y="0px"
	 viewBox="0 0 1920 1080" style="enable-background:new 0 0 1920 1080;" xml:space="preserve">
<style type="text/css">
	.st0{fill:#05A9C7;}
</style>
<g>
	<g>
		<path class="st0" d="M886.11,530.67L886.11,530.67c-0.33,1.67-1,4-1.33,6l-2,6.33h6.67l-1.67-6.33
			C887.11,534.67,886.77,532.33,886.11,530.67z"/>
		<path class="st0" d="M918.11,509.99h-52.67c-2,0-3.67,1.67-3.67,3.67v52.67c0,2,1.67,3.67,3.67,3.67h52.67
			c2,0,3.67-1.67,3.67-3.67v-52.67C921.77,511.67,920.11,509.99,918.11,509.99z M893.11,555.99l-2.33-8h-8.67l-2.33,8h-7l9.33-30.67
			h9l9.33,30.67H893.11z M911.11,555.99h-7v-22h7V555.99z M907.44,530.99c-2.33,0-3.67-1.67-3.67-3.33c0-2,1.33-3.33,3.67-3.33
			s3.67,1.33,3.67,3.33S909.77,530.99,907.44,530.99z"/>
	</g>
</g>
</svg>
