<?xml version="1.0" encoding="utf-8"?>
<!-- Generator: Adobe Illustrator 25.0.0, SVG Export Plug-In . SVG Version: 6.00 Build 0)  -->
<svg version="1.1" id="Calque_1" xmlns="http://www.w3.org/2000/svg" xmlns:xlink="http://www.w3.org/1999/xlink" x="0px" y="0px"
	 viewBox="0 0 1920 1080" style="enable-background:new 0 0 1920 1080;" xml:space="preserve">
<style type="text/css">
	.st0{fill:#F1EDA3;}
</style>
<g>
	<g>
		<path class="st0" d="M733.32,433.62c19.02,0,38.04,0,57.23,0c-0.17,1.52-0.34,3.05-0.34,4.57c-0.51,5.59-1.01,11.01-1.51,16.6
			c-0.5,6.1-1.01,12.2-1.68,18.29c-0.51,5.42-1.01,10.84-1.35,16.26c-0.17,1.86-0.17,1.86-1.85,2.37c-6.9,2.03-13.97,4.07-20.87,6.1
			c-0.67,0.17-1.35,0.17-2.02,0c-7.24-2.03-14.48-4.23-21.71-6.27c-0.67-0.34-0.84-0.51-0.84-1.02c-0.5-5.59-1.01-11.01-1.51-16.6
			c-0.51-6.1-1.01-12.2-1.68-18.46c-0.34-5.25-0.84-10.67-1.35-16.09C733.66,437.52,733.49,435.66,733.32,433.62z M737.02,437.01
			c0,0.34,0,0.68,0,0.85c0.67,7.96,1.35,15.92,2.19,23.88c0.67,8.64,1.51,17.28,2.19,25.91c0,0.68,0.34,0.85,0.84,1.02
			c6.23,1.69,12.46,3.56,18.68,5.42c0.51,0.17,1.18,0.17,1.85,0c6.23-1.69,12.46-3.56,18.68-5.42c0.5-0.17,0.84-0.51,0.84-1.02
			c0.17-1.69,0.34-3.39,0.34-5.08c0.67-6.78,1.18-13.38,1.85-20.16c0.67-6.94,1.18-13.72,1.85-20.66c0.17-1.52,0.34-3.05,0.5-4.74
			C770.18,437.01,753.69,437.01,737.02,437.01z"/>
		<path class="st0" d="M748.13,470.89c2.36,0,4.54,0,6.73,0c0,1.19,0.17,2.37,0.17,3.56c0,0.51,0.17,0.68,0.67,0.85
			c2.02,0.68,3.87,1.36,5.89,2.03c0.34,0.17,0.67,0.17,1.01,0c2.02-0.68,4.04-1.36,5.89-2.03c0.17,0,0.51-0.34,0.51-0.51
			c0.17-2.37,0.34-4.74,0.5-7.28c-4.88,0-9.76,0-14.81,0c-0.17-2.2-0.17-4.4-0.34-6.78c5.22,0,10.27,0,15.49,0
			c0.17-2.37,0.34-4.57,0.51-6.78c-7.74,0-15.49,0-23.23,0c-0.34-2.2-0.5-4.57-0.67-6.78c10.27,0,20.54,0,30.8,0
			c-0.17,2.2-0.34,4.4-0.34,6.44c-0.34,6.1-0.67,12.2-1.18,18.29c-0.17,2.54-0.34,5.08-0.51,7.62c0,0.17-0.34,0.68-0.5,0.68
			c-4.04,1.36-8.25,2.71-12.29,4.07c-0.34,0.17-0.67,0-0.84,0c-4.04-1.36-8.08-2.71-12.29-4.07c-0.17,0-0.67-0.34-0.67-0.51
			C748.47,476.82,748.3,473.94,748.13,470.89z"/>
	</g>
	<g>
		<path class="st0" d="M665.6,434.38c0-0.23-0.11-0.56,0.34-0.45c0.11,0,0.11,0,0.23,0c18.59,0,37.06,0,55.65,0
			c-0.11,1.24-0.23,2.48-0.34,3.72c-0.34,4.39-0.79,8.79-1.13,13.18c-0.45,4.39-0.79,8.79-1.24,13.29
			c-0.34,4.39-0.79,8.79-1.13,13.18c-0.45,4.51-0.79,8.9-1.24,13.41c0,0.45-0.11,0.68-0.56,0.79c-7.32,2.03-14.64,4.06-21.85,6.08
			c-0.34,0.11-0.79,0.11-1.13,0c-7.21-2.03-14.42-4.06-21.74-5.97c-0.56-0.11-0.79-0.34-0.79-0.9s-0.11-1.13-0.11-1.58
			c-0.45-5.52-1.01-10.93-1.46-16.22c-0.45-5.29-0.9-10.7-1.46-16c-0.56-6.42-1.13-12.96-1.69-19.38
			C665.83,436.41,665.72,435.39,665.6,434.38z M716.64,438.66c-15.32,0-30.53,0-45.74,0c0.11,1.01,0.11,2.03,0.23,2.93
			c0.45,4.84,0.9,9.69,1.35,14.64c0.45,4.84,0.9,9.69,1.24,14.64c0.45,5.41,1.01,10.81,1.46,16.22c0,0.45,0.23,0.56,0.56,0.68
			c5.86,1.58,11.72,3.27,17.57,4.84c0.23,0.11,0.56,0.11,0.79,0c5.86-1.58,11.72-3.27,17.69-4.84c0.34-0.11,0.56-0.23,0.56-0.68
			c0.11-1.58,0.23-3.04,0.34-4.62c0.34-3.94,0.68-7.77,1.01-11.72c0.45-4.51,0.79-8.9,1.24-13.41c0.34-3.94,0.68-7.89,1.01-11.83
			C716.18,443.28,716.41,441.03,716.64,438.66z"/>
		<path class="st0" d="M678.11,466.94c-0.68-7.1-1.35-14.19-1.92-21.29c11.72,0,23.43,0,35.15,0c-0.23,2.37-0.45,4.62-0.68,6.98
			c-9.01,0-17.91,0-26.92,0c0.23,2.37,0.45,4.73,0.68,7.21c8.56,0,17.01,0,25.57,0c-0.23,2.03-0.34,3.94-0.56,5.86
			c-0.34,3.94-0.68,7.89-1.01,11.83c-0.11,1.13-0.23,2.25-0.34,3.38c0,0.34-0.11,0.56-0.56,0.68c-4.51,1.24-9.01,2.48-13.41,3.72
			c-0.23,0.11-0.56,0.11-0.79,0c-4.51-1.24-9.01-2.48-13.52-3.72c-0.34-0.11-0.56-0.23-0.56-0.56c-0.23-3.27-0.56-6.53-0.9-9.69
			c0-0.23,0-0.56,0-0.79c2.37,0,4.62,0,6.98,0c0.11,1.24,0.23,2.37,0.34,3.6c0.11,0.68-0.11,1.46,0.23,1.92s1.13,0.45,1.8,0.56
			c1.8,0.45,3.72,1.01,5.52,1.46c0.23,0.11,0.56,0.11,0.79,0c2.37-0.68,4.73-1.24,7.1-1.92c0.23,0,0.45-0.34,0.45-0.45
			c0.23-2.93,0.56-5.75,0.79-8.79C694.33,466.94,686.22,466.94,678.11,466.94z"/>
	</g>
	<g>
		<g>
			<path class="st0" d="M1042.06,456.45L1042.06,456.45c-0.33,1.67-1,4-1.33,6l-2,6.33h6.67l-1.67-6.33
				C1043.06,460.45,1042.72,458.12,1042.06,456.45z"/>
			<path class="st0" d="M1074.06,435.79h-52.67c-2,0-3.67,1.67-3.67,3.67v52.67c0,2,1.67,3.67,3.67,3.67h52.67
				c2,0,3.67-1.67,3.67-3.67v-52.67C1077.72,437.45,1076.06,435.79,1074.06,435.79z M1049.06,481.79l-2.33-8h-8.67l-2.33,8h-7
				l9.33-30.67h9l9.33,30.67H1049.06z M1067.06,481.79h-7v-22h7C1067.06,459.79,1067.06,481.79,1067.06,481.79z M1063.39,456.79
				c-2.33,0-3.67-1.67-3.67-3.33c0-2,1.33-3.33,3.67-3.33s3.67,1.33,3.67,3.33S1065.72,456.79,1063.39,456.79z"/>
		</g>
	</g>
	<g>
		<path class="st0" d="M808.26,435.76c17.86,0,35.61,0,53.35,0c0.72,0.36,0.97,0.84,0.84,1.69c-0.24,2.05-0.48,4.1-0.6,6.16
			c-0.72,7.48-1.45,14.97-2.29,22.33c-0.72,7-1.45,14.12-2.05,21.12c-0.12,0.84-0.48,1.21-1.21,1.45
			c-6.4,2.41-12.67,4.71-19.07,7.12c-0.72,0.24-1.45,0.24-2.17,0c-7.24-2.41-14.61-4.83-21.85-7.24c-0.6-0.24-0.97-0.6-0.97-1.33
			c-0.36-4.59-0.84-9.29-1.33-14c-0.6-5.67-1.21-11.35-1.69-17.02c-0.72-6.16-1.33-12.31-1.93-18.35
			C807.17,436.73,807.41,436.12,808.26,435.76z M849.42,451.09c0,0.24-0.12,0.36-0.12,0.6c-0.24,0.97-0.48,1.93-0.6,2.9
			c-0.12,0.72,0.24,1.33,0.84,1.45c0.72,0.24,1.21-0.12,1.57-0.84c0-0.12,0.12-0.24,0.12-0.48c0.36-1.33,0.72-2.78,1.09-4.1
			c0.24-1.21,0-1.69-1.21-1.81c-0.12,0-0.36,0-0.48,0c-4.1,0-8.21,0-12.19,0c-1.09,0-1.45,0.36-1.45,1.45c0,4.83,0,9.78,0,14.61
			c0,1.09,0.36,1.45,1.45,1.45c2.53,0,5.07,0,7.6,0c0.24,0,0.48,0,0.6,0c0,0.12,0,0.24,0,0.36c-0.6,3.62-1.21,7.24-1.93,10.86
			c0,0.24-0.24,0.48-0.48,0.48c-1.33,0.48-2.66,0.84-3.98,1.33c-0.72,0.24-1.45,0.48-2.17,0.72c-0.6,0.24-0.97,0.72-0.84,1.33
			c0.12,0.6,0.72,0.97,1.33,0.97c0.24,0,0.36,0,0.6-0.12c2.41-0.84,4.71-1.57,7.12-2.41c0.6-0.24,0.97-0.6,1.09-1.21
			c0.84-4.47,1.57-8.81,2.41-13.28c0.24-1.21-0.24-1.81-1.57-1.81c-2.53,0-5.19,0-7.73,0c-0.24,0-0.36,0-0.6,0
			c0-4.22,0-8.33,0-12.55C842.9,451.09,846.16,451.09,849.42,451.09z M832.4,479.46c-0.24,0-0.36-0.12-0.48-0.12
			c-1.81-0.48-3.62-0.97-5.43-1.45c-0.48-0.12-0.6-0.36-0.72-0.72c-0.24-1.57-0.6-3.14-0.84-4.59c0-0.24-0.12-0.48-0.24-0.72
			c-0.36-0.6-0.84-0.72-1.45-0.48c-0.72,0.24-1.09,0.72-0.84,1.33c0.36,2.05,0.84,4.1,1.21,6.16c0.12,0.6,0.6,1.09,1.21,1.33
			c2.9,0.84,5.79,1.69,8.69,2.41c0.48,0.12,0.97,0,1.21-0.48c0.12-0.36,0.24-0.72,0.24-1.21c0-10.14,0-20.4,0-30.54
			c0-1.33-0.36-1.69-1.57-1.69c-4.83,0-9.54,0-14.36,0c-0.12,0-0.36,0-0.48,0c-0.6,0.12-0.97,0.48-1.09,1.09
			c-0.12,0.84,0.36,1.45,1.45,1.45c4.35,0,8.57,0,12.92,0c0.24,0,0.48,0,0.72,0C832.4,460.5,832.4,469.92,832.4,479.46z"/>
	</g>
	<g>
		<path class="st0" d="M1124.81,435.05c1.6,0,3.17,0,4.77,0c0.31,0.08,0.62,0.19,0.95,0.22c12.92,1.26,23.88,10.38,27.11,22.61
			c0.48,1.83,0.73,3.71,1.09,5.57c0,1.56,0,3.09,0,4.64c-0.08,0.35-0.2,0.68-0.22,1.04c-1.71,12.23-8.47,20.7-20.15,25.31
			c-2.75,1.09-5.83,1.39-8.77,2.08c-1.6,0-3.17,0-4.77,0c-0.31-0.08-0.62-0.19-0.95-0.22c-12.45-1.2-23.13-9.69-26.77-21.43
			c-0.67-2.18-0.98-4.51-1.46-6.74c0-1.56,0-3.09,0-4.64c0.08-0.35,0.2-0.68,0.22-1.04c1.85-12.83,9.08-21.46,21.58-25.8
			C1119.82,435.82,1122.37,435.57,1124.81,435.05z M1107.94,465.77c0,3.74-0.03,7.45,0,11.19c0.03,4.42,2.8,7.13,7.34,7.15
			c7.93,0.03,15.87,0.03,23.83,0c4.54,0,7.32-2.7,7.34-7.15c0.03-7.45,0.03-14.91,0-22.39c-0.03-4.42-2.8-7.13-7.34-7.15
			c-7.93-0.03-15.87-0.03-23.83,0c-4.54,0-7.32,2.73-7.34,7.15C1107.91,458.32,1107.94,462.03,1107.94,465.77z"/>
		<path class="st0" d="M1116.74,456.9c2.3,0,4.48-0.11,6.64,0.03c3.06,0.19,5.16,2.32,5.33,5.16c0.2,3-1.57,5.22-4.71,5.79
			c-1.23,0.22-2.49,0.25-3.95,0.38c0,0.79,0,1.61,0,2.46c0,0.82,0,1.61,0,2.51c-1.15,0-2.19,0-3.31,0
			C1116.74,467.82,1116.74,462.44,1116.74,456.9z M1120.13,459.9c0,1.8,0,3.47,0,5.22c1.71,0.14,3.45,0.33,4.54-1.09
			c0.48-0.66,0.59-2.02,0.22-2.76C1123.94,459.36,1121.95,459.98,1120.13,459.9z"/>
		<path class="st0" d="M1139,464c-1.26-0.19-2.55-0.44-3.81-0.49c-0.42-0.03-0.9,0.46-1.35,0.71c0.31,0.35,0.56,0.82,0.95,1.04
			c0.98,0.52,2.05,0.9,3.03,1.39c1.37,0.68,2.02,1.8,1.91,3.33c-0.11,1.53-0.92,2.57-2.33,3.11c-2.02,0.82-4.12,0.66-6.17,0.05
			c-0.34-0.11-0.7-0.66-0.78-1.06c-0.14-0.66-0.03-1.34-0.03-2.02c1.46,0.25,2.83,0.57,4.23,0.68c0.5,0.03,1.07-0.46,1.63-0.71
			c-0.39-0.38-0.73-0.87-1.18-1.15c-0.62-0.38-1.37-0.57-2.02-0.9c-2.07-1.01-2.86-2.4-2.47-4.23c0.36-1.69,1.93-2.89,3.98-3.06
			c0.5-0.03,1.04-0.05,1.54,0C1139.59,460.94,1139.25,461.02,1139,464z"/>
	</g>
	<g>
		<path class="st0" d="M1206.47,495.89c-5.88,0-11.8,0-17.69,0c-7.33-0.03-12.38-5.11-12.41-12.48c-0.03-11.8-0.03-23.57,0-35.37
			c0-7.23,5.11-12.35,12.35-12.35c11.83-0.03,23.7-0.03,35.53,0c7.2,0,12.32,5.14,12.32,12.38c0.03,11.83,0.03,23.7,0,35.53
			c0,7.14-5.14,12.25-12.25,12.28C1218.37,495.92,1212.42,495.89,1206.47,495.89z M1206.34,489.97c5.72,0,11.45,0,17.2,0
			c4.73,0,7.11-2.38,7.11-7.14c0-11.35,0-22.7,0-34.05c0-4.76-2.35-7.14-7.07-7.14c-11.42,0-22.83,0-34.21,0
			c-4.63,0-7.01,2.38-7.01,7.04c0,11.42,0,22.83,0,34.21c0,4.66,2.38,7.04,7.01,7.04C1194.99,489.97,1200.68,489.97,1206.34,489.97z
			"/>
		<path class="st0" d="M1197.31,470.07c-1.38,2.96-2.67,5.56-3.83,8.2c-0.51,1.13-1.16,1.7-2.44,1.54c-0.84-0.1-1.7,0-2.57-0.03
			c-1.38-0.03-1.64-0.42-1-1.67c1.9-3.7,3.83-7.43,5.82-11.06c0.55-1.03,0.51-1.8,0-2.8c-1.86-3.6-3.67-7.27-5.47-10.9
			c-0.8-1.58-0.61-1.7,1.09-1.93c3.15-0.45,5.11,0.51,6.05,3.73c0.55,1.93,1.67,3.67,2.67,5.82c1.19-2.6,2.41-4.89,3.34-7.3
			c0.68-1.77,1.67-2.38,3.57-2.28c3.34,0.16,3.76-0.26,1.93,3.18c-1.7,3.15-3.25,6.4-4.95,9.55c-0.48,0.87-0.42,1.51,0.03,2.35
			c2.03,3.76,3.96,7.59,5.95,11.38c0.84,1.61,0.64,1.93-1.19,1.96c-4.21,0.06-4.21,0.06-6.08-3.83
			C1199.27,474.09,1198.37,472.25,1197.31,470.07z"/>
		<path class="st0" d="M1219.36,458.2c0-1.83,0.03-3.54,0-5.24c-0.03-1.06,0.32-1.54,1.48-1.51c5.05,0.13,4.08-0.71,4.12,3.96
			c0.06,7.3,0.06,14.57,0.03,21.87c0,0.51-0.35,1.32-0.74,1.51c-3.38,1.51-6.88,2.03-10.45,0.68c-4.12-1.58-6.43-6.17-5.79-11.25
			c0.77-6.08,4.34-9.45,10.48-9.84C1218.69,458.3,1218.91,458.27,1219.36,458.2z M1219.2,474.83c0.03-0.13,0.13-0.29,0.13-0.45
			c0-2.99,0.03-5.98,0.03-8.97c0-2.32-0.8-2.89-2.83-1.7c-1,0.61-2.12,1.74-2.35,2.8c-0.39,1.77-0.39,3.7-0.03,5.47
			C1214.6,474.44,1216.66,475.41,1219.2,474.83z"/>
	</g>
	<path class="st0" d="M905.35,435.04c-1,0-1.87,0.25-2.74,0.75l-22.45,12.72c-1.62,0.87-2.74,2.74-2.74,4.61v25.19
		c0,1.87,1.12,3.74,2.74,4.74l22.45,12.72c1.62,1,3.74,1,5.61,0l22.45-12.72c1.75-1,2.74-2.74,2.74-4.74V453
		c0-1.87-1.12-3.74-2.74-4.74l-22.57-12.47C907.22,435.17,906.35,435.04,905.35,435.04z M905.35,437.66c0.5,0,1,0.25,1.5,0.37
		l22.45,12.72c1,0.5,1.5,1.5,1.5,2.37v25.19c0,1-0.62,1.87-1.5,2.49l-22.45,12.72c-1,0.62-2,0.62-2.99,0l-22.45-12.72
		c-1-0.62-1.5-1.5-1.5-2.49V453c0-1,0.62-1.87,1.5-2.37l22.45-12.72C904.36,437.79,904.85,437.66,905.35,437.66z M905.35,448.26
		c-9.6,0-17.46,7.86-17.46,17.46c0,9.6,7.86,17.34,17.46,17.34c5.36,0,10.48-2.62,13.84-6.86l1-1.12l-7.98-4.74l-0.75,0.75
		c-1.5,1.62-3.74,2.62-5.99,2.62c-4.49,0-8.11-3.49-8.11-8.11c0-4.61,3.62-7.98,7.98-7.98c2.24,0,4.49,1,5.99,2.62l0.75,0.75
		l8.11-4.74l-1-1.12C915.83,450.88,910.72,448.26,905.35,448.26z M905.35,450.88c4.12,0,7.86,1.75,10.73,4.74l-3.74,2.12
		c-1.87-1.75-4.24-2.74-6.98-2.74c-5.86,0-10.73,4.86-10.73,10.73c0,5.86,4.86,10.6,10.73,10.6c2.62,0,5.11-1.12,6.98-2.74l3.74,2
		c-2.87,2.99-6.61,4.74-10.73,4.74c-7.98,0-14.72-6.49-14.72-14.84S897.37,450.88,905.35,450.88z M918.57,458.99v2.62h-2.62v2.62
		h2.62v2.62h-2.62v2.62h2.62v2.62h2.62v-2.62h2.87v2.62h2.62v-2.62h2.62v-2.62h-2.62v-2.62h2.62v-2.62h-2.62v-2.62h-2.62v2.62h-2.62
		v-2.62C921.44,458.99,918.57,458.99,918.57,458.99z M921.44,464.35h2.62v2.62h-2.62V464.35z"/>
	<path class="st0" d="M1000,466.1l3.75-6.43c0.13-0.27,0.13-0.67,0-1.07l-7.5-21.43c-0.27-0.67-0.94-1.07-1.61-0.8l-21.84,5.36
		c-0.4,0.13-0.8,0.4-0.94,0.8l-2.41,5.89h-7.1c-0.4,0-0.67,0.13-0.94,0.4l-16.08,17.42c-0.54,0.54-0.54,1.34,0,1.88l16.88,16.08
		c0.27,0.27,0.54,0.4,0.94,0.4h7.64l2.41,5.89c0.13,0.4,0.54,0.8,1.07,0.8l23.44,4.02c0.13,0,0.13,0,0.27,0
		c0.67,0,1.21-0.4,1.34-1.07l4.55-21.7c0.13-0.27,0-0.67-0.13-0.94L1000,466.1z M969.45,448.41l18.89-3.48l-9.91,19.56h-22.51
		L969.45,448.41z M970.79,484.58l-14.87-14.74h22.51l11.79,17.68L970.79,484.58z M995.04,484.45l-11.25-17.28l9.78-19.56l6.43,18.49
		L995.04,484.45z"/>
</g>
</svg>
