<?xml version="1.0" encoding="utf-8"?>
<!-- Generator: Adobe Illustrator 25.0.0, SVG Export Plug-In . SVG Version: 6.00 Build 0)  -->
<svg version="1.1" id="Calque_1" xmlns="http://www.w3.org/2000/svg" xmlns:xlink="http://www.w3.org/1999/xlink" x="0px" y="0px"
	 viewBox="0 0 1920 1080" style="enable-background:new 0 0 1920 1080;" xml:space="preserve">
<style type="text/css">
	.st0{fill:#54C1D3;}
	.st1{fill:#8E8E8E;}
	.st2{font-family:'Cochin';}
	.st3{font-size:537.0746px;}
	.st4{font-family:'ArialMT';}
	.st5{font-size:146px;}
	.st6{fill:none;stroke:#8E8E8E;stroke-width:13;stroke-miterlimit:10;}
	.st7{fill:#8E8E8E;stroke:#8E8E8E;stroke-miterlimit:10;}
	.st8{fill:none;stroke:#8E8E8E;stroke-width:0.75;stroke-miterlimit:10;}
</style>
<rect class="st0" width="1920" height="1080"/>
<text transform="matrix(1 0 0 1 507.835 555.4355)" class="st1 st2 st3">PN</text>
<text transform="matrix(1 0 0 1 527.6997 747.7284)" class="st1 st4 st5">PRONAILS</text>
<line class="st6" x1="516.7" y1="820.2" x2="1275" y2="822"/>
<path class="st1" d="M1080.5,922.8c2.9-0.6,6.1-1.2,10.7-2.1c-1.5-3-2.3-5.7-4-7.6c-2.5-2.9-6-5.1-8.5-8c-2-2.3-4.2-5.3-4.4-8.1
	c-0.2-4.6-2.6-5.6-7-6.4c1.3,3.6,2.5,6.8,3.8,10.6c-7.3,0.9-13.4-1.3-19.5-3.5c-0.6-0.2-1-1-1.3-1.6c-6.6-11.8-2.7-32.2,7.9-40.6
	c5.8-4.6,12.4-6.9,19.9-5.4c6,1.2,8.3,5.6,6.7,11.5c-0.5,1.7-0.3,3.7,0,5.6c0.7,5.6,2,11.2,2.2,16.8c0.2,4.3-1.5,8.2-6.6,8.8
	c-4.2,0.5-3.9,3.6-2.5,5.8c1.8,2.9,4.7,5.2,7,7.9c3.6,4.2,7,8.5,10.2,12.4c8.1,2.3,16.5,5.3,25.2,7c4.2,0.8,8.9-0.9,13.4-1.4
	c0.2-0.5,0.5-1.1,0.7-1.6c-2.1-1.4-4.1-3.6-6.4-3.9c-2.1-0.3-4.5,1.4-6.7,2.2c-0.1,0.6-0.3,1.2-0.4,1.8c-4.4-4-8.9-8-13.3-12
	c0.3-0.8,0.6-1.5,0.9-2.3c6.6,5.9,11.4-0.1,17-1.1c2.7-0.5,5.9,0.4,8.4,1.6c3.8,1.9,7.1,4.6,11.1,7.2c2.9-7.4,10.8-11.3,12.6-20.2
	c-2.3,0.3-3.7,1-4.9,0.6c-2.8-0.8-6.4-1.4-8-3.4c-2.1-2.6-2.8-6.4-3.7-9.8c-1.5-5.4-2.5-10.9-3.9-16.4c-1.3-5,1.4-11.1,6.9-13.6
	c3.1-1.4,6.8-1.4,10.2-2.3c2.2-0.5,4.2-1.5,6.4-2c2.5-0.6,5.2-1.9,7.4-1.3c8.1,2.2,12.1,12.1,8.6,19.9c-0.6,1.3-0.5,3.1-0.3,4.6
	c0.7,4.9-0.4,9-4.3,12.4c-1.1,1-1.8,3.3-1.6,4.9c0.7,4.6,1.9,9.2,3,14.4c-4.8-1-4.4-4.9-5.2-7.7c-0.8-3-1.2-6.1-2-10.1
	c-3.2,3.9-6.7,6.1-6.3,11.3c0.2,2.6-1.7,5.6-3.3,8.1c-2.1,3.3-4.8,6.1-7.2,9.2c-2.2,2.9-1.8,5.2,2.2,7.1c1.5-1.9,2.8-4.3,4.7-5.9
	c4-3.3,8-7.3,12.7-9.1c5.8-2.3,10.4,2.7,8.4,8.7c-3.8,11.2-2.6,21.1,5.1,30.4c2.7,3.2,4.3,7.8,5.1,12.1c1.6,8.6-2.9,16.1-11.1,18.8
	c-4.8,1.6-10.1,1.9-15.1,2.6c-1,0.1-2.1-0.6-3.1-2.2c1.2-0.3,2.4-0.7,3.7-0.9c4-0.7,8.1-1,12-2c8.6-2.4,12.6-10.1,9.9-18.7
	c-0.6-2-1.5-4.1-2.7-5.8c-5.1-7.3-10.4-14.4-9.2-24.9c-4.8,3.4-8.7,6-12.4,8.9c-4.7,3.7-9.8,4.6-15.5,3.5c-4.2-0.8-8.4-1.4-12.6-2.1
	c-4.2-0.7-5.3,2-6.7,6.3c8.8,0,16.7,0.3,24.6-0.1c4.7-0.2,6.2,1.3,6.1,6c-0.3,11.7-0.1,23.4-0.1,35.2c0,1.8-0.5,3.5-0.8,5.3
	c-0.6,0-1.2-0.1-1.8-0.1c0-9.3,0-18.6,0-28.1c-1.8-0.3-2.6-0.6-3.5-0.6c-18.8,0-37.7,0-56.5-0.1c-3.8,0-4.9,1.4-4.7,5
	c0.2,6.2,0.1,12.4,0,18.6c0,1.5-0.5,3-0.8,4.5c-0.6,0-1.1,0-1.7-0.1c-0.2-1.6-0.7-3.2-0.7-4.8c-0.1-11.9,0-23.8-0.1-35.7
	c-0.1-3.8,1-5.8,5.1-5.2c7.9,1.2,14.2-0.2,15.9-10.2c-2.6,0.3-5.5,0.3-8.2,0.9c-4.1,1-8.2,2.3-12.2,3.6c-5.3,1.7-10.6,3.5-14.4-1.2
	c-3.3,5.8-6.4,11.7-9.9,17.2c-8.3,13-4.2,22.9,11.1,26c3.3,0.7,6.7,1.1,10,1.7c0,0.5,0,0.9,0,1.4c-1,0.3-2.1,0.9-3.1,0.8
	c-3.5-0.3-7.1-0.5-10.5-1.5c-14.7-4.1-19.2-15.8-11.1-28.8c1.8-2.9,4-5.5,5.7-8.4c3.6-6.2,4.4-12.4,1-19.2c-2.1-4-3.8-8.6-4.2-13
	c-0.2-2.5,1.9-6.3,4.1-7.5c1.6-0.8,6,1,7.4,2.9C1075,911.5,1077.4,917,1080.5,922.8z M1089.1,955.6c20.9,0,41.9,0,62.8,0
	c1.8-10.7,1.7-10.8-8.1-10.7c-15.8,0-31.5,0-47.3,0c-8.7,0-8.8,0.1-8,9C1088.6,954.4,1088.8,954.8,1089.1,955.6z M1065.9,897.4
	c-0.8-2.8-1.6-5.2-2.2-7.6c-3.1-11.8-0.7-17.7,10-23.9c2-1.2,4.2-2.1,5.8-3.6c1.3-1.3,3-3.8,2.6-5.1c-0.6-1.8-3.1-3.9-4.9-4
	c-3.8-0.2-7.9,0.2-11.4,1.6c-11.3,4.6-15.8,14.6-14.5,30.1C1052.2,895.3,1054.5,897.3,1065.9,897.4z M1167.1,883.3
	c5.3-1.4,6.4-4.7,6.2-8.7c-0.3-7.5-7.2-16.7-14.4-18.9c-5.5-1.7-11.2-1.7-15.5,2.6c-1.9,1.8-3.3,5.4-2.8,7.9
	c0.3,1.8,3.9,3.1,6.2,4.3c1.2,0.6,2.8,0.6,4.2,0.7C1159,871.5,1165.5,873.9,1167.1,883.3z M1118.1,914.9c2.7,0.2,4.6,0.8,6.4,0.4
	c5.8-1.3,9.1,1.8,12.4,5.9c3.1,3.8,6.6,7.4,10.2,10.7c1.4,1.3,4.3,2.7,5.6,2.1c8.7-4.2,16.7-9.4,21.5-18.2c0.7-1.2,0.5-3.8-0.3-4.7
	c-0.9-1-3.6-1.4-4.8-0.7c-3.3,1.9-6.4,4.2-9.1,6.9c-2.8,2.8-5,6.3-7.6,9.7c-5.4-4.2-10.5-8-15.3-12.1
	C1131.2,910.1,1125.3,908.9,1118.1,914.9z M1118.7,930.8c0.1-0.3,0.2-0.6,0.4-0.9c-0.5-0.4-0.9-1-1.5-1.3c-1.4-0.8-2.8-1.5-4.3-2.1
	c-10.4-4.1-20.9-2.9-31.4-0.2c-3.2,0.8-4.4,0-5.6-2.8c-2-4.9-4.3-9.7-6.9-14.3c-0.7-1.3-3.1-1.7-4.6-2.4c-0.6,1.7-2,3.8-1.5,5.2
	c1.9,5.3,3.8,10.7,6.7,15.5c5,8.3,5.9,8.2,15.1,5.5c6.1-1.8,12.3-3.8,18.6-4.3C1108.6,928.1,1113.7,929.9,1118.7,930.8z
	 M1081.9,865.1c-4.4,2.6-7.4,4.2-10.1,6c-4.3,2.9-8,7.4-5.6,11.9c1.7,3.3,7.2,5.1,11.3,6.4c4,1.3,6.6-1.4,6.4-5.5
	C1083.5,878.1,1082.7,872.4,1081.9,865.1z M1142.7,873.3c1,5.3,1.5,9.7,2.6,13.8c2.1,7.7,6.1,8.9,12.3,4c1.2-1,2.3-2.2,3.3-3.4
	c4-5.2,2.5-10.5-3.8-12.2C1152.9,874.3,1148.4,874.1,1142.7,873.3z M1122.2,941.3c-0.9-5.5-3.8-7.8-8.5-7.6
	c-4.4,0.2-7.1,2.6-7.5,7.6C1111.5,941.3,1116.5,941.3,1122.2,941.3z M1122.5,933.5c0.5,0.5,1,1,1.5,1.5c5.6-6.2,12.2-0.4,18.3-1.6
	c-4-6.3-6.2-7.2-15.3-4.6C1125.2,929.3,1124,931.9,1122.5,933.5z M1162.9,851.2c4.8,4.7,8.8,8.6,12.7,12.5c0.7-4.9-2.4-8.6-6.5-11.5
	C1167.6,851.2,1165.2,851.5,1162.9,851.2z"/>
<g>
	<path class="st7" d="M653.7,913.8c-2.9,2-4.5,3.1-6.1,4.2c-8.3,5.5-8.3,11.1,0.3,16.3c3.6,2.2,7.5,4,11.5,5.2
		c31.6,8.8,63.3,8.8,94.9,0.2c1.6-0.4,3.1-1.1,4.6-1.7c7.1-3.1,14.5-5.8,14-16c0.7,0.1,1.4,0.2,2.1,0.3c0.2,2.7,1,5.5,0.5,8
		c-2.5,11.4-9.1,20.2-17.9,27.6c-2.2,1.9-4.6,3.6-7.1,5.1c-4.1,2.4-7.6,4.8-9.8,9.6c-1.4,3-5.9,5.6-9.5,6.4
		c-16.1,3.7-32.4,3.7-48.5-0.1c-3.7-0.9-7.8-3.8-9.7-7c-2-3.5-4.2-5.9-7.6-7.9c-12.4-7.2-21.8-17.2-26.2-31.2
		c-3.2-10,1-15,10.7-19.7C650.4,912.7,651.4,913.2,653.7,913.8z M769.6,937.8c-42.1,15.5-83.1,15.7-125.1-0.1
		c14.3,24.6,36.2,33,62.3,33C733.1,970.8,755.2,962.4,769.6,937.8z M738.7,971.3c-0.3-0.7-0.6-1.3-0.9-2c-20.5,6.6-41.1,6.3-62,1.2
		c2.4,2.5,5,4.4,7.9,5.1c15.6,3.6,31.2,3.5,46.8,0C733.4,975,736,972.8,738.7,971.3z"/>
	<path class="st7" d="M634.2,892.8c-0.2-2.6-0.5-3.5-0.2-4.3c4.2-13.7,20.1-23.2,34-19.3c14,3.9,26.8,10.6,37.9,20.3
		c2.1,1.8,4.1,3.8,6.4,5.1c12.8,7,10.4,19.8,11.6,31.1c0.1,0.9-2.1,3.1-3.1,3c-2.3-0.2-5.6-0.7-6.7-2.3c-2.1-3-3.6-6.8-4.3-10.5
		c-0.8-4.6-3.5-6.3-7.1-7.1c0.4,7.5,0.8,14.8,1.2,22.1c-0.7,0.1-1.4,0.2-2,0.2c-1.9-10.4-3.9-20.8-6.1-32.7c2.7,2.2,4.5,4.3,6.7,5.3
		c7.2,3.2,11.1,8.5,12.1,16.5c0.3,2.2,2.8,4.2,5.3,5.7c-1-10.5,1.3-21.1-9.7-28.9c-10.2-7.2-20-14.6-31.3-20
		c-19.4-9.4-30-6.4-41.4,12C636.8,889.8,635.9,890.6,634.2,892.8z"/>
	<path class="st7" d="M774.2,889.6c-1.8,3.6,0.1,6.7,2.6,10.4c4.5,6.6-0.5,15.3-8.7,16c-2.9,0.2-4.5,0.8-5.9,3.6
		c-2.1,4.1-6,5.8-10.6,5.4c-4.6-0.4-7.5-3.1-9.5-7.3c-0.8-1.6-2.7-3.2-4.4-3.7c-4.5-1.3-7.5-3.8-8.6-8.3c-1.1-4.7,0.5-8.5,4.1-11.7
		c1.2-1.1,2.1-3.3,2-5c-0.2-4.8,1.2-8.7,5.4-11.2c4.2-2.4,8.2-1.8,12.4,0.6c1.5,0.8,4,0.5,5.8-0.1
		C766.8,875.7,774.3,880.7,774.2,889.6z M767.4,896.2c3.4-4.6,5.5-8.9,1-13.1c-5.1-4.7-9.3-1.3-13.6,2.6c-3.2-4.4-6.8-8.2-12.4-4.9
		c-5.9,3.5-3.7,8.6-1.7,13.5c-4.7,1.8-9.2,3.7-8.5,9.5c0.9,7.5,7,7,12.7,6.9c0,5.2,0.7,10,6.5,10.9c7.2,1.1,8.6-4.5,10-9.9
		c5.2,1.5,10.3,2.4,12.8-3.7C776.9,901.8,772.3,899.1,767.4,896.2z"/>
	<path class="st7" d="M669.1,935.1c-0.4-1.1-1.1-2.1-1.2-3.2c-1.4-9.6-5.7-17.5-12.6-24.3c-4.7-4.6-5.7-13.1-2.5-17
		c0.6,12.6,11.4,19.9,15.8,30.6C670.4,925.7,671.9,930.1,669.1,935.1z"/>
	<path class="st7" d="M683.8,902.8c5.3,9.1,9.1,18.6,8.8,29.4c-0.7,0.2-1.3,0.5-2,0.7c-0.7-3.1-1.2-6.2-2.1-9.2
		c-1-3.5-2.1-6.9-3.3-10.4c-1.2-3.3-2.6-6.5-3.8-9.7C682.3,903.4,683,903.1,683.8,902.8z"/>
	<path class="st7" d="M670.6,904.4c6.6,3.1,13,22.4,9.3,27C676.9,922.5,673.9,913.7,670.6,904.4z"/>
	<path class="st7" d="M762.7,899.5c0.1,5.1-3.8,9.1-9,9.1c-4.9,0-8.8-3.7-8.9-8.6c-0.2-5.1,3.6-9.2,8.7-9.4
		C758.4,890.5,762.6,894.4,762.7,899.5z M760.3,900.5c0-0.8-0.1-1.5-0.1-2.3c-2.2-1.4-4.3-3.8-6.6-4c-3.5-0.3-5.6,2.2-5.3,6
		c0.3,3.5,2.6,5.6,5.8,4.8C756.3,904.4,758.2,902,760.3,900.5z"/>
	<polygon class="st8" points="723.6,869.2 714.8,869.2 712.1,877.7 707.6,869.9 698.9,871.8 703.4,864.2 697.4,857.6 706.3,857.6 
		709,849.1 713.4,856.8 722.1,854.9 717.7,862.6 	"/>
	<polygon class="st8" points="762.7,851.9 757,851.9 755.2,857.4 752.4,852.4 746.8,853.6 749.6,848.7 745.8,844.4 751.5,844.4 
		753.2,839 756.1,843.9 761.7,842.7 758.8,847.7 	"/>
</g>
</svg>
