<?xml version="1.0" encoding="utf-8"?>
<!-- Generator: Adobe Illustrator 25.0.0, SVG Export Plug-In . SVG Version: 6.00 Build 0)  -->
<svg version="1.1" id="Calque_1" xmlns="http://www.w3.org/2000/svg" xmlns:xlink="http://www.w3.org/1999/xlink" x="0px" y="0px"
	 viewBox="0 0 63.09 61.47" style="enable-background:new 0 0 63.09 61.47;" xml:space="preserve">
<style type="text/css">
	.st0{fill:#F1EDA3;}
</style>
<g>
	<path class="st0" d="M29.17,0c1.6,0,3.17,0,4.77,0c0.31,0.08,0.62,0.19,0.95,0.22C47.81,1.48,58.77,10.6,62,22.83
		c0.48,1.83,0.73,3.71,1.09,5.57c0,1.56,0,3.09,0,4.64c-0.08,0.35-0.2,0.68-0.22,1.04c-1.71,12.23-8.47,20.7-20.15,25.31
		c-2.75,1.09-5.83,1.39-8.77,2.08c-1.6,0-3.17,0-4.77,0c-0.31-0.08-0.62-0.19-0.95-0.22C15.78,60.05,5.1,51.56,1.46,39.82
		C0.79,37.64,0.48,35.31,0,33.08c0-1.56,0-3.09,0-4.64c0.08-0.35,0.2-0.68,0.22-1.04C2.07,14.57,9.3,5.94,21.8,1.6
		C24.18,0.76,26.74,0.52,29.17,0z M12.3,30.72c0,3.74-0.03,7.45,0,11.19c0.03,4.42,2.8,7.13,7.34,7.15c7.93,0.03,15.87,0.03,23.83,0
		c4.54,0,7.32-2.7,7.34-7.15c0.03-7.45,0.03-14.91,0-22.39c-0.03-4.42-2.8-7.13-7.34-7.15c-7.93-0.03-15.87-0.03-23.83,0
		c-4.54,0-7.32,2.73-7.34,7.15C12.27,23.26,12.3,26.98,12.3,30.72z"/>
	<path class="st0" d="M21.1,21.84c2.3,0,4.48-0.11,6.64,0.03c3.06,0.19,5.16,2.32,5.33,5.16c0.2,3-1.57,5.22-4.71,5.79
		c-1.23,0.22-2.49,0.25-3.95,0.38c0,0.79,0,1.61,0,2.46c0,0.82,0,1.61,0,2.51c-1.15,0-2.19,0-3.31,0
		C21.1,32.76,21.1,27.39,21.1,21.84z M24.49,24.85c0,1.8,0,3.47,0,5.22c1.71,0.14,3.45,0.33,4.54-1.09
		c0.48-0.66,0.59-2.02,0.22-2.76C28.31,24.3,26.32,24.93,24.49,24.85z"/>
	<path class="st0" d="M43.36,28.94c-1.26-0.19-2.55-0.44-3.81-0.49c-0.42-0.03-0.9,0.46-1.35,0.71c0.31,0.35,0.56,0.82,0.95,1.04
		c0.98,0.52,2.05,0.9,3.03,1.39c1.37,0.68,2.02,1.8,1.91,3.33s-0.92,2.57-2.33,3.11c-2.02,0.82-4.12,0.66-6.17,0.05
		c-0.34-0.11-0.7-0.66-0.78-1.06c-0.14-0.66-0.03-1.34-0.03-2.02c1.46,0.25,2.83,0.57,4.23,0.68c0.5,0.03,1.07-0.46,1.63-0.71
		c-0.39-0.38-0.73-0.87-1.18-1.15c-0.62-0.38-1.37-0.57-2.02-0.9c-2.07-1.01-2.86-2.4-2.47-4.23c0.36-1.69,1.93-2.89,3.98-3.06
		c0.5-0.03,1.04-0.05,1.54,0C43.95,25.88,43.61,25.97,43.36,28.94z"/>
</g>
</svg>
