<?xml version="1.0" encoding="utf-8"?>
<!-- Generator: Adobe Illustrator 25.0.0, SVG Export Plug-In . SVG Version: 6.00 Build 0)  -->
<svg version="1.1" id="Calque_1" xmlns="http://www.w3.org/2000/svg" xmlns:xlink="http://www.w3.org/1999/xlink" x="0px" y="0px"
	 viewBox="0 0 55.22 60.05" style="enable-background:new 0 0 55.22 60.05;" xml:space="preserve">
<style type="text/css">
	.st0{fill:#F1EDA3;}
</style>
<g>
	<path class="st0" d="M1,0c17.86,0,35.61,0,53.35,0c0.72,0.36,0.97,0.84,0.84,1.69c-0.24,2.05-0.48,4.1-0.6,6.16
		c-0.72,7.48-1.45,14.97-2.29,22.33c-0.72,7-1.45,14.12-2.05,21.12c-0.12,0.84-0.48,1.21-1.21,1.45c-6.4,2.41-12.67,4.71-19.07,7.12
		c-0.72,0.24-1.45,0.24-2.17,0c-7.24-2.41-14.61-4.83-21.85-7.24c-0.6-0.24-0.97-0.6-0.97-1.33c-0.36-4.59-0.84-9.29-1.33-14
		c-0.6-5.67-1.21-11.35-1.69-17.02C1.24,14.12,0.63,7.97,0.03,1.93C-0.09,0.97,0.15,0.37,1,0z M42.16,15.33
		c0,0.24-0.12,0.36-0.12,0.6c-0.24,0.97-0.48,1.93-0.6,2.9c-0.12,0.72,0.24,1.33,0.84,1.45c0.72,0.24,1.21-0.12,1.57-0.84
		c0-0.12,0.12-0.24,0.12-0.48c0.36-1.33,0.72-2.78,1.09-4.1c0.24-1.21,0-1.69-1.21-1.81c-0.12,0-0.36,0-0.48,0
		c-4.1,0-8.21,0-12.19,0c-1.09,0-1.45,0.36-1.45,1.45c0,4.83,0,9.78,0,14.61c0,1.09,0.36,1.45,1.45,1.45c2.53,0,5.07,0,7.6,0
		c0.24,0,0.48,0,0.6,0c0,0.12,0,0.24,0,0.36c-0.6,3.62-1.21,7.24-1.93,10.86c0,0.24-0.24,0.48-0.48,0.48
		c-1.33,0.48-2.66,0.84-3.98,1.33c-0.72,0.24-1.45,0.48-2.17,0.72c-0.6,0.24-0.97,0.72-0.84,1.33c0.12,0.6,0.72,0.97,1.33,0.97
		c0.24,0,0.36,0,0.6-0.12c2.41-0.84,4.71-1.57,7.12-2.41c0.6-0.24,0.97-0.6,1.09-1.21c0.84-4.47,1.57-8.81,2.41-13.28
		c0.24-1.21-0.24-1.81-1.57-1.81c-2.53,0-5.19,0-7.73,0c-0.24,0-0.36,0-0.6,0c0-4.22,0-8.33,0-12.55
		C35.64,15.33,38.9,15.33,42.16,15.33z M25.14,43.7c-0.24,0-0.36-0.12-0.48-0.12c-1.81-0.48-3.62-0.97-5.43-1.45
		c-0.48-0.12-0.6-0.36-0.72-0.72c-0.24-1.57-0.6-3.14-0.84-4.59c0-0.24-0.12-0.48-0.24-0.72c-0.36-0.6-0.84-0.72-1.45-0.48
		c-0.72,0.24-1.09,0.72-0.84,1.33c0.36,2.05,0.84,4.1,1.21,6.16c0.12,0.6,0.6,1.09,1.21,1.33c2.9,0.84,5.79,1.69,8.69,2.41
		c0.48,0.12,0.97,0,1.21-0.48c0.12-0.36,0.24-0.72,0.24-1.21c0-10.14,0-20.4,0-30.54c0-1.33-0.36-1.69-1.57-1.69
		c-4.83,0-9.54,0-14.36,0c-0.12,0-0.36,0-0.48,0c-0.6,0.12-0.97,0.48-1.09,1.09c-0.12,0.84,0.36,1.45,1.45,1.45
		c4.35,0,8.57,0,12.92,0c0.24,0,0.48,0,0.72,0C25.14,24.75,25.14,34.17,25.14,43.7z"/>
</g>
</svg>
