<?xml version="1.0" encoding="utf-8"?>
<!-- Generator: Adobe Illustrator 25.0.0, SVG Export Plug-In . SVG Version: 6.00 Build 0)  -->
<svg version="1.1" id="Calque_1" xmlns="http://www.w3.org/2000/svg" xmlns:xlink="http://www.w3.org/1999/xlink" x="0px" y="0px"
	 viewBox="0 0 57.23 64.32" style="enable-background:new 0 0 57.23 64.32;" xml:space="preserve">
<style type="text/css">
	.st0{fill:#F1EDA3;}
</style>
<g>
	<path class="st0" d="M0,0c19.02,0,38.04,0,57.23,0c-0.17,1.52-0.34,3.05-0.34,4.57c-0.5,5.59-1.01,11.01-1.51,16.6
		c-0.5,6.1-1.01,12.2-1.68,18.29c-0.51,5.42-1.01,10.84-1.35,16.26c-0.17,1.86-0.17,1.86-1.85,2.37c-6.9,2.03-13.97,4.07-20.87,6.1
		c-0.67,0.17-1.35,0.17-2.02,0c-7.24-2.03-14.48-4.23-21.71-6.27c-0.67-0.34-0.84-0.51-0.84-1.02c-0.51-5.59-1.01-11.01-1.51-16.6
		c-0.51-6.1-1.01-12.2-1.68-18.46C1.53,16.59,1.03,11.17,0.52,5.75C0.34,3.9,0.17,2.03,0,0z M3.7,3.39c0,0.34,0,0.68,0,0.85
		c0.67,7.96,1.35,15.92,2.19,23.88C6.56,36.76,7.4,45.4,8.08,54.04c0,0.68,0.34,0.85,0.84,1.02c6.23,1.69,12.46,3.56,18.68,5.42
		c0.51,0.17,1.18,0.17,1.85,0c6.23-1.69,12.46-3.56,18.68-5.42c0.51-0.17,0.84-0.51,0.84-1.02c0.17-1.69,0.34-3.39,0.34-5.08
		c0.67-6.78,1.18-13.38,1.85-20.16c0.67-6.94,1.18-13.72,1.85-20.66c0.17-1.52,0.34-3.05,0.5-4.74C36.86,3.39,20.37,3.39,3.7,3.39z"
		/>
	<path class="st0" d="M14.81,37.26c2.36,0,4.54,0,6.73,0c0,1.19,0.17,2.37,0.17,3.56c0,0.51,0.17,0.68,0.67,0.85
		c2.02,0.68,3.87,1.36,5.89,2.03c0.34,0.17,0.67,0.17,1.01,0c2.02-0.68,4.04-1.36,5.89-2.03c0.17,0,0.5-0.34,0.5-0.51
		c0.17-2.37,0.34-4.74,0.51-7.28c-4.88,0-9.76,0-14.81,0c-0.17-2.2-0.17-4.4-0.34-6.78c5.22,0,10.27,0,15.49,0
		c0.17-2.37,0.34-4.57,0.51-6.78c-7.74,0-15.49,0-23.23,0c-0.34-2.2-0.51-4.57-0.67-6.78c10.27,0,20.54,0,30.8,0
		c-0.17,2.2-0.34,4.4-0.34,6.44c-0.34,6.1-0.67,12.2-1.18,18.29c-0.17,2.54-0.34,5.08-0.5,7.62c0,0.17-0.34,0.68-0.51,0.68
		c-4.04,1.36-8.25,2.71-12.29,4.07c-0.34,0.17-0.67,0-0.84,0c-4.04-1.36-8.08-2.71-12.29-4.07c-0.17,0-0.67-0.34-0.67-0.51
		C15.15,43.19,14.98,40.31,14.81,37.26z"/>
</g>
</svg>
