<?xml version="1.0" encoding="utf-8"?>
<!-- Generator: Adobe Illustrator 25.0.0, SVG Export Plug-In . SVG Version: 6.00 Build 0)  -->
<svg version="1.1" id="Calque_1" xmlns="http://www.w3.org/2000/svg" xmlns:xlink="http://www.w3.org/1999/xlink" x="0px" y="0px"
	 viewBox="0 0 64.3 64.3" style="enable-background:new 0 0 64.3 64.3;" xml:space="preserve">
<style type="text/css">
	.st0{fill:#F1EDA3;}
	.st1{fill:#F6FAF0;}
</style>
<g>
	<path class="st0" d="M0,32.1C0,14.3,14.4-0.1,32.3,0c18,0.1,32.3,14.8,32,32.6C64,49.9,50,64.5,31.8,64.3
		C13.9,64.1-0.1,49.5,0,32.1z M26.9,35.4C26.9,35.4,26.9,35.4,26.9,35.4c0.6,0,1.2,0,1.8,0c1.4,0,1.2,0.2,1.6-1.3c0,0,0-0.1,0-0.1
		c0.1-0.4,0-0.5-0.4-0.5c-0.5,0.1-0.5-0.1-0.4-0.6c0.4-1,0.8-2.1,1-3.2c0.2-1.4-0.5-2.9-1.8-3.5c-1.9-1-4.5-0.4-5.8,1.3
		c-1.1,1.4-1.5,2.9-1.5,4.6c0,2,1.2,3.1,3.2,3.2C25.4,35.4,26.2,35.4,26.9,35.4z M43.2,32.3c0.7,0,1.3,0,2,0c0.3,0,0.5-0.1,0.6-0.4
		c0.1-0.7,0.3-1.4,0.3-2.1c-0.1-0.7-0.3-1.3-0.9-1.7c-1.3-0.8-4.3-0.6-5.3,1.1c-0.7,1.1-0.9,2.2-1,3.5c-0.1,1.7,0.7,2.6,2.3,2.7
		c0.9,0,1.7,0,2.6,0c1.6,0,1.2,0.3,1.6-1.4c0.1-0.4-0.1-0.5-0.4-0.4c-0.9,0-1.8,0-2.6,0c-0.3,0-0.7,0-1-0.2
		c-0.3-0.1-0.5-0.4-0.4-0.8c0.1-0.4,0.4-0.3,0.6-0.3C42,32.3,42.6,32.3,43.2,32.3z M35,35.4C35,35.4,35,35.4,35,35.4
		c0.5,0,1,0,1.5,0c0.5,0,0.7-0.2,0.8-0.7c0.4-1.9,0.8-3.8,1.2-5.8c0.3-1.3,0.4-1.1-0.9-1.2c-0.6,0-0.9,0.2-1,0.8
		c-0.3,1.4-0.6,2.9-0.9,4.3c-0.1,0.5-0.4,0.7-0.9,0.7c-0.3,0-0.6,0-0.9-0.1c-0.5,0-0.7-0.3-0.7-0.8c0-0.3,0-0.5,0.1-0.8
		c0.2-1.2,0.5-2.4,0.7-3.6c0-0.2,0.1-0.4-0.2-0.5c-1.3-0.2-1.6,0-1.9,1.2c-0.1,0.5-0.2,0.9-0.3,1.4c-0.2,0.9-0.5,1.8-0.4,2.8
		c0,1.3,0.6,2,1.9,2.1C33.7,35.4,34.4,35.4,35,35.4z M53,30.2c-0.3,0-0.4,0-0.5,0c-0.7,0-0.7,0-0.5,0.7c0.2,0.8,0.4,1.5,0.6,2.3
		c0.1,0.3,0.1,0.5,0,0.8c-0.1,0.5-0.5,1-0.2,1.4c0.3,0.3,1,0.1,1.5,0.1c0.4,0,0.6-0.2,0.7-0.6c0.1-0.9,0.6-1.7,1.2-2.4
		c0.4-0.5,0.7-1,1.1-1.4c0.9-1.2,1.9-2.5,2.8-3.8c0.1-0.1,0.4-0.3,0.1-0.5c-0.6-0.3-2.2,0.1-2.6,0.7c-0.8,1.2-1.6,2.4-2.4,3.6
		c-0.1,0.1-0.2,0.3-0.3,0.3c-0.1,0.1-0.2-0.1-0.2-0.2C54.2,30.2,53.6,30.1,53,30.2z M50.3,27.9c-0.7,0-1.3,0-2,0
		c-0.3,0-0.6,0.1-0.6,0.5c-0.5,2.2-0.9,4.4-1.4,6.6c0,0.2-0.1,0.3,0.1,0.4c0.5,0.1,1.1,0.1,1.6,0c0.4-0.1,0.3-0.5,0.4-0.8
		c0.3-1.4,0.6-2.8,0.9-4.2c0.1-0.5,0.3-0.6,0.8-0.6c1.1,0,2.3,0,3.4,0c0.4,0,0.6-0.1,0.5-0.6c-0.2-0.9-0.6-1.3-1.5-1.3
		C51.6,27.9,50.9,27.9,50.3,27.9z M16.4,38.5c1.7,0,2.4-0.5,2.9-2.1c0.1-0.2,0.1-0.3,0.1-0.5c0.3-1.4,0.6-2.8,0.9-4.2
		c0.3-1.6,0.3-1.5-1.2-1.5c-0.4,0-0.6,0.2-0.7,0.6c-0.2,0.9-0.4,1.7-0.5,2.6c-0.2,0.7-0.3,1.5-0.5,2.2c-0.1,0.5-0.3,1-0.9,1
		c-0.7,0-0.8,0.3-0.9,0.8C15.3,38.5,15.3,38.5,16.4,38.5z M5.3,28.6c-1.2,1.3-1.4,3.2-0.5,4.9c1.1,2.1,3.4,3.3,5.7,3
		c1.3-0.2,2.8-1.2,2.9-2c-2.1,1.3-4.1,1.1-6.1-0.2C5.5,32.9,4.7,31,5.3,28.6z M13.9,31.8c-3.1,2-6.8-0.8-6.1-4
		c-1.2,1.4-0.8,3.5,0.9,4.7C10.4,33.9,12.8,33.6,13.9,31.8z M19.8,29.7c1,0,1.1,0,1.2-0.6c0.2-1.2,0.5-1.2-1-1.2c0,0-0.1,0-0.1,0
		c-0.6-0.1-0.8,0.2-0.9,0.7C18.7,29.8,18.7,29.6,19.8,29.7z M10,27.2c-0.7,1.1-0.4,2.3,0.7,3.1c0.9,0.6,2.1,0.5,2.6-0.1
		C10.8,29.9,10,29.2,10,27.2z"/>
	<path class="st1" d="M10,27.2c0,2.1,0.8,2.8,3.3,2.9c-0.5,0.7-1.6,0.7-2.6,0.1C9.6,29.5,9.3,28.3,10,27.2z"/>
	<path class="st0" d="M26,33.5c-0.2,0-0.3,0-0.5,0c-1.3,0-1.9-0.6-1.8-1.9c0.1-0.9,0.3-1.8,0.7-2.6c0.6-1,1.7-1.5,2.9-1.1
		c0.6,0.2,1,0.6,1,1.3c0,0.5,0,1-0.2,1.5c-0.2,0.5-0.3,1.1-0.5,1.6C27.3,33.7,27.6,33.5,26,33.5z"/>
	<path class="st0" d="M42.5,30.8c-0.3,0-0.6,0-1,0c-0.4,0-0.4-0.2-0.3-0.5c0.4-0.7,1.6-1.1,2.3-0.6c0.3,0.2,0.4,0.5,0.3,0.8
		c-0.1,0.3-0.4,0.3-0.6,0.3C43,30.8,42.7,30.8,42.5,30.8z"/>
</g>
</svg>
