<?xml version="1.0" encoding="UTF-8"?><svg xmlns="http://www.w3.org/2000/svg" viewBox="0 0 587.41 76.28"><defs><style>.d{fill:#f7931e;stroke:#fff;stroke-miterlimit:10;stroke-width:3px;}</style></defs><g id="a"/><g id="b"><g id="c"><g><path class="d" d="M25.29,4h2.19c6.28,0,12.58,1.46,18.91,4.38v.16l-1.25,2.97c.31,.68,.47,1.15,.47,1.41v.31c0,.52-.78,1.88-2.34,4.06v5c0,3.44-.42,5.16-1.25,5.16h-.16c-1.72,0-2.92-2.08-3.59-6.25-.18-1.25-.81-1.88-1.88-1.88-1.59,0-3.46-.62-5.62-1.88h-.94c-.68,.94-1.15,1.46-1.41,1.56h-.47c-.26,0-1.2-.26-2.81-.78-2.92,.91-4.38,1.8-4.38,2.66v.47c0,1.93,4.27,4.69,12.81,8.28,6.59,3.31,10.44,6.85,11.56,10.62,.99,3.44,1.77,5.26,2.34,5.47,.31,.39,.47,.76,.47,1.09v.47c0,.52-.62,1.72-1.88,3.59,0,.94-.52,6.56-1.56,16.88,.1,.7,.16,1.28,.16,1.72l-.78,.62h-.31c-.94-.29-1.56-2.63-1.88-7.03h-.16c0,.31-.1,.47-.31,.47h-.47c-.31-.1-.47-.42-.47-.94v-.47h-.31c0,2.32-.47,3.78-1.41,4.38-.52,0-1.09,1.51-1.72,4.53-.39,.91-.7,1.38-.94,1.41h-.47c-1.04-.81-1.56-1.59-1.56-2.34l.47-2.5c0-.91-.47-1.85-1.41-2.81-2.11,.34-3.88,1.02-5.31,2.03-.89,.21-2.71,.73-5.47,1.56-3.26,0-5.29-.31-6.09-.94-.73-1.15-1.15-1.72-1.25-1.72-3.54,.81-5.31,1.8-5.31,2.97,.1,1.3,.16,2.03,.16,2.19-.31,.73-.83,1.09-1.56,1.09-.86,0-1.69-1.04-2.5-3.12,0-3.18-.83-5.57-2.5-7.19-.31-.39-.47-.86-.47-1.41v-2.5c0-.39-.26-.86-.78-1.41,.6-1.07,1.02-1.9,1.25-2.5-.62-1.69-.94-2.68-.94-2.97v-.62c0-.75,.57-1.28,1.72-1.56,0-.62,.21-.94,.62-.94,6.09,2.71,10.05,4.06,11.88,4.06,0,.13,.31,.23,.94,.31v-.16c0-.88,.05-4.06,.16-9.53,0-1.09-.52-2.03-1.56-2.81h-.62c-2.03,0-3.75-1.15-5.16-3.44-.39-.44-1.22-.86-2.5-1.25-.03-.23-.76-.7-2.19-1.41-1.88-2.6-2.81-4.69-2.81-6.25l.16-1.41-.31-.62c.86-5.03,2.21-9.14,4.06-12.34,1.8-3.28,5.44-5.88,10.94-7.81,3.05-.73,5.65-1.09,7.81-1.09Zm-4.69,37.5c-.1,.86-.37,4.51-.78,10.94l3.28,.31c3.8,0,5.99-1.2,6.56-3.59,0-.23,.05-.44,.16-.62,0-1.67-.83-2.92-2.5-3.75l-.31,.16h-.16c-.52-.99-1.25-1.56-2.19-1.72-1.95-1.15-3.31-1.72-4.06-1.72Z"/><path class="d" d="M55.68,2.67h.78c1.51,.73,2.66,1.09,3.44,1.09h10.62c9.19,0,15.39,1.41,18.59,4.22,3.02,2.11,5.16,5.44,6.41,10,.31,1.82,.47,3.12,.47,3.91v.62c0,4.82-.42,7.94-1.25,9.38-.31,.37-.62,1.3-.94,2.81,.1,.68,.16,1.35,.16,2.03v.31c0,.52-1.09,1.04-3.28,1.56,0,1.59-1.04,2.73-3.12,3.44-1.02,1.98-1.59,2.97-1.72,2.97l-.47,.31h-1.09c-.47,0-1.62-.16-3.44-.47l-2.5,.62h-.47c-1.51-.21-2.29-.31-2.34-.31-.96,1.17-1.85,1.85-2.66,2.03v1.72c0,1.64,.52,3.26,1.56,4.84,.73,1.56,1.09,2.5,1.09,2.81-.29,.83-.81,1.25-1.56,1.25-1.12-.21-1.85-.31-2.19-.31h-.62l-.16,1.09v.47c0,.6,.05,1.43,.16,2.5-.31,.55-.52,1.54-.62,2.97-.6,.83-1.17,1.25-1.72,1.25h-.31c-1.41-.31-2.24-.47-2.5-.47-.31,0-1.2,.62-2.66,1.88-.18,.1-.39,.16-.62,.16h-.16c-.55,0-1.85-.52-3.91-1.56v.16c0,.1-.05,.16-.16,.16,.21,.52,.31,.88,.31,1.09,0,1.04-.26,2.55-.78,4.53,0,.42-.26,.78-.78,1.09h-.94c-.96,0-1.75-.73-2.34-2.19,0-5.03-.42-8.2-1.25-9.53,.16-1.04,.31-1.56,.47-1.56-.65-.94-1.02-1.61-1.09-2.03,.21-.88,.31-1.67,.31-2.34,0-.62-.05-1.56-.16-2.81,.31-1.59,.47-3.2,.47-4.84v-2.81c0-3.23,.47-4.84,1.41-4.84l.31-.47v-.94c-.21-4.58-.31-7.08-.31-7.5l.16-1.56c-1.04-3.33-1.56-5.26-1.56-5.78,.52-.94,.78-1.61,.78-2.03s-.47-2.08-1.41-5c.31-1.43,.47-2.53,.47-3.28,0-1.02-.1-2.11-.31-3.28,.31-.83,.47-1.35,.47-1.56-.83-1.12-1.25-2-1.25-2.66v-.16c0-.96,1.41-1.95,4.22-2.97Zm14.53,20.47c.1,2.76,.16,4.95,.16,6.56l.78,.31c2.29,0,3.44-.26,3.44-.78v-.47c-.26-6.35-.62-9.53-1.09-9.53h-2.19c-.39,0-.76,1.3-1.09,3.91Zm7.34-4.22l-.16,.94c.1,1.85,.16,3.36,.16,4.53,0,.21-.21,1.2-.62,2.97h1.56c.57,0,.94-1.35,1.09-4.06,0-.99-.57-2.45-1.72-4.38h-.31Z"/><path class="d" d="M128.57,4h2.81c4.48,0,9.32,1.15,14.53,3.44,1.59,0,3.36,1.09,5.31,3.28,.18,1.35,1.43,3.18,3.75,5.47,.13,0,.34,.83,.62,2.5,.83,1.48,1.82,4.92,2.97,10.31,1.04,.37,1.56,1.82,1.56,4.38,.73,2.4,1.09,3.96,1.09,4.69v.94c0,1.09-.94,2.45-2.81,4.06-.6,.91-1.12,4.25-1.56,10,0,1.93-.47,3.91-1.41,5.94,0,2.19-.57,3.28-1.72,3.28-.57-.23-1.3-1.07-2.19-2.5v-.47l.16-1.56h-.47l-1.56,2.81c0,.18-1.77,1.59-5.31,4.22-1.28,1.67-2.32,2.5-3.12,2.5h-.16c-.6,0-1.59-.52-2.97-1.56-.16-.1-.47-.16-.94-.16-.76,0-1.33,.68-1.72,2.03-.94,.49-1.41,1.17-1.41,2.03-.16,3.44-.68,5.16-1.56,5.16h-1.25c-1.67,0-2.5-1.93-2.5-5.78-.1-.99-.16-1.98-.16-2.97h-1.41c-1.28,1.77-2.42,2.66-3.44,2.66-1.69,0-3.78-1.41-6.25-4.22l-.78-2.03-1.25,2.34c-.73,.62-1.46,.94-2.19,.94h-.31c-1.64,0-3.1-1.51-4.38-4.53,0-3.57-1.09-5.86-3.28-6.88-2.6-5.44-3.91-8.41-3.91-8.91,.1-.7,.16-1.28,.16-1.72v-.62c0-.36-.57-1.72-1.72-4.06-.21-.42-.31-.99-.31-1.72v-.94c0-1.33,.68-3.41,2.03-6.25,0-5.7,2.08-11.54,6.25-17.5,5.13-5.73,12.06-8.59,20.78-8.59Zm-6.41,17.03c-1.07,1.15-2.21,4.43-3.44,9.84l-.16,2.19c0,9.06,2.08,14.64,6.25,16.72v-.16c-.21-3.05-.31-4.97-.31-5.78,0-1.9,.05-3.15,.16-3.75-.1-2.45-.16-4.79-.16-7.03v-5.31c0-4.38-.47-6.56-1.41-6.56-.08,0-.39-.05-.94-.16Zm5.31,7.66c0,.6,.05,1.85,.16,3.75-.1,1.56-.47,4.22-1.09,7.97,.08,6.98,.29,10.47,.62,10.47,.94,.21,2.19,.31,3.75,.31h.62c4.84,0,7.92-2.5,9.22-7.5v-.16c0-9.3-.73-15.39-2.19-18.28-.13-.94-.39-1.41-.78-1.41-.62,.42-1.2,.62-1.72,.62-2.4-1.04-3.59-2.19-3.59-3.44-.76-1.15-1.22-1.72-1.41-1.72h-1.09c-.83,0-1.25,.78-1.25,2.34-.83,2.79-1.25,5.13-1.25,7.03Z"/><path class="d" d="M193.8,4h2.81c4.48,0,9.32,1.15,14.53,3.44,1.59,0,3.36,1.09,5.31,3.28,.18,1.35,1.43,3.18,3.75,5.47,.13,0,.34,.83,.62,2.5,.83,1.48,1.82,4.92,2.97,10.31,1.04,.37,1.56,1.82,1.56,4.38,.73,2.4,1.09,3.96,1.09,4.69v.94c0,1.09-.94,2.45-2.81,4.06-.6,.91-1.12,4.25-1.56,10,0,1.93-.47,3.91-1.41,5.94,0,2.19-.57,3.28-1.72,3.28-.57-.23-1.3-1.07-2.19-2.5v-.47l.16-1.56h-.47l-1.56,2.81c0,.18-1.77,1.59-5.31,4.22-1.28,1.67-2.32,2.5-3.12,2.5h-.16c-.6,0-1.59-.52-2.97-1.56-.16-.1-.47-.16-.94-.16-.76,0-1.33,.68-1.72,2.03-.94,.49-1.41,1.17-1.41,2.03-.16,3.44-.68,5.16-1.56,5.16h-1.25c-1.67,0-2.5-1.93-2.5-5.78-.1-.99-.16-1.98-.16-2.97h-1.41c-1.28,1.77-2.42,2.66-3.44,2.66-1.69,0-3.78-1.41-6.25-4.22l-.78-2.03-1.25,2.34c-.73,.62-1.46,.94-2.19,.94h-.31c-1.64,0-3.1-1.51-4.38-4.53,0-3.57-1.09-5.86-3.28-6.88-2.6-5.44-3.91-8.41-3.91-8.91,.1-.7,.16-1.28,.16-1.72v-.62c0-.36-.57-1.72-1.72-4.06-.21-.42-.31-.99-.31-1.72v-.94c0-1.33,.68-3.41,2.03-6.25,0-5.7,2.08-11.54,6.25-17.5,5.13-5.73,12.06-8.59,20.78-8.59Zm-6.41,17.03c-1.07,1.15-2.21,4.43-3.44,9.84l-.16,2.19c0,9.06,2.08,14.64,6.25,16.72v-.16c-.21-3.05-.31-4.97-.31-5.78,0-1.9,.05-3.15,.16-3.75-.1-2.45-.16-4.79-.16-7.03v-5.31c0-4.38-.47-6.56-1.41-6.56-.08,0-.39-.05-.94-.16Zm5.31,7.66c0,.6,.05,1.85,.16,3.75-.1,1.56-.47,4.22-1.09,7.97,.08,6.98,.29,10.47,.62,10.47,.94,.21,2.19,.31,3.75,.31h.62c4.84,0,7.92-2.5,9.22-7.5v-.16c0-9.3-.73-15.39-2.19-18.28-.13-.94-.39-1.41-.78-1.41-.62,.42-1.2,.62-1.72,.62-2.4-1.04-3.59-2.19-3.59-3.44-.76-1.15-1.22-1.72-1.41-1.72h-1.09c-.83,0-1.25,.78-1.25,2.34-.83,2.79-1.25,5.13-1.25,7.03Z"/><path class="d" d="M234.19,2.36h1.09c.55,0,1.69,.52,3.44,1.56h10.16c.42,0,.62,3.28,.62,9.84-.1,1.93-.16,3.12-.16,3.59,.21,1.17,.47,3.2,.78,6.09,2.84-3.33,4.45-5,4.84-5,1.15,0,2.03-.78,2.66-2.34,5.73-8.12,8.65-12.19,8.75-12.19,.18-.1,.39-.16,.62-.16h5.62c2.34,0,5.68-.05,10-.16,.62,.13,.94,.29,.94,.47v.16c-.52,0-.89,1.98-1.09,5.94-.62,.47-.94,1.3-.94,2.5v4.69c-.52,.7-.78,1.54-.78,2.5-.34,.21-.65,.31-.94,.31-.62-.42-.94-.94-.94-1.56v-3.75h-.16c0,.65-1.04,1.69-3.12,3.12l-.16,1.09v1.09l-2.19,1.88c-.21,1.28-.31,3.72-.31,7.34v1.56c.49,10.94,.91,16.41,1.25,16.41,5.83,9.97,8.75,15.44,8.75,16.41v.62c0,1.15-.47,1.72-1.41,1.72-.13,0-.7-.47-1.72-1.41h-1.09v1.56c0,2.06-.62,3.46-1.88,4.22h-.78c-.81,0-1.64-.83-2.5-2.5,0-.91-.68-2.53-2.03-4.84-1.35,2.19-2.4,3.28-3.12,3.28h-.94c-.99,0-2.19-1.04-3.59-3.12l-.31-.16-.94,.16c-2.19-1.46-3.28-3.33-3.28-5.62-.52-1.41-1.25-3.7-2.19-6.88-1.77-1.38-2.66-3.2-2.66-5.47,0-1.67-.68-2.97-2.03-3.91-1.56,.34-2.34,1.02-2.34,2.03-.21,.99-.31,1.77-.31,2.34v.47c0,.68,.1,1.41,.31,2.19,0,.39-.52,2.42-1.56,6.09v5.16c0,4.58-.78,6.88-2.34,6.88-.57,0-1.35-1.04-2.34-3.12l-1.09-.31c-.42,0-.68,1.72-.78,5.16-.42,1.35-1.09,2.03-2.03,2.03-.83,0-1.67-.83-2.5-2.5l-.31-.94,.16-.94v-.31c0-.21-.1-.31-.31-.31-.47,1.04-1.04,1.56-1.72,1.56-1.46,0-2.81-1.35-4.06-4.06v-1.09c0-.08,.1-1.12,.31-3.12-1.04-2.71-1.56-6.15-1.56-10.31,.73-2.76,1.3-5.26,1.72-7.5l-.16-1.41c0-.7,.36-2.73,1.09-6.09,0-1.33-.42-2.68-1.25-4.06-.62-1.85-.94-3.41-.94-4.69,0-.7,.83-3.62,2.5-8.75v-1.41c0-1.93-.52-3.33-1.56-4.22,.21-2.29,.31-3.96,.31-5-.21-.39-.31-.81-.31-1.25,0-1.04,.94-1.56,2.81-1.56Zm32.5,27.97v.16c0,1.9,.68,4.09,2.03,6.56l2.34,1.56h.16v-.62c0-4.38-.1-9.11-.31-14.22h-.16c-.57,0-.94,.94-1.09,2.81-.39,.52-1.28,1.3-2.66,2.34-.21,.68-.31,1.15-.31,1.41Z"/><path class="d" d="M324.43,1.5h.31c2.66,.83,4.38,1.25,5.16,1.25,4.71-.1,7.47-.16,8.28-.16,1.77,.31,2.66,1.04,2.66,2.19v.47c-.7,.52-1.48,1.67-2.34,3.44-1.46,.68-2.19,2.24-2.19,4.69-.16,0-.31,.47-.47,1.41,.42,1.3,.62,2.19,.62,2.66-.73,4.27-1.41,6.41-2.03,6.41h-.16c-.62,0-1.56-.68-2.81-2.03l-.31-.16c-.68,0-1.09,.47-1.25,1.41v3.44c-.81,1.67-1.22,2.92-1.25,3.75-1.15,3.65-2.13,5.47-2.97,5.47h-.47l-1.09-.16-2.81,12.34v1.09c0,.34,.47,1.54,1.41,3.59,.62,2.73,.94,4.66,.94,5.78-.16,2.6-.37,3.91-.62,3.91-1.35,.86-2.03,1.8-2.03,2.81v2.03c0,1.38-.47,2.37-1.41,2.97h-.62c-.62,0-1.04-1.2-1.25-3.59-.76-3.23-1.54-4.84-2.34-4.84-.55,0-1.9-.31-4.06-.94-1.46,0-2.19,.42-2.19,1.25v.16c0,.91,.05,1.95,.16,3.12-.13,1.25-.65,1.88-1.56,1.88h-.62c-1.67,0-2.6-1.09-2.81-3.28-.1,0-.16-.68-.16-2.03v-1.56c0-.29-.57-1.64-1.72-4.06-.21-.44-.31-1.28-.31-2.5,.42-4.38,1.15-6.56,2.19-6.56,.42-.29,.62-.55,.62-.78-1.64-7.34-3.15-11.82-4.53-13.44-.73-3.72-1.3-6.17-1.72-7.34h-.16c-.52,.78-.89,2.97-1.09,6.56,.1,.55,.16,.86,.16,.94-.13,.42-.39,.73-.78,.94h-.16c-.83,0-1.25-1.72-1.25-5.16v-4.69c-.13-3.1-.55-4.82-1.25-5.16-2.5-.91-3.75-2.42-3.75-4.53-.42-2.45-1.09-4.53-2.03-6.25l-1.25-4.53,.16-.31c7.16-.1,12.32-.21,15.47-.31,.83,0,1.93,1.82,3.28,5.47,2.79,6.12,4.66,9.3,5.62,9.53h.16c.96,0,2.16-1.77,3.59-5.31,1.07-1.09,2.27-1.77,3.59-2.03l.16-.31v-1.09c0-1.25,.62-2.55,1.88-3.91,0-2.5,.94-3.75,2.81-3.75,0-.1,.21-.16,.62-.16Z"/><path class="d" d="M402.87,4.08h2.66c5.34,0,10.81,1.3,16.41,3.91v.31c0,1.46-.16,3.75-.47,6.88,.1,1.35,.16,2.45,.16,3.28-.34,9.79-.96,14.69-1.88,14.69h-.47c-.68-.29-1.3-1.64-1.88-4.06-.6,0-1.02-1.93-1.25-5.78-.23-.31-1.33-.83-3.28-1.56-.68-1.04-1.09-1.56-1.25-1.56-.88,.52-1.51,.78-1.88,.78h-.78c-.55,0-1.59-.42-3.12-1.25-2.29,3.15-3.44,6.17-3.44,9.06,0,1.59-.05,3.78-.16,6.56,.1,2.73,.16,5.44,.16,8.12l.16,.31c-.21,.52-.31,1.72-.31,3.59v2.5l.78,.16h2.03c3.44,0,8.18-1.15,14.22-3.44,.31,3.33,.68,5,1.09,5,.42,1.12,.62,2.16,.62,3.12v.16c0,.86-.52,1.95-1.56,3.28l-.16,1.56c.1,1.15,.16,2.19,.16,3.12,0,1.77-.62,2.66-1.88,2.66-.88,0-2.08-.68-3.59-2.03h-.16c-.6,0-1.85-.05-3.75-.16-.94,0-2.66,1.3-5.16,3.91l-1.09,.16h-.78c-.94,0-2.6-.68-5-2.03-.73-.31-1.41-.47-2.03-.47-.91,.52-1.64,.78-2.19,.78h-.62c-.73,0-2.34-1.3-4.84-3.91-.94,.21-1.46,.31-1.56,.31-2.99,0-4.87-1.09-5.62-3.28-.6-2.29-1.17-3.44-1.72-3.44-.42,0-1.67-2.4-3.75-7.19-.21-.78-.31-1.51-.31-2.19v-.94c0-.44,.1-1.59,.31-3.44,0-.52-.37-2.13-1.09-4.84,0-.23,.05-.44,.16-.62-.1-1.46-.16-2.71-.16-3.75v-.62c0-3.54,1.98-8.96,5.94-16.25,3.33-4.77,7.92-8.1,13.75-10,3.12-.94,5.99-1.41,8.59-1.41Zm-11.09,29.38v1.72c0,6.95,2.19,11.54,6.56,13.75,.76,.31,1.43,.52,2.03,.62v-.16c0-1.69,.1-4.19,.31-7.5,0-2.47-.88-4.82-2.66-7.03-.1-.57-.16-.99-.16-1.25,1.04-3.05,1.56-4.97,1.56-5.78,0-1.12-.78-3.41-2.34-6.88l-.94-.78c-2.92,3.1-4.38,7.53-4.38,13.28Z"/><path class="d" d="M454.51,4h2.81c4.48,0,9.32,1.15,14.53,3.44,1.59,0,3.36,1.09,5.31,3.28,.18,1.35,1.43,3.18,3.75,5.47,.13,0,.34,.83,.62,2.5,.83,1.48,1.82,4.92,2.97,10.31,1.04,.37,1.56,1.82,1.56,4.38,.73,2.4,1.09,3.96,1.09,4.69v.94c0,1.09-.94,2.45-2.81,4.06-.6,.91-1.12,4.25-1.56,10,0,1.93-.47,3.91-1.41,5.94,0,2.19-.57,3.28-1.72,3.28-.57-.23-1.3-1.07-2.19-2.5v-.47l.16-1.56h-.47l-1.56,2.81c0,.18-1.77,1.59-5.31,4.22-1.28,1.67-2.32,2.5-3.12,2.5h-.16c-.6,0-1.59-.52-2.97-1.56-.16-.1-.47-.16-.94-.16-.76,0-1.33,.68-1.72,2.03-.94,.49-1.41,1.17-1.41,2.03-.16,3.44-.68,5.16-1.56,5.16h-1.25c-1.67,0-2.5-1.93-2.5-5.78-.1-.99-.16-1.98-.16-2.97h-1.41c-1.28,1.77-2.42,2.66-3.44,2.66-1.69,0-3.78-1.41-6.25-4.22l-.78-2.03-1.25,2.34c-.73,.62-1.46,.94-2.19,.94h-.31c-1.64,0-3.1-1.51-4.38-4.53,0-3.57-1.09-5.86-3.28-6.88-2.6-5.44-3.91-8.41-3.91-8.91,.1-.7,.16-1.28,.16-1.72v-.62c0-.36-.57-1.72-1.72-4.06-.21-.42-.31-.99-.31-1.72v-.94c0-1.33,.68-3.41,2.03-6.25,0-5.7,2.08-11.54,6.25-17.5,5.13-5.73,12.06-8.59,20.78-8.59Zm-6.41,17.03c-1.07,1.15-2.21,4.43-3.44,9.84l-.16,2.19c0,9.06,2.08,14.64,6.25,16.72v-.16c-.21-3.05-.31-4.97-.31-5.78,0-1.9,.05-3.15,.16-3.75-.1-2.45-.16-4.79-.16-7.03v-5.31c0-4.38-.47-6.56-1.41-6.56-.08,0-.39-.05-.94-.16Zm5.31,7.66c0,.6,.05,1.85,.16,3.75-.1,1.56-.47,4.22-1.09,7.97,.08,6.98,.29,10.47,.62,10.47,.94,.21,2.19,.31,3.75,.31h.62c4.84,0,7.92-2.5,9.22-7.5v-.16c0-9.3-.73-15.39-2.19-18.28-.13-.94-.39-1.41-.78-1.41-.62,.42-1.2,.62-1.72,.62-2.4-1.04-3.59-2.19-3.59-3.44-.76-1.15-1.22-1.72-1.41-1.72h-1.09c-.83,0-1.25,.78-1.25,2.34-.83,2.79-1.25,5.13-1.25,7.03Z"/><path class="d" d="M493.02,3.45h20c12.71,0,21.56,4.17,26.56,12.5,.96,.44,2.01,2.16,3.12,5.16v.62l-.47,2.34c1.25,5.91,2.19,9.51,2.81,10.78v.31c0,.81-.78,2.21-2.34,4.22-.18,.68-.34,3.91-.47,9.69-.39,2.81-.7,4.22-.94,4.22-.68,0-1.15-2.45-1.41-7.34h-.16c-2.6,5.99-3.91,10.37-3.91,13.12,0,2.92-.42,4.53-1.25,4.84h-.31c-1.25,0-1.88-1.56-1.88-4.69-.1-.99-.16-1.93-.16-2.81-.42,.16-1.46,1.51-3.12,4.06-1.38,1.15-2.53,1.72-3.44,1.72h-.94c-.42,0-2.45-.47-6.09-1.41-.1,0-.16,.05-.16,.16-.39,1.54-1.17,2.63-2.34,3.28-1.38,.52-2.16,.78-2.34,.78h-.94c-.94,0-2.55-1.35-4.84-4.06h-.47c-1.69,1.67-3.2,2.5-4.53,2.5h-.62c-.73,0-2.19-.73-4.38-2.19-.81,0-1.43,.94-1.88,2.81-.55,.52-1.02,.78-1.41,.78h-.47c-1.98,0-2.97-2.45-2.97-7.34-.1-.65-.16-1.43-.16-2.34,.21-3.31,.31-5.49,.31-6.56-.21-2.21-.31-3.52-.31-3.91,0-.88,.47-2.34,1.41-4.38v-.78c0-1.22-.52-3.67-1.56-7.34v-.47c0-1.04,.52-3.8,1.56-8.28,.1-1.41,.16-2.4,.16-2.97,0-.91-.68-2.94-2.03-6.09v-1.09c0-.7,.62-2,1.88-3.91,.1-.42,.16-.83,.16-1.25V3.77c.03-.21,.13-.31,.31-.31Zm15.78,14.38v3.44c0,2.58,.88,5.23,2.66,7.97,1.17,.68,2.06,2.24,2.66,4.69v.94c0,.29-.42,1.07-1.25,2.34-.18,.39-.34,.91-.47,1.56,.1,1.75,.16,3.1,.16,4.06v1.88c0,.68-.05,1.72-.16,3.12h.16c5.73,0,9.63-2.19,11.72-6.56,1.15-3.05,1.72-6.12,1.72-9.22v-1.25c0-5.57-1.35-9.53-4.06-11.88-1.25,2.53-2.29,6.54-3.12,12.03l-.47,.31h-.47c-1.15,0-1.82-1.41-2.03-4.22-.26-5.55-1.15-8.78-2.66-9.69-.76-.94-1.48-1.41-2.19-1.41h-.31c-1.25,0-1.88,.62-1.88,1.88Zm1.09,21.88c-.73,1.56-1.09,2.6-1.09,3.12v5h1.25v-8.12h-.16Z"/><path class="d" d="M553.1,1.66h.47c.37,0,1.15,.52,2.34,1.56,.16,.1,.73,.21,1.72,.31,2.06-.1,3.41-.16,4.06-.16,1.43,.1,2.32,.16,2.66,.16s1.54-.57,3.59-1.72h.16c4.17,.23,6.25,.7,6.25,1.41,.39,.21,.81,.31,1.25,.31h8.28c.94,0,1.41,.37,1.41,1.09V15.56c-1.46,1.67-2.24,2.5-2.34,2.5h-.16c-.34,0-1.02-.42-2.03-1.25-.57,1.88-1.51,2.81-2.81,2.81-.26,0-1.04-.52-2.34-1.56-.65,0-1.8-.57-3.44-1.72-.57-.1-1.04-.16-1.41-.16h-.16c-1.41,1.25-2.6,1.93-3.59,2.03,.1,.57,.21,2.03,.31,4.38h.16c1.69,0,4.19,.73,7.5,2.19h7.34c.73,0,1.3,.1,1.72,.31,.1,4.32,.16,7.55,.16,9.69v3.59c0,.83-.83,1.77-2.5,2.81,0,.31-.05,.47-.16,.47l.16,.78v3.91c.03,1.04,.13,1.56,.31,1.56,2.5,0,3.75,.16,3.75,.47l.16,.94v11.25c-.62,2.42-.94,4.19-.94,5.31v1.25l.16,1.09c-.42,.21-.99,.31-1.72,.31-.7-.99-1.17-2.6-1.41-4.84-.39-1.46-.76-2.19-1.09-2.19-1.2,0-2.92,1.3-5.16,3.91-.34,.21-.65,.31-.94,.31-1.88,0-3.59-1.09-5.16-3.28h-.16c-.57,0-1.67,.83-3.28,2.5-.52,.31-1.04,.47-1.56,.47h-.16c-.65,0-2.06-.68-4.22-2.03h-.16c-.7,1.88-1.43,2.81-2.19,2.81-.18,.1-.39,.16-.62,.16-.7-.13-1.64-1.28-2.81-3.44h-.16c-.52,.31-.94,.47-1.25,.47h-.47c-1.82,0-3.12-1.15-3.91-3.44-.1-.7-.16-1.28-.16-1.72v-.31c0-1.02,.62-2.79,1.88-5.31v-12.66c0-2.58-.05-6.17-.16-10.78-1.15-1.28-1.72-2.32-1.72-3.12v-1.09c.73-5.52,1.09-8.8,1.09-9.84,0-.29-.16-2.89-.47-7.81,0-.21,.1-.57,.31-1.09-.1-.7-.16-1.28-.16-1.72,0-1.12,1.25-2.06,3.75-2.81Zm13.59,35.62v6.72c0,2.6,1.67,3.91,5,3.91h7.81c.21-2,.31-3.52,.31-4.53,0-3.12-.52-4.69-1.56-4.69,0-.23-.52-.6-1.56-1.09-1.9,1.46-3.36,2.19-4.38,2.19-1.33,0-2.63-.83-3.91-2.5h-1.72Z"/></g></g></g></svg>