<?xml version="1.0" encoding="utf-8"?>
<!-- Generator: Adobe Illustrator 25.0.0, SVG Export Plug-In . SVG Version: 6.00 Build 0)  -->
<svg version="1.1" id="Calque_1" xmlns="http://www.w3.org/2000/svg" xmlns:xlink="http://www.w3.org/1999/xlink" x="0px" y="0px"
	 viewBox="0 0 1920 1080" style="enable-background:new 0 0 1920 1080;" xml:space="preserve">
<style type="text/css">
	.st0{fill:#F1EDA3;}
</style>
<g>
	<path class="st0" d="M859.66,506.94c0.36-34.15,27.38-60.64,61.23-60.34c32.84,0.3,61.11,27.91,59.57,63.19
		c-1.37,32.01-28.27,58.44-62.42,57.73C886.15,566.81,859.31,539.25,859.66,506.94z M874.22,516.38
		c21.44,12,42.23,23.64,63.43,35.52c-23.4,9.26-51.79-0.89-62.24-26.73c-1.96-4.87-5.64-6.18-9.5-8.43
		c1.84,15.86,15.68,38.43,42.64,44.48c23.58,5.29,48.88-6.47,60.52-28.45c11.7-22.15,6.95-49.29-11.52-66.46
		c-17.34-16.09-42.23-17.7-56.95-10.63c2.26,1.25,4.34,2.55,6.59,3.56c0.89,0.42,2.08,0.59,3.09,0.42
		c20.07-3.5,36.41,2.91,48.88,18.95c4.34,5.58,7.07,12,8.43,19.48c-20.43-11.34-40.39-22.45-61.05-33.85
		c6.35,19.84,12.53,39.02,18.77,58.38c14.37-3.09,28.45-6.12,42.58-9.15c0.24,3.03-0.77,4.39-3.8,4.93
		c-6.18,1.07-12.29,2.61-18.59,4.04c2.14,6,4.04,11.82,6.35,17.46c1.19,2.85,0.18,4.1-2.43,5.29c-2.02-5.64-3.92-11.11-5.88-16.57
		c-1.96-5.4-1.96-5.35-7.72-4.1c-4.39,0.95-8.79,1.84-13.18,2.73c-2.32-7.25-4.57-14.08-6.83-21.14
		C901.95,509.5,888.41,512.88,874.22,516.38z M914.54,502.31c-4.45-13.78-8.79-27.32-13.3-41.39c-9.74,17.4-19.18,34.39-28.92,51.85
		C886.75,509.2,900.53,505.75,914.54,502.31z M865.49,515.61c0.3,0.12,0.65,0.24,0.95,0.42c1.78-4.16,4.51-8.2,5.11-12.59
		c1.96-14.19,7.72-26.07,19.18-34.8c4.34-3.33,5.52-8.31,8.97-12.95C876,464.48,861.39,490.55,865.49,515.61z"/>
</g>
</svg>
