<?xml version="1.0" encoding="utf-8"?>
<!-- Generator: Adobe Illustrator 25.0.0, SVG Export Plug-In . SVG Version: 6.00 Build 0)  -->
<svg version="1.1" id="Calque_1" xmlns="http://www.w3.org/2000/svg" xmlns:xlink="http://www.w3.org/1999/xlink" x="0px" y="0px"
	 viewBox="0 0 1920 1080" style="enable-background:new 0 0 1920 1080;" xml:space="preserve">
<style type="text/css">
	.st0{fill:#F1EDA3;}
</style>
<g>
	<path class="st0" d="M955.51,480.46c3.04,0,6.03,0,9.07,0c0.59,0.16,1.17,0.37,1.76,0.43c23.57,2.24,44.21,19.15,51.04,42.13
		c1.23,4.21,1.81,8.59,2.67,12.91c0,3.04,0,6.03,0,9.07c-0.16,0.59-0.37,1.17-0.43,1.76c-2.51,24-19.2,44.27-42.35,51.04
		c-4.11,1.23-8.43,1.76-12.64,2.67c-3.04,0-6.03,0-9.07,0c-1.39-0.21-2.77-0.37-4.16-0.64c-24.8-4.59-41.23-18.88-48.91-42.93
		c-1.28-3.84-1.65-7.89-2.45-11.89c0-3.2,0-6.4,0-9.6c0.16-0.48,0.37-0.96,0.43-1.49c2.4-23.57,19.2-44,42.08-50.77
		C946.76,481.9,951.19,481.31,955.51,480.46z M989.64,565.53c0-8.64,0.48-17.01-0.16-25.28c-0.59-7.68-6.45-12.27-14.13-12.37
		c-4.64-0.05-8.53,1.49-11.89,5.44c0-2.08,0-3.57,0-5.17c-4.37,0-8.59,0-12.85,0c0,12.53,0,24.91,0,37.28c4.43,0,8.64,0,12.96,0
		c0-7.04-0.05-13.92,0-20.75c0.05-4.16,2.61-6.88,6.4-7.04c3.68-0.16,6.19,2.08,6.4,6.29c0.32,6.13,0.21,12.27,0.27,18.4
		c0,1.01,0,2.08,0,3.2C981.27,565.53,985.48,565.53,989.64,565.53z M931.67,528.09c0,12.59,0,24.96,0,37.39c3.89,0,7.68,0,11.36,0
		c0-12.59,0-24.96,0-37.39C939.19,528.09,935.62,528.09,931.67,528.09z M937.32,510.33c-4.16,0-7.25,2.67-7.31,6.4
		c-0.11,3.73,3.04,6.72,7.04,6.77c4.11,0.05,7.2-2.67,7.25-6.51C944.36,513.15,941.43,510.33,937.32,510.33z"/>
</g>
</svg>
