<?xml version="1.0" encoding="utf-8"?>
<!-- Generator: Adobe Illustrator 25.0.0, SVG Export Plug-In . SVG Version: 6.00 Build 0)  -->
<svg version="1.1" id="Calque_1" xmlns="http://www.w3.org/2000/svg" xmlns:xlink="http://www.w3.org/1999/xlink" x="0px" y="0px"
	 viewBox="0 0 1920 1080" style="enable-background:new 0 0 1920 1080;" xml:space="preserve">
<style type="text/css">
	.st0{fill:#F1EDA3;}
</style>
<g>
	<path class="st0" d="M897.82,540.46c-0.12-34.45,27.4-62.13,61.73-62.25c35.14-0.12,62.71,27.28,62.77,62.37
		c0.06,34.51-27.51,62.02-62.19,62.13C925.39,602.83,897.94,575.37,897.82,540.46z M910.66,540.4c0,27.69,21.96,49.48,49.77,49.48
		c27.05,0,49.07-22.14,49.07-49.36c0-27.4-22.02-49.48-49.25-49.48C932.68,491.04,910.66,512.95,910.66,540.4z"/>
	<path class="st0" d="M940.42,501.5c4.68,0.87,7.46,4.05,10,7.4c8.79-3.12,17.51-3.18,26.47-0.06c2.54-3.18,5.32-6.53,10.06-7.34
		c1.62,3.53,1.97,7.11,0.81,10.64c-0.52,1.68-0.29,2.77,0.87,4.05c0.92,1.04,1.91,2.43,2.02,3.76c0.58,5.61,1.68,11.33,1.04,16.82
		c-1.04,8.61-7.63,14.22-16.99,16.07c-0.92,0.17-1.85,0.4-2.72,0.58c3.81,8.5,1.44,17.22,2.25,25.89c-7.11,0-13.81,0-20.81,0
		c0-3.41,0-6.76,0-10.23c-3.06,0-5.9,0.29-8.55-0.06c-4.16-0.58-7.05-3.24-9.19-6.76c-2.25-3.7-4.68-7.34-7.11-11.1
		c1.79-0.64,4.05-0.23,5.95,1.33c1.39,1.16,2.49,2.66,3.53,4.1c3.18,4.68,7.57,6.24,13.06,5.43c1.39-0.23,2.31-0.69,2.54-2.49
		c0.23-2.02,1.16-3.99,1.79-6.13c-1.73-0.4-3.76-0.81-5.66-1.39c-8.9-2.83-13.93-8.73-14.39-18.03c-0.35-6.59-0.58-13.35,4.28-18.9
		c0.4-0.46,0.29-1.62,0.12-2.37C938.75,509.02,938.98,505.38,940.42,501.5z"/>
</g>
</svg>
