<?xml version="1.0" encoding="utf-8"?>
<!-- Generator: Adobe Illustrator 25.0.0, SVG Export Plug-In . SVG Version: 6.00 Build 0)  -->
<svg version="1.1" id="Calque_1" xmlns="http://www.w3.org/2000/svg" xmlns:xlink="http://www.w3.org/1999/xlink" x="0px" y="0px"
	 viewBox="0 0 215.4 215.4" style="enable-background:new 0 0 215.4 215.4;" xml:space="preserve">
<style type="text/css">
	.st0{fill:#FFFFFF;}
</style>
<g>
	<path class="st0" d="M0,107.7C-0.2,48.1,47.4,0.2,106.8,0c60.8-0.2,108.5,47.2,108.6,107.9c0.1,59.7-47.6,107.3-107.6,107.5
		C47.7,215.6,0.2,168.1,0,107.7z M22.2,107.6c0,47.9,38,85.6,86.1,85.6c46.8,0,84.9-38.3,84.9-85.4c0-47.4-38.1-85.6-85.2-85.6
		C60.3,22.2,22.2,60.1,22.2,107.6z"/>
	<path class="st0" d="M73.7,40.3c8.1,1.5,12.9,7,17.3,12.8c15.2-5.4,30.3-5.5,45.8-0.1c4.4-5.5,9.2-11.3,17.4-12.7
		c2.8,6.1,3.4,12.3,1.4,18.4c-0.9,2.9-0.5,4.8,1.5,7c1.6,1.8,3.3,4.2,3.5,6.5c1,9.7,2.9,19.6,1.8,29.1
		c-1.8,14.9-13.2,24.6-29.4,27.8c-1.6,0.3-3.2,0.7-4.7,1c6.6,14.7,2.5,29.8,3.9,44.8c-12.3,0-23.9,0-36,0c0-5.9,0-11.7,0-17.7
		c-5.3,0-10.2,0.5-14.8-0.1c-7.2-1-12.2-5.6-15.9-11.7c-3.9-6.4-8.1-12.7-12.3-19.2c3.1-1.1,7-0.4,10.3,2.3c2.4,2,4.3,4.6,6.1,7.1
		c5.5,8.1,13.1,10.8,22.6,9.4c2.4-0.4,4-1.2,4.4-4.3c0.4-3.5,2-6.9,3.1-10.6c-3-0.7-6.5-1.4-9.8-2.4c-15.4-4.9-24.1-15.1-24.9-31.2
		c-0.6-11.4-1-23.1,7.4-32.7c0.7-0.8,0.5-2.8,0.2-4.1C70.8,53.3,71.2,47,73.7,40.3z"/>
</g>
</svg>
