<?xml version="1.0" encoding="utf-8"?>
<!-- Generator: Adobe Illustrator 25.0.0, SVG Export Plug-In . SVG Version: 6.00 Build 0)  -->
<svg version="1.1" id="Calque_1" xmlns="http://www.w3.org/2000/svg" xmlns:xlink="http://www.w3.org/1999/xlink" x="0px" y="0px"
	 viewBox="0 0 225 225" style="enable-background:new 0 0 225 225;" xml:space="preserve">
<style type="text/css">
	.st0{fill:#FFFFFF;}
</style>
<g>
	<path class="st0" d="M104,0c5.7,0,11.3,0,17,0c1.1,0.3,2.2,0.7,3.3,0.8c44.2,4.2,82.9,35.9,95.7,79c2.3,7.9,3.4,16.1,5,24.2
		c0,5.7,0,11.3,0,17c-0.3,1.1-0.7,2.2-0.8,3.3c-4.7,45-36,83-79.4,95.7c-7.7,2.3-15.8,3.3-23.7,5c-5.7,0-11.3,0-17,0
		c-2.6-0.4-5.2-0.7-7.8-1.2c-46.5-8.6-77.3-35.4-91.7-80.5C2.2,136.1,1.5,128.5,0,121c0-6,0-12,0-18c0.3-0.9,0.7-1.8,0.8-2.8
		C5.3,56,36.8,17.7,79.7,5C87.6,2.7,95.9,1.6,104,0z M168,159.5c0-16.2,0.9-31.9-0.3-47.4c-1.1-14.4-12.1-23-26.5-23.2
		c-8.7-0.1-16,2.8-22.3,10.2c0-3.9,0-6.7,0-9.7c-8.2,0-16.1,0-24.1,0c0,23.5,0,46.7,0,69.9c8.3,0,16.2,0,24.3,0
		c0-13.2-0.1-26.1,0-38.9c0.1-7.8,4.9-12.9,12-13.2c6.9-0.3,11.6,3.9,12,11.8c0.6,11.5,0.4,23,0.5,34.5c0,1.9,0,3.9,0,6
		C152.3,159.5,160.2,159.5,168,159.5z M59.3,89.3c0,23.6,0,46.8,0,70.1c7.3,0,14.4,0,21.3,0c0-23.6,0-46.8,0-70.1
		C73.4,89.3,66.7,89.3,59.3,89.3z M69.9,56c-7.8,0-13.6,5-13.7,12c-0.2,7,5.7,12.6,13.2,12.7c7.7,0.1,13.5-5,13.6-12.2
		C83.1,61.3,77.6,56,69.9,56z"/>
</g>
</svg>
