<?xml version="1.0" encoding="utf-8"?>
<!-- Generator: Adobe Illustrator 25.0.0, SVG Export Plug-In . SVG Version: 6.00 Build 0)  -->
<svg version="1.1" id="Calque_1" xmlns="http://www.w3.org/2000/svg" xmlns:xlink="http://www.w3.org/1999/xlink" x="0px" y="0px"
	 viewBox="0 0 203.5 203.6" style="enable-background:new 0 0 203.5 203.6;" xml:space="preserve">
<style type="text/css">
	.st0{fill:#FFFFFF;}
</style>
<g>
	<path class="st0" d="M0,101.6C0.6,44.1,46.1-0.5,103.1,0C158.4,0.5,206,47,203.4,106.4c-2.3,53.9-47.6,98.4-105.1,97.2
		C44.6,202.4-0.6,156,0,101.6z M24.5,117.5c36.1,20.2,71.1,39.8,106.8,59.8c-39.4,15.6-87.2-1.5-104.8-45c-3.3-8.2-9.5-10.4-16-14.2
		c3.1,26.7,26.4,64.7,71.8,74.9c39.7,8.9,82.3-10.9,101.9-47.9c19.7-37.3,11.7-83-19.4-111.9C135.6,6.1,93.7,3.4,68.9,15.3
		c3.8,2.1,7.3,4.3,11.1,6c1.5,0.7,3.5,1,5.2,0.7c33.8-5.9,61.3,4.9,82.3,31.9c7.3,9.4,11.9,20.2,14.2,32.8
		c-34.4-19.1-68-37.8-102.8-57c10.7,33.4,21.1,65.7,31.6,98.3c24.2-5.2,47.9-10.3,71.7-15.4c0.4,5.1-1.3,7.4-6.4,8.3
		c-10.4,1.8-20.7,4.4-31.3,6.8c3.6,10.1,6.8,19.9,10.7,29.4c2,4.8,0.3,6.9-4.1,8.9c-3.4-9.5-6.6-18.7-9.9-27.9
		c-3.3-9.1-3.3-9-13-6.9c-7.4,1.6-14.8,3.1-22.2,4.6c-3.9-12.2-7.7-23.7-11.5-35.6C71.2,105.9,48.4,111.6,24.5,117.5z M92.4,93.8
		c-7.5-23.2-14.8-46-22.4-69.7C53.6,53.4,37.7,82,21.3,111.4C45.6,105.4,68.8,99.6,92.4,93.8z M9.8,116.2c0.5,0.2,1.1,0.4,1.6,0.7
		c3-7,7.6-13.8,8.6-21.2c3.3-23.9,13-43.9,32.3-58.6c7.3-5.6,9.3-14,15.1-21.8C27.5,30.1,2.9,74,9.8,116.2z"/>
</g>
</svg>
