<?xml version="1.0" encoding="utf-8"?>
<!-- Generator: Adobe Illustrator 25.0.0, SVG Export Plug-In . SVG Version: 6.00 Build 0)  -->
<svg version="1.1" id="Calque_1" xmlns="http://www.w3.org/2000/svg" xmlns:xlink="http://www.w3.org/1999/xlink" x="0px" y="0px"
	 viewBox="0 0 34 37.9" style="enable-background:new 0 0 34 37.9;" xml:space="preserve">
<style type="text/css">
	.st0{fill:#ED1846;}
</style>
<g>
	<path class="st0" d="M0,0c11.3,0,22.6,0,34,0c-0.1,0.9-0.2,1.8-0.2,2.7c-0.3,3.3-0.6,6.5-0.9,9.8c-0.3,3.6-0.6,7.2-1,10.8
		c-0.3,3.2-0.6,6.4-0.8,9.6C31,34,31,34,30,34.3c-4.1,1.2-8.3,2.4-12.4,3.6c-0.4,0.1-0.8,0.1-1.2,0c-4.3-1.2-8.6-2.5-12.9-3.7
		C3.1,34,3,33.9,3,33.6c-0.3-3.3-0.6-6.5-0.9-9.8c-0.3-3.6-0.6-7.2-1-10.9C0.9,9.8,0.6,6.6,0.3,3.4C0.2,2.3,0.1,1.2,0,0z M2.2,2
		c0,0.2,0,0.4,0,0.5C2.6,7.2,3,11.9,3.5,16.6c0.4,5.1,0.9,10.2,1.3,15.3c0,0.4,0.2,0.5,0.5,0.6c3.7,1,7.4,2.1,11.1,3.2
		c0.3,0.1,0.7,0.1,1.1,0c3.7-1,7.4-2.1,11.1-3.2c0.3-0.1,0.5-0.3,0.5-0.6c0.1-1,0.2-2,0.2-3c0.4-4,0.7-7.9,1.1-11.9
		c0.4-4.1,0.7-8.1,1.1-12.2C31.6,3.9,31.7,3,31.8,2C21.9,2,12.1,2,2.2,2z"/>
	<path class="st0" d="M8.8,22c1.4,0,2.7,0,4,0c0,0.7,0.1,1.4,0.1,2.1c0,0.3,0.1,0.4,0.4,0.5c1.2,0.4,2.3,0.8,3.5,1.2
		c0.2,0.1,0.4,0.1,0.6,0c1.2-0.4,2.4-0.8,3.5-1.2c0.1,0,0.3-0.2,0.3-0.3c0.1-1.4,0.2-2.8,0.3-4.3c-2.9,0-5.8,0-8.8,0
		c-0.1-1.3-0.1-2.6-0.2-4c3.1,0,6.1,0,9.2,0c0.1-1.4,0.2-2.7,0.3-4c-4.6,0-9.2,0-13.8,0C8,10.7,7.9,9.3,7.8,8C13.9,8,20,8,26.1,8
		c-0.1,1.3-0.2,2.6-0.2,3.8c-0.2,3.6-0.4,7.2-0.7,10.8c-0.1,1.5-0.2,3-0.3,4.5c0,0.1-0.2,0.4-0.3,0.4c-2.4,0.8-4.9,1.6-7.3,2.4
		c-0.2,0.1-0.4,0-0.5,0c-2.4-0.8-4.8-1.6-7.3-2.4c-0.1,0-0.4-0.2-0.4-0.3C9,25.5,8.9,23.8,8.8,22z"/>
</g>
</svg>
