<?xml version="1.0" encoding="utf-8"?>
<!-- Generator: Adobe Illustrator 25.0.0, SVG Export Plug-In . SVG Version: 6.00 Build 0)  -->
<svg version="1.1" id="Calque_1" xmlns="http://www.w3.org/2000/svg" xmlns:xlink="http://www.w3.org/1999/xlink" x="0px" y="0px"
	 viewBox="0 0 49.9 56.5" style="enable-background:new 0 0 49.9 56.5;" xml:space="preserve">
<style type="text/css">
	.st0{fill:#ED1846;}
</style>
<g>
	<path class="st0" d="M0,0.4C0,0.2-0.1-0.1,0.3,0c0.1,0,0.1,0,0.2,0C17,0,33.4,0,49.9,0c-0.1,1.1-0.2,2.2-0.3,3.3
		c-0.3,3.9-0.7,7.8-1,11.7c-0.4,3.9-0.7,7.8-1.1,11.8c-0.3,3.9-0.7,7.8-1,11.7c-0.4,4-0.7,7.9-1.1,11.9c0,0.4-0.1,0.6-0.5,0.7
		c-6.5,1.8-13,3.6-19.4,5.4c-0.3,0.1-0.7,0.1-1,0c-6.4-1.8-12.8-3.6-19.3-5.3c-0.5-0.1-0.7-0.3-0.7-0.8s-0.1-1-0.1-1.4
		C4,44.1,3.5,39.3,3.1,34.6s-0.8-9.5-1.3-14.2c-0.5-5.7-1-11.5-1.5-17.2C0.2,2.2,0.1,1.3,0,0.4z M45.3,4.2c-13.6,0-27.1,0-40.6,0
		C4.8,5.1,4.8,6,4.9,6.8c0.4,4.3,0.8,8.6,1.2,13c0.4,4.3,0.8,8.6,1.1,13c0.4,4.8,0.9,9.6,1.3,14.4c0,0.4,0.2,0.5,0.5,0.6
		c5.2,1.4,10.4,2.9,15.6,4.3c0.2,0.1,0.5,0.1,0.7,0c5.2-1.4,10.4-2.9,15.7-4.3c0.3-0.1,0.5-0.2,0.5-0.6c0.1-1.4,0.2-2.7,0.3-4.1
		c0.3-3.5,0.6-6.9,0.9-10.4c0.4-4,0.7-7.9,1.1-11.9c0.3-3.5,0.6-7,0.9-10.5C44.9,8.3,45.1,6.3,45.3,4.2z"/>
	<path class="st0" d="M11.1,29.3C10.5,23,9.9,16.7,9.4,10.4c10.4,0,20.8,0,31.2,0c-0.2,2.1-0.4,4.1-0.6,6.2c-8,0-15.9,0-23.9,0
		c0.2,2.1,0.4,4.2,0.6,6.4c7.6,0,15.1,0,22.7,0c-0.2,1.8-0.3,3.5-0.5,5.2c-0.3,3.5-0.6,7-0.9,10.5c-0.1,1-0.2,2-0.3,3
		c0,0.3-0.1,0.5-0.5,0.6c-4,1.1-8,2.2-11.9,3.3c-0.2,0.1-0.5,0.1-0.7,0c-4-1.1-8-2.2-12-3.3c-0.3-0.1-0.5-0.2-0.5-0.5
		c-0.2-2.9-0.5-5.8-0.8-8.6c0-0.2,0-0.5,0-0.7c2.1,0,4.1,0,6.2,0c0.1,1.1,0.2,2.1,0.3,3.2c0.1,0.6-0.1,1.3,0.2,1.7
		c0.3,0.4,1,0.4,1.6,0.5c1.6,0.4,3.3,0.9,4.9,1.3c0.2,0.1,0.5,0.1,0.7,0c2.1-0.6,4.2-1.1,6.3-1.7c0.2,0,0.4-0.3,0.4-0.4
		c0.2-2.6,0.5-5.1,0.7-7.8C25.5,29.3,18.3,29.3,11.1,29.3z"/>
</g>
</svg>
