<?xml version="1.0" encoding="utf-8"?>
<!-- Generator: Adobe Illustrator 25.0.0, SVG Export Plug-In . SVG Version: 6.00 Build 0)  -->
<svg version="1.1" id="Calque_1" xmlns="http://www.w3.org/2000/svg" xmlns:xlink="http://www.w3.org/1999/xlink" x="0px" y="0px"
	 viewBox="0 0 100 52.5" style="enable-background:new 0 0 100 52.5;" xml:space="preserve">
<style type="text/css">
	.st0{fill:#ED1846;}
</style>
<g>
	<path class="st0" d="M100,24.2c0,1.3,0,2.7,0,4c-1.1,5-3.9,9.1-8,12.2c-2.3,1.7-4.7,3.4-7.3,4.7c-10.1,5.2-21.1,7.1-32.3,7.4
		c-12.2,0.3-24.1-1.3-35.2-6.4C9.2,42.4,2.3,37.5,0,28.2c0-1.3,0-2.7,0-4c1.2-5,3.9-9.1,8-12.2c2.3-1.8,4.8-3.4,7.5-4.7
		c9.9-5,20.7-7,31.7-7.3c12.3-0.4,24.4,1.2,35.7,6.4C90.8,10.1,97.7,15,100,24.2z M67.2,34c2.3,0,4.3,0.1,6.4,0
		c5.5-0.2,9.7-3.5,11.1-8.6c1.6-5.9-0.7-9.9-6.6-10.6c-3.9-0.4-8-0.2-12-0.2c-0.4,0-1.1,0.8-1.2,1.4c-1.1,5.3-2.1,10.7-3.2,16.1
		C61.1,35,60.6,37.9,60,41c2.1,0,3.8,0,5.7,0C66.2,38.7,66.7,36.4,67.2,34z M22.4,34c2.2,0,4.4,0.1,6.5,0c5.3-0.2,9.4-3.4,10.9-8.2
		c1.9-6.2-0.7-10.5-7-11c-3.7-0.3-7.5-0.2-11.3-0.1c-0.5,0-1.3,0.9-1.4,1.4c-0.7,2.7-1.1,5.5-1.7,8.2c-1.1,5.5-2.1,11-3.2,16.5
		c5.6,0.9,5.6,0.9,6.6-4.3C22,35.7,22.2,35,22.4,34z M49.9,7.6c-1.4,0-2.5,0.1-3.6,0c-1.7-0.2-2.3,0.5-2.5,2.1
		c-0.5,3.1-1.2,6.2-1.8,9.4c-0.9,4.9-1.9,9.8-2.8,14.8c2,0,3.8,0,5.7,0c0.7-3.6,1.5-7.2,2.2-10.8c0.9-4.3,0.9-4.3,5.2-4.2
		c3.2,0.1,3.7,0.8,3.1,4c-0.7,3.6-1.4,7.2-2.1,11c2,0,3.9,0,5.8,0c0.8-4.3,1.6-8.5,2.4-12.7c0.7-3.8-0.8-5.8-4.6-6.3
		c-2.6-0.4-5.3-0.4-8.1-0.6C49.1,12.2,49.5,10.1,49.9,7.6z"/>
	<path class="st0" d="M68,29.7c0.6-3.4,1.1-6.4,1.9-9.4c0.1-0.6,1.1-1.3,1.7-1.4c1.3-0.2,2.7-0.1,4,0c2.7,0.2,3.9,1.8,3.5,4.5
		c-0.7,4.4-2.6,6.1-7.1,6.3C70.7,29.8,69.5,29.7,68,29.7z"/>
	<path class="st0" d="M23.2,29.7c0.7-3.8,1.4-7.2,2.1-10.7c2.1,0,4-0.1,5.9,0c2.2,0.2,3.1,1.4,3,3.6c-0.1,4.5-2.3,6.9-6.8,7.1
		C26.2,29.7,24.8,29.7,23.2,29.7z"/>
</g>
</svg>
