<?xml version="1.0" encoding="utf-8"?>
<!-- Generator: Adobe Illustrator 25.0.0, SVG Export Plug-In . SVG Version: 6.00 Build 0)  -->
<svg version="1.1" id="Calque_1" xmlns="http://www.w3.org/2000/svg" xmlns:xlink="http://www.w3.org/1999/xlink" x="0px" y="0px"
	 viewBox="0 0 46.9 46.6" style="enable-background:new 0 0 46.9 46.6;" xml:space="preserve">
<style type="text/css">
	.st0{fill:#ED1846;}
</style>
<g>
	<path class="st0" d="M23.4,0c7.1,0,14.2,0,21.3,0c1.8,0,2.2,0.3,2.2,2.1c0,12.2,0,24.4,0,36.5c0,1.7-0.3,2-1.9,2.5
		c-6.6,1.8-13.2,3.5-19.8,5.2c-1.1,0.3-2.4,0.3-3.5,0C15.2,44.7,8.6,42.9,2,41.1c-1.6-0.4-2-0.9-2-2.6C0,26.4,0,14.2,0,2
		c0-1.7,0.4-2,2-2C9.2,0,16.3,0,23.4,0z M43.7,9c-13.5,0-27,0-40.5,0c0,8.6,0,17.1,0,25.6c6.4,1.7,12.8,3.5,19.2,5.2
		c0.8,0.2,1.8,0.1,2.6-0.1c2.9-0.7,5.8-1.6,8.8-2.4c3.3-0.9,6.7-1.8,10-2.7C43.7,26,43.7,17.5,43.7,9z M43.7,3.2
		c-13.6,0-27.1,0-40.6,0c0,1.2,0,2.4,0,3.5c13.5,0,27,0,40.6,0C43.7,5.5,43.7,4.4,43.7,3.2z M3.2,38.2c0.2,0.1,0.3,0.2,0.4,0.2
		c6.3,1.7,12.7,3.4,19,5.1c0.6,0.1,1.3,0.1,1.8-0.1c6-1.6,12.1-3.2,18.1-4.8c1.4-0.4,1.4-0.4,1.1-1.9c-5.5,1.5-11.1,3-16.6,4.6
		c-2.3,0.7-4.5,0.9-6.8,0.1c-1.2-0.4-2.4-0.7-3.6-1c-4.4-1.2-8.9-2.4-13.4-3.6C3.2,37.3,3.2,37.7,3.2,38.2z"/>
	<path class="st0" d="M17.2,17.4c1.1,0,2.1,0,3.2,0c1.2,3.9,2.4,7.9,3.7,12.1c-1.1-0.1-2.2,0.1-2.7-0.4c-0.6-0.5-0.6-1.6-0.8-2.5
		c-1.2,0-2.3,0-3.5,0c-0.2,0.5-0.4,1.1-0.5,1.7c-0.1,1-0.6,1.3-1.6,1.2c-0.4,0-0.8,0-1.4,0C14.8,25.3,16,21.4,17.2,17.4z M18.9,19.8
		c-0.1,0-0.1,0-0.2,0c-0.4,1.5-0.7,3.1-1.1,4.6c0.9,0,1.6,0,2.4,0C19.6,22.8,19.2,21.3,18.9,19.8z"/>
	<path class="st0" d="M24.1,28c0.6-0.7,1-1.2,1.3-1.5c1.3,0.3,2.3,0.7,3.4,0.8c0.4,0,1.1-0.5,1.3-0.9c0.1-0.3-0.4-1-0.8-1.2
		c-0.8-0.5-1.7-0.8-2.5-1.1c-1.7-0.8-2.5-2.1-2.2-3.8c0.2-1.5,1.6-2.7,3.2-2.9c1.7-0.2,3.3,0.2,4.7,1.5c-0.4,0.5-0.8,1.1-1.1,1.5
		c-1-0.3-1.8-0.6-2.7-0.7c-0.5,0-0.9,0.5-1.4,0.8c0.3,0.4,0.5,1,0.9,1.3c0.7,0.4,1.5,0.6,2.2,1c1.9,0.8,2.6,1.9,2.4,3.8
		c-0.1,1.5-1.4,2.8-3,3.1C27.7,30,25.9,29.4,24.1,28z"/>
	<path class="st0" d="M12,20.2c-1.2-0.3-2.1-0.6-3-0.6c-0.4,0-1,0.5-1.1,0.8s0.4,0.9,0.7,1.2c0.8,0.5,1.8,0.8,2.6,1.2
		c1.6,0.7,2.3,1.8,2.2,3.4s-1,2.7-2.5,3.2c-2.3,0.8-4.3,0.2-6.3-1.3c0.5-0.6,0.9-1.2,1.3-1.6c1.2,0.3,2.2,0.8,3.3,0.9
		c0.4,0.1,1-0.6,1.5-0.9c-0.3-0.4-0.5-1-1-1.3C8.9,24.7,8,24.4,7.2,24c-1.6-0.8-2.4-2.2-2.2-3.6c0.3-1.6,1.6-2.8,3.3-3
		c1.8-0.3,3.3,0.2,4.7,1.5C12.7,19.3,12.3,19.9,12,20.2z"/>
	<path class="st0" d="M33.4,27.9c0.5-0.6,0.9-1.1,1.2-1.5c1.2,0.3,2.3,0.8,3.3,0.9c0.4,0,1-0.6,1.4-0.9c-0.3-0.4-0.5-1-1-1.3
		c-0.8-0.5-1.7-0.8-2.5-1.2c-1.6-0.8-2.4-2.1-2.1-3.6c0.2-1.5,1.5-2.7,3.2-3c1.8-0.3,3.4,0.1,4.8,1.5c-0.4,0.5-0.9,1.1-1.1,1.4
		c-1.1-0.2-2-0.6-2.9-0.6c-0.4,0-1,0.5-1.2,0.9c-0.1,0.2,0.4,0.9,0.8,1.1c0.9,0.5,1.8,0.8,2.7,1.2c1.3,0.6,2,1.5,2.1,3
		c0,1.4-0.6,2.5-1.8,3.2C38.3,30.3,35.2,29.8,33.4,27.9z"/>
</g>
</svg>
