<?xml version="1.0" encoding="utf-8"?>
<!-- Generator: Adobe Illustrator 24.1.0, SVG Export Plug-In . SVG Version: 6.00 Build 0)  -->
<svg version="1.1" id="Calque_1" xmlns="http://www.w3.org/2000/svg" xmlns:xlink="http://www.w3.org/1999/xlink" x="0px" y="0px"
	 viewBox="0 0 59.3 61" style="enable-background:new 0 0 59.3 61;" xml:space="preserve">
<style type="text/css">
	.st0{fill:#38727C;}
</style>
<g>
	<path class="st0" d="M0,30.3c0-5.5,0-11,0-16.5C0.1,5.7,5.6,0,13.4,0C24.2,0,35.1,0,46,0c7.8,0,13.3,5.7,13.3,13.7
		c0,11.2,0,22.3,0,33.5c0,8-5.6,13.7-13.4,13.7c-10.9,0-21.7,0-32.6,0C5.6,61,0.1,55.2,0,47.3C0,41.6,0,35.9,0,30.3z M38.7,30.1
		c3.5-2.1,5.2-5.1,4.7-9.1c-0.6-4.6-3.9-7.7-9-8c-5.3-0.3-10.7-0.2-16-0.4c-1.8,0-2.4,0.5-2.4,2.4c0.1,8.1,0,16.1,0,24.3
		c0,2.6-0.1,5.1,0.1,7.7c0,0.6,0.8,1.8,1.3,1.8c6.4,0,13,0.2,19.4-0.5c6.6-0.6,10-6,8.3-12.2C44,32.9,41.7,31.2,38.7,30.1z"/>
	<path class="st0" d="M22.5,43.4c0-3.5,0-6.7,0-10.2c4.3,0,8.6-0.2,12.9,0.1c2.2,0.1,3.5,3,3.3,5.7c-0.2,2.4-1.9,4.4-4.2,4.4
		C30.6,43.4,26.7,43.4,22.5,43.4z"/>
	<path class="st0" d="M22.4,27.9c0-3.3,0-6.2,0-9.3c3.7,0,7.4-0.1,11,0c2.2,0.1,3.5,2.3,3.5,4.7s-1.7,4.4-4.1,4.5
		C29.5,28,26.1,27.9,22.4,27.9z"/>
</g>
</svg>
