<?xml version="1.0" encoding="utf-8"?>
<!-- Generator: Adobe Illustrator 24.1.0, SVG Export Plug-In . SVG Version: 6.00 Build 0)  -->
<svg version="1.1" id="Calque_1" xmlns="http://www.w3.org/2000/svg" xmlns:xlink="http://www.w3.org/1999/xlink" x="0px" y="0px"
	 viewBox="0 0 57.2 64.3" style="enable-background:new 0 0 57.2 64.3;" xml:space="preserve">
<style type="text/css">
	.st0{fill:#38727C;}
</style>
<g>
	<path class="st0" d="M0,0c19,0,38,0,57.2,0c-0.2,1.5-0.3,3-0.3,4.6c-0.5,5.6-1,11-1.5,16.6c-0.5,6.1-1,12.2-1.7,18.3
		c-0.5,5.4-1,10.8-1.3,16.3c-0.2,1.9-0.2,1.9-1.8,2.4c-6.9,2-14,4.1-20.9,6.1c-0.7,0.2-1.4,0.2-2,0c-7.2-2-14.5-4.2-21.7-6.3
		c-0.7-0.3-0.8-0.5-0.8-1c-0.5-5.6-1-11-1.5-16.6c-0.5-6.1-1-12.2-1.7-18.5C1.5,16.6,1,11.2,0.5,5.8C0.3,3.9,0.2,2,0,0z M3.7,3.4
		c0,0.3,0,0.7,0,0.9c0.7,8,1.4,15.9,2.2,23.9C6.6,36.8,7.4,45.4,8.1,54c0,0.7,0.3,0.8,0.8,1c6.2,1.7,12.5,3.6,18.7,5.4
		c0.5,0.2,1.2,0.2,1.9,0c6.2-1.7,12.5-3.6,18.7-5.4c0.5-0.2,0.8-0.5,0.8-1c0.2-1.7,0.3-3.4,0.3-5.1c0.7-6.8,1.2-13.4,1.8-20.2
		c0.7-6.9,1.2-13.7,1.8-20.7c0.2-1.5,0.3-3.1,0.5-4.7C36.9,3.4,20.4,3.4,3.7,3.4z"/>
	<path class="st0" d="M14.8,37.3c2.4,0,4.5,0,6.7,0c0,1.2,0.2,2.4,0.2,3.6c0,0.5,0.2,0.7,0.7,0.8c2,0.7,3.9,1.4,5.9,2
		c0.3,0.2,0.7,0.2,1,0c2-0.7,4-1.4,5.9-2c0.2,0,0.5-0.3,0.5-0.5c0.2-2.4,0.3-4.7,0.5-7.3c-4.9,0-9.8,0-14.8,0
		c-0.2-2.2-0.2-4.4-0.3-6.8c5.2,0,10.3,0,15.5,0c0.2-2.4,0.3-4.6,0.5-6.8c-7.7,0-15.5,0-23.2,0c-0.3-2.2-0.5-4.6-0.7-6.8
		c10.3,0,20.5,0,30.8,0c-0.2,2.2-0.3,4.4-0.3,6.4c-0.3,6.1-0.7,12.2-1.2,18.3c-0.2,2.5-0.3,5.1-0.5,7.6c0,0.2-0.3,0.7-0.5,0.7
		c-4,1.4-8.2,2.7-12.3,4.1c-0.3,0.2-0.7,0-0.8,0c-4-1.4-8.1-2.7-12.3-4.1c-0.2,0-0.7-0.3-0.7-0.5C15.1,43.2,15,40.3,14.8,37.3z"/>
</g>
</svg>
