<?xml version="1.0" encoding="utf-8"?>
<!-- Generator: Adobe Illustrator 24.1.0, SVG Export Plug-In . SVG Version: 6.00 Build 0)  -->
<svg version="1.1" id="Calque_1" xmlns="http://www.w3.org/2000/svg" xmlns:xlink="http://www.w3.org/1999/xlink" x="0px" y="0px"
	 viewBox="0 0 56.2 63.8" style="enable-background:new 0 0 56.2 63.8;" xml:space="preserve">
<style type="text/css">
	.st0{fill:#38727C;}
</style>
<g>
	<path class="st0" d="M0,0.5C0,0.2-0.1-0.1,0.3,0c0.1,0,0.1,0,0.2,0c18.6,0,37.1,0,55.7,0c-0.1,1.2-0.2,2.5-0.3,3.7
		c-0.3,4.4-0.8,8.8-1.1,13.2c-0.5,4.4-0.8,8.8-1.2,13.3c-0.3,4.4-0.8,8.8-1.1,13.2c-0.5,4.5-0.8,8.9-1.2,13.4c0,0.5-0.1,0.7-0.6,0.8
		c-7.3,2-14.6,4.1-21.9,6.1c-0.3,0.1-0.8,0.1-1.1,0c-7.2-2-14.4-4.1-21.7-6c-0.6-0.1-0.8-0.3-0.8-0.9S5,55.7,5,55.2
		C4.5,49.7,4,44.3,3.5,39S2.6,28.3,2,23C1.5,16.6,0.9,10,0.4,3.6C0.2,2.5,0.1,1.5,0,0.5z M51,4.8c-15.3,0-30.5,0-45.7,0
		c0.1,1,0.1,2,0.2,2.9c0.4,4.8,0.9,9.7,1.3,14.6C7.3,27.2,7.8,32,8.1,37c0.4,5.4,1,10.8,1.5,16.2c0,0.5,0.2,0.6,0.6,0.7
		c5.9,1.6,11.7,3.3,17.6,4.8c0.2,0.1,0.6,0.1,0.8,0c5.9-1.6,11.7-3.3,17.7-4.8c0.3-0.1,0.6-0.2,0.6-0.7c0.1-1.6,0.2-3,0.3-4.6
		c0.3-3.9,0.7-7.8,1-11.7c0.5-4.5,0.8-8.9,1.2-13.4c0.3-3.9,0.7-7.9,1-11.8C50.6,9.4,50.8,7.1,51,4.8z"/>
	<path class="st0" d="M12.5,33c-0.7-7.1-1.4-14.2-1.9-21.3c11.7,0,23.4,0,35.2,0c-0.2,2.4-0.5,4.6-0.7,7c-9,0-17.9,0-26.9,0
		c0.2,2.4,0.5,4.7,0.7,7.2c8.6,0,17,0,25.6,0c-0.2,2-0.3,3.9-0.6,5.9c-0.3,3.9-0.7,7.9-1,11.8c-0.1,1.1-0.2,2.2-0.3,3.4
		c0,0.3-0.1,0.6-0.6,0.7c-4.5,1.2-9,2.5-13.4,3.7c-0.2,0.1-0.6,0.1-0.8,0c-4.5-1.2-9-2.5-13.5-3.7c-0.3-0.1-0.6-0.2-0.6-0.6
		c-0.2-3.3-0.6-6.5-0.9-9.7c0-0.2,0-0.6,0-0.8c2.4,0,4.6,0,7,0c0.1,1.2,0.2,2.4,0.3,3.6c0.1,0.7-0.1,1.5,0.2,1.9s1.1,0.5,1.8,0.6
		c1.8,0.5,3.7,1,5.5,1.5c0.2,0.1,0.6,0.1,0.8,0c2.4-0.7,4.7-1.2,7.1-1.9c0.2,0,0.5-0.3,0.5-0.5c0.2-2.9,0.6-5.8,0.8-8.8
		C28.7,33,20.6,33,12.5,33z"/>
</g>
</svg>
