<?xml version="1.0" encoding="utf-8"?>
<!-- Generator: Adobe Illustrator 24.1.0, SVG Export Plug-In . SVG Version: 6.00 Build 0)  -->
<svg version="1.1" id="Calque_1" xmlns="http://www.w3.org/2000/svg" xmlns:xlink="http://www.w3.org/1999/xlink" x="0px" y="0px"
	 viewBox="0 0 60 60" style="enable-background:new 0 0 60 60;" xml:space="preserve">
<style type="text/css">
	.st0{fill:#38727C;}
</style>
<g>
	<g>
		<path class="st0" d="M24.3,20.7L24.3,20.7c-0.3,1.7-1,4-1.3,6L21,33h6.7L26,26.7C25.3,24.7,25,22.3,24.3,20.7z"/>
		<path class="st0" d="M56.3,0H3.7C1.7,0,0,1.7,0,3.7v52.7c0,2,1.7,3.7,3.7,3.7h52.7c2,0,3.7-1.7,3.7-3.7V3.7C60,1.7,58.3,0,56.3,0z
			 M31.3,46L29,38h-8.7L18,46h-7l9.3-30.7h9L38.7,46H31.3z M49.3,46h-7V24h7V46z M45.7,21c-2.3,0-3.7-1.7-3.7-3.3
			c0-2,1.3-3.3,3.7-3.3s3.7,1.3,3.7,3.3S48,21,45.7,21z"/>
	</g>
</g>
</svg>
