<?xml version="1.0" encoding="utf-8"?>
<!-- Generator: Adobe Illustrator 24.1.0, SVG Export Plug-In . SVG Version: 6.00 Build 0)  -->
<svg version="1.1" id="Calque_1" xmlns="http://www.w3.org/2000/svg" xmlns:xlink="http://www.w3.org/1999/xlink" x="0px" y="0px"
	 viewBox="0 0 55.2 60" style="enable-background:new 0 0 55.2 60;" xml:space="preserve">
<style type="text/css">
	.st0{fill:#38727C;}
</style>
<g>
	<path class="st0" d="M1,0c17.9,0,35.6,0,53.3,0c0.7,0.4,1,0.8,0.8,1.7c-0.2,2-0.5,4.1-0.6,6.2c-0.7,7.5-1.5,15-2.3,22.3
		c-0.7,7-1.5,14.1-2,21.1c-0.1,0.8-0.5,1.2-1.2,1.5c-6.4,2.4-12.7,4.7-19.1,7.1c-0.7,0.2-1.5,0.2-2.2,0C20.6,57.5,13.2,55,6,52.6
		c-0.6-0.2-1-0.6-1-1.3c-0.4-4.6-0.8-9.3-1.3-14C3.1,31.6,2.4,26,2,20.3C1.2,14.1,0.6,8,0,1.9C-0.1,1,0.2,0.4,1,0z M42.2,15.3
		c0,0.2-0.1,0.4-0.1,0.6c-0.2,1-0.5,1.9-0.6,2.9c-0.1,0.7,0.2,1.3,0.8,1.5c0.7,0.2,1.2-0.1,1.6-0.8c0-0.1,0.1-0.2,0.1-0.5
		c0.4-1.3,0.7-2.8,1.1-4.1c0.2-1.2,0-1.7-1.2-1.8c-0.1,0-0.4,0-0.5,0c-4.1,0-8.2,0-12.2,0c-1.1,0-1.5,0.4-1.5,1.4
		c0,4.8,0,9.8,0,14.6c0,1.1,0.4,1.5,1.5,1.5c2.5,0,5.1,0,7.6,0c0.2,0,0.5,0,0.6,0c0,0.1,0,0.2,0,0.4c-0.6,3.6-1.2,7.2-1.9,10.9
		c0,0.2-0.2,0.5-0.5,0.5c-1.3,0.5-2.7,0.8-4,1.3c-0.7,0.2-1.5,0.5-2.2,0.7c-0.6,0.2-1,0.7-0.8,1.3c0.1,0.6,0.7,1,1.3,1
		c0.2,0,0.4,0,0.6-0.1c2.4-0.8,4.7-1.6,7.1-2.4c0.6-0.2,1-0.6,1.1-1.2c0.8-4.5,1.6-8.8,2.4-13.3c0.2-1.2-0.2-1.8-1.6-1.8
		c-2.5,0-5.2,0-7.7,0c-0.2,0-0.4,0-0.6,0c0-4.2,0-8.3,0-12.6C35.6,15.3,38.9,15.3,42.2,15.3z M25.1,43.7c-0.2,0-0.4-0.1-0.5-0.1
		c-1.8-0.5-3.6-1-5.4-1.5c-0.5-0.1-0.6-0.4-0.7-0.7c-0.2-1.6-0.6-3.1-0.8-4.6c0-0.2-0.1-0.5-0.2-0.7c-0.4-0.6-0.8-0.7-1.4-0.5
		c-0.7,0.2-1.1,0.7-0.8,1.3c0.4,2,0.8,4.1,1.2,6.2c0.1,0.6,0.6,1.1,1.2,1.3c2.9,0.8,5.8,1.7,8.7,2.4c0.5,0.1,1,0,1.2-0.5
		c0.1-0.4,0.2-0.7,0.2-1.2c0-10.1,0-20.4,0-30.5c0-1.3-0.4-1.7-1.6-1.7c-4.8,0-9.5,0-14.4,0c-0.1,0-0.4,0-0.5,0
		c-0.6,0.1-1,0.5-1.1,1.1c-0.1,0.8,0.4,1.4,1.4,1.4c4.4,0,8.6,0,12.9,0c0.2,0,0.5,0,0.7,0C25.1,24.8,25.1,34.2,25.1,43.7z"/>
</g>
</svg>
