<?xml version="1.0" encoding="utf-8"?>
<!-- Generator: Adobe Illustrator 24.1.0, SVG Export Plug-In . SVG Version: 6.00 Build 0)  -->
<svg version="1.1" id="Calque_1" xmlns="http://www.w3.org/2000/svg" xmlns:xlink="http://www.w3.org/1999/xlink" x="0px" y="0px"
	 viewBox="0 0 56.2 56.3" style="enable-background:new 0 0 56.2 56.3;" xml:space="preserve">
<style type="text/css">
	.st0{fill:#38727C;}
</style>
<g>
	<path class="st0" d="M56.2,27.1c-0.2,4.3-1.4,8.2-3.9,11.7c-3.6,5-7.6,9.5-12.4,13.3c-2.5,2-5.4,3.4-8.6,4
		c-2.5,0.5-4.8-0.1-7.2-0.7c-3.5-0.9-6.4-2.9-9.2-5.1c-3.8-3-7.3-6.3-10.4-10c-2.2-2.7-3.8-5.7-4.3-9.2c-0.4-2.5,0.1-4.9,0.8-7.4
		c0.9-3.1,2.6-5.8,4.5-8.3c3.2-4.1,6.7-7.9,10.8-11.2c2.2-1.7,4.6-3,7.3-3.8c2.9-0.8,5.7-0.4,8.6,0.3c3.3,0.9,6.2,2.6,8.8,4.7
		c4,3.2,7.8,6.6,11,10.7c2.2,2.7,3.7,5.7,4.2,9.2c0,0.1,0.1,0.3,0.1,0.4C56.2,26.3,56.2,26.7,56.2,27.1z M38.5,28.3
		c-3.4,0.8-6.7,1.6-10,2.4c-0.5,0.1-0.7,0-0.9-0.4c-1.3-2.1-2.5-4.3-3.8-6.4c-1.4-2.4-2.9-4.8-4.3-7.2c-0.3-0.6-0.8-1-1.5-0.9
		c-0.8,0.1-1.5,0.1-2.3,0.2c-1.6,0.1-3.3,0.3-4.9,0.4c-0.6,0.1-0.8,0.4-0.6,0.9c0.1,0.4,0.3,0.9,0.5,1.3c2.3,4.9,4.5,9.8,6.8,14.7
		c0.6,1.3,1.1,1.5,2.5,1.2c2.1-0.5,4.2-1,6.3-1.6c0.6-0.2,0.9,0,1.1,0.5c1.1,2,2.2,3.9,3.3,5.9c0.7,1.2,1,1.3,2.3,0.9
		c3.8-1.3,7.6-2.7,11.4-4.1c0.9-0.3,1-0.6,0.4-1.3c-1.2-1.7-2.5-3.3-3.7-5c-0.1-0.1-0.2-0.3-0.3-0.5c1.5-0.4,3-0.8,4.4-1.2
		c0.8-0.2,0.9-0.5,0.4-1.1c-1.1-1.3-2.2-2.7-3.2-4.1c-0.7-1-1.6-1.5-2.9-1.2c-1.3,0.3-2.7,0.5-4.1,0.7c-0.7,0.1-0.8,0.4-0.4,1
		c0.1,0.2,0.2,0.3,0.3,0.5C36.5,25.4,37.5,26.8,38.5,28.3z"/>
	<path class="st0" d="M12.1,17.5c1.9-0.2,3.6-0.3,5.4-0.4c0.3,0,0.7,0.2,0.8,0.4c2.6,4.5,5.2,9,7.8,13.5c0,0.1,0,0.1,0.1,0.3
		c-0.3,0.1-0.5,0.2-0.8,0.2c-1.8,0.4-3.5,0.8-5.3,1.3c-0.5,0.1-0.7,0-0.9-0.5c-2.3-4.7-4.5-9.3-6.8-14C12.3,18,12.2,17.8,12.1,17.5z
		"/>
	<path class="st0" d="M43.3,34.8c-1,0.4-2,0.7-2.9,1c-2.4,0.8-4.9,1.6-7.3,2.5c-0.3,0.1-0.6,0.2-0.8-0.2c-1.1-1.9-2.2-3.8-3.4-5.7
		c1.1-0.3,2.1-0.6,3.1-0.8c2.3-0.6,4.6-1.2,6.9-1.8c0.5-0.1,0.8-0.1,1.1,0.4c1,1.4,2,2.7,2.9,4C43,34.3,43.1,34.5,43.3,34.8z"/>
	<path class="st0" d="M36.7,23.6c1.4-0.3,2.7-0.5,4-0.7c0.2,0,0.4,0.1,0.6,0.3c1,1.2,1.9,2.4,2.9,3.7c-0.5,0.1-1,0.3-1.5,0.4
		c-0.8,0.2-1.6,0.4-2.3,0.6c-0.2,0-0.6,0-0.7-0.2C38.7,26.4,37.8,25,36.7,23.6z"/>
</g>
</svg>
