<?xml version="1.0" encoding="utf-8"?>
<!-- Generator: Adobe Illustrator 24.1.0, SVG Export Plug-In . SVG Version: 6.00 Build 0)  -->
<svg version="1.1" id="Calque_1" xmlns="http://www.w3.org/2000/svg" xmlns:xlink="http://www.w3.org/1999/xlink" x="0px" y="0px"
	 viewBox="0 0 63.1 61.5" style="enable-background:new 0 0 63.1 61.5;" xml:space="preserve">
<style type="text/css">
	.st0{fill:#38727C;}
</style>
<g>
	<path class="st0" d="M29.2,0c1.6,0,3.2,0,4.8,0c0.3,0.1,0.6,0.2,1,0.2C47.8,1.5,58.8,10.6,62,22.8c0.5,1.8,0.7,3.7,1.1,5.6
		c0,1.6,0,3.1,0,4.6c-0.1,0.3-0.2,0.7-0.2,1c-1.7,12.2-8.5,20.7-20.1,25.3c-2.8,1.1-5.8,1.4-8.8,2.1c-1.6,0-3.2,0-4.8,0
		c-0.3-0.1-0.6-0.2-1-0.2C15.8,60,5.1,51.6,1.5,39.8c-0.7-2.2-1-4.5-1.5-6.7c0-1.6,0-3.1,0-4.6c0.1-0.4,0.2-0.7,0.2-1
		C2.1,14.6,9.3,5.9,21.8,1.6C24.2,0.8,26.7,0.5,29.2,0z M12.3,30.7c0,3.7,0,7.4,0,11.2c0,4.4,2.8,7.1,7.3,7.2c7.9,0,15.9,0,23.8,0
		c4.5,0,7.3-2.7,7.3-7.2c0-7.5,0-14.9,0-22.4c0-4.4-2.8-7.1-7.3-7.1c-7.9,0-15.9,0-23.8,0c-4.5,0-7.3,2.7-7.3,7.1
		C12.3,23.3,12.3,27,12.3,30.7z"/>
	<path class="st0" d="M21.1,21.8c2.3,0,4.5-0.1,6.6,0c3.1,0.2,5.2,2.3,5.3,5.2c0.2,3-1.6,5.2-4.7,5.8c-1.2,0.2-2.5,0.2-4,0.4
		c0,0.8,0,1.6,0,2.5c0,0.8,0,1.6,0,2.5c-1.1,0-2.2,0-3.3,0C21.1,32.8,21.1,27.4,21.1,21.8z M24.5,24.9c0,1.8,0,3.5,0,5.2
		c1.7,0.1,3.5,0.3,4.5-1.1c0.5-0.7,0.6-2,0.2-2.8C28.3,24.3,26.3,24.9,24.5,24.9z"/>
	<path class="st0" d="M43.4,28.9c-1.3-0.2-2.5-0.4-3.8-0.5c-0.4,0-0.9,0.5-1.3,0.7c0.3,0.4,0.6,0.8,1,1c1,0.5,2,0.9,3,1.4
		c1.4,0.7,2,1.8,1.9,3.3s-0.9,2.6-2.3,3.1c-2,0.8-4.1,0.7-6.2,0c-0.3-0.1-0.7-0.7-0.8-1.1c-0.1-0.7,0-1.3,0-2
		c1.5,0.2,2.8,0.6,4.2,0.7c0.5,0,1.1-0.5,1.6-0.7c-0.4-0.4-0.7-0.9-1.2-1.2c-0.6-0.4-1.4-0.6-2-0.9c-2.1-1-2.9-2.4-2.5-4.2
		c0.4-1.7,1.9-2.9,4-3.1c0.5,0,1,0,1.5,0C44,25.9,43.6,26,43.4,28.9z"/>
</g>
</svg>
