<?xml version="1.0" encoding="utf-8"?>
<!-- Generator: Adobe Illustrator 24.1.0, SVG Export Plug-In . SVG Version: 6.00 Build 0)  -->
<svg version="1.1" id="Calque_1" xmlns="http://www.w3.org/2000/svg" xmlns:xlink="http://www.w3.org/1999/xlink" x="0px" y="0px"
	 viewBox="0 0 106 55.7" style="enable-background:new 0 0 106 55.7;" xml:space="preserve">
<style type="text/css">
	.st0{fill:#38727C;}
</style>
<g>
	<path class="st0" d="M106,25.7c0,1.4,0,2.9,0,4.2c-1.2,5.3-4.1,9.6-8.5,12.9c-2.4,1.8-5,3.6-7.7,5c-10.7,5.5-22.4,7.5-34.2,7.8
		C42.6,56,30,54.3,18.2,48.9C9.8,45,2.4,39.8,0,30c0-1.4,0-2.9,0-4.2c1.3-5.3,4.1-9.6,8.5-12.9c2.4-1.9,5.1-3.6,8-5
		C26.9,2.5,38.4,0.4,50,0.1c13-0.4,25.9,1.3,37.8,6.8C96.2,10.8,103.6,16,106,25.7z M71.2,36.1c2.4,0,4.6,0.1,6.8,0
		c5.8-0.2,10.3-3.7,11.8-9.1c1.7-6.2-0.7-10.5-7-11.2c-4.1-0.4-8.5-0.2-12.7-0.2c-0.4,0-1.2,0.8-1.3,1.5c-1.2,5.6-2.2,11.3-3.4,17.1
		c-0.6,3.1-1.2,6.2-1.8,9.4c2.2,0,4,0,6,0C70.2,41.1,70.7,38.6,71.2,36.1z M23.8,36.1c2.3,0,4.7,0.1,6.9,0c5.6-0.2,10-3.6,11.5-8.7
		c2-6.6-0.7-11.1-7.4-11.7c-3.9-0.3-8-0.2-12-0.1c-0.5,0-1.4,0.9-1.5,1.5c-0.7,2.9-1.2,5.8-1.8,8.7c-1.2,5.8-2.2,11.7-3.4,17.5
		c5.9,1,5.9,1,7-4.6C23.3,37.9,23.5,37.2,23.8,36.1z M52.9,8.1c-1.5,0-2.7,0.1-3.8,0c-1.8-0.2-2.4,0.5-2.7,2.2
		c-0.5,3.3-1.3,6.6-1.9,10c-1,5.2-2,10.4-3,15.7c2.1,0,4,0,6,0c0.7-3.8,1.6-7.6,2.3-11.5c1-4.6,1-4.6,5.5-4.5
		c3.4,0.1,3.9,0.9,3.3,4.2C58,28.1,57.2,32,56.5,36c2.1,0,4.1,0,6.2,0c0.8-4.6,1.7-9,2.5-13.5c0.7-4-0.8-6.1-4.9-6.7
		c-2.8-0.4-5.6-0.4-8.6-0.6C52,13,52.5,10.8,52.9,8.1z"/>
	<path class="st0" d="M72.1,31.5c0.6-3.6,1.2-6.8,2-10c0.1-0.6,1.2-1.4,1.8-1.5c1.4-0.2,2.9-0.1,4.2,0c2.9,0.2,4.1,1.9,3.7,4.8
		c-0.7,4.7-2.8,6.5-7.5,6.7C74.9,31.6,73.7,31.5,72.1,31.5z"/>
	<path class="st0" d="M24.6,31.5c0.7-4,1.5-7.6,2.2-11.3c2.2,0,4.2-0.1,6.2,0c2.3,0.2,3.3,1.5,3.2,3.8c-0.1,4.8-2.4,7.3-7.2,7.5
		C27.8,31.5,26.3,31.5,24.6,31.5z"/>
</g>
</svg>
