<?xml version="1.0" encoding="utf-8"?>
<!-- Generator: Adobe Illustrator 24.1.0, SVG Export Plug-In . SVG Version: 6.00 Build 0)  -->
<svg version="1.1" id="Calque_1" xmlns="http://www.w3.org/2000/svg" xmlns:xlink="http://www.w3.org/1999/xlink" x="0px" y="0px"
	 viewBox="0 0 55 62.9" style="enable-background:new 0 0 55 62.9;" xml:space="preserve">
<style type="text/css">
	.st0{fill:#38727C;}
</style>
<g>
	<path class="st0" d="M55,31.5c0,4.8,0,9.6,0,14.5c0,1-0.3,1.6-1.2,2.1c-8.4,4.8-16.9,9.7-25.3,14.6c-0.8,0.4-1.3,0.5-2.1,0
		C18,57.7,9.6,52.8,1.1,48C0.3,47.5,0,47,0,46.1c0-9.8,0-19.6,0-29.3c0-0.9,0.3-1.4,1.1-1.8C9.6,10.1,18,5.2,26.5,0.3
		c0.7-0.4,1.2-0.5,2,0c8.5,4.9,16.9,9.8,25.4,14.6c0.8,0.5,1.2,1,1.1,1.9C55,21.8,55,26.6,55,31.5z M41.8,23.1
		c0.1-0.5,0.2-1.1,0.3-1.8c0.5-2.8,0.7-5.7-0.4-8.4c-1-2.6-3-3.7-5.6-3c-1.8,0.6-3.6,1.5-5.3,2.5c-1.2,0.7-2.2,1.7-3.3,2.6
		c-0.9-0.7-1.7-1.4-2.5-2c-1.9-1.4-3.9-2.7-6.4-3.1c-2.6-0.5-4.7,0.5-5.4,3.1c-0.5,2-0.5,4.2-0.5,6.4c0,1.3,0.4,2.6,0.6,3.9
		c-0.7,0.2-1.2,0.4-1.8,0.6c-2.6,0.9-5,2-6.9,4.1c-2,2.2-2.1,4.6-0.1,6.7C5.8,36,7.4,37.1,9,38c1.3,0.8,2.8,1.2,4.3,1.8
		c-0.6,2.9-1.1,5.9-0.5,8.9c0.8,3.5,3.1,5.1,6.5,4.2c1.7-0.5,3.2-1.3,4.7-2.2c1.2-0.7,2.3-1.8,3.6-2.7c0.4,0.3,0.8,0.8,1.2,1
		c2,1.3,3.9,2.8,6.1,3.7c3.7,1.5,6.6-0.1,7.2-4c0.4-2.5,0.2-5-0.1-7.5c-0.1-1.2,0.1-1.6,1.2-2c1.7-0.6,3.3-1.4,4.8-2.3
		c5.2-3.3,5.1-7.5-0.1-10.7C46.1,25,44,24.2,41.8,23.1z"/>
	<path class="st0" d="M28.1,39.4c-5.1,0-5.2,0.1-7.3-3.8c-2.8-5.1-2.8-3.1,0-8.2c2.1-3.8,2.2-3.8,6.5-3.8c4.8,0,4.8,0,7.2,4.2
		c2.5,4.6,2.5,2.7,0,7.4l-0.1,0.1C33.2,38.5,31.1,40.3,28.1,39.4z M31.8,31.4c0-2.4-1.9-4.3-4.2-4.3c-2.4,0-4.4,1.9-4.4,4.3
		s1.9,4.3,4.2,4.4C29.8,35.8,31.8,33.9,31.8,31.4z"/>
	<path class="st0" d="M13.8,25.3c0.8,2,1.6,3.9,2.3,5.8c0.1,0.2,0.1,0.5,0,0.7c-0.8,2-1.5,3.9-2.4,6c-2.9-0.9-5.6-1.9-7.6-4.2
		c-1.4-1.5-1.4-2.8,0.1-4.3C8.3,27.2,11,26.2,13.8,25.3z"/>
	<path class="st0" d="M15.3,40.4c2.1,0.3,4.2,0.5,6.2,0.8c0.2,0,0.5,0.2,0.7,0.4c1.3,1.6,2.6,3.2,3.9,4.9c-2.1,2-4.4,3.8-7.3,4.5
		c-2.1,0.5-3.4-0.2-3.9-2.3C14.2,45.9,14.6,43.1,15.3,40.4z"/>
	<path class="st0" d="M39.8,40.3c0.7,3,1.1,6,0.1,8.9c-0.6,1.8-1.8,2.3-3.9,1.7c-2.7-0.8-4.9-2.5-6.9-4.5c1.3-1.7,2.6-3.4,3.9-5
		c0.1-0.2,0.4-0.3,0.6-0.3C35.6,40.8,37.6,40.6,39.8,40.3z"/>
	<path class="st0" d="M29,16.6c2.1-1.9,4.2-3.7,7-4.5c2.3-0.7,3.5,0,4.1,2.4c0.5,2.1,0.4,5.3-0.4,8.3c-2.1-0.3-4.2-0.6-6.3-0.9
		c-0.3,0-0.5-0.4-0.7-0.6C31.5,19.7,30.3,18.2,29,16.6z"/>
	<path class="st0" d="M15.4,22.7c-0.7-2.9-1.1-5.7-0.4-8.5c0.5-2.1,1.7-2.7,3.8-2.2c2.9,0.8,5.1,2.5,7.3,4.5
		c-1.3,1.7-2.6,3.3-3.9,4.9c-0.2,0.2-0.4,0.4-0.7,0.4C19.5,22.2,17.5,22.4,15.4,22.7z"/>
	<path class="st0" d="M41.3,37.6c-0.8-2-1.6-3.8-2.3-5.6c-0.1-0.3-0.2-0.7-0.1-0.9c0.7-1.9,1.5-3.8,2.3-5.8c2.7,0.8,5.2,1.8,7.3,3.7
		c1.8,1.6,1.8,3.1,0,4.8C46.5,35.8,44,36.8,41.3,37.6z"/>
	<path class="st0" d="M39.3,38.2c-1.6,0.3-3,0.5-4.7,0.8c1-1.8,1.9-3.3,3-5.2C38.2,35.4,38.7,36.7,39.3,38.2z"/>
	<path class="st0" d="M30.4,41.5c-1,1.2-1.8,2.3-2.8,3.5c-1-1.2-1.9-2.2-3-3.5C26.6,41.5,28.4,41.5,30.4,41.5z"/>
	<path class="st0" d="M17.4,33.9c1.1,1.8,1.9,3.4,3,5.2c-1.6-0.3-2.9-0.5-4.5-0.7C16.4,36.8,16.9,35.5,17.4,33.9z"/>
	<path class="st0" d="M27.5,18c1,1.2,1.8,2.2,2.9,3.4c-2,0-3.7,0-5.7,0C25.7,20.3,26.5,19.2,27.5,18z"/>
	<path class="st0" d="M17.4,29.1c-0.6-1.6-1-2.8-1.6-4.3c1.5-0.3,2.9-0.5,4.5-0.8C19.4,25.7,18.5,27.3,17.4,29.1z"/>
	<path class="st0" d="M34.6,24c1.5,0.3,2.7,0.5,3.9,0.7c0.2,0,0.3,0.2,0.6,0.3c-0.5,1.3-1,2.5-1.5,4.1C36.5,27.3,35.7,25.8,34.6,24z
		"/>
</g>
</svg>
