<?xml version="1.0" encoding="utf-8"?>
<!-- Generator: Adobe Illustrator 24.1.0, SVG Export Plug-In . SVG Version: 6.00 Build 0)  -->
<svg version="1.1" id="Calque_1" xmlns="http://www.w3.org/2000/svg" xmlns:xlink="http://www.w3.org/1999/xlink" x="0px" y="0px"
	 viewBox="0 0 65.2 64.8" style="enable-background:new 0 0 65.2 64.8;" xml:space="preserve">
<style type="text/css">
	.st0{fill:#38727C;}
</style>
<g>
	<path class="st0" d="M32.5,0c9.9,0,19.8,0,29.6,0c2.5,0,3.1,0.4,3.1,2.9c0,17,0,34,0,50.8c0,2.4-0.4,2.8-2.6,3.5
		c-9.2,2.5-18.4,4.9-27.5,7.2c-1.5,0.4-3.3,0.4-4.9,0c-9-2.2-18.2-4.7-27.4-7.2C0.6,56.6,0,55.9,0,53.6C0,36.7,0,19.8,0,2.8
		C0,0.4,0.6,0,2.8,0C12.8,0,22.7,0,32.5,0z M60.8,12.5c-18.8,0-37.6,0-56.4,0c0,12,0,23.8,0,35.6c8.9,2.4,17.8,4.9,26.7,7.2
		c1.1,0.3,2.5,0.1,3.6-0.1c4-1,8.1-2.2,12.2-3.3c4.6-1.2,9.3-2.5,13.9-3.8C60.8,36.2,60.8,24.4,60.8,12.5z M60.8,4.4
		c-18.9,0-37.7,0-56.5,0c0,1.7,0,3.3,0,4.9c18.8,0,37.6,0,56.5,0C60.8,7.7,60.8,6.1,60.8,4.4z M4.4,53.2c0.3,0.1,0.4,0.3,0.6,0.3
		c8.8,2.4,17.7,4.7,26.4,7.1c0.8,0.1,1.8,0.1,2.5-0.1c8.3-2.2,16.8-4.5,25.2-6.7c2-0.6,2-0.6,1.5-2.6c-7.7,2.1-15.5,4.2-23.1,6.4
		c-3.2,1-6.3,1.2-9.5,0.1c-1.7-0.6-3.3-1-5-1.4c-6.1-1.7-12.4-3.3-18.6-5C4.4,51.9,4.4,52.5,4.4,53.2z"/>
	<path class="st0" d="M23.9,24.2c1.5,0,2.9,0,4.4,0c1.7,5.4,3.3,11,5.2,16.8c-1.5-0.1-3.1,0.1-3.8-0.6c-0.8-0.7-0.8-2.2-1.1-3.5
		c-1.7,0-3.2,0-4.9,0c-0.3,0.7-0.6,1.5-0.7,2.4c-0.1,1.4-0.8,1.8-2.2,1.7c-0.6,0-1.1,0-2,0C20.6,35.2,22.2,29.8,23.9,24.2z
		 M26.3,27.5c-0.1,0-0.1,0-0.3,0c-0.6,2.1-1,4.3-1.5,6.4c1.2,0,2.2,0,3.3,0C27.3,31.7,26.7,29.6,26.3,27.5z"/>
	<path class="st0" d="M33.5,39c0.8-1,1.4-1.7,1.8-2.1c1.8,0.4,3.2,1,4.7,1.1c0.6,0,1.5-0.7,1.8-1.2c0.1-0.4-0.6-1.4-1.1-1.7
		c-1.1-0.7-2.4-1.1-3.5-1.5c-2.4-1.1-3.5-2.9-3.1-5.3c0.3-2.1,2.2-3.8,4.5-4c2.4-0.3,4.6,0.3,6.5,2.1c-0.6,0.7-1.1,1.5-1.5,2.1
		c-1.4-0.4-2.5-0.8-3.8-1c-0.7,0-1.2,0.7-2,1.1c0.4,0.6,0.7,1.4,1.2,1.8c1,0.6,2.1,0.8,3.1,1.4c2.6,1.1,3.6,2.6,3.3,5.3
		c-0.1,2.1-2,3.9-4.2,4.3C38.5,41.8,36,40.9,33.5,39z"/>
	<path class="st0" d="M16.7,28.1c-1.7-0.4-2.9-0.8-4.2-0.8c-0.6,0-1.4,0.7-1.5,1.1c-0.1,0.4,0.6,1.2,1,1.7c1.1,0.7,2.5,1.1,3.6,1.7
		c2.2,1,3.2,2.5,3.1,4.7s-1.4,3.8-3.5,4.5c-3.2,1.1-6,0.3-8.8-1.8c0.7-0.8,1.2-1.7,1.8-2.2c1.7,0.4,3.1,1.1,4.6,1.2
		c0.6,0.1,1.4-0.8,2.1-1.2c-0.4-0.6-0.7-1.4-1.4-1.8c-1.1-0.7-2.4-1.1-3.5-1.7c-2.2-1.1-3.3-3.1-3.1-5c0.4-2.2,2.2-3.9,4.6-4.2
		c2.5-0.4,4.6,0.3,6.5,2.1C17.7,26.9,17.1,27.7,16.7,28.1z"/>
	<path class="st0" d="M46.5,38.8c0.7-0.8,1.2-1.5,1.7-2.1c1.7,0.4,3.2,1.1,4.6,1.2c0.6,0,1.4-0.8,2-1.2c-0.4-0.6-0.7-1.4-1.4-1.8
		c-1.1-0.7-2.4-1.1-3.5-1.7c-2.2-1.1-3.3-2.9-2.9-5c0.3-2.1,2.1-3.8,4.5-4.2c2.5-0.4,4.7,0.1,6.7,2.1c-0.6,0.7-1.2,1.5-1.5,2
		c-1.5-0.3-2.8-0.8-4-0.8c-0.6,0-1.4,0.7-1.7,1.2c-0.1,0.3,0.6,1.2,1.1,1.5c1.2,0.7,2.5,1.1,3.8,1.7c1.8,0.8,2.8,2.1,2.9,4.2
		c0,2-0.8,3.5-2.5,4.5C53.3,42.2,49,41.5,46.5,38.8z"/>
</g>
</svg>
