<?xml version="1.0" encoding="utf-8"?>
<!-- Generator: Adobe Illustrator 24.1.0, SVG Export Plug-In . SVG Version: 6.00 Build 0)  -->
<svg version="1.1" id="Calque_1" xmlns="http://www.w3.org/2000/svg" xmlns:xlink="http://www.w3.org/1999/xlink" x="0px" y="0px"
	 viewBox="0 0 60.2 60.2" style="enable-background:new 0 0 60.2 60.2;" xml:space="preserve">
<style type="text/css">
	.st0{fill:#38727C;}
</style>
<g>
	<path class="st0" d="M30.1,60.2c-5.9,0-11.8,0-17.7,0C5.1,60.2,0.1,55.1,0,47.7c0-11.8,0-23.6,0-35.4C0,5.1,5.1,0,12.4,0
		c11.8,0,23.7,0,35.5,0c7.2,0,12.3,5.1,12.3,12.4c0,11.8,0,23.7,0,35.5c0,7.1-5.1,12.2-12.2,12.3C42,60.3,36.1,60.2,30.1,60.2z
		 M30,54.3c5.7,0,11.4,0,17.2,0c4.7,0,7.1-2.4,7.1-7.1c0-11.4,0-22.7,0-34C54.3,8.4,52,6,47.2,6C35.8,6,24.4,6,13,6
		c-4.6,0-7,2.4-7,7c0,11.4,0,22.8,0,34.2c0,4.7,2.4,7,7,7C18.6,54.3,24.3,54.3,30,54.3z"/>
	<path class="st0" d="M21,34.4c-1.4,3-2.7,5.6-3.8,8.2c-0.5,1.1-1.2,1.7-2.4,1.5c-0.8-0.1-1.7,0-2.6,0c-1.4,0-1.6-0.4-1-1.7
		c1.8-3.7,3.8-7.4,5.7-11c0.6-1,0.5-1.8,0-2.8c-1.9-3.6-3.7-7.3-5.5-10.9c-0.8-1.6-0.6-1.7,1.1-1.9c3.2-0.5,5.1,0.5,6.1,3.7
		c0.6,1.9,1.7,3.7,2.7,5.8c1.2-2.6,2.4-4.9,3.3-7.3c0.7-1.8,1.7-2.4,3.6-2.3c3.3,0.2,3.8-0.3,1.9,3.2c-1.7,3.1-3.2,6.4-4.9,9.5
		c-0.5,0.9-0.4,1.5,0,2.4c2,3.8,4,7.6,5.9,11.4c0.8,1.6,0.6,1.9-1.2,2c-4.2,0.1-4.2,0.1-6.1-3.8C22.9,38.4,22,36.6,21,34.4z"/>
	<path class="st0" d="M43,22.5c0-1.8,0-3.5,0-5.2c0-1.1,0.3-1.5,1.5-1.5c5.1,0.1,4.1-0.7,4.1,4c0.1,7.3,0.1,14.6,0,21.9
		c0,0.5-0.3,1.3-0.7,1.5c-3.4,1.5-6.9,2-10.4,0.7c-4.1-1.6-6.4-6.2-5.8-11.2c0.8-6.1,4.3-9.5,10.5-9.8C42.3,22.6,42.6,22.6,43,22.5z
		 M42.9,39.2c0-0.1,0.1-0.3,0.1-0.5c0-3,0-6,0-9c0-2.3-0.8-2.9-2.8-1.7c-1,0.6-2.1,1.7-2.3,2.8c-0.4,1.8-0.4,3.7,0,5.5
		C38.3,38.8,40.3,39.7,42.9,39.2z"/>
</g>
</svg>
