<?xml version="1.0" encoding="utf-8"?>
<!-- Generator: Adobe Illustrator 25.0.0, SVG Export Plug-In . SVG Version: 6.00 Build 0)  -->
<svg version="1.1" id="Calque_1" xmlns="http://www.w3.org/2000/svg" xmlns:xlink="http://www.w3.org/1999/xlink" x="0px" y="0px"
	 viewBox="0 0 100 100" style="enable-background:new 0 0 100 100;" xml:space="preserve">
<style type="text/css">
	.st0{fill:#F1EDA3;}
</style>
<g>
	<path class="st0" d="M85.9,77.2c0.9-0.5,1.3-1.3,1.4-2.3c0.2-2,0.5-4.1,0.7-6.1c0.7-6.5,1.5-12.9,2.2-19.4c0.3-2.4,0.6-4.8,0.8-7.2
		c0.6-7.7,1.9-15.4,2.3-23.1c-0.2-0.5-0.7-0.8-1.4-1.1C78.3,13.1,64.7,8.3,51.1,3.4c-0.6-0.2-1.5-0.2-2.1,0C35.5,8.2,22,13,8.6,17.9
		c-2,0.7-2.3,1.2-2,3.4c0.6,4.9,1.1,9.8,1.7,14.6c0.7,6.4,1.5,12.9,2.2,19.3c0.8,6.5,1.5,13,2.2,19.6c0.1,1.1,0.6,1.9,1.6,2.5
		c11.5,6.4,23,12.8,34.4,19.1c0,0,0,0,0,0c0.8,0.1,1.6,0.2,2.4,0.1c0.1,0,0.1,0,0.2-0.1C62.8,90,74.3,83.6,85.9,77.2z M39.5,58.6
		c-1.5,0-1.9,0.3-2.5,1.8c-1.4,3.5-2.8,7-4.2,10.6c-0.2,0.6-0.5,0.8-1.1,0.8c-1.5,0-3,0-4.7,0c7.7-17.3,15.4-34.5,23.1-52
		c7.8,17.4,15.4,34.6,23.1,52c-1.8,0-3.5,0-5.2,0c-0.2,0-0.5-0.5-0.6-0.8c-1.4-3.5-2.8-7.1-4.3-10.6c-0.6-1.5-1-1.7-2.5-1.7H39.5z"
		/>
	<path class="st0" d="M50,54.3c-2.4,0-4.9,0-7.3,0c-1.8,0-2.6-1.2-2-2.9c2.5-6,5-11.9,7.4-17.9c0.4-0.9,0.9-1.4,1.9-1.4
		c0.9,0,1.5,0.5,1.8,1.4c2.5,6,5,12,7.5,18c0.6,1.5-0.2,2.8-1.9,2.8C55,54.3,52.5,54.3,50,54.3z"/>
</g>
</svg>
