<?xml version="1.0" encoding="utf-8"?>
<!-- Generator: Adobe Illustrator 25.0.0, SVG Export Plug-In . SVG Version: 6.00 Build 0)  -->
<svg version="1.1" id="Calque_1" xmlns="http://www.w3.org/2000/svg" xmlns:xlink="http://www.w3.org/1999/xlink" x="0px" y="0px"
	 viewBox="0 0 1920 1080" style="enable-background:new 0 0 1920 1080;" xml:space="preserve">
<style type="text/css">
	.st0{fill:#FFFFFF;}
</style>
<g>
	<path class="st0" d="M988.1,568.1c-18.7,0-37.5,0-56.2,0c0-18.7,0-37.5,0-56.2c18.7,0,37.5,0,56.2,0
		C988.1,530.6,988.1,549.4,988.1,568.1z M940.5,525.9c0,0.1,0,0.1,0,0.2c0.2,1.7,0.4,3.3,0.6,5c0.3,2.3,0.5,4.6,0.8,6.9
		c0.3,2.6,0.6,5.3,0.9,7.9c0.2,1.8,0.4,3.7,0.6,5.5c0,0.2,0.1,0.4,0.3,0.5c0.5,0.3,1,0.5,1.5,0.8c4.9,2.7,9.7,5.4,14.6,8.1
		c0.2,0.1,0.3,0.1,0.5,0c5.4-3,10.7-6,16.1-8.9c0.2-0.1,0.3-0.2,0.3-0.4c0.2-1.5,0.3-3,0.5-4.5c0.3-2.5,0.6-5,0.9-7.4
		c0.2-2.2,0.5-4.3,0.7-6.5c0.2-1.7,0.4-3.4,0.6-5c0.1-0.7,0.2-1.4,0.2-2c-0.1,0-0.1-0.1-0.2-0.1c-1.3-0.5-2.5-0.9-3.8-1.4
		c-5.1-1.8-10.2-3.6-15.3-5.4c-0.1,0-0.3,0-0.4,0c-5.3,1.9-10.7,3.8-16,5.7C942.7,525.2,941.6,525.5,940.5,525.9z"/>
	<path d="M940.5,525.9c1.1-0.4,2.2-0.8,3.3-1.2c5.3-1.9,10.7-3.8,16-5.7c0.1,0,0.3,0,0.4,0c5.1,1.8,10.2,3.6,15.3,5.4
		c1.3,0.5,2.5,0.9,3.8,1.4c0.1,0,0.1,0,0.2,0.1c-0.1,0.7-0.1,1.4-0.2,2c-0.2,1.7-0.4,3.4-0.6,5c-0.3,2.2-0.5,4.3-0.7,6.5
		c-0.3,2.5-0.6,5-0.9,7.4c-0.2,1.5-0.3,3-0.5,4.5c0,0.2-0.1,0.3-0.3,0.4c-5.4,3-10.7,6-16.1,8.9c-0.2,0.1-0.3,0.1-0.5,0
		c-4.9-2.7-9.7-5.4-14.6-8.1c-0.5-0.3-1-0.6-1.5-0.8c-0.2-0.1-0.3-0.2-0.3-0.5c-0.2-1.8-0.4-3.7-0.6-5.5c-0.3-2.6-0.6-5.3-0.9-7.9
		c-0.3-2.3-0.5-4.6-0.8-6.9c-0.2-1.7-0.4-3.3-0.6-5C940.5,526.1,940.5,526,940.5,525.9z M972.2,551c-4.1-9.1-8.1-18.2-12.2-27.4
		c-4.1,9.2-8.1,18.2-12.2,27.4c0.1,0,0.2,0,0.3,0c1.4,0,2.7,0,4.1,0c0.2,0,0.3-0.1,0.4-0.3c0.7-1.8,1.5-3.7,2.2-5.5
		c0.1-0.2,0.2-0.3,0.4-0.3c3.2,0,6.5,0,9.7,0c0.2,0,0.3,0.1,0.4,0.3c0.7,1.8,1.5,3.7,2.2,5.5c0.1,0.2,0.2,0.3,0.4,0.3
		c1.2,0,2.4,0,3.6,0C971.7,551,971.9,551,972.2,551z"/>
	<path class="st0" d="M972.2,551c-0.3,0-0.5,0-0.8,0c-1.2,0-2.4,0-3.6,0c-0.2,0-0.3-0.1-0.4-0.3c-0.7-1.8-1.5-3.7-2.2-5.5
		c-0.1-0.2-0.2-0.3-0.4-0.3c-3.2,0-6.5,0-9.7,0c-0.2,0-0.3,0.1-0.4,0.3c-0.7,1.8-1.5,3.7-2.2,5.5c-0.1,0.2-0.2,0.3-0.4,0.3
		c-1.4,0-2.7,0-4.1,0c-0.1,0-0.2,0-0.3,0c4.1-9.1,8.1-18.2,12.2-27.4C964.1,532.7,968.2,541.8,972.2,551z M960.1,532.6
		C960,532.6,960,532.6,960.1,532.6c-1.3,2.8-2.4,5.6-3.6,8.4c2.4,0,4.8,0,7.2,0C962.4,538.2,961.2,535.4,960.1,532.6z"/>
	<path d="M960.1,532.6c1.2,2.8,2.4,5.6,3.6,8.4c-2.4,0-4.8,0-7.2,0C957.6,538.2,958.8,535.4,960.1,532.6
		C960,532.6,960,532.6,960.1,532.6z"/>
</g>
</svg>
