<?xml version="1.0" encoding="utf-8"?>
<!-- Generator: Adobe Illustrator 25.0.0, SVG Export Plug-In . SVG Version: 6.00 Build 0)  -->
<svg version="1.1" id="Calque_1" xmlns="http://www.w3.org/2000/svg" xmlns:xlink="http://www.w3.org/1999/xlink" x="0px" y="0px"
	 viewBox="0 0 56.23 63.75" style="enable-background:new 0 0 56.23 63.75;" xml:space="preserve">
<style type="text/css">
	.st0{fill:#F1EDA3;}
</style>
<g>
	<path class="st0" d="M0.01,0.47c0-0.23-0.11-0.56,0.34-0.45c0.11,0,0.11,0,0.23,0c18.59,0,37.06,0,55.65,0
		C56.12,1.26,56,2.5,55.89,3.74c-0.34,4.39-0.79,8.79-1.13,13.18c-0.45,4.39-0.79,8.79-1.24,13.29c-0.34,4.39-0.79,8.79-1.13,13.18
		c-0.45,4.51-0.79,8.9-1.24,13.41c0,0.45-0.11,0.68-0.56,0.79c-7.32,2.03-14.65,4.06-21.85,6.08c-0.34,0.11-0.79,0.11-1.13,0
		c-7.21-2.03-14.42-4.06-21.74-5.97c-0.56-0.11-0.79-0.34-0.79-0.9s-0.11-1.13-0.11-1.58C4.52,49.7,3.96,44.29,3.51,39
		s-0.9-10.7-1.46-16C1.49,16.58,0.92,10.04,0.36,3.62C0.24,2.49,0.13,1.48,0.01,0.47z M51.05,4.75c-15.32,0-30.53,0-45.74,0
		c0.11,1.01,0.11,2.03,0.23,2.93c0.45,4.84,0.9,9.69,1.35,14.64c0.45,4.84,0.9,9.69,1.24,14.64c0.45,5.41,1.01,10.81,1.46,16.22
		c0,0.45,0.23,0.56,0.56,0.68c5.86,1.58,11.72,3.27,17.57,4.84c0.23,0.11,0.56,0.11,0.79,0c5.86-1.58,11.72-3.27,17.69-4.84
		c0.34-0.11,0.56-0.23,0.56-0.68c0.11-1.58,0.23-3.04,0.34-4.62c0.34-3.94,0.68-7.77,1.01-11.72c0.45-4.51,0.79-8.9,1.24-13.41
		c0.34-3.94,0.68-7.89,1.01-11.83C50.6,9.37,50.82,7.11,51.05,4.75z"/>
	<path class="st0" d="M12.52,33.02c-0.68-7.1-1.35-14.19-1.92-21.29c11.72,0,23.43,0,35.15,0c-0.23,2.37-0.45,4.62-0.68,6.98
		c-9.01,0-17.91,0-26.92,0c0.23,2.37,0.45,4.73,0.68,7.21c8.56,0,17.01,0,25.57,0c-0.23,2.03-0.34,3.94-0.56,5.86
		c-0.34,3.94-0.68,7.89-1.01,11.83c-0.11,1.13-0.23,2.25-0.34,3.38c0,0.34-0.11,0.56-0.56,0.68c-4.51,1.24-9.01,2.48-13.41,3.72
		c-0.23,0.11-0.56,0.11-0.79,0c-4.51-1.24-9.01-2.48-13.52-3.72c-0.34-0.11-0.56-0.23-0.56-0.56c-0.23-3.27-0.56-6.53-0.9-9.69
		c0-0.23,0-0.56,0-0.79c2.37,0,4.62,0,6.98,0c0.11,1.24,0.23,2.37,0.34,3.6c0.11,0.68-0.11,1.46,0.23,1.92s1.13,0.45,1.8,0.56
		c1.8,0.45,3.72,1.01,5.52,1.46c0.23,0.11,0.56,0.11,0.79,0c2.37-0.68,4.73-1.24,7.1-1.92c0.23,0,0.45-0.34,0.45-0.45
		c0.23-2.93,0.56-5.75,0.79-8.79C28.74,33.02,20.63,33.02,12.52,33.02z"/>
</g>
</svg>
