<?xml version="1.0" encoding="utf-8"?>
<!-- Generator: Adobe Illustrator 25.0.0, SVG Export Plug-In . SVG Version: 6.00 Build 0)  -->
<svg version="1.1" id="Calque_1" xmlns="http://www.w3.org/2000/svg" xmlns:xlink="http://www.w3.org/1999/xlink" x="0px" y="0px"
	 viewBox="0 0 46.2 62.8" style="enable-background:new 0 0 46.2 62.8;" xml:space="preserve">
<style type="text/css">
	.st0{fill:#F1EDA3;}
</style>
<g>
	<path class="st0" d="M19.9,0c2.1,0,4.3,0,6.4,0c0.3,0.1,0.6,0.2,0.9,0.2c5.6,0.4,11.1,1.7,16.4,3.7c1.9,0.7,2.6,1.6,2.6,3.5
		c0,16,0,32,0,48c0,1.7-0.8,2.9-2.4,3.4c-2.9,0.9-5.7,1.9-8.6,2.6c-2.8,0.7-5.7,0.9-8.6,1.4c-2.3,0-4.6,0-7,0
		c-0.4-0.1-0.7-0.2-1.1-0.2c-5.5-0.5-10.8-1.8-16-3.8C0.8,58.2,0,57.1,0,55.4c0-16,0-32,0-47.9c0-2,0.6-2.9,2.4-3.5
		c3-1,5.9-1.9,8.8-2.6S17,0.4,19.9,0z M22.7,44.4c0.6,0.1,1.1,0.4,1.7,0.4c5.6,0,11.1,0,16.7,0c1.4,0,1.8-0.4,1.8-1.8
		c-0.1-11.5,0-22.9,0-34.4c0-0.4,0-0.8,0-1.2c-0.1,0-0.1,0-0.2,0c0,3.2,0,6.5,0,9.7c0,8.5,0,17,0,25.5c0,1.7-0.2,1.9-1.9,1.9
		c-1.5,0-3,0-4.5,0C31.8,44.6,27.2,44.5,22.7,44.4c0.3-0.7,0.6-1.5,0.8-2c-1.4-0.4-2.6-0.7-3.9-1c-0.2,0.8-0.6,1.8,0.3,2.6
		c0.3,0.3,1.3-0.2,1.9-0.4c-0.2,1-3.9,1.5-7.9,0.8c0.1-0.2,0.2-0.4,0.2-0.6c0.1-0.2,0.1-0.5,0.1-0.9c0.7,1.3,0.8,1.3,1.8,1.1
		c0.7-0.1,1.5,0,2.3,0c0.1,0,0.2-0.2,0.2-0.3c0-0.8,0-1.6,0-2.8c-1.2,1.1-2,1.3-3.2,1.1c-1.9-0.3-3.8,0.1-5.7,0.1
		c-1,0-2.2,0.1-3.1-0.3c-0.8-0.3-1.6-0.9-2.1-0.2s-0.5,1.8,0.2,2.7c0.5-0.4,1-0.8,1.5-1.2c0.7,1,1.3,1.8,2.4,0.8
		c0.1-0.1,0.2-0.1,0.2-0.1c1.3,0.2,2.7,0.4,4.2,0.6c-0.3,0.1-0.6,0.2-0.8,0.2c-2,0.1-4.1,0.1-6.1,0.2c-2.2,0.1-2.6-0.2-2.6-2.4
		c0-11,0-21.9,0-32.9c0-0.6,0-1.2,0-2C3.3,7.6,3.3,7.6,3.3,7.7c0,11.9,0,23.9,0,35.8c0,1,0.4,1.2,1.3,1.2c5.6,0,11.2,0,16.9,0
		C21.9,44.8,22.3,44.5,22.7,44.4z M23,40.3c8.6,0.3,17.4-7,17.2-17.3c-0.1-9.6-7.6-17.2-17.5-17.1C12.4,6,5.6,14.7,5.7,23.2
		C5.8,32.9,14.2,40.7,23,40.3z M17.8,48.7c0,2.6,0,4.8,0,7.1c0.6,0,1.1,0,1.8,0c0-1.3,0-2.6,0-3.8c0-0.9,0.2-1.8,1.4-1.8
		c1.2,0.1,1,1,1.1,1.8c0,1.3,0,2.6,0,3.8c0.8,0,1.3,0,1.9,0c0-1.6,0.1-3.1,0-4.5c-0.1-2.2-1.6-3.1-3.7-2.2c-0.2,0.1-0.6,0.2-0.8,0.1
		C19,49,18.5,48.9,17.8,48.7z M30,48.8c0,1.4,0,2.8,0,4.1c0,0.9-0.3,1.6-1.4,1.5c-1-0.1-1-0.8-1-1.5c0-1.3,0-2.7,0-4.1
		c-0.7,0-1.2,0-1.9,0c0,1.3,0,2.6,0,3.8c0,1.1-0.1,2.5,1.1,2.9c1,0.3,2.1,0,3.2,0c0,0,0-0.1-0.1-0.1c0.6,0.1,1.2,0.2,1.8,0.4
		c0-2.5,0-4.8,0-7C31.3,48.8,30.8,48.8,30,48.8z M33.1,48.9c0.6,0.9,1.1,1.7,1.7,2.4c0.6,0.7,0.5,1.2,0,1.8
		c-0.6,0.8-1.1,1.7-1.7,2.5c2,0.9,2.6-0.7,3.3-1.8c1.6,2.1,1.6,2.1,3.5,1.9c-0.1-0.3-0.2-0.5-0.4-0.7c-1.9-1.9-2.1-3.7,0-5.6
		c0.1-0.1,0.1-0.3,0.2-0.4c-1.7-0.7-2.4,0.4-3.2,1.6C35,48.7,35,48.7,33.1,48.9z M8.1,46.2c-0.8,0-1.3,0-1.8,0c0,3.2,0,6.4,0,9.6
		c2.2,0,4.3,0,6.5,0c0-0.6,0-1,0-1.6c-1.6,0-3,0-4.6,0C8.1,51.4,8.1,48.8,8.1,46.2z M15.9,55.8c0-2.4,0-4.6,0-6.9
		c-0.6,0-1.1,0-1.7,0c0,2.3,0,4.6,0,6.9C14.8,55.8,15.3,55.8,15.9,55.8z M15.8,47.9c0-0.6,0-1.1,0-1.7c-0.6,0-1.1,0-1.7,0
		c0,0.6,0.1,1.1,0.1,1.7C14.8,47.9,15.3,47.9,15.8,47.9z"/>
	<path class="st0" d="M20.8,16.6c-0.6,1.1-1.3,2.1-1.9,3.3c-0.6,1.2-1,2.5-1.5,3.8c-0.2,0.6-0.4,1.1-0.5,1.7
		c-0.3,1.3-0.2,2.4,1.1,3.2c0.6,0.4,1.2,0.9,1.7,1.4c0.6,0.7,1.3,1.5-0.3,1.9c-0.1,0-0.1,0.3-0.2,0.5l0,0c-0.9-1.4-1.8-2.8-2.8-4.1
		c-0.6-0.9-1.3-1.1-2,0l0,0c-0.3-1.4,0.3-2.6,0.8-3.8c0.9-2.3,1.9-4.6,3.7-6.5c0.3-0.4,0.4-1.1,0.4-1.7c0-1.4-0.1-2.9-0.1-4.3
		c0-2.8,1.4-4.4,3.8-4.5s4.8,1.9,4.8,4.3c0,3.5,1.3,6.3,3.4,9c1.6,2.1,2.5,4.7,1.5,7.5c-0.1,0.4-0.3,0.9-0.6,1.1
		c-0.7,0.5-1.6,1.2-2.3,1.1c-1.1-0.2-0.9-1.4-0.9-2.3c0-1.5,0.2-3.1-0.2-4.4c-0.8-2.5-2.1-4.8-3.1-7.1
		C23.9,16.5,22.4,19.5,20.8,16.6c0.5,0,1,0,1.5-0.1c1.7-0.1,3.5-1.4,3.5-2.9c0-0.7-0.5-1.6-1.1-1.9c-0.7-0.4-1.6,0.6-1.5,1.7
		c0,0.1,0,0.3-0.1,0.4c-0.4,0-0.7,0-0.8,0C21.8,13,21.4,12.5,21,12c-0.1-0.1-0.8,0.1-0.8,0.3c-0.1,0.7-0.2,1.4-0.1,2.1
		C20.3,15.1,20.6,15.8,20.8,16.6z"/>
	<path class="st0" d="M19.3,32.4c1.5,1.5,3.4,1.8,5.3,0.9c2-0.9,3.7-2.2,3.4-4.8c0,1.6,0,3.1,0,4.7c0,1.5,0.8,2.2,2.1,1.6
		c1.8-0.7,3.5-1.7,5.6-2.8c-0.5,0.6-0.8,1-1.3,1.3c-1.2,0.9-2.4,1.7-3.6,2.6c-1,0.8-2,0.8-3.1,0.1c-2.1-1.5-4.5-1.1-6.8-1
		c-0.2,0-0.5,0.2-0.6,0.5c-0.8,1.2-1.8,1.2-3,0.7c-1.6-0.6-3.2-1-4.8-1.5c-1.4-0.4-1.5-0.6-0.7-2l0,0c0,0.8,0.3,1.4,1.2,1.6
		c1.5,0.3,3,0.8,4.6,1.1c1.2,0.3,2.1-0.5,2-1.8C19.5,33.2,19.4,32.8,19.3,32.4L19.3,32.4z"/>
	<path class="st0" d="M11.8,32.7c0-0.5,0.1-0.9,0.1-1.4c0-1.2-0.2-2.5,1.7-2.3c0.3,0,0.7-0.5,1.1-0.8l0,0c-0.4,0.4-0.8,1-1.3,1.1
		c-1,0.1-1.3,0.6-1.3,1.5C12,31.4,11.9,32,11.8,32.7L11.8,32.7z"/>
	<path class="st0" d="M24.4,14.9c-0.3-0.7-0.6-1.1-0.5-1.5c0-0.3,0.4-0.6,0.7-0.9c0.2,0.3,0.7,0.6,0.7,1
		C25.2,13.9,24.8,14.3,24.4,14.9z"/>
</g>
</svg>
