<?xml version="1.0" encoding="utf-8"?>
<!-- Generator: Adobe Illustrator 25.0.0, SVG Export Plug-In . SVG Version: 6.00 Build 0)  -->
<svg version="1.1" id="Calque_1" xmlns="http://www.w3.org/2000/svg" xmlns:xlink="http://www.w3.org/1999/xlink" x="0px" y="0px"
	 viewBox="0 0 106 55.74" style="enable-background:new 0 0 106 55.74;" xml:space="preserve">
<style type="text/css">
	.st0{fill:#F1EDA3;}
</style>
<g>
	<path class="st0" d="M106,25.71c0,1.38,0,2.86,0,4.24c-1.17,5.3-4.13,9.65-8.48,12.93c-2.44,1.8-4.98,3.6-7.74,4.98
		c-10.71,5.51-22.37,7.53-34.24,7.84c-12.93,0.32-25.55-1.38-37.31-6.78C9.75,45,2.44,39.8,0,29.95c0-1.38,0-2.86,0-4.24
		c1.27-5.3,4.13-9.65,8.48-12.93c2.44-1.91,5.09-3.6,7.95-4.98c10.49-5.3,21.94-7.42,33.6-7.74c13.04-0.42,25.86,1.27,37.84,6.78
		C96.25,10.76,103.56,15.96,106,25.71z M71.23,36.1c2.44,0,4.56,0.11,6.78,0c5.83-0.21,10.28-3.71,11.77-9.12
		c1.7-6.25-0.74-10.49-7-11.24c-4.13-0.42-8.48-0.21-12.72-0.21c-0.42,0-1.17,0.85-1.27,1.48c-1.17,5.62-2.23,11.34-3.39,17.07
		c-0.64,3.07-1.17,6.15-1.8,9.43c2.23,0,4.03,0,6.04,0C70.17,41.08,70.7,38.64,71.23,36.1z M23.75,36.1c2.33,0,4.66,0.11,6.89,0
		c5.62-0.21,9.96-3.6,11.55-8.69c2.01-6.57-0.74-11.13-7.42-11.66c-3.92-0.32-7.95-0.21-11.98-0.11c-0.53,0-1.38,0.95-1.48,1.48
		c-0.74,2.86-1.17,5.83-1.8,8.69c-1.17,5.83-2.23,11.66-3.39,17.49c5.94,0.95,5.94,0.95,7-4.56C23.32,37.9,23.53,37.16,23.75,36.1z
		 M52.9,8.11c-1.48,0-2.65,0.11-3.82,0c-1.8-0.21-2.44,0.53-2.65,2.23c-0.53,3.29-1.27,6.57-1.91,9.96
		c-0.95,5.19-2.01,10.39-2.97,15.69c2.12,0,4.03,0,6.04,0c0.74-3.82,1.59-7.63,2.33-11.45c0.95-4.56,0.95-4.56,5.51-4.45
		c3.39,0.11,3.92,0.85,3.29,4.24c-0.74,3.82-1.48,7.63-2.23,11.66c2.12,0,4.13,0,6.15,0c0.85-4.56,1.7-9.01,2.54-13.46
		c0.74-4.03-0.85-6.15-4.88-6.68c-2.76-0.42-5.62-0.42-8.59-0.64C52.05,12.99,52.47,10.76,52.9,8.11z"/>
	<path class="st0" d="M72.08,31.54c0.64-3.6,1.17-6.78,2.01-9.96c0.11-0.64,1.17-1.38,1.8-1.48c1.38-0.21,2.86-0.11,4.24,0
		c2.86,0.21,4.13,1.91,3.71,4.77c-0.74,4.66-2.76,6.47-7.53,6.68C74.94,31.65,73.67,31.54,72.08,31.54z"/>
	<path class="st0" d="M24.59,31.54c0.74-4.03,1.48-7.63,2.23-11.34c2.23,0,4.24-0.11,6.25,0c2.33,0.21,3.29,1.48,3.18,3.82
		c-0.11,4.77-2.44,7.31-7.21,7.53C27.77,31.54,26.29,31.54,24.59,31.54z"/>
</g>
</svg>
