<?xml version="1.0" encoding="utf-8"?>
<!-- Generator: Adobe Illustrator 25.0.0, SVG Export Plug-In . SVG Version: 6.00 Build 0)  -->
<svg version="1.1" id="Calque_1" xmlns="http://www.w3.org/2000/svg" xmlns:xlink="http://www.w3.org/1999/xlink" x="0px" y="0px"
	 viewBox="0 0 65.25 64.75" style="enable-background:new 0 0 65.25 64.75;" xml:space="preserve">
<style type="text/css">
	.st0{fill:#F1EDA3;}
</style>
<g>
	<path class="st0" d="M32.55,0c9.88,0,19.76,0,29.64,0c2.5,0,3.06,0.42,3.06,2.92c0,16.98,0,33.95,0,50.79
		c0,2.37-0.42,2.78-2.64,3.48c-9.18,2.5-18.37,4.87-27.55,7.24c-1.53,0.42-3.34,0.42-4.87,0c-9.04-2.23-18.23-4.73-27.41-7.24
		C0.55,56.63,0,55.94,0,53.57C0,36.73,0,19.76,0,2.78C0,0.41,0.56,0,2.78,0C12.79,0,22.67,0,32.55,0z M60.8,12.52
		c-18.79,0-37.57,0-56.36,0c0,11.97,0,23.8,0,35.62c8.91,2.37,17.81,4.87,26.72,7.24c1.11,0.28,2.5,0.14,3.62-0.14
		c4.04-0.97,8.07-2.23,12.25-3.34c4.59-1.25,9.32-2.5,13.92-3.76C60.8,36.18,60.8,24.35,60.8,12.52z M60.8,4.45
		c-18.92,0-37.71,0-56.5,0c0,1.67,0,3.34,0,4.87c18.79,0,37.57,0,56.5,0C60.8,7.65,60.8,6.12,60.8,4.45z M4.44,53.16
		C4.72,53.3,4.86,53.44,5,53.44c8.77,2.37,17.67,4.73,26.44,7.1c0.83,0.14,1.81,0.14,2.5-0.14c8.35-2.23,16.84-4.45,25.19-6.68
		c1.95-0.56,1.95-0.56,1.53-2.64c-7.65,2.09-15.45,4.17-23.1,6.4c-3.2,0.97-6.26,1.25-9.46,0.14c-1.67-0.56-3.34-0.97-5.01-1.39
		c-6.12-1.67-12.38-3.34-18.65-5.01C4.44,51.9,4.44,52.46,4.44,53.16z"/>
	<path class="st0" d="M23.92,24.21c1.53,0,2.92,0,4.45,0c1.67,5.43,3.34,10.99,5.15,16.84c-1.53-0.14-3.06,0.14-3.76-0.56
		c-0.83-0.7-0.83-2.23-1.11-3.48c-1.67,0-3.2,0-4.87,0c-0.28,0.7-0.56,1.53-0.7,2.37c-0.14,1.39-0.83,1.81-2.23,1.67
		c-0.56,0-1.11,0-1.95,0C20.58,35.21,22.25,29.78,23.92,24.21z M26.29,27.55c-0.14,0-0.14,0-0.28,0c-0.56,2.09-0.97,4.31-1.53,6.4
		c1.25,0,2.23,0,3.34,0C27.26,31.73,26.7,29.64,26.29,27.55z"/>
	<path class="st0" d="M33.52,38.96c0.83-0.97,1.39-1.67,1.81-2.09c1.81,0.42,3.2,0.97,4.73,1.11c0.56,0,1.53-0.7,1.81-1.25
		c0.14-0.42-0.56-1.39-1.11-1.67c-1.11-0.7-2.37-1.11-3.48-1.53c-2.37-1.11-3.48-2.92-3.06-5.29c0.28-2.09,2.23-3.76,4.45-4.04
		c2.37-0.28,4.59,0.28,6.54,2.09c-0.56,0.7-1.11,1.53-1.53,2.09c-1.39-0.42-2.5-0.83-3.76-0.97c-0.7,0-1.25,0.7-1.95,1.11
		c0.42,0.56,0.7,1.39,1.25,1.81c0.97,0.56,2.09,0.83,3.06,1.39c2.64,1.11,3.62,2.64,3.34,5.29c-0.14,2.09-1.95,3.9-4.17,4.31
		C38.53,41.75,36.03,40.91,33.52,38.96z"/>
	<path class="st0" d="M16.69,28.11c-1.67-0.42-2.92-0.83-4.17-0.83c-0.56,0-1.39,0.7-1.53,1.11c-0.14,0.42,0.56,1.25,0.97,1.67
		c1.11,0.7,2.5,1.11,3.62,1.67c2.23,0.97,3.2,2.5,3.06,4.73s-1.39,3.76-3.48,4.45c-3.2,1.11-5.98,0.28-8.77-1.81
		c0.7-0.83,1.25-1.67,1.81-2.23c1.67,0.42,3.06,1.11,4.59,1.25c0.56,0.14,1.39-0.83,2.09-1.25c-0.42-0.56-0.7-1.39-1.39-1.81
		c-1.11-0.7-2.37-1.11-3.48-1.67c-2.23-1.11-3.34-3.06-3.06-5.01c0.42-2.23,2.23-3.9,4.59-4.17c2.5-0.42,4.59,0.28,6.54,2.09
		C17.66,26.86,17.1,27.69,16.69,28.11z"/>
	<path class="st0" d="M46.46,38.82c0.7-0.83,1.25-1.53,1.67-2.09c1.67,0.42,3.2,1.11,4.59,1.25c0.56,0,1.39-0.83,1.95-1.25
		c-0.42-0.56-0.7-1.39-1.39-1.81c-1.11-0.7-2.37-1.11-3.48-1.67c-2.23-1.11-3.34-2.92-2.92-5.01c0.28-2.09,2.09-3.76,4.45-4.17
		c2.5-0.42,4.73,0.14,6.68,2.09c-0.56,0.7-1.25,1.53-1.53,1.95c-1.53-0.28-2.78-0.83-4.04-0.83c-0.56,0-1.39,0.7-1.67,1.25
		c-0.14,0.28,0.56,1.25,1.11,1.53c1.25,0.7,2.5,1.11,3.76,1.67c1.81,0.83,2.78,2.09,2.92,4.17c0,1.95-0.83,3.48-2.5,4.45
		C53.28,42.16,48.97,41.47,46.46,38.82z"/>
</g>
</svg>
