<?xml version="1.0" encoding="utf-8"?>
<!-- Generator: Adobe Illustrator 25.0.0, SVG Export Plug-In . SVG Version: 6.00 Build 0)  -->
<svg version="1.1" id="Calque_1" xmlns="http://www.w3.org/2000/svg" xmlns:xlink="http://www.w3.org/1999/xlink" x="0px" y="0px"
	 viewBox="0 0 50 50" style="enable-background:new 0 0 50 50;" xml:space="preserve">
<style type="text/css">
	.st0{fill:#FFFFFF;}
</style>
<path class="st0" d="M25,0.4c-0.8,0-1.5,0.2-2.2,0.6l-18,10.2c-1.3,0.7-2.2,2.2-2.2,3.7v20.2c0,1.5,0.9,3,2.2,3.8l18,10.2
	c1.3,0.8,3,0.8,4.5,0l18-10.2c1.4-0.8,2.2-2.2,2.2-3.8V14.8c0-1.5-0.9-3-2.2-3.8L27.2,1C26.5,0.5,25.8,0.4,25,0.4z M25,2.5
	c0.4,0,0.8,0.2,1.2,0.3l18,10.2c0.8,0.4,1.2,1.2,1.2,1.9v20.2c0,0.8-0.5,1.5-1.2,2l-18,10.2c-0.8,0.5-1.6,0.5-2.4,0l-18-10.2
	c-0.8-0.5-1.2-1.2-1.2-2V14.8c0-0.8,0.5-1.5,1.2-1.9l18-10.2C24.2,2.6,24.6,2.5,25,2.5z M25,11c-7.7,0-14,6.3-14,14
	s6.3,13.9,14,13.9c4.3,0,8.4-2.1,11.1-5.5l0.8-0.9l-6.4-3.8l-0.6,0.6c-1.2,1.3-3,2.1-4.8,2.1c-3.6,0-6.5-2.8-6.5-6.5
	s2.9-6.4,6.4-6.4c1.8,0,3.6,0.8,4.8,2.1l0.6,0.6l6.5-3.8l-0.8-0.9C33.4,13.1,29.3,11,25,11z M25,13.1c3.3,0,6.3,1.4,8.6,3.8l-3,1.7
	c-1.5-1.4-3.4-2.2-5.6-2.2c-4.7,0-8.6,3.9-8.6,8.6s3.9,8.5,8.6,8.5c2.1,0,4.1-0.9,5.6-2.2l3,1.6c-2.3,2.4-5.3,3.8-8.6,3.8
	c-6.4,0-11.8-5.2-11.8-11.9S18.6,13.1,25,13.1z M35.6,19.6v2.1h-2.1v2.1h2.1v2.1h-2.1V28h2.1v2.1h2.1V28H40v2.1h2.1V28h2.1v-2.1
	h-2.1v-2.1h2.1v-2.1h-2.1v-2.1H40v2.1h-2.1v-2.1H35.6z M37.9,23.9H40V26h-2.1V23.9z"/>
</svg>
