<?xml version="1.0" encoding="utf-8"?>
<!-- Generator: Adobe Illustrator 25.0.0, SVG Export Plug-In . SVG Version: 6.00 Build 0)  -->
<svg version="1.1" id="Capa_1" xmlns="http://www.w3.org/2000/svg" xmlns:xlink="http://www.w3.org/1999/xlink" x="0px" y="0px"
	 viewBox="0 0 16.9 16.9" style="enable-background:new 0 0 16.9 16.9;" xml:space="preserve">
<style type="text/css">
	.st0{fill:#FFFFFF;}
</style>
<g>
	<g>
		<path class="st0" d="M6.7,5.6L6.7,5.6C6.6,6.1,6.4,6.8,6.3,7.4L5.7,9.3h2L7.2,7.4C7,6.8,6.9,6.1,6.7,5.6z"/>
		<path class="st0" d="M16.3-0.6H0.5c-0.6,0-1.1,0.5-1.1,1.1v15.8c0,0.6,0.5,1.1,1.1,1.1h15.8c0.6,0,1.1-0.5,1.1-1.1V0.5
			C17.4-0.1,16.9-0.6,16.3-0.6z M8.8,13.2l-0.7-2.4H5.5l-0.7,2.4H2.7L5.5,4h2.7l2.8,9.2H8.8z M14.2,13.2h-2.1V6.6h2.1V13.2z
			 M13.1,5.7c-0.7,0-1.1-0.5-1.1-1c0-0.6,0.4-1,1.1-1c0.7,0,1.1,0.4,1.1,1C14.2,5.3,13.8,5.7,13.1,5.7z"/>
	</g>
</g>
</svg>
