<?xml version="1.0" encoding="utf-8"?>
<!-- Generator: Adobe Illustrator 27.0.1, SVG Export Plug-In . SVG Version: 6.00 Build 0)  -->
<svg version="1.1" id="Calque_1" xmlns="http://www.w3.org/2000/svg" xmlns:xlink="http://www.w3.org/1999/xlink" x="0px" y="0px"
	 viewBox="0 0 45.7 49.9" style="enable-background:new 0 0 45.7 49.9;" xml:space="preserve">
<style type="text/css">
	.st0{fill:#FFFFFF;}
</style>
<g>
	<path class="st0" d="M0.8,0C15.6,0,30.3,0,45,0c0.6,0.3,0.8,0.7,0.7,1.4c-0.2,1.7-0.4,3.4-0.5,5.1C44.6,12.7,44,18.9,43.3,25
		c-0.6,5.8-1.2,11.7-1.7,17.5c-0.1,0.7-0.4,1-1,1.2c-5.3,2-10.5,3.9-15.8,5.9c-0.6,0.2-1.2,0.2-1.8,0c-6-2-12.1-4-18.1-6
		c-0.5-0.2-0.8-0.5-0.8-1.1C3.8,38.7,3.4,34.8,3,30.9c-0.5-4.7-1-9.4-1.4-14.1C1,11.7,0.5,6.6,0,1.6C-0.1,0.8,0.1,0.3,0.8,0z
		 M34.9,12.7c0,0.2-0.1,0.3-0.1,0.5c-0.2,0.8-0.4,1.6-0.5,2.4c-0.1,0.6,0.2,1.1,0.7,1.2c0.6,0.2,1-0.1,1.3-0.7
		c0-0.1,0.1-0.2,0.1-0.4c0.3-1.1,0.6-2.3,0.9-3.4c0.2-1,0-1.4-1-1.5c-0.1,0-0.3,0-0.4,0c-3.4,0-6.8,0-10.1,0c-0.9,0-1.2,0.3-1.2,1.2
		c0,4,0,8.1,0,12.1c0,0.9,0.3,1.2,1.2,1.2c2.1,0,4.2,0,6.3,0c0.2,0,0.4,0,0.5,0c0,0.1,0,0.2,0,0.3c-0.5,3-1,6-1.6,9
		c0,0.2-0.2,0.4-0.4,0.4c-1.1,0.4-2.2,0.7-3.3,1.1c-0.6,0.2-1.2,0.4-1.8,0.6c-0.5,0.2-0.8,0.6-0.7,1.1c0.1,0.5,0.6,0.8,1.1,0.8
		c0.2,0,0.3,0,0.5-0.1c2-0.7,3.9-1.3,5.9-2c0.5-0.2,0.8-0.5,0.9-1c0.7-3.7,1.3-7.3,2-11c0.2-1-0.2-1.5-1.3-1.5c-2.1,0-4.3,0-6.4,0
		c-0.2,0-0.3,0-0.5,0c0-3.5,0-6.9,0-10.4C29.5,12.7,32.2,12.7,34.9,12.7z M20.8,36.2c-0.2,0-0.3-0.1-0.4-0.1c-1.5-0.4-3-0.8-4.5-1.2
		c-0.4-0.1-0.5-0.3-0.6-0.6c-0.2-1.3-0.5-2.6-0.7-3.8c0-0.2-0.1-0.4-0.2-0.6c-0.3-0.5-0.7-0.6-1.2-0.4c-0.6,0.2-0.9,0.6-0.7,1.1
		c0.3,1.7,0.7,3.4,1,5.1c0.1,0.5,0.5,0.9,1,1.1c2.4,0.7,4.8,1.4,7.2,2c0.4,0.1,0.8,0,1-0.4c0.1-0.3,0.2-0.6,0.2-1
		c0-8.4,0-16.9,0-25.3c0-1.1-0.3-1.4-1.3-1.4c-4,0-7.9,0-11.9,0c-0.1,0-0.3,0-0.4,0c-0.5,0.1-0.8,0.4-0.9,0.9
		c-0.1,0.7,0.3,1.2,1.2,1.2c3.6,0,7.1,0,10.7,0c0.2,0,0.4,0,0.6,0C20.8,20.5,20.8,28.3,20.8,36.2z"/>
</g>
</svg>
