<?xml version="1.0" encoding="utf-8"?>
<!-- Generator: Adobe Illustrator 27.0.1, SVG Export Plug-In . SVG Version: 6.00 Build 0)  -->
<svg version="1.1" id="Layer_1" xmlns="http://www.w3.org/2000/svg" xmlns:xlink="http://www.w3.org/1999/xlink" x="0px" y="0px"
	 viewBox="0 0 211 242" style="enable-background:new 0 0 211 242;" xml:space="preserve">
<style type="text/css">
	.st0{fill:#FFFFFF;}
</style>
<g>
	<path class="st0" d="M211,104c0,25.67,0,51.33,0,77c-1.5,1.02-2.94,2.12-4.5,3.03c-24.37,14.21-48.77,28.35-73.11,42.6
		c-8.54,5-16.93,10.24-25.39,15.36c-1,0-2,0-3,0c-1.18-0.85-2.31-1.8-3.56-2.52c-31.55-18.1-63.05-36.26-94.73-54.13
		c-3.95-2.23-5.11-4.69-5.09-8.98C1.69,165.58,1.24,154.79,1,144c0-27.33,0-54.67,0-82c1.5-1.02,2.95-2.13,4.51-3.04
		C33.88,42.41,62.28,25.91,90.65,9.34C95.18,6.7,99.55,3.79,104,1c1,0,2,0,3,0c1.18,0.85,2.3,1.8,3.56,2.52
		c31.12,17.84,62.17,35.8,93.45,53.34c4.96,2.78,6.48,5.85,6.4,11.28C210.22,80.09,210.76,92.05,211,104z M74.79,191.15
		c9.62,4.66,18.65,8.86,27.5,13.4c4,2.05,7.35,1.88,11.18-0.48c20.41-12.53,40.91-24.91,61.43-37.27c3.79-2.28,5.69-5.45,5.69-9.82
		c0.02-23.66,0.04-47.32,0.05-70.98c0-4.37-1.9-7.57-5.71-9.81c-20.35-11.97-40.7-23.96-60.99-36.04c-4.13-2.46-7.9-2.66-12.14-0.19
		C80.97,52.12,60.08,64.15,39.18,76.18c-3.82,2.2-5.78,5.34-5.78,9.75c0.01,23.83-0.1,47.66,0.17,71.48
		c0.03,2.87,1.44,6.28,3.34,8.46c3.46,3.98,7.41,7.74,11.77,10.7c12.01,8.16,25.57,6.46,35.81-3.86c2.96-2.99,4.49-6.27,4.46-10.64
		c-0.15-23.33-0.25-46.66,0.07-69.98c0.07-5.31-2.34-5.57-6.3-5.4c-3.78,0.16-7.38-0.95-7.26,5.44c0.4,21.49,0.15,42.99,0.15,64.48
		c0,9.96-8.15,14.69-16.86,9.64c-3.15-1.83-6.29-3.88-8.88-6.39c-1.57-1.51-2.92-4.1-2.94-6.22c-0.22-20.83-0.07-41.66-0.19-62.48
		c-0.02-3.07,1.02-4.78,3.69-6.29c17.92-10.2,35.79-20.49,53.55-30.96c2.91-1.72,5.04-1.44,7.71,0.16
		c17.13,10.24,34.28,20.44,51.54,30.45c3,1.74,4.11,3.68,4.08,7.12c-0.15,19.83-0.17,39.66,0.02,59.49c0.03,3.67-1.26,5.7-4.31,7.52
		c-17.27,10.32-34.47,20.78-51.61,31.32c-2.83,1.74-5.07,2.04-8.18,0.39c-7.29-3.86-14.84-7.22-22.7-10.98
		C78.52,183.48,76.8,187,74.79,191.15z M152.31,108.58c-1.19-8.61-3.54-12.89-9.5-15.86c-11.23-5.58-22.85-5.93-34.14-0.51
		c-7.15,3.43-10.9,9.74-10.56,17.84c0.33,7.75,4.49,13.05,11.57,16c2.75,1.15,5.6,2.11,8.46,2.95c6.05,1.79,12.22,3.2,18.19,5.21
		c7.59,2.57,8.95,9.76,3.1,15.18c-8.09,7.49-25.36,4.31-29.26-5.89c-1.8-4.71-4.36-5.1-8.28-4.2c-1.73,0.4-3.46,0.83-5.15,1.23
		c2.05,12.82,9.8,20.92,21.63,22.24c4.92,0.55,10,0.55,14.93,0.05c12.19-1.24,21.09-9.77,22.23-20.75
		c1.03-9.95-4.56-16.51-17.75-20.59c-7.14-2.21-14.36-4.13-21.5-6.31c-3.58-1.1-6.34-3.27-6.27-7.39c0.06-4.22,2.71-7.16,6.55-7.73
		c4.99-0.74,10.26-1.01,15.2-0.2c2.61,0.43,5.93,3.15,6.88,5.62c1.79,4.65,4.57,5.04,8.52,4.14
		C148.77,109.26,150.38,108.97,152.31,108.58z"/>
</g>
</svg>
