<?xml version="1.0" encoding="utf-8"?>
<!-- Generator: Adobe Illustrator 25.0.0, SVG Export Plug-In . SVG Version: 6.00 Build 0)  -->
<svg version="1.1" id="Calque_1" xmlns="http://www.w3.org/2000/svg" xmlns:xlink="http://www.w3.org/1999/xlink" x="0px" y="0px"
	 viewBox="0 0 226 226" style="enable-background:new 0 0 226 226;" xml:space="preserve">
<style type="text/css">
	.st0{fill:#FFFFFF;}
</style>
<g>
	<path class="st0" d="M105,1c5.7,0,11.3,0,17,0c1.1,0.3,2.2,0.7,3.4,0.8c46.1,4.6,85.2,38,96.7,82.8c1.7,6.7,2.6,13.6,3.9,20.4
		c0,5.7,0,11.3,0,17c-0.3,1.3-0.7,2.5-0.8,3.8c-6.1,44.8-30.2,75.8-71.9,92.7c-9.8,4-20.8,5.1-31.3,7.6c-5.7,0-11.3,0-17,0
		c-1.1-0.3-2.2-0.7-3.4-0.8c-44.4-4.4-82.5-35.5-95.5-78.5c-2.4-8-3.5-16.5-5.2-24.7c0-5.7,0-11.3,0-17c0.3-1.3,0.7-2.5,0.8-3.8
		c6.6-47,32.4-78.6,77-94.5C87.2,3.8,96.3,2.9,105,1z M44.8,113.5c0,13.7-0.1,27.3,0,41c0.1,16.2,10,26.1,26.2,26.2
		c28.3,0.1,56.6,0.1,85,0c16.2,0,26.1-9.9,26.2-26.2c0.1-27.3,0.1-54.6,0-82c-0.1-16.2-10-26.1-26.2-26.2c-28.3-0.1-56.6-0.1-85,0
		c-16.2,0-26.1,10-26.2,26.2C44.7,86.2,44.8,99.8,44.8,113.5z"/>
	<path class="st0" d="M76.2,81c8.2,0,16-0.4,23.7,0.1c10.9,0.7,18.4,8.5,19,18.9c0.7,11-5.6,19.1-16.8,21.2
		c-4.4,0.8-8.9,0.9-14.1,1.4c0,2.9,0,5.9,0,9c0,3,0,5.9,0,9.2c-4.1,0-7.8,0-11.8,0C76.2,121,76.2,101.3,76.2,81z M88.3,92
		c0,6.6,0,12.7,0,19.1c6.1,0.5,12.3,1.2,16.2-4c1.7-2.4,2.1-7.4,0.8-10.1C101.9,90,94.8,92.3,88.3,92z"/>
	<path class="st0" d="M155.6,107c-4.5-0.7-9.1-1.6-13.6-1.8c-1.5-0.1-3.2,1.7-4.8,2.6c1.1,1.3,2,3,3.4,3.8c3.5,1.9,7.3,3.3,10.8,5.1
		c4.9,2.5,7.2,6.6,6.8,12.2c-0.4,5.6-3.3,9.4-8.3,11.4c-7.2,3-14.7,2.4-22,0.2c-1.2-0.4-2.5-2.4-2.8-3.9c-0.5-2.4-0.1-4.9-0.1-7.4
		c5.2,0.9,10.1,2.1,15.1,2.5c1.8,0.1,3.8-1.7,5.8-2.6c-1.4-1.4-2.6-3.2-4.2-4.2c-2.2-1.4-4.9-2.1-7.2-3.3
		c-7.4-3.7-10.2-8.8-8.8-15.5c1.3-6.2,6.9-10.6,14.2-11.2c1.8-0.1,3.7-0.2,5.5,0C157.7,95.8,156.5,96.1,155.6,107z"/>
</g>
</svg>
