<?xml version="1.0" encoding="utf-8"?>
<!-- Generator: Adobe Illustrator 25.0.0, SVG Export Plug-In . SVG Version: 6.00 Build 0)  -->
<svg version="1.1" id="Calque_1" xmlns="http://www.w3.org/2000/svg" xmlns:xlink="http://www.w3.org/1999/xlink" x="0px" y="0px"
	 viewBox="0 0 50 50" style="enable-background:new 0 0 50 50;" xml:space="preserve">
<style type="text/css">
	.st0{fill:#FFFFFF;}
</style>
<path class="st0" d="M44.1,25.2l2.8-4.8c0.1-0.2,0.1-0.5,0-0.8l-5.6-16c-0.2-0.5-0.7-0.8-1.2-0.6L23.8,7c-0.3,0.1-0.6,0.3-0.7,0.6
	L21.3,12H16c-0.3,0-0.5,0.1-0.7,0.3l-12,13c-0.4,0.4-0.4,1,0,1.4l12.6,12c0.2,0.2,0.4,0.3,0.7,0.3h5.7l1.8,4.4
	c0.1,0.3,0.4,0.6,0.8,0.6l17.5,3c0.1,0,0.1,0,0.2,0c0.5,0,0.9-0.3,1-0.8L47,30c0.1-0.2,0-0.5-0.1-0.7L44.1,25.2z M21.3,12l14.1-2.6
	L28,24H11.2L21.3,12z M22.3,39L11.2,28H28l8.8,13.2L22.3,39z M40.4,38.9L32,26l7.3-14.6l4.8,13.8L40.4,38.9z"/>
</svg>
