<?xml version="1.0" encoding="utf-8"?>
<!-- Generator: Adobe Illustrator 25.0.0, SVG Export Plug-In . SVG Version: 6.00 Build 0)  -->
<svg version="1.1" id="Calque_1" xmlns="http://www.w3.org/2000/svg" xmlns:xlink="http://www.w3.org/1999/xlink" x="0px" y="0px"
	 viewBox="0 0 225 225" style="enable-background:new 0 0 225 225;" xml:space="preserve">
<style type="text/css">
	.st0{fill:#FFFFFF;}
</style>
<g>
	<path class="st0" d="M113.5,207.1c-18.3,0-36.7,0-55,0c-22.8-0.1-38.5-15.9-38.6-38.8c-0.1-36.7-0.1-73.3,0-110
		c0-22.5,15.9-38.4,38.4-38.4c36.8-0.1,73.7-0.1,110.5,0c22.4,0,38.3,16,38.3,38.5c0.1,36.8,0.1,73.7,0,110.5
		c0,22.2-16,38.1-38.1,38.2C150.5,207.2,132,207.1,113.5,207.1z M113.1,188.7c17.8,0,35.6,0,53.5,0c14.7,0,22.1-7.4,22.1-22.2
		c0-35.3,0-70.6,0-105.9c0-14.8-7.3-22.2-22-22.2c-35.5,0-71,0-106.4,0c-14.4,0-21.8,7.4-21.8,21.9c0,35.5,0,71,0,106.4
		c0,14.5,7.4,21.9,21.8,21.9C77.8,188.7,95.5,188.7,113.1,188.7z"/>
	<path class="st0" d="M85,126.8c-4.3,9.2-8.3,17.3-11.9,25.5c-1.6,3.5-3.6,5.3-7.6,4.8c-2.6-0.3-5.3,0-8-0.1
		c-4.3-0.1-5.1-1.3-3.1-5.2c5.9-11.5,11.9-23.1,18.1-34.4c1.7-3.2,1.6-5.6,0-8.7c-5.8-11.2-11.4-22.6-17-33.9
		c-2.5-4.9-1.9-5.3,3.4-6c9.8-1.4,15.9,1.6,18.8,11.6c1.7,6,5.2,11.4,8.3,18.1c3.7-8.1,7.5-15.2,10.4-22.7c2.1-5.5,5.2-7.4,11.1-7.1
		c10.4,0.5,11.7-0.8,6,9.9c-5.3,9.8-10.1,19.9-15.4,29.7c-1.5,2.7-1.3,4.7,0.1,7.3c6.3,11.7,12.3,23.6,18.5,35.4c2.6,5,2,6-3.7,6.1
		c-13.1,0.2-13.1,0.2-18.9-11.9C91.1,139.3,88.3,133.6,85,126.8z"/>
	<path class="st0" d="M153.6,89.9c0-5.7,0.1-11,0-16.3c-0.1-3.3,1-4.8,4.6-4.7c15.7,0.4,12.7-2.2,12.8,12.3
		c0.2,22.7,0.2,45.3,0.1,68c0,1.6-1.1,4.1-2.3,4.7c-10.5,4.7-21.4,6.3-32.5,2.1c-12.8-4.9-20-19.2-18-35
		c2.4-18.9,13.5-29.4,32.6-30.6C151.5,90.2,152.2,90.1,153.6,89.9z M153.1,141.6c0.1-0.4,0.4-0.9,0.4-1.4c0-9.3,0.1-18.6,0.1-27.9
		c0-7.2-2.5-9-8.8-5.3c-3.1,1.9-6.6,5.4-7.3,8.7c-1.2,5.5-1.2,11.5-0.1,17C138.8,140.4,145.2,143.4,153.1,141.6z"/>
</g>
</svg>
