<?xml version="1.0" encoding="utf-8"?>
<!-- Generator: Adobe Illustrator 27.0.1, SVG Export Plug-In . SVG Version: 6.00 Build 0)  -->
<svg version="1.1" id="Calque_1" xmlns="http://www.w3.org/2000/svg" xmlns:xlink="http://www.w3.org/1999/xlink" x="0px" y="0px"
	 viewBox="0 0 1920 1080" style="enable-background:new 0 0 1920 1080;" xml:space="preserve">
<style type="text/css">
	.st0{fill:#99D3C2;}
	.st1{fill:#458FCD;}
	.st2{fill:#E92248;}
	.st3{font-family:'ArialMT';}
	.st4{font-size:229.3437px;}
</style>
<g>
	<g>
		<path class="st0" d="M905.9,830.2c-409.4-58.4-747.8,152.1-791.6,103.1c-42.1-47.1,309.7-197.7,286.2-404.2
			c-12.7-110.9-124.6-159.8-84.9-215.7c52.9-74.4,259.2,0.9,463.9-92.7c166.3-76.1,208.1-207.1,240.8-197.3
			c40.1,12-92.1,188.2-55.3,403.5c43.9,256.4,299.4,402.8,240.8,452.1C1169.6,909.4,1070.1,853.6,905.9,830.2z"/>
		<path class="st1" d="M985.5,538.7c-1.6,175.5-30.3,201.7-44.6,212.2c-62.5,46.3-129.5,1.1-300.4,31
			c-156.3,27.4-207.2,84.8-251.6,60.4c-68-37.3,45.6-175.1-42.5-298.5c-60.9-85.4-172.6-99.4-163.5-127.7
			c11.7-36.3,186.6,12.4,399.1-39.7C793.9,324.6,862.9,216.8,934.5,247C987.9,269.6,987.1,359.3,985.5,538.7z"/>
		<path class="st1" d="M711.7,262.6"/>
		<path class="st0" d="M868.7,592.2"/>
		<path class="st2" d="M619.5,823.8c-124.7-33-263.5-123.3-277.9-216.6c-12.5-81.3,81.8-86.3,135.7-214.4
			c55.4-131.4-8.2-210.6,54.1-233.3c83.5-30.5,260.3,89.7,367.8,162.8c103.6,70.5,186.8,127,175.6,173.2
			c-16.3,67.1-212.9,31.1-256.6,115.1c-38.1,73.4,84.2,153.8,37.7,205.6C814.8,861.9,682.1,840.3,619.5,823.8z"/>
	</g>
	<text transform="matrix(1 0 0 1 501.8555 526.4307)" class="st3 st4">Porte Folio</text>
</g>
</svg>
