<?xml version="1.0" encoding="utf-8"?>
<!-- Generator: Adobe Illustrator 25.0.0, SVG Export Plug-In . SVG Version: 6.00 Build 0)  -->
<svg version="1.1" id="Calque_1" xmlns="http://www.w3.org/2000/svg" xmlns:xlink="http://www.w3.org/1999/xlink" x="0px" y="0px"
	 viewBox="0 0 1920 1080" style="enable-background:new 0 0 1920 1080;" xml:space="preserve">
<style type="text/css">
	.st0{fill:#05A9C7;}
	.st1{fill:#E5D2E0;}
	.st2{fill:#F1EDA3;}
	.st3{fill:#686BAE;}
</style>
<g>
	<path class="st0" d="M-2388.4,714.9h5968.8V1080c-1552.7,24.8-2131.1-6.1-2253.4-56c-28.7-11.7-139-68-236-25
		c-60.2,26.7-79.7,75.8-137,76c-57.6,0.2-64.1-49.3-131-61c-78.2-13.7-98.9,48.9-188,45c-82.1-3.6-85.8-57.7-168-61
		c-85-3.4-102.5,53.6-185,45c-65.6-6.8-76.5-45.2-135-55c-100.9-16.9-193.4,76.2-209,90c-100.3,88.6-671.9,123.9-2326.4,2
		C-2388.4,958.3-2388.4,836.6-2388.4,714.9z"/>
</g>
<g>
	<path class="st1" d="M2062.9,688c-480.3,99.5-742.6,108.6-895,95.8c-117.5-9.9-268.4-41-429,14c-37.3,12.8-90.1,35.3-167,37.1
		c-99.4,2.2-166.7-31.7-217-51.1c-211.7-81.5-333.3,30.5-639.8-5.2c-76.9-9-193.5-30.5-332.2-90.6c0-119.3,0-238.7,0-358h2680V688z"
		/>
</g>
<g>
	<path class="st2" d="M1905.8,558c-115.4-73-284.7-147.8-472.8-98c-126.4,33.5-139.8,91.1-258,108C944.1,601,888,396.4,671,422.2
		c-181.2,21.5-179.1,168.5-344,159.2C154.8,571.8,94.7,408.1-60,450.5c-52.4,14.4-91.3,45.7-190,77.2
		c-32.6,10.4-57.7,19.6-86.4,46.4c-36.7,34.2-40.2,68.6-105.6,78c-56.3,8.1-153.7-3.1-332.2-94.1c0-124,0-248,0-372h2680V558z"/>
</g>
<g>
	<path class="st3" d="M2268,216.5c-321.7-40.9-539.9-28-683-6.9c-57.1,8.4-81.5,15.1-117.6,19.5c-3.7,0.5-28,3-45.4,3.8
		c-89.4,4.5-122.6-28.8-183-30.3c-80.5-2.1-78.9,55-167,63.4c-91.7,8.8-105.6-51.9-207-52c-99.1-0.1-111.9,57.8-200,45
		c-72.4-10.5-79.3-51.8-150.8-51.9c-62.8,0-76.3,31.8-134.2,23.9c-60.8-8.3-60.1-45.4-112-50c-68.4-6.1-93,56.3-173.8,55.3
		C55.7,235.8,29,221.3,13,214c-60-27.1-176.3-45-425,2.5c0-72.2,0-144.4,0-216.6h2680V216.5z"/>
</g>
</svg>
