<?xml version="1.0" encoding="utf-8"?>
<!-- Generator: Adobe Illustrator 25.0.0, SVG Export Plug-In . SVG Version: 6.00 Build 0)  -->
<svg version="1.1" id="Calque_1" xmlns="http://www.w3.org/2000/svg" xmlns:xlink="http://www.w3.org/1999/xlink" x="0px" y="0px"
	 viewBox="0 0 1920 1080" style="enable-background:new 0 0 1920 1080;" xml:space="preserve">
<style type="text/css">
	.st0{fill:#05A9C7;}
</style>
<g>
	<path class="st0" d="M3944.4,573.4C2955,722.7,2226.2,823.8,1951.1,874.6c0,0-426.8,78.8-568.1-21.6c-7.3-5.2-49.7-27.2-110-43
		c-26.9-7-68.9-17.7-124-15c-53.1,2.6-92.6,16.3-120,26c-57.7,20.5-58,32.3-116,54c-28.4,10.6-71.7,26.4-130,30
		c-76.5,4.7-133.9-14.2-145-18c-46.2-15.8-43.9-26.1-106-51c-38.2-15.3-71.2-28.6-116-33c-54.7-5.4-97.5,5.1-136,15
		c-69.7,17.8-119.1,42.6-125,47c-128.7,96.4-759,174.9-1439.5-6.7c-181.7-48.5-441.9-132.8-739.9-284.9c0-375.3,0-750.6,0-1125.8
		h5968.8V573.4z"/>
</g>
</svg>
