<?xml version="1.0" encoding="utf-8"?>
<!-- Generator: Adobe Illustrator 25.0.0, SVG Export Plug-In . SVG Version: 6.00 Build 0)  -->
<svg version="1.1" id="Calque_1" xmlns="http://www.w3.org/2000/svg" xmlns:xlink="http://www.w3.org/1999/xlink" x="0px" y="0px"
	 viewBox="0 0 56.2 56.3" style="enable-background:new 0 0 56.2 56.3;" xml:space="preserve">
<style type="text/css">
	.st0{fill:#F1EDA3;}
</style>
<g>
	<path class="st0" d="M-292.4-2.9c19,0,38,0,57.2,0c-0.2,1.5-0.3,3-0.3,4.6c-0.5,5.6-1,11-1.5,16.6c-0.5,6.1-1,12.2-1.7,18.3
		c-0.5,5.4-1,10.8-1.3,16.3c-0.2,1.9-0.2,1.9-1.9,2.4c-6.9,2-14,4.1-20.9,6.1c-0.7,0.2-1.4,0.2-2,0c-7.2-2-14.5-4.2-21.7-6.3
		c-0.7-0.3-0.8-0.5-0.8-1c-0.5-5.6-1-11-1.5-16.6c-0.5-6.1-1-12.2-1.7-18.5c-0.3-5.3-0.8-10.7-1.4-16.1C-292,1-292.2-0.8-292.4-2.9z
		 M-288.7,0.5c0,0.3,0,0.7,0,0.9c0.7,8,1.4,15.9,2.2,23.9c0.7,8.6,1.5,17.3,2.2,25.9c0,0.7,0.3,0.8,0.8,1c6.2,1.7,12.5,3.6,18.7,5.4
		c0.5,0.2,1.2,0.2,1.9,0c6.2-1.7,12.5-3.6,18.7-5.4c0.5-0.2,0.8-0.5,0.8-1c0.2-1.7,0.3-3.4,0.3-5.1c0.7-6.8,1.2-13.4,1.9-20.2
		c0.7-6.9,1.2-13.7,1.8-20.7c0.2-1.5,0.3-3.1,0.5-4.7C-255.5,0.5-272,0.5-288.7,0.5z"/>
	<path class="st0" d="M-277.6,34.4c2.4,0,4.5,0,6.7,0c0,1.2,0.2,2.4,0.2,3.6c0,0.5,0.2,0.7,0.7,0.8c2,0.7,3.9,1.4,5.9,2
		c0.3,0.2,0.7,0.2,1,0c2-0.7,4-1.4,5.9-2c0.2,0,0.5-0.3,0.5-0.5c0.2-2.4,0.3-4.7,0.5-7.3c-4.9,0-9.8,0-14.8,0
		c-0.2-2.2-0.2-4.4-0.3-6.8c5.2,0,10.3,0,15.5,0c0.2-2.4,0.3-4.6,0.5-6.8c-7.7,0-15.5,0-23.2,0c-0.3-2.2-0.5-4.6-0.7-6.8
		c10.3,0,20.5,0,30.8,0c-0.2,2.2-0.3,4.4-0.3,6.4c-0.3,6.1-0.7,12.2-1.2,18.3c-0.2,2.5-0.3,5.1-0.5,7.6c0,0.2-0.3,0.7-0.5,0.7
		c-4,1.4-8.2,2.7-12.3,4.1c-0.3,0.2-0.7,0-0.8,0c-4-1.4-8.1-2.7-12.3-4.1c-0.2,0-0.7-0.3-0.7-0.5C-277.2,40.3-277.4,37.4-277.6,34.4
		z"/>
</g>
<g>
	<path class="st0" d="M-218.7,29.1c0-5.5,0-11,0-16.5c0.1-8.1,5.6-13.8,13.4-13.8c10.8,0,21.7,0,32.6,0c7.8,0,13.3,5.7,13.3,13.7
		c0,11.2,0,22.3,0,33.5c0,8-5.6,13.7-13.4,13.7c-10.9,0-21.7,0-32.6,0c-7.7,0.1-13.2-5.7-13.3-13.6
		C-218.7,40.4-218.7,34.7-218.7,29.1z M-180,28.9c3.5-2.1,5.2-5.1,4.7-9.1c-0.6-4.6-3.9-7.7-9-8c-5.3-0.3-10.7-0.2-16-0.4
		c-1.8,0-2.4,0.5-2.4,2.4c0.1,8.1,0,16.1,0,24.3c0,2.6-0.1,5.1,0.1,7.7c0,0.6,0.8,1.8,1.3,1.8c6.4,0,13,0.2,19.4-0.5
		c6.6-0.6,10-6,8.3-12.2C-174.7,31.7-177,30-180,28.9z"/>
	<path class="st0" d="M-196.2,42.2c0-3.5,0-6.7,0-10.2c4.3,0,8.6-0.2,12.9,0.1c2.2,0.1,3.5,3,3.3,5.7c-0.2,2.4-1.9,4.4-4.2,4.4
		C-188.1,42.2-192,42.2-196.2,42.2z"/>
	<path class="st0" d="M-196.3,26.7c0-3.3,0-6.2,0-9.3c3.7,0,7.4-0.1,11,0c2.2,0.1,3.5,2.3,3.5,4.7s-1.7,4.4-4.1,4.5
		C-189.2,26.8-192.6,26.7-196.3,26.7z"/>
</g>
<g>
	<path class="st0" d="M-365.1-2.1c0-0.2-0.1-0.6,0.3-0.5c0.1,0,0.1,0,0.2,0c18.6,0,37.1,0,55.6,0c-0.1,1.2-0.2,2.5-0.3,3.7
		c-0.3,4.4-0.8,8.8-1.1,13.2c-0.5,4.4-0.8,8.8-1.2,13.3c-0.3,4.4-0.8,8.8-1.1,13.2c-0.5,4.5-0.8,8.9-1.2,13.4c0,0.5-0.1,0.7-0.6,0.8
		c-7.3,2-14.6,4.1-21.9,6.1c-0.3,0.1-0.8,0.1-1.1,0c-7.2-2-14.4-4.1-21.7-6c-0.6-0.1-0.8-0.3-0.8-0.9s-0.1-1.1-0.1-1.6
		c-0.4-5.5-1-10.9-1.5-16.2s-0.9-10.7-1.5-16c-0.6-6.4-1.1-13-1.7-19.4C-364.8-0.1-364.9-1.1-365.1-2.1z M-314,2.2
		c-15.3,0-30.5,0-45.7,0c0.1,1,0.1,2,0.2,2.9c0.4,4.8,0.9,9.7,1.4,14.6c0.4,4.8,0.9,9.7,1.2,14.6c0.5,5.4,1,10.8,1.5,16.2
		c0,0.5,0.2,0.6,0.6,0.7c5.9,1.6,11.7,3.3,17.6,4.8c0.2,0.1,0.6,0.1,0.8,0c5.9-1.6,11.7-3.3,17.7-4.8c0.3-0.1,0.6-0.2,0.6-0.7
		c0.1-1.6,0.2-3,0.3-4.6c0.3-3.9,0.7-7.8,1-11.7c0.4-4.5,0.8-8.9,1.2-13.4c0.3-3.9,0.7-7.9,1-11.8C-314.5,6.8-314.2,4.5-314,2.2z"/>
	<path class="st0" d="M-352.5,30.4c-0.7-7.1-1.4-14.2-1.9-21.3c11.7,0,23.4,0,35.1,0c-0.2,2.4-0.4,4.6-0.7,7c-9,0-17.9,0-26.9,0
		c0.2,2.4,0.5,4.7,0.7,7.2c8.6,0,17,0,25.6,0c-0.2,2-0.3,3.9-0.6,5.9c-0.3,3.9-0.7,7.9-1,11.8c-0.1,1.1-0.2,2.2-0.3,3.4
		c0,0.3-0.1,0.6-0.6,0.7c-4.5,1.2-9,2.5-13.4,3.7c-0.2,0.1-0.6,0.1-0.8,0c-4.5-1.2-9-2.5-13.5-3.7c-0.3-0.1-0.6-0.2-0.6-0.6
		c-0.2-3.3-0.6-6.5-0.9-9.7c0-0.2,0-0.6,0-0.8c2.4,0,4.6,0,7,0c0.1,1.2,0.2,2.4,0.3,3.6c0.1,0.7-0.1,1.5,0.2,1.9s1.1,0.5,1.8,0.6
		c1.8,0.5,3.7,1,5.5,1.5c0.2,0.1,0.6,0.1,0.8,0c2.4-0.7,4.7-1.2,7.1-1.9c0.2,0,0.5-0.3,0.5-0.5c0.2-2.9,0.6-5.8,0.8-8.8
		C-336.3,30.4-344.4,30.4-352.5,30.4z"/>
</g>
<g>
	<g>
		<path class="st0" d="M-35.7,20L-35.7,20c-0.3,1.7-1,4-1.3,6l-2,6.3h6.7L-34,26C-34.7,24-35,21.6-35.7,20z"/>
		<path class="st0" d="M-3.7-0.7h-52.7C-58.3-0.7-60,1-60,3v52.7c0,2,1.7,3.7,3.7,3.7h52.7c2,0,3.7-1.7,3.7-3.7V3
			C0,1-1.7-0.7-3.7-0.7z M-28.7,45.3l-2.3-8h-8.7l-2.3,8h-7l9.3-30.7h9l9.3,30.7H-28.7z M-10.7,45.3h-7v-22h7V45.3z M-14.3,20.3
			c-2.3,0-3.7-1.7-3.7-3.3c0-2,1.3-3.3,3.7-3.3s3.7,1.3,3.7,3.3S-12,20.3-14.3,20.3z"/>
	</g>
</g>
<g>
	<path class="st0" d="M-136-0.7c17.9,0,35.6,0,53.3,0c0.7,0.4,1,0.8,0.8,1.7c-0.2,2-0.5,4.1-0.6,6.2c-0.7,7.5-1.5,15-2.3,22.3
		c-0.7,7-1.5,14.1-2.1,21.1c-0.1,0.8-0.5,1.2-1.2,1.5c-6.4,2.4-12.7,4.7-19.1,7.1c-0.7,0.2-1.4,0.2-2.2,0
		c-7.2-2.4-14.6-4.8-21.8-7.2c-0.6-0.2-1-0.6-1-1.3c-0.4-4.6-0.8-9.3-1.3-14c-0.6-5.7-1.2-11.3-1.7-17c-0.7-6.2-1.3-12.3-1.9-18.4
		C-137.1,0.2-136.8-0.4-136-0.7z M-94.8,14.6c0,0.2-0.1,0.4-0.1,0.6c-0.2,1-0.5,1.9-0.6,2.9c-0.1,0.7,0.2,1.3,0.8,1.5
		c0.7,0.2,1.2-0.1,1.6-0.8c0-0.1,0.1-0.2,0.1-0.5c0.4-1.3,0.7-2.8,1.1-4.1c0.2-1.2,0-1.7-1.2-1.8c-0.1,0-0.4,0-0.5,0
		c-4.1,0-8.2,0-12.2,0c-1.1,0-1.5,0.4-1.5,1.4c0,4.8,0,9.8,0,14.6c0,1.1,0.4,1.5,1.5,1.5c2.5,0,5.1,0,7.6,0c0.2,0,0.5,0,0.6,0
		c0,0.1,0,0.2,0,0.4c-0.6,3.6-1.2,7.2-1.9,10.9c0,0.2-0.2,0.5-0.5,0.5c-1.3,0.5-2.7,0.8-4,1.3c-0.7,0.2-1.5,0.5-2.2,0.7
		c-0.6,0.2-1,0.7-0.8,1.3c0.1,0.6,0.7,1,1.3,1c0.2,0,0.4,0,0.6-0.1c2.4-0.8,4.7-1.6,7.1-2.4c0.6-0.2,1-0.6,1.1-1.2
		c0.8-4.5,1.6-8.8,2.4-13.3c0.2-1.2-0.2-1.8-1.6-1.8c-2.5,0-5.2,0-7.7,0c-0.2,0-0.4,0-0.6,0c0-4.2,0-8.3,0-12.6
		C-101.3,14.6-98.1,14.6-94.8,14.6z M-111.8,43c-0.2,0-0.4-0.1-0.5-0.1c-1.8-0.5-3.6-1-5.4-1.5c-0.5-0.1-0.6-0.4-0.7-0.7
		c-0.2-1.6-0.6-3.1-0.8-4.6c0-0.2-0.1-0.5-0.2-0.7c-0.4-0.6-0.8-0.7-1.4-0.5c-0.7,0.2-1.1,0.7-0.8,1.3c0.4,2,0.8,4.1,1.2,6.2
		c0.1,0.6,0.6,1.1,1.2,1.3c2.9,0.8,5.8,1.7,8.7,2.4c0.5,0.1,1,0,1.2-0.5c0.1-0.4,0.2-0.7,0.2-1.2c0-10.1,0-20.4,0-30.5
		c0-1.3-0.4-1.7-1.6-1.7c-4.8,0-9.5,0-14.4,0c-0.1,0-0.4,0-0.5,0c-0.6,0.1-1,0.5-1.1,1.1c-0.1,0.8,0.4,1.4,1.4,1.4
		c4.3,0,8.6,0,12.9,0c0.2,0,0.5,0,0.7,0C-111.8,24-111.8,33.4-111.8,43z"/>
</g>
</svg>
