<?xml version="1.0" encoding="utf-8"?>
<!-- Generator: Adobe Illustrator 24.1.0, SVG Export Plug-In . SVG Version: 6.00 Build 0)  -->
<svg version="1.1" id="Calque_1" xmlns="http://www.w3.org/2000/svg" xmlns:xlink="http://www.w3.org/1999/xlink" x="0px" y="0px"
	 viewBox="0 0 120.9 120.9" style="enable-background:new 0 0 120.9 120.9;" xml:space="preserve">
<style type="text/css">
	.st0{fill:#38727C;}
</style>
<g>
	<path class="st0" d="M0,60.3C0.4,26.2,27.4-0.3,61.2,0c32.8,0.3,61.1,27.9,59.6,63.2c-1.4,32-28.3,58.4-62.4,57.7
		C26.5,120.2-0.3,92.7,0,60.3z M14.6,69.8C36,81.8,56.8,93.4,78,105.3c-23.4,9.3-51.8-0.9-62.2-26.7c-2-4.9-5.6-6.2-9.5-8.4
		c1.8,15.9,15.7,38.4,42.6,44.5c23.6,5.3,48.9-6.5,60.5-28.5c11.7-22.2,6.9-49.3-11.5-66.5C80.6,3.6,55.7,2,40.9,9.1
		c2.3,1.2,4.3,2.6,6.6,3.6c0.9,0.4,2.1,0.6,3.1,0.4C70.7,9.6,87,16,99.5,32c4.3,5.6,7.1,12,8.4,19.5C87.5,40.2,67.5,29,46.9,17.6
		c6.3,19.8,12.5,39,18.8,58.4c14.4-3.1,28.5-6.1,42.6-9.2c0.2,3-0.8,4.4-3.8,4.9c-6.2,1.1-12.3,2.6-18.6,4c2.1,6,4,11.8,6.3,17.5
		c1.2,2.8,0.2,4.1-2.4,5.3c-2-5.6-3.9-11.1-5.9-16.6c-2-5.4-2-5.3-7.7-4.1c-4.4,0.9-8.8,1.8-13.2,2.7c-2.3-7.2-4.6-14.1-6.8-21.1
		C42.3,62.9,28.8,66.3,14.6,69.8z M54.9,55.7c-4.5-13.8-8.8-27.3-13.3-41.4c-9.7,17.4-19.2,34.4-28.9,51.8
		C27.1,62.6,40.9,59.2,54.9,55.7z M5.8,69c0.3,0.1,0.7,0.2,0.9,0.4c1.8-4.2,4.5-8.2,5.1-12.6c2-14.2,7.7-26.1,19.2-34.8
		c4.3-3.3,5.5-8.3,9-12.9C16.3,17.9,1.7,44,5.8,69z"/>
</g>
</svg>
