<?xml version="1.0" encoding="utf-8"?>
<!-- Generator: Adobe Illustrator 24.1.0, SVG Export Plug-In . SVG Version: 6.00 Build 0)  -->
<svg version="1.1" id="Calque_1" xmlns="http://www.w3.org/2000/svg" xmlns:xlink="http://www.w3.org/1999/xlink" x="0px" y="0px"
	 viewBox="0 0 124.5 124.5" style="enable-background:new 0 0 124.5 124.5;" xml:space="preserve">
<style type="text/css">
	.st0{fill:#38727C;}
</style>
<g>
	<path class="st0" d="M0,62.2C-0.1,27.8,27.4,0.1,61.7,0c35.1-0.1,62.7,27.3,62.8,62.4c0.1,34.5-27.5,62-62.2,62.1
		C27.6,124.6,0.1,97.2,0,62.2z M12.8,62.2c0,27.7,22,49.5,49.8,49.5c27.1,0,49.1-22.1,49.1-49.4c0-27.4-22-49.5-49.2-49.5
		C34.9,12.8,12.8,34.7,12.8,62.2z"/>
	<path class="st0" d="M42.6,23.3c4.7,0.9,7.5,4,10,7.4c8.8-3.1,17.5-3.2,26.5-0.1c2.5-3.2,5.3-6.5,10.1-7.3c1.6,3.5,2,7.1,0.8,10.6
		c-0.5,1.7-0.3,2.8,0.9,4c0.9,1,1.9,2.4,2,3.8c0.6,5.6,1.7,11.3,1,16.8c-1,8.6-7.6,14.2-17,16.1C76,74.8,75,75,74.2,75.2
		c3.8,8.5,1.4,17.2,2.2,25.9c-7.1,0-13.8,0-20.8,0c0-3.4,0-6.8,0-10.2c-3.1,0-5.9,0.3-8.5-0.1c-4.2-0.6-7-3.2-9.2-6.8
		c-2.2-3.7-4.7-7.3-7.1-11.1c1.8-0.6,4-0.2,6,1.3c1.4,1.2,2.5,2.7,3.5,4.1c3.2,4.7,7.6,6.2,13.1,5.4c1.4-0.2,2.3-0.7,2.5-2.5
		c0.2-2,1.2-4,1.8-6.1c-1.7-0.4-3.8-0.8-5.7-1.4c-8.9-2.8-13.9-8.7-14.4-18c-0.3-6.6-0.6-13.3,4.3-18.9c0.4-0.5,0.3-1.6,0.1-2.4
		C40.9,30.8,41.2,27.2,42.6,23.3z"/>
</g>
</svg>
