<?xml version="1.0" encoding="utf-8"?>
<!-- Generator: Adobe Illustrator 24.1.0, SVG Export Plug-In . SVG Version: 6.00 Build 0)  -->
<svg version="1.1" id="Calque_1" xmlns="http://www.w3.org/2000/svg" xmlns:xlink="http://www.w3.org/1999/xlink" x="0px" y="0px"
	 viewBox="0 0 439 167" style="enable-background:new 0 0 439 167;" xml:space="preserve">
<style type="text/css">
	.st0{fill:#FFFFFF;}
</style>
<g>
	<path class="st0" d="M87.4,29.3v76.6c-2.7,0-5.3,0-8.1,0c0,0,0-64.9,0-76.6C81.9,29.3,84.7,29.3,87.4,29.3z"/>
	<path class="st0" d="M169.1,57.3c0,4.2,0,43.9,0,48.6H161c0-7.8,0-43.7,0-48.6c0-6.7-1.9-9.6-5.3-9.6c-8.5,0-16.1,17.2-16.4,24.4
		c0,8.4,0,27.2,0,33.7h-8.2c0-8.6,0-43,0-48.6c0-6.7-1.9-9.6-5.3-9.6c-8.7,0-16.4,18-16.4,24.9v33.2c-2.7,0-5.4,0-8.2,0
		c-0.1-13.8,0.1-45.6,0-60h8.2v19.6c2.8-9.8,10.5-20.7,19.1-20.7c7,0,10.8,4.4,10.8,12.6v8.1c2.8-9.7,10.5-20.7,19.1-20.7
		C165.3,44.7,169.1,49.2,169.1,57.3z"/>
	<path class="st0" d="M218.6,57.3c0,2.6,0,35.7,0,48.6h-8.2v-11c-6.3,9.5-13.8,12.1-19.9,12.1c-7.1,0-12.5-4.9-12.5-11.6
		c0-16.8,32.3-25.7,32.3-38c0-5.9-0.1-10.9-6.5-10.9c-4.9,0-10.8,3.6-14.5,9.3l-3.8-4c5.7-3.5,12.7-7.1,20.2-7.1
		C213.8,44.7,218.6,49.2,218.6,57.3z M210.4,62c-6.4,10.7-24.2,18-24.2,32.7c0,5.9,4,8.8,9.3,8.8c5.4,0,11.2-4.3,14.9-10.7
		C210.4,89.3,210.4,69,210.4,62z"/>
	<path class="st0" d="M271.8,45.8l-21.5,60c-5.5,14.7-13.3,24.3-22.2,24.3c-4.9,0-9.2-3.1-9.2-8.6c0-8.1,8.5-10.9,15.7-14.5
		c6.6-3.2,12.1-7,8.8-15.8c0,0,0,0,0,0l-17-45.5h8.5l17.6,49.6l17.3-49.6C270.4,45.8,271.2,45.8,271.8,45.8z M248.8,105.9l-3.2-8.6
		c-0.4,3.4-2.9,7.3-10.5,10.8c-5.3,2.5-9.9,5.3-9.9,10.2c0,3.5,2.9,5.8,6.1,5.8C239.3,124,245.3,115.5,248.8,105.9z"/>
	<path class="st0" d="M312.7,57.3c0,2.6,0,35.7,0,48.6h-8.2v-11c-6.3,9.5-13.8,12.1-19.9,12.1c-7.1,0-12.5-4.9-12.5-11.6
		c0-16.8,32.3-25.7,32.3-38c0-5.9-0.1-10.9-6.5-10.9c-4.9,0-10.8,3.6-14.5,9.3l-3.8-4c5.7-3.5,12.7-7.1,20.2-7.1
		C307.9,44.7,312.7,49.2,312.7,57.3z M304.5,62c-6.4,10.7-24.2,18-24.2,32.7c0,5.9,4,8.8,9.3,8.8c5.4,0,11.2-4.3,14.9-10.7
		C304.5,89.3,304.5,69,304.5,62z"/>
	<path class="st0" d="M365.7,57.3c0,3.4,0,43,0,48.6h-8.2c0-6.5,0-44.5,0-48.6c0-6.7-3.9-9.6-7.3-9.6c-8.7,0-16.4,18-16.4,24.9
		c0,4.2,0,30,0,33.2c-2.6,0-5.4,0-8.1,0c0-11.5,0-62.3,0-76.6h8.1c0,5.8,0,36.1,0,36.1c2.8-9.8,10.5-20.7,19.1-20.7
		C359.9,44.7,365.7,49.2,365.7,57.3z"/>
</g>
</svg>
