<?xml version="1.0" encoding="utf-8"?>
<!-- Generator: Adobe Illustrator 24.1.0, SVG Export Plug-In . SVG Version: 6.00 Build 0)  -->
<svg version="1.1" id="Calque_1" xmlns="http://www.w3.org/2000/svg" xmlns:xlink="http://www.w3.org/1999/xlink" x="0px" y="0px"
	 viewBox="0 0 443 289" style="enable-background:new 0 0 443 289;" xml:space="preserve">
<style type="text/css">
	.st0{fill:#FFFFFF;}
</style>
<g>
	<path class="st0" d="M279.5,62.5c8.1-5.5,16.6-10.4,24.1-16.6c5.8-4.7,10.3-10.8,15.7-16.6c0.5,1.9,1.3,3.8,1.4,5.7
		c0.5,23.1-2.8,45.6-12.2,66.9c-0.1,0.2-0.4,0.3-0.6,0.5c-4.1-9.3-8.2-18.5-12.4-27.8c-0.6-0.3-1.3-0.9-1.7-0.7
		c-2,0.7-3.9,1.7-5.8,2.5c-0.3-1.2-0.4-2.6-1.1-3.6C284.6,69.4,282,66,279.5,62.5z"/>
	<path class="st0" d="M134.3,108.6c-2.3-4.7-5.1-9.3-6.9-14.2c-2-5.5-3.2-11.4-4.7-17.1c0.8-0.8,1.8-1.4,2.4-2.3
		c4.1-6,8.2-12.1,12.2-18.2c1.2-1.9,2.2-3.9,3.3-5.9c6.4,3.9,12.7,7.8,19.1,11.7c-0.7,1.1-1.3,2.1-2,3.2c-2.4,3.4-4.9,6.9-7.4,10.3
		c-1.4-0.4-2.8-0.9-4.3-1.3c-0.7-0.2-1.4-0.3-2.1-0.5c0,0.1-0.1,0.3-0.1,0.4c0.5,0.3,1,0.5,1.6,0.8c0.7,0.6,1.3,1.2,2,1.8
		c-3,6.7-6,13.4-8.9,20.1C136.9,101,135.7,104.9,134.3,108.6z"/>
	<path class="st0" d="M295.6,74.7c4.1,9.3,8.2,18.5,12.4,27.8c-3.9,9.9-11.4,16.9-19.1,23.7c-0.3-1.2-0.6-2.4-0.8-3.5
		c-1-6.1-1.4-12.2-3-18.1c-1.5-5.9-4.1-11.6-6.3-17.4C284.4,83,290,78.8,295.6,74.7z"/>
	<path class="st0" d="M278.8,87.1c2.1,5.8,4.7,11.5,6.3,17.4c1.5,5.9,2,12.1,3,18.1c0.2,1.2,0.5,2.4,0.8,3.5
		c-7.3,5.4-14.7,10.8-22,16.1c-0.3-1.1-1.1-2.4-0.8-3.3c3.9-9.8,3.5-19.7,0.6-29.6c-0.5-1.8-2.2-3.2-3.3-4.7
		C268.5,98.8,273.7,92.9,278.8,87.1z"/>
	<path class="st0" d="M134.3,108.6c1.4-3.8,2.6-7.6,4.2-11.3c2.9-6.7,5.9-13.4,8.9-20.1c5.1,4,10.2,8.1,15.3,12.1
		c-0.3,1.2-0.5,2.5-1,3.6c-4.7,10.3-7.7,21.1-7.4,32.6c0,1.2-0.4,2.4-0.6,3.6C147.1,122.3,140.7,115.5,134.3,108.6z"/>
	<path class="st0" d="M153.6,129.2c0.2-1.2,0.6-2.4,0.6-3.6c-0.3-11.5,2.7-22.2,7.4-32.6c0.5-1.1,0.7-2.4,1-3.6
		c4.7,5.6,9.4,11.2,14.1,16.8c-0.6,0.8-1.5,1.5-1.7,2.4c-2.7,9.9-3.2,19.9,0.2,29.8c0.7,2,0.8,4.2,1.2,6.3
		C168.7,139.5,161.1,134.3,153.6,129.2z"/>
	<path class="st0" d="M151.9,151.3c-11.4-3.5-19.7-11.3-27.2-20.1c-2.1-2.5-3.8-5.4-5.7-8c0.5-1.9,1.1-3.8,1.5-5.7c1-5,2-10,3-14.9
		c8.7,10.4,17.5,20.7,26.2,31.1c0.1,1.5,0,3,0.2,4.5C150.5,142.5,151.2,146.9,151.9,151.3z"/>
	<path class="st0" d="M294.8,128.2c7.3-9.3,14.7-18.6,22.1-27.9c0.8-1.1,2.1-1.8,3.1-2.7c0.6,2,1.2,4,1.7,6c1,4.4,2,8.9,3,13.3
		c-7,10.8-14.8,20.9-25.7,28.1c-2,1.3-4.2,2.2-6.4,3.3C294.6,141.8,295.4,135.1,294.8,128.2z"/>
	<path class="st0" d="M205.4,151.4c-2.6-14.2-8.2-27.2-15.5-39.6c1.4-1.6,2.7-3.2,4.1-4.8c2.9-3.3,4.6-8,9.9-8.3
		c2.5,7,6.2,13.8,7.3,21c1.7,11,1.7,22.2,2.4,33.3C210.9,152.4,208.2,151.9,205.4,151.4z"/>
	<path class="st0" d="M92.2,96.4c-10.1-6.2-20.3-12.2-32-14.7c-9.1-2-18.4-3-27.7-4.4c3.3-3.2,7.8-4.3,12.3-5
		c16.7-2.7,32.9-0.6,48.3,6.5c1.1,0.5,2,1.5,2.9,2.2c-0.4,2.4-0.7,4.9-1.3,7.3C94.1,91,93.1,93.7,92.2,96.4z"/>
	<path class="st0" d="M219.9,86.4c-8.2,0-14.6-6.2-14.6-14.4c0-8,6.6-14.6,14.5-14.6c7.8,0,14.6,6.9,14.5,14.7
		C234.3,79.9,227.7,86.4,219.9,86.4z"/>
	<path class="st0" d="M263.3,104.7c1.1,1.6,2.8,3,3.3,4.7c2.9,9.9,3.2,19.8-0.6,29.6c-0.3,0.9,0.5,2.2,0.8,3.3
		c-7,3.4-13.9,6.8-20.9,10.3c-0.4-0.3-0.8-0.7-1.1-1C247,134.5,252.5,118.6,263.3,104.7z"/>
	<path class="st0" d="M247.6,113.4c-0.3,0.8-0.4,1.7-0.8,2.5c-6.7,11-10.8,22.9-13.3,35.5c-2.7,0.5-5.5,1-8.2,1.5
		c-0.7-15.8,0.6-31.3,5.9-46.3c0.9-2.5,2.2-4.8,3.4-7.2c1,0.7,2.2,1.2,3,2.1C241.1,105.4,244.3,109.4,247.6,113.4z"/>
	<path class="st0" d="M279.5,62.5c2.5,3.5,5.1,6.9,7.5,10.4c0.7,1,0.7,2.4,1.1,3.6c-8.4,6.1-16.7,12.3-25.1,18.4
		c-4.4-4.9-8.8-9.8-13.2-14.7C259.7,74.3,269.6,68.4,279.5,62.5z"/>
	<path class="st0" d="M346.1,78.6c10.5-6.1,22-8.7,34-7.9c7.9,0.5,15.7,2.8,23.5,4.3c1.3,0.3,2.4,1,3.6,1.8
		c-20,0.2-38.3,6-55.4,15.8C349.9,88,348,83.3,346.1,78.6z"/>
	<path class="st0" d="M203.9,98.6c-5.4,0.3-7,5.1-9.9,8.3c-1.4,1.6-2.7,3.2-4.1,4.8c-6.6-7.4-13.2-14.8-19.8-22.2
		c4.3-4.6,8.7-9.2,13-13.7C192.7,81.1,199.7,88.7,203.9,98.6z"/>
	<path class="st0" d="M92.2,96.4c0.9-2.7,1.8-5.4,2.5-8.1c0.6-2.4,0.9-4.8,1.3-7.3c1.8,0.8,3.8,1.4,5.5,2.4
		c8.5,5,15.7,11.6,21.9,19.1c-1,5-1.9,10-3,14.9c-0.4,1.9-1,3.8-1.5,5.7C110.1,114.2,101.2,105.3,92.2,96.4z"/>
	<path class="st0" d="M346.1,78.6c1.9,4.7,3.8,9.4,5.8,14.1c-4.8,3.9-9.8,7.7-14.4,11.8c-4.4,3.9-8.5,8.3-12.7,12.5
		c-1-4.4-2-8.9-3-13.3c-0.5-2-1.1-4-1.7-6C327.4,89.4,335.8,82.8,346.1,78.6z"/>
	<path class="st0" d="M140.5,51c-1.1,2-2.1,4-3.3,5.9c-4,6.1-8.1,12.2-12.2,18.2c-0.6,0.9-1.6,1.5-2.4,2.3
		c-3.8-15.5-5.8-31.1-3.6-47.6C126.5,37.1,133.5,44,140.5,51z"/>
	<path class="st0" d="M176.3,144.6c-0.4-2.1-0.5-4.3-1.2-6.3c-3.3-9.9-2.9-19.9-0.2-29.8c0.2-0.9,1.1-1.6,1.7-2.4
		c10,13.5,15.2,28.8,17.7,46.6C187.7,149.7,182,147.2,176.3,144.6z"/>
	<path class="st0" d="M294.8,128.2c0.6,6.9-0.2,13.6-2.2,20.2c-10.4,6.3-22.1,8.1-33.9,9c-3.5,0.3-7,0-10.6-0.3
		C264.9,149.3,281.1,140.8,294.8,128.2z"/>
	<path class="st0" d="M249.8,80.2c4.4,4.9,8.8,9.8,13.2,14.7c-5.1,6.2-10.2,12.3-15.3,18.5c-3.3-4-6.5-8-9.9-11.9
		c-0.8-0.9-2-1.4-3-2.1C237.8,91.6,242.7,85,249.8,80.2z"/>
	<path class="st0" d="M183.2,75.8c-4.3,4.6-8.7,9.2-13,13.7c-6.7-4.5-13.3-9-20-13.4c2.5-3.4,4.9-6.8,7.4-10.3c0.7-1,1.3-2.1,2-3.2
		C167.5,67,175.4,71.4,183.2,75.8z"/>
	<path class="st0" d="M151.9,151.3c-0.7-4.4-1.4-8.8-2-13.3c-0.2-1.5-0.1-3-0.2-4.5c12.8,9.8,26.9,17.4,41.6,24.2
		C177.6,158.8,164.4,157.1,151.9,151.3z"/>
	<path class="st0" d="M300.5,241.1c1.3,2.9,2.6,5.4,3.5,8.1c0.9,2.6,1.4,5.4,2.1,8.1c-3.5,1.4-5.2-0.1-5.7-3.5
		c-0.2-1.3-0.5-2.5-0.8-3.7c-1.4-6.1-3.6-7.5-10.5-6.4c0,4.4,0,9,0,13.7c-1.7,0-3,0-4.7,0c0-10.5,0-20.9,0.1-31.3
		c0-0.7,1.1-1.8,1.8-1.9c3.9-0.1,7.9-0.4,11.8,0.1c3.6,0.5,6.2,2.7,7,6.6c0.8,3.9-0.3,7-3.4,9.4C301.1,240.6,300.6,241,300.5,241.1z
		 M289.1,239.5c4,0.4,7.8,0.9,10.5-2.7c1.7-2.3,1.7-5-0.3-7c-2.8-3-6.4-3-10.3-1.9C289.1,231.7,289.1,235.5,289.1,239.5z"/>
	<path class="st0" d="M189.4,235.3c0-4.5,0-8.5,0-12.7c1.5,0,2.7,0,4.2,0c0,11.5,0,23,0,35.3c-1.6-0.5-3.1-1-5.5-1.8
		c-6.1,3.3-10.6,3.1-14.2-1.3c-3.8-4.5-3.9-13.1-0.2-17.8C177.3,232.4,182.1,231.8,189.4,235.3z M189.2,246.8c0-2,0.1-2.9,0-3.8
		c-0.5-3.3-1.9-5.8-5.6-6.2c-3.5-0.4-6.2,1.2-7,4.5c-0.7,2.8-0.6,6,0,8.9c0.7,2.9,3.2,4.6,6.4,4.4c3.3-0.2,5.3-2.3,6-5.4
		C189.3,247.9,189.2,246.8,189.2,246.8z"/>
	<path class="st0" d="M279.6,257.3c-2.9,0.7-4.9,0.7-5.9-2.7c-2.5-8.1-4-8.9-12.4-7.5c-0.9,0.1-1.8,1.2-2.2,2
		c-0.8,1.6-1.1,3.4-1.7,5c-1.2,3.6-1.2,3.6-5.9,3.2c2.9-8.6,5.8-17,8.6-25.5c0.7-1.9,1.1-4,2.1-5.7c0.6-1,2.1-2,3.3-2
		c1.1,0,3,0.9,3.4,1.8C272.5,236.3,276,246.7,279.6,257.3z M260.8,243.5c3.2,0,6.1,0,9.4,0c-1.6-4.9-3.1-9.6-4.8-14.7
		c-1.5,4.7-2.9,8.9-4.3,13.1C261,242.4,260.9,242.8,260.8,243.5z"/>
	<path class="st0" d="M315.8,242c0,4,0,7.6,0,11.7c4.6,0,9.2,0,14,0c0,1.5,0,2.5,0,3.7c-6.2,0-12.2,0-18.5,0c0-11.1,0-22.1,0-33.3
		c5.9,0,11.7,0,17.8,0c0.1,1,0.2,2.1,0.3,3.6c-4.6,0-9,0-13.6,0c0,3.6,0,6.9,0,10.5c4.2,0,8.3,0,12.4,0c0.9,2.7,0.4,3.9-2.4,3.8
		C322.6,241.9,319.3,242,315.8,242z"/>
	<path class="st0" d="M247.3,228.5c-6.6-1.8-12.7-2-17.1,3.9c-3.4,4.6-3.3,12.3-0.1,17c3.2,4.7,8.4,5.9,17.4,3.9
		c1.5,2.5,0.9,3.7-2,4.4c-11.2,2.4-20-2.2-22.2-11.8c-3.2-14.3,8.2-25.4,22.4-21.9C248.7,224.6,248.9,226,247.3,228.5z"/>
	<path class="st0" d="M225.4,152.9c2.7-0.5,5.5-1,8.2-1.5c-1,16.1-0.3,32.3-4.1,48.1C226.8,184.1,224.7,168.6,225.4,152.9z"/>
	<path class="st0" d="M133.1,237.1c0.5-1,0.8-2.5,1.7-2.9c8.1-4.2,15.4,0.3,15.5,9.3c0,4.6,0,9.1,0,14.5c-1.8-0.5-3.4-1-5.5-1.7
		c-0.6,0.3-1.9,1.1-3.4,1.5c-4.1,1.3-8.2-0.4-9.7-3.9c-1.6-3.8-0.1-8.1,4-9.9c3-1.3,6.3-1.7,9.5-2.5c0-5.2-2.9-6.3-10.9-3.9
		C133.9,237.5,133.5,237.3,133.1,237.1z M145.5,244.9c-2.7,0.7-5.4,0.9-7.4,2.2c-1.3,0.9-2.2,3.5-1.8,5.1c0.2,1.1,2.9,2.3,4.4,2.3
		C144.5,254.5,146,251.4,145.5,244.9z"/>
	<path class="st0" d="M205.4,151.4c2.7,0.5,5.4,1,8.1,1.5c-0.9,15.5-1.8,31.1-2.7,46.6c-0.5,0-1,0-1.6,0
		C206,183.6,206.2,167.5,205.4,151.4z"/>
	<path class="st0" d="M121.5,224.1c1.8,0,3.1,0,4.8,0c0,8.1,0.4,16.2-0.1,24.1c-0.5,8.6-6,11.8-14.8,9.2c0.1-1.1,0.3-2.3,0.5-3.4
		c0.9,0,1.4,0,1.8,0c5.7,0.6,7.7-1,7.8-6.9c0.1-6.4,0-12.7,0-19.1C121.5,226.8,121.5,225.5,121.5,224.1z"/>
	<path class="st0" d="M157.2,233.7c2.8-1,4.1-0.1,4,2.2c2.3-1.2,4.7-2.4,7.7-3.9c0.2,2.3,0.3,3.4,0.4,4.6c-7,2.4-7.5,3-7.5,10.7
		c0,3.3,0,6.6,0,10.2c-1.6,0.1-2.9,0.1-4.6,0.2C157.2,249.6,157.2,241.8,157.2,233.7z"/>
	<path class="st0" d="M201,233.6c1.5,0,2.7,0,4.2,0c0,7.9,0,15.7,0,23.8c-1.4,0-2.7,0-4.2,0C201,249.5,201,241.8,201,233.6z"/>
	<path class="st0" d="M203.2,231c-1.5-2.1-2.9-3.3-2.8-4.2c0.2-1.1,1.7-2.4,2.9-2.6c0.7-0.1,2.5,1.5,2.5,2.5
		C205.9,227.7,204.6,228.8,203.2,231z"/>
</g>
</svg>
