<?xml version="1.0" encoding="utf-8"?>
<!-- Generator: Adobe Illustrator 24.1.0, SVG Export Plug-In . SVG Version: 6.00 Build 0)  -->
<svg version="1.1" id="Calque_1" xmlns="http://www.w3.org/2000/svg" xmlns:xlink="http://www.w3.org/1999/xlink" x="0px" y="0px"
	 viewBox="0 0 367.7 143.5" style="enable-background:new 0 0 367.7 143.5;" xml:space="preserve">
<style type="text/css">
	.st0{enable-background:new    ;}
	.st1{fill:#282828;}
</style>
<g class="st0">
	<path class="st1" d="M41.2,58.2L75,108.8c-3,0-6.2,0-9.4,0L36.5,65.3L26,80.9c0,11.2,0,20.3,0,27.9c-3.2,0-6.3,0-9.4,0
		c0-19.9,0-70.9,0-88.4c3.1,0,6.3,0,9.4,0c0,15.4,0,41.7,0,57.9l38.6-57.9c0.6,0,1.3,0,1.9,0L41.2,58.2z"/>
	<path class="st1" d="M132.6,108.8c-14.4,0-32.5,0-48.9,0c0-8.2,0-59.2,0-88.4c12.7,0,33.1,0,45,0v1.8H93.1c0,0,0,0,0,0v52.5
		c0,0,0,0,0,0c1.9-5.5,5.2-9.9,8.9-13.5c7.1-7,16-8,21.4-8c0,0.6,0,1.2,0,1.8c-6.9,0-14.1,2-20,7.5C97.6,67.8,93,75.3,93,85.6
		c0,3.5,0,16.4,0,21.5h39.5V108.8z"/>
	<path class="st1" d="M197.2,20.4v88.4h-1.8L143.8,34v74.8c-0.6,0-1.2,0-1.8,0V20.4h1.8l51.6,74.8V20.4H197.2z"/>
	<path class="st1" d="M238.3,58.2l33.8,50.6c-3,0-6.2,0-9.4,0l-29.1-43.5l-10.4,15.6c0,11.2,0,20.3,0,27.9c-3.2,0-6.3,0-9.4,0
		c0-19.9,0-70.9,0-88.4c3.1,0,6.3,0,9.4,0c0,15.4,0,41.7,0,57.9l38.6-57.9c0.6,0,1.3,0,1.9,0L238.3,58.2z"/>
	<path class="st1" d="M357,64.7c0,25.1-19.4,45.5-43.3,45.5c-23.9,0-43.3-20.4-43.3-45.5c0-25.1,19.4-45.5,43.3-45.5
		C337.6,19.2,357,39.6,357,64.7z M347.3,60.5c-3-24-20.5-41.5-39-39.2c-18.5,2.3-31.2,23.6-28.1,47.6c3,24,20.5,41.5,39,39.2
		C337.7,105.8,350.3,84.5,347.3,60.5z"/>
</g>
</svg>
