<?xml version="1.0" encoding="utf-8"?>
<!-- Generator: Adobe Illustrator 24.1.0, SVG Export Plug-In . SVG Version: 6.00 Build 0)  -->
<svg version="1.1" id="Calque_1" xmlns="http://www.w3.org/2000/svg" xmlns:xlink="http://www.w3.org/1999/xlink" x="0px" y="0px"
	 viewBox="0 0 120 120" style="enable-background:new 0 0 120 120;" xml:space="preserve">
<style type="text/css">
	.st0{fill:#38727C;}
</style>
<g>
	<path class="st0" d="M55.5,0c3,0,6,0,9.1,0c0.6,0.2,1.2,0.4,1.8,0.4c23.6,2.2,44.2,19.1,51,42.1c1.2,4.2,1.8,8.6,2.7,12.9
		c0,3,0,6,0,9.1c-0.2,0.6-0.4,1.2-0.4,1.8c-2.5,24-19.2,44.3-42.3,51c-4.1,1.2-8.4,1.8-12.6,2.7c-3,0-6,0-9.1,0
		c-1.4-0.2-2.8-0.4-4.2-0.6c-24.8-4.6-41.2-18.9-48.9-42.9C1.2,72.6,0.8,68.6,0,64.6c0-3.2,0-6.4,0-9.6c0.2-0.5,0.4-1,0.4-1.5
		c2.4-23.6,19.2-44,42.1-50.8C46.7,1.4,51.2,0.9,55.5,0z M89.6,85.1c0-8.6,0.5-17-0.2-25.3c-0.6-7.7-6.4-12.3-14.1-12.4
		c-4.6,0-8.5,1.5-11.9,5.4c0-2.1,0-3.6,0-5.2c-4.4,0-8.6,0-12.8,0c0,12.5,0,24.9,0,37.3c4.4,0,8.6,0,13,0c0-7,0-13.9,0-20.8
		c0-4.2,2.6-6.9,6.4-7c3.7-0.2,6.2,2.1,6.4,6.3c0.3,6.1,0.2,12.3,0.3,18.4c0,1,0,2.1,0,3.2C81.2,85.1,85.4,85.1,89.6,85.1z
		 M31.6,47.6c0,12.6,0,25,0,37.4c3.9,0,7.7,0,11.4,0c0-12.6,0-25,0-37.4C39.2,47.6,35.6,47.6,31.6,47.6z M37.3,29.9
		c-4.2,0-7.2,2.7-7.3,6.4C29.9,40,33,43,37,43c4.1,0,7.2-2.7,7.2-6.5C44.3,32.7,41.4,29.9,37.3,29.9z"/>
</g>
</svg>
