<?xml version="1.0" encoding="utf-8"?>
<!-- Generator: Adobe Illustrator 24.1.0, SVG Export Plug-In . SVG Version: 6.00 Build 0)  -->
<svg version="1.1" id="Calque_1" xmlns="http://www.w3.org/2000/svg" xmlns:xlink="http://www.w3.org/1999/xlink" x="0px" y="0px"
	 viewBox="0 0 400 389" style="enable-background:new 0 0 400 389;" xml:space="preserve">
<style type="text/css">
	.st0{fill:none;stroke:#FFFFFF;stroke-width:0.25;stroke-miterlimit:10;}
	.st1{fill:#FFFFFF;}
	.st2{font-family:'BodoniSvtyTwoITCTT-Book';}
	.st3{font-size:146.2523px;}
	.st4{font-family:'BodoniSvtyTwoITCTT-BookIta';}
	.st5{font-size:28.5192px;}
</style>
<path class="st0" d="M199,21.2c-98,0-177.4,79.4-177.4,177.4S101,376,199,376s177.4-79.4,177.4-177.4S297,21.2,199,21.2z"/>
<path class="st0" d="M202.6,34.8C109,34.8,33.4,110.6,33.4,204S109,373.4,202.6,373.4s169.2-75.8,169.2-169.2S296,34.8,202.6,34.8z"
	/>
<path class="st0" d="M197,27.4c-97.4,0-176,78.8-176,176s78.8,176,176,176s176-78.8,176-176S294.2,27.4,197,27.4z"/>
<text transform="matrix(1 0 0 1 134.2019 196.8931)" class="st1 st2 st3">S</text>
<g>
	<text transform="matrix(1 0 0 1 188.3142 286.6392)" class="st1 st2 st3">E</text>
</g>
<text transform="matrix(1 0 0 1 204.6072 148.9366)" class="st1 st4 st5">souffle</text>
<text transform="matrix(1 0 0 1 126.4881 320.8345)" class="st1 st4 st5">dՎquilibre</text>
<g>
	<path class="st1" d="M250.8,176.2c0,0,5.6-5.4,8.8-1.8c4,4.6-1.4,18.2,3.2,28.2c2.6,5.4,5.2,3.6,10.4,12.2c3,4.8,4.4,9.2,4.8,8.6
		c0.8-0.6-0.2-7.4-1.8-12.6c-0.8-2.6-1.2-2.8-2.8-8c-0.6-1.6-0.8-2.8-1.6-4.4c-0.2-0.4-1-2.2-2.4-4.4c-1.8-2.6-3-3.2-6.2-9.4
		c-2.8-5.4-3.8-7.4-6.2-8.8C253.8,174.2,250.8,176.2,250.8,176.2z"/>
	<path class="st1" d="M305,192c-11.2,13-16.8,24.4-19.8,32.8c-0.8,2.2-2.4,7-5.4,13c-4,8-7.8,13.8-10.6,17.2"/>
	<path class="st1" d="M265.6,164.2c3,3.6,4.4,7.2,5.2,9.8c1.8,6,0.6,8.6,2.4,20.2c0.4,2,0.8,4.8,1.8,9.6c0.4,2.4,1,6,1.6,11.2
		c0,0.2,0,0.2,0,0.4c0.6,5.4,1.8,8.8,2.4,10.4c0.8,2.4,1.4,6,0.6,12.2"/>
	<path class="st1" d="M263.4,185c0.6,4,1.4,7.6,2.2,10.4c0,0,1.2,4.8,3,9.8l0,0c0,0,3,6.2,3.4,7"/>
	<path class="st1" d="M305,192c-0.2-0.4-1,0-5.6,4c-5.4,5-8.2,7.4-9.6,9.6c-6,8.4-8.6,23.2-6.8,25.6c1.6,2,6.6-4,9.6-9.2
		c2.8-5,2.4-7.2,6.2-16C302.4,197.2,305.4,193,305,192z"/>
	<path class="st1" d="M267.8,177.2"/>
	<path class="st1" d="M264.8,164.6c-0.4,0.8,1.2,3,2.4,6.2c2.6,6.2,1.8,9.8,3.2,23c0.6,5.6,1.8,13.8,4.4,23c1,3.6,2.8,9.4,4,9
		c1.4-0.6,1.4-9.8,1.2-12.8c0-7.2-1-12.8-1.2-14.4c-1.4-8.8-2.6-7.4-4.8-18c-1.4-6.8-1.8-9.2-3.6-12
		C268.4,165.2,265.2,163.6,264.8,164.6z"/>
</g>
<g>
	<path class="st1" d="M155.8,114.8c0,0-3-2-6.4,0c-2.4,1.4-3.2,3.4-6.2,8.8c-3.2,6-4.4,6.8-6.2,9.4c-1.4,2.2-2.2,3.8-2.4,4.4
		c-0.8,1.6-1,2.8-1.6,4.4c-1.6,5.2-2,5.4-2.8,8c-1.6,5.2-2.6,12-1.8,12.6c0.6,0.6,2-3.8,4.8-8.6c5.2-8.8,7.8-6.8,10.4-12.2
		c4.8-10-0.8-23.6,3.2-28.2C150.2,109.4,155.8,114.8,155.8,114.8z"/>
	<path class="st1" d="M137.8,193.8c-2.8-3.6-6.8-9.2-10.6-17.2c-3-6-4.6-11-5.4-13c-3-8.4-8.8-19.6-19.8-32.8"/>
	<path class="st1" d="M127,176.6c-0.8-6.2-0.2-10,0.6-12.2c0.6-1.6,2-5,2.4-10.4c0-0.2,0,0,0-0.4c0.4-5.2,1.2-8.8,1.6-11.2
		c0.8-4.8,1.4-7.6,1.8-9.6c2-11.6,0.8-14.2,2.4-20.2c0.8-2.6,2.2-6.2,5.2-9.8"/>
	<path class="st1" d="M134.8,150.8c0.4-0.8,3.4-7,3.4-7l0,0c1.8-4.8,3-9.8,3-9.8c0.8-2.8,1.4-6.2,2.2-10.4"/>
	<path class="st1" d="M101.8,130.6c-0.6,1,2.4,5.2,6.2,14s3.4,11,6.2,16c3,5.2,8,11.2,9.6,9.2c1.8-2.4-0.8-17-6.8-25.6
		c-1.4-2-4.2-4.6-9.6-9.6C102.8,130.4,102,130,101.8,130.6z"/>
	<path class="st1" d="M138.8,115.8"/>
	<path class="st1" d="M141.8,103.2c-0.4-1-3.6,0.6-5.8,4c-1.8,2.8-2.2,5.2-3.6,12c-2.2,10.6-3.2,9.2-4.8,18c-0.2,1.6-1.2,7-1.2,14.4
		c0,3-0.2,12.2,1.2,12.8c1.2,0.4,3-5.4,4-9c2.8-9,3.8-17.4,4.4-23c1.4-13,0.6-16.8,3.2-23C140.6,106.2,142.2,104,141.8,103.2z"/>
</g>
<circle class="st1" cx="299.4" cy="15.8" r="5.4"/>
<circle class="st1" cx="382.8" cy="108.6" r="5.4"/>
<circle class="st1" cx="362.8" cy="180.6" r="3.6"/>
<circle class="st1" cx="355.4" cy="168.2" r="3.6"/>
<circle class="st1" cx="397.8" cy="141.8" r="2.2"/>
<circle class="st1" cx="392" cy="126.6" r="3.6"/>
<circle class="st1" cx="395.6" cy="177" r="2.2"/>
<circle class="st1" cx="364.8" cy="220.2" r="2.2"/>
<circle class="st1" cx="395.6" cy="220.2" r="3.6"/>
<circle class="st1" cx="395.6" cy="235.4" r="3.6"/>
<circle class="st1" cx="388.2" cy="243.6" r="2.2"/>
<circle class="st1" cx="320.6" cy="306" r="5.4"/>
<circle class="st1" cx="337.8" cy="293.2" r="3.6"/>
<circle class="st1" cx="345.2" cy="327.6" r="3.6"/>
<circle class="st1" cx="335.6" cy="337.8" r="3.6"/>
<circle class="st1" cx="326.2" cy="347.4" r="3.6"/>
<circle class="st1" cx="247.2" cy="385.4" r="3.6"/>
<circle class="st1" cx="261" cy="379.6" r="3.6"/>
<circle class="st1" cx="339.4" cy="349.6" r="3.6"/>
<circle class="st1" cx="269.8" cy="381.8" r="2.2"/>
<circle class="st1" cx="267.6" cy="372.2" r="2.2"/>
<circle class="st1" cx="308.6" cy="315.2" r="2.2"/>
<circle class="st1" cx="315.2" cy="353.2" r="2.2"/>
<circle class="st1" cx="287.4" cy="72.4" r="3.6"/>
<circle class="st1" cx="299.8" cy="76" r="2.2"/>
<circle class="st1" cx="295.4" cy="83.4" r="2.2"/>
<circle class="st1" cx="204.8" cy="45.4" r="2.2"/>
<circle class="st1" cx="174" cy="8" r="3.6"/>
<circle class="st1" cx="163" cy="2.2" r="2.2"/>
<circle class="st1" cx="160.8" cy="10.2" r="2.2"/>
<circle class="st1" cx="138.2" cy="21.2" r="2.2"/>
<circle class="st1" cx="80.8" cy="47.2" r="5.4"/>
<circle class="st1" cx="94.4" cy="36.6" r="3.6"/>
<circle class="st1" cx="82.6" cy="97.2" r="3.6"/>
<circle class="st1" cx="64.4" cy="43.2" r="3.6"/>
<circle class="st1" cx="40.2" cy="101" r="2.2"/>
<circle class="st1" cx="79" cy="108.2" r="3.6"/>
<circle class="st1" cx="90.6" cy="104.6" r="2.2"/>
<circle class="st1" cx="53" cy="173" r="5.4"/>
<circle class="st1" cx="47.6" cy="188" r="3.6"/>
<circle class="st1" cx="60.6" cy="185" r="2.2"/>
<circle class="st1" cx="3.6" cy="200.4" r="3.6"/>
<circle class="st1" cx="7.4" cy="247.8" r="2.2"/>
<circle class="st1" cx="52.6" cy="250" r="3.6"/>
<circle class="st1" cx="15.8" cy="264.4" r="5.4"/>
<circle class="st1" cx="79" cy="304.2" r="3.6"/>
<circle class="st1" cx="88.4" cy="317.4" r="3.6"/>
<circle class="st1" cx="56.4" cy="327.6" r="3.6"/>
<ellipse transform="matrix(0.9951 -9.853325e-02 9.853325e-02 0.9951 -31.036 6.3727)" class="st1" cx="49" cy="317.4" rx="2.2" ry="2.2"/>
<circle class="st1" cx="67.2" cy="337.8" r="2.2"/>
<ellipse transform="matrix(0.1602 -0.9871 0.9871 0.1602 -206.3293 474.6895)" class="st1" cx="175.8" cy="358.6" rx="5.4" ry="5.4"/>
<circle class="st1" cx="191.6" cy="364.2" r="3.6"/>
<circle class="st1" cx="181.4" cy="385.4" r="3.6"/>
</svg>
